<svg id="圖層_1" data-name="圖層 1" xmlns="http://www.w3.org/2000/svg" xmlns:xlink="http://www.w3.org/1999/xlink" viewBox="0 0 140 140"><defs><style>.cls-1,.cls-2{fill:none;}.cls-2{clip-rule:evenodd;}.cls-3{clip-path:url(#clip-path);}.cls-4{clip-path:url(#clip-path-2);}.cls-5{clip-path:url(#clip-path-3);}.cls-6{clip-path:url(#clip-path-4);}.cls-7{clip-path:url(#clip-path-5);}.cls-8{clip-path:url(#clip-path-6);}.cls-9{clip-path:url(#clip-path-7);}.cls-10{clip-path:url(#clip-path-8);}.cls-11{clip-path:url(#clip-path-9);}.cls-12{clip-path:url(#clip-path-10);}.cls-13{clip-path:url(#clip-path-11);}.cls-14{clip-path:url(#clip-path-12);}.cls-15{clip-path:url(#clip-path-13);}.cls-16{clip-path:url(#clip-path-14);}.cls-17{clip-path:url(#clip-path-15);}.cls-18{clip-path:url(#clip-path-16);}.cls-19{clip-path:url(#clip-path-17);}.cls-20{clip-path:url(#clip-path-18);}.cls-21{clip-path:url(#clip-path-19);}.cls-22{clip-path:url(#clip-path-20);}.cls-23{clip-path:url(#clip-path-21);}.cls-24{clip-path:url(#clip-path-22);}.cls-25{clip-path:url(#clip-path-23);}.cls-26{clip-path:url(#clip-path-24);}.cls-27{clip-path:url(#clip-path-25);}.cls-28{clip-path:url(#clip-path-26);}.cls-29{clip-path:url(#clip-path-27);}.cls-30{clip-path:url(#clip-path-28);}.cls-31{clip-path:url(#clip-path-29);}.cls-32{clip-path:url(#clip-path-30);}.cls-33{clip-path:url(#clip-path-31);}.cls-34{clip-path:url(#clip-path-32);}.cls-35{clip-path:url(#clip-path-33);}.cls-36{clip-path:url(#clip-path-34);}.cls-37{clip-path:url(#clip-path-35);}.cls-38{clip-path:url(#clip-path-36);}.cls-39{clip-path:url(#clip-path-37);}.cls-40{clip-path:url(#clip-path-38);}.cls-41{clip-path:url(#clip-path-39);}.cls-42{clip-path:url(#clip-path-40);}.cls-43{clip-path:url(#clip-path-41);}.cls-44{clip-path:url(#clip-path-42);}.cls-45{clip-path:url(#clip-path-43);}.cls-46{clip-path:url(#clip-path-44);}.cls-47{clip-path:url(#clip-path-45);}.cls-48{clip-path:url(#clip-path-46);}.cls-49{clip-path:url(#clip-path-47);}.cls-50{clip-path:url(#clip-path-48);}.cls-51{clip-path:url(#clip-path-49);}.cls-52{clip-path:url(#clip-path-50);}.cls-53{clip-path:url(#clip-path-51);}.cls-54{clip-path:url(#clip-path-52);}.cls-55{clip-path:url(#clip-path-53);}.cls-56{clip-path:url(#clip-path-54);}.cls-57{clip-path:url(#clip-path-55);}.cls-58{clip-path:url(#clip-path-56);}.cls-59{clip-path:url(#clip-path-57);}.cls-60{clip-path:url(#clip-path-58);}.cls-61{clip-path:url(#clip-path-59);}.cls-62{clip-path:url(#clip-path-60);}.cls-63{clip-path:url(#clip-path-61);}.cls-64{clip-path:url(#clip-path-62);}.cls-65{clip-path:url(#clip-path-63);}.cls-66{clip-path:url(#clip-path-64);}.cls-67{clip-path:url(#clip-path-65);}.cls-68{clip-path:url(#clip-path-66);}.cls-69{clip-path:url(#clip-path-67);}.cls-70{clip-path:url(#clip-path-68);}.cls-71{clip-path:url(#clip-path-69);}.cls-72{clip-path:url(#clip-path-70);}.cls-73{clip-path:url(#clip-path-71);}.cls-74{clip-path:url(#clip-path-72);}.cls-75{clip-path:url(#clip-path-73);}.cls-76{clip-path:url(#clip-path-74);}.cls-77{clip-path:url(#clip-path-75);}.cls-78{clip-path:url(#clip-path-76);}.cls-79{clip-path:url(#clip-path-77);}.cls-80{clip-path:url(#clip-path-78);}.cls-81{clip-path:url(#clip-path-79);}.cls-82{clip-path:url(#clip-path-80);}.cls-83{clip-path:url(#clip-path-81);}.cls-84{clip-path:url(#clip-path-82);}.cls-85{clip-path:url(#clip-path-83);}.cls-86{clip-path:url(#clip-path-84);}.cls-87{clip-path:url(#clip-path-85);}.cls-88{clip-path:url(#clip-path-86);}.cls-89{clip-path:url(#clip-path-87);}.cls-90{clip-path:url(#clip-path-88);}.cls-91{clip-path:url(#clip-path-89);}.cls-92{clip-path:url(#clip-path-90);}.cls-93{clip-path:url(#clip-path-91);}.cls-94{clip-path:url(#clip-path-92);}.cls-95{clip-path:url(#clip-path-93);}.cls-96{clip-path:url(#clip-path-94);}.cls-97{clip-path:url(#clip-path-95);}.cls-98{clip-path:url(#clip-path-96);}.cls-99{clip-path:url(#clip-path-97);}.cls-100{clip-path:url(#clip-path-98);}.cls-101{clip-path:url(#clip-path-99);}.cls-102{clip-path:url(#clip-path-100);}.cls-103{clip-path:url(#clip-path-101);}.cls-104{clip-path:url(#clip-path-102);}.cls-105{clip-path:url(#clip-path-103);}.cls-106{clip-path:url(#clip-path-104);}.cls-107{clip-path:url(#clip-path-105);}.cls-108{clip-path:url(#clip-path-106);}.cls-109{clip-path:url(#clip-path-107);}.cls-110{clip-path:url(#clip-path-108);}.cls-111{clip-path:url(#clip-path-109);}.cls-112{clip-path:url(#clip-path-110);}.cls-113{clip-path:url(#clip-path-111);}.cls-114{clip-path:url(#clip-path-112);}.cls-115{fill:#b2b2b2;}</style><clipPath id="clip-path"><rect class="cls-1" x="-167.6" y="-1078.69" width="1024" height="700"/></clipPath><clipPath id="clip-path-2"><path class="cls-2" d="M79.22-608.88l3.37,0c12.31.85,27.08,12.2,27.08,28.88V-567h-12V-580c0-8.14-6.32-14.87-15.13-15.46H79.22Z"/></clipPath><clipPath id="clip-path-3"><path class="cls-2" d="M79.22-594.19h3.29c8.54,0,14,8.35,13.82,14.15V-567H87.17v-10.54c-.13-2.65-1.74-4.1-4.68-4.15H79.22Z"/></clipPath><clipPath id="clip-path-4"><path class="cls-2" d="M79.22-580h3c2.39,0,3.42,1.19,3.42,3.82V-567H79.22Z"/></clipPath><clipPath id="clip-path-5"><polygon class="cls-2" points="36.1 -567.33 36.1 -579.74 44.63 -579.74 44.63 -576.61 39.72 -576.61 39.72 -574.7 43.63 -574.7 43.63 -571.7 39.72 -571.7 39.72 -567.33 36.1 -567.33"/></clipPath><clipPath id="clip-path-6"><path class="cls-2" d="M64.22-572.13h3.43a5.48,5.48,0,0,1-1.57,3.8A5.39,5.39,0,0,1,62.25-567,5.48,5.48,0,0,1,58-568.69a7,7,0,0,1-1.58-4.82,7,7,0,0,1,1.54-4.79,5.29,5.29,0,0,1,4.2-1.75A5.38,5.38,0,0,1,66-578.69,5.32,5.32,0,0,1,67.59-575H64.12a2.21,2.21,0,0,0-.56-1.43,1.79,1.79,0,0,0-1.35-.49,1.73,1.73,0,0,0-1.6.86,4.88,4.88,0,0,0-.53,2.58,4.69,4.69,0,0,0,.56,2.56,1.9,1.9,0,0,0,1.67.87,1.79,1.79,0,0,0,1.33-.53,2.52,2.52,0,0,0,.58-1.52Z"/></clipPath><clipPath id="clip-path-7"><polygon class="cls-2" points="69.18 -567.33 69.18 -579.74 78.19 -579.74 78.19 -576.75 72.8 -576.75 72.8 -575.11 77.36 -575.11 77.36 -572.26 72.8 -572.26 72.8 -570.35 78.42 -570.35 78.42 -567.33 69.18 -567.33"/></clipPath><clipPath id="clip-path-8"><path class="cls-2" d="M19.13-581.61V-594.2h3.45l3.17,5.86a3.39,3.39,0,0,1,.31.7c.11.3.23.66.35,1.09a2.84,2.84,0,0,0-.07-.74,4.72,4.72,0,0,1,0-1v-5.91H29.8v12.59H26.32l-3.17-5.81a4.26,4.26,0,0,1-.32-.73c-.12-.31-.23-.67-.35-1.08,0,.23.06.46.07.7s0,.58,0,1v5.9Z"/></clipPath><clipPath id="clip-path-9"><polygon class="cls-2" points="59.25 -581.62 59.25 -590.88 55.99 -590.88 55.99 -594.21 66.07 -594.21 66.07 -590.88 62.88 -590.88 62.88 -581.62 59.25 -581.62"/></clipPath><clipPath id="clip-path-10"><polygon class="cls-2" points="67.32 -581.62 67.32 -594.21 70.95 -594.21 70.95 -589.93 74.34 -589.93 74.34 -594.21 77.97 -594.21 77.97 -581.62 74.34 -581.62 74.34 -586.5 70.95 -586.5 70.95 -581.62 67.32 -581.62"/></clipPath><clipPath id="clip-path-11"><polygon class="cls-2" points="48.37 -595.51 48.37 -605.58 45.12 -605.58 45.12 -609.17 55.17 -609.17 55.17 -605.58 51.99 -605.58 51.99 -595.51 48.37 -595.51"/></clipPath><clipPath id="clip-path-12"><polygon class="cls-2" points="56.41 -595.51 56.41 -609.17 60.04 -609.17 60.04 -604.53 63.42 -604.53 63.42 -609.17 67.04 -609.17 67.04 -595.51 63.42 -595.51 63.42 -600.82 60.04 -600.82 60.04 -595.51 56.41 -595.51"/></clipPath><clipPath id="clip-path-13"><polygon class="cls-2" points="69.17 -595.51 69.17 -609.17 78.19 -609.17 78.19 -605.9 72.8 -605.9 72.8 -604.09 77.36 -604.09 77.36 -600.96 72.8 -600.96 72.8 -598.84 78.42 -598.84 78.42 -595.51 69.17 -595.51"/></clipPath><clipPath id="clip-path-14"><path class="cls-2" d="M48.9-571.53l1.15-4.29,1.13,4.29Zm3-8.16H48.23l-4,12.41h3.56l.44-1.65h3.59l.42,1.65h3.59Z"/></clipPath><clipPath id="clip-path-15"><path class="cls-2" d="M39-585.26a2.12,2.12,0,0,1-1.68.83,2.12,2.12,0,0,1-1.67-.83,6.65,6.65,0,0,1,0-5.25,2.1,2.1,0,0,1,1.67-.84,2.1,2.1,0,0,1,1.68.84,5,5,0,0,1,.53,2.64A5,5,0,0,1,39-585.26Zm2.63-7.49a5.41,5.41,0,0,0-4.3-1.77,5.43,5.43,0,0,0-4.3,1.77,7.05,7.05,0,0,0-1.58,4.86A7.08,7.08,0,0,0,33-583a5.49,5.49,0,0,0,4.3,1.78,5.47,5.47,0,0,0,4.3-1.78,7.07,7.07,0,0,0,1.57-4.85A7.06,7.06,0,0,0,41.63-592.75Z"/></clipPath><clipPath id="clip-path-16"><path class="cls-2" d="M51.3-589a2,2,0,0,1-1.2.26H48.45v-2.36H50a2.17,2.17,0,0,1,1.29.26,1.17,1.17,0,0,1,.33.93A1.15,1.15,0,0,1,51.3-589Zm3.78,6.18L55-584.69a3.76,3.76,0,0,0-.46-1.92,2.2,2.2,0,0,0-1.38-.88,3.09,3.09,0,0,0,1.38-1.2,3.92,3.92,0,0,0,.44-1.92,3.28,3.28,0,0,0-1.08-2.77,5.94,5.94,0,0,0-3.63-.85H44.86v12.62h3.59v-4.34H50a1.48,1.48,0,0,1,1.2.4,2.13,2.13,0,0,1,.35,1.37v1.26a2.26,2.26,0,0,0,0,.52,3.86,3.86,0,0,0,.15.79H55.4v-.47C55.2-582.1,55.09-582.36,55.08-582.87Z"/></clipPath><clipPath id="clip-path-17"><path class="cls-1" d="M245-571H241.4a2.37,2.37,0,0,0-.52-1.25,2.66,2.66,0,0,0-1.93-.58,2.87,2.87,0,0,0-1.85.44,1.1,1.1,0,0,0-.4.92c0,.54.75,1,2.25,1.3,1.7.37,2.92.7,3.67.95l.5.2a3.46,3.46,0,0,1,2.28,3.26,4.16,4.16,0,0,1-2.21,3.89,5.77,5.77,0,0,1-.56.27,8.49,8.49,0,0,1-3.3.62,9.18,9.18,0,0,1-4.52-1,4.39,4.39,0,0,1-1.62-1.58,4.49,4.49,0,0,1-.54-2.23h3.75a1.79,1.79,0,0,0,.69,1.49,3.87,3.87,0,0,0,2.33.54,3,3,0,0,0,1.86-.51,1.2,1.2,0,0,0,.47-.92c0-.58-.74-1-2.21-1.36a25.59,25.59,0,0,1-4.14-1.13,3.45,3.45,0,0,1-2.25-3.3,4.26,4.26,0,0,1,1.18-3.07,5.77,5.77,0,0,1,4.43-1.57,9.28,9.28,0,0,1,3.89.69,1.34,1.34,0,0,1,.23.13,3.94,3.94,0,0,1,1.59,1.52A4.62,4.62,0,0,1,245-571Z"/></clipPath><clipPath id="clip-path-18"><path class="cls-1" d="M243.4-580.13a.6.6,0,0,1-.08.78.73.73,0,0,1-.48.21.82.82,0,0,1,.2.12l.34.46.27.46h-.44l-.21-.37a1.8,1.8,0,0,0-.35-.5l-.3-.09h-.22v1h-.37v-2.36h.93a1.17,1.17,0,0,1,.45.06A.49.49,0,0,1,243.4-580.13Zm-.3.38a.31.31,0,0,0,0-.19.27.27,0,0,0-.16-.12.49.49,0,0,0-.24,0h-.56v.69h.56a.59.59,0,0,0,.34-.1A.36.36,0,0,0,243.1-579.75Z"/></clipPath><clipPath id="clip-path-19"><path class="cls-1" d="M244.8-579.29a2.25,2.25,0,0,1-.28,1.07,2.07,2.07,0,0,1-.79.79,2.33,2.33,0,0,1-1.06.28,2.3,2.3,0,0,1-1.06-.28,2.07,2.07,0,0,1-.79-.79,2.25,2.25,0,0,1-.28-1.07,2.12,2.12,0,0,1,.28-1.08,1.87,1.87,0,0,1,.81-.79,2.36,2.36,0,0,1,1-.29,2.1,2.1,0,0,1,1,.29,1.85,1.85,0,0,1,.8.79A2.06,2.06,0,0,1,244.8-579.29Zm-.35,0a1.76,1.76,0,0,0-.24-.9,1.7,1.7,0,0,0-.67-.66,1.81,1.81,0,0,0-.87-.24,1.75,1.75,0,0,0-.87.24,1.64,1.64,0,0,0-.67.66,1.76,1.76,0,0,0-.24.9,1.78,1.78,0,0,0,.24.89,1.74,1.74,0,0,0,.66.66,1.81,1.81,0,0,0,.88.23,1.84,1.84,0,0,0,.89-.23,1.79,1.79,0,0,0,.65-.66A1.88,1.88,0,0,0,244.45-579.29Z"/></clipPath><clipPath id="clip-path-20"><polygon class="cls-1" points="223.8 -596.74 233.94 -579.85 223.8 -579.85 217.66 -579.85 207.98 -595.98 200.65 -608.18 207.98 -612.6 212.6 -615.38 223.8 -596.74"/></clipPath><clipPath id="clip-path-21"><path class="cls-1" d="M227.79-567.35v-1.53a4,4,0,0,0-4-3.26,4,4,0,0,0-4,4,4,4,0,0,0,4,4A4.07,4.07,0,0,0,227.79-567.35Zm3.37-.76v6.92h-3.37v-.76a7.27,7.27,0,0,1-4,1.17,7.34,7.34,0,0,1-7.07-7.34,7.33,7.33,0,0,1,7.07-7.33,7.2,7.2,0,0,1,4,1.18v-.81h3.37Z"/></clipPath><clipPath id="clip-path-22"><path class="cls-1" d="M212-567.35v-1.53a4,4,0,0,0-3.95-3.26,4,4,0,0,0-4,4,4,4,0,0,0,4,4A4.06,4.06,0,0,0,212-567.35Zm3.37-.76v6.92H212v-.76a7.38,7.38,0,0,1-3.95,1.17,7.34,7.34,0,0,1-7.07-7.34,7.33,7.33,0,0,1,7.07-7.33,7.22,7.22,0,0,1,3.95,1.18v-5.57h3.37Z"/></clipPath><clipPath id="clip-path-23"><polygon class="cls-1" points="207.98 -586.49 211.95 -579.85 207.98 -579.85 195.68 -579.85 186.65 -594.88 186.25 -595.53 186.65 -595.77 198.21 -602.74 207.98 -586.49"/></clipPath><clipPath id="clip-path-24"><rect class="cls-1" x="195.7" y="-575.45" width="3.67" height="14.26"/></clipPath><clipPath id="clip-path-25"><rect class="cls-1" x="195.7" y="-579.77" width="3.67" height="3.22"/></clipPath><clipPath id="clip-path-26"><path class="cls-1" d="M190.65-567.35v-1.53a4,4,0,0,0-4-3.26,4,4,0,0,0-4,4,4,4,0,0,0,4,4A4.07,4.07,0,0,0,190.65-567.35Zm3.37-.76v6.92h-3.37v-.76a7.36,7.36,0,0,1-4,1.17,7.34,7.34,0,0,1-7.07-7.34,7.33,7.33,0,0,1,7.07-7.33,7.2,7.2,0,0,1,4,1.18v-5.57H194Z"/></clipPath><clipPath id="clip-path-27"><polygon class="cls-1" points="186.65 -585.4 189.98 -579.85 186.65 -579.85 173.7 -579.85 171.87 -582.89 183.83 -590.08 186.65 -585.4"/></clipPath><clipPath id="clip-path-28"><path class="cls-1" d="M174.66-567.35v-1.53a4,4,0,0,0-4-3.26,4,4,0,0,0-4,4,4,4,0,0,0,4,4A4.07,4.07,0,0,0,174.66-567.35Zm3.37-.76v6.92h-3.37v-.76a7.36,7.36,0,0,1-4,1.17,7.34,7.34,0,0,1-7.07-7.34,7.33,7.33,0,0,1,7.07-7.33,7.2,7.2,0,0,1,4,1.18v-.81H178Z"/></clipPath><clipPath id="clip-path-29"><path class="cls-1" d="M341.38-600h-4.66l4.83,12.64h5.26L351.74-600H347.2l-2.94,8.21Zm-13.47,5c0-1.89.39-2.94,2.22-2.94s2.27.83,2.27,2.94Zm2.39,5.65c-1.94,0-2.39-.83-2.39-3.16h8.7c0-5.6-1.33-7.93-6.31-7.93-5.43,0-6.9,1.89-6.9,6.75s2,7,6.6,7,6.21-1.66,6.32-4.26H332.4C332.4-589.85,332-589.35,330.3-589.35ZM318.6-600h-4.26v12.64h8.53v-3H318.6Zm33.64,22.56v-31.2m0,31.2a32.59,32.59,0,0,0-7.76,2.8,38.77,38.77,0,0,0-15.79-3.49,40.1,40.1,0,0,0-17.35,4l-7-34.51h47.93"/></clipPath><clipPath id="clip-path-30"><path class="cls-1" d="M370.09-572.35c0-.16-.23-.28-.78-.28v.61c.39,0,.78,0,.78-.32Zm-1.28,1.66v-2.42h.67c.66,0,1.16.16,1.16.77,0,.28-.17.5-.55.72l.44.94h-.44l-.39-.72h-.39v.71Zm2.88-1.21a2,2,0,0,0-2.05-2.05,2,2,0,0,0-2.05,2.05,2.09,2.09,0,0,0,2,2,2.07,2.07,0,0,0,1.48-.55A2,2,0,0,0,371.69-571.9Zm-2.05-2.43a2.42,2.42,0,0,1,2.24,1.17,2.43,2.43,0,0,1,0,2.52,2.45,2.45,0,0,1-2.24,1.18,2.44,2.44,0,0,1-1.73-.71,2.41,2.41,0,0,1-.71-1.73A2.44,2.44,0,0,1,369.64-574.33Zm-3.43-17.07h-4.49c0,3,1.66,4.26,6.54,4.26,4.54,0,6.37-1,6.37-4.15,0-5-8.42-2.5-8.42-5.49,0-.72.83-1.33,1.94-1.33a1.73,1.73,0,0,1,1.88,1.55h4.27c-.06-2.66-1.61-3.88-5.88-3.88-4.43,0-6.48,1.22-6.48,4,0,5.49,8.42,2.55,8.42,5.66,0,.94-.5,1.38-1.71,1.38C367.2-589.41,366.32-590,366.21-591.4Zm-5.93-7.87-.22,1.27c1.33-.83,1.88-1.55,1.88-2.49a1.55,1.55,0,0,0-.51-1.22,1.53,1.53,0,0,0-1.26-.39,1.51,1.51,0,0,0-1.2.36,1.5,1.5,0,0,0-.52,1.14C358.45-599.44,359.22-599.27,360.28-599.27ZM353-600.1v12.69h4.16V-600.1Zm-.77-8.59h32.3l-7.59,34.52c-5-2.88-9.53-4.1-16.12-4.1a44.21,44.21,0,0,0-8.59.78"/></clipPath><clipPath id="clip-path-31"><path class="cls-2" d="M79.22-748.88l3.37,0c12.31.84,27.08,12.2,27.08,28.88V-707h-12V-720c0-8.14-6.32-14.87-15.13-15.46H79.22Z"/></clipPath><clipPath id="clip-path-32"><path class="cls-2" d="M79.22-734.19h3.29c8.54,0,14,8.35,13.82,14.15V-707H87.17v-10.54c-.13-2.65-1.74-4.1-4.68-4.15H79.22Z"/></clipPath><clipPath id="clip-path-33"><path class="cls-2" d="M79.22-720h3c2.39,0,3.42,1.18,3.42,3.82V-707H79.22Z"/></clipPath><clipPath id="clip-path-34"><polygon class="cls-2" points="36.1 -707.33 36.1 -719.74 44.63 -719.74 44.63 -716.61 39.72 -716.61 39.72 -714.7 43.63 -714.7 43.63 -711.7 39.72 -711.7 39.72 -707.33 36.1 -707.33"/></clipPath><clipPath id="clip-path-35"><path class="cls-2" d="M64.22-712.13h3.43a5.44,5.44,0,0,1-1.57,3.79A5.35,5.35,0,0,1,62.25-707,5.48,5.48,0,0,1,58-708.69a7,7,0,0,1-1.58-4.82,7,7,0,0,1,1.54-4.79,5.29,5.29,0,0,1,4.2-1.75A5.38,5.38,0,0,1,66-718.69,5.32,5.32,0,0,1,67.59-715H64.12a2.21,2.21,0,0,0-.56-1.43,1.79,1.79,0,0,0-1.35-.49,1.73,1.73,0,0,0-1.6.86,4.88,4.88,0,0,0-.53,2.58,4.69,4.69,0,0,0,.56,2.56,1.9,1.9,0,0,0,1.67.87,1.79,1.79,0,0,0,1.33-.53,2.52,2.52,0,0,0,.58-1.53Z"/></clipPath><clipPath id="clip-path-36"><polygon class="cls-2" points="69.18 -707.33 69.18 -719.74 78.19 -719.74 78.19 -716.75 72.8 -716.75 72.8 -715.11 77.36 -715.11 77.36 -712.26 72.8 -712.26 72.8 -710.35 78.42 -710.35 78.42 -707.33 69.18 -707.33"/></clipPath><clipPath id="clip-path-37"><path class="cls-2" d="M19.13-721.62V-734.2h3.45l3.17,5.86a3.39,3.39,0,0,1,.31.7c.11.3.23.66.35,1.09a2.84,2.84,0,0,0-.07-.74,4.72,4.72,0,0,1,0-1v-5.91H29.8v12.58H26.32l-3.17-5.8a4.26,4.26,0,0,1-.32-.73c-.12-.31-.23-.67-.35-1.08,0,.23.06.46.07.7s0,.58,0,1v5.9Z"/></clipPath><clipPath id="clip-path-38"><polygon class="cls-2" points="59.25 -721.62 59.25 -730.88 55.99 -730.88 55.99 -734.21 66.07 -734.21 66.07 -730.88 62.88 -730.88 62.88 -721.62 59.25 -721.62"/></clipPath><clipPath id="clip-path-39"><polygon class="cls-2" points="67.32 -721.62 67.32 -734.21 70.95 -734.21 70.95 -729.93 74.34 -729.93 74.34 -734.21 77.97 -734.21 77.97 -721.62 74.34 -721.62 74.34 -726.5 70.95 -726.5 70.95 -721.62 67.32 -721.62"/></clipPath><clipPath id="clip-path-40"><polygon class="cls-2" points="48.37 -735.51 48.37 -745.58 45.12 -745.58 45.12 -749.17 55.17 -749.17 55.17 -745.58 51.99 -745.58 51.99 -735.51 48.37 -735.51"/></clipPath><clipPath id="clip-path-41"><polygon class="cls-2" points="56.41 -735.51 56.41 -749.17 60.04 -749.17 60.04 -744.53 63.42 -744.53 63.42 -749.17 67.04 -749.17 67.04 -735.51 63.42 -735.51 63.42 -740.82 60.04 -740.82 60.04 -735.51 56.41 -735.51"/></clipPath><clipPath id="clip-path-42"><polygon class="cls-2" points="69.17 -735.51 69.17 -749.17 78.19 -749.17 78.19 -745.9 72.8 -745.9 72.8 -744.09 77.36 -744.09 77.36 -740.96 72.8 -740.96 72.8 -738.84 78.42 -738.84 78.42 -735.51 69.17 -735.51"/></clipPath><clipPath id="clip-path-43"><path class="cls-2" d="M48.9-711.53l1.15-4.29,1.13,4.29Zm3-8.16H48.23l-4,12.41h3.56l.44-1.65h3.59l.42,1.65h3.59Z"/></clipPath><clipPath id="clip-path-44"><path class="cls-2" d="M39-725.26a2.12,2.12,0,0,1-1.68.83,2.12,2.12,0,0,1-1.67-.83,6.65,6.65,0,0,1,0-5.25,2.1,2.1,0,0,1,1.67-.84,2.1,2.1,0,0,1,1.68.84,5,5,0,0,1,.53,2.64A5,5,0,0,1,39-725.26Zm2.63-7.49a5.41,5.41,0,0,0-4.3-1.77,5.43,5.43,0,0,0-4.3,1.77,7.05,7.05,0,0,0-1.58,4.86A7.08,7.08,0,0,0,33-723a5.49,5.49,0,0,0,4.3,1.78,5.47,5.47,0,0,0,4.3-1.78,7.07,7.07,0,0,0,1.57-4.85A7.06,7.06,0,0,0,41.63-732.75Z"/></clipPath><clipPath id="clip-path-45"><path class="cls-2" d="M51.3-729a2,2,0,0,1-1.2.26H48.45v-2.36H50a2.17,2.17,0,0,1,1.29.26,1.17,1.17,0,0,1,.33.93A1.15,1.15,0,0,1,51.3-729Zm3.78,6.18L55-724.69a3.82,3.82,0,0,0-.46-1.93,2.22,2.22,0,0,0-1.38-.87,3.09,3.09,0,0,0,1.38-1.2,3.94,3.94,0,0,0,.44-1.93,3.27,3.27,0,0,0-1.08-2.76,5.94,5.94,0,0,0-3.63-.85H44.86v12.61h3.59v-4.33H50a1.48,1.48,0,0,1,1.2.4,2.13,2.13,0,0,1,.35,1.37v1.26a2.26,2.26,0,0,0,0,.52,3.66,3.66,0,0,0,.15.78H55.4v-.47C55.2-722.1,55.09-722.37,55.08-722.87Z"/></clipPath><clipPath id="clip-path-46"><path class="cls-1" d="M245-711H241.4a2.37,2.37,0,0,0-.52-1.25,2.66,2.66,0,0,0-1.93-.58,2.87,2.87,0,0,0-1.85.44,1.1,1.1,0,0,0-.4.92c0,.54.75,1,2.25,1.3,1.7.37,2.92.7,3.67.95l.5.2a3.46,3.46,0,0,1,2.28,3.26,4.16,4.16,0,0,1-2.21,3.89,4,4,0,0,1-.56.26,8.32,8.32,0,0,1-3.3.63,9.18,9.18,0,0,1-4.52-1,4.39,4.39,0,0,1-1.62-1.58,4.49,4.49,0,0,1-.54-2.23h3.75a1.79,1.79,0,0,0,.69,1.49,3.87,3.87,0,0,0,2.33.54,3,3,0,0,0,1.86-.51,1.2,1.2,0,0,0,.47-.92c0-.58-.74-1-2.21-1.36a25.59,25.59,0,0,1-4.14-1.13,3.45,3.45,0,0,1-2.25-3.3,4.26,4.26,0,0,1,1.18-3.07,5.77,5.77,0,0,1,4.43-1.57,9.28,9.28,0,0,1,3.89.69,1.34,1.34,0,0,1,.23.13,3.94,3.94,0,0,1,1.59,1.52A4.62,4.62,0,0,1,245-711Z"/></clipPath><clipPath id="clip-path-47"><path class="cls-1" d="M243.4-720.13a.6.6,0,0,1-.08.78.73.73,0,0,1-.48.21.82.82,0,0,1,.2.12l.34.46.27.46h-.44l-.21-.37a1.8,1.8,0,0,0-.35-.5l-.3-.09h-.22v1h-.37v-2.36h.93a1.38,1.38,0,0,1,.45,0A.55.55,0,0,1,243.4-720.13Zm-.3.38a.31.31,0,0,0,0-.19.27.27,0,0,0-.16-.12.49.49,0,0,0-.24,0h-.56v.69h.56a.59.59,0,0,0,.34-.1A.36.36,0,0,0,243.1-719.75Z"/></clipPath><clipPath id="clip-path-48"><path class="cls-1" d="M244.8-719.29a2.25,2.25,0,0,1-.28,1.07,2.07,2.07,0,0,1-.79.79,2.33,2.33,0,0,1-1.06.28,2.3,2.3,0,0,1-1.06-.28,2.07,2.07,0,0,1-.79-.79,2.25,2.25,0,0,1-.28-1.07,2.12,2.12,0,0,1,.28-1.08,1.87,1.87,0,0,1,.81-.79,2.36,2.36,0,0,1,1-.29,2.1,2.1,0,0,1,1,.29,1.85,1.85,0,0,1,.8.79A2.06,2.06,0,0,1,244.8-719.29Zm-.35,0a1.76,1.76,0,0,0-.24-.9,1.7,1.7,0,0,0-.67-.66,1.81,1.81,0,0,0-.87-.24,1.75,1.75,0,0,0-.87.24,1.64,1.64,0,0,0-.67.66,1.76,1.76,0,0,0-.24.9,1.78,1.78,0,0,0,.24.89,1.74,1.74,0,0,0,.66.66,1.81,1.81,0,0,0,.88.23,1.84,1.84,0,0,0,.89-.23,1.79,1.79,0,0,0,.65-.66A1.88,1.88,0,0,0,244.45-719.29Z"/></clipPath><clipPath id="clip-path-49"><polygon class="cls-1" points="223.8 -736.74 233.94 -719.85 223.8 -719.85 217.66 -719.85 207.98 -735.98 200.65 -748.18 207.98 -752.6 212.6 -755.38 223.8 -736.74"/></clipPath><clipPath id="clip-path-50"><path class="cls-1" d="M227.79-707.35v-1.53a4,4,0,0,0-4-3.26,4,4,0,0,0-4,4,4,4,0,0,0,4,4A4.05,4.05,0,0,0,227.79-707.35Zm3.37-.77v6.93h-3.37v-.76a7.27,7.27,0,0,1-4,1.17,7.34,7.34,0,0,1-7.07-7.34,7.33,7.33,0,0,1,7.07-7.33,7.2,7.2,0,0,1,4,1.18v-.82h3.37Z"/></clipPath><clipPath id="clip-path-51"><path class="cls-1" d="M212-707.35v-1.53a4,4,0,0,0-3.95-3.26,4,4,0,0,0-4,4,4,4,0,0,0,4,4A4,4,0,0,0,212-707.35Zm3.37-.77v6.93H212v-.76a7.38,7.38,0,0,1-3.95,1.17,7.34,7.34,0,0,1-7.07-7.34,7.33,7.33,0,0,1,7.07-7.33,7.22,7.22,0,0,1,3.95,1.18v-5.57h3.37Z"/></clipPath><clipPath id="clip-path-52"><polygon class="cls-1" points="207.98 -726.49 211.95 -719.85 207.98 -719.85 195.68 -719.85 186.65 -734.88 186.25 -735.53 186.65 -735.77 198.21 -742.74 207.98 -726.49"/></clipPath><clipPath id="clip-path-53"><rect class="cls-1" x="195.7" y="-715.45" width="3.67" height="14.26"/></clipPath><clipPath id="clip-path-54"><rect class="cls-1" x="195.7" y="-719.77" width="3.67" height="3.22"/></clipPath><clipPath id="clip-path-55"><path class="cls-1" d="M190.65-707.35v-1.53a4,4,0,0,0-4-3.26,4,4,0,0,0-4,4,4,4,0,0,0,4,4A4.05,4.05,0,0,0,190.65-707.35Zm3.37-.77v6.93h-3.37v-.76a7.36,7.36,0,0,1-4,1.17,7.34,7.34,0,0,1-7.07-7.34,7.33,7.33,0,0,1,7.07-7.33,7.2,7.2,0,0,1,4,1.18v-5.57H194Z"/></clipPath><clipPath id="clip-path-56"><polygon class="cls-1" points="186.65 -725.4 189.98 -719.85 186.65 -719.85 173.7 -719.85 171.87 -722.89 183.83 -730.08 186.65 -725.4"/></clipPath><clipPath id="clip-path-57"><path class="cls-1" d="M174.66-707.35v-1.53a4,4,0,0,0-4-3.26,4,4,0,0,0-4,4,4,4,0,0,0,4,4A4.05,4.05,0,0,0,174.66-707.35Zm3.37-.77v6.93h-3.37v-.76a7.36,7.36,0,0,1-4,1.17,7.34,7.34,0,0,1-7.07-7.34,7.33,7.33,0,0,1,7.07-7.33,7.2,7.2,0,0,1,4,1.18v-.82H178Z"/></clipPath><clipPath id="clip-path-58"><path class="cls-1" d="M341.38-740h-4.66l4.83,12.63h5.26L351.74-740H347.2l-2.94,8.21Zm-13.47,5c0-1.89.39-2.94,2.22-2.94s2.27.82,2.27,2.94Zm2.39,5.65c-1.94,0-2.39-.83-2.39-3.16h8.7c0-5.61-1.33-7.93-6.31-7.93-5.43,0-6.9,1.89-6.9,6.75s2,7,6.6,7,6.21-1.66,6.32-4.26H332.4C332.4-729.85,332-729.35,330.3-729.35ZM318.6-740h-4.26v12.64h8.53v-3H318.6Zm33.64,22.56v-31.2m0,31.2a32.59,32.59,0,0,0-7.76,2.8,38.77,38.77,0,0,0-15.79-3.49,40.1,40.1,0,0,0-17.35,4l-7-34.51h47.93"/></clipPath><clipPath id="clip-path-59"><path class="cls-1" d="M370.09-712.35c0-.16-.23-.28-.78-.28v.61c.39,0,.78,0,.78-.32Zm-1.28,1.66v-2.43h.67c.66,0,1.16.17,1.16.78,0,.28-.17.5-.55.72l.44.94h-.44l-.39-.72h-.39v.71Zm2.88-1.21a2,2,0,0,0-2.05-2.05,2,2,0,0,0-2.05,2.05,2.09,2.09,0,0,0,2,2,2.07,2.07,0,0,0,1.48-.55A2,2,0,0,0,371.69-711.9Zm-2.05-2.44a2.45,2.45,0,0,1,2.24,1.18,2.43,2.43,0,0,1,0,2.52,2.45,2.45,0,0,1-2.24,1.18,2.44,2.44,0,0,1-1.73-.71,2.41,2.41,0,0,1-.71-1.73A2.46,2.46,0,0,1,369.64-714.34Zm-3.43-17.06h-4.49c0,3,1.66,4.26,6.54,4.26,4.54,0,6.37-1,6.37-4.15,0-5-8.42-2.5-8.42-5.49,0-.72.83-1.34,1.94-1.34a1.73,1.73,0,0,1,1.88,1.56h4.27c-.06-2.66-1.61-3.88-5.88-3.88-4.43,0-6.48,1.22-6.48,4,0,5.49,8.42,2.55,8.42,5.66,0,.94-.5,1.38-1.71,1.38C367.2-729.41,366.32-730,366.21-731.4Zm-5.93-7.87-.22,1.27c1.33-.84,1.88-1.55,1.88-2.49a1.55,1.55,0,0,0-.51-1.22,1.53,1.53,0,0,0-1.26-.39,1.51,1.51,0,0,0-1.2.36,1.5,1.5,0,0,0-.52,1.14C358.45-739.44,359.22-739.27,360.28-739.27ZM353-740.1v12.69h4.16V-740.1Zm-.77-8.59h32.3l-7.59,34.52c-5-2.88-9.53-4.1-16.12-4.1a44.21,44.21,0,0,0-8.59.78"/></clipPath><clipPath id="clip-path-60"><rect class="cls-1" x="468.63" y="-723.43" width="5.64" height="6.9"/></clipPath><clipPath id="clip-path-61"><path class="cls-1" d="M476.69-714.1H466.21v-11.77h10.52Zm-18.21,0h-9.25l.51-2.49h6.86l1.43-6.75h-4.44l-.93,4.4h-2.43l1.41-6.87h9.29Zm-8.08-18.59h5.7v-6.91h-4.42V-742h6.84v9.32h2.39v2.44H450.4Zm15.86,0h10.45v2.43H466.26ZM467.4-742h8.06v2.43H467.4Zm-23-5.26v38.47h38.39v-38.47Z"/></clipPath><clipPath id="clip-path-62"><path class="cls-1" d="M515.47-723.82a1.6,1.6,0,0,0-1.6,1.61v4a1.6,1.6,0,0,0,.76,1.49,1.59,1.59,0,0,0,1.68,0,1.59,1.59,0,0,0,.77-1.49v-4A1.62,1.62,0,0,0,515.47-723.82Z"/></clipPath><clipPath id="clip-path-63"><path class="cls-1" d="M494.86-723.82a1.59,1.59,0,0,0-1.13.47,1.6,1.6,0,0,0-.46,1.14v4a1.59,1.59,0,0,0,1.59,1.59,1.59,1.59,0,0,0,1.59-1.59v-4A1.6,1.6,0,0,0,494.86-723.82Z"/></clipPath><clipPath id="clip-path-64"><path class="cls-1" d="M519.57-718.2a4.09,4.09,0,0,1-4.09,4.08,4.09,4.09,0,0,1-4.09-4.08v-4a4.09,4.09,0,0,1,4.09-4.09,4.09,4.09,0,0,1,4.09,4.09Zm-9.37-11.7h-2.38l-3.25-6.79v6.82h-2.46V-742h2.46l3.25,6.88V-742h2.39Zm0,15.75h-8.09v-12.14h2.42v9.76h5.67Zm-13.72,2.46-.83-2.5a4.11,4.11,0,0,1-.78.07,4.07,4.07,0,0,1-4-4.08v-4a4,4,0,0,1,2-3.51,4,4,0,0,1,4.05,0,4,4,0,0,1,2,3.51v4a4.12,4.12,0,0,1-1.19,2.89l1.19,3.62ZM490.84-742h2.45V-734a1.59,1.59,0,0,0,1.59,1.59,1.59,1.59,0,0,0,1.59-1.59v-8h2.46v8.13a4,4,0,0,1-4,4h-.14a4,4,0,0,1-4-4Zm23.42,0h2.42v12.15h-2.42ZM486-747.31v38.47H524.4v-38.47Z"/></clipPath><clipPath id="clip-path-65"><path class="cls-1" d="M599.52-722.94a.72.72,0,0,1-.52-.21.7.7,0,0,1-.22-.51.74.74,0,0,1,.74-.74.74.74,0,0,1,.74.74.7.7,0,0,1-.22.51A.73.73,0,0,1,599.52-722.94Zm0-1.75a1,1,0,0,0-.94,1,1,1,0,0,0,1,1,1,1,0,0,0,1-1,1,1,0,0,0-.32-.73A1,1,0,0,0,599.52-724.69Z"/></clipPath><clipPath id="clip-path-66"><polygon class="cls-1" points="609.85 -728.27 604.68 -728.27 605.27 -737.25 601.92 -728.27 597.12 -728.27 604.73 -748.57 609.83 -748.57 609.24 -739.47 612.66 -748.57 617.46 -748.57 609.85 -728.27"/></clipPath><clipPath id="clip-path-67"><polygon class="cls-1" points="610.47 -728.27 618.08 -748.57 622.88 -748.57 615.27 -728.27 610.47 -728.27"/></clipPath><clipPath id="clip-path-68"><path class="cls-1" d="M596.57-735.27c-6.71,7.88-13,18.35-7.45,23.17s12.18,1.91,16.79.07,55.6-24,55.6-24c.49-.24.4-.56-.22-.4l-55.5,15C598.78-719.41,590.78-723.69,596.57-735.27Z"/></clipPath><clipPath id="clip-path-69"><path class="cls-1" d="M599.53-723.77h-.13V-724h.13c.08,0,.18,0,.18.12S599.62-723.77,599.53-723.77Zm.17.18a.27.27,0,0,0,.2-.09.25.25,0,0,0,.07-.2c0-.27-.17-.34-.46-.34h-.42v1.1h.31v-.47l.26.47H600Z"/></clipPath><clipPath id="clip-path-70"><path class="cls-1" d="M647.74-746.87a.73.73,0,0,1-.72-.74.72.72,0,0,1,.73-.72.73.73,0,0,1,.73.73.74.74,0,0,1-.22.52A.73.73,0,0,1,647.74-746.87Zm0-1.76a1,1,0,0,0-.94,1,1,1,0,0,0,1,1,1,1,0,0,0,1-1,1,1,0,0,0-.32-.73A1,1,0,0,0,647.74-748.63Z"/></clipPath><clipPath id="clip-path-71"><path class="cls-1" d="M647.75-747.69h-.16v-.25h.13c.08,0,.18,0,.18.1S647.84-747.69,647.75-747.69Zm.17.16a.27.27,0,0,0,.2-.09.25.25,0,0,0,.07-.2c0-.27-.17-.33-.46-.33h-.42v1.1h.28v-.47l.26.47h.32Z"/></clipPath><clipPath id="clip-path-72"><path class="cls-1" d="M629.12-729.62l-.31-10.58,7.26-8Zm15.46-15.56,1.29-3.38H631.24l-5,6.08,2.32-6.08h-4.89l-7.55,20.29h4.8l3.22-8.49.26,8.49h14.72l1.4-3.91h-5.63l1.83-4.92h4.62l1.42-3.78h-4.62l1.58-4.27Z"/></clipPath><clipPath id="clip-path-73"><path class="cls-2" d="M79.22-888.88l3.37,0c12.31.84,27.08,12.2,27.08,28.88V-847h-12V-860c0-8.14-6.32-14.87-15.13-15.46H79.22Z"/></clipPath><clipPath id="clip-path-74"><path class="cls-2" d="M79.22-874.19h3.29c8.54,0,14,8.35,13.82,14.15V-847H87.17v-10.54c-.13-2.65-1.74-4.1-4.68-4.15H79.22Z"/></clipPath><clipPath id="clip-path-75"><polygon class="cls-2" points="36.1 -847.33 36.1 -859.74 44.63 -859.74 44.63 -856.61 39.72 -856.61 39.72 -854.7 43.63 -854.7 43.63 -851.7 39.72 -851.7 39.72 -847.33 36.1 -847.33"/></clipPath><clipPath id="clip-path-76"><path class="cls-2" d="M64.22-852.13h3.43a5.44,5.44,0,0,1-1.57,3.79A5.35,5.35,0,0,1,62.25-847,5.48,5.48,0,0,1,58-848.69a7,7,0,0,1-1.58-4.82,7,7,0,0,1,1.54-4.79,5.29,5.29,0,0,1,4.2-1.75A5.38,5.38,0,0,1,66-858.69,5.32,5.32,0,0,1,67.59-855H64.12a2.21,2.21,0,0,0-.56-1.43,1.79,1.79,0,0,0-1.35-.49,1.73,1.73,0,0,0-1.6.86,4.88,4.88,0,0,0-.53,2.58,4.69,4.69,0,0,0,.56,2.56,1.9,1.9,0,0,0,1.67.87,1.79,1.79,0,0,0,1.33-.53,2.52,2.52,0,0,0,.58-1.53Z"/></clipPath><clipPath id="clip-path-77"><polygon class="cls-2" points="69.18 -847.33 69.18 -859.74 78.19 -859.74 78.19 -856.75 72.8 -856.75 72.8 -855.11 77.36 -855.11 77.36 -852.26 72.8 -852.26 72.8 -850.35 78.42 -850.35 78.42 -847.33 69.18 -847.33"/></clipPath><clipPath id="clip-path-78"><path class="cls-2" d="M19.13-861.62V-874.2h3.45l3.17,5.86a3.39,3.39,0,0,1,.31.7c.11.3.23.66.35,1.09a2.84,2.84,0,0,0-.07-.74,4.72,4.72,0,0,1,0-1v-5.91H29.8v12.58H26.32l-3.17-5.8a4.26,4.26,0,0,1-.32-.73c-.12-.31-.23-.67-.35-1.08,0,.23.06.46.07.7s0,.58,0,1v5.9Z"/></clipPath><clipPath id="clip-path-79"><polygon class="cls-2" points="59.25 -861.62 59.25 -870.88 55.99 -870.88 55.99 -874.21 66.07 -874.21 66.07 -870.88 62.88 -870.88 62.88 -861.62 59.25 -861.62"/></clipPath><clipPath id="clip-path-80"><polygon class="cls-2" points="67.32 -861.62 67.32 -874.21 70.95 -874.21 70.95 -869.93 74.34 -869.93 74.34 -874.21 77.97 -874.21 77.97 -861.62 74.34 -861.62 74.34 -866.5 70.95 -866.5 70.95 -861.62 67.32 -861.62"/></clipPath><clipPath id="clip-path-81"><polygon class="cls-2" points="48.37 -875.51 48.37 -885.58 45.12 -885.58 45.12 -889.17 55.17 -889.17 55.17 -885.58 51.99 -885.58 51.99 -875.51 48.37 -875.51"/></clipPath><clipPath id="clip-path-82"><polygon class="cls-2" points="56.41 -875.51 56.41 -889.17 60.04 -889.17 60.04 -884.53 63.42 -884.53 63.42 -889.17 67.04 -889.17 67.04 -875.51 63.42 -875.51 63.42 -880.82 60.04 -880.82 60.04 -875.51 56.41 -875.51"/></clipPath><clipPath id="clip-path-83"><polygon class="cls-2" points="69.17 -875.51 69.17 -889.17 78.19 -889.17 78.19 -885.9 72.8 -885.9 72.8 -884.09 77.36 -884.09 77.36 -880.96 72.8 -880.96 72.8 -878.84 78.42 -878.84 78.42 -875.51 69.17 -875.51"/></clipPath><clipPath id="clip-path-84"><path class="cls-2" d="M48.9-851.53l1.15-4.29,1.13,4.29Zm3-8.16H48.23l-4,12.41h3.56l.44-1.65h3.59l.42,1.65h3.59Z"/></clipPath><clipPath id="clip-path-85"><path class="cls-2" d="M39-865.26a2.12,2.12,0,0,1-1.68.83,2.12,2.12,0,0,1-1.67-.83,6.65,6.65,0,0,1,0-5.25,2.1,2.1,0,0,1,1.67-.84,2.1,2.1,0,0,1,1.68.84,5,5,0,0,1,.53,2.64A5,5,0,0,1,39-865.26Zm2.63-7.49a5.41,5.41,0,0,0-4.3-1.77,5.43,5.43,0,0,0-4.3,1.77,7.05,7.05,0,0,0-1.58,4.86A7.08,7.08,0,0,0,33-863a5.49,5.49,0,0,0,4.3,1.78,5.47,5.47,0,0,0,4.3-1.78,7.07,7.07,0,0,0,1.57-4.85A7.06,7.06,0,0,0,41.63-872.75Z"/></clipPath><clipPath id="clip-path-86"><path class="cls-1" d="M245-851H241.4a2.37,2.37,0,0,0-.52-1.25,2.66,2.66,0,0,0-1.93-.58,2.87,2.87,0,0,0-1.85.44,1.1,1.1,0,0,0-.4.92c0,.54.75,1,2.25,1.3,1.7.37,2.92.7,3.67.95l.5.2a3.46,3.46,0,0,1,2.28,3.26,4.16,4.16,0,0,1-2.21,3.89,4,4,0,0,1-.56.26,8.32,8.32,0,0,1-3.3.63,9.18,9.18,0,0,1-4.52-1,4.39,4.39,0,0,1-1.62-1.58,4.49,4.49,0,0,1-.54-2.23h3.75a1.79,1.79,0,0,0,.69,1.49,3.87,3.87,0,0,0,2.33.54,3,3,0,0,0,1.86-.51,1.2,1.2,0,0,0,.47-.92c0-.58-.74-1-2.21-1.36a25.59,25.59,0,0,1-4.14-1.13,3.45,3.45,0,0,1-2.25-3.3,4.26,4.26,0,0,1,1.18-3.07,5.77,5.77,0,0,1,4.43-1.57,9.28,9.28,0,0,1,3.89.69,1.34,1.34,0,0,1,.23.13,3.94,3.94,0,0,1,1.59,1.52A4.62,4.62,0,0,1,245-851Z"/></clipPath><clipPath id="clip-path-87"><path class="cls-1" d="M243.4-860.13a.6.6,0,0,1-.08.78.73.73,0,0,1-.48.21.82.82,0,0,1,.2.12l.34.46.27.46h-.44l-.21-.37a1.8,1.8,0,0,0-.35-.5l-.3-.09h-.22v1h-.37v-2.36h.93a1.38,1.38,0,0,1,.45,0A.55.55,0,0,1,243.4-860.13Zm-.3.38a.31.31,0,0,0,0-.19.27.27,0,0,0-.16-.12.49.49,0,0,0-.24,0h-.56v.69h.56a.59.59,0,0,0,.34-.1A.36.36,0,0,0,243.1-859.75Z"/></clipPath><clipPath id="clip-path-88"><path class="cls-1" d="M244.8-859.29a2.25,2.25,0,0,1-.28,1.07,2.07,2.07,0,0,1-.79.79,2.33,2.33,0,0,1-1.06.28,2.3,2.3,0,0,1-1.06-.28,2.07,2.07,0,0,1-.79-.79,2.25,2.25,0,0,1-.28-1.07,2.12,2.12,0,0,1,.28-1.08,1.87,1.87,0,0,1,.81-.79,2.36,2.36,0,0,1,1-.29,2.1,2.1,0,0,1,1,.29,1.85,1.85,0,0,1,.8.79A2.06,2.06,0,0,1,244.8-859.29Zm-.35,0a1.76,1.76,0,0,0-.24-.9,1.7,1.7,0,0,0-.67-.66,1.81,1.81,0,0,0-.87-.24,1.75,1.75,0,0,0-.87.24,1.64,1.64,0,0,0-.67.66,1.76,1.76,0,0,0-.24.9,1.78,1.78,0,0,0,.24.89,1.74,1.74,0,0,0,.66.66,1.81,1.81,0,0,0,.88.23,1.84,1.84,0,0,0,.89-.23,1.79,1.79,0,0,0,.65-.66A1.88,1.88,0,0,0,244.45-859.29Z"/></clipPath><clipPath id="clip-path-89"><polygon class="cls-1" points="223.8 -876.74 233.94 -859.85 223.8 -859.85 217.66 -859.85 207.98 -875.98 200.65 -888.18 207.98 -892.6 212.6 -895.38 223.8 -876.74"/></clipPath><clipPath id="clip-path-90"><path class="cls-1" d="M227.79-847.35v-1.53a4,4,0,0,0-4-3.26,4,4,0,0,0-4,4,4,4,0,0,0,4,4A4.05,4.05,0,0,0,227.79-847.35Zm3.37-.77v6.93h-3.37v-.76a7.27,7.27,0,0,1-4,1.17,7.34,7.34,0,0,1-7.07-7.34,7.33,7.33,0,0,1,7.07-7.33,7.2,7.2,0,0,1,4,1.18v-.82h3.37Z"/></clipPath><clipPath id="clip-path-91"><path class="cls-1" d="M212-847.35v-1.53a4,4,0,0,0-3.95-3.26,4,4,0,0,0-4,4,4,4,0,0,0,4,4A4,4,0,0,0,212-847.35Zm3.37-.77v6.93H212v-.76a7.38,7.38,0,0,1-3.95,1.17,7.34,7.34,0,0,1-7.07-7.34,7.33,7.33,0,0,1,7.07-7.33,7.22,7.22,0,0,1,3.95,1.18v-5.57h3.37Z"/></clipPath><clipPath id="clip-path-92"><polygon class="cls-1" points="207.98 -866.49 211.95 -859.85 207.98 -859.85 195.68 -859.85 186.65 -874.88 186.25 -875.53 186.65 -875.77 198.21 -882.74 207.98 -866.49"/></clipPath><clipPath id="clip-path-93"><rect class="cls-1" x="195.7" y="-855.45" width="3.67" height="14.26"/></clipPath><clipPath id="clip-path-94"><rect class="cls-1" x="195.7" y="-859.77" width="3.67" height="3.22"/></clipPath><clipPath id="clip-path-95"><path class="cls-1" d="M190.65-847.35v-1.53a4,4,0,0,0-4-3.26,4,4,0,0,0-4,4,4,4,0,0,0,4,4A4.05,4.05,0,0,0,190.65-847.35Zm3.37-.77v6.93h-3.37v-.76a7.36,7.36,0,0,1-4,1.17,7.34,7.34,0,0,1-7.07-7.34,7.33,7.33,0,0,1,7.07-7.33,7.2,7.2,0,0,1,4,1.18v-5.57H194Z"/></clipPath><clipPath id="clip-path-96"><polygon class="cls-1" points="186.65 -865.4 189.98 -859.85 186.65 -859.85 173.7 -859.85 171.87 -862.89 183.83 -870.08 186.65 -865.4"/></clipPath><clipPath id="clip-path-97"><path class="cls-1" d="M174.66-847.35v-1.53a4,4,0,0,0-4-3.26,4,4,0,0,0-4,4,4,4,0,0,0,4,4A4.05,4.05,0,0,0,174.66-847.35Zm3.37-.77v6.93h-3.37v-.76a7.36,7.36,0,0,1-4,1.17,7.34,7.34,0,0,1-7.07-7.34,7.33,7.33,0,0,1,7.07-7.33,7.2,7.2,0,0,1,4,1.18v-.82H178Z"/></clipPath><clipPath id="clip-path-98"><path class="cls-1" d="M341.38-880h-4.66l4.83,12.63h5.26L351.74-880H347.2l-2.94,8.21Zm-13.47,5c0-1.89.39-2.94,2.22-2.94s2.27.82,2.27,2.94Zm2.39,5.65c-1.94,0-2.39-.83-2.39-3.16h8.7c0-5.61-1.33-7.93-6.31-7.93-5.43,0-6.9,1.89-6.9,6.75s2,7,6.6,7,6.21-1.66,6.32-4.26H332.4C332.4-869.85,332-869.35,330.3-869.35ZM318.6-880h-4.26v12.64h8.53v-3H318.6Zm33.64,22.56v-31.2m0,31.2a32.59,32.59,0,0,0-7.76,2.8,38.77,38.77,0,0,0-15.79-3.49,40.1,40.1,0,0,0-17.35,4l-7-34.51h47.93"/></clipPath><clipPath id="clip-path-99"><path class="cls-1" d="M370.09-852.35c0-.16-.23-.28-.78-.28v.61c.39,0,.78,0,.78-.32Zm-1.28,1.66v-2.43h.67c.66,0,1.16.17,1.16.78,0,.28-.17.5-.55.72l.44.94h-.44l-.39-.72h-.39v.71Zm2.88-1.21a2,2,0,0,0-2.05-2.05,2,2,0,0,0-2.05,2.05,2.09,2.09,0,0,0,2,2,2.07,2.07,0,0,0,1.48-.55A2,2,0,0,0,371.69-851.9Zm-2.05-2.44a2.45,2.45,0,0,1,2.24,1.18,2.43,2.43,0,0,1,0,2.52,2.45,2.45,0,0,1-2.24,1.18,2.44,2.44,0,0,1-1.73-.71,2.41,2.41,0,0,1-.71-1.73A2.46,2.46,0,0,1,369.64-854.34Zm-3.43-17.06h-4.49c0,3,1.66,4.26,6.54,4.26,4.54,0,6.37-1,6.37-4.15,0-5-8.42-2.5-8.42-5.49,0-.72.83-1.34,1.94-1.34a1.73,1.73,0,0,1,1.88,1.56h4.27c-.06-2.66-1.61-3.88-5.88-3.88-4.43,0-6.48,1.22-6.48,4,0,5.49,8.42,2.55,8.42,5.66,0,.94-.5,1.38-1.71,1.38C367.2-869.41,366.32-870,366.21-871.4Zm-5.93-7.87-.22,1.27c1.33-.84,1.88-1.55,1.88-2.49a1.55,1.55,0,0,0-.51-1.22,1.53,1.53,0,0,0-1.26-.39,1.51,1.51,0,0,0-1.2.36,1.5,1.5,0,0,0-.52,1.14C358.45-879.44,359.22-879.27,360.28-879.27ZM353-880.1v12.69h4.16V-880.1Zm-.77-8.59h32.3l-7.59,34.52c-5-2.88-9.53-4.1-16.12-4.1a44.21,44.21,0,0,0-8.59.78"/></clipPath><clipPath id="clip-path-100"><rect class="cls-1" x="468.63" y="-863.43" width="5.64" height="6.9"/></clipPath><clipPath id="clip-path-101"><path class="cls-1" d="M476.69-854.1H466.21v-11.77h10.52Zm-18.21,0h-9.25l.51-2.49h6.86l1.43-6.75h-4.44l-.93,4.4h-2.43l1.41-6.87h9.29Zm-8.08-18.59h5.7v-6.91h-4.42V-882h6.84v9.32h2.39v2.44H450.4Zm15.86,0h10.45v2.43H466.26ZM467.4-882h8.06v2.43H467.4Zm-23-5.26v38.47h38.39v-38.47Z"/></clipPath><clipPath id="clip-path-102"><path class="cls-1" d="M515.47-863.82a1.6,1.6,0,0,0-1.6,1.61v4a1.6,1.6,0,0,0,.76,1.49,1.59,1.59,0,0,0,1.68,0,1.59,1.59,0,0,0,.77-1.49v-4A1.62,1.62,0,0,0,515.47-863.82Z"/></clipPath><clipPath id="clip-path-103"><path class="cls-1" d="M494.86-863.82a1.59,1.59,0,0,0-1.13.47,1.6,1.6,0,0,0-.46,1.14v4a1.59,1.59,0,0,0,1.59,1.59,1.59,1.59,0,0,0,1.59-1.59v-4A1.6,1.6,0,0,0,494.86-863.82Z"/></clipPath><clipPath id="clip-path-104"><path class="cls-1" d="M519.57-858.2a4.09,4.09,0,0,1-4.09,4.08,4.09,4.09,0,0,1-4.09-4.08v-4a4.09,4.09,0,0,1,4.09-4.09,4.09,4.09,0,0,1,4.09,4.09Zm-9.37-11.7h-2.38l-3.25-6.79v6.82h-2.46V-882h2.46l3.25,6.88V-882h2.39Zm0,15.75h-8.09v-12.14h2.42v9.76h5.67Zm-13.72,2.46-.83-2.5a4.11,4.11,0,0,1-.78.07,4.07,4.07,0,0,1-4-4.08v-4a4,4,0,0,1,2-3.51,4,4,0,0,1,4.05,0,4,4,0,0,1,2,3.51v4a4.12,4.12,0,0,1-1.19,2.89l1.19,3.62ZM490.84-882h2.45V-874a1.59,1.59,0,0,0,1.59,1.59,1.59,1.59,0,0,0,1.59-1.59v-8h2.46v8.13a4,4,0,0,1-4,4h-.14a4,4,0,0,1-4-4Zm23.42,0h2.42v12.15h-2.42ZM486-887.31v38.47H524.4v-38.47Z"/></clipPath><clipPath id="clip-path-105"><path class="cls-1" d="M599.52-862.94a.72.72,0,0,1-.52-.21.7.7,0,0,1-.22-.51.74.74,0,0,1,.74-.74.74.74,0,0,1,.74.74.7.7,0,0,1-.22.51A.73.73,0,0,1,599.52-862.94Zm0-1.75a1,1,0,0,0-.94,1,1,1,0,0,0,1,1,1,1,0,0,0,1-1,1,1,0,0,0-.32-.73A1,1,0,0,0,599.52-864.69Z"/></clipPath><clipPath id="clip-path-106"><polygon class="cls-1" points="609.85 -868.27 604.68 -868.27 605.27 -877.25 601.92 -868.27 597.12 -868.27 604.73 -888.57 609.83 -888.57 609.24 -879.47 612.66 -888.57 617.46 -888.57 609.85 -868.27"/></clipPath><clipPath id="clip-path-107"><polygon class="cls-1" points="610.47 -868.27 618.08 -888.57 622.88 -888.57 615.27 -868.27 610.47 -868.27"/></clipPath><clipPath id="clip-path-108"><path class="cls-1" d="M596.57-875.27c-6.71,7.88-13,18.35-7.45,23.17s12.18,1.91,16.79.07,55.6-24,55.6-24c.49-.24.4-.56-.22-.4l-55.5,15C598.78-859.41,590.78-863.69,596.57-875.27Z"/></clipPath><clipPath id="clip-path-109"><path class="cls-1" d="M599.53-863.77h-.13V-864h.13c.08,0,.18,0,.18.12S599.62-863.77,599.53-863.77Zm.17.18a.27.27,0,0,0,.2-.09.25.25,0,0,0,.07-.2c0-.27-.17-.34-.46-.34h-.42v1.1h.31v-.47l.26.47H600Z"/></clipPath><clipPath id="clip-path-110"><path class="cls-1" d="M647.74-886.87a.73.73,0,0,1-.72-.74.72.72,0,0,1,.73-.72.73.73,0,0,1,.73.73.74.74,0,0,1-.22.52A.73.73,0,0,1,647.74-886.87Zm0-1.76a1,1,0,0,0-.94,1,1,1,0,0,0,1,1,1,1,0,0,0,1-1,1,1,0,0,0-.32-.73A1,1,0,0,0,647.74-888.63Z"/></clipPath><clipPath id="clip-path-111"><path class="cls-1" d="M647.75-887.69h-.16v-.25h.13c.08,0,.18,0,.18.1S647.84-887.69,647.75-887.69Zm.17.16a.27.27,0,0,0,.2-.09.25.25,0,0,0,.07-.2c0-.27-.17-.33-.46-.33h-.42v1.1h.28v-.47l.26.47h.32Z"/></clipPath><clipPath id="clip-path-112"><path class="cls-1" d="M629.12-869.62l-.31-10.58,7.26-8Zm15.46-15.56,1.29-3.38H631.24l-5,6.08,2.32-6.08h-4.89l-7.55,20.29h4.8l3.22-8.49.26,8.49h14.72l1.4-3.91h-5.63l1.83-4.92h4.62l1.42-3.78h-4.62l1.58-4.27Z"/></clipPath></defs><title>columbia</title><path class="cls-115" d="M18.88,73a1.38,1.38,0,0,1,0,2l-.5.51a1.4,1.4,0,0,1-2,0l-3.22-3.22a1.4,1.4,0,0,1,0-2l.5-.5a1.4,1.4,0,0,1,2,0Zm-.36-6.15a1.38,1.38,0,0,0-2,0l-.51.5a1.38,1.38,0,0,0,0,2l3.22,3.22a1.4,1.4,0,0,0,2,0l.5-.5a1.38,1.38,0,0,0,0-2Zm8.59,2.86a1.4,1.4,0,0,0-2,0l-.5.5a1.38,1.38,0,0,0,0,2l3.22,3.22a1.37,1.37,0,0,0,2,0l.5-.5a1.37,1.37,0,0,0,0-2ZM30,66.8a1.37,1.37,0,0,0-2,0l-.51.5a1.38,1.38,0,0,0,0,2l3.22,3.22a1.4,1.4,0,0,0,2,0l.5-.5a1.38,1.38,0,0,0,0-2Zm-5.37-3.15a1.4,1.4,0,0,0,0-2l-.5-.5a1.38,1.38,0,0,0-2,0L19,64.36a1.4,1.4,0,0,0,0,2l.5.5a1.38,1.38,0,0,0,2,0Zm2.86,2.86a1.37,1.37,0,0,0,0-2L27,64a1.37,1.37,0,0,0-2,0l-3.22,3.22a1.38,1.38,0,0,0,0,2l.5.5a1.38,1.38,0,0,0,2,0ZM24.67,75a1.38,1.38,0,0,0,0-2l-.5-.5a1.38,1.38,0,0,0-2,0L19,75.67a1.38,1.38,0,0,0,0,2l.5.5a1.37,1.37,0,0,0,2,0Zm2.86,2.86a1.37,1.37,0,0,0,0-2l-.5-.5a1.38,1.38,0,0,0-2,0L21.88,78.6a1.4,1.4,0,0,0,0,2l.5.5a1.4,1.4,0,0,0,2,0ZM51,75c.07.15.5.79.5.79a13.52,13.52,0,0,1-.85,2.36l-.08.07a13.55,13.55,0,0,1-10,.15,7.69,7.69,0,0,1-4.73-5.23,8.55,8.55,0,0,1,1.36-7.37c1.72-2.29,4.44-3.57,8.16-3.79a12.79,12.79,0,0,1,5.87,1.22h.14s.07,3.93,0,4.08l-.07.21-1.15.07-.07-.43c-.21-1.14-.71-4.15-4.93-3.93a5.71,5.71,0,0,0-4.37,2.43,8.18,8.18,0,0,0-1.14,6.87,7.18,7.18,0,0,0,4.07,4.87,6.27,6.27,0,0,0,4.15,0A10.58,10.58,0,0,0,51,75m14.46,4.15V65.65A2.47,2.47,0,0,0,65,64c-.07-.08-.72-.58-.72-.58v-.57L68,62.15l.36.21V76.88c.07,1.36,1,1.51,1,1.51v.86Zm16.1-.93c-.65-.14-1-.71-1-1.64V68l-.28-.14-3.65.71v.58s.64.5.71.57a2.49,2.49,0,0,1,.43,1.65v5.08c-1.21.93-2.29,1.21-3.07.85a2.08,2.08,0,0,1-.93-2V68l-.29-.14-3.65.71v.58s.65.5.72.57A1.9,1.9,0,0,1,71,71.38v4.36a6.15,6.15,0,0,0,.14,1.5,2.47,2.47,0,0,0,1.57,1.86c1.29.5,3.15,0,5.08-1.29V79h4v-.79Zm18.17,0c-.64-.14-.93-.71-1-1.64V71.38c0-1.22-.65-3.51-3-3.51a5.19,5.19,0,0,0-3.57,1.65,2.72,2.72,0,0,0-2.58-1.65,4.68,4.68,0,0,0-3.15,1.29V68.08l-.36-.21-3.65.71v.58s.65.5.72.57a2.49,2.49,0,0,1,.43,1.65V79h4v-.79l-.22-.07c-.64-.14-.93-.64-.93-1.64V70.37a2.84,2.84,0,0,1,2.15-.64c.57.07,1.21.5,1.21,2.65V79h3.94v-.79l-.22-.07c-.64-.14-.93-.64-1-1.64V71.23a4.24,4.24,0,0,0-.07-.86,2.58,2.58,0,0,1,2.15-.64c.57.07,1.21.5,1.21,2.65V79h3.94v-.72ZM64.17,73.52a5.82,5.82,0,0,0-1.58-4.15,6,6,0,0,0-4.43-1.64,5.77,5.77,0,0,0-6,5.79c0,3.51,2.36,5.8,6,5.8a6.07,6.07,0,0,0,4.36-1.65,5.92,5.92,0,0,0,1.65-4.15m-6,4.51c-2.22,0-2.86-1.72-2.86-4.58,0-2.07.64-4.58,2.86-4.58S61,71.38,61,73.45c0,2.86-.64,4.58-2.86,4.58m55-13.67a1.51,1.51,0,0,1,3,0,1.48,1.48,0,0,1-1.51,1.51,1.52,1.52,0,0,1-1.5-1.51M113.32,79V71.3a2.47,2.47,0,0,0-.43-1.64c-.07-.07-.71-.57-.71-.57v-.58l3.65-.71.36.21V76.6c0,.93.35,1.5.93,1.64l.21.08v.78Zm-2.07-8.51a4.85,4.85,0,0,0-3-2.51,6.53,6.53,0,0,0-4.5.93V62.29l-.36-.22-3.65.72v.57l.72.57a2.45,2.45,0,0,1,.42,1.65V78.24l.15.08a8.72,8.72,0,0,0,6.79.43,6.05,6.05,0,0,0,3.58-3.65,5.5,5.5,0,0,0-.14-4.58m-3,6A2.83,2.83,0,0,1,105.31,78c-1-.29-1.57-1.36-1.57-3V70.3a.22.22,0,0,0,.14-.07,3.35,3.35,0,0,1,3.29-.14,3.64,3.64,0,0,1,1.72,2.22,5.56,5.56,0,0,1-.65,4.22m19,1.36-.22-.08c-.14,0-.43-.42-.43-1.07V71.66a3.71,3.71,0,0,0-1.36-3.22,3.39,3.39,0,0,0-3.15-.21A13.48,13.48,0,0,0,118,71.09l-.08.07v.14c0,.15.22.36.29.5l.07.08h2.51v-.72A1.46,1.46,0,0,1,122,69.59a1.65,1.65,0,0,1,1.22.14c.36.29.57,1,.57,2.15v.64l-5.22,2.29-.07.07V75a3.39,3.39,0,0,0,.28,3.37c1.08,1.21,3.72,1.36,7.59.5.28-.07.93-.15.93-.15a3.22,3.22,0,0,1-.07-.78m-3.37-4.23V77.6a2,2,0,0,1-2.36.14,2.2,2.2,0,0,1-.36-2.57Z"/></svg>