<svg id="圖層_1" data-name="圖層 1" xmlns="http://www.w3.org/2000/svg" xmlns:xlink="http://www.w3.org/1999/xlink" viewBox="0 0 140 140"><defs><style>.cls-1,.cls-2{fill:none;}.cls-2{clip-rule:evenodd;}.cls-3{clip-path:url(#clip-path);}.cls-4{clip-path:url(#clip-path-2);}.cls-5{clip-path:url(#clip-path-3);}.cls-6{clip-path:url(#clip-path-4);}.cls-7{clip-path:url(#clip-path-5);}.cls-8{clip-path:url(#clip-path-6);}.cls-9{clip-path:url(#clip-path-7);}.cls-10{clip-path:url(#clip-path-8);}.cls-11{clip-path:url(#clip-path-9);}.cls-12{clip-path:url(#clip-path-10);}.cls-13{clip-path:url(#clip-path-11);}.cls-14{clip-path:url(#clip-path-12);}.cls-15{clip-path:url(#clip-path-13);}.cls-16{clip-path:url(#clip-path-14);}.cls-17{clip-path:url(#clip-path-15);}.cls-18{clip-path:url(#clip-path-16);}.cls-19{clip-path:url(#clip-path-17);}.cls-20{clip-path:url(#clip-path-18);}.cls-21{clip-path:url(#clip-path-19);}.cls-22{clip-path:url(#clip-path-20);}.cls-23{clip-path:url(#clip-path-21);}.cls-24{clip-path:url(#clip-path-22);}.cls-25{clip-path:url(#clip-path-23);}.cls-26{clip-path:url(#clip-path-24);}.cls-27{clip-path:url(#clip-path-25);}.cls-28{clip-path:url(#clip-path-26);}.cls-29{clip-path:url(#clip-path-27);}.cls-30{clip-path:url(#clip-path-28);}.cls-31{clip-path:url(#clip-path-29);}.cls-32{clip-path:url(#clip-path-30);}.cls-33{clip-path:url(#clip-path-31);}.cls-34{clip-path:url(#clip-path-32);}.cls-35{clip-path:url(#clip-path-33);}.cls-36{clip-path:url(#clip-path-34);}.cls-37{clip-path:url(#clip-path-35);}.cls-38{clip-path:url(#clip-path-36);}.cls-39{clip-path:url(#clip-path-37);}.cls-40{clip-path:url(#clip-path-38);}.cls-41{clip-path:url(#clip-path-39);}.cls-42{clip-path:url(#clip-path-40);}.cls-43{clip-path:url(#clip-path-41);}.cls-44{clip-path:url(#clip-path-42);}.cls-45{clip-path:url(#clip-path-43);}.cls-46{clip-path:url(#clip-path-44);}.cls-47{clip-path:url(#clip-path-45);}.cls-48{clip-path:url(#clip-path-46);}.cls-49{clip-path:url(#clip-path-47);}.cls-50{clip-path:url(#clip-path-48);}.cls-51{clip-path:url(#clip-path-49);}.cls-52{clip-path:url(#clip-path-50);}.cls-53{clip-path:url(#clip-path-51);}.cls-54{clip-path:url(#clip-path-52);}.cls-55{clip-path:url(#clip-path-53);}.cls-56{clip-path:url(#clip-path-54);}.cls-57{clip-path:url(#clip-path-55);}.cls-58{clip-path:url(#clip-path-56);}.cls-59{clip-path:url(#clip-path-57);}.cls-60{clip-path:url(#clip-path-58);}.cls-61{clip-path:url(#clip-path-59);}.cls-62{clip-path:url(#clip-path-60);}.cls-63{clip-path:url(#clip-path-61);}.cls-64{clip-path:url(#clip-path-62);}.cls-65{clip-path:url(#clip-path-63);}.cls-66{clip-path:url(#clip-path-64);}.cls-67{clip-path:url(#clip-path-65);}.cls-68{clip-path:url(#clip-path-66);}.cls-69{clip-path:url(#clip-path-67);}.cls-70{clip-path:url(#clip-path-68);}.cls-71{clip-path:url(#clip-path-69);}.cls-72{clip-path:url(#clip-path-70);}.cls-73{clip-path:url(#clip-path-71);}.cls-74{clip-path:url(#clip-path-72);}.cls-75{clip-path:url(#clip-path-73);}.cls-76{clip-path:url(#clip-path-74);}.cls-77{clip-path:url(#clip-path-75);}.cls-78{clip-path:url(#clip-path-76);}.cls-79{clip-path:url(#clip-path-77);}.cls-80{clip-path:url(#clip-path-78);}.cls-81{clip-path:url(#clip-path-79);}.cls-82{clip-path:url(#clip-path-80);}.cls-83{clip-path:url(#clip-path-81);}.cls-84{clip-path:url(#clip-path-82);}.cls-85{clip-path:url(#clip-path-83);}.cls-86{clip-path:url(#clip-path-84);}.cls-87{clip-path:url(#clip-path-85);}.cls-88{clip-path:url(#clip-path-86);}.cls-89{clip-path:url(#clip-path-87);}.cls-90{clip-path:url(#clip-path-88);}.cls-91{clip-path:url(#clip-path-89);}.cls-92{clip-path:url(#clip-path-90);}.cls-93{clip-path:url(#clip-path-91);}.cls-94{clip-path:url(#clip-path-92);}.cls-95{clip-path:url(#clip-path-93);}.cls-96{clip-path:url(#clip-path-94);}.cls-97{clip-path:url(#clip-path-95);}.cls-98{clip-path:url(#clip-path-96);}.cls-99{clip-path:url(#clip-path-97);}.cls-100{clip-path:url(#clip-path-98);}.cls-101{clip-path:url(#clip-path-99);}.cls-102{clip-path:url(#clip-path-100);}.cls-103{clip-path:url(#clip-path-101);}.cls-104{clip-path:url(#clip-path-102);}.cls-105{clip-path:url(#clip-path-103);}.cls-106{clip-path:url(#clip-path-104);}.cls-107{clip-path:url(#clip-path-105);}.cls-108{clip-path:url(#clip-path-106);}.cls-109{clip-path:url(#clip-path-107);}.cls-110{clip-path:url(#clip-path-108);}.cls-111{clip-path:url(#clip-path-109);}.cls-112{clip-path:url(#clip-path-110);}.cls-113{clip-path:url(#clip-path-111);}.cls-114{clip-path:url(#clip-path-112);}.cls-115{fill:#b2b2b2;}</style><clipPath id="clip-path"><rect class="cls-1" x="-373.25" y="-1078.69" width="1024" height="700"/></clipPath><clipPath id="clip-path-2"><path class="cls-2" d="M-126.43-608.88l3.37,0C-110.75-608.08-96-596.73-96-580V-567h-12V-580c0-8.14-6.32-14.87-15.13-15.46h-3.32Z"/></clipPath><clipPath id="clip-path-3"><path class="cls-2" d="M-126.43-594.19h3.29c8.54,0,14,8.35,13.82,14.15V-567h-9.16v-10.54c-.13-2.65-1.74-4.1-4.68-4.15h-3.27Z"/></clipPath><clipPath id="clip-path-4"><path class="cls-2" d="M-126.43-580h3.05c2.39,0,3.42,1.19,3.42,3.82V-567h-6.47Z"/></clipPath><clipPath id="clip-path-5"><polygon class="cls-2" points="-169.55 -567.33 -169.55 -579.74 -161.02 -579.74 -161.02 -576.61 -165.93 -576.61 -165.93 -574.7 -162.02 -574.7 -162.02 -571.7 -165.93 -571.7 -165.93 -567.33 -169.55 -567.33"/></clipPath><clipPath id="clip-path-6"><path class="cls-2" d="M-141.43-572.13H-138a5.48,5.48,0,0,1-1.57,3.8A5.36,5.36,0,0,1-143.4-567a5.49,5.49,0,0,1-4.27-1.71,7,7,0,0,1-1.58-4.82,7,7,0,0,1,1.54-4.79,5.29,5.29,0,0,1,4.2-1.75,5.35,5.35,0,0,1,3.88,1.36,5.23,5.23,0,0,1,1.57,3.71h-3.47a2.16,2.16,0,0,0-.56-1.43,1.77,1.77,0,0,0-1.35-.49,1.74,1.74,0,0,0-1.6.86,5,5,0,0,0-.53,2.58,4.78,4.78,0,0,0,.56,2.56,1.9,1.9,0,0,0,1.67.87,1.77,1.77,0,0,0,1.33-.53,2.46,2.46,0,0,0,.58-1.52Z"/></clipPath><clipPath id="clip-path-7"><polygon class="cls-2" points="-136.47 -567.33 -136.47 -579.74 -127.46 -579.74 -127.46 -576.75 -132.85 -576.75 -132.85 -575.11 -128.29 -575.11 -128.29 -572.26 -132.85 -572.26 -132.85 -570.35 -127.23 -570.35 -127.23 -567.33 -136.47 -567.33"/></clipPath><clipPath id="clip-path-8"><path class="cls-2" d="M-186.52-581.61V-594.2h3.45l3.17,5.86a2.93,2.93,0,0,1,.31.7c.11.3.23.66.35,1.09a2.84,2.84,0,0,0-.07-.74,4.72,4.72,0,0,1,0-1v-5.91h3.46v12.59h-3.48l-3.17-5.81a6.73,6.73,0,0,1-.32-.73c-.12-.31-.23-.67-.35-1.08,0,.23.06.46.07.7s0,.58,0,1v5.9Z"/></clipPath><clipPath id="clip-path-9"><polygon class="cls-2" points="-146.4 -581.62 -146.4 -590.88 -149.66 -590.88 -149.66 -594.21 -139.58 -594.21 -139.58 -590.88 -142.77 -590.88 -142.77 -581.62 -146.4 -581.62"/></clipPath><clipPath id="clip-path-10"><polygon class="cls-2" points="-138.33 -581.62 -138.33 -594.21 -134.7 -594.21 -134.7 -589.93 -131.31 -589.93 -131.31 -594.21 -127.68 -594.21 -127.68 -581.62 -131.31 -581.62 -131.31 -586.5 -134.7 -586.5 -134.7 -581.62 -138.33 -581.62"/></clipPath><clipPath id="clip-path-11"><polygon class="cls-2" points="-157.28 -595.51 -157.28 -605.58 -160.53 -605.58 -160.53 -609.17 -150.48 -609.17 -150.48 -605.58 -153.66 -605.58 -153.66 -595.51 -157.28 -595.51"/></clipPath><clipPath id="clip-path-12"><polygon class="cls-2" points="-149.24 -595.51 -149.24 -609.17 -145.61 -609.17 -145.61 -604.53 -142.23 -604.53 -142.23 -609.17 -138.61 -609.17 -138.61 -595.51 -142.23 -595.51 -142.23 -600.82 -145.61 -600.82 -145.61 -595.51 -149.24 -595.51"/></clipPath><clipPath id="clip-path-13"><polygon class="cls-2" points="-136.48 -595.51 -136.48 -609.17 -127.46 -609.17 -127.46 -605.9 -132.85 -605.9 -132.85 -604.09 -128.29 -604.09 -128.29 -600.96 -132.85 -600.96 -132.85 -598.84 -127.23 -598.84 -127.23 -595.51 -136.48 -595.51"/></clipPath><clipPath id="clip-path-14"><path class="cls-2" d="M-156.75-571.53l1.15-4.29,1.13,4.29Zm3-8.16h-3.67l-4,12.41h3.56l.44-1.65h3.59l.42,1.65h3.59Z"/></clipPath><clipPath id="clip-path-15"><path class="cls-2" d="M-166.65-585.26a2.09,2.09,0,0,1-1.67.83,2.12,2.12,0,0,1-1.68-.83,6.65,6.65,0,0,1,0-5.25,2.1,2.1,0,0,1,1.68-.84,2.07,2.07,0,0,1,1.67.84,4.91,4.91,0,0,1,.53,2.64A4.93,4.93,0,0,1-166.65-585.26Zm2.63-7.49a5.38,5.38,0,0,0-4.3-1.77,5.44,5.44,0,0,0-4.3,1.77,7.1,7.1,0,0,0-1.58,4.86,7.13,7.13,0,0,0,1.58,4.85,5.52,5.52,0,0,0,4.3,1.78A5.46,5.46,0,0,0-164-583a7.07,7.07,0,0,0,1.57-4.85A7.06,7.06,0,0,0-164-592.75Z"/></clipPath><clipPath id="clip-path-16"><path class="cls-2" d="M-154.35-589a2,2,0,0,1-1.2.26h-1.65v-2.36h1.56a2.14,2.14,0,0,1,1.29.26,1.1,1.1,0,0,1,.33.93A1.09,1.09,0,0,1-154.35-589Zm3.78,6.18-.07-1.82a3.66,3.66,0,0,0-.46-1.92,2.17,2.17,0,0,0-1.38-.88,3,3,0,0,0,1.38-1.2,3.71,3.71,0,0,0,.44-1.92,3.28,3.28,0,0,0-1.08-2.77,5.92,5.92,0,0,0-3.63-.85h-5.42v12.62h3.59v-4.34h1.54a1.48,1.48,0,0,1,1.2.4,2,2,0,0,1,.35,1.37v1.26a4.51,4.51,0,0,0,0,.52,3.86,3.86,0,0,0,.15.79h3.71v-.47C-150.45-582.1-150.56-582.36-150.57-582.87Z"/></clipPath><clipPath id="clip-path-17"><path class="cls-1" d="M39.36-571H35.75a2.22,2.22,0,0,0-.52-1.25,2.63,2.63,0,0,0-1.93-.58,2.89,2.89,0,0,0-1.85.44,1.16,1.16,0,0,0-.4.92c0,.54.75,1,2.25,1.3,1.7.37,2.92.7,3.67.95l.5.2a3.46,3.46,0,0,1,2.28,3.26,4.14,4.14,0,0,1-2.21,3.89,4.83,4.83,0,0,1-.56.27,8.45,8.45,0,0,1-3.3.62,9.23,9.23,0,0,1-4.52-1,4.39,4.39,0,0,1-1.62-1.58A4.59,4.59,0,0,1,27-565.8h3.75a1.84,1.84,0,0,0,.69,1.49,3.89,3.89,0,0,0,2.33.54,3,3,0,0,0,1.86-.51,1.17,1.17,0,0,0,.47-.92c0-.58-.74-1-2.21-1.36a25.87,25.87,0,0,1-4.14-1.13A3.46,3.46,0,0,1,27.5-571a4.35,4.35,0,0,1,1.18-3.07,5.77,5.77,0,0,1,4.43-1.57,9.22,9.22,0,0,1,3.89.69,1,1,0,0,1,.23.13,3.82,3.82,0,0,1,1.59,1.52A4.52,4.52,0,0,1,39.36-571Z"/></clipPath><clipPath id="clip-path-18"><path class="cls-1" d="M37.75-580.13a.59.59,0,0,1-.08.78.69.69,0,0,1-.48.21.67.67,0,0,1,.2.12l.34.46.27.46h-.44l-.21-.37A1.61,1.61,0,0,0,37-579l-.3-.09h-.22v1h-.37v-2.36H37a1.12,1.12,0,0,1,.45.06A.49.49,0,0,1,37.75-580.13Zm-.3.38a.21.21,0,0,0,0-.19.22.22,0,0,0-.16-.12.49.49,0,0,0-.24,0h-.56v.69h.56a.55.55,0,0,0,.34-.1A.29.29,0,0,0,37.45-579.75Z"/></clipPath><clipPath id="clip-path-19"><path class="cls-1" d="M39.15-579.29a2,2,0,0,1-.28,1.07,2,2,0,0,1-.79.79,2.26,2.26,0,0,1-1.06.28,2.33,2.33,0,0,1-1.06-.28,2.14,2.14,0,0,1-.79-.79,2.37,2.37,0,0,1-.28-1.07,2.23,2.23,0,0,1,.28-1.08,1.93,1.93,0,0,1,.81-.79,2.36,2.36,0,0,1,1-.29,2,2,0,0,1,1,.29,1.85,1.85,0,0,1,.8.79A2,2,0,0,1,39.15-579.29Zm-.35,0a1.76,1.76,0,0,0-.24-.9,1.58,1.58,0,0,0-.67-.66,1.75,1.75,0,0,0-.87-.24,1.81,1.81,0,0,0-.87.24,1.7,1.7,0,0,0-.67.66,1.86,1.86,0,0,0-.24.9,1.88,1.88,0,0,0,.24.89,1.9,1.9,0,0,0,.66.66,1.83,1.83,0,0,0,.88.23,1.82,1.82,0,0,0,.89-.23,1.72,1.72,0,0,0,.65-.66A1.78,1.78,0,0,0,38.8-579.29Z"/></clipPath><clipPath id="clip-path-20"><polygon class="cls-1" points="18.15 -596.74 28.29 -579.85 18.15 -579.85 12.01 -579.85 2.33 -595.98 -5 -608.18 2.33 -612.6 6.95 -615.38 18.15 -596.74"/></clipPath><clipPath id="clip-path-21"><path class="cls-1" d="M22.14-567.35v-1.53a4,4,0,0,0-4-3.26,4,4,0,0,0-4,4,4,4,0,0,0,4,4A4.05,4.05,0,0,0,22.14-567.35Zm3.37-.76v6.92H22.14v-.76a7.25,7.25,0,0,1-4,1.17,7.34,7.34,0,0,1-7.06-7.34,7.33,7.33,0,0,1,7.06-7.33,7.18,7.18,0,0,1,4,1.18v-.81h3.37Z"/></clipPath><clipPath id="clip-path-22"><path class="cls-1" d="M6.32-567.35v-1.53a4,4,0,0,0-3.95-3.26,4,4,0,0,0-4,4,4,4,0,0,0,4,4A4.06,4.06,0,0,0,6.32-567.35Zm3.37-.76v6.92H6.32v-.76a7.33,7.33,0,0,1-3.95,1.17,7.34,7.34,0,0,1-7.06-7.34,7.33,7.33,0,0,1,7.06-7.33,7.18,7.18,0,0,1,4,1.18v-5.57H9.69Z"/></clipPath><clipPath id="clip-path-23"><polygon class="cls-1" points="2.33 -586.49 6.3 -579.85 2.33 -579.85 -9.97 -579.85 -19 -594.88 -19.4 -595.53 -19 -595.77 -7.44 -602.74 2.33 -586.49"/></clipPath><clipPath id="clip-path-24"><rect class="cls-1" x="-9.95" y="-575.45" width="3.67" height="14.26"/></clipPath><clipPath id="clip-path-25"><rect class="cls-1" x="-9.95" y="-579.77" width="3.67" height="3.22"/></clipPath><clipPath id="clip-path-26"><path class="cls-1" d="M-15-567.35v-1.53a4,4,0,0,0-4-3.26,4,4,0,0,0-4,4,4,4,0,0,0,4,4A4.05,4.05,0,0,0-15-567.35Zm3.37-.76v6.92H-15v-.76a7.36,7.36,0,0,1-4,1.17,7.34,7.34,0,0,1-7.06-7.34A7.33,7.33,0,0,1-19-575.45a7.2,7.2,0,0,1,4,1.18v-5.57h3.37Z"/></clipPath><clipPath id="clip-path-27"><polygon class="cls-1" points="-19 -585.4 -15.67 -579.85 -19 -579.85 -31.95 -579.85 -33.78 -582.89 -21.82 -590.08 -19 -585.4"/></clipPath><clipPath id="clip-path-28"><path class="cls-1" d="M-31-567.35v-1.53a4,4,0,0,0-4-3.26,4,4,0,0,0-4,4,4,4,0,0,0,4,4A4.05,4.05,0,0,0-31-567.35Zm3.37-.76v6.92H-31v-.76a7.36,7.36,0,0,1-4,1.17A7.34,7.34,0,0,1-42-568.12,7.33,7.33,0,0,1-35-575.45a7.2,7.2,0,0,1,4,1.18v-.81h3.37Z"/></clipPath><clipPath id="clip-path-29"><path class="cls-1" d="M135.73-600h-4.66l4.83,12.64h5.26L146.09-600h-4.54l-2.94,8.21Zm-13.47,5c0-1.89.39-2.94,2.22-2.94s2.27.83,2.27,2.94Zm2.39,5.65c-1.94,0-2.39-.83-2.39-3.16H131c0-5.6-1.33-7.93-6.31-7.93-5.43,0-6.9,1.89-6.9,6.75s2,7,6.6,7,6.21-1.66,6.32-4.26h-3.92C126.75-589.85,126.31-589.35,124.65-589.35ZM113-600h-4.26v12.64h8.53v-3H113Zm33.64,22.56v-31.2m0,31.2a32.59,32.59,0,0,0-7.76,2.8A38.77,38.77,0,0,0,123-578.18a40.14,40.14,0,0,0-17.35,4l-7-34.51h47.93"/></clipPath><clipPath id="clip-path-30"><path class="cls-1" d="M164.44-572.35c0-.16-.23-.28-.78-.28v.61c.39,0,.78,0,.78-.32Zm-1.28,1.66v-2.42h.67c.66,0,1.16.16,1.16.77,0,.28-.17.5-.55.72l.44.94h-.44l-.39-.72h-.39v.71ZM166-571.9a2,2,0,0,0-2-2.05,2,2,0,0,0-2.05,2.05,2.1,2.1,0,0,0,2,2,2.05,2.05,0,0,0,1.48-.55A2,2,0,0,0,166-571.9Zm-2-2.43a2.44,2.44,0,0,1,2.25,1.17,2.43,2.43,0,0,1,0,2.52,2.47,2.47,0,0,1-2.25,1.18,2.45,2.45,0,0,1-1.73-.71,2.45,2.45,0,0,1-.71-1.73A2.45,2.45,0,0,1,164-574.33Zm-3.43-17.07h-4.49c.05,3,1.66,4.26,6.54,4.26,4.54,0,6.37-1,6.37-4.15,0-5-8.42-2.5-8.42-5.49,0-.72.83-1.33,1.94-1.33a1.73,1.73,0,0,1,1.88,1.55h4.27c-.06-2.66-1.61-3.88-5.88-3.88-4.43,0-6.48,1.22-6.48,4,0,5.49,8.42,2.55,8.42,5.66,0,.94-.5,1.38-1.71,1.38C161.55-589.41,160.67-590,160.56-591.4Zm-5.93-7.87-.22,1.27c1.33-.83,1.88-1.55,1.88-2.49a1.55,1.55,0,0,0-.5-1.22,1.56,1.56,0,0,0-1.27-.39,1.47,1.47,0,0,0-1.19.36,1.54,1.54,0,0,0-.53,1.14C152.8-599.44,153.57-599.27,154.63-599.27Zm-7.32-.83v12.69h4.16V-600.1Zm-.77-8.59h32.3l-7.59,34.52c-5-2.88-9.53-4.1-16.12-4.1a44.28,44.28,0,0,0-8.59.78"/></clipPath><clipPath id="clip-path-31"><path class="cls-2" d="M-126.43-748.88l3.37,0C-110.75-748.09-96-736.73-96-720V-707h-12V-720c0-8.14-6.32-14.87-15.13-15.46h-3.32Z"/></clipPath><clipPath id="clip-path-32"><path class="cls-2" d="M-126.43-734.19h3.29c8.54,0,14,8.35,13.82,14.15V-707h-9.16v-10.54c-.13-2.65-1.74-4.1-4.68-4.15h-3.27Z"/></clipPath><clipPath id="clip-path-33"><path class="cls-2" d="M-126.43-720h3.05c2.39,0,3.42,1.18,3.42,3.82V-707h-6.47Z"/></clipPath><clipPath id="clip-path-34"><polygon class="cls-2" points="-169.55 -707.33 -169.55 -719.74 -161.02 -719.74 -161.02 -716.61 -165.93 -716.61 -165.93 -714.7 -162.02 -714.7 -162.02 -711.7 -165.93 -711.7 -165.93 -707.33 -169.55 -707.33"/></clipPath><clipPath id="clip-path-35"><path class="cls-2" d="M-141.43-712.13H-138a5.44,5.44,0,0,1-1.57,3.79A5.32,5.32,0,0,1-143.4-707a5.49,5.49,0,0,1-4.27-1.71,7,7,0,0,1-1.58-4.82,7,7,0,0,1,1.54-4.79,5.29,5.29,0,0,1,4.2-1.75,5.35,5.35,0,0,1,3.88,1.36,5.23,5.23,0,0,1,1.57,3.71h-3.47a2.16,2.16,0,0,0-.56-1.43,1.77,1.77,0,0,0-1.35-.49,1.74,1.74,0,0,0-1.6.86,5,5,0,0,0-.53,2.58,4.78,4.78,0,0,0,.56,2.56,1.9,1.9,0,0,0,1.67.87,1.77,1.77,0,0,0,1.33-.53,2.46,2.46,0,0,0,.58-1.53Z"/></clipPath><clipPath id="clip-path-36"><polygon class="cls-2" points="-136.47 -707.33 -136.47 -719.74 -127.46 -719.74 -127.46 -716.75 -132.85 -716.75 -132.85 -715.11 -128.29 -715.11 -128.29 -712.26 -132.85 -712.26 -132.85 -710.35 -127.23 -710.35 -127.23 -707.33 -136.47 -707.33"/></clipPath><clipPath id="clip-path-37"><path class="cls-2" d="M-186.52-721.62V-734.2h3.45l3.17,5.86a2.93,2.93,0,0,1,.31.7c.11.3.23.66.35,1.09a2.84,2.84,0,0,0-.07-.74,4.72,4.72,0,0,1,0-1v-5.91h3.46v12.58h-3.48l-3.17-5.8a6.73,6.73,0,0,1-.32-.73c-.12-.31-.23-.67-.35-1.08,0,.23.06.46.07.7s0,.58,0,1v5.9Z"/></clipPath><clipPath id="clip-path-38"><polygon class="cls-2" points="-146.4 -721.62 -146.4 -730.88 -149.66 -730.88 -149.66 -734.21 -139.58 -734.21 -139.58 -730.88 -142.77 -730.88 -142.77 -721.62 -146.4 -721.62"/></clipPath><clipPath id="clip-path-39"><polygon class="cls-2" points="-138.33 -721.62 -138.33 -734.21 -134.7 -734.21 -134.7 -729.93 -131.31 -729.93 -131.31 -734.21 -127.68 -734.21 -127.68 -721.62 -131.31 -721.62 -131.31 -726.5 -134.7 -726.5 -134.7 -721.62 -138.33 -721.62"/></clipPath><clipPath id="clip-path-40"><polygon class="cls-2" points="-157.28 -735.51 -157.28 -745.58 -160.53 -745.58 -160.53 -749.17 -150.48 -749.17 -150.48 -745.58 -153.66 -745.58 -153.66 -735.51 -157.28 -735.51"/></clipPath><clipPath id="clip-path-41"><polygon class="cls-2" points="-149.24 -735.51 -149.24 -749.17 -145.61 -749.17 -145.61 -744.53 -142.23 -744.53 -142.23 -749.17 -138.61 -749.17 -138.61 -735.51 -142.23 -735.51 -142.23 -740.82 -145.61 -740.82 -145.61 -735.51 -149.24 -735.51"/></clipPath><clipPath id="clip-path-42"><polygon class="cls-2" points="-136.48 -735.51 -136.48 -749.17 -127.46 -749.17 -127.46 -745.9 -132.85 -745.9 -132.85 -744.09 -128.29 -744.09 -128.29 -740.96 -132.85 -740.96 -132.85 -738.84 -127.23 -738.84 -127.23 -735.51 -136.48 -735.51"/></clipPath><clipPath id="clip-path-43"><path class="cls-2" d="M-156.75-711.53l1.15-4.29,1.13,4.29Zm3-8.16h-3.67l-4,12.41h3.56l.44-1.65h3.59l.42,1.65h3.59Z"/></clipPath><clipPath id="clip-path-44"><path class="cls-2" d="M-166.65-725.26a2.09,2.09,0,0,1-1.67.83,2.12,2.12,0,0,1-1.68-.83,6.65,6.65,0,0,1,0-5.25,2.1,2.1,0,0,1,1.68-.84,2.07,2.07,0,0,1,1.67.84,4.91,4.91,0,0,1,.53,2.64A4.93,4.93,0,0,1-166.65-725.26Zm2.63-7.49a5.38,5.38,0,0,0-4.3-1.77,5.44,5.44,0,0,0-4.3,1.77,7.1,7.1,0,0,0-1.58,4.86,7.13,7.13,0,0,0,1.58,4.85,5.52,5.52,0,0,0,4.3,1.78A5.46,5.46,0,0,0-164-723a7.07,7.07,0,0,0,1.57-4.85A7.06,7.06,0,0,0-164-732.75Z"/></clipPath><clipPath id="clip-path-45"><path class="cls-2" d="M-154.35-729a2,2,0,0,1-1.2.26h-1.65v-2.36h1.56a2.14,2.14,0,0,1,1.29.26,1.1,1.1,0,0,1,.33.93A1.09,1.09,0,0,1-154.35-729Zm3.78,6.18-.07-1.82a3.72,3.72,0,0,0-.46-1.93,2.2,2.2,0,0,0-1.38-.87,3,3,0,0,0,1.38-1.2,3.73,3.73,0,0,0,.44-1.93,3.27,3.27,0,0,0-1.08-2.76,5.92,5.92,0,0,0-3.63-.85h-5.42v12.61h3.59v-4.33h1.54a1.48,1.48,0,0,1,1.2.4,2,2,0,0,1,.35,1.37v1.26a4.51,4.51,0,0,0,0,.52,3.66,3.66,0,0,0,.15.78h3.71v-.47C-150.45-722.1-150.56-722.37-150.57-722.87Z"/></clipPath><clipPath id="clip-path-46"><path class="cls-1" d="M39.36-711H35.75a2.22,2.22,0,0,0-.52-1.25,2.63,2.63,0,0,0-1.93-.58,2.89,2.89,0,0,0-1.85.44,1.16,1.16,0,0,0-.4.92c0,.54.75,1,2.25,1.3,1.7.37,2.92.7,3.67.95l.5.2a3.46,3.46,0,0,1,2.28,3.26,4.14,4.14,0,0,1-2.21,3.89,3.57,3.57,0,0,1-.56.26,8.28,8.28,0,0,1-3.3.63,9.23,9.23,0,0,1-4.52-1,4.39,4.39,0,0,1-1.62-1.58A4.59,4.59,0,0,1,27-705.8h3.75a1.84,1.84,0,0,0,.69,1.49,3.89,3.89,0,0,0,2.33.54,3,3,0,0,0,1.86-.51,1.17,1.17,0,0,0,.47-.92c0-.58-.74-1-2.21-1.36a25.87,25.87,0,0,1-4.14-1.13A3.46,3.46,0,0,1,27.5-711a4.35,4.35,0,0,1,1.18-3.07,5.77,5.77,0,0,1,4.43-1.57,9.22,9.22,0,0,1,3.89.69,1,1,0,0,1,.23.13,3.82,3.82,0,0,1,1.59,1.52A4.52,4.52,0,0,1,39.36-711Z"/></clipPath><clipPath id="clip-path-47"><path class="cls-1" d="M37.75-720.13a.59.59,0,0,1-.08.78.69.69,0,0,1-.48.21.67.67,0,0,1,.2.12l.34.46.27.46h-.44l-.21-.37A1.61,1.61,0,0,0,37-719l-.3-.09h-.22v1h-.37v-2.36H37a1.33,1.33,0,0,1,.45,0A.55.55,0,0,1,37.75-720.13Zm-.3.38a.21.21,0,0,0,0-.19.22.22,0,0,0-.16-.12.49.49,0,0,0-.24,0h-.56v.69h.56a.55.55,0,0,0,.34-.1A.29.29,0,0,0,37.45-719.75Z"/></clipPath><clipPath id="clip-path-48"><path class="cls-1" d="M39.15-719.29a2,2,0,0,1-.28,1.07,2,2,0,0,1-.79.79,2.26,2.26,0,0,1-1.06.28,2.33,2.33,0,0,1-1.06-.28,2.14,2.14,0,0,1-.79-.79,2.37,2.37,0,0,1-.28-1.07,2.23,2.23,0,0,1,.28-1.08,1.93,1.93,0,0,1,.81-.79,2.36,2.36,0,0,1,1-.29,2,2,0,0,1,1,.29,1.85,1.85,0,0,1,.8.79A2,2,0,0,1,39.15-719.29Zm-.35,0a1.76,1.76,0,0,0-.24-.9,1.58,1.58,0,0,0-.67-.66,1.75,1.75,0,0,0-.87-.24,1.81,1.81,0,0,0-.87.24,1.7,1.7,0,0,0-.67.66,1.86,1.86,0,0,0-.24.9,1.88,1.88,0,0,0,.24.89,1.9,1.9,0,0,0,.66.66,1.83,1.83,0,0,0,.88.23,1.82,1.82,0,0,0,.89-.23,1.72,1.72,0,0,0,.65-.66A1.78,1.78,0,0,0,38.8-719.29Z"/></clipPath><clipPath id="clip-path-49"><polygon class="cls-1" points="18.15 -736.74 28.29 -719.85 18.15 -719.85 12.01 -719.85 2.33 -735.98 -5 -748.18 2.33 -752.6 6.95 -755.38 18.15 -736.74"/></clipPath><clipPath id="clip-path-50"><path class="cls-1" d="M22.14-707.35v-1.53a4,4,0,0,0-4-3.26,4,4,0,0,0-4,4,4,4,0,0,0,4,4A4,4,0,0,0,22.14-707.35Zm3.37-.77v6.93H22.14v-.76a7.25,7.25,0,0,1-4,1.17,7.34,7.34,0,0,1-7.06-7.34,7.33,7.33,0,0,1,7.06-7.33,7.18,7.18,0,0,1,4,1.18v-.82h3.37Z"/></clipPath><clipPath id="clip-path-51"><path class="cls-1" d="M6.32-707.35v-1.53a4,4,0,0,0-3.95-3.26,4,4,0,0,0-4,4,4,4,0,0,0,4,4A4,4,0,0,0,6.32-707.35Zm3.37-.77v6.93H6.32v-.76a7.33,7.33,0,0,1-3.95,1.17,7.34,7.34,0,0,1-7.06-7.34,7.33,7.33,0,0,1,7.06-7.33,7.18,7.18,0,0,1,4,1.18v-5.57H9.69Z"/></clipPath><clipPath id="clip-path-52"><polygon class="cls-1" points="2.33 -726.49 6.3 -719.85 2.33 -719.85 -9.97 -719.85 -19 -734.88 -19.4 -735.53 -19 -735.77 -7.44 -742.74 2.33 -726.49"/></clipPath><clipPath id="clip-path-53"><rect class="cls-1" x="-9.95" y="-715.45" width="3.67" height="14.26"/></clipPath><clipPath id="clip-path-54"><rect class="cls-1" x="-9.95" y="-719.77" width="3.67" height="3.22"/></clipPath><clipPath id="clip-path-55"><path class="cls-1" d="M-15-707.35v-1.53a4,4,0,0,0-4-3.26,4,4,0,0,0-4,4,4,4,0,0,0,4,4A4,4,0,0,0-15-707.35Zm3.37-.77v6.93H-15v-.76a7.36,7.36,0,0,1-4,1.17,7.34,7.34,0,0,1-7.06-7.34A7.33,7.33,0,0,1-19-715.45a7.2,7.2,0,0,1,4,1.18v-5.57h3.37Z"/></clipPath><clipPath id="clip-path-56"><polygon class="cls-1" points="-19 -725.4 -15.67 -719.85 -19 -719.85 -31.95 -719.85 -33.78 -722.89 -21.82 -730.08 -19 -725.4"/></clipPath><clipPath id="clip-path-57"><path class="cls-1" d="M-31-707.35v-1.53a4,4,0,0,0-4-3.26,4,4,0,0,0-4,4,4,4,0,0,0,4,4A4,4,0,0,0-31-707.35Zm3.37-.77v6.93H-31v-.76a7.36,7.36,0,0,1-4,1.17A7.34,7.34,0,0,1-42-708.12,7.33,7.33,0,0,1-35-715.45a7.2,7.2,0,0,1,4,1.18v-.82h3.37Z"/></clipPath><clipPath id="clip-path-58"><path class="cls-1" d="M135.73-740h-4.66l4.83,12.63h5.26L146.09-740h-4.54l-2.94,8.21Zm-13.47,5c0-1.89.39-2.94,2.22-2.94s2.27.82,2.27,2.94Zm2.39,5.65c-1.94,0-2.39-.83-2.39-3.16H131c0-5.61-1.33-7.93-6.31-7.93-5.43,0-6.9,1.89-6.9,6.75s2,7,6.6,7,6.21-1.66,6.32-4.26h-3.92C126.75-729.85,126.31-729.35,124.65-729.35ZM113-740h-4.26v12.64h8.53v-3H113Zm33.64,22.56v-31.2m0,31.2a32.59,32.59,0,0,0-7.76,2.8A38.77,38.77,0,0,0,123-718.18a40.14,40.14,0,0,0-17.35,4l-7-34.51h47.93"/></clipPath><clipPath id="clip-path-59"><path class="cls-1" d="M164.44-712.35c0-.16-.23-.28-.78-.28v.61c.39,0,.78,0,.78-.32Zm-1.28,1.66v-2.43h.67c.66,0,1.16.17,1.16.78,0,.28-.17.5-.55.72l.44.94h-.44l-.39-.72h-.39v.71ZM166-711.9a2,2,0,0,0-2-2.05,2,2,0,0,0-2.05,2.05,2.1,2.1,0,0,0,2,2,2.05,2.05,0,0,0,1.48-.55A2,2,0,0,0,166-711.9Zm-2-2.44a2.47,2.47,0,0,1,2.25,1.18,2.43,2.43,0,0,1,0,2.52,2.47,2.47,0,0,1-2.25,1.18,2.45,2.45,0,0,1-1.73-.71,2.45,2.45,0,0,1-.71-1.73A2.46,2.46,0,0,1,164-714.34Zm-3.43-17.06h-4.49c.05,3,1.66,4.26,6.54,4.26,4.54,0,6.37-1,6.37-4.15,0-5-8.42-2.5-8.42-5.49,0-.72.83-1.34,1.94-1.34a1.73,1.73,0,0,1,1.88,1.56h4.27c-.06-2.66-1.61-3.88-5.88-3.88-4.43,0-6.48,1.22-6.48,4,0,5.49,8.42,2.55,8.42,5.66,0,.94-.5,1.38-1.71,1.38C161.55-729.41,160.67-730,160.56-731.4Zm-5.93-7.87-.22,1.27c1.33-.84,1.88-1.55,1.88-2.49a1.55,1.55,0,0,0-.5-1.22,1.56,1.56,0,0,0-1.27-.39,1.47,1.47,0,0,0-1.19.36,1.54,1.54,0,0,0-.53,1.14C152.8-739.44,153.57-739.27,154.63-739.27Zm-7.32-.83v12.69h4.16V-740.1Zm-.77-8.59h32.3l-7.59,34.52c-5-2.88-9.53-4.1-16.12-4.1a44.28,44.28,0,0,0-8.59.78"/></clipPath><clipPath id="clip-path-60"><rect class="cls-1" x="262.98" y="-723.43" width="5.64" height="6.9"/></clipPath><clipPath id="clip-path-61"><path class="cls-1" d="M271-714.1H260.56v-11.77h10.52Zm-18.21,0h-9.25l.51-2.49H251l1.43-6.75h-4.44l-.93,4.4h-2.43l1.41-6.87h9.29Zm-8.08-18.59h5.7v-6.91H246V-742h6.84v9.32h2.39v2.44H244.75Zm15.86,0h10.45v2.43H260.61Zm1.14-9.36h8.06v2.43h-8.06Zm-23-5.26v38.47h38.39v-38.47Z"/></clipPath><clipPath id="clip-path-62"><path class="cls-1" d="M309.82-723.82a1.61,1.61,0,0,0-1.6,1.61v4a1.61,1.61,0,0,0,.77,1.49,1.59,1.59,0,0,0,1.68,0,1.58,1.58,0,0,0,.76-1.49v-4A1.61,1.61,0,0,0,309.82-723.82Z"/></clipPath><clipPath id="clip-path-63"><path class="cls-1" d="M289.21-723.82a1.57,1.57,0,0,0-1.12.47,1.61,1.61,0,0,0-.47,1.14v4a1.6,1.6,0,0,0,1.59,1.59,1.59,1.59,0,0,0,1.59-1.59v-4A1.6,1.6,0,0,0,289.21-723.82Z"/></clipPath><clipPath id="clip-path-64"><path class="cls-1" d="M313.92-718.2a4.09,4.09,0,0,1-4.09,4.08,4.09,4.09,0,0,1-4.09-4.08v-4a4.09,4.09,0,0,1,4.09-4.09,4.09,4.09,0,0,1,4.09,4.09Zm-9.37-11.7h-2.38l-3.25-6.79v6.82h-2.46V-742h2.46l3.25,6.88V-742h2.39Zm0,15.75h-8.09v-12.14h2.42v9.76h5.67Zm-13.72,2.46-.83-2.5a4,4,0,0,1-.78.07,4.08,4.08,0,0,1-4-4.08v-4a4.06,4.06,0,0,1,2-3.51,4,4,0,0,1,4.05,0,4,4,0,0,1,2,3.51v4a4,4,0,0,1-1.19,2.89l1.19,3.62ZM285.19-742h2.45V-734a1.6,1.6,0,0,0,1.59,1.59,1.59,1.59,0,0,0,1.59-1.59v-8h2.46v8.13a4,4,0,0,1-4,4h-.14a4,4,0,0,1-4-4Zm23.42,0H311v12.15h-2.42Zm-28.25-5.26v38.47h38.39v-38.47Z"/></clipPath><clipPath id="clip-path-65"><path class="cls-1" d="M393.87-722.94a.73.73,0,0,1-.52-.21.7.7,0,0,1-.22-.51.74.74,0,0,1,.74-.74.74.74,0,0,1,.74.74.69.69,0,0,1-.21.51A.74.74,0,0,1,393.87-722.94Zm0-1.75a1,1,0,0,0-.94,1,1,1,0,0,0,1,1,1,1,0,0,0,1-1,1,1,0,0,0-.31-.73A1,1,0,0,0,393.87-724.69Z"/></clipPath><clipPath id="clip-path-66"><polygon class="cls-1" points="404.2 -728.27 399.03 -728.27 399.62 -737.25 396.27 -728.27 391.47 -728.27 399.08 -748.57 404.18 -748.57 403.59 -739.47 407.01 -748.57 411.81 -748.57 404.2 -728.27"/></clipPath><clipPath id="clip-path-67"><polygon class="cls-1" points="404.82 -728.27 412.43 -748.57 417.23 -748.57 409.62 -728.27 404.82 -728.27"/></clipPath><clipPath id="clip-path-68"><path class="cls-1" d="M390.92-735.27c-6.71,7.88-13,18.35-7.45,23.17s12.18,1.91,16.79.07,55.6-24,55.6-24c.49-.24.4-.56-.22-.4l-55.5,15C393.13-719.41,385.13-723.69,390.92-735.27Z"/></clipPath><clipPath id="clip-path-69"><path class="cls-1" d="M393.88-723.77h-.13V-724h.13c.08,0,.18,0,.18.12S394-723.77,393.88-723.77Zm.17.18a.29.29,0,0,0,.21-.09.24.24,0,0,0,.06-.2c0-.27-.17-.34-.46-.34h-.42v1.1h.31v-.47l.26.47h.32Z"/></clipPath><clipPath id="clip-path-70"><path class="cls-1" d="M442.09-746.87a.74.74,0,0,1-.72-.74.73.73,0,0,1,.74-.72.72.72,0,0,1,.72.73.69.69,0,0,1-.21.52A.74.74,0,0,1,442.09-746.87Zm0-1.76a1,1,0,0,0-.93,1,1,1,0,0,0,1,1,1,1,0,0,0,1-1,1,1,0,0,0-.31-.73A1,1,0,0,0,442.09-748.63Z"/></clipPath><clipPath id="clip-path-71"><path class="cls-1" d="M442.1-747.69h-.16v-.25h.13c.08,0,.18,0,.18.1S442.19-747.69,442.1-747.69Zm.17.16a.29.29,0,0,0,.21-.09.24.24,0,0,0,.06-.2c0-.27-.17-.33-.46-.33h-.42v1.1h.28v-.47l.26.47h.32Z"/></clipPath><clipPath id="clip-path-72"><path class="cls-1" d="M423.47-729.62l-.31-10.58,7.26-8Zm15.46-15.56,1.29-3.38H425.59l-5,6.08,2.32-6.08H418l-7.55,20.29h4.8l3.22-8.49.26,8.49h14.72l1.4-3.91h-5.63l1.83-4.92h4.62l1.42-3.78h-4.62l1.58-4.27Z"/></clipPath><clipPath id="clip-path-73"><path class="cls-2" d="M-126.43-888.88l3.37,0C-110.75-888.09-96-876.73-96-860V-847h-12V-860c0-8.14-6.32-14.87-15.13-15.46h-3.32Z"/></clipPath><clipPath id="clip-path-74"><path class="cls-2" d="M-126.43-874.19h3.29c8.54,0,14,8.35,13.82,14.15V-847h-9.16v-10.54c-.13-2.65-1.74-4.1-4.68-4.15h-3.27Z"/></clipPath><clipPath id="clip-path-75"><polygon class="cls-2" points="-169.55 -847.33 -169.55 -859.74 -161.02 -859.74 -161.02 -856.61 -165.93 -856.61 -165.93 -854.7 -162.02 -854.7 -162.02 -851.7 -165.93 -851.7 -165.93 -847.33 -169.55 -847.33"/></clipPath><clipPath id="clip-path-76"><path class="cls-2" d="M-141.43-852.13H-138a5.44,5.44,0,0,1-1.57,3.79A5.32,5.32,0,0,1-143.4-847a5.49,5.49,0,0,1-4.27-1.71,7,7,0,0,1-1.58-4.82,7,7,0,0,1,1.54-4.79,5.29,5.29,0,0,1,4.2-1.75,5.35,5.35,0,0,1,3.88,1.36,5.23,5.23,0,0,1,1.57,3.71h-3.47a2.16,2.16,0,0,0-.56-1.43,1.77,1.77,0,0,0-1.35-.49,1.74,1.74,0,0,0-1.6.86,5,5,0,0,0-.53,2.58,4.78,4.78,0,0,0,.56,2.56,1.9,1.9,0,0,0,1.67.87,1.77,1.77,0,0,0,1.33-.53,2.46,2.46,0,0,0,.58-1.53Z"/></clipPath><clipPath id="clip-path-77"><polygon class="cls-2" points="-136.47 -847.33 -136.47 -859.74 -127.46 -859.74 -127.46 -856.75 -132.85 -856.75 -132.85 -855.11 -128.29 -855.11 -128.29 -852.26 -132.85 -852.26 -132.85 -850.35 -127.23 -850.35 -127.23 -847.33 -136.47 -847.33"/></clipPath><clipPath id="clip-path-78"><path class="cls-2" d="M-186.52-861.62V-874.2h3.45l3.17,5.86a2.93,2.93,0,0,1,.31.7c.11.3.23.66.35,1.09a2.84,2.84,0,0,0-.07-.74,4.72,4.72,0,0,1,0-1v-5.91h3.46v12.58h-3.48l-3.17-5.8a6.73,6.73,0,0,1-.32-.73c-.12-.31-.23-.67-.35-1.08,0,.23.06.46.07.7s0,.58,0,1v5.9Z"/></clipPath><clipPath id="clip-path-79"><polygon class="cls-2" points="-146.4 -861.62 -146.4 -870.88 -149.66 -870.88 -149.66 -874.21 -139.58 -874.21 -139.58 -870.88 -142.77 -870.88 -142.77 -861.62 -146.4 -861.62"/></clipPath><clipPath id="clip-path-80"><polygon class="cls-2" points="-138.33 -861.62 -138.33 -874.21 -134.7 -874.21 -134.7 -869.93 -131.31 -869.93 -131.31 -874.21 -127.68 -874.21 -127.68 -861.62 -131.31 -861.62 -131.31 -866.5 -134.7 -866.5 -134.7 -861.62 -138.33 -861.62"/></clipPath><clipPath id="clip-path-81"><polygon class="cls-2" points="-157.28 -875.51 -157.28 -885.58 -160.53 -885.58 -160.53 -889.17 -150.48 -889.17 -150.48 -885.58 -153.66 -885.58 -153.66 -875.51 -157.28 -875.51"/></clipPath><clipPath id="clip-path-82"><polygon class="cls-2" points="-149.24 -875.51 -149.24 -889.17 -145.61 -889.17 -145.61 -884.53 -142.23 -884.53 -142.23 -889.17 -138.61 -889.17 -138.61 -875.51 -142.23 -875.51 -142.23 -880.82 -145.61 -880.82 -145.61 -875.51 -149.24 -875.51"/></clipPath><clipPath id="clip-path-83"><polygon class="cls-2" points="-136.48 -875.51 -136.48 -889.17 -127.46 -889.17 -127.46 -885.9 -132.85 -885.9 -132.85 -884.09 -128.29 -884.09 -128.29 -880.96 -132.85 -880.96 -132.85 -878.84 -127.23 -878.84 -127.23 -875.51 -136.48 -875.51"/></clipPath><clipPath id="clip-path-84"><path class="cls-2" d="M-156.75-851.53l1.15-4.29,1.13,4.29Zm3-8.16h-3.67l-4,12.41h3.56l.44-1.65h3.59l.42,1.65h3.59Z"/></clipPath><clipPath id="clip-path-85"><path class="cls-2" d="M-166.65-865.26a2.09,2.09,0,0,1-1.67.83,2.12,2.12,0,0,1-1.68-.83,6.65,6.65,0,0,1,0-5.25,2.1,2.1,0,0,1,1.68-.84,2.07,2.07,0,0,1,1.67.84,4.91,4.91,0,0,1,.53,2.64A4.93,4.93,0,0,1-166.65-865.26Zm2.63-7.49a5.38,5.38,0,0,0-4.3-1.77,5.44,5.44,0,0,0-4.3,1.77,7.1,7.1,0,0,0-1.58,4.86,7.13,7.13,0,0,0,1.58,4.85,5.52,5.52,0,0,0,4.3,1.78A5.46,5.46,0,0,0-164-863a7.07,7.07,0,0,0,1.57-4.85A7.06,7.06,0,0,0-164-872.75Z"/></clipPath><clipPath id="clip-path-86"><path class="cls-1" d="M39.36-851H35.75a2.22,2.22,0,0,0-.52-1.25,2.63,2.63,0,0,0-1.93-.58,2.89,2.89,0,0,0-1.85.44,1.16,1.16,0,0,0-.4.92c0,.54.75,1,2.25,1.3,1.7.37,2.92.7,3.67.95l.5.2a3.46,3.46,0,0,1,2.28,3.26,4.14,4.14,0,0,1-2.21,3.89,3.57,3.57,0,0,1-.56.26,8.28,8.28,0,0,1-3.3.63,9.23,9.23,0,0,1-4.52-1,4.39,4.39,0,0,1-1.62-1.58A4.59,4.59,0,0,1,27-845.8h3.75a1.84,1.84,0,0,0,.69,1.49,3.89,3.89,0,0,0,2.33.54,3,3,0,0,0,1.86-.51,1.17,1.17,0,0,0,.47-.92c0-.58-.74-1-2.21-1.36a25.87,25.87,0,0,1-4.14-1.13A3.46,3.46,0,0,1,27.5-851a4.35,4.35,0,0,1,1.18-3.07,5.77,5.77,0,0,1,4.43-1.57,9.22,9.22,0,0,1,3.89.69,1,1,0,0,1,.23.13,3.82,3.82,0,0,1,1.59,1.52A4.52,4.52,0,0,1,39.36-851Z"/></clipPath><clipPath id="clip-path-87"><path class="cls-1" d="M37.75-860.13a.59.59,0,0,1-.08.78.69.69,0,0,1-.48.21.67.67,0,0,1,.2.12l.34.46.27.46h-.44l-.21-.37A1.61,1.61,0,0,0,37-859l-.3-.09h-.22v1h-.37v-2.36H37a1.33,1.33,0,0,1,.45,0A.55.55,0,0,1,37.75-860.13Zm-.3.38a.21.21,0,0,0,0-.19.22.22,0,0,0-.16-.12.49.49,0,0,0-.24,0h-.56v.69h.56a.55.55,0,0,0,.34-.1A.29.29,0,0,0,37.45-859.75Z"/></clipPath><clipPath id="clip-path-88"><path class="cls-1" d="M39.15-859.29a2,2,0,0,1-.28,1.07,2,2,0,0,1-.79.79,2.26,2.26,0,0,1-1.06.28,2.33,2.33,0,0,1-1.06-.28,2.14,2.14,0,0,1-.79-.79,2.37,2.37,0,0,1-.28-1.07,2.23,2.23,0,0,1,.28-1.08,1.93,1.93,0,0,1,.81-.79,2.36,2.36,0,0,1,1-.29,2,2,0,0,1,1,.29,1.85,1.85,0,0,1,.8.79A2,2,0,0,1,39.15-859.29Zm-.35,0a1.76,1.76,0,0,0-.24-.9,1.58,1.58,0,0,0-.67-.66,1.75,1.75,0,0,0-.87-.24,1.81,1.81,0,0,0-.87.24,1.7,1.7,0,0,0-.67.66,1.86,1.86,0,0,0-.24.9,1.88,1.88,0,0,0,.24.89,1.9,1.9,0,0,0,.66.66,1.83,1.83,0,0,0,.88.23,1.82,1.82,0,0,0,.89-.23,1.72,1.72,0,0,0,.65-.66A1.78,1.78,0,0,0,38.8-859.29Z"/></clipPath><clipPath id="clip-path-89"><polygon class="cls-1" points="18.15 -876.74 28.29 -859.85 18.15 -859.85 12.01 -859.85 2.33 -875.98 -5 -888.18 2.33 -892.6 6.95 -895.38 18.15 -876.74"/></clipPath><clipPath id="clip-path-90"><path class="cls-1" d="M22.14-847.35v-1.53a4,4,0,0,0-4-3.26,4,4,0,0,0-4,4,4,4,0,0,0,4,4A4,4,0,0,0,22.14-847.35Zm3.37-.77v6.93H22.14v-.76a7.25,7.25,0,0,1-4,1.17,7.34,7.34,0,0,1-7.06-7.34,7.33,7.33,0,0,1,7.06-7.33,7.18,7.18,0,0,1,4,1.18v-.82h3.37Z"/></clipPath><clipPath id="clip-path-91"><path class="cls-1" d="M6.32-847.35v-1.53a4,4,0,0,0-3.95-3.26,4,4,0,0,0-4,4,4,4,0,0,0,4,4A4,4,0,0,0,6.32-847.35Zm3.37-.77v6.93H6.32v-.76a7.33,7.33,0,0,1-3.95,1.17,7.34,7.34,0,0,1-7.06-7.34,7.33,7.33,0,0,1,7.06-7.33,7.18,7.18,0,0,1,4,1.18v-5.57H9.69Z"/></clipPath><clipPath id="clip-path-92"><polygon class="cls-1" points="2.33 -866.49 6.3 -859.85 2.33 -859.85 -9.97 -859.85 -19 -874.88 -19.4 -875.53 -19 -875.77 -7.44 -882.74 2.33 -866.49"/></clipPath><clipPath id="clip-path-93"><rect class="cls-1" x="-9.95" y="-855.45" width="3.67" height="14.26"/></clipPath><clipPath id="clip-path-94"><rect class="cls-1" x="-9.95" y="-859.77" width="3.67" height="3.22"/></clipPath><clipPath id="clip-path-95"><path class="cls-1" d="M-15-847.35v-1.53a4,4,0,0,0-4-3.26,4,4,0,0,0-4,4,4,4,0,0,0,4,4A4,4,0,0,0-15-847.35Zm3.37-.77v6.93H-15v-.76a7.36,7.36,0,0,1-4,1.17,7.34,7.34,0,0,1-7.06-7.34A7.33,7.33,0,0,1-19-855.45a7.2,7.2,0,0,1,4,1.18v-5.57h3.37Z"/></clipPath><clipPath id="clip-path-96"><polygon class="cls-1" points="-19 -865.4 -15.67 -859.85 -19 -859.85 -31.95 -859.85 -33.78 -862.89 -21.82 -870.08 -19 -865.4"/></clipPath><clipPath id="clip-path-97"><path class="cls-1" d="M-31-847.35v-1.53a4,4,0,0,0-4-3.26,4,4,0,0,0-4,4,4,4,0,0,0,4,4A4,4,0,0,0-31-847.35Zm3.37-.77v6.93H-31v-.76a7.36,7.36,0,0,1-4,1.17A7.34,7.34,0,0,1-42-848.12,7.33,7.33,0,0,1-35-855.45a7.2,7.2,0,0,1,4,1.18v-.82h3.37Z"/></clipPath><clipPath id="clip-path-98"><path class="cls-1" d="M135.73-880h-4.66l4.83,12.63h5.26L146.09-880h-4.54l-2.94,8.21Zm-13.47,5c0-1.89.39-2.94,2.22-2.94s2.27.82,2.27,2.94Zm2.39,5.65c-1.94,0-2.39-.83-2.39-3.16H131c0-5.61-1.33-7.93-6.31-7.93-5.43,0-6.9,1.89-6.9,6.75s2,7,6.6,7,6.21-1.66,6.32-4.26h-3.92C126.75-869.85,126.31-869.35,124.65-869.35ZM113-880h-4.26v12.64h8.53v-3H113Zm33.64,22.56v-31.2m0,31.2a32.59,32.59,0,0,0-7.76,2.8A38.77,38.77,0,0,0,123-858.18a40.14,40.14,0,0,0-17.35,4l-7-34.51h47.93"/></clipPath><clipPath id="clip-path-99"><path class="cls-1" d="M164.44-852.35c0-.16-.23-.28-.78-.28v.61c.39,0,.78,0,.78-.32Zm-1.28,1.66v-2.43h.67c.66,0,1.16.17,1.16.78,0,.28-.17.5-.55.72l.44.94h-.44l-.39-.72h-.39v.71ZM166-851.9a2,2,0,0,0-2-2.05,2,2,0,0,0-2.05,2.05,2.1,2.1,0,0,0,2,2,2.05,2.05,0,0,0,1.48-.55A2,2,0,0,0,166-851.9Zm-2-2.44a2.47,2.47,0,0,1,2.25,1.18,2.43,2.43,0,0,1,0,2.52,2.47,2.47,0,0,1-2.25,1.18,2.45,2.45,0,0,1-1.73-.71,2.45,2.45,0,0,1-.71-1.73A2.46,2.46,0,0,1,164-854.34Zm-3.43-17.06h-4.49c.05,3,1.66,4.26,6.54,4.26,4.54,0,6.37-1,6.37-4.15,0-5-8.42-2.5-8.42-5.49,0-.72.83-1.34,1.94-1.34a1.73,1.73,0,0,1,1.88,1.56h4.27c-.06-2.66-1.61-3.88-5.88-3.88-4.43,0-6.48,1.22-6.48,4,0,5.49,8.42,2.55,8.42,5.66,0,.94-.5,1.38-1.71,1.38C161.55-869.41,160.67-870,160.56-871.4Zm-5.93-7.87-.22,1.27c1.33-.84,1.88-1.55,1.88-2.49a1.55,1.55,0,0,0-.5-1.22,1.56,1.56,0,0,0-1.27-.39,1.47,1.47,0,0,0-1.19.36,1.54,1.54,0,0,0-.53,1.14C152.8-879.44,153.57-879.27,154.63-879.27Zm-7.32-.83v12.69h4.16V-880.1Zm-.77-8.59h32.3l-7.59,34.52c-5-2.88-9.53-4.1-16.12-4.1a44.28,44.28,0,0,0-8.59.78"/></clipPath><clipPath id="clip-path-100"><rect class="cls-1" x="262.98" y="-863.43" width="5.64" height="6.9"/></clipPath><clipPath id="clip-path-101"><path class="cls-1" d="M271-854.1H260.56v-11.77h10.52Zm-18.21,0h-9.25l.51-2.49H251l1.43-6.75h-4.44l-.93,4.4h-2.43l1.41-6.87h9.29Zm-8.08-18.59h5.7v-6.91H246V-882h6.84v9.32h2.39v2.44H244.75Zm15.86,0h10.45v2.43H260.61Zm1.14-9.36h8.06v2.43h-8.06Zm-23-5.26v38.47h38.39v-38.47Z"/></clipPath><clipPath id="clip-path-102"><path class="cls-1" d="M309.82-863.82a1.61,1.61,0,0,0-1.6,1.61v4a1.61,1.61,0,0,0,.77,1.49,1.59,1.59,0,0,0,1.68,0,1.58,1.58,0,0,0,.76-1.49v-4A1.61,1.61,0,0,0,309.82-863.82Z"/></clipPath><clipPath id="clip-path-103"><path class="cls-1" d="M289.21-863.82a1.57,1.57,0,0,0-1.12.47,1.61,1.61,0,0,0-.47,1.14v4a1.6,1.6,0,0,0,1.59,1.59,1.59,1.59,0,0,0,1.59-1.59v-4A1.6,1.6,0,0,0,289.21-863.82Z"/></clipPath><clipPath id="clip-path-104"><path class="cls-1" d="M313.92-858.2a4.09,4.09,0,0,1-4.09,4.08,4.09,4.09,0,0,1-4.09-4.08v-4a4.09,4.09,0,0,1,4.09-4.09,4.09,4.09,0,0,1,4.09,4.09Zm-9.37-11.7h-2.38l-3.25-6.79v6.82h-2.46V-882h2.46l3.25,6.88V-882h2.39Zm0,15.75h-8.09v-12.14h2.42v9.76h5.67Zm-13.72,2.46-.83-2.5a4,4,0,0,1-.78.07,4.08,4.08,0,0,1-4-4.08v-4a4.06,4.06,0,0,1,2-3.51,4,4,0,0,1,4.05,0,4,4,0,0,1,2,3.51v4a4,4,0,0,1-1.19,2.89l1.19,3.62ZM285.19-882h2.45V-874a1.6,1.6,0,0,0,1.59,1.59,1.59,1.59,0,0,0,1.59-1.59v-8h2.46v8.13a4,4,0,0,1-4,4h-.14a4,4,0,0,1-4-4Zm23.42,0H311v12.15h-2.42Zm-28.25-5.26v38.47h38.39v-38.47Z"/></clipPath><clipPath id="clip-path-105"><path class="cls-1" d="M393.87-862.94a.73.73,0,0,1-.52-.21.7.7,0,0,1-.22-.51.74.74,0,0,1,.74-.74.74.74,0,0,1,.74.74.69.69,0,0,1-.21.51A.74.74,0,0,1,393.87-862.94Zm0-1.75a1,1,0,0,0-.94,1,1,1,0,0,0,1,1,1,1,0,0,0,1-1,1,1,0,0,0-.31-.73A1,1,0,0,0,393.87-864.69Z"/></clipPath><clipPath id="clip-path-106"><polygon class="cls-1" points="404.2 -868.27 399.03 -868.27 399.62 -877.25 396.27 -868.27 391.47 -868.27 399.08 -888.57 404.18 -888.57 403.59 -879.47 407.01 -888.57 411.81 -888.57 404.2 -868.27"/></clipPath><clipPath id="clip-path-107"><polygon class="cls-1" points="404.82 -868.27 412.43 -888.57 417.23 -888.57 409.62 -868.27 404.82 -868.27"/></clipPath><clipPath id="clip-path-108"><path class="cls-1" d="M390.92-875.27c-6.71,7.88-13,18.35-7.45,23.17s12.18,1.91,16.79.07,55.6-24,55.6-24c.49-.24.4-.56-.22-.4l-55.5,15C393.13-859.41,385.13-863.69,390.92-875.27Z"/></clipPath><clipPath id="clip-path-109"><path class="cls-1" d="M393.88-863.77h-.13V-864h.13c.08,0,.18,0,.18.12S394-863.77,393.88-863.77Zm.17.18a.29.29,0,0,0,.21-.09.24.24,0,0,0,.06-.2c0-.27-.17-.34-.46-.34h-.42v1.1h.31v-.47l.26.47h.32Z"/></clipPath><clipPath id="clip-path-110"><path class="cls-1" d="M442.09-886.87a.74.74,0,0,1-.72-.74.73.73,0,0,1,.74-.72.72.72,0,0,1,.72.73.69.69,0,0,1-.21.52A.74.74,0,0,1,442.09-886.87Zm0-1.76a1,1,0,0,0-.93,1,1,1,0,0,0,1,1,1,1,0,0,0,1-1,1,1,0,0,0-.31-.73A1,1,0,0,0,442.09-888.63Z"/></clipPath><clipPath id="clip-path-111"><path class="cls-1" d="M442.1-887.69h-.16v-.25h.13c.08,0,.18,0,.18.1S442.19-887.69,442.1-887.69Zm.17.16a.29.29,0,0,0,.21-.09.24.24,0,0,0,.06-.2c0-.27-.17-.33-.46-.33h-.42v1.1h.28v-.47l.26.47h.32Z"/></clipPath><clipPath id="clip-path-112"><path class="cls-1" d="M423.47-869.62l-.31-10.58,7.26-8Zm15.46-15.56,1.29-3.38H425.59l-5,6.08,2.32-6.08H418l-7.55,20.29h4.8l3.22-8.49.26,8.49h14.72l1.4-3.91h-5.63l1.83-4.92h4.62l1.42-3.78h-4.62l1.58-4.27Z"/></clipPath></defs><title>ikea</title><path class="cls-115" d="M21.86,54V88.25h96.28V54Zm86.08,26.42c-12,5-25,6.43-37.81,6.43s-26-1.38-37.88-6.43c-3.54-1.49-9.12-4.86-9.12-9.3s5.59-7.8,9.12-9.29c11.9-5,25.07-6.43,37.88-6.43S96,56.88,107.94,61.83c3.82,1.58,8.93,4.58,8.93,9.29S111.77,78.84,107.94,80.42Z"/><path class="cls-115" d="M44.53,64.4H35.31a1.13,1.13,0,0,1,.47.84V76.58a1.15,1.15,0,0,1-.47.84h9.22a1.16,1.16,0,0,1-.48-.84V65.24A1.14,1.14,0,0,1,44.53,64.4Z"/><polygon class="cls-115" points="83.69 72.77 83.69 72.77 83.69 72.77 83.69 72.77"/><path class="cls-115" d="M68,76.58l-4.3-6.8,3.12-4.53a2.59,2.59,0,0,1,1-.85H58.88a1.19,1.19,0,0,1,.14.44.84.84,0,0,1-.14.41l-2.62,3.92V65.25a1.14,1.14,0,0,1,.49-.85h-9a1.18,1.18,0,0,1,.48.85V76.58a1.16,1.16,0,0,1-.48.84h9a1.14,1.14,0,0,1-.49-.84V72.64l2.32,3.94a1,1,0,0,1,.17.49.76.76,0,0,1-.17.35H68.93A2.29,2.29,0,0,1,68,76.58Z"/><path class="cls-115" d="M78.41,73.22v-.73h4.47a1.47,1.47,0,0,1,.81.28v-4a1.39,1.39,0,0,1-.81.28H78.41v-.86h5.9a1.46,1.46,0,0,1,.8.28v-4H70.19a1.11,1.11,0,0,1,.49.84V76.59a1.1,1.1,0,0,1-.49.83H85.11V73a1.45,1.45,0,0,1-.8.27Z"/><path class="cls-115" d="M108.1,77.42a1.4,1.4,0,0,1-.41-.58l-4.48-11a2.24,2.24,0,0,1-.19-.82,1.72,1.72,0,0,1,.19-.67H90.91a1.49,1.49,0,0,1,.19.66,2.39,2.39,0,0,1-.19.83l-4,11a1.62,1.62,0,0,1-.38.58h7.61A.87.87,0,0,1,94,77a.83.83,0,0,1,0-.22l.66-1.94H98l.71,1.84a.76.76,0,0,1,0,.27,1.4,1.4,0,0,1-.11.49ZM95.5,72.19l.71-2.08L97,72.19Z"/></svg>