<svg id="圖層_1" data-name="圖層 1" xmlns="http://www.w3.org/2000/svg" xmlns:xlink="http://www.w3.org/1999/xlink" viewBox="0 0 140 140"><defs><style>.cls-1,.cls-2{fill:none;}.cls-2{clip-rule:evenodd;}.cls-3{clip-path:url(#clip-path);}.cls-4{clip-path:url(#clip-path-2);}.cls-5{clip-path:url(#clip-path-3);}.cls-6{clip-path:url(#clip-path-4);}.cls-7{clip-path:url(#clip-path-5);}.cls-8{clip-path:url(#clip-path-6);}.cls-9{clip-path:url(#clip-path-7);}.cls-10{clip-path:url(#clip-path-8);}.cls-11{clip-path:url(#clip-path-9);}.cls-12{clip-path:url(#clip-path-10);}.cls-13{clip-path:url(#clip-path-11);}.cls-14{clip-path:url(#clip-path-12);}.cls-15{clip-path:url(#clip-path-13);}.cls-16{clip-path:url(#clip-path-14);}.cls-17{clip-path:url(#clip-path-15);}.cls-18{clip-path:url(#clip-path-16);}.cls-19{clip-path:url(#clip-path-17);}.cls-20{clip-path:url(#clip-path-18);}.cls-21{clip-path:url(#clip-path-19);}.cls-22{clip-path:url(#clip-path-20);}.cls-23{clip-path:url(#clip-path-21);}.cls-24{clip-path:url(#clip-path-22);}.cls-25{clip-path:url(#clip-path-23);}.cls-26{clip-path:url(#clip-path-24);}.cls-27{clip-path:url(#clip-path-25);}.cls-28{clip-path:url(#clip-path-26);}.cls-29{clip-path:url(#clip-path-27);}.cls-30{clip-path:url(#clip-path-28);}.cls-31{clip-path:url(#clip-path-29);}.cls-32{clip-path:url(#clip-path-30);}.cls-33{clip-path:url(#clip-path-31);}.cls-34{clip-path:url(#clip-path-32);}.cls-35{clip-path:url(#clip-path-33);}.cls-36{clip-path:url(#clip-path-34);}.cls-37{clip-path:url(#clip-path-35);}.cls-38{clip-path:url(#clip-path-36);}.cls-39{clip-path:url(#clip-path-37);}.cls-40{clip-path:url(#clip-path-38);}.cls-41{clip-path:url(#clip-path-39);}.cls-42{clip-path:url(#clip-path-40);}.cls-43{clip-path:url(#clip-path-41);}.cls-44{clip-path:url(#clip-path-42);}.cls-45{clip-path:url(#clip-path-43);}.cls-46{clip-path:url(#clip-path-44);}.cls-47{clip-path:url(#clip-path-45);}.cls-48{clip-path:url(#clip-path-46);}.cls-49{clip-path:url(#clip-path-47);}.cls-50{clip-path:url(#clip-path-48);}.cls-51{clip-path:url(#clip-path-49);}.cls-52{clip-path:url(#clip-path-50);}.cls-53{clip-path:url(#clip-path-51);}.cls-54{clip-path:url(#clip-path-52);}.cls-55{clip-path:url(#clip-path-53);}.cls-56{clip-path:url(#clip-path-54);}.cls-57{clip-path:url(#clip-path-55);}.cls-58{clip-path:url(#clip-path-56);}.cls-59{clip-path:url(#clip-path-57);}.cls-60{clip-path:url(#clip-path-58);}.cls-61{clip-path:url(#clip-path-59);}.cls-62{clip-path:url(#clip-path-60);}.cls-63{clip-path:url(#clip-path-61);}.cls-64{clip-path:url(#clip-path-62);}.cls-65{clip-path:url(#clip-path-63);}.cls-66{clip-path:url(#clip-path-64);}.cls-67{clip-path:url(#clip-path-65);}.cls-68{clip-path:url(#clip-path-66);}.cls-69{clip-path:url(#clip-path-67);}.cls-70{clip-path:url(#clip-path-68);}.cls-71{clip-path:url(#clip-path-69);}.cls-72{clip-path:url(#clip-path-70);}.cls-73{clip-path:url(#clip-path-71);}.cls-74{clip-path:url(#clip-path-72);}.cls-75{clip-path:url(#clip-path-73);}.cls-76{clip-path:url(#clip-path-74);}.cls-77{clip-path:url(#clip-path-75);}.cls-78{clip-path:url(#clip-path-76);}.cls-79{clip-path:url(#clip-path-77);}.cls-80{clip-path:url(#clip-path-78);}.cls-81{clip-path:url(#clip-path-79);}.cls-82{clip-path:url(#clip-path-80);}.cls-83{clip-path:url(#clip-path-81);}.cls-84{clip-path:url(#clip-path-82);}.cls-85{clip-path:url(#clip-path-83);}.cls-86{clip-path:url(#clip-path-84);}.cls-87{clip-path:url(#clip-path-85);}.cls-88{clip-path:url(#clip-path-86);}.cls-89{clip-path:url(#clip-path-87);}.cls-90{clip-path:url(#clip-path-88);}.cls-91{clip-path:url(#clip-path-89);}.cls-92{clip-path:url(#clip-path-90);}.cls-93{clip-path:url(#clip-path-91);}.cls-94{clip-path:url(#clip-path-92);}.cls-95{clip-path:url(#clip-path-93);}.cls-96{clip-path:url(#clip-path-94);}.cls-97{clip-path:url(#clip-path-95);}.cls-98{clip-path:url(#clip-path-96);}.cls-99{clip-path:url(#clip-path-97);}.cls-100{clip-path:url(#clip-path-98);}.cls-101{clip-path:url(#clip-path-99);}.cls-102{clip-path:url(#clip-path-100);}.cls-103{clip-path:url(#clip-path-101);}.cls-104{clip-path:url(#clip-path-102);}.cls-105{clip-path:url(#clip-path-103);}.cls-106{clip-path:url(#clip-path-104);}.cls-107{clip-path:url(#clip-path-105);}.cls-108{clip-path:url(#clip-path-106);}.cls-109{clip-path:url(#clip-path-107);}.cls-110{clip-path:url(#clip-path-108);}.cls-111{clip-path:url(#clip-path-109);}.cls-112{clip-path:url(#clip-path-110);}.cls-113{clip-path:url(#clip-path-111);}.cls-114{clip-path:url(#clip-path-112);}.cls-115{fill:#b2b2b2;}</style><clipPath id="clip-path"><rect class="cls-1" x="35.88" y="-886.91" width="1024" height="700"/></clipPath><clipPath id="clip-path-2"><path class="cls-2" d="M282.7-417.1l3.37,0c12.31.85,27.08,12.2,27.08,28.88v13.07h-12v-13.07c0-8.14-6.32-14.87-15.13-15.46H282.7Z"/></clipPath><clipPath id="clip-path-3"><path class="cls-2" d="M282.7-402.41H286c8.54,0,14,8.35,13.82,14.15v13.06h-9.16v-10.54c-.13-2.65-1.74-4.1-4.68-4.15H282.7Z"/></clipPath><clipPath id="clip-path-4"><path class="cls-2" d="M282.7-388.27h3.05c2.39,0,3.42,1.19,3.42,3.82v9.25H282.7Z"/></clipPath><clipPath id="clip-path-5"><polygon class="cls-2" points="239.58 -375.54 239.58 -387.95 248.11 -387.95 248.11 -384.82 243.2 -384.82 243.2 -382.91 247.11 -382.91 247.11 -379.91 243.2 -379.91 243.2 -375.54 239.58 -375.54"/></clipPath><clipPath id="clip-path-6"><path class="cls-2" d="M267.7-380.35h3.43a5.48,5.48,0,0,1-1.57,3.8,5.34,5.34,0,0,1-3.83,1.35,5.44,5.44,0,0,1-4.27-1.71,7,7,0,0,1-1.58-4.82,7,7,0,0,1,1.54-4.79,5.35,5.35,0,0,1,4.2-1.75,5.47,5.47,0,0,1,3.88,1.36,5.32,5.32,0,0,1,1.57,3.71H267.6a2.21,2.21,0,0,0-.56-1.43,1.83,1.83,0,0,0-1.35-.49,1.76,1.76,0,0,0-1.6.86,4.9,4.9,0,0,0-.53,2.58,4.65,4.65,0,0,0,.56,2.56,1.87,1.87,0,0,0,1.67.87,1.75,1.75,0,0,0,1.33-.53,2.49,2.49,0,0,0,.58-1.52Z"/></clipPath><clipPath id="clip-path-7"><polygon class="cls-2" points="272.66 -375.54 272.66 -387.95 281.67 -387.95 281.67 -384.97 276.28 -384.97 276.28 -383.32 280.84 -383.32 280.84 -380.48 276.28 -380.48 276.28 -378.56 281.9 -378.56 281.9 -375.54 272.66 -375.54"/></clipPath><clipPath id="clip-path-8"><path class="cls-2" d="M222.61-389.83v-12.59h3.45l3.17,5.86a4,4,0,0,1,.31.7c.11.3.23.66.35,1.09a2.84,2.84,0,0,0-.07-.74,4.72,4.72,0,0,1,0-1v-5.91h3.46v12.59H229.8l-3.17-5.81a3.94,3.94,0,0,1-.32-.73c-.12-.31-.23-.67-.35-1.08,0,.23.06.46.07.7s0,.58,0,1v5.9Z"/></clipPath><clipPath id="clip-path-9"><polygon class="cls-2" points="262.73 -389.83 262.73 -399.1 259.47 -399.1 259.47 -402.42 269.55 -402.42 269.55 -399.1 266.36 -399.1 266.36 -389.83 262.73 -389.83"/></clipPath><clipPath id="clip-path-10"><polygon class="cls-2" points="270.8 -389.83 270.8 -402.42 274.43 -402.42 274.43 -398.15 277.82 -398.15 277.82 -402.42 281.45 -402.42 281.45 -389.83 277.82 -389.83 277.82 -394.71 274.43 -394.71 274.43 -389.83 270.8 -389.83"/></clipPath><clipPath id="clip-path-11"><polygon class="cls-2" points="251.85 -403.73 251.85 -413.79 248.6 -413.79 248.6 -417.39 258.65 -417.39 258.65 -413.79 255.47 -413.79 255.47 -403.73 251.85 -403.73"/></clipPath><clipPath id="clip-path-12"><polygon class="cls-2" points="259.89 -403.73 259.89 -417.39 263.52 -417.39 263.52 -412.75 266.9 -412.75 266.9 -417.39 270.52 -417.39 270.52 -403.73 266.9 -403.73 266.9 -409.03 263.52 -409.03 263.52 -403.73 259.89 -403.73"/></clipPath><clipPath id="clip-path-13"><polygon class="cls-2" points="272.65 -403.73 272.65 -417.39 281.67 -417.39 281.67 -414.12 276.28 -414.12 276.28 -412.3 280.84 -412.3 280.84 -409.17 276.28 -409.17 276.28 -407.05 281.9 -407.05 281.9 -403.73 272.65 -403.73"/></clipPath><clipPath id="clip-path-14"><path class="cls-2" d="M252.38-379.75l1.15-4.29,1.13,4.29Zm3-8.16h-3.67l-4,12.41h3.56l.44-1.65h3.59l.42,1.65h3.59Z"/></clipPath><clipPath id="clip-path-15"><path class="cls-2" d="M242.48-393.48a2.12,2.12,0,0,1-1.68.83,2.09,2.09,0,0,1-1.67-.83,6.65,6.65,0,0,1,0-5.25,2.07,2.07,0,0,1,1.67-.84,2.1,2.1,0,0,1,1.68.84,5,5,0,0,1,.53,2.64A5,5,0,0,1,242.48-393.48Zm2.63-7.49a5.48,5.48,0,0,0-4.3-1.77,5.46,5.46,0,0,0-4.3,1.77,7.09,7.09,0,0,0-1.58,4.86,7.06,7.06,0,0,0,1.58,4.85,5.46,5.46,0,0,0,4.3,1.78,5.44,5.44,0,0,0,4.3-1.78,7.07,7.07,0,0,0,1.57-4.85A7.08,7.08,0,0,0,245.11-401Z"/></clipPath><clipPath id="clip-path-16"><path class="cls-2" d="M254.78-397.27a2,2,0,0,1-1.2.26h-1.65v-2.36h1.56a2.33,2.33,0,0,1,1.29.26,1.17,1.17,0,0,1,.33.93A1.14,1.14,0,0,1,254.78-397.27Zm3.78,6.18-.07-1.82a3.79,3.79,0,0,0-.46-1.92,2.2,2.2,0,0,0-1.38-.88,3.09,3.09,0,0,0,1.38-1.2,3.87,3.87,0,0,0,.44-1.92,3.3,3.3,0,0,0-1.08-2.77,6,6,0,0,0-3.63-.85h-5.42v12.62h3.59v-4.34h1.54a1.51,1.51,0,0,1,1.2.4,2.13,2.13,0,0,1,.35,1.37v1.26a2.26,2.26,0,0,0,0,.52,3.86,3.86,0,0,0,.15.79h3.71v-.47C258.68-390.32,258.57-390.58,258.56-391.09Z"/></clipPath><clipPath id="clip-path-17"><path class="cls-1" d="M448.49-379.23h-3.61a2.37,2.37,0,0,0-.52-1.25,2.66,2.66,0,0,0-1.93-.58,2.94,2.94,0,0,0-1.85.44,1.13,1.13,0,0,0-.4.92c0,.54.75,1,2.25,1.3,1.7.37,2.92.7,3.67.95l.5.2a3.47,3.47,0,0,1,2.28,3.26,4.14,4.14,0,0,1-2.21,3.89,5.77,5.77,0,0,1-.56.27,8.31,8.31,0,0,1-3.3.62,9.18,9.18,0,0,1-4.52-1,4.39,4.39,0,0,1-1.62-1.58,4.46,4.46,0,0,1-.54-2.23h3.75a1.77,1.77,0,0,0,.69,1.49,3.87,3.87,0,0,0,2.33.54,2.86,2.86,0,0,0,1.86-.51,1.2,1.2,0,0,0,.47-.92c0-.58-.74-1-2.21-1.36a24.61,24.61,0,0,1-4.14-1.13,3.44,3.44,0,0,1-2.25-3.3,4.28,4.28,0,0,1,1.18-3.07,5.77,5.77,0,0,1,4.43-1.57,9.44,9.44,0,0,1,3.89.69l.23.13a4,4,0,0,1,1.59,1.52A4.62,4.62,0,0,1,448.49-379.23Z"/></clipPath><clipPath id="clip-path-18"><path class="cls-1" d="M446.88-388.35a.6.6,0,0,1-.08.78.68.68,0,0,1-.48.21.82.82,0,0,1,.2.12l.34.46.27.46h-.44l-.21-.37a2,2,0,0,0-.35-.5l-.3-.09h-.22v1h-.37v-2.36h.93a1.74,1.74,0,0,1,.45.06A.58.58,0,0,1,446.88-388.35Zm-.3.38a.31.31,0,0,0,0-.19.31.31,0,0,0-.16-.12,1,1,0,0,0-.24,0h-.56v.69h.56a.52.52,0,0,0,.34-.1A.35.35,0,0,0,446.58-388Z"/></clipPath><clipPath id="clip-path-19"><path class="cls-1" d="M448.28-387.51a2.25,2.25,0,0,1-.28,1.07,2.07,2.07,0,0,1-.79.79,2.21,2.21,0,0,1-1.06.28,2.18,2.18,0,0,1-1.06-.28,1.94,1.94,0,0,1-.79-.79,2.25,2.25,0,0,1-.28-1.07,2.15,2.15,0,0,1,.28-1.08,1.82,1.82,0,0,1,.81-.79,2.36,2.36,0,0,1,1-.29,2.1,2.1,0,0,1,1,.29,1.85,1.85,0,0,1,.8.79A2.09,2.09,0,0,1,448.28-387.51Zm-.35,0a1.86,1.86,0,0,0-.24-.9,1.7,1.7,0,0,0-.67-.66,1.93,1.93,0,0,0-.87-.24,1.86,1.86,0,0,0-.87.24,1.64,1.64,0,0,0-.67.66,1.76,1.76,0,0,0-.24.9,1.75,1.75,0,0,0,.24.89,1.61,1.61,0,0,0,.66.66,1.81,1.81,0,0,0,.88.23A1.84,1.84,0,0,0,447-386a1.79,1.79,0,0,0,.65-.66A1.85,1.85,0,0,0,447.93-387.51Z"/></clipPath><clipPath id="clip-path-20"><polygon class="cls-1" points="427.28 -404.95 437.42 -388.06 427.28 -388.06 421.14 -388.06 411.46 -404.19 404.13 -416.4 411.46 -420.81 416.08 -423.59 427.28 -404.95"/></clipPath><clipPath id="clip-path-21"><path class="cls-1" d="M431.27-375.57v-1.53a4,4,0,0,0-4-3.26,4,4,0,0,0-4,4,4,4,0,0,0,4,4A4.06,4.06,0,0,0,431.27-375.57Zm3.37-.76v6.92h-3.37v-.76a7.27,7.27,0,0,1-4,1.17,7.34,7.34,0,0,1-7.07-7.34,7.33,7.33,0,0,1,7.07-7.33,7.2,7.2,0,0,1,4,1.18v-.81h3.37Z"/></clipPath><clipPath id="clip-path-22"><path class="cls-1" d="M415.45-375.57v-1.53a4,4,0,0,0-3.95-3.26,4,4,0,0,0-4,4,4,4,0,0,0,4,4A4.05,4.05,0,0,0,415.45-375.57Zm3.37-.76v6.92h-3.37v-.76A7.3,7.3,0,0,1,411.5-369a7.34,7.34,0,0,1-7.07-7.34,7.33,7.33,0,0,1,7.07-7.33,7.22,7.22,0,0,1,3.95,1.18v-5.57h3.37Z"/></clipPath><clipPath id="clip-path-23"><polygon class="cls-1" points="411.46 -394.7 415.43 -388.06 411.46 -388.06 399.16 -388.06 390.13 -403.1 389.73 -403.75 390.13 -403.99 401.69 -410.95 411.46 -394.7"/></clipPath><clipPath id="clip-path-24"><rect class="cls-1" x="399.18" y="-383.67" width="3.67" height="14.26"/></clipPath><clipPath id="clip-path-25"><rect class="cls-1" x="399.18" y="-387.99" width="3.67" height="3.22"/></clipPath><clipPath id="clip-path-26"><path class="cls-1" d="M394.13-375.57v-1.53a4,4,0,0,0-4-3.26,4,4,0,0,0-4,4,4,4,0,0,0,4,4A4.06,4.06,0,0,0,394.13-375.57Zm3.37-.76v6.92h-3.37v-.76a7.27,7.27,0,0,1-4,1.17,7.34,7.34,0,0,1-7.07-7.34,7.33,7.33,0,0,1,7.07-7.33,7.2,7.2,0,0,1,4,1.18v-5.57h3.37Z"/></clipPath><clipPath id="clip-path-27"><polygon class="cls-1" points="390.13 -393.62 393.46 -388.06 390.13 -388.06 377.18 -388.06 375.35 -391.11 387.31 -398.29 390.13 -393.62"/></clipPath><clipPath id="clip-path-28"><path class="cls-1" d="M378.14-375.57v-1.53a4,4,0,0,0-4-3.26,4,4,0,0,0-4,4,4,4,0,0,0,4,4A4.06,4.06,0,0,0,378.14-375.57Zm3.37-.76v6.92h-3.37v-.76a7.27,7.27,0,0,1-4,1.17,7.34,7.34,0,0,1-7.07-7.34,7.33,7.33,0,0,1,7.07-7.33,7.2,7.2,0,0,1,4,1.18v-.81h3.37Z"/></clipPath><clipPath id="clip-path-29"><path class="cls-1" d="M544.86-408.22H540.2L545-395.58h5.26l4.93-12.64h-4.54L547.74-400Zm-13.47,5c0-1.89.39-2.94,2.22-2.94s2.27.83,2.27,2.94Zm2.39,5.65c-1.94,0-2.39-.83-2.39-3.16h8.7c0-5.6-1.33-7.93-6.31-7.93-5.43,0-6.9,1.89-6.9,6.75s2,7,6.6,7,6.21-1.66,6.32-4.26h-3.92C535.88-398.07,535.44-397.57,533.78-397.57Zm-11.7-10.7h-4.26v12.64h8.53v-3h-4.27Zm33.64,22.56v-31.2m0,31.2a33.49,33.49,0,0,0-7.76,2.8,38.77,38.77,0,0,0-15.79-3.49,40.25,40.25,0,0,0-17.35,4l-7-34.51h47.93"/></clipPath><clipPath id="clip-path-30"><path class="cls-1" d="M573.57-380.57c0-.16-.23-.28-.78-.28v.61c.39,0,.78,0,.78-.32Zm-1.28,1.66v-2.42H573c.66,0,1.16.16,1.16.77,0,.28-.17.5-.55.72l.44.94h-.44l-.39-.72h-.39v.71Zm2.88-1.21a2.05,2.05,0,0,0-2-2.05,2.05,2.05,0,0,0-2,2.05,2.07,2.07,0,0,0,2,2,2,2,0,0,0,1.48-.55A2,2,0,0,0,575.17-380.12Zm-2-2.43a2.43,2.43,0,0,1,2.24,1.17,2.45,2.45,0,0,1,0,2.53,2.43,2.43,0,0,1-2.24,1.17,2.44,2.44,0,0,1-1.73-.71,2.39,2.39,0,0,1-.71-1.73A2.45,2.45,0,0,1,573.12-382.55Zm-3.43-17.07H565.2c0,3,1.66,4.26,6.54,4.26,4.54,0,6.37-1,6.37-4.15,0-5-8.42-2.5-8.42-5.49,0-.72.83-1.33,1.94-1.33a1.73,1.73,0,0,1,1.88,1.55h4.27c-.06-2.66-1.61-3.88-5.88-3.88-4.43,0-6.48,1.22-6.48,4,0,5.49,8.42,2.55,8.42,5.66,0,.94-.5,1.38-1.71,1.38C570.68-397.63,569.8-398.18,569.69-399.62Zm-5.93-7.87-.22,1.27c1.33-.83,1.88-1.55,1.88-2.49a1.57,1.57,0,0,0-.51-1.22,1.56,1.56,0,0,0-1.26-.39,1.49,1.49,0,0,0-1.2.36,1.51,1.51,0,0,0-.52,1.14C561.93-407.66,562.7-407.49,563.76-407.49Zm-7.32-.83v12.69h4.16v-12.69Zm-.77-8.59H588l-7.59,34.52c-5-2.88-9.53-4.1-16.12-4.1a45,45,0,0,0-8.59.78"/></clipPath><clipPath id="clip-path-31"><path class="cls-2" d="M282.7-557.1l3.37,0c12.31.85,27.08,12.2,27.08,28.88v13.07h-12v-13.07c0-8.14-6.32-14.87-15.13-15.46H282.7Z"/></clipPath><clipPath id="clip-path-32"><path class="cls-2" d="M282.7-542.41H286c8.54,0,14,8.35,13.82,14.15v13.06h-9.16v-10.54c-.13-2.65-1.74-4.1-4.68-4.15H282.7Z"/></clipPath><clipPath id="clip-path-33"><path class="cls-2" d="M282.7-528.27h3.05c2.39,0,3.42,1.19,3.42,3.82v9.25H282.7Z"/></clipPath><clipPath id="clip-path-34"><polygon class="cls-2" points="239.58 -515.54 239.58 -527.95 248.11 -527.95 248.11 -524.82 243.2 -524.82 243.2 -522.91 247.11 -522.91 247.11 -519.91 243.2 -519.91 243.2 -515.54 239.58 -515.54"/></clipPath><clipPath id="clip-path-35"><path class="cls-2" d="M267.7-520.35h3.43a5.48,5.48,0,0,1-1.57,3.8,5.34,5.34,0,0,1-3.83,1.35,5.44,5.44,0,0,1-4.27-1.71,7,7,0,0,1-1.58-4.82,7,7,0,0,1,1.54-4.79,5.35,5.35,0,0,1,4.2-1.75,5.47,5.47,0,0,1,3.88,1.36,5.32,5.32,0,0,1,1.57,3.71H267.6a2.21,2.21,0,0,0-.56-1.43,1.83,1.83,0,0,0-1.35-.49,1.76,1.76,0,0,0-1.6.86,4.9,4.9,0,0,0-.53,2.58,4.65,4.65,0,0,0,.56,2.56,1.87,1.87,0,0,0,1.67.87,1.75,1.75,0,0,0,1.33-.53,2.49,2.49,0,0,0,.58-1.52Z"/></clipPath><clipPath id="clip-path-36"><polygon class="cls-2" points="272.66 -515.54 272.66 -527.95 281.67 -527.95 281.67 -524.97 276.28 -524.97 276.28 -523.32 280.84 -523.32 280.84 -520.48 276.28 -520.48 276.28 -518.56 281.9 -518.56 281.9 -515.54 272.66 -515.54"/></clipPath><clipPath id="clip-path-37"><path class="cls-2" d="M222.61-529.83v-12.59h3.45l3.17,5.86a4,4,0,0,1,.31.7c.11.3.23.66.35,1.09a2.84,2.84,0,0,0-.07-.74,4.72,4.72,0,0,1,0-1v-5.91h3.46v12.59H229.8l-3.17-5.81a3.94,3.94,0,0,1-.32-.73c-.12-.31-.23-.67-.35-1.08,0,.23.06.46.07.7s0,.58,0,1v5.9Z"/></clipPath><clipPath id="clip-path-38"><polygon class="cls-2" points="262.73 -529.83 262.73 -539.1 259.47 -539.1 259.47 -542.42 269.55 -542.42 269.55 -539.1 266.36 -539.1 266.36 -529.83 262.73 -529.83"/></clipPath><clipPath id="clip-path-39"><polygon class="cls-2" points="270.8 -529.83 270.8 -542.42 274.43 -542.42 274.43 -538.15 277.82 -538.15 277.82 -542.42 281.45 -542.42 281.45 -529.83 277.82 -529.83 277.82 -534.71 274.43 -534.71 274.43 -529.83 270.8 -529.83"/></clipPath><clipPath id="clip-path-40"><polygon class="cls-2" points="251.85 -543.73 251.85 -553.79 248.6 -553.79 248.6 -557.39 258.65 -557.39 258.65 -553.79 255.47 -553.79 255.47 -543.73 251.85 -543.73"/></clipPath><clipPath id="clip-path-41"><polygon class="cls-2" points="259.89 -543.73 259.89 -557.39 263.52 -557.39 263.52 -552.75 266.9 -552.75 266.9 -557.39 270.52 -557.39 270.52 -543.73 266.9 -543.73 266.9 -549.03 263.52 -549.03 263.52 -543.73 259.89 -543.73"/></clipPath><clipPath id="clip-path-42"><polygon class="cls-2" points="272.65 -543.73 272.65 -557.39 281.67 -557.39 281.67 -554.12 276.28 -554.12 276.28 -552.3 280.84 -552.3 280.84 -549.17 276.28 -549.17 276.28 -547.05 281.9 -547.05 281.9 -543.73 272.65 -543.73"/></clipPath><clipPath id="clip-path-43"><path class="cls-2" d="M252.38-519.75l1.15-4.29,1.13,4.29Zm3-8.16h-3.67l-4,12.41h3.56l.44-1.65h3.59l.42,1.65h3.59Z"/></clipPath><clipPath id="clip-path-44"><path class="cls-2" d="M242.48-533.48a2.12,2.12,0,0,1-1.68.83,2.09,2.09,0,0,1-1.67-.83,6.65,6.65,0,0,1,0-5.25,2.07,2.07,0,0,1,1.67-.84,2.1,2.1,0,0,1,1.68.84,5,5,0,0,1,.53,2.64A5,5,0,0,1,242.48-533.48Zm2.63-7.49a5.48,5.48,0,0,0-4.3-1.77,5.46,5.46,0,0,0-4.3,1.77,7.09,7.09,0,0,0-1.58,4.86,7.06,7.06,0,0,0,1.58,4.85,5.46,5.46,0,0,0,4.3,1.78,5.44,5.44,0,0,0,4.3-1.78,7.07,7.07,0,0,0,1.57-4.85A7.08,7.08,0,0,0,245.11-541Z"/></clipPath><clipPath id="clip-path-45"><path class="cls-2" d="M254.78-537.27a2,2,0,0,1-1.2.26h-1.65v-2.36h1.56a2.33,2.33,0,0,1,1.29.26,1.17,1.17,0,0,1,.33.93A1.14,1.14,0,0,1,254.78-537.27Zm3.78,6.18-.07-1.82a3.79,3.79,0,0,0-.46-1.92,2.2,2.2,0,0,0-1.38-.88,3.09,3.09,0,0,0,1.38-1.2,3.87,3.87,0,0,0,.44-1.92,3.3,3.3,0,0,0-1.08-2.77,6,6,0,0,0-3.63-.85h-5.42v12.62h3.59v-4.34h1.54a1.51,1.51,0,0,1,1.2.4,2.13,2.13,0,0,1,.35,1.37v1.26a2.26,2.26,0,0,0,0,.52,3.86,3.86,0,0,0,.15.79h3.71v-.47C258.68-530.32,258.57-530.58,258.56-531.09Z"/></clipPath><clipPath id="clip-path-46"><path class="cls-1" d="M448.49-519.23h-3.61a2.37,2.37,0,0,0-.52-1.25,2.66,2.66,0,0,0-1.93-.58,2.94,2.94,0,0,0-1.85.44,1.13,1.13,0,0,0-.4.92c0,.54.75,1,2.25,1.3,1.7.37,2.92.7,3.67.95l.5.2a3.47,3.47,0,0,1,2.28,3.26,4.14,4.14,0,0,1-2.21,3.89,5.77,5.77,0,0,1-.56.27,8.31,8.31,0,0,1-3.3.62,9.18,9.18,0,0,1-4.52-1,4.39,4.39,0,0,1-1.62-1.58,4.46,4.46,0,0,1-.54-2.23h3.75a1.77,1.77,0,0,0,.69,1.49,3.87,3.87,0,0,0,2.33.54,2.86,2.86,0,0,0,1.86-.51,1.2,1.2,0,0,0,.47-.92c0-.58-.74-1-2.21-1.36a24.61,24.61,0,0,1-4.14-1.13,3.44,3.44,0,0,1-2.25-3.3,4.28,4.28,0,0,1,1.18-3.07,5.77,5.77,0,0,1,4.43-1.57,9.44,9.44,0,0,1,3.89.69l.23.13a4,4,0,0,1,1.59,1.52A4.62,4.62,0,0,1,448.49-519.23Z"/></clipPath><clipPath id="clip-path-47"><path class="cls-1" d="M446.88-528.35a.6.6,0,0,1-.08.78.68.68,0,0,1-.48.21.82.82,0,0,1,.2.12l.34.46.27.46h-.44l-.21-.37a2,2,0,0,0-.35-.5l-.3-.09h-.22v1h-.37v-2.36h.93a1.74,1.74,0,0,1,.45.06A.58.58,0,0,1,446.88-528.35Zm-.3.38a.31.31,0,0,0,0-.19.31.31,0,0,0-.16-.12h-.8v.69h.56a.52.52,0,0,0,.34-.1A.35.35,0,0,0,446.58-528Z"/></clipPath><clipPath id="clip-path-48"><path class="cls-1" d="M448.28-527.51a2.25,2.25,0,0,1-.28,1.07,2.07,2.07,0,0,1-.79.79,2.21,2.21,0,0,1-1.06.28,2.18,2.18,0,0,1-1.06-.28,1.94,1.94,0,0,1-.79-.79,2.25,2.25,0,0,1-.28-1.07,2.15,2.15,0,0,1,.28-1.08,1.82,1.82,0,0,1,.81-.79,2.36,2.36,0,0,1,1-.29,2.1,2.1,0,0,1,1,.29,1.85,1.85,0,0,1,.8.79A2.09,2.09,0,0,1,448.28-527.51Zm-.35,0a1.86,1.86,0,0,0-.24-.9,1.7,1.7,0,0,0-.67-.66,1.93,1.93,0,0,0-.87-.24,1.86,1.86,0,0,0-.87.24,1.64,1.64,0,0,0-.67.66,1.76,1.76,0,0,0-.24.9,1.75,1.75,0,0,0,.24.89,1.61,1.61,0,0,0,.66.66,1.81,1.81,0,0,0,.88.23A1.84,1.84,0,0,0,447-526a1.79,1.79,0,0,0,.65-.66A1.85,1.85,0,0,0,447.93-527.51Z"/></clipPath><clipPath id="clip-path-49"><polygon class="cls-1" points="427.28 -544.95 437.42 -528.06 427.28 -528.06 421.14 -528.06 411.46 -544.19 404.13 -556.4 411.46 -560.81 416.08 -563.59 427.28 -544.95"/></clipPath><clipPath id="clip-path-50"><path class="cls-1" d="M431.27-515.57v-1.53a4,4,0,0,0-4-3.26,4,4,0,0,0-4,4,4,4,0,0,0,4,4A4.06,4.06,0,0,0,431.27-515.57Zm3.37-.76v6.92h-3.37v-.76a7.27,7.27,0,0,1-4,1.17,7.34,7.34,0,0,1-7.07-7.34,7.33,7.33,0,0,1,7.07-7.33,7.2,7.2,0,0,1,4,1.18v-.81h3.37Z"/></clipPath><clipPath id="clip-path-51"><path class="cls-1" d="M415.45-515.57v-1.53a4,4,0,0,0-3.95-3.26,4,4,0,0,0-4,4,4,4,0,0,0,4,4A4.05,4.05,0,0,0,415.45-515.57Zm3.37-.76v6.92h-3.37v-.76A7.3,7.3,0,0,1,411.5-509a7.34,7.34,0,0,1-7.07-7.34,7.33,7.33,0,0,1,7.07-7.33,7.22,7.22,0,0,1,3.95,1.18v-5.57h3.37Z"/></clipPath><clipPath id="clip-path-52"><polygon class="cls-1" points="411.46 -534.7 415.43 -528.06 411.46 -528.06 399.16 -528.06 390.13 -543.1 389.73 -543.75 390.13 -543.99 401.69 -550.95 411.46 -534.7"/></clipPath><clipPath id="clip-path-53"><rect class="cls-1" x="399.18" y="-523.67" width="3.67" height="14.26"/></clipPath><clipPath id="clip-path-54"><rect class="cls-1" x="399.18" y="-527.99" width="3.67" height="3.22"/></clipPath><clipPath id="clip-path-55"><path class="cls-1" d="M394.13-515.57v-1.53a4,4,0,0,0-4-3.26,4,4,0,0,0-4,4,4,4,0,0,0,4,4A4.06,4.06,0,0,0,394.13-515.57Zm3.37-.76v6.92h-3.37v-.76a7.27,7.27,0,0,1-4,1.17,7.34,7.34,0,0,1-7.07-7.34,7.33,7.33,0,0,1,7.07-7.33,7.2,7.2,0,0,1,4,1.18v-5.57h3.37Z"/></clipPath><clipPath id="clip-path-56"><polygon class="cls-1" points="390.13 -533.62 393.46 -528.06 390.13 -528.06 377.18 -528.06 375.35 -531.11 387.31 -538.29 390.13 -533.62"/></clipPath><clipPath id="clip-path-57"><path class="cls-1" d="M378.14-515.57v-1.53a4,4,0,0,0-4-3.26,4,4,0,0,0-4,4,4,4,0,0,0,4,4A4.06,4.06,0,0,0,378.14-515.57Zm3.37-.76v6.92h-3.37v-.76a7.27,7.27,0,0,1-4,1.17,7.34,7.34,0,0,1-7.07-7.34,7.33,7.33,0,0,1,7.07-7.33,7.2,7.2,0,0,1,4,1.18v-.81h3.37Z"/></clipPath><clipPath id="clip-path-58"><path class="cls-1" d="M544.86-548.22H540.2L545-535.58h5.26l4.93-12.64h-4.54L547.74-540Zm-13.47,5c0-1.89.39-2.94,2.22-2.94s2.27.83,2.27,2.94Zm2.39,5.65c-1.94,0-2.39-.83-2.39-3.16h8.7c0-5.6-1.33-7.93-6.31-7.93-5.43,0-6.9,1.89-6.9,6.75s2,7,6.6,7,6.21-1.66,6.32-4.26h-3.92C535.88-538.07,535.44-537.57,533.78-537.57Zm-11.7-10.7h-4.26v12.64h8.53v-3h-4.27Zm33.64,22.56v-31.2m0,31.2a33.49,33.49,0,0,0-7.76,2.8,38.77,38.77,0,0,0-15.79-3.49,40.25,40.25,0,0,0-17.35,4l-7-34.51h47.93"/></clipPath><clipPath id="clip-path-59"><path class="cls-1" d="M573.57-520.57c0-.16-.23-.28-.78-.28v.61c.39,0,.78,0,.78-.32Zm-1.28,1.66v-2.42H573c.66,0,1.16.16,1.16.77,0,.28-.17.5-.55.72l.44.94h-.44l-.39-.72h-.39v.71Zm2.88-1.21a2.05,2.05,0,0,0-2-2,2.05,2.05,0,0,0-2,2,2.07,2.07,0,0,0,2,2,2,2,0,0,0,1.48-.55A2,2,0,0,0,575.17-520.12Zm-2-2.43a2.43,2.43,0,0,1,2.24,1.17,2.45,2.45,0,0,1,0,2.53,2.43,2.43,0,0,1-2.24,1.17,2.44,2.44,0,0,1-1.73-.71,2.39,2.39,0,0,1-.71-1.73A2.45,2.45,0,0,1,573.12-522.55Zm-3.43-17.07H565.2c0,3,1.66,4.26,6.54,4.26,4.54,0,6.37-1,6.37-4.15,0-5-8.42-2.5-8.42-5.49,0-.72.83-1.33,1.94-1.33a1.73,1.73,0,0,1,1.88,1.55h4.27c-.06-2.66-1.61-3.88-5.88-3.88-4.43,0-6.48,1.22-6.48,4,0,5.49,8.42,2.55,8.42,5.66,0,.94-.5,1.38-1.71,1.38C570.68-537.63,569.8-538.18,569.69-539.62Zm-5.93-7.87-.22,1.27c1.33-.83,1.88-1.55,1.88-2.49a1.57,1.57,0,0,0-.51-1.22,1.56,1.56,0,0,0-1.26-.39,1.49,1.49,0,0,0-1.2.36,1.51,1.51,0,0,0-.52,1.14C561.93-547.66,562.7-547.49,563.76-547.49Zm-7.32-.83v12.69h4.16v-12.69Zm-.77-8.59H588l-7.59,34.52c-5-2.88-9.53-4.1-16.12-4.1a45,45,0,0,0-8.59.78"/></clipPath><clipPath id="clip-path-60"><rect class="cls-1" x="672.11" y="-531.65" width="5.64" height="6.9"/></clipPath><clipPath id="clip-path-61"><path class="cls-1" d="M680.17-522.32H669.69v-11.76h10.52Zm-18.21,0h-9.25l.51-2.49h6.86l1.43-6.74h-4.44l-.93,4.39h-2.43l1.41-6.87h9.29Zm-8.08-18.59h5.7v-6.91h-4.42v-2.41H662v9.32h2.39v2.44H653.88Zm15.86,0h10.45v2.43H669.74Zm1.14-9.36h8.06v2.43h-8.06Zm-23-5.26v38.47h38.39v-38.47Z"/></clipPath><clipPath id="clip-path-62"><path class="cls-1" d="M719-532a1.6,1.6,0,0,0-1.6,1.61v4a1.62,1.62,0,0,0,.76,1.5,1.63,1.63,0,0,0,1.68,0,1.61,1.61,0,0,0,.77-1.5v-4A1.62,1.62,0,0,0,719-532Z"/></clipPath><clipPath id="clip-path-63"><path class="cls-1" d="M698.34-532a1.59,1.59,0,0,0-1.13.47,1.58,1.58,0,0,0-.46,1.14v4a1.59,1.59,0,0,0,1.59,1.59,1.59,1.59,0,0,0,1.59-1.59v-4A1.61,1.61,0,0,0,698.34-532Z"/></clipPath><clipPath id="clip-path-64"><path class="cls-1" d="M723.05-526.42a4.09,4.09,0,0,1-4.09,4.09,4.09,4.09,0,0,1-4.09-4.09v-4a4.09,4.09,0,0,1,4.09-4.09,4.09,4.09,0,0,1,4.09,4.09Zm-9.37-11.7H711.3l-3.25-6.79v6.82h-2.46v-12.14h2.46l3.25,6.88v-6.88h2.39Zm0,15.75h-8.09v-12.14H708v9.76h5.67ZM700-519.91l-.83-2.5a4.13,4.13,0,0,1-.78.08,4.08,4.08,0,0,1-4-4.09v-4a4,4,0,0,1,2-3.51,4.07,4.07,0,0,1,4,0,4,4,0,0,1,2,3.51v4a4.12,4.12,0,0,1-1.19,2.89l1.19,3.62Zm-5.64-30.36h2.45v8.09a1.59,1.59,0,0,0,1.59,1.59,1.59,1.59,0,0,0,1.59-1.59v-8.05h2.46v8.13a4,4,0,0,1-4,4h-.14a4,4,0,0,1-4-4Zm23.42,0h2.42v12.15h-2.42Zm-28.25-5.26v38.47h38.39v-38.47Z"/></clipPath><clipPath id="clip-path-65"><path class="cls-1" d="M803-531.16a.7.7,0,0,1-.52-.21.7.7,0,0,1-.22-.51.74.74,0,0,1,.74-.74.74.74,0,0,1,.74.74.7.7,0,0,1-.22.51A.73.73,0,0,1,803-531.16Zm0-1.75a1,1,0,0,0-.94,1,1,1,0,0,0,1,1,1,1,0,0,0,1-1,1,1,0,0,0-.32-.73A1,1,0,0,0,803-532.91Z"/></clipPath><clipPath id="clip-path-66"><polygon class="cls-1" points="813.33 -536.49 808.16 -536.49 808.75 -545.47 805.4 -536.49 800.6 -536.49 808.21 -556.78 813.31 -556.78 812.72 -547.68 816.14 -556.78 820.94 -556.78 813.33 -536.49"/></clipPath><clipPath id="clip-path-67"><polygon class="cls-1" points="813.95 -536.49 821.56 -556.78 826.36 -556.78 818.75 -536.49 813.95 -536.49"/></clipPath><clipPath id="clip-path-68"><path class="cls-1" d="M800.05-543.49c-6.71,7.88-13,18.35-7.45,23.17s12.18,1.91,16.79.07,55.6-24,55.6-24c.49-.24.4-.55-.22-.4l-55.5,15C802.26-527.63,794.26-531.91,800.05-543.49Z"/></clipPath><clipPath id="clip-path-69"><path class="cls-1" d="M803-532h-.13v-.26H803c.08,0,.18,0,.18.12S803.1-532,803-532Zm.17.18a.3.3,0,0,0,.2-.08.28.28,0,0,0,.07-.21c0-.27-.17-.34-.46-.34h-.42v1.11h.31v-.47l.26.47h.32Z"/></clipPath><clipPath id="clip-path-70"><path class="cls-1" d="M851.22-555.09a.73.73,0,0,1-.72-.74.73.73,0,0,1,.73-.72.73.73,0,0,1,.73.73.74.74,0,0,1-.22.52A.73.73,0,0,1,851.22-555.09Zm0-1.76a1,1,0,0,0-.94,1,1,1,0,0,0,1,1,1,1,0,0,0,1-1,1,1,0,0,0-.32-.73A1,1,0,0,0,851.22-556.85Z"/></clipPath><clipPath id="clip-path-71"><path class="cls-1" d="M851.23-555.91h-.16v-.25h.13c.08,0,.18,0,.18.11S851.32-555.91,851.23-555.91Zm.17.16a.3.3,0,0,0,.2-.08.28.28,0,0,0,.07-.21c0-.27-.17-.33-.46-.33h-.42v1.1h.28v-.47l.26.47h.32Z"/></clipPath><clipPath id="clip-path-72"><path class="cls-1" d="M832.6-537.84l-.31-10.58,7.26-8Zm15.46-15.56,1.29-3.38H834.72l-5,6.08,2.32-6.08h-4.89l-7.55,20.29h4.8l3.22-8.49.26,8.49H842.6l1.4-3.91h-5.63l1.83-4.92h4.62l1.42-3.78h-4.62l1.58-4.27Z"/></clipPath><clipPath id="clip-path-73"><path class="cls-2" d="M282.7-697.1l3.37,0c12.31.85,27.08,12.2,27.08,28.88v13.07h-12v-13.07c0-8.14-6.32-14.87-15.13-15.46H282.7Z"/></clipPath><clipPath id="clip-path-74"><path class="cls-2" d="M282.7-682.41H286c8.54,0,14,8.35,13.82,14.15v13.06h-9.16v-10.54c-.13-2.65-1.74-4.1-4.68-4.15H282.7Z"/></clipPath><clipPath id="clip-path-75"><polygon class="cls-2" points="239.58 -655.54 239.58 -667.95 248.11 -667.95 248.11 -664.82 243.2 -664.82 243.2 -662.91 247.11 -662.91 247.11 -659.91 243.2 -659.91 243.2 -655.54 239.58 -655.54"/></clipPath><clipPath id="clip-path-76"><path class="cls-2" d="M267.7-660.35h3.43a5.48,5.48,0,0,1-1.57,3.8,5.34,5.34,0,0,1-3.83,1.35,5.44,5.44,0,0,1-4.27-1.71,7,7,0,0,1-1.58-4.82,7,7,0,0,1,1.54-4.79,5.35,5.35,0,0,1,4.2-1.75,5.47,5.47,0,0,1,3.88,1.36,5.32,5.32,0,0,1,1.57,3.71H267.6a2.21,2.21,0,0,0-.56-1.43,1.83,1.83,0,0,0-1.35-.49,1.76,1.76,0,0,0-1.6.86,4.9,4.9,0,0,0-.53,2.58,4.65,4.65,0,0,0,.56,2.56,1.87,1.87,0,0,0,1.67.87,1.75,1.75,0,0,0,1.33-.53,2.49,2.49,0,0,0,.58-1.52Z"/></clipPath><clipPath id="clip-path-77"><polygon class="cls-2" points="272.66 -655.54 272.66 -667.95 281.67 -667.95 281.67 -664.97 276.28 -664.97 276.28 -663.32 280.84 -663.32 280.84 -660.48 276.28 -660.48 276.28 -658.56 281.9 -658.56 281.9 -655.54 272.66 -655.54"/></clipPath><clipPath id="clip-path-78"><path class="cls-2" d="M222.61-669.83v-12.59h3.45l3.17,5.86a4,4,0,0,1,.31.7c.11.3.23.66.35,1.09a2.84,2.84,0,0,0-.07-.74,4.72,4.72,0,0,1,0-1v-5.91h3.46v12.59H229.8l-3.17-5.81a3.94,3.94,0,0,1-.32-.73c-.12-.31-.23-.67-.35-1.08,0,.23.06.46.07.7s0,.58,0,1v5.9Z"/></clipPath><clipPath id="clip-path-79"><polygon class="cls-2" points="262.73 -669.83 262.73 -679.1 259.47 -679.1 259.47 -682.42 269.55 -682.42 269.55 -679.1 266.36 -679.1 266.36 -669.83 262.73 -669.83"/></clipPath><clipPath id="clip-path-80"><polygon class="cls-2" points="270.8 -669.83 270.8 -682.42 274.43 -682.42 274.43 -678.15 277.82 -678.15 277.82 -682.42 281.45 -682.42 281.45 -669.83 277.82 -669.83 277.82 -674.71 274.43 -674.71 274.43 -669.83 270.8 -669.83"/></clipPath><clipPath id="clip-path-81"><polygon class="cls-2" points="251.85 -683.73 251.85 -693.79 248.6 -693.79 248.6 -697.39 258.65 -697.39 258.65 -693.79 255.47 -693.79 255.47 -683.73 251.85 -683.73"/></clipPath><clipPath id="clip-path-82"><polygon class="cls-2" points="259.89 -683.73 259.89 -697.39 263.52 -697.39 263.52 -692.75 266.9 -692.75 266.9 -697.39 270.52 -697.39 270.52 -683.73 266.9 -683.73 266.9 -689.03 263.52 -689.03 263.52 -683.73 259.89 -683.73"/></clipPath><clipPath id="clip-path-83"><polygon class="cls-2" points="272.65 -683.73 272.65 -697.39 281.67 -697.39 281.67 -694.12 276.28 -694.12 276.28 -692.3 280.84 -692.3 280.84 -689.17 276.28 -689.17 276.28 -687.05 281.9 -687.05 281.9 -683.73 272.65 -683.73"/></clipPath><clipPath id="clip-path-84"><path class="cls-2" d="M252.38-659.75l1.15-4.29,1.13,4.29Zm3-8.16h-3.67l-4,12.41h3.56l.44-1.65h3.59l.42,1.65h3.59Z"/></clipPath><clipPath id="clip-path-85"><path class="cls-2" d="M242.48-673.48a2.12,2.12,0,0,1-1.68.83,2.09,2.09,0,0,1-1.67-.83,6.65,6.65,0,0,1,0-5.25,2.07,2.07,0,0,1,1.67-.84,2.1,2.1,0,0,1,1.68.84,5,5,0,0,1,.53,2.64A5,5,0,0,1,242.48-673.48Zm2.63-7.49a5.48,5.48,0,0,0-4.3-1.77,5.46,5.46,0,0,0-4.3,1.77,7.09,7.09,0,0,0-1.58,4.86,7.06,7.06,0,0,0,1.58,4.85,5.46,5.46,0,0,0,4.3,1.78,5.44,5.44,0,0,0,4.3-1.78,7.07,7.07,0,0,0,1.57-4.85A7.08,7.08,0,0,0,245.11-681Z"/></clipPath><clipPath id="clip-path-86"><path class="cls-1" d="M448.49-659.23h-3.61a2.37,2.37,0,0,0-.52-1.25,2.66,2.66,0,0,0-1.93-.58,2.94,2.94,0,0,0-1.85.44,1.13,1.13,0,0,0-.4.92c0,.54.75,1,2.25,1.3,1.7.37,2.92.7,3.67.95l.5.2a3.47,3.47,0,0,1,2.28,3.26,4.14,4.14,0,0,1-2.21,3.89,5.77,5.77,0,0,1-.56.27,8.31,8.31,0,0,1-3.3.62,9.18,9.18,0,0,1-4.52-1,4.39,4.39,0,0,1-1.62-1.58,4.46,4.46,0,0,1-.54-2.23h3.75a1.77,1.77,0,0,0,.69,1.49,3.87,3.87,0,0,0,2.33.54,2.86,2.86,0,0,0,1.86-.51,1.2,1.2,0,0,0,.47-.92c0-.58-.74-1-2.21-1.36a24.61,24.61,0,0,1-4.14-1.13,3.44,3.44,0,0,1-2.25-3.3,4.28,4.28,0,0,1,1.18-3.07,5.77,5.77,0,0,1,4.43-1.57,9.44,9.44,0,0,1,3.89.69l.23.13a4,4,0,0,1,1.59,1.52A4.62,4.62,0,0,1,448.49-659.23Z"/></clipPath><clipPath id="clip-path-87"><path class="cls-1" d="M446.88-668.35a.6.6,0,0,1-.08.78.68.68,0,0,1-.48.21.82.82,0,0,1,.2.12l.34.46.27.46h-.44l-.21-.37a2,2,0,0,0-.35-.5l-.3-.09h-.22v1h-.37v-2.36h.93a1.74,1.74,0,0,1,.45.06A.58.58,0,0,1,446.88-668.35Zm-.3.38a.31.31,0,0,0,0-.19.31.31,0,0,0-.16-.12h-.8v.69h.56a.52.52,0,0,0,.34-.1A.35.35,0,0,0,446.58-668Z"/></clipPath><clipPath id="clip-path-88"><path class="cls-1" d="M448.28-667.51a2.25,2.25,0,0,1-.28,1.07,2.07,2.07,0,0,1-.79.79,2.21,2.21,0,0,1-1.06.28,2.18,2.18,0,0,1-1.06-.28,1.94,1.94,0,0,1-.79-.79,2.25,2.25,0,0,1-.28-1.07,2.15,2.15,0,0,1,.28-1.08,1.82,1.82,0,0,1,.81-.79,2.36,2.36,0,0,1,1-.29,2.1,2.1,0,0,1,1,.29,1.85,1.85,0,0,1,.8.79A2.09,2.09,0,0,1,448.28-667.51Zm-.35,0a1.86,1.86,0,0,0-.24-.9,1.7,1.7,0,0,0-.67-.66,1.93,1.93,0,0,0-.87-.24,1.86,1.86,0,0,0-.87.24,1.64,1.64,0,0,0-.67.66,1.76,1.76,0,0,0-.24.9,1.75,1.75,0,0,0,.24.89,1.61,1.61,0,0,0,.66.66,1.81,1.81,0,0,0,.88.23A1.84,1.84,0,0,0,447-666a1.79,1.79,0,0,0,.65-.66A1.85,1.85,0,0,0,447.93-667.51Z"/></clipPath><clipPath id="clip-path-89"><polygon class="cls-1" points="427.28 -684.95 437.42 -668.06 427.28 -668.06 421.14 -668.06 411.46 -684.19 404.13 -696.4 411.46 -700.81 416.08 -703.59 427.28 -684.95"/></clipPath><clipPath id="clip-path-90"><path class="cls-1" d="M431.27-655.57v-1.53a4,4,0,0,0-4-3.26,4,4,0,0,0-4,4,4,4,0,0,0,4,4A4.06,4.06,0,0,0,431.27-655.57Zm3.37-.76v6.92h-3.37v-.76a7.27,7.27,0,0,1-4,1.17,7.34,7.34,0,0,1-7.07-7.34,7.33,7.33,0,0,1,7.07-7.33,7.2,7.2,0,0,1,4,1.18v-.81h3.37Z"/></clipPath><clipPath id="clip-path-91"><path class="cls-1" d="M415.45-655.57v-1.53a4,4,0,0,0-3.95-3.26,4,4,0,0,0-4,4,4,4,0,0,0,4,4A4.05,4.05,0,0,0,415.45-655.57Zm3.37-.76v6.92h-3.37v-.76A7.3,7.3,0,0,1,411.5-649a7.34,7.34,0,0,1-7.07-7.34,7.33,7.33,0,0,1,7.07-7.33,7.22,7.22,0,0,1,3.95,1.18v-5.57h3.37Z"/></clipPath><clipPath id="clip-path-92"><polygon class="cls-1" points="411.46 -674.7 415.43 -668.06 411.46 -668.06 399.16 -668.06 390.13 -683.1 389.73 -683.75 390.13 -683.99 401.69 -690.95 411.46 -674.7"/></clipPath><clipPath id="clip-path-93"><rect class="cls-1" x="399.18" y="-663.67" width="3.67" height="14.26"/></clipPath><clipPath id="clip-path-94"><rect class="cls-1" x="399.18" y="-667.99" width="3.67" height="3.22"/></clipPath><clipPath id="clip-path-95"><path class="cls-1" d="M394.13-655.57v-1.53a4,4,0,0,0-4-3.26,4,4,0,0,0-4,4,4,4,0,0,0,4,4A4.06,4.06,0,0,0,394.13-655.57Zm3.37-.76v6.92h-3.37v-.76a7.27,7.27,0,0,1-4,1.17,7.34,7.34,0,0,1-7.07-7.34,7.33,7.33,0,0,1,7.07-7.33,7.2,7.2,0,0,1,4,1.18v-5.57h3.37Z"/></clipPath><clipPath id="clip-path-96"><polygon class="cls-1" points="390.13 -673.62 393.46 -668.06 390.13 -668.06 377.18 -668.06 375.35 -671.11 387.31 -678.29 390.13 -673.62"/></clipPath><clipPath id="clip-path-97"><path class="cls-1" d="M378.14-655.57v-1.53a4,4,0,0,0-4-3.26,4,4,0,0,0-4,4,4,4,0,0,0,4,4A4.06,4.06,0,0,0,378.14-655.57Zm3.37-.76v6.92h-3.37v-.76a7.27,7.27,0,0,1-4,1.17,7.34,7.34,0,0,1-7.07-7.34,7.33,7.33,0,0,1,7.07-7.33,7.2,7.2,0,0,1,4,1.18v-.81h3.37Z"/></clipPath><clipPath id="clip-path-98"><path class="cls-1" d="M544.86-688.22H540.2L545-675.58h5.26l4.93-12.64h-4.54L547.74-680Zm-13.47,5c0-1.89.39-2.94,2.22-2.94s2.27.83,2.27,2.94Zm2.39,5.65c-1.94,0-2.39-.83-2.39-3.16h8.7c0-5.6-1.33-7.93-6.31-7.93-5.43,0-6.9,1.89-6.9,6.75s2,7,6.6,7,6.21-1.66,6.32-4.26h-3.92C535.88-678.07,535.44-677.57,533.78-677.57Zm-11.7-10.7h-4.26v12.64h8.53v-3h-4.27Zm33.64,22.56v-31.2m0,31.2a33.49,33.49,0,0,0-7.76,2.8,38.77,38.77,0,0,0-15.79-3.49,40.25,40.25,0,0,0-17.35,4l-7-34.51h47.93"/></clipPath><clipPath id="clip-path-99"><path class="cls-1" d="M573.57-660.57c0-.16-.23-.28-.78-.28v.61c.39,0,.78,0,.78-.32Zm-1.28,1.66v-2.42H573c.66,0,1.16.16,1.16.77,0,.28-.17.5-.55.72l.44.94h-.44l-.39-.72h-.39v.71Zm2.88-1.21a2.05,2.05,0,0,0-2-2,2.05,2.05,0,0,0-2,2,2.07,2.07,0,0,0,2,2,2,2,0,0,0,1.48-.55A2,2,0,0,0,575.17-660.12Zm-2-2.43a2.43,2.43,0,0,1,2.24,1.17,2.45,2.45,0,0,1,0,2.53,2.43,2.43,0,0,1-2.24,1.17,2.44,2.44,0,0,1-1.73-.71,2.39,2.39,0,0,1-.71-1.73A2.45,2.45,0,0,1,573.12-662.55Zm-3.43-17.07H565.2c0,3,1.66,4.26,6.54,4.26,4.54,0,6.37-1,6.37-4.15,0-5-8.42-2.5-8.42-5.49,0-.72.83-1.33,1.94-1.33a1.73,1.73,0,0,1,1.88,1.55h4.27c-.06-2.66-1.61-3.88-5.88-3.88-4.43,0-6.48,1.22-6.48,4,0,5.49,8.42,2.55,8.42,5.66,0,.94-.5,1.38-1.71,1.38C570.68-677.63,569.8-678.18,569.69-679.62Zm-5.93-7.87-.22,1.27c1.33-.83,1.88-1.55,1.88-2.49a1.57,1.57,0,0,0-.51-1.22,1.56,1.56,0,0,0-1.26-.39,1.49,1.49,0,0,0-1.2.36,1.51,1.51,0,0,0-.52,1.14C561.93-687.66,562.7-687.49,563.76-687.49Zm-7.32-.83v12.69h4.16v-12.69Zm-.77-8.59H588l-7.59,34.52c-5-2.88-9.53-4.1-16.12-4.1a45,45,0,0,0-8.59.78"/></clipPath><clipPath id="clip-path-100"><rect class="cls-1" x="672.11" y="-671.65" width="5.64" height="6.9"/></clipPath><clipPath id="clip-path-101"><path class="cls-1" d="M680.17-662.32H669.69v-11.76h10.52Zm-18.21,0h-9.25l.51-2.49h6.86l1.43-6.74h-4.44l-.93,4.39h-2.43l1.41-6.87h9.29Zm-8.08-18.59h5.7v-6.91h-4.42v-2.41H662v9.32h2.39v2.44H653.88Zm15.86,0h10.45v2.43H669.74Zm1.14-9.36h8.06v2.43h-8.06Zm-23-5.26v38.47h38.39v-38.47Z"/></clipPath><clipPath id="clip-path-102"><path class="cls-1" d="M719-672a1.6,1.6,0,0,0-1.6,1.61v4a1.62,1.62,0,0,0,.76,1.5,1.63,1.63,0,0,0,1.68,0,1.61,1.61,0,0,0,.77-1.5v-4A1.62,1.62,0,0,0,719-672Z"/></clipPath><clipPath id="clip-path-103"><path class="cls-1" d="M698.34-672a1.59,1.59,0,0,0-1.13.47,1.58,1.58,0,0,0-.46,1.14v4a1.59,1.59,0,0,0,1.59,1.59,1.59,1.59,0,0,0,1.59-1.59v-4A1.61,1.61,0,0,0,698.34-672Z"/></clipPath><clipPath id="clip-path-104"><path class="cls-1" d="M723.05-666.42a4.09,4.09,0,0,1-4.09,4.09,4.09,4.09,0,0,1-4.09-4.09v-4a4.09,4.09,0,0,1,4.09-4.09,4.09,4.09,0,0,1,4.09,4.09Zm-9.37-11.7H711.3l-3.25-6.79v6.82h-2.46v-12.14h2.46l3.25,6.88v-6.88h2.39Zm0,15.75h-8.09v-12.14H708v9.76h5.67ZM700-659.91l-.83-2.5a4.13,4.13,0,0,1-.78.08,4.08,4.08,0,0,1-4-4.09v-4a4,4,0,0,1,2-3.51,4.07,4.07,0,0,1,4,0,4,4,0,0,1,2,3.51v4a4.12,4.12,0,0,1-1.19,2.89l1.19,3.62Zm-5.64-30.36h2.45v8.09a1.59,1.59,0,0,0,1.59,1.59,1.59,1.59,0,0,0,1.59-1.59v-8.05h2.46v8.13a4,4,0,0,1-4,4h-.14a4,4,0,0,1-4-4Zm23.42,0h2.42v12.15h-2.42Zm-28.25-5.26v38.47h38.39v-38.47Z"/></clipPath><clipPath id="clip-path-105"><path class="cls-1" d="M803-671.16a.7.7,0,0,1-.52-.21.7.7,0,0,1-.22-.51.74.74,0,0,1,.74-.74.74.74,0,0,1,.74.74.7.7,0,0,1-.22.51A.73.73,0,0,1,803-671.16Zm0-1.75a1,1,0,0,0-.94,1,1,1,0,0,0,1,1,1,1,0,0,0,1-1,1,1,0,0,0-.32-.73A1,1,0,0,0,803-672.91Z"/></clipPath><clipPath id="clip-path-106"><polygon class="cls-1" points="813.33 -676.49 808.16 -676.49 808.75 -685.47 805.4 -676.49 800.6 -676.49 808.21 -696.78 813.31 -696.78 812.72 -687.68 816.14 -696.78 820.94 -696.78 813.33 -676.49"/></clipPath><clipPath id="clip-path-107"><polygon class="cls-1" points="813.95 -676.49 821.56 -696.78 826.36 -696.78 818.75 -676.49 813.95 -676.49"/></clipPath><clipPath id="clip-path-108"><path class="cls-1" d="M800.05-683.49c-6.71,7.88-13,18.35-7.45,23.17s12.18,1.91,16.79.07,55.6-24,55.6-24c.49-.24.4-.55-.22-.4l-55.5,15C802.26-667.63,794.26-671.91,800.05-683.49Z"/></clipPath><clipPath id="clip-path-109"><path class="cls-1" d="M803-672h-.13v-.26H803c.08,0,.18,0,.18.12S803.1-672,803-672Zm.17.18a.3.3,0,0,0,.2-.08.28.28,0,0,0,.07-.21c0-.27-.17-.34-.46-.34h-.42v1.11h.31v-.47l.26.47h.32Z"/></clipPath><clipPath id="clip-path-110"><path class="cls-1" d="M851.22-695.09a.73.73,0,0,1-.72-.74.73.73,0,0,1,.73-.72.73.73,0,0,1,.73.73.74.74,0,0,1-.22.52A.73.73,0,0,1,851.22-695.09Zm0-1.76a1,1,0,0,0-.94,1,1,1,0,0,0,1,1,1,1,0,0,0,1-1,1,1,0,0,0-.32-.73A1,1,0,0,0,851.22-696.85Z"/></clipPath><clipPath id="clip-path-111"><path class="cls-1" d="M851.23-695.91h-.16v-.25h.13c.08,0,.18,0,.18.11S851.32-695.91,851.23-695.91Zm.17.16a.3.3,0,0,0,.2-.08.28.28,0,0,0,.07-.21c0-.27-.17-.33-.46-.33h-.42v1.1h.28v-.47l.26.47h.32Z"/></clipPath><clipPath id="clip-path-112"><path class="cls-1" d="M832.6-677.84l-.31-10.58,7.26-8Zm15.46-15.56,1.29-3.38H834.72l-5,6.08,2.32-6.08h-4.89l-7.55,20.29h4.8l3.22-8.49.26,8.49H842.6l1.4-3.91h-5.63l1.83-4.92h4.62l1.42-3.78h-4.62l1.58-4.27Z"/></clipPath></defs><title>patagonia</title><path class="cls-115" d="M33.32,71h-.73a2.31,2.31,0,0,0-2.38,2.29c0,1.07.33,2.29,1.72,2.29,1.23,0,1.47-1,1.47-2V71.16s.08-.16-.08-.16ZM70.59,82.94H68c-1.85-.22-3.45-.92-3.45-2.62C64.56,79.1,66,78.2,67.1,78c0,0,.32-.09,0-.09a15.16,15.16,0,0,0-3.36-.08.28.28,0,0,1-.24-.16c-.08-.17-.49-1.31-.57-1.39a.18.18,0,0,1,.08-.25,15.67,15.67,0,0,0,3.76-1.31c.41-.08,0-.16,0-.16-2.29-.41-4.58-2-4.58-4.66,0-3.84,3.19-5.56,6.21-5.56a19.13,19.13,0,0,1,2.95.32s.08.09.16-.08a4.38,4.38,0,0,1,.25-.9c.32-1,.81-1.39,2.29-1.39a3.18,3.18,0,0,1,.9.08s.16-.08.16.17a20.81,20.81,0,0,0-.57,2.12c-.08.25-.17.09-.17.09-.24-.17-.32-.25-.9-.17-.32,0-.49.25-.49.57,0,.58,2.62,1.4,2.62,4.5,0,4.17-3.84,5.07-7.2,5.89,0,0-.32.08,0,.08,2.21.25,6.79.82,6.79,3.68,0,2.41-2.69,3.34-4.6,3.6Zm-32-6.62h.65a.16.16,0,0,1,.16.16v1.31c0,.25-.24.16-.24.16H33.89s-.08,0-.08-.16a5.08,5.08,0,0,1-.24-.9c-.08-.33-.25,0-.25,0a6.12,6.12,0,0,1-3.76,1.47,4,4,0,0,1-4.33-4.09c0-3.1,2-4.82,4.41-4.82l3.76-.16v-.58c0-1.06-.57-1.55-1.8-1.55a3.42,3.42,0,0,0-3,1.47s0,.08-.16.08-1.48-.57-1.48-.57-.16,0-.08-.16,1.72-4.09,1.72-4.09,0-.17.08-.08a10.39,10.39,0,0,0,1.47.4.18.18,0,0,1,.08.25l-.16.33c-.08.32.08.16.08.16a8.78,8.78,0,0,1,3.19-.57c3.11,0,5.15,1.31,5.15,4.5v7.19s0,.25.09.25Zm.32-11a7.29,7.29,0,0,0,4.83-3.93s0-.08.16-.08,1.23.25,1.39.25.08.16.08.16a17.6,17.6,0,0,0-.16,2v1c0,.17.16.09.16.09h2.21c.16,0,.08.16.08.16s-.33,1.64-.33,1.8-.16.16-.16.16h-1.8c-.16,0-.16.08-.16.08V74.6a1,1,0,0,0,1.14,1.06,1.38,1.38,0,0,0,.82-.16s.16-.16.16,0,.5,1.23.58,1.39-.08.16-.08.16c-1.72,1.23-1.89,1.31-4.18,1.31-2.53,0-3.43-1.22-3.43-3.52V67s0-.08-.16-.08H38.88s-.08,0-.08-.16V65.52a.28.28,0,0,1,.08-.16Zm37.29,6c0-4.25,3.36-7,7.77-7s7.85,2.7,7.85,7c0,4.42-3.43,7-7.85,7s-7.77-2.61-7.77-7Zm5.07-1.88c0,2,.82,6.87,3.6,6.87,1.47,0,1.88-1.56,1.88-3,0-2-.81-6.87-3.68-6.87-1.8,0-1.8,2-1.8,3ZM107.33,78h-6.87a.08.08,0,0,1-.08-.08V76.48a.16.16,0,0,1,.16-.16h.82a.08.08,0,0,0,.08-.08V68.79c0-.81-.73-1.14-1.47-1.14a3.27,3.27,0,0,0-2.21,1,.28.28,0,0,0-.08.16v7.44s0,.09.08.09h.9s.09,0,.09.16v1.39c0,.08-.09.08-.09.08H91.79s-.08.08-.08-.16V76.48c0-.16.08-.16.08-.16h.74c.16,0,.08-.09.08-.09V67.49s.08-.17-.08-.17l-.74.25s-.08.08-.08-.08V66.1c0-.17.08-.09.08-.09l5.81-1.55s.16-.08.16.08v1.88c0,.25.09.08.09.08,1.39-1.06,2.78-2.12,4.66-2.12,3.51,0,4,2.37,4,3.84v8s-.09.08.08.08h.73s.08,0,.08.16v1.31c0,.25-.08.16-.08.16Zm7-13.49L108.48,66s-.08,0-.08.17v1.31c0,.16.16.08.16.08s.41-.08.73-.17c.17,0,.09.17.09.25v8.59s.08.08-.09.08h-.81s-.17,0-.17.16v1.39c0,.17.17.08.17.08h6.79c.16,0,.08-.16.08-.16V76.48c0-.16-.17-.16-.17-.16h-.65c-.16,0-.08-.08-.08-.08V64.54c0-.16-.17-.08-.17-.08Zm-2-4.09c1.14,0,2.45.33,2.45,1.72,0,1.63-2.21,2.29-3.6,2.29-1.14,0-1.88-.57-1.88-1.72,0-1.31,1.8-2.29,3-2.29ZM56.06,71H55.4A2.25,2.25,0,0,0,53,73.29c0,1.07.33,2.29,1.64,2.29s1.55-1,1.55-2V71.16a.16.16,0,0,0-.16-.16Zm5.31,5.32h.57c.25,0,.25.16.25.16v1.31c0,.25-.25.16-.25.16H56.71s-.08,0-.16-.16a4.37,4.37,0,0,1-.17-.9c-.08-.33-.24,0-.24,0a6.34,6.34,0,0,1-3.76,1.47c-2.54,0-4.42-1.55-4.42-4.09,0-3.1,2-4.9,4.5-4.9l3.68-.08s.08,0,.08-.17v-.41c0-1.06-.57-1.55-1.8-1.55a3.45,3.45,0,0,0-3,1.47.11.11,0,0,1-.16,0c-.16,0-1.55-.49-1.55-.49s-.08,0,0-.16,1.63-4.09,1.63-4.09,0-.17.17-.08a8.81,8.81,0,0,0,1.39.41.18.18,0,0,1,.08.24.86.86,0,0,1-.08.33c-.17.32.08.16.08.16a8.71,8.71,0,0,1,3.19-.57c3.11,0,5.15,1.31,5.15,4.5v7.19s-.08.25.08.25Zm5.4-8.43c0,1.48.82,5.48,2.86,5.48,1.06,0,1.47-.49,1.47-1.8,0-1.47-.9-5.47-2.94-5.47-1,0-1.39.49-1.39,1.79ZM68.9,78.61a3.24,3.24,0,0,0-.41,1.71c0,.66.32,1.4,1.14,1.4a.93.93,0,0,0,1.06-1c0-1.22-.73-1.63-1.63-2.2a.25.25,0,0,0-.16.08ZM123.44,71h-.65a2.25,2.25,0,0,0-2.37,2.29c0,1.07.32,2.29,1.63,2.29s1.56-1,1.56-2V71.16a.16.16,0,0,0-.17-.16Zm5.32,5.32h.65a.16.16,0,0,1,.17.16v1.31c0,.25-.25.16-.25.16H124.1s-.08,0-.17-.16a4.29,4.29,0,0,1-.16-.9c-.08-.33-.24,0-.24,0a6.34,6.34,0,0,1-3.77,1.47c-2.53,0-4.41-1.55-4.41-4.09,0-3.1,2-4.9,4.49-4.9l3.69-.08s.08,0,.08-.17v-.41c0-1.06-.58-1.55-1.8-1.55a3.44,3.44,0,0,0-3,1.47.11.11,0,0,1-.16,0,14.81,14.81,0,0,1-1.47-.49s-.17,0-.09-.16,1.64-4.09,1.64-4.09,0-.17.16-.08a9.48,9.48,0,0,0,1.39.41.28.28,0,0,1,.17.24l-.17.33c-.16.32.09.16.09.16a8.71,8.71,0,0,1,3.19-.57c3.1,0,5.15,1.31,5.15,4.5v7.19s0,.25.08.25ZM16.07,67.57v6.62c0,1.15.4,2.13,1.71,2.13,1.64,0,2.37-1,2.37-4,0-4.82-2.45-5.07-3.27-5.07l-.65.08a.3.3,0,0,0-.16.25Zm.08-2a6.26,6.26,0,0,1,3.35-1.22c3.19,0,5.72,2.61,5.72,6.46s-2.37,7.52-6.46,7.52a5.71,5.71,0,0,1-2.61-.49.08.08,0,0,0-.08.08v2.37s0,.17.16.17H17.7a.16.16,0,0,1,.16.16V82c0,.08-.16.16-.16.16H10.26S10,82.12,10,82h0v0h0v0h0v0h0v-1h0v-.06h0v0h0v0h0a.17.17,0,0,1,.17-.17h.65a.16.16,0,0,0,.17-.16V67.49c0-.16-.17-.08-.17-.08l-.65.16s-.17,0-.17-.16h0v0h0v0h0v-1h0v0h0v0h0v0h0a.17.17,0,0,1,.17-.17l5.72-1.47s.17-.08.17.08v1c0,.17.08.08.08.08Z"/><path class="cls-115" d="M126.39,61.11a1.8,1.8,0,0,1,3.6,0,1.8,1.8,0,1,1-3.6,0Zm3.35,0a1.55,1.55,0,0,0-1.55-1.56,1.6,1.6,0,1,0,0,3.19,1.56,1.56,0,0,0,1.55-1.63Zm-.65,1.06h-.33l-.57-1h-.41v1h-.25v-2h.82c.16,0,.41,0,.49.08a.58.58,0,0,1,.25.49c0,.32-.25.49-.66.49l.66,1Zm-1-1.15c.33,0,.74.09.74-.32s-.25-.41-.49-.41h-.57V61Z"/></svg>