<svg id="圖層_1" data-name="圖層 1" xmlns="http://www.w3.org/2000/svg" viewBox="0 0 140 140"><defs><style>.cls-1{fill:#b2b2b2;}</style></defs><title>puma</title><g id="_群組_" data-name="&lt;群組&gt;"><path id="_路徑_" data-name="&lt;路徑&gt;" class="cls-1" d="M73.82,46.81c-.32,0-.62,1.23-1.25,1.86-.47.43-1,.4-1.31.95-.11.22-.08.55-.22.9-.25.68-1.15.74-1.15,1.48s.74,1,1.39,1.5.55.76,1.18,1,1.31-.41,2-.19,1.12.3,1.26.87,0,1.39-.71,1.28a7.68,7.68,0,0,0-2.51-.24c-1.51.16-3.23.65-3.42,2.35a2,2,0,0,0,2.19,1.82c.76-.16.41-1.06.82-1.5s3.71,2,6.63,2a3.79,3.79,0,0,0,3.06-1.26c.08-.08.19-.22.32-.25a.88.88,0,0,1,.41.2c2.35,1.88,4.12,5.67,12.78,5.73A5.94,5.94,0,0,1,99,66.9a10.08,10.08,0,0,1,2.18,3.85A20.57,20.57,0,0,0,106,77.49c.13.13,2.07,1.64,2.21,1.75a1,1,0,0,1,.11.54c-.06,1.45-.28,5.6,2.83,5.79.77,0,.58-.49.58-.88a4.33,4.33,0,0,1,.24-2.18c.52-1-1.12-1.5-1.06-3.71,0-1.64-1.37-1.37-2-2.62a3.36,3.36,0,0,1-.73-2c.16-5-1.07-8.3-1.67-9.12-.46-.6-.87-.85-.44-1.15a8.13,8.13,0,0,0,3.2-3.3c1.39-3.25,2.62-6.2,4.34-7.51a15.47,15.47,0,0,1,1.77-1.2,11.12,11.12,0,0,0,2.89-1.66c.74-.71,1.31-2.21.6-3.11-.87-1.12-2.37-.22-3,.16-4.78,2.84-5.49,7.83-7.13,10.7-1.31,2.29-3.46,4-5.37,4.12a9.5,9.5,0,0,1-4.53-.87,22.21,22.21,0,0,1-6.28-4.15c-1-.77-8.82-8.46-15.18-8.76,0,0-.79-1.59-1-1.61-.46-.06-.93.93-1.28,1.06s-.85-1-1.18-1"/><path id="_路徑_2" data-name="&lt;路徑&gt;" class="cls-1" d="M45.93,92.64a1.12,1.12,0,0,1-1.09-1.12V71.76H38.31V93.54a2,2,0,0,0,1.94,1.94H51.63a2,2,0,0,0,1.94-1.94V71.76H47.05V91.52a1.12,1.12,0,0,1-1.12,1.12"/><path id="_路徑_3" data-name="&lt;路徑&gt;" class="cls-1" d="M67.74,71.76H57.88a2.13,2.13,0,0,0-2.13,2.13V95.48h6.53V75.66a1.09,1.09,0,0,1,1.09-1.09,1.11,1.11,0,0,1,1.12,1.06V95.48H71V75.63a1.08,1.08,0,0,1,1.1-1.06,1.09,1.09,0,0,1,1.09,1.09V95.48h6.52V73.89a2.13,2.13,0,0,0-2.13-2.13H67.74"/><path id="_複合路徑_" data-name="&lt;複合路徑&gt;" class="cls-1" d="M34,89.53H27.39v6H20.87V71.76H34a2.11,2.11,0,0,1,2.1,2.13V87.37A2.14,2.14,0,0,1,34,89.53ZM29.61,75.71a1.12,1.12,0,0,0-1.1-1.11H27.39v12h1.12a1.09,1.09,0,0,0,1.1-1.11V75.71"/><path id="_複合路徑_2" data-name="&lt;複合路徑&gt;" class="cls-1" d="M90.66,95.5v-6H88.45v6H82V73.91a2.13,2.13,0,0,1,2.13-2.13h11a2.13,2.13,0,0,1,2.12,2.13V95.5Zm0-8.9V75.69a1.11,1.11,0,0,0-2.21,0V86.63h2.21"/><path id="_複合路徑_3" data-name="&lt;複合路徑&gt;" class="cls-1" d="M100.6,94.78H101v-.84h.3a1.28,1.28,0,0,1,.41,0c.14.08.19.25.19.49v.3h.36v0a.17.17,0,0,0,0-.1v-.33a.54.54,0,0,0-.11-.33.53.53,0,0,0-.36-.22.57.57,0,0,0,.3-.11.44.44,0,0,0,.22-.41.54.54,0,0,0-.33-.54,1.44,1.44,0,0,0-.57-.08h-.74l0,2.15Zm1.06-1.14a1.31,1.31,0,0,1-.35,0H101v-.76h.33a.92.92,0,0,1,.46.08c.11,0,.14.16.14.3a.36.36,0,0,1-.25.33m1.09-1.29a1.92,1.92,0,0,0-2.73,0,1.89,1.89,0,0,0-.57,1.37,1.79,1.79,0,0,0,.57,1.36,1.91,1.91,0,0,0,1.37.57,2,2,0,0,0,1.94-1.93,1.86,1.86,0,0,0-.58-1.37m-.19.19a1.59,1.59,0,0,1,.49,1.18,1.65,1.65,0,0,1-.49,1.2,1.64,1.64,0,0,1-2.34,0,1.66,1.66,0,0,1-.5-1.2,1.66,1.66,0,0,1,2.84-1.18"/></g></svg>