<svg id="圖層_1" data-name="圖層 1" xmlns="http://www.w3.org/2000/svg" viewBox="0 0 140 140"><defs><style>.cls-1{fill:gray;}</style></defs><title>eclat</title><path class="cls-1" d="M36.41,80v5.59H16.9V56.76H36.35V62.7c-3.39,0-6.64.07-9.9,0-1.59,0-2.21.45-2,2.06.11,1.1,0,2.23,0,3.47H35v6.17H24.42a27.62,27.62,0,0,0,.08,4.41c.08.49,1.1,1.12,1.71,1.14C29.54,80,32.88,80,36.41,80Z"/><path class="cls-1" d="M103.46,85.61H96.22c0-4,0-7.85,0-11.74,0-3.22-1.46-4.68-4.46-4.79s-4.58,1.07-4.8,3.9c-.47,6,.94,7.41,7.42,6.92-1.8,4.47-5.31,6.52-9.14,5.3-3.41-1.08-4.94-3.85-5.41-7a26.18,26.18,0,0,1,.19-7.8c.72-4.37,3.52-6.91,8-7.11a42.55,42.55,0,0,1,9.31.41c3.58.66,6,4.05,6.13,8.26C103.59,76.41,103.46,80.9,103.46,85.61Z"/><path class="cls-1" d="M123.1,80v5.41c-6.34,1-10.82.17-13-4.5a8.78,8.78,0,0,1-1-3.43c-.09-6.83,0-13.66,0-20.64h7.25c0,1.66,0,3.27,0,4.88,0,1.27.44,1.83,1.75,1.76,1.48-.08,3,0,4.58,0v5.66c-1.53,0-3.06,0-4.6,0-1.14,0-1.78.37-1.71,1.59a54.38,54.38,0,0,0,.38,5.71c.41,2.5,1.71,3.5,4.2,3.6C121.59,80,122.29,80,123.1,80Z"/><path class="cls-1" d="M60.73,63.45v5.64c-2,0-4,.13-5.93,0-6.17-.5-6.34,3.07-6,7.19.24,2.62,1.61,3.66,4.3,3.69,2.47,0,4.94,0,7.53,0v5.94c-4.58-.22-9.27-.1-13.82-.8-2.8-.43-4.31-3.07-4.88-5.87-.82-4-1-8,.92-11.83a6.62,6.62,0,0,1,5.7-3.88C52.55,63.31,56.54,63.45,60.73,63.45Z"/><path class="cls-1" d="M73.86,85.6h-7V56.75h7Z"/></svg>