<svg id="圖層_1" data-name="圖層 1" xmlns="http://www.w3.org/2000/svg" viewBox="0 0 140 140"><defs><style>.cls-1{fill:gray;}</style></defs><title>evertex</title><path class="cls-1" d="M112.73,75.55H101.3a2.58,2.58,0,0,0,1.48,2.75c1.58.76,2.88.11,4.06-1.06l5.57.54a6.83,6.83,0,0,1-4.52,3.9,15,15,0,0,1-6.47.27c-4-.64-6.35-3.71-6.3-7.94a7.49,7.49,0,0,1,6.6-7.73,15.23,15.23,0,0,1,4.62,0c3.76.59,6,2.94,6.38,6.77A5.66,5.66,0,0,1,112.73,75.55Zm-6-2.87c-.26-2.21-1.1-3.07-2.81-3s-2.45,1-2.56,3Z"/><path class="cls-1" d="M19.4,77.23l5.57.56a6.84,6.84,0,0,1-4.37,3.84A14.87,14.87,0,0,1,14,82c-4-.65-6.39-3.8-6.32-7.94a7.55,7.55,0,0,1,6.62-7.73,14.91,14.91,0,0,1,4.62,0c4.48.72,6.83,4,6.43,9.17H13.89a2.53,2.53,0,0,0,1.42,2.82C16.88,79.06,18.19,78.45,19.4,77.23Zm-.22-4.53c-.12-2.17-1-3.12-2.77-3s-2.5,1.16-2.47,3Z"/><path class="cls-1" d="M119.46,74.12l-5.9-7.77h6.92l2.57,3.19,2.67-3.21h6.43l-5.87,7.48,6.07,8h-6.86c-1-.88-1.68-2.26-2.78-3.36-1.18,1-1.83,2.36-3,3.42h-6.29Z"/><path class="cls-1" d="M44,66.22c-2.27,5.42-4.4,10.51-6.53,15.62a38.09,38.09,0,0,1-5.25.08L25.88,66.34H32l2.77,9.14.3.08L38,66.4C39.92,66.09,41.79,66.34,44,66.22Z"/><path class="cls-1" d="M82,66.35h2.14v-3A57.4,57.4,0,0,1,90,60.46v5.89h3l0,4.12H90a38.17,38.17,0,0,0,.17,6.93c.36,1,2.77.34,2.77.34l.4,3.78a11.75,11.75,0,0,1-6.24.39c-1.83-.35-2.83-1.6-3-3.68-.11-1.82,0-3.66,0-5.48,0-.62,0-2.28,0-2.28H82Z"/><path class="cls-1" d="M47.11,77.93a18.73,18.73,0,0,1,5.61-4.53c2,2.16,5.27,1.15,5.59-1.57l7.18-.34c.8,3.49-1.82,7.84-5.71,9.67A10.28,10.28,0,0,1,47.11,77.93Z"/><path class="cls-1" d="M68.34,66.34h5.17c.45.52.13,1.11.5,1.7.74-1,1.47-2,2.77-2.11a4.8,4.8,0,0,1,3.32.78,4.67,4.67,0,0,1-.66,2.05c-.27.69-.58,1.36-.83,1.95-.44.27-.76,0-1.09,0a2.23,2.23,0,0,0-2.86,1.73A11.22,11.22,0,0,0,74.19,76c0,1.88,0,3.77,0,5.84a33.74,33.74,0,0,1-5.86.05Z"/><path class="cls-1" d="M45.87,75.81A10.37,10.37,0,0,1,49.59,63a10.1,10.1,0,0,1,12.66,1,6.09,6.09,0,0,1-2.16.8,19.19,19.19,0,0,0-9.84,6.53A24.53,24.53,0,0,1,45.87,75.81Z"/><path class="cls-1" d="M64.29,66.41a4.28,4.28,0,0,1,1,2.11c-7.53,0-13.31,3.65-18.67,8.62C49.35,72.38,57.84,66.13,64.29,66.41Z"/></svg>