<svg id="圖層_1" data-name="圖層 1" xmlns="http://www.w3.org/2000/svg" viewBox="0 0 140 140"><defs><style>.cls-1{fill:gray;}</style></defs><title>grandtextile</title><path class="cls-1" d="M37.53,98.28c-6.17-5-10.07-17.36-7.68-23.93A16.23,16.23,0,0,1,43.3,63.21c6.84-1.08,11.77,2.47,15.83,7.43,4.94,6,8.15,13,10.63,20.38.22.65.49,1.29,1.11,2.89.74-1.76,1.23-2.68,1.52-3.66,2.14-7.24,4.82-14.27,9.83-20a21.06,21.06,0,0,1,7.23-5.4c7.78-3.37,14.46-.69,18.8,6.72,4.81,8.18,2.57,20-3.43,26.57A40,40,0,0,0,101,94.05c-5.53-4.48-12.62-3.87-18.34,1.52a40.83,40.83,0,0,0-10.42,15.29,15.14,15.14,0,0,1-1,1.66,8.8,8.8,0,0,1-1.32-1.81A47.36,47.36,0,0,0,59.74,94.84c-7.2-7.44-15.1-6.76-20.91,1.79C38.44,97.21,38,97.73,37.53,98.28Z"/><path class="cls-1" d="M98.57,53.06c-15.28-.18-23.41,8-27.44,21.49-11-20.11-13-21.61-28.23-21.42,1.5-4.37,9.6-9.66,14.22-9.14,6.72.75,9.91,6.16,13.69,11C75.47,50,79,43.36,87,44.23,92.14,44.78,95.21,48.58,98.57,53.06Z"/><path class="cls-1" d="M76.41,37.83c0,3.54-3.15,7-6.41,7s-6.26-3.53-6.31-7.43,3-7.23,6.44-7.24S76.39,33.64,76.41,37.83Z"/></svg>