<svg id="圖層_1" data-name="圖層 1" xmlns="http://www.w3.org/2000/svg" viewBox="0 0 140 140"><defs><style>.cls-1{fill:gray;}</style></defs><title>yuyuang</title><path class="cls-1" d="M66.48,106.1a19.2,19.2,0,0,1-12-7.28,18.56,18.56,0,0,1-3.63-13.55,19.31,19.31,0,0,1-10.53-.7A18.94,18.94,0,0,1,27.43,66.09c.31-7.42,5.94-14.59,13.6-16.87A19.52,19.52,0,0,1,66,63.52a20.47,20.47,0,0,1,.43,4.36q.14,18.36.19,36.73C66.57,105,66.53,105.33,66.48,106.1Z"/><path class="cls-1" d="M89.23,85.36a18,18,0,0,1-5.29,15.37,18.4,18.4,0,0,1-10.28,5.33v-4q0-17.4,0-34.8a19.83,19.83,0,0,1,.4-4.14A19.12,19.12,0,0,1,89.56,48.69c7.09-1.09,13.23.79,18.17,6.06a17.81,17.81,0,0,1,4.84,11.65c.5,9.33-7.07,17.32-15.6,18.92A22.33,22.33,0,0,1,89.23,85.36Z"/><path class="cls-1" d="M69.88,58.29a6.78,6.78,0,0,0,.71-1.21c2.7-8.87,8.81-13.87,17.74-15.7a5.7,5.7,0,0,1,1.09-.13,1.69,1.69,0,1,1,.41,3.35c-.7.19-1.43.25-2.14.43-7.25,1.83-12.12,6.49-15.28,13.09-.59,1.24-.94,2.61-1.44,3.9a17.15,17.15,0,0,1-.81,1.6l-.53,0c-.26-.72-.53-1.43-.77-2.16-2.19-6.69-6.1-12-12.57-15.05a26.48,26.48,0,0,0-5.21-1.62c-1.67-.41-2.48-1-2.29-2.11S50,41,51.64,41.34C60.09,42.93,66,47.66,69,55.78,69.23,56.5,69.49,57.23,69.88,58.29Z"/><path class="cls-1" d="M70,54.93a21.53,21.53,0,0,1-1.09-2A22.52,22.52,0,0,0,52.84,39a5.07,5.07,0,0,1-1.24-.44,1.59,1.59,0,0,1-.94-1.81,1.47,1.47,0,0,1,1.61-1.2,7.75,7.75,0,0,1,1.73.23c6.72,1.63,11.29,5.89,14.45,11.87.46.88.9,1.76,1.58,3.08.54-1.13.86-1.83,1.21-2.52,3.17-6.35,7.91-10.82,15-12.49a3.22,3.22,0,0,1,1.71-.17,3.1,3.1,0,0,1,1.53,1.32c.14.3-.33,1.07-.71,1.43a3.64,3.64,0,0,1-1.57.71C79.44,41,74,45.62,71,53.13A16,16,0,0,1,70,54.93Z"/><path class="cls-1" d="M69.34,48.07c-.26-.59-.54-1.16-.76-1.76A20.71,20.71,0,0,0,56.16,33.75,3.06,3.06,0,0,1,55,33.21c-.41-.44-.94-1.06-.91-1.56.07-.89.91-1.3,1.77-1.34a3.94,3.94,0,0,1,1.48.37A19.82,19.82,0,0,1,68.9,42c.23.58.52,1.14,1,2.09.41-.91.64-1.4.85-1.91a20.43,20.43,0,0,1,12-11.6c.87-.33,1.66-.57,2.45.16a1.45,1.45,0,0,1-.17,2.41,5,5,0,0,1-1.21.5c-6.38,2-10.46,6.47-12.9,12.57-.25.64-.56,1.26-.85,1.88Z"/><path class="cls-1" d="M69.71,36.77a57.27,57.27,0,0,1,3.55-5.54,32.13,32.13,0,0,1,4-3.68,4.63,4.63,0,0,1,.95-.53,1.57,1.57,0,0,1,2,.4,1.55,1.55,0,0,1-.44,2.13c-1,.76-2,1.41-3,2.18a18,18,0,0,0-6.17,8.59,6.64,6.64,0,0,1-.8,1.23,8.38,8.38,0,0,1-.74-1.3c-1.41-4.38-4.34-7.55-8.05-10.1a4,4,0,0,1-1.19-.93,2.1,2.1,0,0,1-.38-1.54A1.29,1.29,0,0,1,61.25,27a8.59,8.59,0,0,1,1.34.71,18,18,0,0,1,6.6,8C69.35,36,69.54,36.41,69.71,36.77Z"/><path class="cls-1" d="M70,33.46a18.58,18.58,0,0,1-4-6.19c-.75-1.94-.16-2.74,1.91-2.79,1.53,0,3.07,0,4.61,0,1.72.06,2.23.73,1.74,2.35A17.6,17.6,0,0,1,70,33.46Z"/><path class="cls-1" d="M50.44,118.08v-2.73l-2.38-3.76H49.6l1.52,2.57,1.5-2.57h1.51l-2.39,3.77v2.72Z"/><path class="cls-1" d="M54.31,111.59h1.31v3.51a7.72,7.72,0,0,0,.05,1.09,1.09,1.09,0,0,0,.4.64,1.41,1.41,0,0,0,.87.24,1.33,1.33,0,0,0,.84-.23.9.9,0,0,0,.34-.56,7,7,0,0,0,.06-1.1v-3.59h1.3V115a9,9,0,0,1-.1,1.65,1.8,1.8,0,0,1-.39.81,2,2,0,0,1-.77.53,3.28,3.28,0,0,1-1.24.2,3.46,3.46,0,0,1-1.41-.22,2.1,2.1,0,0,1-.76-.55,1.77,1.77,0,0,1-.37-.72,8.33,8.33,0,0,1-.13-1.65Z"/><path class="cls-1" d="M64,118.08v-2.73l-2.37-3.76h1.53l1.53,2.57,1.49-2.57H67.7l-2.38,3.77v2.72Z"/><path class="cls-1" d="M67.89,111.59H69.2v3.51a7.72,7.72,0,0,0,0,1.09,1.09,1.09,0,0,0,.4.64,1.39,1.39,0,0,0,.86.24,1.3,1.3,0,0,0,.84-.23.92.92,0,0,0,.35-.56,9,9,0,0,0,0-1.1v-3.59h1.31V115a9,9,0,0,1-.1,1.65,1.93,1.93,0,0,1-.4.81,2,2,0,0,1-.76.53,3.33,3.33,0,0,1-1.25.2,3.4,3.4,0,0,1-1.4-.22,2,2,0,0,1-.76-.55,1.77,1.77,0,0,1-.37-.72,7.63,7.63,0,0,1-.13-1.65Z"/><path class="cls-1" d="M79.84,118.08H78.41l-.56-1.48h-2.6l-.53,1.48H73.33l2.53-6.49h1.38Zm-2.41-2.57-.9-2.4-.87,2.4Z"/><path class="cls-1" d="M80.09,118.08v-6.49h1.27L84,115.92v-4.33h1.21v6.49H83.92l-2.61-4.23v4.23Z"/><path class="cls-1" d="M89.18,115.69V114.6H92v2.58a3.4,3.4,0,0,1-1.19.7,4.19,4.19,0,0,1-1.58.31,3.57,3.57,0,0,1-1.77-.43,2.64,2.64,0,0,1-1.14-1.22,4,4,0,0,1-.38-1.73,3.79,3.79,0,0,1,.42-1.8,3,3,0,0,1,1.25-1.21,3.39,3.39,0,0,1,1.55-.32,3.12,3.12,0,0,1,1.89.51,2.29,2.29,0,0,1,.87,1.4l-1.3.24a1.31,1.31,0,0,0-.52-.75,1.5,1.5,0,0,0-.94-.28,1.74,1.74,0,0,0-1.36.55,2.27,2.27,0,0,0-.51,1.61,2.54,2.54,0,0,0,.51,1.73,1.7,1.7,0,0,0,1.35.58,2.39,2.39,0,0,0,.82-.16,3,3,0,0,0,.71-.39v-.83Z"/></svg>