<svg id="圖層_1" data-name="圖層 1" xmlns="http://www.w3.org/2000/svg" viewBox="0 0 140 140"><defs><style>.cls-1{fill:gray;}</style></defs><title>tahtong</title><path class="cls-1" d="M88.23,62.21A12.25,12.25,0,0,0,83,62a17.33,17.33,0,0,1-2.45.39H60.15V65.2h5.73V78.72H56.81V62.37h-3.5v7.17H45.14c0-2.47,0-4.79,0-7.17H41.58V77.31l-3.68,0q-3-7.58-5.95-14.9H7.22v2.82h5.83V80.38h3.41l0-15.19h11c-2,5.1-3.94,10.08-5.95,15.19h3.7l5.12-13.27c1.79,4.66,3.47,8.82,5.18,13.27h9.59V72.63h8.17v7.75h16V65.2H77.8c-.25.54-.54,1.22-.74,1.76a11.52,11.52,0,0,0,.31,9.43c1.53,3.12,4.35,4.45,7.67,4.44,4.3,0,7.46-1.72,8.74-6.43a11.43,11.43,0,0,0-.57-7.77A7.65,7.65,0,0,0,88.23,62.21ZM90,74.58c-.89,2.26-2.65,3.34-5.31,3.22a4.86,4.86,0,0,1-4.48-3.62,9.9,9.9,0,0,1-.09-5.4,5.19,5.19,0,0,1,5.45-4,5.1,5.1,0,0,1,4.8,4.79c.07.59.06,1.18.09,1.76A9,9,0,0,1,90,74.58Z"/><path class="cls-1" d="M110.15,74.91l-8.9-12.69H97.62l-.19,15.24h-3v2.92H101V67.9c3.08,4.29,6.07,8.41,9.06,12.48h3.65V65.07h3.06V62.22h-6.63Z"/><path class="cls-1" d="M132.71,70.94h-7.59l.13,2.64h3.9l-.05,4.08a12.37,12.37,0,0,1-3.93,0,5.16,5.16,0,0,1-4.37-4.66,12.93,12.93,0,0,1,0-2.64,5.8,5.8,0,0,1,4.11-5.22,8.69,8.69,0,0,1,4.69-.32l2.19.41V62.46a13.77,13.77,0,0,0-7.42-.29,8.38,8.38,0,0,0-3.5,1.59,9.91,9.91,0,0,0-3.62,9.72,7.89,7.89,0,0,0,6,6.86,16.57,16.57,0,0,0,8.7-.19,4,4,0,0,0,.83-.44C132.77,76.73,132.83,73.86,132.71,70.94Z"/><path class="cls-1" d="M30.21,76a2.19,2.19,0,0,0-2.09,2.34,2.15,2.15,0,0,0,2.21,2.21A2.28,2.28,0,0,0,30.21,76Z"/></svg>