<svg id="圖層_1" data-name="圖層 1" xmlns="http://www.w3.org/2000/svg" viewBox="0 0 140 140"><defs><style>.cls-1{fill:gray;}</style></defs><title>apluschanchia</title><path class="cls-1" d="M85.23,36.14c2.39.8,4.93,1,7.33,1.74a32.85,32.85,0,0,1,7.38,3.37,12.91,12.91,0,0,1,6.23,11c.19,6-.58,12-.89,18.06-.43,8.31-.89,16.61-1,24.93-.1,6.07-3.36,9.76-9.42,10.17-4.21.28-8.43.26-12.65.44-1,0-1.21-.35-1.25-1.25-.18-4.08-.21-4.11,3.87-4.07,2.23,0,4.37-.3,6.06-1.86a6.07,6.07,0,0,0,2-6.52A6.75,6.75,0,0,0,87,87.24a25.15,25.15,0,0,0-3.79-.12c-2.29,0-2.29,0-2.29-2.37,0-.73,0-1.45,0-2.17,0-4.33-2.68-7.44-6.4-7.51-4-.08-6.85,2.93-7,7.37,0,1.09,0,2.18,0,3.26s-.34,1.43-1.45,1.45c-2.09,0-4.22-.35-6.25.52-3,1.28-4.7,3.83-4.42,6.75a7,7,0,0,0,5.75,5.94,23.72,23.72,0,0,0,5.05.16c1,0,1.31.31,1.33,1.35.06,4.38.1,4.39-4.21,4.54-3.25.11-6.51.26-9.76.26-8.19,0-15.83-4.56-18.36-11.2-3-8-2.07-19.87,9.26-26.17,5.73-3.18,12-4.73,18.38-5.64a56,56,0,0,0,10.25-2.11,11,11,0,0,0,4.92-2.91c2.44-2.72,1.56-6.1-1.87-7.35a21.06,21.06,0,0,0-7.67-1,95.34,95.34,0,0,0-18.27,2.3c-4.09.88-6.84-.46-7.86-4-1.07-3.69.68-6.91,4.55-8.19a88.69,88.69,0,0,1,18.41-3.58c3-.33,6-.14,9-.77Z"/></svg>