<svg id="圖層_1" data-name="圖層 1" xmlns="http://www.w3.org/2000/svg" viewBox="0 0 140 140"><defs><style>.cls-1{fill:gray;}</style></defs><title>licheng</title><path class="cls-1" d="M58,115.53C40.56,110.66,27.64,95.66,24.88,77.6,21.57,56,35.77,32.2,60,26.68a56.56,56.56,0,0,1,10-1,58.74,58.74,0,0,1,9.69.92c19.85,4.3,34.12,21.84,35.76,41.46,1.87,22.51-13.82,42.93-35,47.72a59.27,59.27,0,0,1-11.31,1.1A56,56,0,0,1,58,115.53Zm12.1-86.41A41.87,41.87,0,0,0,27.9,70.51C27.68,95,46.22,113.75,70.18,113.72A41.76,41.76,0,0,0,112,72C112.15,46.82,92.63,29.1,70.05,29.12Z"/><path class="cls-1" d="M86.59,67.57c1.59,4.47,1.81,8.85,2.75,13.49a56.31,56.31,0,0,0,18.34-5.45c1.83,8.51-8.87,26.6-21.14,30.46-.46-1.64-.08-3.24,0-4.86.64-8.49,1.12-17-.26-25.45A19.85,19.85,0,0,0,78,62.44a8.8,8.8,0,0,0-6.55-1.75c1.61,16.75,1.08,33.3-4.88,49.17C54.37,110.17,39.4,99.42,35,87.64c5.4-5.48,12.36-8.6,19.6-12.06-1.52-4.35-1.82-8.91-2.56-13.67a60.88,60.88,0,0,0-20.15,6.35C31,56.82,41.9,39.9,55.16,36c-.23,3.36-.28,6.69-.72,10a73.05,73.05,0,0,0,.24,20.41,23,23,0,0,0,6.76,13.11,10.78,10.78,0,0,0,7.61,3.31c.85-2.71.47-5.43.32-8.06A109.3,109.3,0,0,1,72.54,40a29.32,29.32,0,0,1,2.38-6.8c11.5.18,26.17,10.6,30.29,22.92C100.07,61.28,93.24,63.92,86.59,67.57Z"/></svg>