<svg id="圖層_1" data-name="圖層 1" xmlns="http://www.w3.org/2000/svg" viewBox="0 0 140 140"><defs><style>.cls-1{fill:gray;}</style></defs><title>hugebamboo</title><path class="cls-1" d="M94,45.33,83.16,53.21C68.78,40.74,43.71,47.4,43.41,72.28c.25,17.87,21.71,34,41.33,16.66l10.73,8.47c-5.73,6.13-13.77,12-26.88,12-22.05,0-37.84-16.9-37.84-38,0-19.78,14-38.07,38.23-38.07C77.42,33.26,88.34,38.4,94,45.33Z"/><polygon class="cls-1" points="55.33 57.83 55.33 86.43 62.35 86.43 62.35 75.26 73.57 75.26 73.57 86.43 80.67 86.43 80.67 57.83 73.57 57.83 73.57 67.51 62.35 67.51 62.35 57.83 55.33 57.83"/><path class="cls-1" d="M102.82,71.44c2.49-1.29,4.75-2.93,4.82-7.19,0-3.21-3.7-6.42-7.75-6.42H87v28.6h14c3.28,0,8.17-4,8.17-8.91C109.25,74.09,105.54,72.13,102.82,71.44ZM94,62.64h4.12a3.24,3.24,0,0,1,3.14,3.18A3.28,3.28,0,0,1,98.14,69H94Zm4.12,19H94v-8h4.12a4,4,0,1,1,0,8Z"/></svg>