<svg id="圖層_1" data-name="圖層 1" xmlns="http://www.w3.org/2000/svg" viewBox="0 0 140 140"><defs><style>.cls-1{fill:gray;}</style></defs><title>tun</title><path class="cls-1" d="M7.46,64H22.84v4H17.68V80.33H12.62V68H7.46Z"/><path class="cls-1" d="M25.33,64H30.4V80.33H25.33Z"/><path class="cls-1" d="M44.92,73.63,49.36,75A8.18,8.18,0,0,1,48,78.08,6,6,0,0,1,45.56,80a8.76,8.76,0,0,1-3.62.64,10.47,10.47,0,0,1-4.36-.78,6.82,6.82,0,0,1-2.92-2.73,9.21,9.21,0,0,1-1.23-5,8.51,8.51,0,0,1,2.16-6.24,8.25,8.25,0,0,1,6.12-2.18,8.32,8.32,0,0,1,4.86,1.25,7.3,7.3,0,0,1,2.63,3.84l-4.47,1a3.71,3.71,0,0,0-.49-1.1,2.86,2.86,0,0,0-1-.89,2.94,2.94,0,0,0-1.37-.31,3,3,0,0,0-2.64,1.38,5.88,5.88,0,0,0-.69,3.22,6.11,6.11,0,0,0,.83,3.73,3.27,3.27,0,0,0,4.52.2A5.12,5.12,0,0,0,44.92,73.63Z"/><path class="cls-1" d="M67.67,74.4V71h7.81v7a16,16,0,0,1-4,2.09,13.84,13.84,0,0,1-4.1.55,9.87,9.87,0,0,1-4.75-1,6.8,6.8,0,0,1-2.85-3,9.76,9.76,0,0,1-1-4.51,9.39,9.39,0,0,1,1.11-4.66,7.22,7.22,0,0,1,3.24-3,10.5,10.5,0,0,1,4.47-.79,12.49,12.49,0,0,1,4.06.49,5.28,5.28,0,0,1,2.24,1.53,6.77,6.77,0,0,1,1.33,2.61l-4.88.87a2.62,2.62,0,0,0-1-1.41,3.17,3.17,0,0,0-1.84-.49,3.31,3.31,0,0,0-2.65,1.15,5.56,5.56,0,0,0-1,3.66,5.74,5.74,0,0,0,1,3.79A3.53,3.53,0,0,0,67.67,77a5.48,5.48,0,0,0,1.62-.24,8.82,8.82,0,0,0,1.76-.84V74.4Z"/><path class="cls-1" d="M78.23,68.47h4.26v1.94a4.62,4.62,0,0,1,1.26-1.73,2.68,2.68,0,0,1,1.62-.48,4.78,4.78,0,0,1,2.2.63l-1.41,3.24a3.48,3.48,0,0,0-1.27-.34,1.58,1.58,0,0,0-1.39.74,7.47,7.47,0,0,0-.7,3.88v4H78.23Z"/><path class="cls-1" d="M88.15,74.43A5.93,5.93,0,0,1,90,70a7.94,7.94,0,0,1,10.33.31,6.47,6.47,0,0,1-.35,8.58,7,7,0,0,1-5,1.75,7.05,7.05,0,0,1-4.63-1.46A5.81,5.81,0,0,1,88.15,74.43Zm4.55,0a3.58,3.58,0,0,0,.65,2.35,2.09,2.09,0,0,0,3.22,0,3.71,3.71,0,0,0,.63-2.4,3.53,3.53,0,0,0-.63-2.3A2,2,0,0,0,95,71.33a2.05,2.05,0,0,0-1.64.76A3.56,3.56,0,0,0,92.7,74.42Z"/><path class="cls-1" d="M116.45,80.33h-4.24V78.41a6.15,6.15,0,0,1-1.91,1.68,5.08,5.08,0,0,1-2.38.51A3.86,3.86,0,0,1,105,79.47,4.85,4.85,0,0,1,103.91,76V68.47h4.57V75a2.45,2.45,0,0,0,.41,1.59,1.5,1.5,0,0,0,1.17.47,1.65,1.65,0,0,0,1.33-.63,3.57,3.57,0,0,0,.52-2.24V68.47h4.54Z"/><path class="cls-1" d="M119.23,84.84V68.47h4.26v1.75a5.75,5.75,0,0,1,1.62-1.49,4.62,4.62,0,0,1,2.2-.53A4.28,4.28,0,0,1,131,70a7.62,7.62,0,0,1,1.3,4.5A6.53,6.53,0,0,1,130.87,79a4.64,4.64,0,0,1-3.58,1.56,4.94,4.94,0,0,1-1.92-.36,4.61,4.61,0,0,1-1.55-1.06v5.66Zm4.56-10.41a3.14,3.14,0,0,0,.59,2.09,1.88,1.88,0,0,0,1.5.68,1.67,1.67,0,0,0,1.33-.65,3.62,3.62,0,0,0,.53-2.22,3.23,3.23,0,0,0-.56-2.11,1.7,1.7,0,0,0-1.36-.68,1.84,1.84,0,0,0-1.45.68A3.38,3.38,0,0,0,123.79,74.43Z"/></svg>