<svg id="圖層_1" data-name="圖層 1" xmlns="http://www.w3.org/2000/svg" viewBox="0 0 140 140"><defs><style>.cls-1{fill:gray;}</style></defs><title>newwide</title><polygon class="cls-1" points="95.62 52.42 95.62 94.55 37.21 80.87 37.21 59.16 94.54 46.34 94.54 31.58 22.44 49.6 22.44 91.3 95.41 111.06 117.56 111.06 117.56 52.42 95.62 52.42"/><polygon class="cls-1" points="48.98 59.69 48.98 80.66 55.66 80.66 55.66 69.8 62.15 80.66 67.46 80.66 67.46 69.8 74.41 80.66 80.08 80.66 80.08 69.8 86.48 80.66 92.15 80.66 92.15 59.69 86.47 59.69 86.39 70.17 80.07 59.69 74.4 59.69 74.41 70.17 67.55 59.69 61.51 59.69 61.6 70.17 55.38 59.69 48.98 59.69"/><circle class="cls-1" cx="107.42" cy="40.76" r="9.19" transform="translate(28.65 124.41) rotate(-67.5)"/></svg>