<svg id="圖層_1" data-name="圖層 1" xmlns="http://www.w3.org/2000/svg" viewBox="0 0 140 140"><defs><style>.cls-1{fill:gray;}</style></defs><title>caroltex</title><path class="cls-1" d="M42,47.41c-.31-1.08-1.33-1.26-2.19-1.56C33.21,43.55,27,44.52,21.07,48,14.43,52,10.2,57.67,9.11,65.43,7.36,77.85,17.53,87.32,29.4,86.6A24.09,24.09,0,0,0,51.63,66.52a17,17,0,0,0,.15-3.19,2.26,2.26,0,0,1,2.07-2.62c1.27-.17,2.28,1,2.35,2.66a23.22,23.22,0,0,1-1.6,9.41C51,82.08,44.33,88.11,34.68,90.47,24.48,93,14,88.69,9.38,80.6,5.57,74,5.56,67.07,8.41,60.08A29.2,29.2,0,0,1,35.3,42.39a22.11,22.11,0,0,1,9,2.23c1.79.84,2.6,2.11,2.31,3.48A3.68,3.68,0,0,1,43.42,51a7.49,7.49,0,0,1-5.2-.59c-9.6-5.55-24.53,1.9-25,15.34C12.94,75.19,21,80.78,29,80c7.25-.75,12.36-4.68,15.22-11.42.45-1.07,1.44-2.75.08-3.32-1.71-.71-1.62,1.37-2,2.39-3,7.94-12,12.25-19.6,9.36A12.19,12.19,0,0,1,15.14,62.5,16.1,16.1,0,0,1,33.82,50.39a10.88,10.88,0,0,1,4.78,2.28c.67.53,1.12,1.13.65,2.06a2.05,2.05,0,0,1-1.93,1.19,4,4,0,0,1-2.39-1.06c-6.7-4.52-16.19,1-16.67,9-.45,7.36,7.13,11.86,14.08,8.44a12.3,12.3,0,0,0,6.36-7.86c.92-2.91,2.84-4.11,5.86-3.9a4.94,4.94,0,0,1,4.84,5A15.41,15.41,0,0,1,47,73.41c-4.92,8.8-15.92,13.34-24.92,10.27S8.35,71.93,10.8,62.63A22.65,22.65,0,0,1,36.39,46.17a26.28,26.28,0,0,1,3.8,1.23C40.75,47.59,41.28,48.11,42,47.41Z"/><path class="cls-1" d="M94.6,79.35c-2.32,1.62-3.93.92-5.48-.46a9.53,9.53,0,0,1-7,1.22c-2.33-.56-3.76-1.87-4-4a5.12,5.12,0,0,1,2.39-5.28,9.62,9.62,0,0,1,4.56-1.36l3.18-.25c-.6-2.36-.62-2.37-7.12-2-.52-.16-.58-.64-.72-1s-.25-.84-.36-1.23c2.8-1.75,8.22-1.66,10.69.14,1.77,1.29,2,3.28,2.27,5.22a31.06,31.06,0,0,1,0,3.74C93.09,75.81,92.9,77.71,94.6,79.35ZM83.89,77.12a6.16,6.16,0,0,0,4.88-3c.43-1,0-1.52-.87-1.81a7,7,0,0,0-4.67.45c-1.13.43-2.1,1.12-1.79,2.55S82.9,76.91,83.89,77.12Z"/><path class="cls-1" d="M103.66,71.9c0-5.17,3.28-8.32,8.62-8.31s8.55,3.11,8.48,8.39c-.07,5.1-3.27,8.33-8.34,8.4C107,80.46,103.65,77.2,103.66,71.9Zm12.74-.42a8.47,8.47,0,0,0-.15-1.18c-.53-2.42-2-3.7-4.19-3.61a4.06,4.06,0,0,0-3.87,3.71,7.92,7.92,0,0,0,.34,4.44,3.54,3.54,0,0,0,3.29,2.28,3.68,3.68,0,0,0,3.64-1.71A6.79,6.79,0,0,0,116.4,71.48Z"/><path class="cls-1" d="M77.49,78.92A12.47,12.47,0,0,1,67,79.54c-4.6-1.8-6.21-7.55-3.51-11.93,2.61-4.21,9.66-5.44,13.81-2.29l-1.58,2.41c-2.88-1-5.88-1.86-8.15,1.2-1.36,1.84-1.27,5,.21,6.5,2.47,2.45,5.3,1.92,8.18.55Z"/><path class="cls-1" d="M133.62,76.39v3.92h-9.36A2.26,2.26,0,0,1,122.33,78V64.69l3.86-.8v12.5Z"/><path class="cls-1" d="M103.29,63.44l.59,3.52a13.05,13.05,0,0,0-2.27.78,2.87,2.87,0,0,0-2,2.61v9.59h-4c0-3.8-.11-7.33,0-10.94S100,63.33,103.29,63.44Z"/><path class="cls-1" d="M22.86,98.65a27.39,27.39,0,0,1,17.17,0A23.76,23.76,0,0,1,22.86,98.65Z"/></svg>