<svg id="圖層_1" data-name="圖層 1" xmlns="http://www.w3.org/2000/svg" viewBox="0 0 140 140"><defs><style>.cls-1{fill:gray;}</style></defs><title>littleking</title><path class="cls-1" d="M78.16,108.26H62.37c.43-1,.8-2.35,1.12-3.35,2.9-9,1.67-17.79,1.64-26.49S60.3,63.83,52,64.07c-8,.23-12.81,6.32-13.59,14.66-.93,9.84,3,17.18,11.61,22,2.41,1.36,5.53,2.89,3.79,5.92s-4.85,1-7.26,0c-13.91-5.76-21.27-24-15.29-37.79C37,55.64,50.23,51.06,65.1,58.06A47.88,47.88,0,0,1,70,61a48.37,48.37,0,0,1,5.48-3.3c14.42-6.5,28.32-1.43,33.63,11.79,5.49,13.69-2.76,32.81-16.32,37.51-2.27.78-5.42,2.83-6.88-.9-1-2.64,1.46-4,3.54-5.13,9.25-4.86,13.2-12.63,12-22.85-1-8.26-5.9-14.28-14.09-14.06S75.13,70.26,75,79c0,0-1,18.59,1.63,25.39A40.55,40.55,0,0,0,78.16,108.26Z"/><path class="cls-1" d="M78.43,42.92c-.54,5.2-3.62,8.28-8.19,8.33-5.21,0-8.59-3.27-8.43-8.81.14-4.93,3.26-8,8-8.06C75.21,34.32,78,37.83,78.43,42.92Z"/></svg>