<svg id="圖層_1" data-name="圖層 1" xmlns="http://www.w3.org/2000/svg" viewBox="0 0 140 140"><defs><style>.cls-1{fill:gray;}</style></defs><title>labtex</title><path class="cls-1" d="M66.41,70.81c.39.18.62.3.85.39,4.95,2.1,4,8.23,1,10.32a9.18,9.18,0,0,1-5,1.69c-3.21.09-6.42,0-9.62.08-.78,0-.91-.32-.9-1,0-6.67,0-13.34,0-20,0-1.89,1.09-2.91,3.11-2.91,7,0,14,0,21,0,9.45,0,18.9,0,28.34,0,1.12,0,1.49.24,1.42,1.4a2.83,2.83,0,0,1-3,3c-1.88,0-3.76,0-5.64,0-.73,0-1,.22-.95,1v2.69c-.11,1.09.2,1.5,1.38,1.45l6.28-.05c.78,0,1.13.12,1.11,1,0,2.2-1.06,3.32-3.28,3.36H98.12c-.81,0-1,.27-1,1V78c0,.73.23.95.95.94,2.56,0,5.13,0,7.7,0,.78,0,1,.2,1,1,0,2.23-1,3.35-3.24,3.35-3,0-6,0-9,0-2.11,0-3.12-1-3.13-3.16,0-5,0-10.09,0-15.13,0-1-.28-1.32-1.29-1.28H84.54c-1,0-1.31.21-1.3,1.25.06,5.64,0,11.29.06,16.93,0,1.12-.17,1.45-1.41,1.41h-1c-2.31,0-3.32-1-3.32-3.39q0-7.24,0-14.5c0-1.67,0-1.67-1.61-1.67-1.76,0-3.51,0-5.26,0-.66,0-.85.13-.75.85C70.3,67.38,69.21,69.47,66.41,70.81Zm-8,7.38c0,.44.05.75.6.74a12.59,12.59,0,0,0,4.06-.35A2.6,2.6,0,0,0,65,75.41c-.38-2-2.45-3-5.85-2.43-.38.06-.71.08-.69.38C58.42,73.36,58.42,77.43,58.41,78.19Zm0-12.12c0,2.75,0,2.75,2.54,2.61,2.25-.12,3.4-1,3.36-2.53s-1.18-2.36-3.45-2.42C58.41,63.66,58.41,63.66,58.41,66.07Z"/><path class="cls-1" d="M51.79,83.23c-1.55,0-3.2.07-4.72,0a2.51,2.51,0,0,1-2.22-1.69c0-.08-.05-.16-.09-.24-.44-1-.63-2.45-1.42-3.07a1.34,1.34,0,0,0-1.13-.35H35.1a1.27,1.27,0,0,0-1.41,1.05c-.26.86-.66,1.67-1,2.5a2.68,2.68,0,0,1-2.53,1.84c-1.32.05-2.64,0-4.13,0,.5-1.23.94-2.37,1.4-3.49,2.64-6.43,5.3-12.84,7.9-19.28A1.47,1.47,0,0,1,37,59.35c1.37.08,2.74,0,4.1,0a1,1,0,0,1,1.15.75C45.37,67.67,51.79,83.23,51.79,83.23Zm-13-17.85-3,8.23c1.9,0,3.64,0,5.37,0,.53,0,.66-.12.45-.67C40.65,70.52,39.78,68.09,38.78,65.38Z"/><path class="cls-1" d="M10.67,72.16c0-3.25,0-6.5,0-9.75a2.73,2.73,0,0,1,3-3c2.66-.08,2.66-.08,2.66,2.54,0,5.3,0,10.6,0,15.91,0,.89.23,1.16,1.13,1.14,2.48-.06,5,0,7.44,0,.71,0,1,.19,1,.93,0,2.31-1,3.42-3.27,3.42-3.59,0-7.18,0-10.77,0-.89,0-1.17-.23-1.16-1.14C10.7,78.83,10.67,75.49,10.67,72.16Z"/><path class="cls-1" d="M127.62,59.53c-1.56,3-3.09,6.09-4.68,9.09a2.74,2.74,0,0,1-2.57,1.52c3-3,4.08-6.86,6-10.26C126.67,59.35,127,59.27,127.62,59.53Z"/><path class="cls-1" d="M120.24,72.59a2.4,2.4,0,0,1,2.62,1.29c1.63,3,3.18,6.11,4.76,9.18-.81.4-1.1,0-1.37-.57-.94-1.91-1.93-3.81-2.86-5.73A10.26,10.26,0,0,0,120.24,72.59Z"/><path class="cls-1" d="M114.66,70.44a2.83,2.83,0,0,1-2.56-1.83c-1.35-2.75-2.72-5.49-4-8.25-.12-.26-.66-.66-.13-.94s.74.21.94.61l3.66,7.29A8.15,8.15,0,0,0,114.66,70.44Z"/><path class="cls-1" d="M114.65,72.16a10.36,10.36,0,0,0-2.44,3.73c-1.08,2.12-2.14,4.25-3.22,6.37a3.72,3.72,0,0,1-.52.86.69.69,0,0,1-.6,0c-.28-.12-.11-.35,0-.53,1.55-3.11,3.08-6.24,4.68-9.34A2.29,2.29,0,0,1,114.65,72.16Z"/><path class="cls-1" d="M122.38,70.4a7.9,7.9,0,0,0,1.92-2.71c1.23-2.48,2.47-4.95,3.72-7.43.24-.47.4-1.11,1.33-.77-.49,1-1,2-1.45,3-1,2-2,4-3,6.07A2.73,2.73,0,0,1,122.38,70.4Z"/><path class="cls-1" d="M122.34,72.16A2.87,2.87,0,0,1,124.88,74c1.33,2.71,2.7,5.4,4,8.13.14.3.74.75.21,1.06s-.79-.26-1-.68l-3.61-7.19A8.83,8.83,0,0,0,122.34,72.16Z"/><path class="cls-1" d="M116.54,70A2.38,2.38,0,0,1,114,68.58c-1.49-2.82-2.9-5.67-4.34-8.51-.1-.21-.36-.47,0-.64a.6.6,0,0,1,.8.18,5.45,5.45,0,0,1,.35.68l2.64,5.22C114.26,67.14,115,68.83,116.54,70Z"/><path class="cls-1" d="M109.37,83.05c1.61-3.1,3.17-6.21,4.83-9.27a2.43,2.43,0,0,1,2.45-1.26c-3,2.78-4,6.56-5.84,9.81C110.51,82.85,110.35,83.49,109.37,83.05Z"/><path class="cls-1" d="M125.73,83.06c-.83.42-1.06-.09-1.34-.6-1.52-2.86-2.66-5.92-4.64-8.52-.12-.16-.31-.34-.08-.55s.41,0,.55.11a6.8,6.8,0,0,1,1.15,1.19C123.05,77.36,124.28,80.26,125.73,83.06Z"/><path class="cls-1" d="M125.74,59.52c-1.41,2.77-2.68,5.59-4.25,8.26a3.19,3.19,0,0,1-.56.7c-.36.33-.83,1-1.18.74-.52-.44.27-.83.51-1.2a87.44,87.44,0,0,0,4.09-7.79C124.63,59.68,124.85,59.11,125.74,59.52Z"/><path class="cls-1" d="M117.26,69.56c-3.16-2.81-4-6.76-6.07-10,.65-.34,1-.21,1.27.3,1.6,3,2.86,6.26,4.92,9.05C117.43,69,117.34,69.16,117.26,69.56Z"/><path class="cls-1" d="M117.33,73.38c-2,3-3.26,6.29-4.89,9.41-.22.42-.59.59-.94.38s0-.6.14-.85c1.11-2.25,2.24-4.5,3.4-6.73A4.31,4.31,0,0,1,117.33,73.38Z"/><path class="cls-1" d="M117.78,74.77c-.75,2.94-2.32,5.51-3.62,8.21-.18.37-.57.26-1.11.14C114.61,80.29,115.74,77.3,117.78,74.77Z"/><path class="cls-1" d="M117.66,68c-1.92-2.66-3-5.67-4.59-8.48.54-.22,1-.24,1.19.25,1.15,2.46,2.55,4.81,3.51,7.37A.77.77,0,0,1,117.66,68Z"/><path class="cls-1" d="M119.31,68.06a2.43,2.43,0,0,1,.19-1.75c1-2.09,2.07-4.18,3.09-6.28.23-.47.55-.89,1-.59s0,.68-.19,1A58.87,58.87,0,0,1,119.31,68.06Z"/><path class="cls-1" d="M123.91,83.07c-.63.28-1,.17-1.26-.36-1.08-2.22-2.19-4.44-3.27-6.66a1.85,1.85,0,0,1-.06-1.43C121.29,77.3,122.38,80.29,123.91,83.07Z"/></svg>