<svg id="圖層_1" data-name="圖層 1" xmlns="http://www.w3.org/2000/svg" viewBox="0 0 140 140"><defs><style>.cls-1{fill:gray;}</style></defs><title>mds-intl</title><polygon class="cls-1" points="20.63 62.76 16.98 74.14 13.64 62.76 8.94 62.76 7.72 79.79 11.35 79.79 11.99 66.33 15.29 79.79 18.52 79.79 22.2 66.33 22.76 79.79 26.41 79.79 25.48 62.76 20.63 62.76"/><path class="cls-1" d="M38.05,62.76H29.54v17h8.14c2.13,0,6.8-2.55,6.8-8.52C44.48,65.76,40.78,62.76,38.05,62.76Zm-1.4,14.17H33.43V65.51h3c1.7,0,4.49,2.31,4.49,5.71C41,74.32,38.83,76.93,36.65,76.93Z"/><path class="cls-1" d="M50.53,67.46c0-1.72,1.28-2,2.91-2.09a5.42,5.42,0,0,1,3,.87l1-2.67c-1.89-1.48-6.12-1.1-7-.81-2.12,1-3.55,2.4-3.59,4.82,0,2.75,2,4.39,4.74,5.22,2.19,1,4,2.11,2.23,3.9-1.36.77-4,.26-5.87-.62l-1.64,2.8a15.3,15.3,0,0,0,6.8.91A5.06,5.06,0,0,0,58,74.73C58,69.57,50.59,69.84,50.53,67.46Z"/><path class="cls-1" d="M86,77a7.56,7.56,0,0,0-2.38-5.55,4.86,4.86,0,0,0,3-4.32c0-2.26-2.26-4.38-4-4.38h-5.3V79.88H78V71.62H82.6a6.65,6.65,0,0,1,2.65,5.45c.16,1.64,1,2.7,2,2.7v-.71C86.61,79.06,86.08,78.23,86,77ZM78,63.48h4.58a4,4,0,0,1,3.3,3.67c0,1.64-1.53,3.75-3.15,3.75H78Z"/><path class="cls-1" d="M96.57,62.4c-3.95,0-7.17,3.9-7.17,8.69s3.22,8.68,7.17,8.68,7.17-3.9,7.17-8.68S100.52,62.4,96.57,62.4Zm0,16.66c-3.56,0-6.46-3.58-6.46-8s2.9-8,6.46-8,6.45,3.58,6.45,8S100.13,79.06,96.57,79.06Z"/><path class="cls-1" d="M128.46,62.77h-5.29V79.88h.71V72.61h4.73c2.07,0,3.66-2.63,3.66-4.89C132.27,65,130.19,62.77,128.46,62.77Zm.15,9.13h-4.73V63.48h4.58c1.25,0,3.1,1.78,3.1,4.24C131.56,69.83,130.1,71.9,128.61,71.9Z"/><path class="cls-1" d="M118,74.09c0,3.55-1.75,5.43-5.06,5.43S108,76.84,108,74.17V62.76h-.72V74.17c0,3.63,2.27,6.06,5.65,6.06,3.67,0,5.77-2.24,5.77-6.14V62.76H118Z"/><path class="cls-1" d="M68.67,71.57h4v7.11c-1.62.3-5,.75-7.3-.25-2.78-1.58-4.18-3.16-4.18-7.36,0-3.76,1.58-6.17,5-7.58,2.28-.73,5-.18,6.77.31l.18-.69c-1.9-.51-4.71-1.09-7.2-.29-3.71,1.55-5.44,4.17-5.44,8.25,0,4.53,1.6,6.3,4.58,8a10.08,10.08,0,0,0,4,.69,21.58,21.58,0,0,0,4.08-.43l.29-.06v-8.4H68.67Z"/></svg>