<svg id="圖層_1" data-name="圖層 1" xmlns="http://www.w3.org/2000/svg" viewBox="0 0 140 140"><defs><style>.cls-1{fill:gray;}</style></defs><title>paiho</title><path class="cls-1" d="M29.77,81V61.65H36a23,23,0,0,1,4.64.29,5.12,5.12,0,0,1,2.78,1.9,6,6,0,0,1,1.12,3.76,6.3,6.3,0,0,1-.65,3,5.32,5.32,0,0,1-1.64,1.91,5.67,5.67,0,0,1-2,.91,21.8,21.8,0,0,1-4.05.28H33.68V81Zm3.91-16.06v5.49h2.13a10.23,10.23,0,0,0,3.09-.3,2.69,2.69,0,0,0,1.22-1,2.65,2.65,0,0,0,.44-1.51,2.52,2.52,0,0,0-.62-1.74,2.74,2.74,0,0,0-1.57-.85,18.14,18.14,0,0,0-2.81-.14Z"/><path class="cls-1" d="M63.21,81H59l-1.69-4.39H49.55L48,81H43.81l7.53-19.33h4.13ZM56,73.33l-2.66-7.17-2.61,7.17Z"/><path class="cls-1" d="M65.16,81V61.65h3.9V81Z"/><path class="cls-1" d="M72.79,81V61.65h3.9v7.61h7.65V61.65h3.9V81h-3.9V72.53H76.69V81Z"/><path class="cls-1" d="M91.48,71.44a12.47,12.47,0,0,1,.88-5,9.14,9.14,0,0,1,1.8-2.65,7.65,7.65,0,0,1,2.5-1.74,10.62,10.62,0,0,1,4.17-.76A9.06,9.06,0,0,1,107.66,64a10.13,10.13,0,0,1,2.57,7.36,10.14,10.14,0,0,1-2.55,7.33,9,9,0,0,1-6.8,2.64A9.09,9.09,0,0,1,94,78.68,10,10,0,0,1,91.48,71.44Zm4-.14a7.25,7.25,0,0,0,1.52,5,5.22,5.22,0,0,0,7.68,0,7.42,7.42,0,0,0,1.49-5,7.29,7.29,0,0,0-1.45-5,5.41,5.41,0,0,0-7.76,0A7.29,7.29,0,0,0,95.5,71.3Z"/></svg>