<svg id="圖層_1" data-name="圖層 1" xmlns="http://www.w3.org/2000/svg" viewBox="0 0 140 140"><defs><style>.cls-1{fill:gray;}</style></defs><title>rtfiber</title><path class="cls-1" d="M22.28,76.12H10.48V72.94H22.14V37.38c5.4-.12,10.23-.14,14.53,2.34,5.18,3,5.32,8.08.56,11.69-.9.69-1.9,1.26-3.18,2.09l10.11,12-2.9,2.74C36.91,63.46,33,58.5,29.18,53.47l3.06-2.12c2.29-1.33,4.07-3,4.1-5.91,0-2.76-3.35-3.91-5.9-4.32a18.46,18.46,0,0,0-3.59.13V72.72H38.19V76.1H26.71v28.67H22.28Z"/><path class="cls-1" d="M63.79,43.51H68c0,6.28.78,12.67-.87,18.9-1,3.89-5.76,6.3-11,6.23A9.7,9.7,0,0,1,47,61.87a20.12,20.12,0,0,1-.82-6.59c0-4,0-7.86,0-11.77h4.22c0,4.49-.09,8.94,0,13.46.13,5.39,3.59,8.42,8.3,7.44,2.88-.6,5-3.85,5.09-7.9C63.84,52.18,63.79,47.74,63.79,43.51Z"/><path class="cls-1" d="M45.69,78.63C50.52,86.9,55,94.56,59.46,102.17l-3.39,3.13-4.77-8H40.55l-4.18,7.51-3.74-1.86C36.88,95,41.1,87.15,45.69,78.63Zm0,7.93-3.22,7h7Z"/><polygon class="cls-1" points="77.49 64.24 86.43 64.24 86.43 68.09 73.14 68.1 73.14 43.45 86.43 43.45 86.43 46.56 77.49 46.56 77.49 53.78 85.22 53.78 85.22 57.12 77.49 57.12 77.49 64.24"/><path class="cls-1" d="M90.29,46.85l1.84-4a16.87,16.87,0,0,1,9.58,10.62c2.58-4.64,5.26-8.76,10.37-10.66l2.07,3.64c-9.91,4.2-10.4,13.21-9.57,21.81H99.15C99.52,59.69,100.28,51,90.29,46.85Z"/><path class="cls-1" d="M66.22,104.58c.89-8.92.35-17.12-9.47-21.23l2.36-3.63c4.61,1.9,7.65,5.5,9.78,10.52C71.25,85.4,74,81.47,79.13,79.6L81,83c-7.09,5.27-10.1,6.48-9.51,21.63Z"/><path class="cls-1" d="M121.58,46V41.85H120.1V41h4v.84h-1.47V46Z"/><path class="cls-1" d="M124.7,46V41h1.51l.9,3.4L128,41h1.51v5h-.94V42.07l-1,3.93h-1l-1-3.93V46Z"/></svg>