<svg id="圖層_1" data-name="圖層 1" xmlns="http://www.w3.org/2000/svg" viewBox="0 0 140 140"><defs><style>.cls-1{fill:gray;}</style></defs><title>eco</title><path class="cls-1" d="M74.6,118.59a5.3,5.3,0,0,1-1.9.18c-.39,0-.79,0-1.2,0a6,6,0,0,1-.22-2.46c0-1.2,0-2.4,0-3.6,0-2.95-.82-4.24-3.62-5.3a44.24,44.24,0,0,1-12.15-7.23A40.87,40.87,0,0,1,42.76,82.31a37,37,0,0,1-2.37-10.63,48.29,48.29,0,0,1-.16-5.84c4.08-.21,8.15-.06,12.36-.1A53,53,0,0,0,55,77a32,32,0,0,0,5.19,9.75,2.06,2.06,0,0,0,1.58-1.09,41.75,41.75,0,0,1-4.88-9.38,39.89,39.89,0,0,1-2-10.43H68.1c.05,4,0,8,0,12a3.22,3.22,0,0,0,1.82-.9V66a3.84,3.84,0,0,1,2-.27c3.55,0,7.09,0,10.64,0a2.56,2.56,0,0,0,2.45-1.12A30.79,30.79,0,0,0,81.81,49a35,35,0,0,0-9.93-12.67c3.82,0,7.16,1.49,10.4,3.13A25,25,0,0,1,91,46c.52-1,0-1.76-.07-2.48a13.76,13.76,0,0,0-3.23-7.77,29.24,29.24,0,0,0-2.39-2.2,18.58,18.58,0,0,1-4.89-5.66A2.34,2.34,0,0,0,80,27.3a2,2,0,0,0-.45-.3,41.94,41.94,0,0,0-8.33,8.6,2.5,2.5,0,0,1-1.54.12,5.09,5.09,0,0,0-4.31,1.64A36.7,36.7,0,0,0,55.08,52.71a44.35,44.35,0,0,0-2.17,9.65c0,.45-.17.89-.3,1.55-4,.22-7.91,0-11.84.11a2.86,2.86,0,0,1-.22-2.13,33.71,33.71,0,0,1,5.31-13.75,27.14,27.14,0,0,1,15.44-11A27.72,27.72,0,0,1,65,36.37a3.64,3.64,0,0,0,2.61-1.68A45.14,45.14,0,0,1,78.39,24.05c1.23-.84,2.52-1.56,3.81-2.28A4.19,4.19,0,0,1,84,21.23a15.33,15.33,0,0,1,12.63,5.59,20.17,20.17,0,0,0-4.05,2.32,11,11,0,0,0-3,3.6c1.07,1.63,2.06,3.29,3.2,4.83A37.16,37.16,0,0,1,97.55,47a36.84,36.84,0,0,1,2.12,16,40.14,40.14,0,0,1-2.4,10.28,49.29,49.29,0,0,1-8.66,14.43,63.24,63.24,0,0,1-10,9.59,9.71,9.71,0,0,0-4.06,8.24c0,3.77,0,7.54,0,11.32ZM94.89,50.4a1.69,1.69,0,0,0-.65,1.44,18.3,18.3,0,0,1-.53,3c-.24,1.3-.85,2.47-1.18,3.73a19.38,19.38,0,0,1-5.45,9.14A69.91,69.91,0,0,1,73.8,78.19a30,30,0,0,0-7.94,7.19,9.55,9.55,0,0,0-2.14,3.87,15.3,15.3,0,0,0,1.42,11.09c1.41,2.49,3.61,2.89,5.88,1.16a19.2,19.2,0,0,0,1.74-1.64c.45-.44.89-.88,1.32-1.35,3.48-3.78,7.43-7.07,10.91-10.87a46.23,46.23,0,0,0,9.32-14.41,33.47,33.47,0,0,0,2-13.6c0-.85-.22-1.69-.26-2.55A43.14,43.14,0,0,0,94.89,50.4ZM59.69,91.72c-4.5-1-7.7-3.92-11.44-6.54a27.41,27.41,0,0,0,5.39,8.25C59,99,59.11,99.14,60.88,99.56,60.34,97,59.45,94.57,59.69,91.72ZM86.86,29.84a43.56,43.56,0,0,0,3.81-3.27,6.67,6.67,0,0,0-4.58-2.49A1.89,1.89,0,0,0,84,25a2.47,2.47,0,0,0,.14,2.45A5.54,5.54,0,0,0,86.86,29.84Z"/><path class="cls-1" d="M67.82,63.88c-1.41.17-11.11.18-12.64,0-.55-7.57,5-20.67,12.69-25.31C68.23,40.31,68.19,62.64,67.82,63.88Z"/><path class="cls-1" d="M83,63.9H70.24c-.34-1.25-.45-22.7-.14-25.3C77,42.79,83.77,56.22,83,63.9Z"/></svg>