<svg id="圖層_1" data-name="圖層 1" xmlns="http://www.w3.org/2000/svg" viewBox="0 0 140 140"><defs><style>.cls-1{fill:gray;}</style></defs><title>SGS</title><path class="cls-1" d="M71.21,28.08a40.57,40.57,0,0,1,15,4.15,41.39,41.39,0,0,1,10.65,7.53,42,42,0,0,1,8.14,11,40.73,40.73,0,0,1,3.69,10.5,44.38,44.38,0,0,1,.88,9.21c0,6.44,0,12.89,0,19.34v.89h-8.35a2,2,0,0,1-.08-.87c0-6.71,0-13.42,0-20.13A33.26,33.26,0,0,0,69.41,36.37a33,33,0,0,0-14.57,2.51A33.57,33.57,0,0,0,35,62.58,30.48,30.48,0,0,0,34.28,68c0,.57-.08,1.13-.11,1.69-.25.18-.52.1-.77.1-2.26,0-4.53,0-6.8,0a2.21,2.21,0,0,0-.77.06c0-1,.13-3.41.14-3.56,0-.5.09-1,.15-1.48A38.89,38.89,0,0,1,28,56.38a41.93,41.93,0,0,1,36.14-28.3c.09,0,1.83-.12,3.56-.12S71.13,28.07,71.21,28.08ZM53.94,33.86l.09,0,1.87,2.6a.65.65,0,0,0,.58-.22V32.8c.45,1.08.66,2.14,1.11,3.09a.64.64,0,0,0,.57-.27c-.46-1.33-.86-2.69-1.37-4l-.48.14a.73.73,0,0,0-.44.26c0,1.07,0,2.16,0,3.29l-1.94-2.71A1.6,1.6,0,0,0,53,33c.41,1.37.88,2.71,1.37,4.06.22-.11.44-.07.54-.3ZM94.2,40.42l-3.06,2.93c.07.27.18.4.4.44a22.28,22.28,0,0,1,2.32-2L92.61,45a1.27,1.27,0,0,0,.63.58c1-1,2.08-1.94,3.06-2.94a.61.61,0,0,0-.44-.4l-2.18,2.06-.1-.07L94.84,41A2.62,2.62,0,0,0,94.2,40.42Zm-3.86,2a1.23,1.23,0,0,0,.69-.35,9.65,9.65,0,0,0,1.53-1.85,1.39,1.39,0,0,0-2.11-1.73A8,8,0,0,0,89,40.36,1.44,1.44,0,0,0,90.34,42.41ZM67.12,32.75c1-.14,1.17,0,1.21.85,0,.34-.09.71.2,1a.47.47,0,0,0,.57-.1,4.88,4.88,0,0,0-.43-2.14A3.58,3.58,0,0,0,69,32a1.07,1.07,0,0,0-.61-1.64,6,6,0,0,0-1.84,0v4.18a.5.5,0,0,0,.61,0ZM82.5,36.61a11.07,11.07,0,0,1,1.38.67,1,1,0,0,1,0,.52.74.74,0,0,0,0,.46.51.51,0,0,0,.3.21.35.35,0,0,0,.34,0c.17-1.46.4-3,.5-4.43a1.39,1.39,0,0,0-.74-.3l-3,3.33c.24.13.38.27.6.25ZM40.85,45c.48.85,1.54.73,2.12-.16a1.12,1.12,0,0,0,.11-1.26A1.16,1.16,0,0,0,42,42.9a3.47,3.47,0,0,0-.9.16,1.74,1.74,0,0,1-.75.16.57.57,0,0,1-.59-.56.63.63,0,0,1,.7-.55c.19,0,.31.23.55.16.08-.13.3-.19.28-.45a1.09,1.09,0,0,0-.9-.44,1.45,1.45,0,0,0-1.25,1.53,1.16,1.16,0,0,0,1.5,1c.32-.07.63-.19.94-.27.47-.12.83,0,1,.36s-.05.6-.47.84a.77.77,0,0,1-.19,0c-.26,0-.43-.21-.65-.3A.71.71,0,0,0,40.85,45Zm4-6.81a.75.75,0,0,1,.74-.55l.52.37.29-.21a.93.93,0,0,0,.13-.15A1,1,0,0,0,45,37.13a1.23,1.23,0,0,0-.62,1.66,1.08,1.08,0,0,0,1,.66,10.7,10.7,0,0,0,1.27-.11.67.67,0,0,1,.72.45.59.59,0,0,1-.25.68c-.28.24-.48.24-.83,0-.11-.08-.16-.25-.34-.22s-.33.17-.38.37a1.23,1.23,0,0,0,2.12.15A1.06,1.06,0,0,0,48,39.57a1.23,1.23,0,0,0-1.15-.89,5.33,5.33,0,0,0-1.05.1C45.29,38.86,45.13,38.75,44.9,38.16ZM52,37.42a9.53,9.53,0,0,1-.48-1.13c.37-.37.93-.38,1.28-.79-.09-.13-.09-.32-.31-.4l-1.27.56a4.29,4.29,0,0,1-.5-1.07c.46-.32,1-.4,1.37-.77a.56.56,0,0,0-.28-.45,18.41,18.41,0,0,0-2,1c.33.69.62,1.34.93,2a17.55,17.55,0,0,0,1,1.94,22.2,22.2,0,0,0,2.08-1c-.11-.16-.12-.33-.32-.43C53,36.91,52.58,37.27,52,37.42Zm10.06-3.78c0,.09,0,.16,0,.22-.1.55-.22.7-.6.72s-.55-.13-.65-.61a13.4,13.4,0,0,1-.31-1.88c-.06-.7.2-.89.93-.79.22.14.18.43.39.6a1.18,1.18,0,0,0,.26,0,.28.28,0,0,0,.22-.16c0-.64-.23-.95-.69-1.08A1.41,1.41,0,0,0,59.74,32a9.39,9.39,0,0,0,.39,2.29,1.22,1.22,0,0,0,1.59.9c.76-.17,1.05-.61,1-1.47,0,0,0-.07-.09-.11A1,1,0,0,0,62.05,33.64Zm2.16.48a3.57,3.57,0,0,1-.07-1.31l.67,0a1.23,1.23,0,0,0,.68-.12.38.38,0,0,0-.07-.49H64.05A4.13,4.13,0,0,1,64,31c.5-.14,1,0,1.47-.17a.38.38,0,0,0-.06-.52,7.47,7.47,0,0,0-2.18.21l.32,4.23a7.22,7.22,0,0,0,2.25-.19.42.42,0,0,0-.12-.51A6.36,6.36,0,0,1,64.21,34.12ZM81.88,34c.27-.84.16-1.22-.43-1.52a1.27,1.27,0,0,0-1.77.3,6.28,6.28,0,0,0-.89,2.8,1,1,0,0,0,.39.87A1.29,1.29,0,0,0,81.31,36c0-.06.07-.12,0-.2a.68.68,0,0,0-.54-.16l-.14.2c-.28.36-.52.45-.84.32a.63.63,0,0,1-.32-.84,12.22,12.22,0,0,1,.71-2,.59.59,0,0,1,.76-.33c.31.09.41.28.38.72,0,.06-.07.13,0,.21A.6.6,0,0,0,81.88,34Zm-4.75-2.09c.12-.2.21-.34.1-.57A14.69,14.69,0,0,0,75.12,31l-.83,4.13a.51.51,0,0,0,.59.16c.31-.53.16-1.23.49-1.77.48,0,.89.23,1.34.16a.46.46,0,0,0,.1-.47c-.4-.24-.92-.12-1.33-.41a4.5,4.5,0,0,1,.21-1.12ZM42.74,39l.6,1.93-1.81-.9c-.18.14-.41.2-.49.48a13.25,13.25,0,0,0,1.77.88,3.27,3.27,0,0,1,1.38,1.06c.15.2.28.44.57.5s.33-.18.36-.39a1.59,1.59,0,0,0-.43-.56,3.05,3.05,0,0,1-.84-1.52c-.16-.59-.37-1.16-.55-1.75a.16.16,0,0,0-.14-.13A.91.91,0,0,0,42.74,39ZM49,34.73l-2.4,1.41c.08.25.15.4.36.46l.88-.46,1.86,3.15a.54.54,0,0,0,.57-.34l-1.82-3.14c.26-.28.62-.34.82-.61C49.27,35,49.2,34.88,49,34.73ZM86.9,35.78l-1.82,3.15a.73.73,0,0,0,.57.34l1.87-3.19.9.49a.55.55,0,0,0,.29-.52l-2.38-1.36c-.19.16-.31.27-.25.49S86.64,35.48,86.9,35.78ZM69.85,30.31c-.14.23-.17.4,0,.58.29.1.61,0,.92.16,0,1.21-.22,2.42-.22,3.64a.51.51,0,0,0,.63,0c.15-1.16.15-2.36.34-3.51.38-.16.76.08,1.07-.13a.39.39,0,0,0-.08-.48Zm19.6,6.32L87,40.15a.77.77,0,0,0,.57.38L90,37A.85.85,0,0,0,89.45,36.63Zm-11.81-.82,1-4a.52.52,0,0,0-.65-.15L77,35.74A.57.57,0,0,0,77.64,35.81Zm-3.6-5a.57.57,0,0,0-.67,0L72.79,35a.65.65,0,0,0,.66,0Z"/><path class="cls-1" d="M108.89,115c.11-1,0-1.93,0-3-2.6-.06-5.17,0-7.73,0H70.34a.54.54,0,0,1,0-.62H81.05l.09-.11c-1.64-1-1.94-2.51-1.81-4.26h3c.09.4,0,.83.11,1.24a1.42,1.42,0,0,0,1.14,1.21,1.58,1.58,0,0,0,1.71-.54,1.75,1.75,0,0,0,.07-1.82,2.51,2.51,0,0,0-.76-.83,14.36,14.36,0,0,0-1.49-.94A14.46,14.46,0,0,1,81,103.88a4.2,4.2,0,0,1-1.13-5,3.4,3.4,0,0,1,2.74-2,8,8,0,0,1,3.09,0,3.16,3.16,0,0,1,2.77,3.1,2.82,2.82,0,0,1,0,1.08H85.56a6.75,6.75,0,0,0-.16-1.11,1.28,1.28,0,0,0-1.56-1,1.32,1.32,0,0,0-1.22,1.33,1.75,1.75,0,0,0,.56,1.46,5.88,5.88,0,0,0,1.33.93c.8.45,1.61.88,2.37,1.41a4.44,4.44,0,0,1,1.41,5.44A2.81,2.81,0,0,1,87,111l-.46.25a31.59,31.59,0,0,0,5.1.07.11.11,0,0,0-.07-.16,3.69,3.69,0,0,1-2.06-3,25.6,25.6,0,0,1-.21-5.93,11.21,11.21,0,0,1,.32-2.23,4,4,0,0,1,3.46-3.1,6.82,6.82,0,0,1,3.08.13,3.69,3.69,0,0,1,2.8,3.28,2,2,0,0,1,0,1.15H96a7.25,7.25,0,0,0-.15-1.23,1.64,1.64,0,0,0-3-.37,4.74,4.74,0,0,0-.42,1.78,34.73,34.73,0,0,0,0,5.3,6,6,0,0,0,.3,1.52,1.41,1.41,0,0,0,1.46,1.1,3.45,3.45,0,0,0,1.76-.29v-3.09c-.52-.15-1,0-1.56-.12v-2.16c1.52,0,3.05,0,4.55,0a61.85,61.85,0,0,1,0,7.46h2.64a4.08,4.08,0,0,1-1.8-4.32h2.9c.19.35.08.77.16,1.15a1.61,1.61,0,0,0,2.17,1.28,1.64,1.64,0,0,0,.68-2.48,4,4,0,0,0-1.1-1c-.58-.36-1.18-.7-1.76-1.05a8.46,8.46,0,0,1-2-1.52,4.27,4.27,0,0,1,.14-5.55,3.85,3.85,0,0,1,1.41-.78,7.67,7.67,0,0,1,3.92-.14,3.13,3.13,0,0,1,2.45,2.19,5.87,5.87,0,0,0,.11-1.68c0-.55,0-1.09,0-1.63V94.19a.46.46,0,0,1,.64,0v17a1.13,1.13,0,0,0,.68.1h4a1.44,1.44,0,0,1,.77.09V112a30.66,30.66,0,0,0-5.39.09V115Zm-2.77-13.89c-.06-.3-.09-.51-.13-.71a2.38,2.38,0,0,0-.19-.68,1.48,1.48,0,0,0-2.72.28,1.77,1.77,0,0,0,.38,1.59,4.22,4.22,0,0,0,1.05.84c.68.38,1.36.75,2,1.14a5.28,5.28,0,0,1,2.23,2.21s.08,0,.12,0v-4.68Zm2.72,8.32a4.19,4.19,0,0,1-1.88,1.89,6.63,6.63,0,0,0,2,0A6.09,6.09,0,0,0,108.84,109.39Z"/><path class="cls-1" d="M83.87,53.34,67.66,69.55l-6.88-6.88c-.16.58-.21,9.2-.1,10.6l7.11,7.09L88.42,59.73a23,23,0,1,1-34.36-8.59C64,43.79,77.09,46.07,83.87,53.34Z"/><path class="cls-1" d="M29.88,83.61a2,2,0,0,1-2.09-1.21,3.12,3.12,0,0,1-.26-1,1.87,1.87,0,0,1,1.16-2.12,16.49,16.49,0,0,1,3.7-1.13,1.64,1.64,0,0,1,1,.16,2.39,2.39,0,0,1,1.36,2.16,1.82,1.82,0,0,1-1,1.93A15.69,15.69,0,0,1,29.88,83.61Zm2.52-4a2.15,2.15,0,0,0-.33.06l-2.29.7a2.94,2.94,0,0,0-.51.23c-.48.28-.57.5-.4,1s.39.64.9.56a5.74,5.74,0,0,0,.82-.19,17.8,17.8,0,0,0,2.28-.73.76.76,0,0,0,.49-1C33.26,79.85,33,79.63,32.4,79.64Z"/><path class="cls-1" d="M28.57,74.06a3,3,0,0,1,.2,1.25,3.06,3.06,0,0,1-.66.24.67.67,0,0,0-.46.77.8.8,0,0,0,.55.75.71.71,0,0,0,.82-.39,8.76,8.76,0,0,0,.35-.84c.11-.27.18-.54.3-.8a2,2,0,0,1,2.38-1.28,2.15,2.15,0,0,1,1.55,2,1.84,1.84,0,0,1-2.14,2.09l-.22-1.19a.79.79,0,0,1,.54-.25.54.54,0,0,0,.47-.61.68.68,0,0,0-.46-.71.64.64,0,0,0-.72.33,2.61,2.61,0,0,0-.32.7,5.64,5.64,0,0,1-.56,1.37,2.07,2.07,0,0,1-2.26,1,1.9,1.9,0,0,1-1.48-1.54,3.45,3.45,0,0,1-.15-1,1.78,1.78,0,0,1,1.23-1.73A2.12,2.12,0,0,1,28.57,74.06Z"/><path class="cls-1" d="M31.42,86.06a6.19,6.19,0,0,1,.61,1.1c-.23.31-.88.39-.5,1a1.68,1.68,0,0,0,1.34-.31l-.23-.31A1.65,1.65,0,0,1,33,85.15a3.5,3.5,0,0,1,1.44-.72,1.83,1.83,0,0,1,2.07,1,1.7,1.7,0,0,1-.36,2.23,10.69,10.69,0,0,1-3.69,1.89,1.76,1.76,0,0,1-2.34-1.65A1.64,1.64,0,0,1,31.42,86.06Zm2.2.54c.27.49.41.57.82.44a2.33,2.33,0,0,0,.8-.44.47.47,0,0,0-.4-.84A1.85,1.85,0,0,0,33.62,86.6Z"/><path class="cls-1" d="M35.21,95.55a1.61,1.61,0,0,1,.49-1.25,12,12,0,0,1,2.91-2.44,1.86,1.86,0,0,1,2.86,1.34,1.43,1.43,0,0,1-.27,1.14,9.08,9.08,0,0,1-3.54,2.94A1.79,1.79,0,0,1,35.21,95.55Zm4.9-2.25a.44.44,0,0,0-.7-.26,11,11,0,0,0-2.7,2.25.47.47,0,0,0,0,.66.77.77,0,0,0,.84-.15,15.93,15.93,0,0,0,2.26-1.92A1.14,1.14,0,0,0,40.11,93.3Z"/><path class="cls-1" d="M34.18,93.68a1.94,1.94,0,0,1-1.69-2.46,3,3,0,0,1,.83-1,16.52,16.52,0,0,1,2.59-1.7,2.13,2.13,0,0,1,1.62-.28,1.88,1.88,0,0,1,1,3,3.35,3.35,0,0,1-.6.59,20,20,0,0,1-2.36,1.55A2.57,2.57,0,0,1,34.18,93.68Zm-.48-1.83c.34.52.38.55.81.36a14,14,0,0,0,2.38-1.5,3.13,3.13,0,0,0,.47-.42c.19-.21.29-.44,0-.69a1.1,1.1,0,0,0-1,.25A8.32,8.32,0,0,0,33.7,91.85Z"/><path class="cls-1" d="M41.88,96.2c-.27-.29-.59-.2-.9-.36l1-1,1.54.22.78.72-4.65,4.88a8.5,8.5,0,0,1-1-1Z"/><path class="cls-1" d="M33,71.6A5.25,5.25,0,0,1,33,73l-6.79.5A2.47,2.47,0,0,1,26,72.08C28.35,71.92,30.64,71.7,33,71.6Z"/><path class="cls-1" d="M92.15,39.55a7.26,7.26,0,0,1-2,2.25,1,1,0,0,1-.79-.67,2.07,2.07,0,0,1,.57-1l.71-.87C91.25,38.55,91.75,38.64,92.15,39.55Z"/><path class="cls-1" d="M67.29,30.84c.43,0,.84-.09,1.09.34a.57.57,0,0,1-.07.66c-.29.37-.68.32-1.1.22A1.68,1.68,0,0,1,67.29,30.84Z"/><path class="cls-1" d="M84,36.55A3.11,3.11,0,0,1,83,36.13l1.21-1.41A8.17,8.17,0,0,1,84,36.55Z"/></svg>