<svg id="圖層_1" data-name="圖層 1" xmlns="http://www.w3.org/2000/svg" viewBox="0 0 140 140"><defs><style>.cls-1{fill:gray;}</style></defs><title>bluesign</title><path class="cls-1" d="M11.49,12.28c0,.7.07,1.39.07,2.08V127.64H125.17c.58,0,1.17,0,1.75.08V12.28Zm29.42,89.49c-1.67,1.44-3.57,1.3-5.54-.47l-.25,1.07H32.35c0-.28,0-.53-.06-.84l1.34-.38v-11l-1.27-.42v-.84l3.14,0,0,5.39c1.87-1.53,3.5-1.72,5.16-.69A4.23,4.23,0,0,1,42.55,97,5.15,5.15,0,0,1,40.91,101.77Zm7.39.59a20.54,20.54,0,0,1-4.57,0c-.35-1.3.85-.81,1.29-1.28V90.22l-1.31-.44c0-.25,0-.45-.05-.72l3.1-.15a39,39,0,0,1,.08,4c0,1.39,0,2.78,0,4.16s0,2.66,0,4.11l1.46.28Zm8.64,0c-.11-.29-.23-.63-.36-1a3.18,3.18,0,0,0-.35.26,3.35,3.35,0,0,1-2.88,1.1,3,3,0,0,1-2.8-3c-.1-1.12-.06-2.25-.08-3.37,0-.58,0-1.15,0-1.77l-1.41-.34v-1h3.21l0,5.85a1.94,1.94,0,0,0,1.6,2.09,2.26,2.26,0,0,0,2.43-1.43,3.05,3.05,0,0,0,.26-1.07c0-1.33,0-2.67,0-4.07l-1.44-.37c0-.3-.06-.55-.09-.85l3.3-.15v7.91l1.07.39c0,.22,0,.46,0,.82Zm8.46-1a22,22,0,0,0,2.42-.28c.16.28.3.55.44.79-.09.14-.13.28-.21.31a6.19,6.19,0,0,1-3.71.55,4.2,4.2,0,0,1-3.64-3.51,5.25,5.25,0,0,1,1.33-5,3.9,3.9,0,0,1,4.27-1,3.46,3.46,0,0,1,2.37,3.11c.07.56.07,1.13.13,2H62.34A2.83,2.83,0,0,0,65.4,101.32Zm9.58,1a4.61,4.61,0,0,1-4.51-.4l.41-1.11c1.46.38,3.45,1.2,4-.47a1.64,1.64,0,0,0-1.1-1.71c-.47-.24-1-.41-1.44-.67a2.44,2.44,0,0,1-1.55-2.84A2.93,2.93,0,0,1,73.32,93a4,4,0,0,1,2.8.56c-.07.37-.2,1-.26,1.25l-.36-.15A4,4,0,0,0,74,94.39c-1.39,0-2,1.16-1.34,1.86a5.35,5.35,0,0,0,1.73.93,4,4,0,0,1,1.35.82A2.55,2.55,0,0,1,75,102.34Zm4.31.06-.14-7.75-1.24-.41v-.93l2.91,0,.08,9.11Zm.79-10.75a1,1,0,0,1-1-1,1.07,1.07,0,0,1,1.07-1.12,1.07,1.07,0,0,1-.08,2.13Zm11.71,2c0,2.51,0,5,0,7.52,0,.48,0,1-.05,1.44a3.84,3.84,0,0,1-3.42,3.79,7,7,0,0,1-4.36-.64c.19-.48.33-.81.47-1.17.63.15,1.19.26,1.75.41,2.51.49,4.15-1,3.85-3.06,0-.16,0-.32,0-.47a5.4,5.4,0,0,1-2.2,1,3.72,3.72,0,0,1-4.35-2.88,5.8,5.8,0,0,1,.31-4.21,4,4,0,0,1,6.46-1.14l.27-.91,1.34,0Zm13,8.76h-4.57v-.88h1.35c0-1.54,0-3.36,0-4.85s-.82-2.21-2-2.2a2.36,2.36,0,0,0-2.31,2.22c-.08,1.48,0,3.29,0,4.83h1.39v.87l-4.57,0v-.91h1.41c0-2.13,0-4.67,0-6.91L94,94.22c0-.3,0-.54,0-1L97,93l0,1.37a10.79,10.79,0,0,1,1.71-1.1,3.2,3.2,0,0,1,4.56,2.89c.08,1.11,0,2.24,0,3.36v2c.56.13,1-.11,1.45,0Zm.81-8.79a2.25,2.25,0,1,1,2.24-2.24A2.24,2.24,0,0,1,105.56,93.59Z"/><path class="cls-1" d="M37.81,94.44a2.5,2.5,0,0,0-2.2,2,9.34,9.34,0,0,0-.11,1.26c0,.49,0,.81.06,1.12a2.44,2.44,0,0,0,2.09,2.45,2.57,2.57,0,0,0,2.79-1.66,4.45,4.45,0,0,0,0-3.71A2.44,2.44,0,0,0,37.81,94.44Z"/><path class="cls-1" d="M88.53,94.57A2.28,2.28,0,0,0,86,95a4.24,4.24,0,0,0-.8,4.32A2.64,2.64,0,0,0,88.5,101,2.25,2.25,0,0,0,90,98.92c0-.8,0-1.6,0-2.39A2.2,2.2,0,0,0,88.53,94.57Z"/><path class="cls-1" d="M65,94.33c-1.39-.1-2.07.51-2.69,2.45H67C66.74,95,66.21,94.42,65,94.33Z"/><path class="cls-1" d="M105.56,89.4a1.95,1.95,0,1,0,2,1.95A1.95,1.95,0,0,0,105.56,89.4Zm.69,3L106,92a2.45,2.45,0,0,0-.21-.3.46.46,0,0,0-.14-.14l-.13-.06H105v1h-.29V90.26h1a1.25,1.25,0,0,1,.44.06.47.47,0,0,1,.24.2.63.63,0,0,1,.09.33.53.53,0,0,1-.15.39.73.73,0,0,1-.46.2,1,1,0,0,1,.17.11,1.37,1.37,0,0,1,.24.29l.38.59Z"/><path class="cls-1" d="M106.08,91.05a.36.36,0,0,0,.06-.2.3.3,0,0,0-.12-.25.49.49,0,0,0-.35-.1H105v.72h.62a1.23,1.23,0,0,0,.31,0A.37.37,0,0,0,106.08,91.05Z"/></svg>