<svg id="圖層_1" data-name="圖層 1" xmlns="http://www.w3.org/2000/svg" viewBox="0 0 140 140"><defs><style>.cls-1{fill:gray;}</style></defs><title>blobalrecycledstandard</title><path class="cls-1" d="M11.16,75.17A34,34,0,0,1,33.7,46.75c14.8-5.39,30.37,1,37.74,10.77l-4.12.58,10.07,8.29-1-13-3.12,3.27C59.37,37.09,34.68,37.81,20.79,49.89,5.62,63.07,6.33,84,13.73,93.82,11.53,87.78,10.32,81.65,11.16,75.17Z"/><path class="cls-1" d="M24.32,71.23A54.58,54.58,0,0,1,31,66.88l.94.6c.31-.42,0-1,.59-1.6a93.94,93.94,0,0,1,9.93-5.36l1.3.76c-.11-.52-.17-.85-.25-1.23a30.58,30.58,0,0,1,5.94-2.19,24.1,24.1,0,0,1,5.16,4.67c-.63.59-1.18,1.13-1.75,1.62s-1.3,1-1.94,1.58-1.31.6-1.47,1.57A48.59,48.59,0,0,0,55,63.6c.58,0,.68.7,1.18.45.06-.46-.47-.78-.09-1.4,1.59-1.64,3.63-3.18,4.51-5.74l1.5,1.33c.48.4,1,.76,1.43,1.2s.87,1.09,1.36,1.57a2.67,2.67,0,0,0,1.67,1.16c-1-1.3-1.76-2.32-2.6-3.23a28.21,28.21,0,0,0-3.29-3.18A26,26,0,0,0,40.2,50.49,26,26,0,0,0,26,56.94C17.69,64.57,14.6,74,17,85.16A18.48,18.48,0,0,0,17.46,87c.17.58.41,1.14.62,1.71a78.06,78.06,0,0,1-.87-9.11,10.3,10.3,0,0,0,6.92-1v0l.95.86C24.92,76.53,23.64,74,24.32,71.23Zm7.33-6.43L31.33,62A24.73,24.73,0,0,0,40,58.44c1,.16,1.42.78,2,1.51C38.55,61.56,35.05,63,31.65,64.8Zm11.63-5.29-1.87-2a12.43,12.43,0,0,1,2.22-2.37,13,13,0,0,1,4.84,2.13C46.75,58.36,44.93,58.66,43.28,59.51Zm12,2.3c-1.51-1.25-2.36-3-4.09-4.3,3.17-1.3,6.53-1.44,7.94-.38C58.36,59,56.81,60.29,55.32,61.81ZM57.63,55c-2.85.08-5.08,1.08-7.45,1.64a17.68,17.68,0,0,0-5.51-2.83c-.11-.62-.17-1-.25-1.43l-.28.84a.73.73,0,0,1-.77.21c-1.38-.64-3,0-4.55-1A27.16,27.16,0,0,1,57.63,55ZM43,54.94,40.77,56.5c-2.12-.79-4-2.3-6.28-2.38A16.93,16.93,0,0,1,43,54.94Zm-10.78-.11c1.94-.06,3.13.41,6.78,2.62a34.57,34.57,0,0,1-7.73,3.89A28,28,0,0,1,32.22,54.83Zm-1.28.86a17.09,17.09,0,0,0-1,5.94,12.57,12.57,0,0,1-3.58.15C27.62,59.55,28.58,57.15,30.94,55.69Zm-1,6.6a19,19,0,0,0,.53,3.12l-6.25,3.86A20.29,20.29,0,0,1,26,62.74,16.34,16.34,0,0,0,29.91,62.29Zm-6-.64.71.48c-.23.66-.7,1.74-.9,2.4a22.67,22.67,0,0,0-.75,2.8A22,22,0,0,0,22.81,70c-1.45,1.8-3.38,2.77-4.67,4.47C17.78,71.72,20.33,66.08,23.94,61.65Zm.19,16.87c-1.09,0-2.21.19-3.34.17a13.87,13.87,0,0,1-3.25-.78c.93-2.56,3.25-3.79,5.27-5.65C22.92,74.59,23.87,76.48,24.13,78.52Z"/><path class="cls-1" d="M35.94,90l2.76-1.57L26.88,83.71l5,11.79,1.69-3.4c10.19,8.49,25.23,7.94,31.37,3.13C54.63,96.54,45,95.35,35.94,90Z"/><path class="cls-1" d="M36.6,70.66a5.45,5.45,0,0,1,2.31.42l.47-1.8a7.06,7.06,0,0,0-2.76-.47C33.37,68.81,31,70.68,31,74a4.84,4.84,0,0,0,1.4,3.61,5.53,5.53,0,0,0,4,1.34,10.93,10.93,0,0,0,3.31-.56V73.14H36v1.75h1.54V77a3.26,3.26,0,0,1-1.1.14,3.23,3.23,0,0,1,.16-6.46Z"/><rect class="cls-1" x="41.42" y="68.37" width="2.24" height="10.45"/><path class="cls-1" d="M45.05,75.28A3.53,3.53,0,0,0,48.77,79a3.61,3.61,0,0,0,3.8-3.84,3.5,3.5,0,0,0-3.67-3.69A3.6,3.6,0,0,0,45.05,75.28Zm5.21-.07c0,1.3-.56,2.18-1.43,2.18s-1.47-.94-1.47-2.16.41-2.17,1.47-2.17S50.26,74.15,50.26,75.21Z"/><path class="cls-1" d="M53.94,68.37v8.3c0,.82,0,1.68,0,2.16h1.9l.09-1h0A2.35,2.35,0,0,0,58.07,79c1.65,0,3.29-1.3,3.29-3.89,0-2.21-1.24-3.64-3-3.64a2.54,2.54,0,0,0-2.18,1h0V68.37Zm2.29,5.92a1.37,1.37,0,0,1,1.32-1.1c1,0,1.54.88,1.54,2,0,1.3-.6,2-1.55,2a1.38,1.38,0,0,1-1.32-1.07,2.29,2.29,0,0,1,0-.39V74.71A1.87,1.87,0,0,1,56.23,74.29Z"/><path class="cls-1" d="M62.27,76.78A2.2,2.2,0,0,0,64.6,79a2.59,2.59,0,0,0,2.06-.88h0l.13.72h2a10.24,10.24,0,0,1-.12-1.75V74.57c0-1.69-.76-3.11-3.15-3.11a5.9,5.9,0,0,0-2.8.64l.41,1.44a4.11,4.11,0,0,1,2-.54c1.12,0,1.32.55,1.32.93V74C64,74,62.27,74.91,62.27,76.78Zm4.3-1.36v.79a1.64,1.64,0,0,1,0,.38,1.23,1.23,0,0,1-1.16.83.81.81,0,0,1-.89-.87C64.48,75.7,65.39,75.41,66.57,75.42Z"/><rect class="cls-1" x="70.52" y="68.37" width="2.24" height="10.45"/><path class="cls-1" d="M82.8,78.83h2.3a26.14,26.14,0,0,1-.8-2.8A2.49,2.49,0,0,0,83,74.18v-.05a2.61,2.61,0,0,0,1.75-2.44,2.52,2.52,0,0,0-.91-2.08,5.09,5.09,0,0,0-3.22-.78,19.25,19.25,0,0,0-3,.21v9.79h2.23v-3.9h.66c.93,0,1.34.34,1.62,1.58A12.8,12.8,0,0,0,82.8,78.83Zm-2.08-5.52h-.88V70.57a4.71,4.71,0,0,1,1-.07c1,0,1.64.47,1.64,1.38S81.83,73.31,80.72,73.31Z"/><path class="cls-1" d="M92,77a6.06,6.06,0,0,1-2,.3c-1,0-2-.44-2-1.37h4.63a4.15,4.15,0,0,0,.08-.88c0-1.79-.88-3.6-3.22-3.6a3.61,3.61,0,0,0-3.63,3.85c0,2.25,1.41,3.67,3.85,3.67a7.11,7.11,0,0,0,2.61-.45ZM89.39,73a1.31,1.31,0,0,1,1.26,1.46H88A1.48,1.48,0,0,1,89.39,73Z"/><path class="cls-1" d="M99.2,77a3.3,3.3,0,0,1-1.29.24,2,2,0,0,1,0-4,3,3,0,0,1,1.25.23l.35-1.66a5.11,5.11,0,0,0-1.71-.29,3.76,3.76,0,0,0-4.12,3.83A3.49,3.49,0,0,0,97.46,79a5.44,5.44,0,0,0,2-.33Z"/><path class="cls-1" d="M105.28,71.62l-.89,3.54c-.1.42-.22,1-.32,1.34h0c-.1-.38-.24-.92-.36-1.34l-1.08-3.54h-2.48l2.64,6.59a.92.92,0,0,1,.1.37.7.7,0,0,1-.12.33,2.64,2.64,0,0,1-.93.89,3.07,3.07,0,0,1-1,.38l.48,1.89a4,4,0,0,0,2.15-1c.82-.72,1.51-1.87,2.54-4.73l1.67-4.74Z"/><path class="cls-1" d="M111.79,79a5.48,5.48,0,0,0,2-.33L113.53,77a3.3,3.3,0,0,1-1.29.24,2,2,0,0,1,0-4,3,3,0,0,1,1.25.23l.35-1.66a5.11,5.11,0,0,0-1.71-.29A3.76,3.76,0,0,0,108,75.29,3.49,3.49,0,0,0,111.79,79Z"/><rect class="cls-1" x="115.02" y="68.37" width="2.24" height="10.45"/><path class="cls-1" d="M122.29,71.46a3.62,3.62,0,0,0-3.64,3.85c0,2.25,1.41,3.67,3.85,3.67a7.11,7.11,0,0,0,2.61-.45L124.8,77a6.06,6.06,0,0,1-2,.3c-1,0-2-.44-2-1.37h4.63a4.15,4.15,0,0,0,.08-.88C125.5,73.27,124.62,71.46,122.29,71.46Zm-1.52,3a1.49,1.49,0,0,1,1.4-1.46,1.3,1.3,0,0,1,1.25,1.46Z"/><path class="cls-1" d="M133.81,76.67v-8.3h-2.24v3.9h0a2.19,2.19,0,0,0-1.89-.81c-1.72,0-3.24,1.41-3.23,3.83,0,2.24,1.38,3.7,3.08,3.7a2.5,2.5,0,0,0,2.25-1.22h0l.1,1.06h2C133.84,78.34,133.81,77.49,133.81,76.67Zm-2.24-1a2.1,2.1,0,0,1,0,.51,1.32,1.32,0,0,1-1.29,1.07c-.94,0-1.53-.76-1.53-2s.52-2,1.54-2a1.32,1.32,0,0,1,1.3,1.09,1.89,1.89,0,0,1,0,.41Z"/><path class="cls-1" d="M64.48,85.38c-1.36-.52-2-.89-2-1.67,0-.61.51-1.24,1.69-1.24a4.34,4.34,0,0,1,2.05.49l.45-1.51a5.45,5.45,0,0,0-2.46-.51c-2.22,0-3.62,1.27-3.62,2.94,0,1.47,1.08,2.38,2.77,3,1.3.47,1.82.93,1.82,1.7S64.55,90,63.35,90a5.25,5.25,0,0,1-2.47-.65l-.42,1.54a5.89,5.89,0,0,0,2.77.65c2.65,0,3.89-1.42,3.89-3.07C67.12,87,66.26,86.06,64.48,85.38Z"/><path class="cls-1" d="M70.82,81.83,69,82.27V84h-1v1.39h1v3.48a3,3,0,0,0,.59,2.08,2.19,2.19,0,0,0,1.61.6,4.06,4.06,0,0,0,1.36-.19l0-1.42a3.15,3.15,0,0,1-.73.08c-.71,0-1-.46-1-1.36V85.34H72.6V84H70.82Z"/><path class="cls-1" d="M79.74,86.9c0-1.62-.67-3.12-3-3.12a5.35,5.35,0,0,0-2.68.66l.37,1.21a4,4,0,0,1,2-.55c1.31,0,1.5.8,1.5,1.29v.12c-2.72,0-4.39.94-4.39,2.8a2.2,2.2,0,0,0,2.34,2.2,2.68,2.68,0,0,0,2.18-1h0l.13.83h1.69a11.28,11.28,0,0,1-.12-1.79Zm-1.82,1.84a1.44,1.44,0,0,1,0,.41,1.53,1.53,0,0,1-1.46,1,1,1,0,0,1-1.07-1.07c0-1.13,1.26-1.41,2.58-1.39Z"/><path class="cls-1" d="M85.79,83.78a2.69,2.69,0,0,0-2.36,1.28h0L83.3,84H81.66c0,.64.06,1.34.06,2.2v5.2H83.6V87a2.05,2.05,0,0,1,.08-.59,1.56,1.56,0,0,1,1.46-1.1c1,0,1.41.81,1.41,1.87v4.18h1.87V87C88.42,84.61,87.08,83.78,85.79,83.78Z"/><path class="cls-1" d="M97.23,80.55H95.36v4.19h0a2.35,2.35,0,0,0-2.07-1c-1.78,0-3.33,1.47-3.32,4,0,2.28,1.4,3.78,3.17,3.78a2.63,2.63,0,0,0,2.4-1.34h0l.09,1.18h1.66c0-.51-.06-1.32-.06-2.08Zm-1.87,7.59a2.31,2.31,0,0,1,0,.54A1.66,1.66,0,0,1,93.69,90c-1.18,0-1.85-1-1.85-2.35s.67-2.43,1.87-2.43a1.65,1.65,0,0,1,1.61,1.31,2.7,2.7,0,0,1,0,.49Z"/><path class="cls-1" d="M105,86.9c0-1.62-.68-3.12-3-3.12a5.37,5.37,0,0,0-2.69.66l.37,1.21a4,4,0,0,1,2-.55c1.31,0,1.51.8,1.51,1.29v.12c-2.73,0-4.39.94-4.39,2.8a2.19,2.19,0,0,0,2.33,2.2,2.68,2.68,0,0,0,2.18-1h.05l.12.83h1.69a11.41,11.41,0,0,1-.11-1.79Zm-1.82,1.84a1.45,1.45,0,0,1-.06.41,1.52,1.52,0,0,1-1.46,1,1,1,0,0,1-1.07-1.07c0-1.13,1.27-1.41,2.59-1.39Z"/><path class="cls-1" d="M108.65,85.35h-.06l-.07-1.4H106.9c0,.66.07,1.38.07,2.38v5h1.87V87.51a2.57,2.57,0,0,1,0-.57,1.64,1.64,0,0,1,1.67-1.41,2.79,2.79,0,0,1,.55,0V83.82a2,2,0,0,0-.44,0A2.19,2.19,0,0,0,108.65,85.35Z"/><path class="cls-1" d="M119.06,80.55h-1.87v4.19h0a2.36,2.36,0,0,0-2.08-1c-1.77,0-3.32,1.47-3.31,4,0,2.28,1.4,3.78,3.16,3.78a2.65,2.65,0,0,0,2.41-1.34h0l.08,1.18h1.67c0-.51-.06-1.32-.06-2.08Zm-1.87,7.59a2.29,2.29,0,0,1-.06.54A1.66,1.66,0,0,1,115.52,90c-1.18,0-1.85-1-1.85-2.35s.66-2.43,1.87-2.43a1.65,1.65,0,0,1,1.61,1.31,2.7,2.7,0,0,1,0,.49Z"/></svg>