<svg id="圖層_1" data-name="圖層 1" xmlns="http://www.w3.org/2000/svg" viewBox="0 0 140 140"><defs><style>.cls-1{fill:gray;}</style></defs><title>iso14001</title><path class="cls-1" d="M38.61,85.1c-.13.75-.29,1.49-.37,2.25A22.45,22.45,0,0,0,39.37,98c1.46,3.84,4.29,5.64,8.39,5.57a15.62,15.62,0,0,0,5.46-1.28,36.77,36.77,0,0,0,10.47-6.84,83.2,83.2,0,0,0,14-16.29H78.8V77.38c.37-.59.74-1.18,1.09-1.77.06-.1.48-.88,1-1.93v5.49h3.15V69h-.73c.41-.81.72-1.45.83-1.72,0,0-.47.69-1.19,1.72H80.93v2.94c-.71,1-1.44,2-2.12,2.92V69H74.67l-1.59,6.19L71.49,69H67.36V79.17h2.57V71.41l2,7.76h2.33l2-7.76v7c-.63.86-1.2,1.62-1.46,2a63.78,63.78,0,0,1-16.71,14,25.89,25.89,0,0,1-8.72,3.13A8.73,8.73,0,0,1,39,90.5,31.49,31.49,0,0,1,38.61,85.1Z"/><path class="cls-1" d="M55,71.53a2.36,2.36,0,0,0-.79-1.8A3.2,3.2,0,0,0,52,69H46.09V79.17h5.42c.23,0,.7,0,1.41-.14a3.36,3.36,0,0,0,1.19-.33,2.77,2.77,0,0,0,1-1,2.85,2.85,0,0,0,.37-1.43A2.53,2.53,0,0,0,55,74.66a2.78,2.78,0,0,0-1.61-.9,2.58,2.58,0,0,0,1.09-.68A2.27,2.27,0,0,0,55,71.53Zm-5.76-.47h1.38a1.54,1.54,0,0,1,1,.25.87.87,0,0,1,.29.69.93.93,0,0,1-.29.73,1.58,1.58,0,0,1-1,.26H49.26ZM52,76.69a1.7,1.7,0,0,1-1.14.29h-1.6V74.92h1.59A1.81,1.81,0,0,1,52,75.2a.88.88,0,0,1,.33.72A1,1,0,0,1,52,76.69Z"/><path class="cls-1" d="M61.36,77.34A1.65,1.65,0,0,1,60,76.73a2.37,2.37,0,0,1-.4-1.11l-3,.18a4,4,0,0,0,1.13,2.54c.67.67,1.87,1,3.6,1a6,6,0,0,0,2.45-.43,3.39,3.39,0,0,0,1.51-1.25,3.22,3.22,0,0,0,.54-1.8,2.87,2.87,0,0,0-.41-1.51,3.06,3.06,0,0,0-1.29-1.12,12.6,12.6,0,0,0-3-.9,2.55,2.55,0,0,1-1-.38.57.57,0,0,1-.23-.43.7.7,0,0,1,.28-.57,1.27,1.27,0,0,1,.82-.23A1.58,1.58,0,0,1,62,71a1.56,1.56,0,0,1,.49,1l3-.17a3.13,3.13,0,0,0-1.22-2.31,5.12,5.12,0,0,0-3-.73,6.45,6.45,0,0,0-2.5.4,3,3,0,0,0-1.37,1.1A2.69,2.69,0,0,0,57,71.8a2.47,2.47,0,0,0,.89,2A6.77,6.77,0,0,0,60.8,75a3.92,3.92,0,0,1,1.61.59.9.9,0,0,1,0,1.44A1.53,1.53,0,0,1,61.36,77.34Z"/><path class="cls-1" d="M67.16,99.73a.14.14,0,0,0,.1,0,.12.12,0,0,0,0-.1.13.13,0,0,0,0-.1.14.14,0,0,0-.1,0H65.57a.14.14,0,0,0-.1,0,.13.13,0,0,0,0,.1.12.12,0,0,0,0,.1.14.14,0,0,0,.1,0Z"/><path class="cls-1" d="M67.49,100.59a.13.13,0,0,0,0-.1.14.14,0,0,0-.15-.15H65.24a.12.12,0,0,0-.1,0,.16.16,0,0,0,0,.11.14.14,0,0,0,0,.1.12.12,0,0,0,.1,0h2.14A.16.16,0,0,0,67.49,100.59Z"/><path class="cls-1" d="M70.47,102.28a.51.51,0,0,0,.38-.17,1.16,1.16,0,0,0,.18-.6,11.85,11.85,0,0,0,.11-1.63.39.39,0,0,0-.1-.27.46.46,0,0,0-.29-.11h-2.7a.14.14,0,0,0-.15.15.13.13,0,0,0,0,.1.16.16,0,0,0,.11,0h1s.05,0,0,0a5.18,5.18,0,0,1-.18.75,0,0,0,0,1-.06,0l-.72-.32h-.09a.2.2,0,0,0-.15.09.13.13,0,0,0,0,.09.19.19,0,0,0,.07.08,7.52,7.52,0,0,1,.79.34.05.05,0,0,1,0,.07,2.51,2.51,0,0,1-1.09,1.14.1.1,0,0,0-.06.1.11.11,0,0,0,0,.08.21.21,0,0,0,.15.07.15.15,0,0,0,.09,0,2.62,2.62,0,0,0,1.15-1.24s0,0,.06,0c.25.14.48.28.68.42a.15.15,0,0,0,.11,0,.13.13,0,0,0,.1-.07.17.17,0,0,0,0-.12.14.14,0,0,0-.07-.1,5.73,5.73,0,0,0-.72-.42.05.05,0,0,1,0-.07,6.59,6.59,0,0,0,.22-.9s0,0,.06,0h1.26s0,0,0,0c0,.69-.06,1.19-.1,1.49a1.17,1.17,0,0,1-.16.57.23.23,0,0,1-.19.08h0l-.66,0a.07.07,0,0,0-.08,0,.1.1,0,0,0,0,.09c0,.11.09.17.19.17l.51,0Z"/><path class="cls-1" d="M67.68,105a.27.27,0,0,0,.12-.06,2.91,2.91,0,0,0,.48-1.39.16.16,0,0,0,0-.12.17.17,0,0,0-.1-.06.12.12,0,0,0-.1,0,.15.15,0,0,0-.06.09,2.77,2.77,0,0,1-.46,1.29.12.12,0,0,0,0,.08.14.14,0,0,0,.06.12A.24.24,0,0,0,67.68,105Z"/><path class="cls-1" d="M69,102.26a.18.18,0,0,0-.13.06.12.12,0,0,0,0,.1.09.09,0,0,0,.05.08,6,6,0,0,1,1,.77.12.12,0,0,0,.11,0,.14.14,0,0,0,.1,0,.16.16,0,0,0,0-.12.15.15,0,0,0,0-.11,5.4,5.4,0,0,0-1-.74A.16.16,0,0,0,69,102.26Z"/><path class="cls-1" d="M66.93,103.1H65.8a.44.44,0,0,0-.29.11.42.42,0,0,0-.11.29v1.75a.14.14,0,0,0,0,.11.14.14,0,0,0,.11,0,.14.14,0,0,0,.1,0,.14.14,0,0,0,0-.11v-.15a0,0,0,0,1,0,0h1.19a.41.41,0,0,0,.28-.11.38.38,0,0,0,.12-.29V103.5a.38.38,0,0,0-.12-.29A.41.41,0,0,0,66.93,103.1Zm.1,1.62s0,0,0,0H65.75s-.06,0-.06,0v-1.28s0,0,.06,0H67s0,0,0,0Z"/><path class="cls-1" d="M67.28,101.3a.13.13,0,0,0-.1,0H65.55a.14.14,0,0,0-.11,0,.15.15,0,0,0,0,.11.13.13,0,0,0,0,.1.14.14,0,0,0,.11,0h1.63a.13.13,0,0,0,.1,0,.14.14,0,0,0,0-.1A.16.16,0,0,0,67.28,101.3Z"/><path class="cls-1" d="M67.29,102.22a.13.13,0,0,0-.1,0H65.54a.12.12,0,0,0-.1,0,.14.14,0,0,0,0,.2.12.12,0,0,0,.1,0h1.65a.13.13,0,0,0,.1,0,.15.15,0,0,0,0-.2Z"/><path class="cls-1" d="M70.62,104.56a.22.22,0,0,0-.15-.2.1.1,0,0,0-.09,0,.1.1,0,0,0-.06.08,1.77,1.77,0,0,1-.06.54.18.18,0,0,1-.19.11h-.83a.56.56,0,0,1-.23,0S69,105,69,104.92v-1.61a.16.16,0,0,0-.26-.11.16.16,0,0,0,0,.11v1.61a.56.56,0,0,0,.11.4.71.71,0,0,0,.45.1h.89a.42.42,0,0,0,.38-.17A1.37,1.37,0,0,0,70.62,104.56Z"/><path class="cls-1" d="M71.16,104.85a.13.13,0,0,0,.07.09l.06,0h.06a.2.2,0,0,0,.09-.09.12.12,0,0,0,0-.08v-.06a4.62,4.62,0,0,0-.67-1.33.18.18,0,0,0-.15-.08.18.18,0,0,0-.09,0,.11.11,0,0,0-.06.07.08.08,0,0,0,0,0,.19.19,0,0,0,0,.07A4.63,4.63,0,0,1,71.16,104.85Z"/><path class="cls-1" d="M75.67,101.59a.38.38,0,0,0-.12-.29.37.37,0,0,0-.28-.11h-2a.37.37,0,0,0-.28.11.38.38,0,0,0-.12.29v2.52a.17.17,0,0,0,0,.12.16.16,0,0,0,.11,0,.17.17,0,0,0,.17-.17v-.35s0-.05,0-.05h2a.41.41,0,0,0,.28-.11.4.4,0,0,0,.12-.29Zm-.33,1.74s0,.06,0,.06h-2s0,0,0-.06v-1.76s0-.06,0-.06h2s0,0,0,.06Z"/><path class="cls-1" d="M77.32,105.25a.75.75,0,0,0,.07-.34v-4.84s0,0,0,0h.67a.16.16,0,0,0,.11,0,.13.13,0,0,0,.05-.12.13.13,0,0,0-.05-.11.16.16,0,0,0-.11,0H72.31a.21.21,0,0,0-.12,0,.16.16,0,0,0,0,.11.17.17,0,0,0,0,.12.21.21,0,0,0,.12,0H77s.05,0,.05,0v4.84a.21.21,0,0,1,0,.15.23.23,0,0,1-.14,0l-.47,0-.64,0a.11.11,0,0,0-.1.06.13.13,0,0,0,0,.12.27.27,0,0,0,.27.19,6.66,6.66,0,0,0,1.18-.06A.43.43,0,0,0,77.32,105.25Z"/><path class="cls-1" d="M83.88,103.69a.38.38,0,0,0,.12-.28v-.88a.39.39,0,0,0-.12-.28.38.38,0,0,0-.28-.12H80.67a.38.38,0,0,0-.28.12.38.38,0,0,0-.11.28v.88a.37.37,0,0,0,.11.28.38.38,0,0,0,.28.12H83.6A.38.38,0,0,0,83.88,103.69Zm-3.23-.17s-.05,0-.05-.06v-1s0,0,.05,0h3s0,0,0,0v1s0,.06,0,.06Z"/><path class="cls-1" d="M79,102a.14.14,0,0,0-.07.12.11.11,0,0,0,0,.07.21.21,0,0,0,.16.09l.09,0a6,6,0,0,0,1.51-1.07,4.89,4.89,0,0,0,1.07-1.52.12.12,0,0,0-.06-.17l-.06,0a.14.14,0,0,0-.11,0H79.68a.14.14,0,0,0-.15.15.13.13,0,0,0,0,.1.16.16,0,0,0,.11.05h1.73v0a4.53,4.53,0,0,1-.76,1s0,0-.06,0a4,4,0,0,0-.86-.68l-.1,0a.18.18,0,0,0-.11.05.08.08,0,0,0,0,.09.08.08,0,0,0,.05.07,5,5,0,0,1,.85.7,0,0,0,0,1,0,.07A4.83,4.83,0,0,1,79,102Z"/><path class="cls-1" d="M85.24,102a.12.12,0,0,0-.07-.11,4.88,4.88,0,0,1-1.18-.75s0,0,0-.06a7.61,7.61,0,0,0,1-.75.11.11,0,0,0,0-.11.11.11,0,0,0,0-.09.21.21,0,0,0-.11,0,.16.16,0,0,0-.13.07,10.61,10.61,0,0,1-.92.75s-.05,0-.08,0a5.12,5.12,0,0,1-.49-.53s0,0,0-.07a10,10,0,0,0,1-.79.13.13,0,0,0,0-.1.12.12,0,0,0-.06-.1.21.21,0,0,0-.11,0,.16.16,0,0,0-.13.07c-.25.24-.54.49-.86.75,0,0,0,0-.07,0a4.58,4.58,0,0,1-.47-.76.18.18,0,0,0-.09-.08h-.11a.11.11,0,0,0-.08.07.13.13,0,0,0,0,.06.43.43,0,0,1,0,.05A6.6,6.6,0,0,0,83.4,101a5.75,5.75,0,0,0,1.53,1.14.16.16,0,0,0,.1,0h0a.27.27,0,0,0,.12-.09A.09.09,0,0,0,85.24,102Z"/><path class="cls-1" d="M79.26,105.3H85a.14.14,0,0,0,.11,0,.15.15,0,0,0,0-.11.13.13,0,0,0,0-.1.14.14,0,0,0-.11,0h-2v0a9.73,9.73,0,0,0,.51-.88.28.28,0,0,0,0-.13.12.12,0,0,0-.09-.08.2.2,0,0,0-.13,0,.21.21,0,0,0-.1.09,4.87,4.87,0,0,1-.41.79.17.17,0,0,0,0,.14.15.15,0,0,0,.09.1H79.26a.14.14,0,0,0-.11,0,.13.13,0,0,0,0,.1.15.15,0,0,0,0,.11A.14.14,0,0,0,79.26,105.3Z"/><path class="cls-1" d="M83.26,101.17H81a.12.12,0,0,0-.1,0,.14.14,0,0,0,0,.1.16.16,0,0,0,0,.11.12.12,0,0,0,.1,0h2.27a.15.15,0,0,0,.11,0,.21.21,0,0,0,0-.11.18.18,0,0,0,0-.1A.15.15,0,0,0,83.26,101.17Z"/><path class="cls-1" d="M80.9,103.88h-.08a.1.1,0,0,0-.07.07.11.11,0,0,0,0,.11,5.35,5.35,0,0,1,.35.78.13.13,0,0,0,.07.09.15.15,0,0,0,.13,0,.18.18,0,0,0,.09-.08.15.15,0,0,0,0-.13,3.77,3.77,0,0,0-.36-.76A.15.15,0,0,0,80.9,103.88Z"/><path class="cls-1" d="M88.63,105a.13.13,0,0,0,.12,0l1.21-.77a.14.14,0,0,0,.08-.13.15.15,0,0,0,0-.07.08.08,0,0,0-.07-.07.09.09,0,0,0-.09,0l-1.29.78a.14.14,0,0,0-.08.09v0a.31.31,0,0,0,0,.08A.17.17,0,0,0,88.63,105Z"/><path class="cls-1" d="M88.28,102.79a.11.11,0,0,0-.1,0,.13.13,0,0,0-.07.09,9,9,0,0,1-.26,1v0a.06.06,0,0,0,0,.05.09.09,0,0,0,.07.06s.06,0,.1,0a.12.12,0,0,0,.06-.08c.07-.2.17-.55.29-1a.17.17,0,0,0,0-.12A.15.15,0,0,0,88.28,102.79Z"/><path class="cls-1" d="M89.48,103.52a.11.11,0,0,0,.11,0,.18.18,0,0,0,.07-.1.17.17,0,0,0,0-.12,4.58,4.58,0,0,0-.55-.66.16.16,0,0,0-.11-.05.19.19,0,0,0-.1,0,.1.1,0,0,0,0,.08.1.1,0,0,0,0,.1,4.8,4.8,0,0,1,.53.68A.11.11,0,0,0,89.48,103.52Z"/><path class="cls-1" d="M86.53,104.2a.18.18,0,0,0,.1,0,.16.16,0,0,0,.09-.07.15.15,0,0,0,0-.11,5.19,5.19,0,0,0-.25-1.11.16.16,0,0,0-.06-.08.21.21,0,0,0-.11,0,.16.16,0,0,0-.08.06.14.14,0,0,0,0,.06s0,0,0,0a5.5,5.5,0,0,1,.23,1.11A.11.11,0,0,0,86.53,104.2Z"/><path class="cls-1" d="M91,101.82h-2.3a.13.13,0,0,0-.1,0,.14.14,0,0,0,0,.11.14.14,0,0,0,0,.1.13.13,0,0,0,.1,0h1.46a.05.05,0,0,1,.06.06v2.91s0,.07,0,.08,0,0-.08,0h-.52a.09.09,0,0,0-.08,0,.12.12,0,0,0,0,.1.21.21,0,0,0,.21.15,2,2,0,0,0,.64-.06.26.26,0,0,0,.15-.12.43.43,0,0,0,0-.22v-1.79s0,0,0,0h0A3.28,3.28,0,0,0,91.91,105a.22.22,0,0,0,.14,0,.28.28,0,0,0,.11-.08.15.15,0,0,0,0-.11.14.14,0,0,0-.08-.09,3.3,3.3,0,0,1-1.58-2.36s0-.06,0-.1v-.1a.05.05,0,0,1,.06-.06h1.48a.12.12,0,0,0,.1,0,.14.14,0,0,0,0-.1.14.14,0,0,0,0-.11.12.12,0,0,0-.1,0h-.66s0,0,0,0c.11-.63.21-1.27.28-1.91a.11.11,0,0,0,0-.08.1.1,0,0,0-.08,0H89.73s0,0,0,0l.06-.31a.13.13,0,0,0,0-.12.11.11,0,0,0-.1-.06h0a.17.17,0,0,0-.17.13c-.15.8-.3,1.45-.43,1.94a.14.14,0,0,0,0,.11.1.1,0,0,0,.09.06.17.17,0,0,0,.12,0,.18.18,0,0,0,.08-.11s0-.1,0-.14,0,0,.05,0h1.71s0,0,0,.05c0,.26-.07.45-.1.59S91,101.82,91,101.82Zm-1.51-1s0,0,0-.06.08-.35.16-.72a.05.05,0,0,1,.06,0h1.59s0,0,0,0c0,.32-.07.56-.1.72s0,.06,0,.06Z"/><path class="cls-1" d="M86,104.93a.15.15,0,0,0,0,.09v0a.18.18,0,0,0,.07.1.15.15,0,0,0,.13,0c.48-.09,1.24-.26,2.28-.5a.15.15,0,0,0,.09-.06.25.25,0,0,0,0-.11.15.15,0,0,0-.06-.09.08.08,0,0,0-.09,0l-.91.19s-.06,0-.06,0v-2.11a.05.05,0,0,1,.06-.06h.86a.13.13,0,0,0,.1,0,.15.15,0,0,0,0-.22.13.13,0,0,0-.1,0h-.86a.05.05,0,0,1-.06-.06v-.76s0,0,.06,0h.63a.14.14,0,0,0,.1,0,.12.12,0,0,0,0-.1.14.14,0,0,0,0-.11.14.14,0,0,0-.1,0H86.55a.14.14,0,0,0-.11,0,.14.14,0,0,0,0,.11.12.12,0,0,0,0,.1.14.14,0,0,0,.11,0h.57a0,0,0,0,1,0,0V102s0,.06,0,.06h-1a.17.17,0,0,0-.11,0,.17.17,0,0,0,0,.22.17.17,0,0,0,.11,0h1s0,0,0,.06v2.17s0,.06,0,.06l-1,.21A.21.21,0,0,0,86,104.93Z"/><path class="cls-1" d="M87.62,99.3a.4.4,0,0,0-.3-.11.25.25,0,0,0-.23.15,5.07,5.07,0,0,1-1.19,1.59.13.13,0,0,0,0,.1.11.11,0,0,0,0,.09.15.15,0,0,0,.21,0,6,6,0,0,0,1.23-1.6s0,0,.06,0a7.84,7.84,0,0,1,.94,1,.2.2,0,0,0,.11.06.16.16,0,0,0,.11,0,.14.14,0,0,0,.06-.12.23.23,0,0,0,0-.14A9.85,9.85,0,0,0,87.62,99.3Z"/><path class="cls-1" d="M91.85,102.57a.14.14,0,0,0-.1.07,7.36,7.36,0,0,1-.55.7.11.11,0,0,0,0,.08.1.1,0,0,0,.06.09l.09,0a.16.16,0,0,0,.12-.05c.2-.22.39-.45.58-.7a.24.24,0,0,0,0-.08v0a.13.13,0,0,0-.07-.09l-.08,0Z"/><path class="cls-1" d="M42.08,111.9a1.56,1.56,0,0,0-.28-.29,1.59,1.59,0,0,0-.45-.21,1.86,1.86,0,0,0,.61-.22,1.61,1.61,0,0,0,.55-.55,1.56,1.56,0,0,0,.2-.8,1.57,1.57,0,0,0-.26-.91,1.34,1.34,0,0,0-.69-.51,4.2,4.2,0,0,0-1.22-.14H37.65v5.61h1.74V111.6h.15a.8.8,0,0,1,.43.13,1.43,1.43,0,0,1,.31.43l.92,1.72h2l-.84-1.63A2.79,2.79,0,0,0,42.08,111.9Zm-1.22-1.61a.47.47,0,0,1-.28.18,2.52,2.52,0,0,1-.46.07h-.73V109.4h.76a1,1,0,0,1,.65.15A.54.54,0,0,1,41,110,.52.52,0,0,1,40.86,110.29Z"/><polygon class="cls-1" points="45.45 111.5 48.14 111.5 48.14 110.36 45.45 110.36 45.45 109.47 48.35 109.47 48.35 108.27 43.71 108.27 43.71 113.88 48.43 113.88 48.43 112.61 45.45 112.61 45.45 111.5"/><path class="cls-1" d="M52.18,111.85h1.16v.52a3.2,3.2,0,0,1-.6.29,1.73,1.73,0,0,1-.56.08,1.23,1.23,0,0,1-1-.38,2,2,0,0,1-.34-1.3,1.92,1.92,0,0,1,.34-1.26,1.12,1.12,0,0,1,.9-.39,1.09,1.09,0,0,1,.63.17.87.87,0,0,1,.35.48l1.67-.3a2.15,2.15,0,0,0-.46-.89,1.7,1.7,0,0,0-.76-.52,4.1,4.1,0,0,0-1.39-.17,3.62,3.62,0,0,0-1.53.27,2.42,2.42,0,0,0-1.11,1,3.22,3.22,0,0,0-.38,1.59,3.34,3.34,0,0,0,.35,1.55,2.26,2.26,0,0,0,1,1,3.37,3.37,0,0,0,1.63.34,4.47,4.47,0,0,0,1.4-.19,5.26,5.26,0,0,0,1.36-.71v-2.39H52.18Z"/><rect class="cls-1" x="55.95" y="108.27" width="1.73" height="5.6"/><path class="cls-1" d="M62.77,110.6a7.44,7.44,0,0,0-1.62-.49,1.37,1.37,0,0,1-.58-.21.3.3,0,0,1-.13-.24.39.39,0,0,1,.15-.31.7.7,0,0,1,.46-.13.88.88,0,0,1,.57.17.93.93,0,0,1,.28.55l1.63-.09a1.73,1.73,0,0,0-.67-1.27,2.8,2.8,0,0,0-1.64-.4,3.49,3.49,0,0,0-1.38.22,1.69,1.69,0,0,0-.75.6,1.46,1.46,0,0,0-.25.82,1.35,1.35,0,0,0,.49,1.08,3.75,3.75,0,0,0,1.62.68,2.27,2.27,0,0,1,.89.32.52.52,0,0,1,.19.39.54.54,0,0,1-.2.41.86.86,0,0,1-.57.17.92.92,0,0,1-.77-.34,1.28,1.28,0,0,1-.21-.61l-1.65.1a2.21,2.21,0,0,0,.62,1.4,2.77,2.77,0,0,0,2,.55,3.52,3.52,0,0,0,1.35-.23,1.83,1.83,0,0,0,.83-.69,1.8,1.8,0,0,0,.3-1,1.59,1.59,0,0,0-.22-.83A1.79,1.79,0,0,0,62.77,110.6Z"/><polygon class="cls-1" points="64.19 109.66 65.96 109.66 65.96 113.88 67.69 113.88 67.69 109.66 69.45 109.66 69.45 108.27 64.19 108.27 64.19 109.66"/><polygon class="cls-1" points="71.97 111.5 74.66 111.5 74.66 110.36 71.97 110.36 71.97 109.47 74.87 109.47 74.87 108.27 70.23 108.27 70.23 113.88 74.95 113.88 74.95 112.61 71.97 112.61 71.97 111.5"/><path class="cls-1" d="M80.34,111.9a1.56,1.56,0,0,0-.28-.29,1.59,1.59,0,0,0-.45-.21,1.86,1.86,0,0,0,.61-.22,1.61,1.61,0,0,0,.55-.55,1.56,1.56,0,0,0,.2-.8,1.57,1.57,0,0,0-.26-.91,1.3,1.3,0,0,0-.69-.51,4.2,4.2,0,0,0-1.22-.14H75.91v5.61h1.74V111.6h.15a.8.8,0,0,1,.43.13,1.43,1.43,0,0,1,.31.43l.92,1.72h2l-.84-1.63A2.79,2.79,0,0,0,80.34,111.9Zm-1.22-1.61a.47.47,0,0,1-.28.18,2.52,2.52,0,0,1-.46.07h-.73V109.4h.76a1,1,0,0,1,.65.15.54.54,0,0,1,.17.42A.52.52,0,0,1,79.12,110.29Z"/><polygon class="cls-1" points="83.71 111.5 86.4 111.5 86.4 110.36 83.71 110.36 83.71 109.47 86.61 109.47 86.61 108.27 81.97 108.27 81.97 113.88 86.69 113.88 86.69 112.61 83.71 112.61 83.71 111.5"/><path class="cls-1" d="M92.22,109.07a2.06,2.06,0,0,0-.77-.59,3,3,0,0,0-1.23-.21H87.65v5.61h2.57a3.7,3.7,0,0,0,1-.16,1.81,1.81,0,0,0,.78-.44,2.24,2.24,0,0,0,.57-.83,3.69,3.69,0,0,0,.21-1.39,4.22,4.22,0,0,0-.14-1.09A2.38,2.38,0,0,0,92.22,109.07Zm-1.28,3a.84.84,0,0,1-.36.42,1.81,1.81,0,0,1-.77.12h-.43v-3.06h.43a1.25,1.25,0,0,1,1,.33,1.92,1.92,0,0,1,.29,1.22A2.77,2.77,0,0,1,90.94,112.06Z"/><path class="cls-1" d="M20.73,49.51h.54a2.16,2.16,0,0,1,1.05.27,1,1,0,0,1,.47.49,5.1,5.1,0,0,1,.15,1.56v10a3.54,3.54,0,0,1-.27,1.76,1.68,1.68,0,0,1-1.4.56h-.54v.42h6.63v-.42H26.8a2.13,2.13,0,0,1-1-.28,1.07,1.07,0,0,1-.48-.49,5.07,5.07,0,0,1-.15-1.55v-10a3.34,3.34,0,0,1,.29-1.76,1.62,1.62,0,0,1,1.38-.56h.56v-.43H20.73Z"/><path class="cls-1" d="M39.68,60.62a3.79,3.79,0,0,0-.43-1.77A4.18,4.18,0,0,0,38,57.38a23.45,23.45,0,0,0-3-1.79,12.49,12.49,0,0,1-3.37-2.28A2,2,0,0,1,31.21,52,2.21,2.21,0,0,1,32,50.37a2.8,2.8,0,0,1,2-.73,4.14,4.14,0,0,1,2,.54,3.84,3.84,0,0,1,1.51,1.45,6.63,6.63,0,0,1,.74,2.46h.42V48.73h-.42a1.44,1.44,0,0,1-.3.71.69.69,0,0,1-.49.18,2.7,2.7,0,0,1-.9-.28,6.42,6.42,0,0,0-2.62-.61,4.53,4.53,0,0,0-3.25,1.21,3.82,3.82,0,0,0-1.28,2.87,3.65,3.65,0,0,0,.44,1.76A4.79,4.79,0,0,0,31.1,56a23.87,23.87,0,0,0,2.82,1.77,26.86,26.86,0,0,1,2.44,1.46,3.36,3.36,0,0,1,1,1.08,2.45,2.45,0,0,1,.32,1.16,2.34,2.34,0,0,1-.83,1.78,3.23,3.23,0,0,1-2.26.75,4.69,4.69,0,0,1-2.26-.55,3.84,3.84,0,0,1-1.54-1.37,7.7,7.7,0,0,1-.8-2.5h-.42v5.31H30a1.45,1.45,0,0,1,.25-.71.61.61,0,0,1,.45-.17,6.51,6.51,0,0,1,1.41.36,13.21,13.21,0,0,0,1.47.42,7.15,7.15,0,0,0,1.26.1,4.94,4.94,0,0,0,3.52-1.27A4,4,0,0,0,39.68,60.62Z"/><path class="cls-1" d="M45.25,63.75l-.13.26a17.86,17.86,0,0,0-1.36,3.77c1.05-1.88,2.1-3.58,2.1-3.58l0-.07a7.37,7.37,0,0,0,3.4.79,7.15,7.15,0,0,0,5.39-2.33,8.11,8.11,0,0,0,2.23-5.86,8,8,0,0,0-2-5.43h0c.59-.66,1.14-1.32,1.73-1.95A63.83,63.83,0,0,1,72.13,36.86c3.26-1.78,6.67-3.17,10.48-3.08a8.34,8.34,0,0,1,8.13,6.28A21.26,21.26,0,0,1,91.37,45l.11,2.43a33.07,33.07,0,0,0,.88-6.51,17.45,17.45,0,0,0,0-2.16,24.31,24.31,0,0,0-1.16-6.81A8.22,8.22,0,0,0,82.66,26,16,16,0,0,0,76,27.85a44.07,44.07,0,0,0-10.38,7.39A83.94,83.94,0,0,0,54,48.87l-.68,1a6.89,6.89,0,0,0-3.79-1.11,7.39,7.39,0,0,0-5.22,2,7.85,7.85,0,0,0-2.51,6,8.17,8.17,0,0,0,2.17,5.88A8,8,0,0,0,45.25,63.75ZM54.31,57q0,3.68-1.43,5.37a4.48,4.48,0,0,1-3.6,1.7,4,4,0,0,1-2.76-1l.14-.23a81.2,81.2,0,0,1,6.74-9.71l.28-.33A12.21,12.21,0,0,1,54.31,57Zm-8.37-5.93a4.08,4.08,0,0,1,3.33-1.55,4.23,4.23,0,0,1,3.26,1.33l-.12.17a124.59,124.59,0,0,0-6.35,11.1l-.15.28a9.33,9.33,0,0,1-1.54-5.72A8.64,8.64,0,0,1,45.94,51.11Z"/><path class="cls-1" d="M68.54,63.51a.91.91,0,0,1-.44.45,4.06,4.06,0,0,1-1.42.19v.42h5.83v-.42a3.83,3.83,0,0,1-1.4-.2.83.83,0,0,1-.45-.49,7,7,0,0,1-.11-1.62V48.77h-.37L66.41,50.6l.17.36a3,3,0,0,1,1.18-.36.8.8,0,0,1,.5.17,1,1,0,0,1,.3.54,13.12,13.12,0,0,1,.11,2.17v8.36A5.71,5.71,0,0,1,68.54,63.51Z"/><path class="cls-1" d="M86.24,58.86H84.16V48.77H82.91L75.73,59v1.46h6.55v4.09h1.88V60.48h2.08Zm-4,0H76.85l5.43-7.69Z"/><path class="cls-1" d="M92.94,48.77a3.55,3.55,0,0,0-2.12.74,6.33,6.33,0,0,0-2.12,2.85,11.62,11.62,0,0,0-.8,4.56,10.64,10.64,0,0,0,1.24,5.31q1.47,2.61,3.69,2.61A4,4,0,0,0,95.15,64a6,6,0,0,0,2-2.73,12,12,0,0,0,.78-4.58,9.6,9.6,0,0,0-1.77-6.1A4,4,0,0,0,92.94,48.77Zm2.21,12.94a3.56,3.56,0,0,1-1,1.86,2,2,0,0,1-1.28.55c-.86,0-1.5-.56-1.94-1.7a14.73,14.73,0,0,1-.78-5.22,27.31,27.31,0,0,1,.29-4,5.79,5.79,0,0,1,1.12-3,1.79,1.79,0,0,1,1.38-.7,1.7,1.7,0,0,1,1.13.38,3.87,3.87,0,0,1,1.07,1.86,15.36,15.36,0,0,1,.54,4.42A22.56,22.56,0,0,1,95.15,61.71Z"/><path class="cls-1" d="M104.64,48.77a3.58,3.58,0,0,0-2.13.74,6.33,6.33,0,0,0-2.12,2.85,11.81,11.81,0,0,0-.8,4.56,10.64,10.64,0,0,0,1.24,5.31q1.48,2.61,3.69,2.61a4.06,4.06,0,0,0,2.33-.85,6.13,6.13,0,0,0,2-2.73,12.22,12.22,0,0,0,.77-4.58,9.6,9.6,0,0,0-1.77-6.1A4,4,0,0,0,104.64,48.77Zm2.2,12.94a3.55,3.55,0,0,1-1,1.86,2,2,0,0,1-1.28.55c-.86,0-1.51-.56-1.94-1.7a14.48,14.48,0,0,1-.79-5.22,28.76,28.76,0,0,1,.29-4,5.88,5.88,0,0,1,1.12-3,1.8,1.8,0,0,1,1.38-.7,1.73,1.73,0,0,1,1.14.38,4,4,0,0,1,1.06,1.86,15.33,15.33,0,0,1,.55,4.42A22.48,22.48,0,0,1,106.84,61.71Z"/><path class="cls-1" d="M117.88,64a.83.83,0,0,1-.45-.49,7,7,0,0,1-.11-1.62V48.77h-.38l-3.76,1.83.17.36a3,3,0,0,1,1.17-.36.8.8,0,0,1,.51.17.94.94,0,0,1,.29.54,11.69,11.69,0,0,1,.12,2.17v8.36a5.71,5.71,0,0,1-.13,1.67.91.91,0,0,1-.44.45,4.1,4.1,0,0,1-1.42.19v.42h5.82v-.42A3.77,3.77,0,0,1,117.88,64Z"/></svg>