<?xml version="1.0" encoding="UTF-8"?>
<svg width="340px" height="420px" viewBox="0 0 340 420" version="1.1" xmlns="http://www.w3.org/2000/svg" xmlns:xlink="http://www.w3.org/1999/xlink">
    <title>fig05</title>
    <g id="desktop" stroke="none" stroke-width="1" fill="none" fill-rule="evenodd">
        <g id="saya_technologies_bottles_Desktop" transform="translate(-582.000000, -5438.000000)">
            <g id="fig05" transform="translate(582.000000, 5438.000000)">
                <rect id="Rectangle" fill="#444343" x="0" y="0" width="340" height="420"></rect>
                <g id="icon14" transform="translate(60.000000, 167.000000)">
                    <rect id="Rectangle" x="0" y="0" width="220" height="80"></rect>
                    <path d="M205,51.1 C204.944306,51.0851536 204.885694,51.0851536 204.83,51.1 C203.91,51.38 202.43,50.1 202.26,51.04 C202.09,51.98 203.16,53.29 203.72,54.41 C204.05,55.1 204.47,54.65 204.84,54.41 C205.708178,53.8273103 206.7247,53.5046602 207.77,53.48 C208.899959,53.4729172 209.92261,54.148104 210.36,55.19 C210.870721,56.1860737 210.680877,57.3978433 209.89,58.19 C209.180394,59.0934205 207.979719,59.4536229 206.89,59.09 C205.896323,58.773665 205.005475,58.1970302 204.31,57.42 C204.08,57.18 203.87,56.77 203.48,57.02 C203.31,57.13 203.27,57.51 203.23,57.77 C203.17,58.23 203.23,58.7 203.12,59.15 C202.76,60.76 203.12,61.71 205.03,61.42 C205.669024,61.3937856 206.299702,61.5724777 206.83,61.93 C207.910992,62.4476125 208.536476,63.6017317 208.38,64.79 C208.31862,65.8642826 207.616057,66.7957707 206.6,67.15 C205.505681,67.6247761 204.231303,67.3651066 203.41,66.5 C202.739671,65.8044429 202.269773,64.9406595 202.05,64 C201.95,63.63 202,63.1 201.47,63.06 C200.94,63.02 200.9,63.55 200.69,63.87 C200.562705,64.1287991 200.408522,64.3734805 200.23,64.6 C198.88,65.91 199,66.73 200.71,67.79 C202.87,69.12 202.91,71.79 201.06,72.95 C200.128687,73.599372 198.891313,73.599372 197.96,72.95 C196.8329,72.1824169 196.267549,70.8200771 196.52,69.48 C196.52,68.75 197.3,67.85 196.72,67.36 C195.98,66.74 195.36,67.88 194.6,68.05 C192.91,68.41 192.6,69.3 193.66,70.7 C194.02989,71.2984244 194.201375,71.9983656 194.15,72.7 C194.178456,73.8327372 193.506743,74.8661423 192.46,75.3 C191.507096,75.7881876 190.355062,75.6623683 189.53,74.98 C188.600505,74.337202 188.163151,73.1881541 188.43,72.09 C188.650267,71.3235751 189.028357,70.6116752 189.54,70 C189.87,69.51 190.83,69.24 190.48,68.54 C190.13,67.84 189.32,68.41 188.72,68.27 C188.44,68.21 188.15,68.21 187.87,68.13 C186.51,67.76 185.95,68.21 186.12,69.66 C186.219786,70.591412 185.95053,71.5248328 185.37,72.26 C184.406263,73.5274935 182.597494,73.7737369 181.33,72.81 C180.062506,71.8462631 179.816263,70.0374935 180.78,68.77 C181.312344,68.1649404 181.975896,67.6895093 182.72,67.38 C183.35,67.04 184.92,67.11 184.47,66.38 C183.78,65.38 182.3,64.81 181.1,64.16 C180.87,64.04 180.64,64.59 180.46,64.88 C180.065215,65.6666618 179.493616,66.3512114 178.79,66.88 C177.775484,67.6252374 176.394516,67.6252374 175.38,66.88 C174.469142,66.314616 173.984779,65.2592564 174.15,64.2 C174.289414,62.9507066 175.225596,61.9375229 176.46,61.7 C177.483913,61.5064562 178.541081,61.5928261 179.52,61.95 C179.84,62.04 180.2,62.23 180.44,61.85 C180.68,61.47 180.44,61.3 180.25,61.06 C180.06,60.82 180.01,60.67 179.9,60.46 C179.46,59.65 179.23,58.53 178.55,58.12 C177.87,57.71 177.1,58.79 176.27,59.02 C174.57,59.51 173.1,59.11 172.34,57.77 C171.602741,56.6591819 171.813293,55.172424 172.83,54.31 C174.06,53.13 175.43,53.31 176.83,54.1 C176.962044,54.2124348 177.106278,54.3097091 177.26,54.39 C178.03,54.6 178.66,56.24 179.13,55.48 C179.73,54.48 179.48,52.93 179.45,51.62 C179.45,51.21 178.76,51.32 178.38,51.33 C177.563734,51.3783958 176.747725,51.2309656 176,50.9 C174.795232,50.4655598 174.032385,49.2761756 174.14,48 C174.186856,46.8053919 174.992227,45.774517 176.14,45.44 C177.322177,45.0142966 178.643387,45.4220775 179.38,46.44 C179.974667,47.1805865 180.367416,48.0625484 180.52,49 C180.6,49.33 180.61,49.73 181.07,49.75 C181.53,49.77 181.54,49.47 181.68,49.22 C181.844498,48.8600808 182.056374,48.5237685 182.31,48.22 C183.71,46.88 183.48,46.01 181.8,45.03 C180.336803,44.2852405 179.744088,42.5026384 180.47,41.03 C181.014065,39.7437403 182.451974,39.0877759 183.78,39.52 C185.36,39.92 186.19,41.44 186.01,43.35 C185.94,44.07 185.23,44.97 185.8,45.45 C186.55,46.09 187.15,44.92 187.91,44.76 C189.59,44.41 189.82,43.61 188.91,42.12 C187.962,40.8504619 188.139888,39.0672446 189.32,38.01 C190.186273,37.2005347 191.461123,37.0070581 192.528554,37.5230567 C193.595984,38.0390552 194.236258,39.1583076 194.14,40.34 C194.044015,40.9694323 193.833902,41.5760476 193.52,42.13 C193.14,42.96 191.64,43.66 192.09,44.23 C192.8,45.14 194.33,44.49 195.48,44.8 C196.2,44.99 196.26,44.39 196.31,43.8 C196.349738,42.9962618 196.487422,42.2003777 196.72,41.43 C197.096918,40.1649364 198.303566,39.3327653 199.62,39.43 C200.891145,39.4121132 201.997269,40.2961749 202.26,41.54 C202.635755,42.8080079 202.099623,44.1689589 200.96,44.84 C200.226865,45.3015774 199.422798,45.6394205 198.58,45.84 C198.32,45.92 197.97,45.84 197.91,46.27 C197.85,46.7 198.12,46.77 198.37,46.91 C198.62,47.05 198.69,47.06 198.84,47.15 C199.66,47.66 200.47,48.55 201.32,48.6 C202.17,48.65 202.32,47.23 202.99,46.6 C204.16,45.55 205.38,44.92 206.89,45.79 C208.098473,46.3595511 208.690996,47.7421047 208.27,49.01 C207.859934,50.4293063 206.460296,51.3238767 205,51.1 L205,51.1 Z M202.73,55.55 L202.52,55.06 C202.33,54.53 202.14,53.99 201.93,53.46 C201.64,52.71 201.26,52.46 200.56,53.12 C200.244321,53.4634213 199.802048,53.662975 199.335676,53.6724157 C198.869305,53.6818565 198.419319,53.5003647 198.09,53.17 C197.500264,52.6870165 197.293559,51.8764087 197.58,51.17 C197.903889,50.2877994 198.83496,49.7857933 199.75,50 L200.6,50.06 L200.8,50.2 L200.64,50.01 C198.85,48.16 198.87,48.18 197.18,49.77 C196.858923,50.1565317 196.382491,50.3801389 195.88,50.3801389 C195.377509,50.3801389 194.901077,50.1565317 194.58,49.77 C194.175362,49.4250433 193.954216,48.9114856 193.981648,48.3804726 C194.009081,47.8494596 194.281969,47.361424 194.72,47.06 C195.217508,46.7217837 195.754916,46.446362 196.32,46.24 C196.03,45.79 195.65,45.98 195.32,45.94 C193.97,45.74 192.7,45.52 192.96,47.69 C193.06,48.55 192.2,49.04 191.28,49.07 C190.5043,49.1455846 189.780467,48.6713497 189.54,47.93 C189.322276,47.1421119 189.469057,46.2981199 189.94,45.63 C190.01,45.55 190.14,45.42 190.12,45.38 C190.1,45.34 189.85,45.26 189.71,45.38 C188.59,45.81 186.65,45.64 188.31,47.83 C188.98,48.7 188.31,49.77 187.31,50.19 C186.85469,50.4024082 186.329007,50.403836 185.87255,50.1939044 C185.416093,49.9839727 185.075055,49.583926 184.94,49.1 C184.746349,48.4672506 184.61243,47.8177435 184.54,47.16 C183.935757,47.8545573 183.446264,48.641121 183.09,49.49 C182.95,50.1 184,49.94 184.41,50.33 C184.841145,50.6415541 185.112409,51.1278515 185.150993,51.6583823 C185.189577,52.1889131 184.991529,52.7093423 184.61,53.08 C183.75,54.01 182.79,53.86 181.87,53.08 C181.37,52.63 181.4,51.91 180.94,51.26 C180.83,51.86 180.75,52.26 180.7,52.65 C180.53,53.8 180.02,55.03 182.19,54.65 C183.36,54.46 184.08,55.55 183.87,56.75 C183.80109,57.2780155 183.504397,57.7493671 183.058107,58.03984 C182.611818,58.330313 182.060704,58.410767 181.55,58.26 C181.01,58.18 180.64,57.48 179.98,57.84 C180.55,59.09 180.68,60.92 182.88,59.28 C183.69,58.68 184.8,59.5 185.05,60.62 C185.221322,61.1272556 185.142144,61.6856881 184.836566,62.125326 C184.530988,62.5649639 184.035161,62.833797 183.5,62.85 C182.812907,62.8702908 182.125624,62.8166492 181.45,62.69 C181.673111,62.9055106 181.910301,63.1059524 182.16,63.29 C183.27,63.96 184.31,65.62 185.42,63.12 C185.85,62.12 187.14,62.28 187.96,63.12 C188.371272,63.4620555 188.596321,63.9786264 188.566757,64.5127356 C188.537194,65.0468449 188.25651,65.5354232 187.81,65.83 C187.31032,66.1585022 186.777369,66.4333574 186.22,66.65 C186.5,67.11 186.89,66.91 187.22,66.96 C188.57,67.16 189.88,67.41 189.56,65.21 C189.45,64.42 190.22,63.92 191.07,63.83 C191.888157,63.6491144 192.713693,64.1025176 193,64.89 C193.289223,65.7246688 193.048673,66.6513809 192.39,67.24 C194.78,67.16 194.93,66.93 194.21,65.05 C193.990757,64.6000378 193.974681,64.0777326 194.165835,63.6151385 C194.35699,63.1525444 194.737077,62.7939432 195.21,62.63 C195.630209,62.4104006 196.124265,62.3809655 196.567576,62.5491178 C197.010887,62.7172701 197.361137,63.0669596 197.53,63.51 C197.771871,64.1607802 197.962453,64.8294875 198.1,65.51 C198.64,64.27 200.92,63.51 198.19,62.43 C197.47,62.15 197.37,61.36 197.48,60.63 C197.579099,59.8572281 198.171843,59.2401243 198.94,59.11 C199.640251,58.9405113 200.370958,59.233597 200.76,59.84 C201.097579,60.4073595 201.385323,61.0029236 201.62,61.62 C201.71,60.99 201.77,60.54 201.84,60.09 C202.02,58.99 202.54,57.83 200.44,58.17 C199.910282,58.2352941 199.382392,58.0354831 199.028673,57.6357997 C198.674953,57.2361163 198.540796,56.6878521 198.67,56.17 C198.7054,55.6356244 198.982183,55.14644 199.422014,54.8408934 C199.861846,54.5353467 200.416868,54.4466847 200.93,54.6 C201.415718,54.7671078 201.876571,54.9992165 202.3,55.29 C202.38,55.48 202.47,55.65 202.72,55.56 L202.83,55.72 C202.83,55.72 202.83,55.64 202.83,55.63 C202.83,55.62 202.72,55.57 202.68,55.55 L202.73,55.55 Z M193,72.94 C193,71.79 192.14,69.94 191.64,69.88 C191.14,69.82 189.64,71.69 189.64,72.62 C189.586871,73.0852129 189.740192,73.5503523 190.059541,73.8927873 C190.378891,74.2352223 190.832216,74.4205828 191.3,74.4 C191.71932,74.4330637 192.134516,74.2975643 192.45361,74.0235185 C192.772704,73.7494727 192.969356,73.3595036 193,72.94 L193,72.94 Z M204.32,62.53 C203.86,62.68 203.13,62.4 203.15,63.36 C203.15,64.63 204.42,66.25 205.47,66.23 C206.52,66.21 207.27,65.58 207.18,64.49 C207,62.78 205.55,62.79 204.28,62.53 L204.32,62.53 Z M185,69.46 C184.81,69 185.34,68.22 184.33,68.18 C183.02,68.18 181.33,69.39 181.33,70.48 C181.284634,70.946042 181.452378,71.4076144 181.786377,71.735788 C182.120376,72.0639615 182.584828,72.2235587 183.05,72.17 C184.79,72.09 184.81,70.68 185,69.46 Z M191.15,38.29 C190.05,38.55 189.37,39.2 189.55,40.35 C189.71,41.35 189.93,42.45 191,42.86 C191.53,43.06 193,40.86 192.91,40.03 C192.894327,39.083322 192.136434,38.3166162 191.19,38.29 L191.15,38.29 Z M179.7,63.54 C179.3,62.89 178.49,62.87 177.7,62.82 C176.49,62.73 175.45,63.06 175.34,64.48 C175.282612,64.9210064 175.417416,65.365418 175.710134,65.700226 C176.002852,66.0350339 176.42528,66.2279799 176.87,66.23 C177.89,66.36 179.63,64.77 179.7,63.54 Z M197.5,43.05 C197.66,43.62 197.13,44.55 198.36,44.52 C199.59,44.49 201.25,43.26 201.18,42.23 C201.212956,41.7901909 201.053257,41.3577526 200.742354,41.0449307 C200.431451,40.7321087 200,40.5697511 199.56,40.6 C197.94,40.6 197.71,41.82 197.5,43.05 Z M205,50 C206.22,49.92 207.14,49.49 207.15,48.19 C207.173849,47.7472772 207.006968,47.3155348 206.691556,47.0039461 C206.376144,46.6923573 205.942399,46.5307539 205.5,46.56 C204.5,46.5 202.56,48.29 202.86,49.12 C203.16,49.95 204.27,49.8 205,50 Z M184.77,42.88 C184.77,41.52 184.39,40.59 182.95,40.61 C182.511619,40.589092 182.085143,40.7562188 181.777686,41.0694048 C181.470229,41.3825908 181.311003,41.8120794 181.34,42.25 C181.28,43.17 182.91,44.91 183.81,44.79 C185,44.62 184.56,43.49 184.77,42.87 L184.77,42.88 Z M178,50.1 C178.45,49.92 179.31,50.47 179.35,49.4 C179.4,48.17 178.12,46.54 177.08,46.55 C176.612648,46.4863786 176.141912,46.6404332 175.802598,46.9680476 C175.463283,47.2956619 175.292811,47.7607038 175.34,48.23 C175.48,49.81 176.72,50 178,50.1 Z M197.72,69.92 C197.72,71.42 198.34,72.21 199.42,72.19 C199.891622,72.212329 200.349755,72.0290599 200.675855,71.6876142 C201.001955,71.3461686 201.163978,70.880098 201.12,70.41 C201.12,69.53 199.54,67.89 198.69,68 C197.51,68.17 198,69.3 197.76,69.92 L197.72,69.92 Z M207.36,54.74 C206.36,54.9 204.93,55.09 204.96,56.12 C204.99,57.15 206.29,57.93 207.54,58 C208.008984,58.085538 208.490458,57.939932 208.833446,57.6088395 C209.176434,57.277747 209.338937,56.8017103 209.27,56.33 C209.29,55.18 208.53,54.75 207.4,54.74 L207.36,54.74 Z M174.62,58 C176.02,58 177.62,57.12 177.68,56.65 C177.68,56.01 175.81,54.65 174.87,54.73 C174.403987,54.6820076 173.941879,54.8515865 173.617524,55.1896186 C173.29317,55.5276508 173.142811,55.9963652 173.21,56.46 C173.182522,56.8537603 173.317883,57.2415379 173.584432,57.5326627 C173.850982,57.8237875 174.225349,57.9927343 174.62,58 L174.62,58 Z M196.62,64.53 C196.62,64.03 196.37,63.63 195.8,63.64 C195.624569,63.6462399 195.460329,63.7277543 195.349273,63.8637019 C195.238217,63.9996495 195.191112,64.176851 195.22,64.35 C195.248758,64.8251852 195.608512,65.2142217 196.08,65.28 C196.52,65.35 196.5,64.88 196.6,64.56 L196.62,64.53 Z M186.73,63.63 C186.265408,63.6941336 185.907804,64.072528 185.87,64.54 C185.79,64.97 186.01,65.18 186.44,65.14 C186.914832,65.1515542 187.313153,64.7842137 187.34,64.31 C187.35,64 187.1,63.73 186.71,63.66 L186.73,63.63 Z M186.66,49 C187.05,49 187.36,48.8 187.32,48.37 C187.285812,47.8954052 186.921946,47.5106274 186.45,47.45 C186.01,47.45 185.96,47.89 185.94,48.21 C185.913381,48.4142149 185.978039,48.6197902 186.116763,48.7720008 C186.255487,48.9242114 186.454198,49.0076116 186.66,49 L186.66,49 Z M196.66,48.09 C196.66,47.62 196.34,47.52 195.96,47.6 C195.545297,47.6283245 195.213673,47.9556974 195.18,48.37 C195.163376,48.5426042 195.226226,48.7133897 195.350771,48.8340426 C195.475316,48.9546955 195.64801,49.0120938 195.82,48.99 C196.42,49 196.59,48.58 196.69,48.11 L196.66,48.09 Z M191.27,66.49 C191.695062,66.3113702 191.942894,65.8652726 191.87,65.41 C191.845522,65.2361351 191.746115,65.0817167 191.597985,64.9874523 C191.449855,64.8931879 191.267869,64.8685377 191.1,64.92 C190.62,65.03 190.5,65.41 190.6,65.85 C190.7,66.29 190.8,66.54 191.3,66.51 L191.27,66.49 Z M199.27,60.34 C198.88,60.34 198.56,60.49 198.55,60.88 C198.55,61.44 198.93,61.66 199.43,61.72 C199.72,61.72 200.04,61.72 200.03,61.33 C200.063145,60.8795905 199.767907,60.4704749 199.33,60.36 L199.27,60.34 Z M184,61 C183.975074,60.6829319 183.717731,60.4341668 183.4,60.42 C183.169599,60.3768221 182.931595,60.4307101 182.742263,60.5689221 C182.552932,60.707134 182.429083,60.9173991 182.4,61.15 C182.34,61.58 182.74,61.69 183.08,61.72 C183.42,61.75 183.8,61.5 184,61 Z M184,51.92 C184.022238,51.6552189 183.920832,51.3950271 183.725286,51.2151241 C183.529739,51.0352212 183.262013,50.9558121 183,51 C182.71,51 182.39,51 182.4,51.39 C182.33999,51.8708942 182.671539,52.3129591 183.15,52.39 C183.324609,52.4377348 183.511314,52.4080567 183.662515,52.3085321 C183.813716,52.2090075 183.914801,52.0492537 183.94,51.87 L184,51.92 Z M199.54,51.14 C199.340338,51.1056668 199.135331,51.1546938 198.972805,51.2756436 C198.810278,51.3965934 198.704447,51.5788881 198.68,51.78 C198.638036,51.9475232 198.67873,52.1250123 198.789484,52.2575211 C198.900237,52.39003 199.067689,52.4615722 199.24,52.45 C199.471942,52.4931319 199.711377,52.4379264 199.901018,52.297592 C200.090659,52.1572576 200.213446,51.9444192 200.24,51.71 C200.22,51.23 199.81,51.15 199.48,51.09 L199.54,51.14 Z M191.97,46.91 C191.84,46.74 191.84,46.27 191.41,46.33 C191.172279,46.3461191 190.954114,46.4673616 190.814894,46.6607234 C190.675673,46.8540853 190.629887,47.0994406 190.69,47.33 C190.687969,47.5033968 190.762322,47.6689073 190.893301,47.7825513 C191.024281,47.8961953 191.198623,47.9464641 191.37,47.92 C191.79,47.77 191.94,47.42 191.91,46.86 L191.97,46.91 Z M201.51,56.44 C201.359949,56.0225534 200.952824,55.7538511 200.51,55.78 C200.338957,55.8028806 200.186046,55.8982983 200.090324,56.0418825 C199.994601,56.1854666 199.965335,56.3633139 200.01,56.53 C200.11,57.03 200.51,57.08 200.92,57.01 C201.33,56.94 201.52,56.9 201.45,56.39 L201.51,56.44 Z M181.11,56.37 C181.232513,56.7580448 181.593077,57.0213783 182,57.0200054 C182.49,57.0200054 182.76,56.78 182.67,56.3 C182.648711,56.10014 182.533338,55.9224326 182.359441,55.8216511 C182.185543,55.7208697 181.973995,55.7091112 181.79,55.79 C181.42,55.83 181,55.87 181.05,56.32 L181.11,56.37 Z M197.75,65.67 C197.75,65.67 197.65,65.74 197.64,65.78 C197.63,65.82 197.7,65.87 197.73,65.91 C197.76,65.95 197.84,65.84 197.84,65.79 C197.84,65.74 197.72,65.66 197.69,65.62 L197.75,65.67 Z" id="Shape" fill="#FFFFFF" fill-rule="nonzero"></path>
                    <path d="M89.19,20.77 C89.2035083,21.8573853 89.0825921,22.9422729 88.83,24 C88.1823916,27.6862934 84.909878,30.3265198 81.17,30.18 C77.4923739,30.438138 74.1952688,27.9246306 73.47,24.31 C72.8654968,22.133788 72.8448028,19.8367498 73.41,17.65 C74.41,13.53 77.64,11.31 82.05,11.65 C86.05,11.9 88.63,14.65 89.11,19.07 C89.17,19.62 89.16,20.2 89.19,20.77 Z M85.37,20.82 C85.4685278,19.6494406 85.308061,18.4715458 84.9,17.37 C84.4984276,15.7432397 83.0355764,14.6027116 81.36,14.61 C79.6327232,14.4459531 78.0204202,15.4945717 77.47,17.14 C76.5064964,19.6869259 76.5855405,22.510956 77.69,25 C78.2994858,26.3319163 79.6219029,27.1933953 81.0865201,27.2126384 C82.5511373,27.2318816 83.8957314,26.4054436 84.54,25.09 C85.189517,23.7651477 85.4759259,22.2916949 85.37,20.82 L85.37,20.82 Z" id="Shape" fill="#FFFFFF" fill-rule="nonzero"></path>
                    <path d="M42.23,20.8 C42.1710323,21.8328841 42.050821,22.8613585 41.87,23.88 C40.92,28.06 38.05,30.29 33.87,30.21 C29.87,30.13 27.05,27.64 26.32,23.49 C26.0149179,21.7835284 26.0149179,20.0364716 26.32,18.33 C27.12,13.91 30.4,11.39 34.95,11.62 C39.05,11.82 41.83,14.76 42.14,19.24 C42.14,19.75 42.14,20.24 42.14,20.79 L42.23,20.8 Z M38.37,20.87 C38.4113038,19.7742053 38.2865584,18.6784689 38,17.62 C37.32,15.56 36.19,14.62 34.29,14.62 C32.4092423,14.4873259 30.7224125,15.7717141 30.35,17.62 C29.6080126,19.9481193 29.6820889,22.4596586 30.56,24.74 C31.0487333,26.2866325 32.5090014,27.3174099 34.13,27.26 C35.7415069,27.3085197 37.2017916,26.3161716 37.75,24.8 C38.2440145,23.5517674 38.4557409,22.2096953 38.37,20.87 L38.37,20.87 Z" id="Shape" fill="#FFFFFF" fill-rule="nonzero"></path>
                    <path d="M62.89,19.53 C64.6,17.28 66.04,15.4 67.46,13.53 C67.911176,12.785113 68.6245428,12.2358205 69.46,11.99 C70.37,11.8 71.46,11.71 72,12.55 C72.54,13.39 71.5,13.72 71.13,14.25 C69.85,16.02 68.55,17.79 67.13,19.5 C66.8592525,19.7498875 66.7052653,20.1015601 66.7052653,20.47 C66.7052653,20.8384399 66.8592525,21.1901125 67.13,21.44 C68.89,23.73 70.54,26.09 72.3,28.37 C73.06,29.37 72.79,29.78 71.68,29.93 C70.2920166,30.2489966 68.8469584,29.7149534 68,28.57 C66.39,26.43 64.73,24.32 62.85,21.89 C62.85,24.18 62.75,26.11 62.85,28.03 C62.95,29.5 62.33,29.74 61.06,29.71 C59.79,29.68 59.16,29.65 59.2,28.09 C59.3,23.31 59.2,18.52 59.2,13.74 C59.2,12.85 58.92,11.74 60.46,11.89 C61.75,11.98 62.75,12.32 62.77,13.89 C62.91,15.6 62.89,17.37 62.89,19.53 Z" id="Path" fill="#FFFFFF" fill-rule="nonzero"></path>
                    <path d="M52,55.69 C52,58.39 51.93,61.1 52,63.79 C52,65.23 51.28,65.18 50.28,65.19 C49.28,65.2 48.69,65.1 48.71,63.82 C48.78,59.61 48.71,55.4 48.71,51.2 C48.71,50.54 48.22,49.56 49.28,49.28 C50.3553132,48.8609253 51.5757886,49.2847015 52.16,50.28 L54.81,54.53 C55.8261789,56.2727111 56.9940341,57.9224321 58.3,59.46 C58.3,56.66 58.3,53.86 58.3,51.07 C58.3,50.3 57.88,49.19 59.3,49.21 C60.59,49.21 61.39,49.76 61.39,51.21 C61.39,53.4 61.39,55.59 61.39,57.78 C61.39,59.63 61.39,61.48 61.39,63.32 C61.39,63.96 61.93,65 60.8,65.18 C59.67,65.36 58.7,65.49 57.95,64.18 C56.41,61.61 54.7,59.18 53.06,56.64 C52.81,56.27 52.53,55.94 52.26,55.64 L52,55.69 Z" id="Path" fill="#FFFFFF" fill-rule="nonzero"></path>
                    <path d="M136.73,24 C135.73,25.76 134.83,27.25 133.94,28.72 C132.894404,29.7677751 131.355655,30.1524624 129.94,29.72 C129.25,29.32 129.81,28.91 130,28.58 C131.26,26.39 132.53,24.19 133.89,22.06 C134.398736,21.3592662 134.398736,20.4107338 133.89,19.71 C132.69,17.71 131.62,15.57 130.42,13.54 C129.87,12.61 130.12,12.2 131.08,12 C132.59,11.7 133.8,12 134.53,13.51 C135.05,14.61 135.7,15.63 136.25,16.71 C136.69,17.57 137.06,17.77 137.59,16.77 C138.12,15.77 138.74,14.77 139.31,13.77 C139.604121,13.13896 140.068109,12.6022583 140.65,12.22 C141.488712,11.6490186 142.591288,11.6490186 143.43,12.22 C144.28,12.89 143.24,13.53 142.93,14.09 C141.91,15.9633333 140.823333,17.7933333 139.67,19.58 C139.179975,20.2388768 139.179975,21.1411232 139.67,21.8 C140.98,23.97 142.2,26.19 143.51,28.35 C144.2,29.49 143.81,29.84 142.63,29.95 C141.340049,30.1827367 140.048346,29.5510576 139.44,28.39 C138.62,27 137.73,25.58 136.73,24 Z" id="Path" fill="#FFFFFF" fill-rule="nonzero"></path>
                    <path d="M108,57.24 C108,55.05 108,52.86 108,50.67 C108,49.76 108.21,49.27 109.23,49.28 C110.25,49.29 111.41,49.1 112.5,49.11 C118.76,49.11 121.91,53.11 120.58,59.24 C120.040604,62.6299967 117.122623,65.1287031 113.69,65.14 C112.19,65.22 110.69,65.14 109.19,65.14 C108.28,65.14 107.98,64.83 108,63.94 C108,61.73 108,59.48 108,57.24 Z M111.36,57.19 L111.36,61.52 C111.36,62.06 111.36,62.52 112.12,62.6 C113.266337,62.8636259 114.470697,62.6320587 115.437535,61.9621239 C116.404372,61.292189 117.044198,60.245896 117.2,59.08 C117.354962,57.9936744 117.385158,56.8931886 117.29,55.8 C117.07,52.99 115.39,51.6 112.56,51.69 C111.7,51.69 111.3,51.93 111.34,52.87 C111.35,54.31 111.31,55.75 111.31,57.19 L111.36,57.19 Z" id="Shape" fill="#FFFFFF" fill-rule="nonzero"></path>
                    <path d="M64.66,57.19 C64.66,55 64.66,52.81 64.66,50.62 C64.66,49.62 64.97,49.27 65.93,49.27 C66.89,49.27 68.11,49.1 69.21,49.11 C75.28,49.11 78.32,52.78 77.32,58.78 C76.66,62.78 74.01,65.11 69.95,65.14 C68.25,65.14 66.09,65.88 64.95,64.79 C63.95,63.85 64.73,61.72 64.67,60.12 C64.63,59.15 64.66,58.17 64.66,57.19 Z M74.03,57.19 C74.03,53.33 72.52,51.58 69.25,51.68 C68.4,51.68 68,51.89 68.01,52.84 C68.01,55.72 68.01,58.61 68.01,61.49 C68.01,62.32 68.3,62.57 69.11,62.6 C72.39,62.76 74,61 74,57.2 L74.03,57.19 Z" id="Shape" fill="#FFFFFF" fill-rule="nonzero"></path>
                    <path d="M45.27,20.72 C45.27,18.3 45.34,15.88 45.27,13.46 C45.27,12.21 45.68,11.89 46.85,11.92 C49.56,12 52.27,11.92 54.98,11.92 C55.6,11.92 56.51,11.58 56.55,12.71 C56.59,13.84 56.26,14.6 55.08,14.71 C53.6415646,14.8049323 52.1984354,14.8049323 50.76,14.71 C49.4,14.62 48.76,15.07 49.02,16.45 C49.0662622,16.7817282 49.0662622,17.1182718 49.02,17.45 C48.84,18.69 49.24,19.29 50.6,19.12 C51.4,19.02 52.22,19.12 53.02,19.12 C54.12,19.03 54.67,19.26 54.68,20.58 C54.69,21.9 53.95,22.02 52.95,21.96 C52.43,21.96 51.95,21.96 51.39,21.96 C48.68,22 49,21.68 49,24.42 C49,27.16 48.63,26.82 51.51,26.86 C52.67,26.86 53.82,26.86 54.97,26.86 C55.9450368,26.8174521 56.7854182,27.5396548 56.89,28.51 C57.01,29.26 56.79,29.75 55.89,29.75 C52.6633333,29.75 49.4333333,29.75 46.2,29.75 C45.29,29.75 45.2,29.17 45.2,28.47 C45.28,25.91 45.27,23.31 45.27,20.72 Z" id="Path" fill="#FFFFFF" fill-rule="nonzero"></path>
                    <path d="M116.88,20.68 C116.88,18.26 116.93,15.84 116.88,13.42 C116.88,12.32 117.15,11.89 118.32,11.92 C121.08,12 123.85,11.92 126.62,11.92 C127.27,11.92 128.15,11.68 128.15,12.77 C128.15,13.86 127.83,14.65 126.62,14.69 C125.18,14.69 123.73,14.8 122.3,14.69 C121.05,14.62 120.56,14.95 120.62,16.3 C120.77,19.68 120.23,19.05 123.48,19.12 C123.939333,19.1550453 124.400667,19.1550453 124.86,19.12 C126.07,18.96 126.26,19.57 126.28,20.63 C126.3,21.69 125.88,22.08 124.86,21.96 C124.573685,21.9399321 124.286315,21.9399321 124,21.96 C120.43,21.96 120.1,22.4 120.63,25.96 C120.76,26.82 121.25,26.78 121.84,26.78 L126.33,26.78 C127.09571,26.6942835 127.842569,27.0560432 128.25,27.71 C128.93,28.85 128.56,29.56 127.25,29.57 C124.25,29.57 121.25,29.57 118.25,29.57 C117.18,29.57 116.86,29.21 116.88,28.17 C116.92,25.76 116.88,23.22 116.88,20.68 Z" id="Path" fill="#FFFFFF" fill-rule="nonzero"></path>
                    <path d="M157.58,30.27 C152.432585,30.265597 148.233382,26.1463788 148.13,21 C148.152026,15.7854912 152.385445,11.57 157.6,11.57 C160.940433,11.57 164.027121,13.3520999 165.697338,16.245 C167.367554,19.1379 167.367554,22.7021 165.697338,25.595 C164.027121,28.4879001 160.940433,30.27 157.6,30.27 L157.58,30.27 Z M157.58,27.95 C161.433889,27.9004459 164.522675,24.744837 164.489744,20.8907705 C164.456814,17.0367041 161.314558,13.9343352 157.460385,13.9505773 C153.606212,13.9669473 150.490319,17.0957929 150.49,20.95 C150.476533,22.8256096 151.216351,24.6281627 152.543581,25.9535129 C153.870811,27.2788631 155.674411,28.0161254 157.55,28 L157.58,27.95 Z" id="Shape" fill="#FFFFFF" fill-rule="nonzero"></path>
                    <path d="M94.27,57.23 C94.27,55.04 94.27,52.85 94.27,50.66 C94.27,49.66 94.61,49.28 95.64,49.24 C97.4174182,49.0732128 99.2075645,49.0966792 100.98,49.31 C102.91,49.65 104.58,50.41 105.03,52.51 C105.48,54.61 105.16,56.6 103.2,57.87 C102.33,58.43 102.37,58.87 102.87,59.61 C103.87,61.05 104.64,62.61 105.56,64.04 C106.04,64.82 105.84,65.16 104.96,65.28 C103.686028,65.6094294 102.348699,65.049142 101.69,63.91 C100.93,62.62 100.15,61.35 99.4,60.06 C99.09,59.52 98.72,59.06 98.03,59.28 C97.34,59.5 97.58,60.12 97.57,60.59 C97.57,61.51 97.57,62.43 97.57,63.35 C97.6510062,64.0495881 97.3255818,64.7340438 96.7318613,65.1128332 C96.1381409,65.4916227 95.3802911,65.498288 94.78,65.13 C94.12,64.84 94.33,64.27 94.32,63.79 C94.26,61.6 94.27,59.42 94.27,57.23 Z M97.52,54.34 C97.69,55.08 97.05,56.24 97.85,56.78 C98.7027301,57.1782194 99.7038107,57.0865173 100.47,56.54 C101.6255,55.7135688 102.042924,54.1899722 101.47,52.89 C100.85,51.47 99.53,51.27 98.27,51.48 C96.79,51.73 97.74,53.05 97.48,53.86 C97.4774698,54.0209277 97.4908684,54.1817108 97.52,54.34 L97.52,54.34 Z" id="Shape" fill="#FFFFFF" fill-rule="nonzero"></path>
                    <path d="M166,57.3 C165.967117,58.688066 165.75537,60.0660967 165.37,61.4 C164.52,64.18 162.72,65.54 159.92,65.51 C157.320732,65.6891183 155.002916,63.8839789 154.54,61.32 C153.801347,58.6994628 153.836075,55.9212549 154.64,53.32 C155.54,50.45 157.64,49.12 160.7,49.32 C163.25,49.47 164.97,51.07 165.55,53.91 C165.81,55 165.89,56.16 166,57.3 Z M162.61,57.4 C162.674247,56.0828023 162.515341,54.7642217 162.14,53.5 C161.910507,52.504995 161.021101,51.8026135 160,51.81 C158.975666,51.7968577 158.084329,52.508254 157.87,53.51 C157.120098,55.9980562 157.120098,58.6519438 157.87,61.14 C158.074027,62.2056452 159.036922,62.9545639 160.12,62.89 C161.133611,62.8642893 161.995678,62.1431366 162.2,61.15 C162.545976,59.9315161 162.694525,58.665476 162.64,57.4 L162.61,57.4 Z" id="Shape" fill="#FFFFFF" fill-rule="nonzero"></path>
                    <path d="M141,57.49 C140.935309,56.1082434 141.104351,54.7254804 141.5,53.4 C142.155544,50.6967363 144.741659,48.9209372 147.5,49.28 C150.13,49.41 151.86,51 152.5,53.95 C153.110554,56.5469482 152.999902,59.2613634 152.18,61.8 C151.365022,64.0707535 149.191673,65.5680102 146.779569,65.5204476 C144.367464,65.472885 142.254828,63.8911158 141.53,61.59 C141.138596,60.2597563 140.959727,58.8760459 141,57.49 L141,57.49 Z M149.5,57.32 C149.564746,55.9973974 149.395482,54.6737498 149,53.41 C148.758407,52.4944385 147.946263,51.844724 147,51.81 C146.033113,51.7229643 145.143352,52.3428452 144.89,53.28 C143.99998,55.9066541 143.99998,58.7533459 144.89,61.38 C145.124678,62.3172634 145.995843,62.9527505 146.96,62.89 C147.973474,62.9043533 148.861888,62.2152098 149.1,61.23 C149.450688,59.9580689 149.589213,58.6370103 149.51,57.32 L149.5,57.32 Z" id="Shape" fill="#FFFFFF" fill-rule="nonzero"></path>
                    <path d="M90.79,65.06 C89.26,65.48 88.71,64.74 88.53,63.65 C88.22,61.65 87.13,60.92 85.19,61.29 C84.8590142,61.3459468 84.5209858,61.3459468 84.19,61.29 C83.5808218,61.0949023 82.9150745,61.2029583 82.3988748,61.5807137 C81.8826751,61.958469 81.5783057,62.5603451 81.58,63.2 C81.34,65.13 80.1,65.36 78.5,65.2 C77.86,65.12 77.72,64.9 77.93,64.31 C79.61,59.59 81.2766667,54.8666667 82.93,50.14 C83.26,49.21 84.07,49.26 84.79,49.21 C85.7948446,48.9895451 86.8157303,49.5083559 87.23,50.45 C88.91,55.05 90.62,59.64 92.14,64.29 C92.64,65.84 91.05,64.79 90.79,65.06 Z M85.16,52.81 L84.79,52.81 C84.22,54.57 83.64,56.34 83.06,58.1 C82.84,58.76 83.19,58.9 83.75,58.9 L86.15,58.9 C86.69,58.9 87.05,58.81 86.83,58.11 C86.26,56.36 85.72,54.58 85.16,52.81 Z" id="Shape" fill="#FFFFFF" fill-rule="nonzero"></path>
                    <path d="M45.6,65.06 C44.01,65.48 43.38,64.77 43.19,63.59 C42.88,61.71 41.85,61 40,61.28 C39.4868333,61.3650483 38.9631667,61.3650483 38.45,61.28 C37.25,61.1 36.69,61.63 36.36,62.76 C36.11,63.59 36.2,64.76 35.18,65.09 C34.3639983,65.4493722 33.4285199,65.4162253 32.64,65 C32.12,64.57 32.8,63.74 33.01,63.12 C34.46,58.99 36.01,54.88 37.36,50.73 C37.5643514,49.80184 38.4110134,49.1583769 39.36,49.21 C40.48,49.21 41.51,49.36 41.93,50.5 C43.6,55.05 45.24,59.6 46.81,64.18 C47.36,65.8 45.86,64.87 45.6,65.06 Z M39.67,52.21 C39.13,53.85 38.74,55 38.37,56.14 C37.37,59.14 37.37,59.14 40.68,58.93 C41.42,58.87 41.68,58.75 41.45,57.93 C40.87,56.2 40.36,54.44 39.67,52.21 Z" id="Shape" fill="#FFFFFF" fill-rule="nonzero"></path>
                    <path d="M14.17,65.54 C12.8988996,65.5872171 11.6346075,65.3336734 10.48,64.8 C10.0219522,64.6868296 9.64760887,64.3578731 9.476503,63.9181708 C9.30539713,63.4784685 9.35892708,62.9830092 9.62,62.59 C10.18,61.38 10.84,61.75 11.62,62.28 C12.5589213,62.8652968 13.6760857,63.0958228 14.77,62.93 C15.7596282,62.9252693 16.6088901,62.2239243 16.80064,61.2530389 C16.9923899,60.2821535 16.4735247,59.3106035 15.56,58.93 C14.5,58.47 13.4,58.12 12.34,57.68 C10.5645551,57.1409772 9.39287065,55.4517642 9.51,53.6 C9.4582844,51.7493036 10.6301598,50.0850777 12.39,49.51 C14.5167089,48.6952182 16.8868161,48.8039387 18.93,49.81 C19.3567553,49.9264687 19.7048552,50.2351665 19.8715082,50.6449369 C20.0381612,51.0547072 20.0043283,51.5187365 19.78,51.9 C19.25,53.09 18.59,52.54 17.86,52.16 C16.8360971,51.6053952 15.6454969,51.4419098 14.51,51.7 C13.8003325,51.7659028 13.2082898,52.2699392 13.03,52.96 C12.8291464,53.7225065 13.2101014,54.5182791 13.93,54.84 C14.7496343,55.2560436 15.5946374,55.6200963 16.46,55.93 C19.64,57.17 20.69,58.68 20.25,61.43 C19.87,63.84 17.81,65.43 14.84,65.57 L14.17,65.54 Z" id="Path" fill="#FFFFFF" fill-rule="nonzero"></path>
                    <path d="M105.73,22.49 C105.73,20.41 105.73,18.34 105.73,16.26 C105.73,15.26 105.43,14.91 104.44,14.97 C103.520822,15.0250102 102.599178,15.0250102 101.68,14.97 C101.06,14.97 100.17,15.3 100.05,14.22 C99.8727729,13.3288874 100.387424,12.4454023 101.25,12.16 C101.741125,12.0044548 102.255098,11.9334453 102.77,11.95 C106.29,11.95 109.77,11.95 113.32,11.95 C113.94,11.95 114.83,11.63 114.94,12.7 C115.121272,13.5907211 114.617562,14.4786172 113.76,14.78 C112.929076,15.0404199 112.047986,15.0987021 111.19,14.95 C109.87,14.84 109.39,15.24 109.42,16.66 C109.52,20.46 109.42,24.27 109.49,28.07 C109.49,29.68 108.81,29.77 107.49,29.81 C106.17,29.85 105.49,29.49 105.64,28.01 C105.83,26.18 105.73,24.33 105.73,22.49 Z" id="Path" fill="#FFFFFF" fill-rule="nonzero"></path>
                    <path d="M26.33,58.57 C26.33,56.84 26.33,55.1 26.33,53.38 C26.33,52.38 26.08,51.86 24.98,51.96 C24.2917748,52.0299889 23.5982252,52.0299889 22.91,51.96 C22.31,51.9 21.39,52.36 21.31,51.22 C21.2202296,50.7527996 21.3443817,50.269949 21.6483756,49.9039945 C21.9523695,49.5380401 22.4042602,49.3274379 22.88,49.33 C24.02,49.24 25.18,49.33 26.33,49.33 C28.58,49.33 30.83,49.33 33.08,49.33 C33.68,49.33 34.61,48.93 34.64,50.09 C34.70512,50.5291139 34.5848811,50.9755452 34.3080316,51.3225552 C34.031182,51.6695653 33.6226092,51.8859597 33.18,51.92 C32.5591881,52.0255919 31.927538,52.0524706 31.3,52 C30.03,51.85 29.59,52.28 29.63,53.61 C29.73,57.01 29.63,60.42 29.69,63.82 C29.69,65.24 29.01,65.22 28,65.23 C26.99,65.24 26.22,65.17 26.3,63.79 C26.41,62 26.33,60.3 26.33,58.57 Z" id="Path" fill="#FFFFFF" fill-rule="nonzero"></path>
                    <path d="M136.64,57.41 C136.64,59.6 136.58,61.8 136.64,63.98 C136.7,65.44 135.75,65.13 134.93,65.17 C134.11,65.21 133.35,65.25 133.39,63.98 C133.46,61.16 133.39,58.33 133.39,55.51 C133.39,53.3 133.39,53.22 131.39,54.22 C130.17,54.86 129.72,54.29 129.34,53.31 C129.213582,53.0435214 129.198419,52.7376863 129.297857,52.4600097 C129.397296,52.1823331 129.603158,51.9556492 129.87,51.83 C131.4,51.03 132.92,50.18 134.51,49.54 C135.9,48.99 136.51,49.54 136.51,51.02 C136.66,53.15 136.64,55.28 136.64,57.41 Z" id="Path" fill="#FFFFFF" fill-rule="nonzero"></path>
                    <path d="M40.66,39.42 C40.66,41.6 39.44,43.01 37.56,42.99 C35.68,42.97 34.56,41.59 34.56,39.5 C34.56,37.41 35.8,35.93 37.7,35.93 C39.6,35.93 40.66,37.31 40.66,39.42 Z M36.08,39.42 C36.15,40.49 36.14,41.73 37.68,41.73 C39.22,41.73 39.2,40.5 39.21,39.49 C39.22,38.48 39.15,37.15 37.61,37.17 C36.07,37.19 36.14,38.35 36.08,39.43 L36.08,39.42 Z" id="Shape" fill="#FFFFFF" fill-rule="nonzero"></path>
                    <path d="M109,39.75 C109,38.83 109,37.91 109,37 C109,36.58 109,36.16 109.61,36.16 C110.22,36.16 110.32,36.5 110.32,36.95 C110.32,38.62 110.32,40.29 110.32,41.95 C110.32,42.29 110.32,42.66 109.83,42.72 C109.430343,42.7764764 109.035916,42.5871516 108.83,42.24 C108.161027,41.123708 107.354739,40.0956913 106.43,39.18 L106.43,41.65 C106.43,42.17 106.43,42.76 105.68,42.72 C104.93,42.68 105.09,42.13 105.08,41.72 C105.08,40.22 105.08,38.72 105.08,37.23 C105.08,36.86 104.94,36.37 105.47,36.23 C105.92878,36.1020627 106.414125,36.3154472 106.63,36.74 L108.63,39.92 L109,39.75 Z" id="Path" fill="#FFFFFF" fill-rule="nonzero"></path>
                    <path d="M79.56,39.73 C79.56,38.88 79.56,38.02 79.56,37.17 C79.56,36.73 79.48,36.17 80.17,36.17 C80.86,36.17 80.89,36.64 80.9,37.17 C80.9,38.72 80.9,40.28 80.9,41.83 C80.9,42.21 80.99,42.68 80.4,42.77 C79.9925083,42.8446653 79.5847628,42.6407925 79.4,42.27 C78.7148216,41.177809 77.9024769,40.1707702 76.98,39.27 L76.98,41.92 C76.98,42.41 76.91,42.85 76.24,42.82 C75.57,42.79 75.63,42.4 75.63,41.98 C75.63,40.37 75.63,38.76 75.63,37.15 C75.63,36.76 75.63,36.3 76.16,36.23 C76.570857,36.1828972 76.9683236,36.3935546 77.16,36.76 L79.16,39.92 L79.56,39.73 Z" id="Path" fill="#FFFFFF" fill-rule="nonzero"></path>
                    <path d="M47,39.73 C47,38.81 47,37.9 47,36.98 C47,36.56 47,36.14 47.62,36.15 C48.24,36.16 48.32,36.52 48.32,36.96 C48.32,38.63 48.32,40.3 48.32,41.96 C48.32,42.3 48.32,42.66 47.82,42.72 C47.4114274,42.7689213 47.0145973,42.5625697 46.82,42.2 C46.1420621,41.105427 45.3327123,40.0979376 44.41,39.2 C44.41,40.03 44.41,40.86 44.41,41.68 C44.41,42.2 44.46,42.79 43.66,42.75 C42.86,42.71 43.07,42.16 43.07,41.75 C43.07,40.26 43.07,38.75 43.07,37.26 C43.07,36.89 42.91,36.4 43.44,36.26 C43.97,36.12 44.44,36.43 44.71,36.9 L46.6,39.9 L47,39.73 Z" id="Path" fill="#FFFFFF" fill-rule="nonzero"></path>
                    <path d="M96.24,20.91 C97.24,20.91 98.31,20.91 99.35,20.91 C100.39,20.91 100.93,21.62 100.94,22.73 C100.94,24 100.04,23.67 99.36,23.73 C97.63,23.73 95.9,23.73 94.17,23.73 C93.31,23.73 92.52,23.53 92.3,22.56 C92.08,21.59 92.1,20.81 93.48,20.92 C94.39,20.99 95.32,20.92 96.24,20.92 L96.24,20.91 Z" id="Path" fill="#FFFFFF" fill-rule="nonzero"></path>
                    <path d="M62.89,42.76 C61.76,43 61.27,42.5 61.38,41.18 C61.4899866,39.9825202 61.4899866,38.7774798 61.38,37.58 C61.26,36.29 61.89,36 63,36 C65.43,36 66.68,37 66.71,39.27 C66.71,41.65 65.55,42.76 62.89,42.76 Z M62.63,39.48 C63.4,40.02 61.86,41.62 63.63,41.63 C64.94,41.63 65.22,40.52 65.22,39.39 C65.22,38.26 64.88,37.17 63.57,37.22 C62,37.28 63.21,38.69 62.63,39.48 Z" id="Shape" fill="#FFFFFF" fill-rule="nonzero"></path>
                    <path d="M162.66,43 C162.353687,42.9753447 162.049559,42.9285558 161.75,42.86 C161.26,42.71 160.6,42.59 160.75,41.86 C160.9,41.13 161.5,41.49 161.98,41.62 C162.46,41.75 163.34,41.99 163.64,41.23 C163.99,40.3 163.15,40.07 162.52,39.84 C161.22,39.37 160.39,38.6 160.92,37.12 C161.32,36 163.07,35.55 164.39,36.12 C164.77,36.29 165.2,36.45 165.07,36.96 C164.94,37.47 164.53,37.35 164.07,37.22 C163.48,37.05 162.67,36.76 162.42,37.54 C162.17,38.32 163.11,38.54 163.7,38.83 C164.77,39.29 165.47,39.96 165.19,41.2 C164.91,42.44 164,42.94 162.66,43 Z" id="Path" fill="#FFFFFF" fill-rule="nonzero"></path>
                    <path d="M129.69,42.56 C129.885981,42.1529552 130.113334,41.7617748 130.37,41.39 C131.37,40.13 131.62,38.9 130.48,37.56 C130.21,37.25 129.62,36.66 130.26,36.24 C130.9,35.82 131.39,36.24 131.63,36.84 C132.25,38.34 132.77,37.84 133.32,36.84 C133.58,36.34 134.03,35.94 134.57,36.23 C135.11,36.52 134.67,37.08 134.43,37.37 C133.878572,37.9197379 133.568641,38.6663574 133.568641,39.445 C133.568641,40.2236426 133.878572,40.9702621 134.43,41.52 C134.7,41.84 135.29,42.41 134.62,42.82 C134.377609,42.9337923 134.098192,42.938808 133.851873,42.8337883 C133.605554,42.7287686 133.415716,42.5236828 133.33,42.27 C132.61,40.78 132.02,40.82 131.33,42.27 C131.05,42.93 130.43,42.83 129.69,42.56 Z" id="Path" fill="#FFFFFF" fill-rule="nonzero"></path>
                    <path d="M125.6,36.12 C125.876037,36.093606 126.153963,36.093606 126.43,36.12 C126.88,36.21 127.65,35.81 127.69,36.56 C127.73,37.31 126.99,37.13 126.49,37.19 C125.99,37.25 125.11,36.88 125.07,37.93 C125.07,38.82 125.73,38.69 126.29,38.74 C126.85,38.79 127.14,38.87 127.09,39.41 C127.04,39.95 126.55,39.91 126.16,39.91 C125.52,39.91 125.03,39.97 125.04,40.81 C125.04,41.81 125.73,41.67 126.35,41.69 C126.684563,41.6898428 127.018722,41.7132339 127.35,41.76 C127.493353,41.7795025 127.622503,41.8567586 127.707483,41.9738428 C127.792464,42.090927 127.825888,42.2376616 127.8,42.38 C127.8,42.69 127.51,42.72 127.29,42.72 C126.29,42.72 125.23,42.72 124.19,42.72 C123.55,42.72 123.5,42.25 123.49,41.72 C123.49,40.16 123.49,38.61 123.49,37.06 C123.58,35.35 125,36.47 125.6,36.12 Z" id="Path" fill="#FFFFFF" fill-rule="nonzero"></path>
                    <path d="M83.33,39.56 C83.33,36.9 85.41,35.22 87.6,36.15 C88.09,36.35 88.66,36.59 88.44,37.24 C88.22,37.89 87.74,37.43 87.35,37.3 C86.6644856,36.9449606 85.8232146,37.1300402 85.35,37.74 C84.6885186,38.7230772 84.6496352,39.9984519 85.25,41.02 C85.6577334,41.7095553 86.5147801,41.9880955 87.25,41.67 C87.69,41.57 88.25,40.97 88.48,41.85 C88.63,42.49 87.99,42.66 87.48,42.85 C85.27,43.56 83.35,42 83.33,39.56 Z" id="Path" fill="#FFFFFF" fill-rule="nonzero"></path>
                    <path d="M27.53,39.47 C27.53,36.81 29.64,35.22 31.84,36.19 C32.27,36.37 32.79,36.58 32.63,37.19 C32.47,37.8 31.93,37.54 31.51,37.38 C30.7672789,36.9633266 29.8281366,37.2058281 29.38,37.93 C28.7540384,38.8721744 28.7540384,40.0978256 29.38,41.04 C29.8242243,41.764056 30.7433881,42.0359213 31.51,41.67 C31.93,41.54 32.42,41.14 32.63,41.84 C32.84,42.54 32.29,42.62 31.87,42.84 C29.64,43.73 27.51,42.11 27.53,39.47 Z" id="Path" fill="#FFFFFF" fill-rule="nonzero"></path>
                    <path d="M90.91,39.28 L90.91,38.94 C90.91,35.94 91.19,35.68 94.27,36.12 C94.6,36.17 95.03,36.12 95.02,36.61 C95.01,37.1 94.65,37.16 94.28,37.18 L93.28,37.18 C92.78,37.18 92.36,37.26 92.37,37.91 C92.38,38.56 92.7,38.69 93.24,38.73 C93.78,38.77 94.44,38.55 94.39,39.36 C94.34,40.17 93.61,39.88 93.15,39.9 C92.69,39.92 92.36,40.21 92.35,40.77 C92.34,41.33 92.62,41.66 93.27,41.7 C93.92,41.74 95.21,41.36 95.16,42.26 C95.11,43.16 93.83,42.69 93.16,42.72 C90.91,42.82 90.91,42.76 90.91,39.28 Z" id="Path" fill="#FFFFFF" fill-rule="nonzero"></path>
                    <path d="M69.09,39.37 L69.09,39 C69.09,35.95 69.56,35.56 72.53,36.1 C72.8,36.1 73.15,36.1 73.18,36.49 C73.21,36.88 72.93,37.08 72.55,37.14 L72.38,37.14 C71.76,37.36 70.7,36.63 70.54,37.79 C70.38,38.95 71.54,38.55 72.14,38.79 C72.2813868,38.8230902 72.403489,38.9117279 72.4787503,39.0359089 C72.5540115,39.16009 72.5760889,39.3093487 72.54,39.45 C72.46,39.89 72.09,39.91 71.74,39.91 C71.08,39.91 70.46,39.91 70.48,40.85 C70.5,41.79 71.23,41.66 71.82,41.7 C72.1541928,41.7012933 72.4880501,41.7213247 72.82,41.76 C73.1189905,41.7913984 73.3421927,42.0496127 73.33,42.35 C73.33,42.75 72.98,42.72 72.7,42.76 L72.53,42.76 C69.09,43.14 69.09,43.14 69.09,39.37 Z" id="Path" fill="#FFFFFF" fill-rule="nonzero"></path>
                    <path d="M156.84,42.76 C154.26,42.76 154.6,43.03 154.57,40.42 L154.57,39 C154.57,36 155.04,35.56 158.01,36.1 C158.28,36.1 158.63,36.1 158.66,36.49 C158.69,36.88 158.41,37.09 158.03,37.14 C157.8,37.14 157.57,37.14 157.34,37.14 C156.77,37.2 155.97,36.87 155.97,37.93 C155.97,38.79 156.58,38.77 157.17,38.79 C157.57,38.79 158.05,38.79 158,39.38 C157.95,39.97 157.57,39.85 157.22,39.85 C156.58,39.85 155.93,39.78 155.96,40.78 C155.96,41.96 156.85,41.55 157.46,41.64 L157.63,41.64 C158.14,41.64 158.84,41.57 158.82,42.28 C158.8,42.99 158.11,42.63 157.7,42.69 C157.41593,42.7384228 157.128162,42.7618458 156.84,42.76 L156.84,42.76 Z" id="Path" fill="#FFFFFF" fill-rule="nonzero"></path>
                    <path d="M119,36 C119.332917,35.9764301 119.667083,35.9764301 120,36 C120.51,36.07 121.32,35.68 121.42,36.5 C121.52,37.32 120.77,37.18 120.27,37.18 C119.5,37.18 119.489991,37.7 119.489991,38.25 C119.489991,39.4 119.489991,40.55 119.489991,41.71 C119.489991,42.27 119.42,42.71 118.66,42.71 C117.9,42.71 117.989991,42.21 117.989991,41.71 C117.989991,40.79 117.989991,39.87 117.989991,38.95 C117.989991,38.03 117.989991,36.95 116.53,37.14 C116.24,37.14 115.93,37.05 116,36.65 C116.034186,36.3486737 116.269314,36.1094206 116.57,36.07 C117.37,36 118.17,35.98 118.97,35.93 L119,36 Z" id="Path" fill="#FFFFFF" fill-rule="nonzero"></path>
                    <path d="M51.05,39.39 C51.05,39.28 51.05,39.16 51.05,39.05 C51.05,35.8 51.05,35.8 54.29,36.13 C54.65,36.13 55.21,36.01 55.16,36.64 C55.11,37.27 54.65,37.18 54.23,37.19 L53.23,37.19 C53.027514,37.1542256 52.8203113,37.2195179 52.6749146,37.3649146 C52.5295179,37.5103113 52.4642256,37.717514 52.5,37.92 C52.5,38.43 52.77,38.6 53.24,38.65 C53.71,38.7 54.58,38.38 54.53,39.31 C54.53,40.07 53.76,39.8 53.29,39.85 C52.03,39.98 52.61,40.95 52.49,41.58 C52.4,42.06 52.61,42.69 51.81,42.72 C51.01,42.75 51.11,42.12 51.1,41.63 C51,40.89 51.05,40.14 51.05,39.39 Z" id="Path" fill="#FFFFFF" fill-rule="nonzero"></path>
                    <path d="M148.16,39.32 C148.16,38.58 148.16,37.83 148.16,37.08 C148.16,36.62 148.16,36.08 148.83,36.14 C149.5,36.2 149.62,36.57 149.64,37.08 C149.695075,38.0558902 149.695075,39.0341098 149.64,40.01 C149.53,41.24 149.85,41.89 151.22,41.68 C151.69,41.61 152.28,41.68 152.28,42.28 C152.28,42.88 151.62,42.73 151.21,42.75 C148.16,42.92 148.16,42.91 148.16,39.32 Z" id="Path" fill="#FFFFFF" fill-rule="nonzero"></path>
                    <path d="M139.57,36.12 C139.855882,36.089999 140.144118,36.089999 140.43,36.12 C140.99,36.24 141.9,35.73 142.04,36.55 C142.18,37.37 141.27,37.14 140.76,37.23 C140.02,37.36 140.12,37.93 140.11,38.43 C140.11,39.58 140.11,40.73 140.11,41.87 C140.11,42.29 140.11,42.69 139.51,42.72 C138.91,42.75 138.72,42.41 138.72,41.87 C138.72,40.87 138.72,39.81 138.72,38.78 C138.72,37.75 138.72,37.01 137.41,37.19 C137.15,37.19 136.79,37.19 136.74,36.85 C136.710241,36.6770716 136.758998,36.49987 136.873033,36.3665067 C136.987069,36.2331433 137.154548,36.1574581 137.33,36.16 C138.08,36.11 138.82,36.16 139.57,36.16 L139.57,36.12 Z" id="Path" fill="#FFFFFF" fill-rule="nonzero"></path>
                    <path d="M102.49,39.62 L102.49,41.86 C102.49,42.38 102.37,42.77 101.73,42.75 C101.09,42.73 101,42.33 101,41.82 C101,40.27 101,38.71 101,37.16 C101,36.71 100.92,36.16 101.61,36.16 C102.3,36.16 102.46,36.65 102.47,37.21 C102.5,38 102.49,38.81 102.49,39.62 Z" id="Path" fill="#FFFFFF" fill-rule="nonzero"></path>
                    <path d="M145.59,39.55 L145.59,42 C145.59,42.46 145.43,42.77 144.89,42.76 C144.35,42.75 144.21,42.43 144.21,41.98 L144.21,36.98 C144.21,36.55 144.29,36.15 144.86,36.19 C145.064804,36.1943734 145.258346,36.2845977 145.393376,36.4386456 C145.528406,36.5926936 145.592496,36.7963884 145.57,37 C145.57,37.87 145.57,38.73 145.57,39.59 L145.59,39.55 Z" id="Path" fill="#FFFFFF" fill-rule="nonzero"></path>
                    <path d="M57.34,39.45 L57.34,37 C57.34,36.59 57.34,36.15 57.92,36.12 C58.1251945,36.0925342 58.3318783,36.1586538 58.4830312,36.3001173 C58.6341841,36.4415809 58.7138314,36.6434381 58.7,36.85 C58.7,38.57 58.7,40.3 58.7,42.03 C58.7277161,42.2040813 58.6747613,42.3813198 58.5560898,42.5116638 C58.4374183,42.6420079 58.2659107,42.7113102 58.09,42.7 C57.6,42.7 57.33,42.51 57.33,42.01 C57.33,41.14 57.33,40.28 57.33,39.42 L57.34,39.45 Z" id="Path" fill="#FFFFFF" fill-rule="nonzero"></path>
                    <path d="M191.63,54.67 C191.43,53.62 191.82,53.23 192.91,53.2 C194.35,53.2 194.21,54.14 194.34,55.02 C194.5,56.11 193.77,56.02 193.06,56.08 C192,56.15 191.36,55.87 191.63,54.67 Z" id="Path" fill="#FFFFFF" fill-rule="nonzero"></path>
                    <path d="M185.94,56 C185.68,55.9 184.7,56.41 184.89,55.3 C185.05,54.36 185.04,53.11 186.58,53.23 C187.09,53.23 187.91,53.03 187.64,54.01 C187.41,54.85 188,56.35 185.94,56 Z" id="Path" fill="#FFFFFF" fill-rule="nonzero"></path>
                    <path d="M196.48,56 C194.48,56.26 195.08,54.76 194.87,53.94 C194.66,53.12 195.48,53.23 195.99,53.2 C197.52,53.12 197.5,54.39 197.63,55.31 C197.79,56.43 196.8,55.91 196.48,56 Z" id="Path" fill="#FFFFFF" fill-rule="nonzero"></path>
                    <path d="M189.56,56.69 C190.66,56.47 190.98,56.98 190.96,58.1 C190.94,59.22 190.65,59.46 189.6,59.49 C188.16,59.49 188.29,58.56 188.18,57.67 C188.05,56.56 188.8,56.66 189.56,56.69 Z" id="Path" fill="#FFFFFF" fill-rule="nonzero"></path>
                    <path d="M191.63,58.1 C191.39,56.96 191.89,56.55 193.01,56.66 C193.68,56.73 194.5,56.52 194.34,57.66 C194.22,58.52 194.34,59.53 192.94,59.49 C191.92,59.45 191.4,59.21 191.63,58.1 Z" id="Path" fill="#FFFFFF" fill-rule="nonzero"></path>
                    <path d="M190.88,54.58 C191.18,55.93 190.43,56.06 189.44,56.02 C188.71,56.02 188.04,56.02 188.18,54.96 C188.32,53.9 188.26,53.13 189.65,53.2 C190.71,53.26 191.16,53.59 190.88,54.58 Z" id="Path" fill="#FFFFFF" fill-rule="nonzero"></path>
                    <path d="M196.75,56.77 C196.88,56.77 197.85,56.36 197.63,57.49 C197.45,58.37 197.48,59.58 196.02,59.44 C195.52,59.44 194.66,59.69 194.88,58.71 C195.1,57.73 194.54,56.36 196.75,56.77 Z" id="Path" fill="#FFFFFF" fill-rule="nonzero"></path>
                    <path d="M186.09,56.69 C187.94,56.33 187.44,57.82 187.64,58.69 C187.84,59.56 187.04,59.42 186.53,59.47 C185.07,59.62 185.09,58.47 184.89,57.54 C184.65,56.4 185.59,56.78 186.09,56.69 Z" id="Path" fill="#FFFFFF" fill-rule="nonzero"></path>
                    <path d="M190.91,61.62 C190.77,61.94 191.24,62.78 190.44,62.72 C189.35,62.62 189.12,61.54 188.9,60.72 C188.68,59.9 189.43,60.2 189.83,60.15 C191,60 191,60.72 190.91,61.62 Z" id="Path" fill="#FFFFFF" fill-rule="nonzero"></path>
                    <path d="M191.62,61.63 C191.57,60.78 191.49,59.98 192.62,60.13 C193.01,60.13 193.74,59.94 193.62,60.67 C193.5,61.4 193.17,62.59 192.1,62.67 C191.29,62.81 191.76,62 191.62,61.63 Z" id="Path" fill="#FFFFFF" fill-rule="nonzero"></path>
                    <path d="M190.89,51.21 C191.04,52.21 190.75,52.68 189.82,52.57 C189.41,52.57 188.74,52.69 188.91,51.96 C189.08,51.23 189.39,50.16 190.36,50.07 C191.33,49.98 190.76,50.9 190.89,51.21 Z" id="Path" fill="#FFFFFF" fill-rule="nonzero"></path>
                    <path d="M193.11,52.49 C191.51,52.74 191.54,51.94 191.62,51.17 C191.62,50.75 191.32,49.94 192.17,50.06 C193.02,50.18 193.38,51.19 193.59,51.98 C193.8,52.77 193.08,52.49 193.11,52.49 Z" id="Path" fill="#FFFFFF" fill-rule="nonzero"></path>
                    <path d="M186.25,60.25 C187.92,59.73 188.3,60.67 188.5,62.11 C187.513633,61.8497493 186.691129,61.1698129 186.25,60.25 L186.25,60.25 Z" id="Path" fill="#FFFFFF" fill-rule="nonzero"></path>
                    <path d="M196.37,60.27 C195.82244,61.1227209 195.016515,61.7779723 194.07,62.14 C194.19,60.73 194.5,59.78 196.37,60.27 Z" id="Path" fill="#FFFFFF" fill-rule="nonzero"></path>
                    <path d="M196.37,52.46 C194.57,53.03 194.22,52.07 194.03,50.66 C194.995583,50.9696354 195.823047,51.606146 196.37,52.46 L196.37,52.46 Z" id="Path" fill="#FFFFFF" fill-rule="nonzero"></path>
                    <path d="M188.52,50.47 C188.28,52.06 187.92,53 186.27,52.52 C186.62,51.51 187.49,51.15 188.52,50.47 Z" id="Path" fill="#FFFFFF" fill-rule="nonzero"></path>
                    <path d="M154.66,20.58 C154.599925,20.0082404 154.599925,19.4317596 154.66,18.86 C154.87,17.95 153.96,16.67 155.32,16.16 C156.93,15.55 159.83,16.16 160.51,17.21 C161.363866,18.2469703 161.258495,19.7704553 160.27,20.68 C159.27,21.57 159.59,22.16 160.16,22.95 C160.371571,23.2227504 160.55265,23.5178412 160.7,23.83 C160.89,24.31 161.7,24.83 161.09,25.27 C160.766235,25.4902226 160.364601,25.5636736 159.98385,25.4722932 C159.603098,25.3809129 159.278549,25.1331781 159.09,24.79 C158.6,24.09 158.19,23.33 157.73,22.59 C157.55,22.3 157.36,21.94 156.96,22.02 C156.56,22.1 156.62,22.55 156.6,22.87 C156.58,23.19 156.6,23.79 156.6,24.25 C156.6,24.89 156.53,25.37 155.69,25.37 C154.85,25.37 154.59,24.98 154.6,24.21 C154.68,23 154.66,21.79 154.66,20.58 Z M156.66,19.03 C156.86,19.55 156.22,20.56 157.43,20.55 C157.873243,20.5926094 158.31191,20.4320095 158.622864,20.1132816 C158.933818,19.7945538 159.083539,19.3520559 159.03,18.91 C159.055599,18.5269228 158.918089,18.1508716 158.651413,17.8746707 C158.384736,17.5984697 158.013739,17.4478535 157.63,17.46 C156.29,17.36 156.74,18.35 156.63,19 L156.66,19.03 Z" id="Shape" fill="#FFFFFF" fill-rule="nonzero"></path>
                </g>
                <g id="bluesign-technologies-ag-logo-vector" transform="translate(130.000000, 292.000000)" fill="#FFFFFF" fill-rule="nonzero">
                    <path d="M55.1831897,62.4257866 C54.9407328,61.547851 54.0678879,60.9228799 53.0818966,60.9377602 C51.6594828,60.9377602 50.625,62.0686602 50.625,63.8245314 C50.625,65.3125578 51.4655172,66.5625 53.0818966,66.5625 C54.0517241,66.5625 54.8922414,65.9821697 55.1831897,65.1339946 C55.2801724,64.8959104 55.3125,64.6429459 55.3125,64.3899814 L55.2801724,63.0507577 C55.2801724,62.842434 55.2478448,62.6341103 55.1831897,62.4257866 Z" id="Path"></path>
                    <path d="M33.8327206,60 C32.5367647,60 31.9852941,61.075 31.875,61.875 L35.625,61.875 C35.625,61.15 35.2941176,60 33.8327206,60 Z" id="Path"></path>
                    <path d="M68.4375,57.65625 C68.4375,57.28125 68.2572115,57.1875 67.9326923,57.1875 L67.5,57.1875 L67.5,58.125 L67.9326923,58.125 C68.2572115,58.125 68.4375,58.03125 68.4375,57.65625 Z" id="Path"></path>
                    <path d="M0,0 L0,75 L75,75 L75,0 L0,0 Z M11.88,67.5 C10.815,67.545 9.825,66.99 9.3,66.06 L9.27,66.06 L9.18,67.32 L6.81,67.32 L6.81,66.45 L8.04,66.33 C8.07,66 8.07,57 8.07,57 L6.84,56.88 L6.84,56.01 L9.45,56.01 L9.42,56.04 L9.45,56.04 L9.45,60.87 L9.48,60.87 C9.96,60 10.86,59.46 12.09,59.46 C14.01,59.46 15.36,61.05 15.33,63.39 C15.33,66.15 13.59,67.5 11.88,67.5 Z M20.16,67.29 L16.29,67.29 L16.29,66.42 L17.52,66.33 L17.52,57 L16.29,56.88 L16.29,56.04 L18.93,56.04 L18.93,66.33 L20.16,66.42 L20.16,67.29 L20.16,67.29 Z M29.4,67.32 L27.24,67.32 L27.15,66.06 L27.12,66.06 C26.61,66.975 25.62,67.53 24.57,67.5 C23.37,67.5 21.93,66.81 21.93,64.14 L21.93,60.63 L20.7,60.51 L20.7,59.64 L23.34,59.64 L23.34,63.87 C23.34,65.34 23.79,66.33 25.05,66.33 C25.86,66.3 26.58,65.79 26.88,65.04 C26.97,64.815 27,64.56 27,64.32 L27,60.6 L25.8,60.48 L25.8,59.61 L28.41,59.61 L28.41,66.33 L29.4,66.45 L29.4,67.32 Z M37.11,63.72 L31.71,63.72 C31.74,65.61 32.94,66.39 34.35,66.39 C35.085,66.42 35.805,66.3 36.48,66 L36.72,66.99 C35.91,67.335 35.025,67.485 34.14,67.47 C31.77,67.47 30.36,65.94 30.36,63.6 C30.36,61.26 31.71,59.46 33.96,59.46 C36.48,59.46 37.14,61.65 37.17,63.06 C37.17,63.285 37.14,63.495 37.11,63.72 Z M40.74,67.44 C39.99,67.44 39.24,67.26 38.58,66.9 L38.91,65.85 C39.48,66.18 40.11,66.36 40.77,66.39 C41.76,66.39 42.24,65.91 42.24,65.25 C42.24,64.56 41.85,64.23 40.83,63.84 C39.45,63.36 38.79,62.61 38.79,61.68 C38.79,60.45 39.81,59.43 41.43,59.43 C42.075,59.43 42.72,59.595 43.29,59.91 L42.96,60.93 C42.495,60.63 41.955,60.465 41.4,60.48 C40.59,60.48 40.14,60.96 40.14,61.53 C40.14,62.16 40.59,62.46 41.58,62.85 C42.87,63.33 43.59,64.02 43.59,65.13 C43.59,66.48 42.54,67.44 40.74,67.44 Z M47.28,67.29 L45.87,67.29 L45.87,60.6 L44.64,60.48 L44.64,59.61 L47.28,59.61 L47.28,67.29 L47.28,67.29 Z M47.4,57.495 C47.385,57.96 46.995,58.335 46.53,58.32 L46.47,58.32 C46.02,58.29 45.675,57.9 45.69,57.45 L45.69,57.42 L45.69,57.405 C45.705,56.94 46.095,56.565 46.56,56.58 C47.04,56.595 47.415,57 47.4,57.495 L47.4,57.495 Z M56.19,61.68 L56.19,66.15 C56.19,67.92 55.83,68.97 55.11,69.66 C54.315,70.305 53.31,70.635 52.29,70.59 C51.405,70.62 50.52,70.41 49.74,69.96 L50.1,68.88 C50.775,69.285 51.555,69.51 52.35,69.51 C53.79,69.51 54.84,68.76 54.84,66.81 L54.84,65.97 L54.81,65.97 C54.3,66.81 53.37,67.32 52.38,67.26 C50.46,67.26 49.11,65.64 49.11,63.51 C49.11,60.93 50.82,59.46 52.59,59.46 C53.58,59.4 54.51,59.91 54.99,60.78 L55.02,60.78 L55.02,59.58 L56.25,59.58 C56.22,60.12 56.19,60.75 56.19,61.68 Z M67.02,67.35 L63.18,67.35 L63.18,66.48 L64.41,66.36 L64.41,62.91 C64.41,61.65 63.96,60.63 62.64,60.63 C61.77,60.66 61.02,61.245 60.78,62.07 C60.72,62.28 60.69,62.505 60.69,62.73 L60.69,66.36 L61.92,66.48 L61.92,67.35 L58.05,67.35 L58.05,66.48 L59.28,66.36 L59.28,61.74 C59.28,61.32 59.25,60.96 59.25,60.63 L58.02,60.51 L58.02,59.64 L60.45,59.64 L60.54,60.9 L60.57,60.9 C61.08,59.985 62.07,59.43 63.12,59.46 C64.17,59.46 65.82,60.09 65.82,62.73 L65.79,66.36 L67.02,66.48 L67.02,67.35 Z M69.51,58.08 C69.51,59.085 68.685,59.88 67.68,59.88 C66.675,59.88 65.85,59.055 65.85,58.05 C65.85,57.045 66.675,56.22 67.68,56.22 C68.685,56.22 69.51,57.045 69.51,58.05 C69.51,58.065 69.51,58.065 69.51,58.08 Z" id="Shape"></path>
                    <path d="M11.65625,60.9375 C10.609375,60.9666451 9.71875,61.6515544 9.46875,62.5987694 C9.40625,62.7882124 9.375,62.9776554 9.375,63.181671 L9.375,64.4931995 C9.375,64.6534974 9.40625,64.8283679 9.4375,64.9886658 C9.6875,65.9213083 10.59375,66.5625 11.625,66.5625 C13.15625,66.5625 14.0625,65.3966969 14.0625,63.7062824 C14.0625,62.2198834 13.21875,60.9375 11.65625,60.9375 Z" id="Path"></path>
                    <path d="M67.96875,56.25 C67.1953125,56.25 66.5625,56.8828125 66.5625,57.65625 C66.5625,58.4296875 67.1953125,59.0625 67.96875,59.0625 C68.7421875,59.0484375 69.3609375,58.4296875 69.375,57.65625 C69.375,56.8828125 68.7421875,56.25 67.96875,56.25 Z M68.390625,58.584375 L67.96875,57.853125 L67.659375,57.853125 L67.659375,58.55625 L67.35,58.55625 L67.35,56.728125 L67.996875,56.728125 C68.41875,56.728125 68.671875,56.896875 68.671875,57.2625 C68.6859375,57.515625 68.5453125,57.740625 68.30625,57.825 L68.728125,58.584375 L68.390625,58.584375 Z" id="Shape"></path>
                </g>
                <g id="icon13" transform="translate(110.000000, 64.000000)">
                    <rect id="Rectangle" x="0" y="0" width="120" height="80"></rect>
                    <polygon id="Path" fill="#FFFFFF" fill-rule="nonzero" points="15.9 10.47 10.73 10.47 10.73 12.54 15.47 12.54 15.47 14.24 10.73 14.24 10.73 16.75 16.13 16.75 16.13 18.5 8.74 18.5 8.74 8.74 15.9 8.74"></polygon>
                    <path d="M19.45,11.28 L19.45,15.63 C19.4335135,15.9471279 19.484644,16.264137 19.6,16.56 C19.7857211,16.9342205 20.1845044,17.1535513 20.6,17.11 C21.1613792,17.1583785 21.6915744,16.8450814 21.92,16.33 C22.0528897,15.9720891 22.1140516,15.5915264 22.1,15.21 L22.1,11.28 L24,11.28 L24,18.5 L22.18,18.5 L22.18,17.5 L22.05,17.7 C21.9833056,17.8098473 21.8988217,17.9078486 21.8,17.99 C21.5580433,18.2280859 21.2683335,18.4121368 20.95,18.53 C20.6282217,18.6389979 20.2895967,18.6897916 19.95,18.68 C19.063676,18.7823383 18.2068639,18.3240435 17.8,17.53 C17.5609048,16.9334104 17.4551023,16.2917693 17.49,15.65 L17.49,11.28 L19.45,11.28 Z" id="Path" fill="#FFFFFF" fill-rule="nonzero"></path>
                    <path d="M29.86,11.12 L30,11.12 L30,13.05 L29.69,13.05 L29.46,13.05 C28.8481715,12.9701521 28.2472527,13.2607925 27.93,13.79 C27.761174,14.1946445 27.6859678,14.632208 27.71,15.07 L27.71,18.5 L25.81,18.5 L25.81,11.28 L27.61,11.28 L27.61,12.54 C27.8111168,12.1673607 28.0711357,11.8296737 28.38,11.54 C28.7648221,11.2248613 29.2532643,11.0644241 29.75,11.09 L29.86,11.12 Z" id="Path" fill="#FFFFFF" fill-rule="nonzero"></path>
                    <path d="M37.15,17.62 C36.4505028,18.4099322 35.4222462,18.8278927 34.37,18.75 C33.320666,18.8278381 32.2954634,18.4096146 31.6,17.62 C30.9853613,16.8490359 30.6630408,15.8856163 30.69,14.9 C30.6677722,13.9212017 30.9898266,12.9656557 31.6,12.2 C32.2867243,11.3963372 33.3160047,10.9690187 34.37,11.05 C35.4268817,10.9690321 36.459177,11.3960608 37.15,12.2 C37.7601734,12.9656557 38.0822278,13.9212017 38.06,14.9 C38.0869592,15.8856163 37.7646387,16.8490359 37.15,17.62 Z M35.64,16.62 C35.9610154,16.1207871 36.1150958,15.5324801 36.08,14.94 C36.1150453,14.3506682 35.9608835,13.7655542 35.64,13.27 C35.3190328,12.9010781 34.8540024,12.6892678 34.365,12.6892678 C33.8759976,12.6892678 33.4109672,12.9010781 33.09,13.27 C32.7644582,13.7634837 32.6098809,14.3501745 32.65,14.94 C32.609889,15.5329651 32.7643755,16.1228228 33.09,16.62 C33.4109672,16.9889219 33.8759976,17.2007322 34.365,17.2007322 C34.8540024,17.2007322 35.3190328,16.9889219 35.64,16.62 L35.64,16.62 Z" id="Shape" fill="#FFFFFF" fill-rule="nonzero"></path>
                    <path d="M45.48,12.06 C46.1193078,12.8236923 46.4350734,13.8068715 46.36,14.8 C46.4346417,15.8420795 46.1291131,16.875903 45.5,17.71 C44.9512453,18.3644723 44.1337861,18.7326972 43.28,18.71 C42.7660624,18.7266771 42.2606424,18.5757531 41.84,18.28 C41.5979111,18.0834963 41.3915496,17.846688 41.23,17.58 L41.23,21.34 L39.36,21.34 L39.36,11.28 L41.17,11.28 L41.17,12.35 C41.3444187,12.0692078 41.5640446,11.8191721 41.82,11.61 C42.2548481,11.2843856 42.7869533,11.1152396 43.33,11.13 C44.1465753,11.1188241 44.9289793,11.4572593 45.48,12.06 L45.48,12.06 Z M44,13.42 C43.743378,12.9857125 43.2631533,12.7339818 42.76,12.77 C42.1105932,12.7365916 41.5214733,13.1485636 41.33,13.77 C41.1854667,14.1911772 41.1177254,14.6348826 41.13,15.08 C41.0605932,15.7447919 41.3133411,16.4026797 41.81,16.85 C42.0872576,17.0462786 42.4203921,17.1479723 42.76,17.14 C43.2571255,17.1710286 43.7319245,16.9298001 44,16.51 C44.303075,16.025959 44.4497217,15.4603216 44.42,14.89 C44.4212111,14.3702273 44.2756252,13.8606767 44,13.42 L44,13.42 Z" id="Shape" fill="#FFFFFF" fill-rule="nonzero"></path>
                    <path d="M52.4,11.43 C52.907557,11.6601142 53.338062,12.0315984 53.64,12.5 C53.9471432,12.9482021 54.1457182,13.4617582 54.22,14 C54.276823,14.4744081 54.2968828,14.9524994 54.28,15.43 L49,15.43 C48.9623197,16.0548015 49.2593163,16.6526023 49.78,17 C50.0823036,17.1799123 50.428226,17.2733114 50.78,17.27 C51.1409003,17.2752023 51.4930807,17.1589827 51.78,16.94 C51.9402085,16.7992685 52.0725097,16.6296517 52.17,16.44 L54.09,16.44 C54.0058762,16.9384868 53.7598612,17.3953718 53.39,17.74 C52.6856069,18.473328 51.6950092,18.8607943 50.68,18.8 C49.7549721,18.8115308 48.8555269,18.4963709 48.14,17.91 C47.3689967,17.149922 46.9956709,16.0742999 47.13,15 C47.0622281,13.9445508 47.4227201,12.906334 48.13,12.12 C48.8161367,11.4464377 49.7491509,11.0848043 50.71,11.12 C51.2886089,11.1066294 51.8638064,11.212139 52.4,11.43 L52.4,11.43 Z M49.57,13.06 C49.2901444,13.371752 49.1152507,13.7635137 49.07,14.18 L52.32,14.18 C52.318735,13.7470835 52.1376284,13.3341606 51.82,13.04 C51.5083882,12.7748381 51.1089122,12.6357349 50.7,12.65 C50.2833446,12.6279458 49.8755724,12.7758985 49.57,13.06 L49.57,13.06 Z" id="Shape" fill="#FFFFFF" fill-rule="nonzero"></path>
                    <path d="M58.09,14.11 C58.3488754,14.0876232 58.6040762,14.0338967 58.85,13.95 C59.0865455,13.8760944 59.2482334,13.6578159 59.25,13.41 C59.2783822,13.1628918 59.1563388,12.9227418 58.94,12.8 C58.655709,12.6679597 58.3427872,12.6095018 58.03,12.63 C57.6633451,12.5769189 57.2930468,12.6991173 57.03,12.96 C56.8778259,13.1491175 56.7840077,13.3784508 56.76,13.62 L55,13.62 C55.0112296,13.0607979 55.1964887,12.5190025 55.53,12.07 C56.1843631,11.3487222 57.1404669,10.9781393 58.11,11.07 C58.8406048,11.0576009 59.5637315,11.2186765 60.22,11.54 C60.8609281,11.8911677 61.2277854,12.5933246 61.15,13.32 L61.15,16.63 C61.15,16.86 61.15,17.13 61.15,17.46 C61.1426597,17.6333881 61.1805687,17.8057017 61.26,17.96 C61.3324772,18.0565684 61.4290257,18.1324279 61.54,18.18 L61.54,18.46 L59.48,18.46 C59.4230188,18.3288868 59.3827043,18.1911455 59.36,18.05 C59.36,17.92 59.36,17.78 59.36,17.61 C59.0961598,17.8988401 58.7891907,18.1450901 58.45,18.34 C58.0283499,18.5749058 57.5526372,18.6955576 57.07,18.69 C56.4762128,18.7106399 55.8957284,18.5112097 55.44,18.13 C54.9988677,17.7228995 54.7639147,17.1391881 54.8,16.54 C54.73917,15.7588426 55.1267533,15.0108068 55.8,14.61 C56.3232765,14.3543059 56.8896004,14.1983125 57.47,14.15 L58.09,14.11 Z M59.25,14.99 C59.1361317,15.0677694 59.0114714,15.1284149 58.88,15.17 C58.7178354,15.229099 58.5504138,15.2726286 58.38,15.3 L57.95,15.38 C57.6475964,15.4178598 57.3535895,15.5057239 57.08,15.64 C56.7883365,15.7976351 56.6132575,16.1088865 56.63,16.44 C56.6050076,16.7027965 56.7050072,16.9620549 56.9,17.14 C57.093138,17.284874 57.3285751,17.3621817 57.57,17.36 C57.9778161,17.3590345 58.375591,17.2334214 58.71,17 C59.0907359,16.675976 59.2918036,16.1882006 59.25,15.69 L59.25,14.99 Z" id="Shape" fill="#FFFFFF" fill-rule="nonzero"></path>
                    <path d="M68.6,11.7 C69.1183569,12.2057047 69.3794681,12.9191635 69.31,13.64 L69.31,18.5 L67.37,18.5 L67.37,14.11 C67.3854289,13.8124472 67.3341805,13.5152064 67.22,13.24 C67.0250201,12.873682 66.6342132,12.6548301 66.22,12.68 C65.6506237,12.6359269 65.1191569,12.9686007 64.91,13.5 C64.7787211,13.8479119 64.7175474,14.2183526 64.73,14.59 L64.73,18.5 L62.79,18.5 L62.79,11.3 L64.62,11.3 L64.62,12.3 C64.801371,11.9979256 65.0310908,11.7276669 65.3,11.5 C65.728649,11.1964241 66.2450533,11.0418541 66.77,11.06 C67.4368912,11.0477261 68.0861133,11.2747765 68.6,11.7 Z" id="Path" fill="#FFFFFF" fill-rule="nonzero"></path>
                    <path d="M75,8.74 L77.07,8.74 L77.07,14.74 C77.0381099,15.2385765 77.1201852,15.7378681 77.31,16.2 C77.6873563,16.707546 78.2825439,17.0066958 78.915,17.0066958 C79.5474561,17.0066958 80.1426437,16.707546 80.52,16.2 C80.7098148,15.7378681 80.7918901,15.2385765 80.76,14.74 L80.76,8.74 L82.83,8.74 L82.83,14.74 C82.8746523,15.5740972 82.7096288,16.4060908 82.35,17.16 C81.75,18.22 80.61,18.75 78.92,18.75 C77.23,18.75 76.08,18.22 75.48,17.16 C75.1203712,16.4060908 74.9553477,15.5740972 75,14.74 L75,8.74 Z" id="Path" fill="#FFFFFF" fill-rule="nonzero"></path>
                    <path d="M91.15,13.64 L91.15,18.5 L89.21,18.5 L89.21,14.11 C89.2254289,13.8124472 89.1741805,13.5152064 89.06,13.24 C88.8650201,12.873682 88.4742132,12.6548301 88.06,12.68 C87.4914354,12.639209 86.9617545,12.970765 86.75,13.5 C86.6187211,13.8479119 86.5575474,14.2183526 86.57,14.59 L86.57,18.5 L84.63,18.5 L84.63,11.3 L86.46,11.3 L86.46,12.3 C86.6408659,11.9946165 86.8744875,11.7237508 87.15,11.5 C87.5773092,11.1936853 88.094668,11.0388296 88.62,11.06 C89.2839023,11.0474531 89.9300736,11.2746781 90.44,11.7 C90.9583569,12.2057047 91.2194681,12.9191635 91.15,13.64 Z" id="Path" fill="#FFFFFF" fill-rule="nonzero"></path>
                    <path d="M94.84,10.42 L92.93,10.42 L92.93,8.68 L94.84,8.68 L94.84,10.42 Z M92.93,11.28 L94.84,11.28 L94.84,18.5 L92.93,18.5 L92.93,11.28 Z" id="Shape" fill="#FFFFFF" fill-rule="nonzero"></path>
                    <path d="M102.69,17.62 C101.140893,19.1121819 98.6891072,19.1121819 97.14,17.62 C96.5253613,16.8490359 96.2030408,15.8856163 96.23,14.9 C96.2077722,13.9212017 96.5298266,12.9656557 97.14,12.2 C97.8753965,11.4629338 98.8738109,11.0487136 99.915,11.0487136 C100.956189,11.0487136 101.954603,11.4629338 102.69,12.2 C103.300173,12.9656557 103.622228,13.9212017 103.6,14.9 C103.626959,15.8856163 103.304639,16.8490359 102.69,17.62 Z M101.18,16.62 C101.501015,16.1207871 101.655096,15.5324801 101.62,14.94 C101.655045,14.3506682 101.500884,13.7655542 101.18,13.27 C100.859033,12.9010781 100.394002,12.6892678 99.905,12.6892678 C99.4159976,12.6892678 98.9509672,12.9010781 98.63,13.27 C98.3044582,13.7634837 98.1498809,14.3501745 98.19,14.94 C98.149889,15.5329651 98.3043755,16.1228228 98.63,16.62 C98.9509672,16.9889219 99.4159976,17.2007322 99.905,17.2007322 C100.394002,17.2007322 100.859033,16.9889219 101.18,16.62 L101.18,16.62 Z" id="Shape" fill="#FFFFFF" fill-rule="nonzero"></path>
                    <path d="M110.77,11.7 C111.288357,12.2057047 111.549468,12.9191635 111.48,13.64 L111.48,18.5 L109.55,18.5 L109.55,14.11 C109.565429,13.8124472 109.51418,13.5152064 109.4,13.24 C109.192215,12.8563615 108.774011,12.6354235 108.34,12.68 C107.773357,12.6371655 107.245424,12.9701694 107.04,13.5 C106.900092,13.84575 106.835325,14.2173044 106.85,14.59 L106.85,18.5 L105,18.5 L105,11.3 L106.83,11.3 L106.83,12.3 C107.010866,11.9946165 107.244488,11.7237508 107.52,11.5 C107.947309,11.1936853 108.464668,11.0388296 108.99,11.06 C109.640197,11.0570064 110.270575,11.2836594 110.77,11.7 L110.77,11.7 Z" id="Path" fill="#FFFFFF" fill-rule="nonzero"></path>
                    <path d="M23.3,27.34 C24.0764756,27.6691503 24.7624226,28.1801809 25.3,28.83 C25.7451678,29.3691002 26.1059421,29.9726386 26.37,30.62 C26.6415794,31.3349853 26.7739558,32.095301 26.76,32.86 C26.7579552,33.9073745 26.4968683,34.9379808 26,35.86 C25.4598579,36.8564664 24.5521114,37.602756 23.47,37.94 C24.3400535,38.2366503 25.076943,38.8318303 25.55,39.62 C26.0261586,40.6625064 26.2390579,41.8059818 26.17,42.95 L26.17,44.38 C26.1467628,45.0489602 26.1869422,45.7186175 26.29,46.38 C26.372458,46.8841501 26.6722965,47.3265948 27.11,47.59 L27.11,48.13 L22.2,48.13 C22.06,47.65 21.97,47.27 21.91,46.98 C21.790567,46.3771345 21.7269645,45.7645425 21.72,45.15 L21.72,43.15 C21.8206416,42.1918441 21.5720801,41.2295562 21.02,40.44 C20.2911322,39.8975039 19.3824203,39.6542267 18.48,39.76 L14.11,39.76 L14.11,48.11 L9.76,48.11 L9.76,26.79 L19.94,26.79 C21.0844645,26.7626879 22.223974,26.9492148 23.3,27.34 L23.3,27.34 Z M14.11,30.49 L14.11,36.21 L18.9,36.21 C19.6161844,36.2467581 20.332002,36.1308638 21,35.87 C21.8786932,35.409389 22.3834077,34.4555977 22.27,33.47 C22.3987155,32.4405882 21.9240028,31.4289056 21.05,30.87 C20.4065143,30.5824158 19.7038086,30.4521582 19,30.49 L14.11,30.49 Z" id="Shape" fill="#FFFFFF" fill-rule="nonzero"></path>
                    <polygon id="Path" fill="#FFFFFF" fill-rule="nonzero" points="46.77 30.56 35.5 30.56 35.5 35.08 45.84 35.08 45.84 38.78 35.5 38.78 35.5 44.26 47.29 44.26 47.29 48.09 31.15 48.09 31.15 26.79 46.77 26.79"></polygon>
                    <path d="M56.84,26.79 L61.84,26.79 L69.37,48.09 L64.59,48.09 L63.18,43.71 L55.34,43.71 L53.9,48.09 L49.24,48.09 L56.84,26.79 Z M56.55,40 L62,40 L59.31,31.62 L56.55,40 Z" id="Shape" fill="#FFFFFF" fill-rule="nonzero"></path>
                    <path d="M74.15,29 C75.8679192,27.2436036 78.244461,26.2893586 80.7,26.37 C84.24,26.37 86.83,27.5433333 88.47,29.89 C89.3234719,31.0593289 89.8295416,32.4458212 89.93,33.89 L85.48,33.89 C85.2845072,33.0483945 84.9130269,32.2577209 84.39,31.57 C83.4850098,30.6024201 82.1914567,30.0952885 80.87,30.19 C79.3558248,30.1531813 77.932961,30.912042 77.12,32.19 C76.1042477,33.848392 75.6225156,35.7788111 75.74,37.72 C75.6018624,39.6224972 76.1130362,41.5156028 77.19,43.09 C78.0650303,44.2344895 79.429443,44.8981576 80.87,44.88 C82.2146154,44.9651349 83.5165571,44.3906391 84.36,43.34 C84.8937742,42.6005183 85.2714409,41.7601249 85.47,40.87 L89.89,40.87 C89.5914602,43.0196126 88.5726248,45.0044026 87,46.5 C85.3592022,47.9786227 83.2072753,48.7604895 81,48.68 C78.289441,48.8075121 75.6660401,47.7052428 73.86,45.68 C72.12,43.68 71.25,40.9733333 71.25,37.56 C71.19,33.9 72.18,31 74.15,29 Z" id="Path" fill="#FFFFFF" fill-rule="nonzero"></path>
                    <polygon id="Path" fill="#FFFFFF" fill-rule="nonzero" points="93.46 48.09 93.46 26.79 97.88 26.79 97.88 34.91 106.15 34.91 106.15 26.79 110.57 26.79 110.57 48.09 106.15 48.09 106.15 38.58 97.88 38.58 97.88 48.09"></polygon>
                </g>
            </g>
        </g>
    </g>
</svg>