<svg id="圖層_1" data-name="圖層 1" xmlns="http://www.w3.org/2000/svg" viewBox="0 0 140 140"><defs><style>.cls-1{fill:#b2b2b2;}</style></defs><title>adidas</title><g id="_群組_" data-name="&lt;群組&gt;"><g id="_群組_2" data-name="&lt;群組&gt;"><g id="_群組_3" data-name="&lt;群組&gt;"><path id="_路徑_" data-name="&lt;路徑&gt;" class="cls-1" d="M116.86,90.81h-4.14a2.78,2.78,0,0,0-.59-1.43,3.1,3.1,0,0,0-2.25-.68,3.29,3.29,0,0,0-2.13.51,1.35,1.35,0,0,0-.46,1.06c0,.62.86,1.14,2.59,1.51a37.77,37.77,0,0,1,4.25,1.11l.57.22a4,4,0,0,1,2.62,3.76,4.8,4.8,0,0,1-2.54,4.49l-.65.32a9.88,9.88,0,0,1-3.81.7,10.39,10.39,0,0,1-5.22-1.13,4.73,4.73,0,0,1-1.87-1.84,5.31,5.31,0,0,1-.62-2.57h4.33a2.11,2.11,0,0,0,.78,1.73,4.54,4.54,0,0,0,2.71.62,3.22,3.22,0,0,0,2.13-.59,1.32,1.32,0,0,0,.54-1.06c0-.67-.86-1.19-2.54-1.56a27.69,27.69,0,0,1-4.79-1.3,4,4,0,0,1-2.59-3.82,4.93,4.93,0,0,1,1.35-3.54,6.69,6.69,0,0,1,5.11-1.81,11,11,0,0,1,4.49.78l.27.14a4.47,4.47,0,0,1,1.84,1.76A5.34,5.34,0,0,1,116.86,90.81Z"/><path class="cls-1" d="M114.64,80.72a.29.29,0,0,0,0-.21.33.33,0,0,0-.19-.14c-.05,0-.13,0-.27-.05h-.65v.78h.65a.55.55,0,0,0,.38-.11A.32.32,0,0,0,114.64,80.72Zm.36-.43a.65.65,0,0,1,.13.38.7.7,0,0,1-.22.51.89.89,0,0,1-.56.25.76.76,0,0,1,.21.13l.41.54.32.52h-.51l-.24-.44a2.06,2.06,0,0,0-.41-.56l0-.06-.36-.11h-.24v1.14h-.43V79.91h1.08a1.29,1.29,0,0,1,.51.08A1.48,1.48,0,0,1,115,80.29Z"/><path class="cls-1" d="M116.19,81.27a1.94,1.94,0,0,0-.28-1,1.78,1.78,0,0,0-.75-.76,2.38,2.38,0,0,0-1-.27h0a2.23,2.23,0,0,0-1,.27,1.8,1.8,0,0,0-.76.76,2,2,0,0,0-.27,1,2.32,2.32,0,0,0,.27,1,1.8,1.8,0,0,0,.76.76,2,2,0,0,0,1,.27h0a2,2,0,0,0,1-.27,1.8,1.8,0,0,0,.76-.76A2.75,2.75,0,0,0,116.19,81.27Zm.43,0a2.45,2.45,0,0,1-.33,1.21,2.1,2.1,0,0,1-.92.92,2.42,2.42,0,0,1-1.21.33h0a2.38,2.38,0,0,1-1.22-.33,2.15,2.15,0,0,1-.92-.92A2.52,2.52,0,0,1,112,80a2.39,2.39,0,0,1,.92-.92,2.56,2.56,0,0,1,1.22-.32h0a2.61,2.61,0,0,1,1.21.32,2.15,2.15,0,0,1,.92.92A2.49,2.49,0,0,1,116.62,81.27Z"/><polygon id="_路徑_2" data-name="&lt;路徑&gt;" class="cls-1" points="92.39 61.15 104.07 80.62 92.39 80.62 85.31 80.62 74.14 62.01 65.67 47.92 74.14 42.84 79.46 39.65 92.39 61.15"/><path class="cls-1" d="M100.88,94.16v8H97v-.89a8.24,8.24,0,0,1-4.57,1.35h-.06a8.47,8.47,0,0,1,0-16.93h.06A8.39,8.39,0,0,1,97,87v-.91h3.89ZM97,95V93.27a4.65,4.65,0,0,0-4.57-3.76h-.06a4.65,4.65,0,0,0,0,9.3h.06A4.68,4.68,0,0,0,97,95Z"/><path class="cls-1" d="M82.63,94.16v8h-3.9v-.89a8.27,8.27,0,0,1-4.57,1.35h0a8.47,8.47,0,0,1,0-16.93h0A8.34,8.34,0,0,1,78.73,87v-6.4h3.9Zm-3.9.87V93.27a4.63,4.63,0,0,0-4.57-3.76h0a4.65,4.65,0,0,0,0,9.3h0A4.69,4.69,0,0,0,78.73,95Z"/><polygon id="_路徑_3" data-name="&lt;路徑&gt;" class="cls-1" points="74.14 72.96 78.71 80.62 74.14 80.62 59.94 80.62 49.53 63.28 49.07 62.53 49.53 62.26 62.86 54.23 74.14 72.96"/><rect id="_路徑_4" data-name="&lt;路徑&gt;" class="cls-1" x="59.97" y="85.7" width="4.22" height="16.44"/><rect id="_路徑_5" data-name="&lt;路徑&gt;" class="cls-1" x="59.97" y="80.7" width="4.22" height="3.7"/><path class="cls-1" d="M58,94.16v8H54.13v-.89a8.39,8.39,0,0,1-4.57,1.35H49.5a8.47,8.47,0,0,1,0-16.93h.06A8.39,8.39,0,0,1,54.13,87v-6.4H58ZM54.13,95V93.27a4.65,4.65,0,0,0-4.57-3.76H49.5a4.65,4.65,0,0,0,0,9.3h.06A4.68,4.68,0,0,0,54.13,95Z"/><polygon id="_路徑_6" data-name="&lt;路徑&gt;" class="cls-1" points="49.53 74.21 53.37 80.62 49.53 80.62 34.58 80.62 32.47 77.1 46.28 68.83 49.53 74.21"/><path class="cls-1" d="M39.58,94.16v8H35.69v-.89a8.39,8.39,0,0,1-4.57,1.35h-.06a8.45,8.45,0,0,1,0-16.9h.05a8.34,8.34,0,0,1,4.57,1.35v-.92h3.9v8ZM35.69,95V93.27a4.65,4.65,0,0,0-4.57-3.76h-.06a4.65,4.65,0,0,0,0,9.3h.06A4.68,4.68,0,0,0,35.69,95Z"/></g></g></g></svg>