<svg id="圖層_1" data-name="圖層 1" xmlns="http://www.w3.org/2000/svg" viewBox="0 0 140 140"><defs><style>.cls-1{fill:gray;}</style></defs><title>flyingtex</title><path class="cls-1" d="M63.9,116.55c-19.89-2.31-37-18.93-39.13-39.83a57.19,57.19,0,0,1-.35-7.42,44.9,44.9,0,0,1,1-8.21c4.95-18.35,16.42-30,34.94-34.53a64.47,64.47,0,0,1,9.39-.84,58.1,58.1,0,0,1,8.79.52c20,4.14,34.24,20.1,36.55,38.67a59.61,59.61,0,0,1,.47,6.92,46,46,0,0,1-.5,6.19c-2.33,18-16.46,33.8-34.92,37.9a50.27,50.27,0,0,1-8,1A62.82,62.82,0,0,1,63.9,116.55ZM83.11,61.4c.8,2.11.14,3.6.15,5.11A1.39,1.39,0,0,0,84.32,68a1.33,1.33,0,0,0,1.45-.53c.55-.81,1-1.66,1.52-2.51a11.65,11.65,0,0,1,2.82-3.87c1.83.07,2.57,2.16,3.93,2.16,1.79-.29,2.18-2,3.64-2.29l3.54,3.16c-.56,1.42-1.06,2.63-1.52,3.85a6.57,6.57,0,0,0-.23,3.87c.43,1.92,1.6,2.55,3.39,1.76a8.45,8.45,0,0,0,4.88-5.81c.61-2.23-.66-3.74-2.09-5.17-.23-.22-.37-.53-.29-.41-.41-1.79,1.53-3.06.1-4.61-.85.19-1.12.79-1.47,1.33s-.45,1.26-1.23,1.37c-3-1.85-3.22-2.69-1.74-5.47.62-1.15,1.25-2.3,1.81-3.49a6.07,6.07,0,0,0,.53-1.87,1.55,1.55,0,0,0-.94-1.58,1.38,1.38,0,0,0-1.5.34,3.06,3.06,0,0,0-.88.95c-1,1.94-2.24,3.75-2.71,5.93a10,10,0,0,1-2.28,4.69c-.46-.37-.81-.61-1.11-.91s-.68-.86-1.08-1.22c-1.18-1.07-1.88-1.06-3.14,0A8.29,8.29,0,0,0,87.93,60c-.32.54-.42,1.37-1.43,1.63.2-2.22,1.1-4.34-.87-6.05-1.73.06-2.48,1.27-3.19,2.5-1,1.8-2,3.65-3,5.44-.48.82-.89,1.81-2.16,1.81-1.2-.31-1.42-1.5-2-2.4-1.26-2-2.29-2-3.65,0-.8,1.17-1.46,2.43-2.21,3.64-.49.79-.69,1.82-1.86,2.35,0-2.29,1.28-4.54-.23-6.94-3.64,1.37-3.71,5.84-6.82,7.68-.55-1.68.66-3.53-1-4.78-1.25.3-1.74,1.28-2.3,2.21a23.74,23.74,0,0,1-3.39,4.41c-.9.9-2,1.45-3.23.82-1.08-.53-1.45-1.85-1-3.4.6-2.1,1.28-4.17,1.81-6.29a20,20,0,0,0,.22-8.75,1.65,1.65,0,0,0-1.48-1.51,1.62,1.62,0,0,0-1.63.88,9.73,9.73,0,0,0-1.08,2.37c-1.06,4.12-1.93,8.27-1.25,12.57a5.5,5.5,0,0,1-.48,3.83,1.22,1.22,0,0,0,0,1.5c.51.78,1.28.06,1.77.31a11.67,11.67,0,0,1,1.73,1.45,2.36,2.36,0,0,0,2.13.5,5.88,5.88,0,0,0,3.83-2.28c.59-.83.93-2,2-2.3,1,.79.67,2.29,2.11,2.68,2.7-.61,3-3.84,5.2-5.36a11.07,11.07,0,0,1-1.2,7.19c-1,2.07-1.9,4.17-2.81,6.27-.35.81-.65,1.66.21,2.37,2.09-.65,2.09-.65,3-2.11a23.22,23.22,0,0,0,2.45-6.06c1.06-3.93,3.82-6.69,6.2-9.89.62.53,1,.87,1.43,1.23,2.1,1.86,3.37,1.85,5.29-.14A18.61,18.61,0,0,0,80.76,65C81.49,63.92,82.17,62.83,83.11,61.4ZM42.88,68.59c0-3.08-.45-3.54-2.85-2.7-1.73.6-3.4,1.41-5.26,2.2a20.75,20.75,0,0,1-.18-5.21c.12-2,.71-2.65,2.62-3.21,1-.3,2.22.11,3.08-.73a3.09,3.09,0,0,0,.18-2,1.58,1.58,0,0,0-1.85-1.43c-5,.66-8.38,4-7.74,9.39.31,2.6.62,5.14-.27,7.66a2.78,2.78,0,0,1,1.88,2.52c.38,1.92.85,3.82,1.32,5.72a6.94,6.94,0,0,0,.56,1.52,1.13,1.13,0,0,0,1.34.68,1.05,1.05,0,0,0,.8-1.24c0-.43-.19-.84-.25-1.27-.34-2.15-.75-4.3-1-6.46-.25-2.52.08-3,2.45-3.91C39.36,69.56,41.06,69.14,42.88,68.59ZM87.62,81.86c-4,2-3,6-3.79,9.17a4.82,4.82,0,0,0,.64.57c4.09,2.2,5.07,2,7.93-1.62.7-.87,1.08-2.12,2.25-2.6a1.47,1.47,0,0,1,.4,2.12c-.35.72-1.17,1.34-.64,2.3,1.39-.07,1.45-1.69,2.93-2,2.36,1.64,4-.1,5.55-1.9.63-.74.51-1.4-.47-1.76-1.79,1.2-1.79,1.2-3.38,1-.39-1.1.38-1.87.86-2.67a10.59,10.59,0,0,0,1.33-3,2,2,0,0,0-1.16-2.45c-.82-.38-1.41.21-2,.79-.88,1-1.32,2.27-2.4,3-1,.16-1.35-1.3-2.38-.74-1.3,1.3,0,2.67,0,3.91-3,3.79-3.37,4-5.45,3.66-.27-1.54,1-2.61,1.29-4C89.53,84.09,89.65,82.69,87.62,81.86ZM75.84,79.35c1.5,5.78,1.09,11.94,4.15,17.23,1.49-.79,1.11-1.77.94-2.74a55.51,55.51,0,0,1-1.08-9.71c0-2.08-.06-4.14-1.56-5.8,1-.73,2.45-.11,3.06-1.37,0-1.41-.74-1.83-2-1.87a14.8,14.8,0,0,0-6,1.55c-2.25.9-2.46,1.63-1.59,4.34C73.11,80.89,74,79.71,75.84,79.35ZM74.12,51.62c-2.15.2-2.6,1.78-3.32,3a1.42,1.42,0,0,0,.56,2,1.57,1.57,0,0,0,2-.33C74.75,55,74.86,53.53,74.12,51.62Z"/><path class="cls-1" d="M103.4,65.43c2.17,2.46,1.7,4.21-1.42,6.11C101.4,69.28,101.53,68.66,103.4,65.43Z"/><path class="cls-1" d="M48.42,65l1.09-6.23A8,8,0,0,1,48.42,65Z"/><path class="cls-1" d="M98.22,82.34a4.6,4.6,0,0,1-1.31,3.3C96.21,83.73,97.47,83.15,98.22,82.34Z"/></svg>