<svg id="圖層_1" data-name="圖層 1" xmlns="http://www.w3.org/2000/svg" viewBox="0 0 140 140"><defs><style>.cls-1{fill:gray;}</style></defs><title>fuhsun</title><path class="cls-1" d="M122,71.13c-3,6.32-7.5,10.69-12.54,14.54a58.1,58.1,0,0,1-26.8,11.57C67,99.62,51.91,98.18,37.8,90.41A53.42,53.42,0,0,1,21.68,77c-1.34-1.68-2.35-3.61-3.68-5.69a59.41,59.41,0,0,1,4.37-6.48C32.91,52.91,46.18,46.41,62,44.8a72.58,72.58,0,0,1,25.66,1.63c11.81,3,22,8.91,30,18.22A63.1,63.1,0,0,1,122,71.13ZM72.1,95a34.8,34.8,0,0,0,22.05-7.77,30.67,30.67,0,0,0,10.09-13.58,6.37,6.37,0,0,0-.33-5.63,56.85,56.85,0,0,0-5.07-8C92.4,52.39,84,48.48,74.06,47.89c-7.23-.42-14.34-.09-21,3.14A34,34,0,0,0,36.19,68a7.6,7.6,0,0,0,0,6.66A33.64,33.64,0,0,0,48.28,88.91C55,93.45,62.49,95,72.1,95Z"/><path class="cls-1" d="M39.69,74.48H100.2c-1.91,8.55-15.44,18-26.1,18.89C56.15,94.94,43.58,84.4,39.69,74.48Zm14.7,6.78h9.83V77.61H53ZM75.6,77.58l.24,3.75h9.67l1.67-3.75ZM64.25,84.93H57.08c2.24,2.27,3.8,4.58,7.17,3.64Zm11.54,3.7c3.49.65,5.17-1.38,7.13-3.77h-7.3Z"/><path class="cls-1" d="M98.29,63.55c1.5,2.88,3.65,5.56,3.54,9H98.61c-20,0-40,0-60.35-.08C38.1,68.6,40.1,66.21,42,63.55Zm-9.88,4.93c-.45-2.1-2.15-1.61-3.48-1.62-8.51,0-17,0-25.54,0-1.82,0-3.65,0-5.47,0-1.16,0-2.23.27-2.11,1.82C55.18,69.38,85.76,69.27,88.41,68.48Z"/><path class="cls-1" d="M95.86,61.09h-10L81,55.48H59l-4.54,5.6H43.86c5.74-5.89,11.29-10.56,19.56-10.21,3.35-2.31,9.94-2.33,13.37.14,4-.74,7.67.69,11.07,3C90.72,55.92,93.84,57.61,95.86,61.09Z"/><path class="cls-1" d="M57.46,61.08,60,57.21H80.06l2.61,3.87Z"/></svg>