<svg id="圖層_1" data-name="圖層 1" xmlns="http://www.w3.org/2000/svg" xmlns:xlink="http://www.w3.org/1999/xlink" viewBox="0 0 140 140"><defs><style>.cls-1,.cls-2{fill:none;}.cls-2{clip-rule:evenodd;}.cls-3{clip-path:url(#clip-path);}.cls-4{clip-path:url(#clip-path-2);}.cls-5{clip-path:url(#clip-path-3);}.cls-6{clip-path:url(#clip-path-4);}.cls-7{clip-path:url(#clip-path-5);}.cls-8{clip-path:url(#clip-path-6);}.cls-9{clip-path:url(#clip-path-7);}.cls-10{clip-path:url(#clip-path-8);}.cls-11{clip-path:url(#clip-path-9);}.cls-12{clip-path:url(#clip-path-10);}.cls-13{clip-path:url(#clip-path-11);}.cls-14{clip-path:url(#clip-path-12);}.cls-15{clip-path:url(#clip-path-13);}.cls-16{clip-path:url(#clip-path-14);}.cls-17{clip-path:url(#clip-path-15);}.cls-18{clip-path:url(#clip-path-16);}.cls-19{clip-path:url(#clip-path-17);}.cls-20{clip-path:url(#clip-path-18);}.cls-21{clip-path:url(#clip-path-19);}.cls-22{clip-path:url(#clip-path-20);}.cls-23{clip-path:url(#clip-path-21);}.cls-24{clip-path:url(#clip-path-22);}.cls-25{clip-path:url(#clip-path-23);}.cls-26{clip-path:url(#clip-path-24);}.cls-27{clip-path:url(#clip-path-25);}.cls-28{clip-path:url(#clip-path-26);}.cls-29{clip-path:url(#clip-path-27);}.cls-30{clip-path:url(#clip-path-28);}.cls-31{clip-path:url(#clip-path-29);}.cls-32{clip-path:url(#clip-path-30);}.cls-33{clip-path:url(#clip-path-31);}.cls-34{clip-path:url(#clip-path-32);}.cls-35{clip-path:url(#clip-path-33);}.cls-36{clip-path:url(#clip-path-34);}.cls-37{clip-path:url(#clip-path-35);}.cls-38{clip-path:url(#clip-path-36);}.cls-39{clip-path:url(#clip-path-37);}.cls-40{clip-path:url(#clip-path-38);}.cls-41{clip-path:url(#clip-path-39);}.cls-42{clip-path:url(#clip-path-40);}.cls-43{clip-path:url(#clip-path-41);}.cls-44{clip-path:url(#clip-path-42);}.cls-45{clip-path:url(#clip-path-43);}.cls-46{clip-path:url(#clip-path-44);}.cls-47{clip-path:url(#clip-path-45);}.cls-48{clip-path:url(#clip-path-46);}.cls-49{clip-path:url(#clip-path-47);}.cls-50{clip-path:url(#clip-path-48);}.cls-51{clip-path:url(#clip-path-49);}.cls-52{clip-path:url(#clip-path-50);}.cls-53{clip-path:url(#clip-path-51);}.cls-54{clip-path:url(#clip-path-52);}.cls-55{clip-path:url(#clip-path-53);}.cls-56{clip-path:url(#clip-path-54);}.cls-57{clip-path:url(#clip-path-55);}.cls-58{clip-path:url(#clip-path-56);}.cls-59{clip-path:url(#clip-path-57);}.cls-60{clip-path:url(#clip-path-58);}.cls-61{clip-path:url(#clip-path-59);}.cls-62{clip-path:url(#clip-path-60);}.cls-63{clip-path:url(#clip-path-61);}.cls-64{clip-path:url(#clip-path-62);}.cls-65{clip-path:url(#clip-path-63);}.cls-66{clip-path:url(#clip-path-64);}.cls-67{clip-path:url(#clip-path-65);}.cls-68{clip-path:url(#clip-path-66);}.cls-69{clip-path:url(#clip-path-67);}.cls-70{clip-path:url(#clip-path-68);}.cls-71{clip-path:url(#clip-path-69);}.cls-72{clip-path:url(#clip-path-70);}.cls-73{clip-path:url(#clip-path-71);}.cls-74{clip-path:url(#clip-path-72);}.cls-75{clip-path:url(#clip-path-73);}.cls-76{clip-path:url(#clip-path-74);}.cls-77{clip-path:url(#clip-path-75);}.cls-78{clip-path:url(#clip-path-76);}.cls-79{clip-path:url(#clip-path-77);}.cls-80{clip-path:url(#clip-path-78);}.cls-81{clip-path:url(#clip-path-79);}.cls-82{clip-path:url(#clip-path-80);}.cls-83{clip-path:url(#clip-path-81);}.cls-84{clip-path:url(#clip-path-82);}.cls-85{clip-path:url(#clip-path-83);}.cls-86{clip-path:url(#clip-path-84);}.cls-87{clip-path:url(#clip-path-85);}.cls-88{clip-path:url(#clip-path-86);}.cls-89{clip-path:url(#clip-path-87);}.cls-90{clip-path:url(#clip-path-88);}.cls-91{clip-path:url(#clip-path-89);}.cls-92{clip-path:url(#clip-path-90);}.cls-93{clip-path:url(#clip-path-91);}.cls-94{clip-path:url(#clip-path-92);}.cls-95{clip-path:url(#clip-path-93);}.cls-96{clip-path:url(#clip-path-94);}.cls-97{clip-path:url(#clip-path-95);}.cls-98{clip-path:url(#clip-path-96);}.cls-99{clip-path:url(#clip-path-97);}.cls-100{clip-path:url(#clip-path-98);}.cls-101{clip-path:url(#clip-path-99);}.cls-102{clip-path:url(#clip-path-100);}.cls-103{clip-path:url(#clip-path-101);}.cls-104{clip-path:url(#clip-path-102);}.cls-105{clip-path:url(#clip-path-103);}.cls-106{clip-path:url(#clip-path-104);}.cls-107{clip-path:url(#clip-path-105);}.cls-108{clip-path:url(#clip-path-106);}.cls-109{clip-path:url(#clip-path-107);}.cls-110{clip-path:url(#clip-path-108);}.cls-111{clip-path:url(#clip-path-109);}.cls-112{clip-path:url(#clip-path-110);}.cls-113{clip-path:url(#clip-path-111);}.cls-114{clip-path:url(#clip-path-112);}.cls-115{fill:#b2b2b2;}</style><clipPath id="clip-path"><rect class="cls-1" x="-167.6" y="-1272.64" width="1024" height="700"/></clipPath><clipPath id="clip-path-2"><path class="cls-2" d="M79.22-802.83l3.37,0c12.31.85,27.08,12.2,27.08,28.88v13.07h-12V-774c0-8.14-6.32-14.87-15.13-15.46H79.22Z"/></clipPath><clipPath id="clip-path-3"><path class="cls-2" d="M79.22-788.14h3.29c8.54,0,14,8.35,13.82,14.15v13.06H87.17v-10.54c-.13-2.65-1.74-4.1-4.68-4.15H79.22Z"/></clipPath><clipPath id="clip-path-4"><path class="cls-2" d="M79.22-774h3c2.39,0,3.42,1.19,3.42,3.82v9.25H79.22Z"/></clipPath><clipPath id="clip-path-5"><polygon class="cls-2" points="36.1 -761.27 36.1 -773.68 44.63 -773.68 44.63 -770.55 39.72 -770.55 39.72 -768.64 43.63 -768.64 43.63 -765.64 39.72 -765.64 39.72 -761.27 36.1 -761.27"/></clipPath><clipPath id="clip-path-6"><path class="cls-2" d="M64.22-766.08h3.43a5.48,5.48,0,0,1-1.57,3.8,5.34,5.34,0,0,1-3.83,1.35A5.44,5.44,0,0,1,58-762.64a7,7,0,0,1-1.58-4.82,7,7,0,0,1,1.54-4.79,5.35,5.35,0,0,1,4.2-1.75A5.43,5.43,0,0,1,66-772.64a5.32,5.32,0,0,1,1.57,3.71H64.12a2.21,2.21,0,0,0-.56-1.43,1.83,1.83,0,0,0-1.35-.49,1.76,1.76,0,0,0-1.6.86,4.88,4.88,0,0,0-.53,2.58,4.67,4.67,0,0,0,.56,2.56,1.88,1.88,0,0,0,1.67.87,1.75,1.75,0,0,0,1.33-.53,2.49,2.49,0,0,0,.58-1.52Z"/></clipPath><clipPath id="clip-path-7"><polygon class="cls-2" points="69.18 -761.27 69.18 -773.68 78.19 -773.68 78.19 -770.7 72.8 -770.7 72.8 -769.05 77.36 -769.05 77.36 -766.21 72.8 -766.21 72.8 -764.29 78.42 -764.29 78.42 -761.27 69.18 -761.27"/></clipPath><clipPath id="clip-path-8"><path class="cls-2" d="M19.13-775.56v-12.59h3.45l3.17,5.86a3.39,3.39,0,0,1,.31.7c.11.3.23.66.35,1.09a2.84,2.84,0,0,0-.07-.74,4.72,4.72,0,0,1,0-1v-5.91H29.8v12.59H26.32l-3.17-5.81a4.26,4.26,0,0,1-.32-.73c-.12-.31-.23-.67-.35-1.08,0,.23.06.46.07.7s0,.58,0,1v5.9Z"/></clipPath><clipPath id="clip-path-9"><polygon class="cls-2" points="59.25 -775.56 59.25 -784.83 55.99 -784.83 55.99 -788.15 66.07 -788.15 66.07 -784.83 62.88 -784.83 62.88 -775.56 59.25 -775.56"/></clipPath><clipPath id="clip-path-10"><polygon class="cls-2" points="67.32 -775.56 67.32 -788.15 70.95 -788.15 70.95 -783.88 74.34 -783.88 74.34 -788.15 77.97 -788.15 77.97 -775.56 74.34 -775.56 74.34 -780.44 70.95 -780.44 70.95 -775.56 67.32 -775.56"/></clipPath><clipPath id="clip-path-11"><polygon class="cls-2" points="48.37 -789.46 48.37 -799.52 45.12 -799.52 45.12 -803.12 55.17 -803.12 55.17 -799.52 51.99 -799.52 51.99 -789.46 48.37 -789.46"/></clipPath><clipPath id="clip-path-12"><polygon class="cls-2" points="56.41 -789.46 56.41 -803.12 60.04 -803.12 60.04 -798.48 63.42 -798.48 63.42 -803.12 67.04 -803.12 67.04 -789.46 63.42 -789.46 63.42 -794.76 60.04 -794.76 60.04 -789.46 56.41 -789.46"/></clipPath><clipPath id="clip-path-13"><polygon class="cls-2" points="69.17 -789.46 69.17 -803.12 78.19 -803.12 78.19 -799.85 72.8 -799.85 72.8 -798.03 77.36 -798.03 77.36 -794.9 72.8 -794.9 72.8 -792.78 78.42 -792.78 78.42 -789.46 69.17 -789.46"/></clipPath><clipPath id="clip-path-14"><path class="cls-2" d="M48.9-765.48l1.15-4.29,1.13,4.29Zm3-8.16H48.23l-4,12.41h3.56l.44-1.65h3.59l.42,1.65h3.59Z"/></clipPath><clipPath id="clip-path-15"><path class="cls-2" d="M39-779.21a2.12,2.12,0,0,1-1.68.83,2.12,2.12,0,0,1-1.67-.83,6.65,6.65,0,0,1,0-5.25,2.1,2.1,0,0,1,1.67-.84,2.1,2.1,0,0,1,1.68.84,5,5,0,0,1,.53,2.64A5,5,0,0,1,39-779.21Zm2.63-7.49a5.48,5.48,0,0,0-4.3-1.77A5.46,5.46,0,0,0,33-786.7a7.07,7.07,0,0,0-1.58,4.86A7.08,7.08,0,0,0,33-777a5.46,5.46,0,0,0,4.3,1.78,5.44,5.44,0,0,0,4.3-1.78,7.07,7.07,0,0,0,1.57-4.85A7.08,7.08,0,0,0,41.63-786.7Z"/></clipPath><clipPath id="clip-path-16"><path class="cls-2" d="M51.3-783a2,2,0,0,1-1.2.26H48.45v-2.36H50a2.17,2.17,0,0,1,1.29.26,1.17,1.17,0,0,1,.33.93A1.14,1.14,0,0,1,51.3-783Zm3.78,6.18L55-778.64a3.76,3.76,0,0,0-.46-1.92,2.2,2.2,0,0,0-1.38-.88,3.09,3.09,0,0,0,1.38-1.2,3.9,3.9,0,0,0,.44-1.92,3.29,3.29,0,0,0-1.08-2.77,6,6,0,0,0-3.63-.85H44.86v12.62h3.59v-4.34H50a1.48,1.48,0,0,1,1.2.4,2.13,2.13,0,0,1,.35,1.37v1.26a2.26,2.26,0,0,0,0,.52,3.86,3.86,0,0,0,.15.79H55.4V-776C55.2-776,55.09-776.31,55.08-776.82Z"/></clipPath><clipPath id="clip-path-17"><path class="cls-1" d="M245-765H241.4a2.37,2.37,0,0,0-.52-1.25,2.66,2.66,0,0,0-1.93-.58,2.87,2.87,0,0,0-1.85.44,1.13,1.13,0,0,0-.4.92c0,.54.75,1,2.25,1.3,1.7.37,2.92.7,3.67,1l.5.2a3.47,3.47,0,0,1,2.28,3.26,4.14,4.14,0,0,1-2.21,3.89,5.77,5.77,0,0,1-.56.27,8.31,8.31,0,0,1-3.3.62,9.18,9.18,0,0,1-4.52-1,4.39,4.39,0,0,1-1.62-1.58,4.49,4.49,0,0,1-.54-2.23h3.75a1.77,1.77,0,0,0,.69,1.49,3.87,3.87,0,0,0,2.33.54,2.86,2.86,0,0,0,1.86-.51,1.2,1.2,0,0,0,.47-.92c0-.58-.74-1-2.21-1.36a25.59,25.59,0,0,1-4.14-1.13,3.45,3.45,0,0,1-2.25-3.3,4.26,4.26,0,0,1,1.18-3.07,5.77,5.77,0,0,1,4.43-1.57,9.28,9.28,0,0,1,3.89.69,1.34,1.34,0,0,1,.23.13,4,4,0,0,1,1.59,1.52A4.62,4.62,0,0,1,245-765Z"/></clipPath><clipPath id="clip-path-18"><path class="cls-1" d="M243.4-774.08a.6.6,0,0,1-.08.78.68.68,0,0,1-.48.21.82.82,0,0,1,.2.12l.34.46.27.46h-.44l-.21-.37a1.8,1.8,0,0,0-.35-.5l-.3-.09h-.22v1h-.37v-2.36h.93a1.74,1.74,0,0,1,.45.06A.58.58,0,0,1,243.4-774.08Zm-.3.38a.31.31,0,0,0,0-.19.31.31,0,0,0-.16-.12h-.8v.69h.56a.59.59,0,0,0,.34-.1A.36.36,0,0,0,243.1-773.7Z"/></clipPath><clipPath id="clip-path-19"><path class="cls-1" d="M244.8-773.24a2.25,2.25,0,0,1-.28,1.07,2.07,2.07,0,0,1-.79.79,2.21,2.21,0,0,1-1.06.28,2.18,2.18,0,0,1-1.06-.28,2.07,2.07,0,0,1-.79-.79,2.25,2.25,0,0,1-.28-1.07,2.15,2.15,0,0,1,.28-1.08,1.87,1.87,0,0,1,.81-.79,2.36,2.36,0,0,1,1-.29,2.1,2.1,0,0,1,1,.29,1.85,1.85,0,0,1,.8.79A2.09,2.09,0,0,1,244.8-773.24Zm-.35,0a1.76,1.76,0,0,0-.24-.9,1.7,1.7,0,0,0-.67-.66,1.81,1.81,0,0,0-.87-.24,1.75,1.75,0,0,0-.87.24,1.64,1.64,0,0,0-.67.66,1.76,1.76,0,0,0-.24.9,1.75,1.75,0,0,0,.24.89,1.68,1.68,0,0,0,.66.66,1.81,1.81,0,0,0,.88.23,1.84,1.84,0,0,0,.89-.23,1.79,1.79,0,0,0,.65-.66A1.85,1.85,0,0,0,244.45-773.24Z"/></clipPath><clipPath id="clip-path-20"><polygon class="cls-1" points="223.8 -790.68 233.94 -773.79 223.8 -773.79 217.66 -773.79 207.98 -789.92 200.65 -802.13 207.98 -806.54 212.6 -809.32 223.8 -790.68"/></clipPath><clipPath id="clip-path-21"><path class="cls-1" d="M227.79-761.3v-1.53a4,4,0,0,0-4-3.26,4,4,0,0,0-4,4,4,4,0,0,0,4,4A4.06,4.06,0,0,0,227.79-761.3Zm3.37-.76v6.92h-3.37v-.76a7.27,7.27,0,0,1-4,1.17,7.34,7.34,0,0,1-7.07-7.34,7.33,7.33,0,0,1,7.07-7.33,7.2,7.2,0,0,1,4,1.18V-769h3.37Z"/></clipPath><clipPath id="clip-path-22"><path class="cls-1" d="M212-761.3v-1.53a4,4,0,0,0-3.95-3.26,4,4,0,0,0-4,4,4,4,0,0,0,4,4A4,4,0,0,0,212-761.3Zm3.37-.76v6.92H212v-.76a7.3,7.3,0,0,1-3.95,1.17,7.34,7.34,0,0,1-7.07-7.34A7.33,7.33,0,0,1,208-769.4a7.22,7.22,0,0,1,3.95,1.18v-5.57h3.37Z"/></clipPath><clipPath id="clip-path-23"><polygon class="cls-1" points="207.98 -780.43 211.95 -773.79 207.98 -773.79 195.68 -773.79 186.65 -788.83 186.25 -789.48 186.65 -789.72 198.21 -796.68 207.98 -780.43"/></clipPath><clipPath id="clip-path-24"><rect class="cls-1" x="195.7" y="-769.4" width="3.67" height="14.26"/></clipPath><clipPath id="clip-path-25"><rect class="cls-1" x="195.7" y="-773.72" width="3.67" height="3.22"/></clipPath><clipPath id="clip-path-26"><path class="cls-1" d="M190.65-761.3v-1.53a4,4,0,0,0-4-3.26,4,4,0,0,0-4,4,4,4,0,0,0,4,4A4.06,4.06,0,0,0,190.65-761.3Zm3.37-.76v6.92h-3.37v-.76a7.36,7.36,0,0,1-4,1.17,7.34,7.34,0,0,1-7.07-7.34,7.33,7.33,0,0,1,7.07-7.33,7.2,7.2,0,0,1,4,1.18v-5.57H194Z"/></clipPath><clipPath id="clip-path-27"><polygon class="cls-1" points="186.65 -779.35 189.98 -773.79 186.65 -773.79 173.7 -773.79 171.87 -776.84 183.83 -784.02 186.65 -779.35"/></clipPath><clipPath id="clip-path-28"><path class="cls-1" d="M174.66-761.3v-1.53a4,4,0,0,0-4-3.26,4,4,0,0,0-4,4,4,4,0,0,0,4,4A4.06,4.06,0,0,0,174.66-761.3Zm3.37-.76v6.92h-3.37v-.76a7.27,7.27,0,0,1-4,1.17,7.34,7.34,0,0,1-7.07-7.34,7.33,7.33,0,0,1,7.07-7.33,7.2,7.2,0,0,1,4,1.18V-769H178Z"/></clipPath><clipPath id="clip-path-29"><path class="cls-1" d="M341.38-793.95h-4.66l4.83,12.64h5.26l4.93-12.64H347.2l-2.94,8.21Zm-13.47,5c0-1.89.39-2.94,2.22-2.94s2.27.83,2.27,2.94Zm2.39,5.65c-1.94,0-2.39-.83-2.39-3.16h8.7c0-5.6-1.33-7.93-6.31-7.93-5.43,0-6.9,1.89-6.9,6.75s2,7,6.6,7,6.21-1.66,6.32-4.26H332.4C332.4-783.8,332-783.3,330.3-783.3ZM318.6-794h-4.26v12.64h8.53v-3H318.6Zm33.64,22.56v-31.2m0,31.2a33.49,33.49,0,0,0-7.76,2.8,38.77,38.77,0,0,0-15.79-3.49,40.25,40.25,0,0,0-17.35,4l-7-34.51h47.93"/></clipPath><clipPath id="clip-path-30"><path class="cls-1" d="M370.09-766.3c0-.16-.23-.28-.78-.28v.61c.39,0,.78,0,.78-.32Zm-1.28,1.66v-2.42h.67c.66,0,1.16.16,1.16.77,0,.28-.17.5-.55.72l.44.94h-.44l-.39-.72h-.39v.71Zm2.88-1.21a2,2,0,0,0-2.05-2,2,2,0,0,0-2.05,2,2.08,2.08,0,0,0,2,2,2,2,0,0,0,1.48-.55A2,2,0,0,0,371.69-765.85Zm-2.05-2.43a2.42,2.42,0,0,1,2.24,1.17,2.45,2.45,0,0,1,0,2.53,2.44,2.44,0,0,1-2.24,1.17,2.44,2.44,0,0,1-1.73-.71,2.39,2.39,0,0,1-.71-1.73A2.45,2.45,0,0,1,369.64-768.28Zm-3.43-17.07h-4.49c0,3,1.66,4.26,6.54,4.26,4.54,0,6.37-1,6.37-4.15,0-5-8.42-2.5-8.42-5.49,0-.72.83-1.33,1.94-1.33a1.73,1.73,0,0,1,1.88,1.55h4.27c-.06-2.66-1.61-3.88-5.88-3.88-4.43,0-6.48,1.22-6.48,4,0,5.49,8.42,2.55,8.42,5.66,0,.94-.5,1.38-1.71,1.38C367.2-783.36,366.32-783.91,366.21-785.35Zm-5.93-7.87-.22,1.27c1.33-.83,1.88-1.55,1.88-2.49a1.57,1.57,0,0,0-.51-1.22,1.53,1.53,0,0,0-1.26-.39,1.51,1.51,0,0,0-1.2.36,1.51,1.51,0,0,0-.52,1.14C358.45-793.39,359.22-793.22,360.28-793.22ZM353-794v12.69h4.16V-794Zm-.77-8.59h32.3l-7.59,34.52c-5-2.88-9.53-4.1-16.12-4.1a44.21,44.21,0,0,0-8.59.78"/></clipPath><clipPath id="clip-path-31"><path class="cls-2" d="M79.22-942.83l3.37,0c12.31.85,27.08,12.2,27.08,28.88v13.07h-12V-914c0-8.14-6.32-14.87-15.13-15.46H79.22Z"/></clipPath><clipPath id="clip-path-32"><path class="cls-2" d="M79.22-928.14h3.29c8.54,0,14,8.35,13.82,14.15v13.06H87.17v-10.54c-.13-2.65-1.74-4.1-4.68-4.15H79.22Z"/></clipPath><clipPath id="clip-path-33"><path class="cls-2" d="M79.22-914h3c2.39,0,3.42,1.19,3.42,3.82v9.25H79.22Z"/></clipPath><clipPath id="clip-path-34"><polygon class="cls-2" points="36.1 -901.27 36.1 -913.68 44.63 -913.68 44.63 -910.55 39.72 -910.55 39.72 -908.64 43.63 -908.64 43.63 -905.64 39.72 -905.64 39.72 -901.27 36.1 -901.27"/></clipPath><clipPath id="clip-path-35"><path class="cls-2" d="M64.22-906.08h3.43a5.48,5.48,0,0,1-1.57,3.8,5.34,5.34,0,0,1-3.83,1.35A5.44,5.44,0,0,1,58-902.64a7,7,0,0,1-1.58-4.82,7,7,0,0,1,1.54-4.79,5.35,5.35,0,0,1,4.2-1.75A5.43,5.43,0,0,1,66-912.64a5.32,5.32,0,0,1,1.57,3.71H64.12a2.21,2.21,0,0,0-.56-1.43,1.83,1.83,0,0,0-1.35-.49,1.76,1.76,0,0,0-1.6.86,4.88,4.88,0,0,0-.53,2.58,4.67,4.67,0,0,0,.56,2.56,1.88,1.88,0,0,0,1.67.87,1.75,1.75,0,0,0,1.33-.53,2.49,2.49,0,0,0,.58-1.52Z"/></clipPath><clipPath id="clip-path-36"><polygon class="cls-2" points="69.18 -901.27 69.18 -913.68 78.19 -913.68 78.19 -910.7 72.8 -910.7 72.8 -909.05 77.36 -909.05 77.36 -906.21 72.8 -906.21 72.8 -904.29 78.42 -904.29 78.42 -901.27 69.18 -901.27"/></clipPath><clipPath id="clip-path-37"><path class="cls-2" d="M19.13-915.56v-12.59h3.45l3.17,5.86a3.39,3.39,0,0,1,.31.7c.11.3.23.66.35,1.09a2.84,2.84,0,0,0-.07-.74,4.72,4.72,0,0,1,0-1v-5.91H29.8v12.59H26.32l-3.17-5.81a4.26,4.26,0,0,1-.32-.73c-.12-.31-.23-.67-.35-1.08,0,.23.06.46.07.7s0,.58,0,1v5.9Z"/></clipPath><clipPath id="clip-path-38"><polygon class="cls-2" points="59.25 -915.56 59.25 -924.83 55.99 -924.83 55.99 -928.15 66.07 -928.15 66.07 -924.83 62.88 -924.83 62.88 -915.56 59.25 -915.56"/></clipPath><clipPath id="clip-path-39"><polygon class="cls-2" points="67.32 -915.56 67.32 -928.15 70.95 -928.15 70.95 -923.88 74.34 -923.88 74.34 -928.15 77.97 -928.15 77.97 -915.56 74.34 -915.56 74.34 -920.44 70.95 -920.44 70.95 -915.56 67.32 -915.56"/></clipPath><clipPath id="clip-path-40"><polygon class="cls-2" points="48.37 -929.46 48.37 -939.52 45.12 -939.52 45.12 -943.12 55.17 -943.12 55.17 -939.52 51.99 -939.52 51.99 -929.46 48.37 -929.46"/></clipPath><clipPath id="clip-path-41"><polygon class="cls-2" points="56.41 -929.46 56.41 -943.12 60.04 -943.12 60.04 -938.48 63.42 -938.48 63.42 -943.12 67.04 -943.12 67.04 -929.46 63.42 -929.46 63.42 -934.76 60.04 -934.76 60.04 -929.46 56.41 -929.46"/></clipPath><clipPath id="clip-path-42"><polygon class="cls-2" points="69.17 -929.46 69.17 -943.12 78.19 -943.12 78.19 -939.85 72.8 -939.85 72.8 -938.03 77.36 -938.03 77.36 -934.9 72.8 -934.9 72.8 -932.78 78.42 -932.78 78.42 -929.46 69.17 -929.46"/></clipPath><clipPath id="clip-path-43"><path class="cls-2" d="M48.9-905.48l1.15-4.29,1.13,4.29Zm3-8.16H48.23l-4,12.41h3.56l.44-1.65h3.59l.42,1.65h3.59Z"/></clipPath><clipPath id="clip-path-44"><path class="cls-2" d="M39-919.21a2.12,2.12,0,0,1-1.68.83,2.12,2.12,0,0,1-1.67-.83,6.65,6.65,0,0,1,0-5.25,2.1,2.1,0,0,1,1.67-.84,2.1,2.1,0,0,1,1.68.84,5,5,0,0,1,.53,2.64A5,5,0,0,1,39-919.21Zm2.63-7.49a5.48,5.48,0,0,0-4.3-1.77A5.46,5.46,0,0,0,33-926.7a7.07,7.07,0,0,0-1.58,4.86A7.08,7.08,0,0,0,33-917a5.46,5.46,0,0,0,4.3,1.78,5.44,5.44,0,0,0,4.3-1.78,7.07,7.07,0,0,0,1.57-4.85A7.08,7.08,0,0,0,41.63-926.7Z"/></clipPath><clipPath id="clip-path-45"><path class="cls-2" d="M51.3-923a2,2,0,0,1-1.2.26H48.45v-2.36H50a2.17,2.17,0,0,1,1.29.26,1.17,1.17,0,0,1,.33.93A1.14,1.14,0,0,1,51.3-923Zm3.78,6.18L55-918.64a3.76,3.76,0,0,0-.46-1.92,2.2,2.2,0,0,0-1.38-.88,3.09,3.09,0,0,0,1.38-1.2,3.9,3.9,0,0,0,.44-1.92,3.29,3.29,0,0,0-1.08-2.77,6,6,0,0,0-3.63-.85H44.86v12.62h3.59v-4.34H50a1.48,1.48,0,0,1,1.2.4,2.13,2.13,0,0,1,.35,1.37v1.26a2.26,2.26,0,0,0,0,.52,3.86,3.86,0,0,0,.15.79H55.4V-916C55.2-916,55.09-916.31,55.08-916.82Z"/></clipPath><clipPath id="clip-path-46"><path class="cls-1" d="M245-905H241.4a2.37,2.37,0,0,0-.52-1.25,2.66,2.66,0,0,0-1.93-.58,2.87,2.87,0,0,0-1.85.44,1.13,1.13,0,0,0-.4.92c0,.54.75,1,2.25,1.3,1.7.37,2.92.7,3.67,1l.5.2a3.47,3.47,0,0,1,2.28,3.26,4.14,4.14,0,0,1-2.21,3.89,5.77,5.77,0,0,1-.56.27,8.31,8.31,0,0,1-3.3.62,9.18,9.18,0,0,1-4.52-1,4.39,4.39,0,0,1-1.62-1.58,4.49,4.49,0,0,1-.54-2.23h3.75a1.77,1.77,0,0,0,.69,1.49,3.87,3.87,0,0,0,2.33.54,2.86,2.86,0,0,0,1.86-.51,1.2,1.2,0,0,0,.47-.92c0-.58-.74-1-2.21-1.36a25.59,25.59,0,0,1-4.14-1.13,3.45,3.45,0,0,1-2.25-3.3,4.26,4.26,0,0,1,1.18-3.07,5.77,5.77,0,0,1,4.43-1.57,9.28,9.28,0,0,1,3.89.69,1.34,1.34,0,0,1,.23.13,4,4,0,0,1,1.59,1.52A4.62,4.62,0,0,1,245-905Z"/></clipPath><clipPath id="clip-path-47"><path class="cls-1" d="M243.4-914.08a.6.6,0,0,1-.08.78.68.68,0,0,1-.48.21.82.82,0,0,1,.2.12l.34.46.27.46h-.44l-.21-.37a1.8,1.8,0,0,0-.35-.5l-.3-.09h-.22v1h-.37v-2.36h.93a1.74,1.74,0,0,1,.45.06A.58.58,0,0,1,243.4-914.08Zm-.3.38a.31.31,0,0,0,0-.19.31.31,0,0,0-.16-.12h-.8v.69h.56a.59.59,0,0,0,.34-.1A.36.36,0,0,0,243.1-913.7Z"/></clipPath><clipPath id="clip-path-48"><path class="cls-1" d="M244.8-913.24a2.25,2.25,0,0,1-.28,1.07,2.07,2.07,0,0,1-.79.79,2.21,2.21,0,0,1-1.06.28,2.18,2.18,0,0,1-1.06-.28,2.07,2.07,0,0,1-.79-.79,2.25,2.25,0,0,1-.28-1.07,2.15,2.15,0,0,1,.28-1.08,1.87,1.87,0,0,1,.81-.79,2.36,2.36,0,0,1,1-.29,2.1,2.1,0,0,1,1,.29,1.85,1.85,0,0,1,.8.79A2.09,2.09,0,0,1,244.8-913.24Zm-.35,0a1.76,1.76,0,0,0-.24-.9,1.7,1.7,0,0,0-.67-.66,1.81,1.81,0,0,0-.87-.24,1.75,1.75,0,0,0-.87.24,1.64,1.64,0,0,0-.67.66,1.76,1.76,0,0,0-.24.9,1.75,1.75,0,0,0,.24.89,1.68,1.68,0,0,0,.66.66,1.81,1.81,0,0,0,.88.23,1.84,1.84,0,0,0,.89-.23,1.79,1.79,0,0,0,.65-.66A1.85,1.85,0,0,0,244.45-913.24Z"/></clipPath><clipPath id="clip-path-49"><polygon class="cls-1" points="223.8 -930.68 233.94 -913.79 223.8 -913.79 217.66 -913.79 207.98 -929.92 200.65 -942.13 207.98 -946.54 212.6 -949.32 223.8 -930.68"/></clipPath><clipPath id="clip-path-50"><path class="cls-1" d="M227.79-901.3v-1.53a4,4,0,0,0-4-3.26,4,4,0,0,0-4,4,4,4,0,0,0,4,4A4.06,4.06,0,0,0,227.79-901.3Zm3.37-.76v6.92h-3.37v-.76a7.27,7.27,0,0,1-4,1.17,7.34,7.34,0,0,1-7.07-7.34,7.33,7.33,0,0,1,7.07-7.33,7.2,7.2,0,0,1,4,1.18V-909h3.37Z"/></clipPath><clipPath id="clip-path-51"><path class="cls-1" d="M212-901.3v-1.53a4,4,0,0,0-3.95-3.26,4,4,0,0,0-4,4,4,4,0,0,0,4,4A4,4,0,0,0,212-901.3Zm3.37-.76v6.92H212v-.76a7.3,7.3,0,0,1-3.95,1.17,7.34,7.34,0,0,1-7.07-7.34A7.33,7.33,0,0,1,208-909.4a7.22,7.22,0,0,1,3.95,1.18v-5.57h3.37Z"/></clipPath><clipPath id="clip-path-52"><polygon class="cls-1" points="207.98 -920.43 211.95 -913.79 207.98 -913.79 195.68 -913.79 186.65 -928.83 186.25 -929.48 186.65 -929.72 198.21 -936.68 207.98 -920.43"/></clipPath><clipPath id="clip-path-53"><rect class="cls-1" x="195.7" y="-909.4" width="3.67" height="14.26"/></clipPath><clipPath id="clip-path-54"><rect class="cls-1" x="195.7" y="-913.72" width="3.67" height="3.22"/></clipPath><clipPath id="clip-path-55"><path class="cls-1" d="M190.65-901.3v-1.53a4,4,0,0,0-4-3.26,4,4,0,0,0-4,4,4,4,0,0,0,4,4A4.06,4.06,0,0,0,190.65-901.3Zm3.37-.76v6.92h-3.37v-.76a7.36,7.36,0,0,1-4,1.17,7.34,7.34,0,0,1-7.07-7.34,7.33,7.33,0,0,1,7.07-7.33,7.2,7.2,0,0,1,4,1.18v-5.57H194Z"/></clipPath><clipPath id="clip-path-56"><polygon class="cls-1" points="186.65 -919.35 189.98 -913.79 186.65 -913.79 173.7 -913.79 171.87 -916.84 183.83 -924.02 186.65 -919.35"/></clipPath><clipPath id="clip-path-57"><path class="cls-1" d="M174.66-901.3v-1.53a4,4,0,0,0-4-3.26,4,4,0,0,0-4,4,4,4,0,0,0,4,4A4.06,4.06,0,0,0,174.66-901.3Zm3.37-.76v6.92h-3.37v-.76a7.27,7.27,0,0,1-4,1.17,7.34,7.34,0,0,1-7.07-7.34,7.33,7.33,0,0,1,7.07-7.33,7.2,7.2,0,0,1,4,1.18V-909H178Z"/></clipPath><clipPath id="clip-path-58"><path class="cls-1" d="M341.38-933.95h-4.66l4.83,12.64h5.26l4.93-12.64H347.2l-2.94,8.21Zm-13.47,5c0-1.89.39-2.94,2.22-2.94s2.27.83,2.27,2.94Zm2.39,5.65c-1.94,0-2.39-.83-2.39-3.16h8.7c0-5.6-1.33-7.93-6.31-7.93-5.43,0-6.9,1.89-6.9,6.75s2,7,6.6,7,6.21-1.66,6.32-4.26H332.4C332.4-923.8,332-923.3,330.3-923.3ZM318.6-934h-4.26v12.64h8.53v-3H318.6Zm33.64,22.56v-31.2m0,31.2a33.49,33.49,0,0,0-7.76,2.8,38.77,38.77,0,0,0-15.79-3.49,40.25,40.25,0,0,0-17.35,4l-7-34.51h47.93"/></clipPath><clipPath id="clip-path-59"><path class="cls-1" d="M370.09-906.3c0-.16-.23-.28-.78-.28v.61c.39,0,.78,0,.78-.32Zm-1.28,1.66v-2.42h.67c.66,0,1.16.16,1.16.77,0,.28-.17.5-.55.72l.44.94h-.44l-.39-.72h-.39v.71Zm2.88-1.21a2,2,0,0,0-2.05-2,2,2,0,0,0-2.05,2,2.08,2.08,0,0,0,2,2,2,2,0,0,0,1.48-.55A2,2,0,0,0,371.69-905.85Zm-2.05-2.43a2.42,2.42,0,0,1,2.24,1.17,2.45,2.45,0,0,1,0,2.53,2.44,2.44,0,0,1-2.24,1.17,2.44,2.44,0,0,1-1.73-.71,2.39,2.39,0,0,1-.71-1.73A2.45,2.45,0,0,1,369.64-908.28Zm-3.43-17.07h-4.49c0,3,1.66,4.26,6.54,4.26,4.54,0,6.37-1,6.37-4.15,0-5-8.42-2.5-8.42-5.49,0-.72.83-1.33,1.94-1.33a1.73,1.73,0,0,1,1.88,1.55h4.27c-.06-2.66-1.61-3.88-5.88-3.88-4.43,0-6.48,1.22-6.48,4,0,5.49,8.42,2.55,8.42,5.66,0,.94-.5,1.38-1.71,1.38C367.2-923.36,366.32-923.91,366.21-925.35Zm-5.93-7.87-.22,1.27c1.33-.83,1.88-1.55,1.88-2.49a1.57,1.57,0,0,0-.51-1.22,1.53,1.53,0,0,0-1.26-.39,1.51,1.51,0,0,0-1.2.36,1.51,1.51,0,0,0-.52,1.14C358.45-933.39,359.22-933.22,360.28-933.22ZM353-934v12.69h4.16V-934Zm-.77-8.59h32.3l-7.59,34.52c-5-2.88-9.53-4.1-16.12-4.1a44.21,44.21,0,0,0-8.59.78"/></clipPath><clipPath id="clip-path-60"><rect class="cls-1" x="468.63" y="-917.38" width="5.64" height="6.9"/></clipPath><clipPath id="clip-path-61"><path class="cls-1" d="M476.69-908H466.21v-11.76h10.52Zm-18.21,0h-9.25l.51-2.49h6.86l1.43-6.74h-4.44l-.93,4.39h-2.43l1.41-6.87h9.29Zm-8.08-18.59h5.7v-6.91h-4.42V-936h6.84v9.32h2.39v2.44H450.4Zm15.86,0h10.45v2.43H466.26ZM467.4-936h8.06v2.43H467.4Zm-23-5.26v38.47h38.39v-38.47Z"/></clipPath><clipPath id="clip-path-62"><path class="cls-1" d="M515.47-917.77a1.6,1.6,0,0,0-1.6,1.61v4a1.62,1.62,0,0,0,.76,1.5,1.63,1.63,0,0,0,1.68,0,1.61,1.61,0,0,0,.77-1.5v-4A1.62,1.62,0,0,0,515.47-917.77Z"/></clipPath><clipPath id="clip-path-63"><path class="cls-1" d="M494.86-917.77a1.59,1.59,0,0,0-1.13.47,1.6,1.6,0,0,0-.46,1.14v4a1.59,1.59,0,0,0,1.59,1.59,1.59,1.59,0,0,0,1.59-1.59v-4A1.61,1.61,0,0,0,494.86-917.77Z"/></clipPath><clipPath id="clip-path-64"><path class="cls-1" d="M519.57-912.15a4.09,4.09,0,0,1-4.09,4.09,4.09,4.09,0,0,1-4.09-4.09v-4a4.09,4.09,0,0,1,4.09-4.09,4.09,4.09,0,0,1,4.09,4.09Zm-9.37-11.7h-2.38l-3.25-6.79v6.82h-2.46V-936h2.46l3.25,6.88V-936h2.39Zm0,15.75h-8.09v-12.14h2.42v9.76h5.67Zm-13.72,2.46-.83-2.5a4.13,4.13,0,0,1-.78.08,4.08,4.08,0,0,1-4-4.09v-4a4,4,0,0,1,2-3.51,4.07,4.07,0,0,1,4.05,0,4,4,0,0,1,2,3.51v4a4.12,4.12,0,0,1-1.19,2.89l1.19,3.62ZM490.84-936h2.45v8.09a1.59,1.59,0,0,0,1.59,1.59,1.59,1.59,0,0,0,1.59-1.59V-936h2.46v8.13a4,4,0,0,1-4,4h-.14a4,4,0,0,1-4-4Zm23.42,0h2.42v12.15h-2.42ZM486-941.26v38.47H524.4v-38.47Z"/></clipPath><clipPath id="clip-path-65"><path class="cls-1" d="M599.52-916.89a.72.72,0,0,1-.52-.21.7.7,0,0,1-.22-.51.74.74,0,0,1,.74-.74.74.74,0,0,1,.74.74.7.7,0,0,1-.22.51A.73.73,0,0,1,599.52-916.89Zm0-1.75a1,1,0,0,0-.94,1,1,1,0,0,0,1,1,1,1,0,0,0,1-1,1,1,0,0,0-.32-.73A1,1,0,0,0,599.52-918.64Z"/></clipPath><clipPath id="clip-path-66"><polygon class="cls-1" points="609.85 -922.22 604.68 -922.22 605.27 -931.2 601.92 -922.22 597.12 -922.22 604.73 -942.51 609.83 -942.51 609.24 -933.41 612.66 -942.51 617.46 -942.51 609.85 -922.22"/></clipPath><clipPath id="clip-path-67"><polygon class="cls-1" points="610.47 -922.22 618.08 -942.51 622.88 -942.51 615.27 -922.22 610.47 -922.22"/></clipPath><clipPath id="clip-path-68"><path class="cls-1" d="M596.57-929.22c-6.71,7.88-13,18.35-7.45,23.17s12.18,1.91,16.79.07,55.6-24,55.6-24c.49-.24.4-.55-.22-.4l-55.5,15C598.78-913.36,590.78-917.64,596.57-929.22Z"/></clipPath><clipPath id="clip-path-69"><path class="cls-1" d="M599.53-917.72h-.13V-918h.13c.08,0,.18,0,.18.12S599.62-917.72,599.53-917.72Zm.17.18a.27.27,0,0,0,.2-.09.25.25,0,0,0,.07-.2c0-.27-.17-.34-.46-.34h-.42v1.11h.31v-.47l.26.47H600Z"/></clipPath><clipPath id="clip-path-70"><path class="cls-1" d="M647.74-940.82a.73.73,0,0,1-.72-.74.73.73,0,0,1,.73-.72.73.73,0,0,1,.73.73.74.74,0,0,1-.22.52A.73.73,0,0,1,647.74-940.82Zm0-1.76a1,1,0,0,0-.94,1,1,1,0,0,0,1,1,1,1,0,0,0,1-1,1,1,0,0,0-.32-.73A1,1,0,0,0,647.74-942.58Z"/></clipPath><clipPath id="clip-path-71"><path class="cls-1" d="M647.75-941.64h-.16v-.25h.13c.08,0,.18,0,.18.11S647.84-941.64,647.75-941.64Zm.17.16a.27.27,0,0,0,.2-.09.25.25,0,0,0,.07-.2c0-.27-.17-.33-.46-.33h-.42v1.1h.28v-.47l.26.47h.32Z"/></clipPath><clipPath id="clip-path-72"><path class="cls-1" d="M629.12-923.57l-.31-10.58,7.26-8Zm15.46-15.56,1.29-3.38H631.24l-5,6.08,2.32-6.08h-4.89l-7.55,20.29h4.8l3.22-8.49.26,8.49h14.72l1.4-3.91h-5.63l1.83-4.92h4.62l1.42-3.78h-4.62l1.58-4.27Z"/></clipPath><clipPath id="clip-path-73"><path class="cls-2" d="M79.22-1082.83l3.37-.05c12.31.85,27.08,12.2,27.08,28.88v13.07h-12V-1054c0-8.14-6.32-14.87-15.13-15.46H79.22Z"/></clipPath><clipPath id="clip-path-74"><path class="cls-2" d="M79.22-1068.14h3.29c8.54,0,14,8.35,13.82,14.15v13.06H87.17v-10.54c-.13-2.65-1.74-4.1-4.68-4.15H79.22Z"/></clipPath><clipPath id="clip-path-75"><polygon class="cls-2" points="36.1 -1041.27 36.1 -1053.68 44.63 -1053.68 44.63 -1050.55 39.72 -1050.55 39.72 -1048.64 43.63 -1048.64 43.63 -1045.64 39.72 -1045.64 39.72 -1041.27 36.1 -1041.27"/></clipPath><clipPath id="clip-path-76"><path class="cls-2" d="M64.22-1046.08h3.43a5.48,5.48,0,0,1-1.57,3.8,5.34,5.34,0,0,1-3.83,1.35,5.44,5.44,0,0,1-4.27-1.71,7,7,0,0,1-1.58-4.82,7,7,0,0,1,1.54-4.79,5.35,5.35,0,0,1,4.2-1.75,5.43,5.43,0,0,1,3.88,1.36,5.32,5.32,0,0,1,1.57,3.71H64.12a2.21,2.21,0,0,0-.56-1.43,1.83,1.83,0,0,0-1.35-.49,1.76,1.76,0,0,0-1.6.86,4.88,4.88,0,0,0-.53,2.58,4.67,4.67,0,0,0,.56,2.56,1.88,1.88,0,0,0,1.67.87,1.75,1.75,0,0,0,1.33-.53,2.49,2.49,0,0,0,.58-1.52Z"/></clipPath><clipPath id="clip-path-77"><polygon class="cls-2" points="69.18 -1041.27 69.18 -1053.68 78.19 -1053.68 78.19 -1050.7 72.8 -1050.7 72.8 -1049.05 77.36 -1049.05 77.36 -1046.21 72.8 -1046.21 72.8 -1044.29 78.42 -1044.29 78.42 -1041.27 69.18 -1041.27"/></clipPath><clipPath id="clip-path-78"><path class="cls-2" d="M19.13-1055.56v-12.59h3.45l3.17,5.86a3.39,3.39,0,0,1,.31.7c.11.3.23.66.35,1.09a2.84,2.84,0,0,0-.07-.74,4.72,4.72,0,0,1,0-1v-5.91H29.8v12.59H26.32l-3.17-5.81a4.26,4.26,0,0,1-.32-.73c-.12-.31-.23-.67-.35-1.08,0,.23.06.46.07.7s0,.58,0,1v5.9Z"/></clipPath><clipPath id="clip-path-79"><polygon class="cls-2" points="59.25 -1055.56 59.25 -1064.83 55.99 -1064.83 55.99 -1068.15 66.07 -1068.15 66.07 -1064.83 62.88 -1064.83 62.88 -1055.56 59.25 -1055.56"/></clipPath><clipPath id="clip-path-80"><polygon class="cls-2" points="67.32 -1055.56 67.32 -1068.15 70.95 -1068.15 70.95 -1063.88 74.34 -1063.88 74.34 -1068.15 77.97 -1068.15 77.97 -1055.56 74.34 -1055.56 74.34 -1060.44 70.95 -1060.44 70.95 -1055.56 67.32 -1055.56"/></clipPath><clipPath id="clip-path-81"><polygon class="cls-2" points="48.37 -1069.46 48.37 -1079.52 45.12 -1079.52 45.12 -1083.12 55.17 -1083.12 55.17 -1079.52 51.99 -1079.52 51.99 -1069.46 48.37 -1069.46"/></clipPath><clipPath id="clip-path-82"><polygon class="cls-2" points="56.41 -1069.46 56.41 -1083.12 60.04 -1083.12 60.04 -1078.48 63.42 -1078.48 63.42 -1083.12 67.04 -1083.12 67.04 -1069.46 63.42 -1069.46 63.42 -1074.76 60.04 -1074.76 60.04 -1069.46 56.41 -1069.46"/></clipPath><clipPath id="clip-path-83"><polygon class="cls-2" points="69.17 -1069.46 69.17 -1083.12 78.19 -1083.12 78.19 -1079.85 72.8 -1079.85 72.8 -1078.03 77.36 -1078.03 77.36 -1074.9 72.8 -1074.9 72.8 -1072.78 78.42 -1072.78 78.42 -1069.46 69.17 -1069.46"/></clipPath><clipPath id="clip-path-84"><path class="cls-2" d="M48.9-1045.48l1.15-4.29,1.13,4.29Zm3-8.16H48.23l-4,12.41h3.56l.44-1.65h3.59l.42,1.65h3.59Z"/></clipPath><clipPath id="clip-path-85"><path class="cls-2" d="M39-1059.21a2.12,2.12,0,0,1-1.68.83,2.12,2.12,0,0,1-1.67-.83,6.65,6.65,0,0,1,0-5.25,2.1,2.1,0,0,1,1.67-.84,2.1,2.1,0,0,1,1.68.84,5,5,0,0,1,.53,2.64A5,5,0,0,1,39-1059.21Zm2.63-7.49a5.48,5.48,0,0,0-4.3-1.77,5.46,5.46,0,0,0-4.3,1.77,7.07,7.07,0,0,0-1.58,4.86A7.08,7.08,0,0,0,33-1057a5.46,5.46,0,0,0,4.3,1.78,5.44,5.44,0,0,0,4.3-1.78,7.07,7.07,0,0,0,1.57-4.85A7.08,7.08,0,0,0,41.63-1066.7Z"/></clipPath><clipPath id="clip-path-86"><path class="cls-1" d="M245-1045H241.4a2.37,2.37,0,0,0-.52-1.25,2.66,2.66,0,0,0-1.93-.58,2.87,2.87,0,0,0-1.85.44,1.13,1.13,0,0,0-.4.92c0,.54.75,1,2.25,1.3,1.7.37,2.92.7,3.67,1l.5.2a3.47,3.47,0,0,1,2.28,3.26,4.14,4.14,0,0,1-2.21,3.89,5.77,5.77,0,0,1-.56.27,8.31,8.31,0,0,1-3.3.62,9.18,9.18,0,0,1-4.52-1,4.39,4.39,0,0,1-1.62-1.58,4.49,4.49,0,0,1-.54-2.23h3.75a1.77,1.77,0,0,0,.69,1.49,3.87,3.87,0,0,0,2.33.54,2.86,2.86,0,0,0,1.86-.51,1.2,1.2,0,0,0,.47-.92c0-.58-.74-1-2.21-1.36a25.59,25.59,0,0,1-4.14-1.13,3.45,3.45,0,0,1-2.25-3.3,4.26,4.26,0,0,1,1.18-3.07,5.77,5.77,0,0,1,4.43-1.57,9.28,9.28,0,0,1,3.89.69,1.34,1.34,0,0,1,.23.13,4,4,0,0,1,1.59,1.52A4.62,4.62,0,0,1,245-1045Z"/></clipPath><clipPath id="clip-path-87"><path class="cls-1" d="M243.4-1054.08a.6.6,0,0,1-.08.78.68.68,0,0,1-.48.21.82.82,0,0,1,.2.12l.34.46.27.46h-.44l-.21-.37a1.8,1.8,0,0,0-.35-.5l-.3-.09h-.22v1h-.37v-2.36h.93a1.74,1.74,0,0,1,.45.06A.58.58,0,0,1,243.4-1054.08Zm-.3.38a.31.31,0,0,0,0-.19.31.31,0,0,0-.16-.12h-.8v.69h.56a.59.59,0,0,0,.34-.1A.36.36,0,0,0,243.1-1053.7Z"/></clipPath><clipPath id="clip-path-88"><path class="cls-1" d="M244.8-1053.24a2.25,2.25,0,0,1-.28,1.07,2.07,2.07,0,0,1-.79.79,2.21,2.21,0,0,1-1.06.28,2.18,2.18,0,0,1-1.06-.28,2.07,2.07,0,0,1-.79-.79,2.25,2.25,0,0,1-.28-1.07,2.15,2.15,0,0,1,.28-1.08,1.87,1.87,0,0,1,.81-.79,2.36,2.36,0,0,1,1-.29,2.1,2.1,0,0,1,1,.29,1.85,1.85,0,0,1,.8.79A2.09,2.09,0,0,1,244.8-1053.24Zm-.35,0a1.76,1.76,0,0,0-.24-.9,1.7,1.7,0,0,0-.67-.66,1.81,1.81,0,0,0-.87-.24,1.75,1.75,0,0,0-.87.24,1.64,1.64,0,0,0-.67.66,1.76,1.76,0,0,0-.24.9,1.75,1.75,0,0,0,.24.89,1.68,1.68,0,0,0,.66.66,1.81,1.81,0,0,0,.88.23,1.84,1.84,0,0,0,.89-.23,1.79,1.79,0,0,0,.65-.66A1.85,1.85,0,0,0,244.45-1053.24Z"/></clipPath><clipPath id="clip-path-89"><polygon class="cls-1" points="223.8 -1070.68 233.94 -1053.79 223.8 -1053.79 217.66 -1053.79 207.98 -1069.92 200.65 -1082.13 207.98 -1086.54 212.6 -1089.32 223.8 -1070.68"/></clipPath><clipPath id="clip-path-90"><path class="cls-1" d="M227.79-1041.3v-1.53a4,4,0,0,0-4-3.26,4,4,0,0,0-4,4,4,4,0,0,0,4,4A4.06,4.06,0,0,0,227.79-1041.3Zm3.37-.76v6.92h-3.37v-.76a7.27,7.27,0,0,1-4,1.17,7.34,7.34,0,0,1-7.07-7.34,7.33,7.33,0,0,1,7.07-7.33,7.2,7.2,0,0,1,4,1.18v-.81h3.37Z"/></clipPath><clipPath id="clip-path-91"><path class="cls-1" d="M212-1041.3v-1.53a4,4,0,0,0-3.95-3.26,4,4,0,0,0-4,4,4,4,0,0,0,4,4A4,4,0,0,0,212-1041.3Zm3.37-.76v6.92H212v-.76a7.3,7.3,0,0,1-3.95,1.17,7.34,7.34,0,0,1-7.07-7.34,7.33,7.33,0,0,1,7.07-7.33,7.22,7.22,0,0,1,3.95,1.18v-5.57h3.37Z"/></clipPath><clipPath id="clip-path-92"><polygon class="cls-1" points="207.98 -1060.43 211.95 -1053.79 207.98 -1053.79 195.68 -1053.79 186.65 -1068.83 186.25 -1069.48 186.65 -1069.72 198.21 -1076.68 207.98 -1060.43"/></clipPath><clipPath id="clip-path-93"><rect class="cls-1" x="195.7" y="-1049.4" width="3.67" height="14.26"/></clipPath><clipPath id="clip-path-94"><rect class="cls-1" x="195.7" y="-1053.72" width="3.67" height="3.22"/></clipPath><clipPath id="clip-path-95"><path class="cls-1" d="M190.65-1041.3v-1.53a4,4,0,0,0-4-3.26,4,4,0,0,0-4,4,4,4,0,0,0,4,4A4.06,4.06,0,0,0,190.65-1041.3Zm3.37-.76v6.92h-3.37v-.76a7.36,7.36,0,0,1-4,1.17,7.34,7.34,0,0,1-7.07-7.34,7.33,7.33,0,0,1,7.07-7.33,7.2,7.2,0,0,1,4,1.18v-5.57H194Z"/></clipPath><clipPath id="clip-path-96"><polygon class="cls-1" points="186.65 -1059.35 189.98 -1053.79 186.65 -1053.79 173.7 -1053.79 171.87 -1056.84 183.83 -1064.02 186.65 -1059.35"/></clipPath><clipPath id="clip-path-97"><path class="cls-1" d="M174.66-1041.3v-1.53a4,4,0,0,0-4-3.26,4,4,0,0,0-4,4,4,4,0,0,0,4,4A4.06,4.06,0,0,0,174.66-1041.3Zm3.37-.76v6.92h-3.37v-.76a7.27,7.27,0,0,1-4,1.17,7.34,7.34,0,0,1-7.07-7.34,7.33,7.33,0,0,1,7.07-7.33,7.2,7.2,0,0,1,4,1.18v-.81H178Z"/></clipPath><clipPath id="clip-path-98"><path class="cls-1" d="M341.38-1073.95h-4.66l4.83,12.64h5.26l4.93-12.64H347.2l-2.94,8.21Zm-13.47,5c0-1.89.39-2.94,2.22-2.94s2.27.83,2.27,2.94Zm2.39,5.65c-1.94,0-2.39-.83-2.39-3.16h8.7c0-5.6-1.33-7.93-6.31-7.93-5.43,0-6.9,1.89-6.9,6.75s2,7,6.6,7,6.21-1.66,6.32-4.26H332.4C332.4-1063.8,332-1063.3,330.3-1063.3ZM318.6-1074h-4.26v12.64h8.53v-3H318.6Zm33.64,22.56v-31.2m0,31.2a33.49,33.49,0,0,0-7.76,2.8,38.77,38.77,0,0,0-15.79-3.49,40.25,40.25,0,0,0-17.35,4l-7-34.51h47.93"/></clipPath><clipPath id="clip-path-99"><path class="cls-1" d="M370.09-1046.3c0-.16-.23-.28-.78-.28v.61c.39,0,.78,0,.78-.32Zm-1.28,1.66v-2.42h.67c.66,0,1.16.16,1.16.77,0,.28-.17.5-.55.72l.44.94h-.44l-.39-.72h-.39v.71Zm2.88-1.21a2,2,0,0,0-2.05-2.05,2,2,0,0,0-2.05,2.05,2.08,2.08,0,0,0,2,2,2,2,0,0,0,1.48-.55A2,2,0,0,0,371.69-1045.85Zm-2.05-2.43a2.42,2.42,0,0,1,2.24,1.17,2.45,2.45,0,0,1,0,2.53,2.44,2.44,0,0,1-2.24,1.17,2.44,2.44,0,0,1-1.73-.71,2.39,2.39,0,0,1-.71-1.73A2.45,2.45,0,0,1,369.64-1048.28Zm-3.43-17.07h-4.49c0,3,1.66,4.26,6.54,4.26,4.54,0,6.37-1,6.37-4.15,0-5-8.42-2.5-8.42-5.49,0-.72.83-1.33,1.94-1.33a1.73,1.73,0,0,1,1.88,1.55h4.27c-.06-2.66-1.61-3.88-5.88-3.88-4.43,0-6.48,1.22-6.48,4,0,5.49,8.42,2.55,8.42,5.66,0,.94-.5,1.38-1.71,1.38C367.2-1063.36,366.32-1063.91,366.21-1065.35Zm-5.93-7.87-.22,1.27c1.33-.83,1.88-1.55,1.88-2.49a1.57,1.57,0,0,0-.51-1.22,1.53,1.53,0,0,0-1.26-.39,1.51,1.51,0,0,0-1.2.36,1.51,1.51,0,0,0-.52,1.14C358.45-1073.39,359.22-1073.22,360.28-1073.22ZM353-1074v12.69h4.16V-1074Zm-.77-8.59h32.3l-7.59,34.52c-5-2.88-9.53-4.1-16.12-4.1a44.21,44.21,0,0,0-8.59.78"/></clipPath><clipPath id="clip-path-100"><rect class="cls-1" x="468.63" y="-1057.38" width="5.64" height="6.9"/></clipPath><clipPath id="clip-path-101"><path class="cls-1" d="M476.69-1048H466.21v-11.76h10.52Zm-18.21,0h-9.25l.51-2.49h6.86l1.43-6.74h-4.44l-.93,4.39h-2.43l1.41-6.87h9.29Zm-8.08-18.59h5.7v-6.91h-4.42V-1076h6.84v9.32h2.39v2.44H450.4Zm15.86,0h10.45v2.43H466.26Zm1.14-9.36h8.06v2.43H467.4Zm-23-5.26v38.47h38.39v-38.47Z"/></clipPath><clipPath id="clip-path-102"><path class="cls-1" d="M515.47-1057.77a1.6,1.6,0,0,0-1.6,1.61v4a1.62,1.62,0,0,0,.76,1.5,1.63,1.63,0,0,0,1.68,0,1.61,1.61,0,0,0,.77-1.5v-4A1.62,1.62,0,0,0,515.47-1057.77Z"/></clipPath><clipPath id="clip-path-103"><path class="cls-1" d="M494.86-1057.77a1.59,1.59,0,0,0-1.13.47,1.6,1.6,0,0,0-.46,1.14v4a1.59,1.59,0,0,0,1.59,1.59,1.59,1.59,0,0,0,1.59-1.59v-4A1.61,1.61,0,0,0,494.86-1057.77Z"/></clipPath><clipPath id="clip-path-104"><path class="cls-1" d="M519.57-1052.15a4.09,4.09,0,0,1-4.09,4.09,4.09,4.09,0,0,1-4.09-4.09v-4a4.09,4.09,0,0,1,4.09-4.09,4.09,4.09,0,0,1,4.09,4.09Zm-9.37-11.7h-2.38l-3.25-6.79v6.82h-2.46V-1076h2.46l3.25,6.88V-1076h2.39Zm0,15.75h-8.09v-12.14h2.42v9.76h5.67Zm-13.72,2.46-.83-2.5a4.13,4.13,0,0,1-.78.08,4.08,4.08,0,0,1-4-4.09v-4a4,4,0,0,1,2-3.51,4.07,4.07,0,0,1,4.05,0,4,4,0,0,1,2,3.51v4a4.12,4.12,0,0,1-1.19,2.89l1.19,3.62ZM490.84-1076h2.45v8.09a1.59,1.59,0,0,0,1.59,1.59,1.59,1.59,0,0,0,1.59-1.59v-8h2.46v8.13a4,4,0,0,1-4,4h-.14a4,4,0,0,1-4-4Zm23.42,0h2.42v12.15h-2.42ZM486-1081.26v38.47H524.4v-38.47Z"/></clipPath><clipPath id="clip-path-105"><path class="cls-1" d="M599.52-1056.89a.72.72,0,0,1-.52-.21.7.7,0,0,1-.22-.51.74.74,0,0,1,.74-.74.74.74,0,0,1,.74.74.7.7,0,0,1-.22.51A.73.73,0,0,1,599.52-1056.89Zm0-1.75a1,1,0,0,0-.94,1,1,1,0,0,0,1,1,1,1,0,0,0,1-1,1,1,0,0,0-.32-.73A1,1,0,0,0,599.52-1058.64Z"/></clipPath><clipPath id="clip-path-106"><polygon class="cls-1" points="609.85 -1062.22 604.68 -1062.22 605.27 -1071.2 601.92 -1062.22 597.12 -1062.22 604.73 -1082.51 609.83 -1082.51 609.24 -1073.41 612.66 -1082.51 617.46 -1082.51 609.85 -1062.22"/></clipPath><clipPath id="clip-path-107"><polygon class="cls-1" points="610.47 -1062.22 618.08 -1082.51 622.88 -1082.51 615.27 -1062.22 610.47 -1062.22"/></clipPath><clipPath id="clip-path-108"><path class="cls-1" d="M596.57-1069.22c-6.71,7.88-13,18.35-7.45,23.17s12.18,1.91,16.79.07,55.6-24,55.6-24c.49-.24.4-.55-.22-.4l-55.5,15C598.78-1053.36,590.78-1057.64,596.57-1069.22Z"/></clipPath><clipPath id="clip-path-109"><path class="cls-1" d="M599.53-1057.72h-.13v-.26h.13c.08,0,.18,0,.18.12S599.62-1057.72,599.53-1057.72Zm.17.18a.27.27,0,0,0,.2-.09.25.25,0,0,0,.07-.2c0-.27-.17-.34-.46-.34h-.42v1.11h.31v-.47l.26.47H600Z"/></clipPath><clipPath id="clip-path-110"><path class="cls-1" d="M647.74-1080.82a.73.73,0,0,1-.72-.74.73.73,0,0,1,.73-.72.73.73,0,0,1,.73.73.74.74,0,0,1-.22.52A.73.73,0,0,1,647.74-1080.82Zm0-1.76a1,1,0,0,0-.94,1,1,1,0,0,0,1,1,1,1,0,0,0,1-1,1,1,0,0,0-.32-.73A1,1,0,0,0,647.74-1082.58Z"/></clipPath><clipPath id="clip-path-111"><path class="cls-1" d="M647.75-1081.64h-.16v-.25h.13c.08,0,.18,0,.18.11S647.84-1081.64,647.75-1081.64Zm.17.16a.27.27,0,0,0,.2-.09.25.25,0,0,0,.07-.2c0-.27-.17-.33-.46-.33h-.42v1.1h.28v-.47l.26.47h.32Z"/></clipPath><clipPath id="clip-path-112"><path class="cls-1" d="M629.12-1063.57l-.31-10.58,7.26-8Zm15.46-15.56,1.29-3.38H631.24l-5,6.08,2.32-6.08h-4.89l-7.55,20.29h4.8l3.22-8.49.26,8.49h14.72l1.4-3.91h-5.63l1.83-4.92h4.62l1.42-3.78h-4.62l1.58-4.27Z"/></clipPath></defs><title>athleta</title><path class="cls-115" d="M49.61,93.51c0-2.84,0-5.69,0-8.53V77.75c.67,0,1.28,0,1.88,0,.43,0,.5.09.51.57,0,1.4,0,2.81,0,4.22v1.27a42.06,42.06,0,0,0,6.58.08c.16-.21.08-.46.08-.69,0-1.59,0-3.19,0-4.78,0-.63,0-.66.68-.67h1.5a.36.36,0,0,1,.19.35q0,7.71,0,15.41H58.61c0-2.28,0-4.57,0-6.85,0-.46,0-.48-.45-.48q-2.88,0-5.76,0c-.43,0-.45,0-.45.47q0,3.43,0,6.86Z"/><path class="cls-115" d="M109.86,93.51l4.28-9.26,1.24-2.64,2.1-4.45s.08-.08.19-.18c.52,1.1,1,2.18,1.52,3.26.67,1.5,1.32,3,2,4.5Q123.07,89,125,93.22s.08.07.13.11.09.19-.09.18h-2.48c-.06-.13-.13-.27-.19-.41-.43-1-.86-1.93-1.27-2.9a.75.75,0,0,0-.8-.55c-1.86,0-3.71,0-5.57,0a.74.74,0,0,0-.79.55c-.49,1.11-1,2.21-1.48,3.31Zm7.75-11.33c-.88,1.82-1.66,3.5-2.4,5.23a18.24,18.24,0,0,0,4.59-.11Z"/><path class="cls-115" d="M14.9,93.33c.33-.23.34-.62.49-.94,1-2.12,2-4.23,3-6.35q1.94-4.17,3.88-8.35c.11-.23.15-.54.47-.69.72,1.6,1.45,3.19,2.17,4.79.65,1.44,1.28,2.89,1.93,4.33L29.92,93l.22.49H27.57c-.48-1.11-1-2.2-1.43-3.33a.7.7,0,0,0-.81-.52c-1.86,0-3.72,0-5.58,0a.74.74,0,0,0-.8.55l-1.48,3.31H15C14.81,93.52,14.94,93.39,14.9,93.33Zm7.72-11.17-2.4,5.25a18.61,18.61,0,0,0,4.63-.11Z"/><path class="cls-115" d="M82.31,93.51V77.79h8.61a15.63,15.63,0,0,1,0,2.27H84.74v3.67a26.72,26.72,0,0,0,3,0c1,0,2,0,3,0,.1.71,0,1.4.05,2.14a28,28,0,0,1-3,0c-1,0-2,0-2.92,0a33.29,33.29,0,0,0-.06,5.29h6.19v2.23Z"/><path class="cls-115" d="M100.12,93.51c0-.24,0-.48,0-.73V81c0-.19,0-.37,0-.55s-.12-.33-.34-.33H96.67V77.8h9.46v2.26h-3.62V93.51Z"/><path class="cls-115" d="M37.31,93.51V80.12a10.86,10.86,0,0,0-1.71-.05H33.84a12.58,12.58,0,0,1,0-2.21,1.18,1.18,0,0,1,.75-.1h8.35c.3,0,.43.16.43.46,0,.58,0,1.16,0,1.8-1.21.13-2.39,0-3.66.09v13.4Z"/><path class="cls-115" d="M68.9,93.51c0-.3,0-.61,0-.91V78.83c0-1.12-.09-1.09,1.11-1.08.39,0,.78,0,1.15,0a1.85,1.85,0,0,1,.11,1V90.56c0,.76-.08.75.74.75h3.85c0,.77,0,1.49,0,2.21Z"/><path class="cls-115" d="M70,68.54a9.9,9.9,0,1,1,10-9.81A9.86,9.86,0,0,1,70,68.54ZM62.39,55.11A27,27,0,0,0,64,57.88a.37.37,0,0,0,.29.18c.4,0,.77.18,1.16.19,1.37,0,2.71.28,4.18.43-1.34.36-2.59.66-3.8,1a37.38,37.38,0,0,0-3.79,1.17,1.57,1.57,0,0,0,.28.22l2.49.8a.7.7,0,0,0,.68-.17c.75-.57,1.61-1,2.35-1.57a20,20,0,0,1,1.7-1.12c-.64,1.12-1.35,2.17-2.06,3.22s-1.47,2.1-2.22,3.37c1.06-.42,1.92-.78,2.79-1.1a.75.75,0,0,0,.49-.59c.28-1,.6-2,.9-3,.16-.53.33-1,.49-1.57l.18,0c0,.85.16,1.68.19,2.51s.15,1.7.26,2.54A7.21,7.21,0,0,0,71,67c.52-1,1-1.93,1.43-2.81.12-.22,0-.35-.06-.5-.47-1.08-1-2.16-1.43-3.24-.15-.35-.27-.71-.45-1.21,2,1.67,3.67,3.51,5.54,5.25a2.9,2.9,0,0,0,0-.45c-.17-.83-.38-1.65-.52-2.48A.75.75,0,0,0,75,61c-1.42-.66-2.82-1.37-4.37-2.14a11.82,11.82,0,0,1,1.71,0c1.39.2,2.78.2,4.17.33a5,5,0,0,1,1.44.15.47.47,0,0,0,.44,0,.83.83,0,0,0-.34-.42l-2-1.6a.51.51,0,0,0-.51-.07c-1.34.35-2.68.68-4,1a.64.64,0,0,1-.63-.07c.7-.51,1.37-1,2-1.45s1.34-1,2-1.45a13.11,13.11,0,0,0,2-1.56H74.65a1.92,1.92,0,0,0-1.74.92c-.77,1.16-1.63,2.27-2.46,3.39.43-2.51,1.16-4.93,1.73-7.61-.89.79-1.61,1.44-2.34,2.07a.71.71,0,0,0-.21.67c.05.72.12,1.45.17,2.17A9.39,9.39,0,0,0,70,57.45a.48.48,0,0,1-.09.54c-.56-1.15-1.11-2.3-1.7-3.43A27.38,27.38,0,0,0,66.39,51c-.16,1-.3,1.79-.43,2.62a1.26,1.26,0,0,0,.43,1.31,17.42,17.42,0,0,1,1.42,1.43,5.65,5.65,0,0,1,1.37,1.71c-1.11-.47-2.21-.92-3.3-1.43S63.65,55.66,62.39,55.11Z"/></svg>