<svg id="圖層_1" data-name="圖層 1" xmlns="http://www.w3.org/2000/svg" viewBox="0 0 140 140"><defs><style>.cls-1{fill:#b2b2b2;}</style></defs><title>nike</title><path id="_路徑_" data-name="&lt;路徑&gt;" class="cls-1" d="M29.27,89.74a12.54,12.54,0,0,1-7.65-2.56A14.92,14.92,0,0,1,20,85.59a10.47,10.47,0,0,1-1.73-3.11c-1.13-3.39-.55-7.81,1.65-12.68,1.89-4.16,4.81-8.28,9.9-14,.74-.86,3-3.3,3-3.3a4,4,0,0,1-.28.46,30.69,30.69,0,0,0-3.08,7.1c-1,3.63-.88,6.74.36,9.16a9.09,9.09,0,0,0,3.9,3.91c2.84,1.4,7,1.51,12.08.33.36-.09,17.68-4.68,38.51-10.24l37.93-10.09L48.72,84.6c-4,1.7-5,2.11-6.91,2.77A35.11,35.11,0,0,1,29.27,89.74Z"/></svg>