<svg id="圖層_1" data-name="圖層 1" xmlns="http://www.w3.org/2000/svg" xmlns:xlink="http://www.w3.org/1999/xlink" viewBox="0 0 140 140"><defs><style>.cls-1,.cls-2{fill:none;}.cls-2{clip-rule:evenodd;}.cls-3{clip-path:url(#clip-path);}.cls-4{clip-path:url(#clip-path-2);}.cls-5{clip-path:url(#clip-path-3);}.cls-6{clip-path:url(#clip-path-4);}.cls-7{clip-path:url(#clip-path-5);}.cls-8{clip-path:url(#clip-path-6);}.cls-9{clip-path:url(#clip-path-7);}.cls-10{clip-path:url(#clip-path-8);}.cls-11{clip-path:url(#clip-path-9);}.cls-12{clip-path:url(#clip-path-10);}.cls-13{clip-path:url(#clip-path-11);}.cls-14{clip-path:url(#clip-path-12);}.cls-15{clip-path:url(#clip-path-13);}.cls-16{clip-path:url(#clip-path-14);}.cls-17{clip-path:url(#clip-path-15);}.cls-18{clip-path:url(#clip-path-16);}.cls-19{clip-path:url(#clip-path-17);}.cls-20{clip-path:url(#clip-path-18);}.cls-21{clip-path:url(#clip-path-19);}.cls-22{clip-path:url(#clip-path-20);}.cls-23{clip-path:url(#clip-path-21);}.cls-24{clip-path:url(#clip-path-22);}.cls-25{clip-path:url(#clip-path-23);}.cls-26{clip-path:url(#clip-path-24);}.cls-27{clip-path:url(#clip-path-25);}.cls-28{clip-path:url(#clip-path-26);}.cls-29{clip-path:url(#clip-path-27);}.cls-30{clip-path:url(#clip-path-28);}.cls-31{clip-path:url(#clip-path-29);}.cls-32{clip-path:url(#clip-path-30);}.cls-33{clip-path:url(#clip-path-31);}.cls-34{clip-path:url(#clip-path-32);}.cls-35{clip-path:url(#clip-path-33);}.cls-36{clip-path:url(#clip-path-34);}.cls-37{clip-path:url(#clip-path-35);}.cls-38{clip-path:url(#clip-path-36);}.cls-39{clip-path:url(#clip-path-37);}.cls-40{clip-path:url(#clip-path-38);}.cls-41{clip-path:url(#clip-path-39);}.cls-42{clip-path:url(#clip-path-40);}.cls-43{clip-path:url(#clip-path-41);}.cls-44{clip-path:url(#clip-path-42);}.cls-45{clip-path:url(#clip-path-43);}.cls-46{clip-path:url(#clip-path-44);}.cls-47{clip-path:url(#clip-path-45);}.cls-48{clip-path:url(#clip-path-46);}.cls-49{clip-path:url(#clip-path-47);}.cls-50{clip-path:url(#clip-path-48);}.cls-51{clip-path:url(#clip-path-49);}.cls-52{clip-path:url(#clip-path-50);}.cls-53{clip-path:url(#clip-path-51);}.cls-54{clip-path:url(#clip-path-52);}.cls-55{clip-path:url(#clip-path-53);}.cls-56{clip-path:url(#clip-path-54);}.cls-57{clip-path:url(#clip-path-55);}.cls-58{clip-path:url(#clip-path-56);}.cls-59{clip-path:url(#clip-path-57);}.cls-60{clip-path:url(#clip-path-58);}.cls-61{clip-path:url(#clip-path-59);}.cls-62{clip-path:url(#clip-path-60);}.cls-63{clip-path:url(#clip-path-61);}.cls-64{clip-path:url(#clip-path-62);}.cls-65{clip-path:url(#clip-path-63);}.cls-66{clip-path:url(#clip-path-64);}.cls-67{clip-path:url(#clip-path-65);}.cls-68{clip-path:url(#clip-path-66);}.cls-69{clip-path:url(#clip-path-67);}.cls-70{clip-path:url(#clip-path-68);}.cls-71{clip-path:url(#clip-path-69);}.cls-72{clip-path:url(#clip-path-70);}.cls-73{clip-path:url(#clip-path-71);}.cls-74{clip-path:url(#clip-path-72);}.cls-75{clip-path:url(#clip-path-73);}.cls-76{clip-path:url(#clip-path-74);}.cls-77{clip-path:url(#clip-path-75);}.cls-78{clip-path:url(#clip-path-76);}.cls-79{clip-path:url(#clip-path-77);}.cls-80{clip-path:url(#clip-path-78);}.cls-81{clip-path:url(#clip-path-79);}.cls-82{clip-path:url(#clip-path-80);}.cls-83{clip-path:url(#clip-path-81);}.cls-84{clip-path:url(#clip-path-82);}.cls-85{clip-path:url(#clip-path-83);}.cls-86{clip-path:url(#clip-path-84);}.cls-87{clip-path:url(#clip-path-85);}.cls-88{clip-path:url(#clip-path-86);}.cls-89{clip-path:url(#clip-path-87);}.cls-90{clip-path:url(#clip-path-88);}.cls-91{clip-path:url(#clip-path-89);}.cls-92{clip-path:url(#clip-path-90);}.cls-93{clip-path:url(#clip-path-91);}.cls-94{clip-path:url(#clip-path-92);}.cls-95{clip-path:url(#clip-path-93);}.cls-96{clip-path:url(#clip-path-94);}.cls-97{clip-path:url(#clip-path-95);}.cls-98{clip-path:url(#clip-path-96);}.cls-99{clip-path:url(#clip-path-97);}.cls-100{clip-path:url(#clip-path-98);}.cls-101{clip-path:url(#clip-path-99);}.cls-102{clip-path:url(#clip-path-100);}.cls-103{clip-path:url(#clip-path-101);}.cls-104{clip-path:url(#clip-path-102);}.cls-105{clip-path:url(#clip-path-103);}.cls-106{clip-path:url(#clip-path-104);}.cls-107{clip-path:url(#clip-path-105);}.cls-108{clip-path:url(#clip-path-106);}.cls-109{clip-path:url(#clip-path-107);}.cls-110{clip-path:url(#clip-path-108);}.cls-111{clip-path:url(#clip-path-109);}.cls-112{clip-path:url(#clip-path-110);}.cls-113{clip-path:url(#clip-path-111);}.cls-114{clip-path:url(#clip-path-112);}.cls-115{fill:#b2b2b2;}</style><clipPath id="clip-path"><rect class="cls-1" x="-373.25" y="-886.91" width="1024" height="700"/></clipPath><clipPath id="clip-path-2"><path class="cls-2" d="M-126.43-417.1l3.37,0c12.31.85,27.08,12.2,27.08,28.88v13.07h-12v-13.07c0-8.14-6.32-14.87-15.13-15.46h-3.32Z"/></clipPath><clipPath id="clip-path-3"><path class="cls-2" d="M-126.43-402.41h3.29c8.54,0,14,8.35,13.82,14.15v13.06h-9.16v-10.54c-.13-2.65-1.74-4.1-4.68-4.15h-3.27Z"/></clipPath><clipPath id="clip-path-4"><path class="cls-2" d="M-126.43-388.27h3.05c2.39,0,3.42,1.19,3.42,3.82v9.25h-6.47Z"/></clipPath><clipPath id="clip-path-5"><polygon class="cls-2" points="-169.55 -375.54 -169.55 -387.95 -161.02 -387.95 -161.02 -384.82 -165.93 -384.82 -165.93 -382.91 -162.02 -382.91 -162.02 -379.91 -165.93 -379.91 -165.93 -375.54 -169.55 -375.54"/></clipPath><clipPath id="clip-path-6"><path class="cls-2" d="M-141.43-380.35H-138a5.48,5.48,0,0,1-1.57,3.8,5.31,5.31,0,0,1-3.83,1.35,5.46,5.46,0,0,1-4.27-1.71,7,7,0,0,1-1.58-4.82,7,7,0,0,1,1.54-4.79,5.35,5.35,0,0,1,4.2-1.75,5.44,5.44,0,0,1,3.88,1.36,5.23,5.23,0,0,1,1.57,3.71h-3.47a2.16,2.16,0,0,0-.56-1.43,1.81,1.81,0,0,0-1.35-.49,1.78,1.78,0,0,0-1.6.86,5,5,0,0,0-.53,2.58,4.74,4.74,0,0,0,.56,2.56,1.88,1.88,0,0,0,1.67.87,1.73,1.73,0,0,0,1.33-.53,2.43,2.43,0,0,0,.58-1.52Z"/></clipPath><clipPath id="clip-path-7"><polygon class="cls-2" points="-136.47 -375.54 -136.47 -387.95 -127.46 -387.95 -127.46 -384.97 -132.85 -384.97 -132.85 -383.32 -128.29 -383.32 -128.29 -380.48 -132.85 -380.48 -132.85 -378.56 -127.23 -378.56 -127.23 -375.54 -136.47 -375.54"/></clipPath><clipPath id="clip-path-8"><path class="cls-2" d="M-186.52-389.83v-12.59h3.45l3.17,5.86a2.93,2.93,0,0,1,.31.7c.11.3.23.66.35,1.09a2.84,2.84,0,0,0-.07-.74,4.72,4.72,0,0,1,0-1v-5.91h3.46v12.59h-3.48l-3.17-5.81a6,6,0,0,1-.32-.73c-.12-.31-.23-.67-.35-1.08,0,.23.06.46.07.7s0,.58,0,1v5.9Z"/></clipPath><clipPath id="clip-path-9"><polygon class="cls-2" points="-146.4 -389.83 -146.4 -399.1 -149.66 -399.1 -149.66 -402.42 -139.58 -402.42 -139.58 -399.1 -142.77 -399.1 -142.77 -389.83 -146.4 -389.83"/></clipPath><clipPath id="clip-path-10"><polygon class="cls-2" points="-138.33 -389.83 -138.33 -402.42 -134.7 -402.42 -134.7 -398.15 -131.31 -398.15 -131.31 -402.42 -127.68 -402.42 -127.68 -389.83 -131.31 -389.83 -131.31 -394.71 -134.7 -394.71 -134.7 -389.83 -138.33 -389.83"/></clipPath><clipPath id="clip-path-11"><polygon class="cls-2" points="-157.28 -403.73 -157.28 -413.79 -160.53 -413.79 -160.53 -417.39 -150.48 -417.39 -150.48 -413.79 -153.66 -413.79 -153.66 -403.73 -157.28 -403.73"/></clipPath><clipPath id="clip-path-12"><polygon class="cls-2" points="-149.24 -403.73 -149.24 -417.39 -145.61 -417.39 -145.61 -412.75 -142.23 -412.75 -142.23 -417.39 -138.61 -417.39 -138.61 -403.73 -142.23 -403.73 -142.23 -409.03 -145.61 -409.03 -145.61 -403.73 -149.24 -403.73"/></clipPath><clipPath id="clip-path-13"><polygon class="cls-2" points="-136.48 -403.73 -136.48 -417.39 -127.46 -417.39 -127.46 -414.12 -132.85 -414.12 -132.85 -412.3 -128.29 -412.3 -128.29 -409.17 -132.85 -409.17 -132.85 -407.05 -127.23 -407.05 -127.23 -403.73 -136.48 -403.73"/></clipPath><clipPath id="clip-path-14"><path class="cls-2" d="M-156.75-379.75l1.15-4.29,1.13,4.29Zm3-8.16h-3.67l-4,12.41h3.56l.44-1.65h3.59l.42,1.65h3.59Z"/></clipPath><clipPath id="clip-path-15"><path class="cls-2" d="M-166.65-393.48a2.09,2.09,0,0,1-1.67.83,2.12,2.12,0,0,1-1.68-.83,6.65,6.65,0,0,1,0-5.25,2.1,2.1,0,0,1,1.68-.84,2.07,2.07,0,0,1,1.67.84,4.93,4.93,0,0,1,.53,2.64A4.93,4.93,0,0,1-166.65-393.48ZM-164-401a5.45,5.45,0,0,0-4.3-1.77,5.48,5.48,0,0,0-4.3,1.77,7.14,7.14,0,0,0-1.58,4.86,7.11,7.11,0,0,0,1.58,4.85,5.48,5.48,0,0,0,4.3,1.78,5.42,5.42,0,0,0,4.3-1.78,7.07,7.07,0,0,0,1.57-4.85A7.08,7.08,0,0,0-164-401Z"/></clipPath><clipPath id="clip-path-16"><path class="cls-2" d="M-154.35-397.27a2,2,0,0,1-1.2.26h-1.65v-2.36h1.56a2.29,2.29,0,0,1,1.29.26,1.1,1.1,0,0,1,.33.93A1.08,1.08,0,0,1-154.35-397.27Zm3.78,6.18-.07-1.82a3.69,3.69,0,0,0-.46-1.92,2.17,2.17,0,0,0-1.38-.88,3,3,0,0,0,1.38-1.2,3.67,3.67,0,0,0,.44-1.92,3.3,3.3,0,0,0-1.08-2.77,6,6,0,0,0-3.63-.85h-5.42v12.62h3.59v-4.34h1.54a1.51,1.51,0,0,1,1.2.4,2,2,0,0,1,.35,1.37v1.26a4.51,4.51,0,0,0,0,.52,3.86,3.86,0,0,0,.15.79h3.71v-.47C-150.45-390.32-150.56-390.58-150.57-391.09Z"/></clipPath><clipPath id="clip-path-17"><path class="cls-1" d="M39.36-379.23H35.75a2.22,2.22,0,0,0-.52-1.25,2.63,2.63,0,0,0-1.93-.58,3,3,0,0,0-1.85.44,1.19,1.19,0,0,0-.4.92c0,.54.75,1,2.25,1.3,1.7.37,2.92.7,3.67.95l.5.2A3.47,3.47,0,0,1,39.75-374a4.12,4.12,0,0,1-2.21,3.89,4.83,4.83,0,0,1-.56.27,8.28,8.28,0,0,1-3.3.62,9.23,9.23,0,0,1-4.52-1,4.39,4.39,0,0,1-1.62-1.58A4.57,4.57,0,0,1,27-374h3.75a1.83,1.83,0,0,0,.69,1.49,3.89,3.89,0,0,0,2.33.54,2.86,2.86,0,0,0,1.86-.51,1.17,1.17,0,0,0,.47-.92c0-.58-.74-1-2.21-1.36a24.87,24.87,0,0,1-4.14-1.13,3.45,3.45,0,0,1-2.25-3.3,4.36,4.36,0,0,1,1.18-3.07,5.77,5.77,0,0,1,4.43-1.57,9.38,9.38,0,0,1,3.89.69,1.71,1.71,0,0,1,.23.13,3.88,3.88,0,0,1,1.59,1.52A4.52,4.52,0,0,1,39.36-379.23Z"/></clipPath><clipPath id="clip-path-18"><path class="cls-1" d="M37.75-388.35a.59.59,0,0,1-.08.78.65.65,0,0,1-.48.21.67.67,0,0,1,.2.12l.34.46.27.46h-.44l-.21-.37a1.74,1.74,0,0,0-.35-.5l-.3-.09h-.22v1h-.37v-2.36H37a1.63,1.63,0,0,1,.45.06A.58.58,0,0,1,37.75-388.35Zm-.3.38a.21.21,0,0,0,0-.19.25.25,0,0,0-.16-.12,1,1,0,0,0-.24,0h-.56v.69h.56a.49.49,0,0,0,.34-.1A.29.29,0,0,0,37.45-388Z"/></clipPath><clipPath id="clip-path-19"><path class="cls-1" d="M39.15-387.51a2,2,0,0,1-.28,1.07,1.94,1.94,0,0,1-.79.79,2.15,2.15,0,0,1-1.06.28,2.21,2.21,0,0,1-1.06-.28,2.07,2.07,0,0,1-.79-.79,2.37,2.37,0,0,1-.28-1.07,2.26,2.26,0,0,1,.28-1.08,1.93,1.93,0,0,1,.81-.79,2.36,2.36,0,0,1,1-.29,2,2,0,0,1,1,.29,1.85,1.85,0,0,1,.8.79A2,2,0,0,1,39.15-387.51Zm-.35,0a1.76,1.76,0,0,0-.24-.9,1.58,1.58,0,0,0-.67-.66,1.86,1.86,0,0,0-.87-.24,1.93,1.93,0,0,0-.87.24,1.7,1.7,0,0,0-.67.66,1.86,1.86,0,0,0-.24.9,1.85,1.85,0,0,0,.24.89,1.74,1.74,0,0,0,.66.66,1.83,1.83,0,0,0,.88.23,1.82,1.82,0,0,0,.89-.23,1.72,1.72,0,0,0,.65-.66A1.75,1.75,0,0,0,38.8-387.51Z"/></clipPath><clipPath id="clip-path-20"><polygon class="cls-1" points="18.15 -404.95 28.29 -388.06 18.15 -388.06 12.01 -388.06 2.33 -404.19 -5 -416.4 2.33 -420.81 6.95 -423.59 18.15 -404.95"/></clipPath><clipPath id="clip-path-21"><path class="cls-1" d="M22.14-375.57v-1.53a4,4,0,0,0-4-3.26,4,4,0,0,0-4,4,4,4,0,0,0,4,4A4,4,0,0,0,22.14-375.57Zm3.37-.76v6.92H22.14v-.76a7.25,7.25,0,0,1-4,1.17,7.34,7.34,0,0,1-7.06-7.34,7.33,7.33,0,0,1,7.06-7.33,7.18,7.18,0,0,1,4,1.18v-.81h3.37Z"/></clipPath><clipPath id="clip-path-22"><path class="cls-1" d="M6.32-375.57v-1.53a4,4,0,0,0-3.95-3.26,4,4,0,0,0-4,4,4,4,0,0,0,4,4A4,4,0,0,0,6.32-375.57Zm3.37-.76v6.92H6.32v-.76A7.25,7.25,0,0,1,2.37-369a7.34,7.34,0,0,1-7.06-7.34,7.33,7.33,0,0,1,7.06-7.33,7.18,7.18,0,0,1,4,1.18v-5.57H9.69Z"/></clipPath><clipPath id="clip-path-23"><polygon class="cls-1" points="2.33 -394.7 6.3 -388.06 2.33 -388.06 -9.97 -388.06 -19 -403.1 -19.4 -403.75 -19 -403.99 -7.44 -410.95 2.33 -394.7"/></clipPath><clipPath id="clip-path-24"><rect class="cls-1" x="-9.95" y="-383.67" width="3.67" height="14.26"/></clipPath><clipPath id="clip-path-25"><rect class="cls-1" x="-9.95" y="-387.99" width="3.67" height="3.22"/></clipPath><clipPath id="clip-path-26"><path class="cls-1" d="M-15-375.57v-1.53a4,4,0,0,0-4-3.26,4,4,0,0,0-4,4,4,4,0,0,0,4,4A4,4,0,0,0-15-375.57Zm3.37-.76v6.92H-15v-.76A7.27,7.27,0,0,1-19-369a7.34,7.34,0,0,1-7.06-7.34A7.33,7.33,0,0,1-19-383.67a7.2,7.2,0,0,1,4,1.18v-5.57h3.37Z"/></clipPath><clipPath id="clip-path-27"><polygon class="cls-1" points="-19 -393.62 -15.67 -388.06 -19 -388.06 -31.95 -388.06 -33.78 -391.11 -21.82 -398.29 -19 -393.62"/></clipPath><clipPath id="clip-path-28"><path class="cls-1" d="M-31-375.57v-1.53a4,4,0,0,0-4-3.26,4,4,0,0,0-4,4,4,4,0,0,0,4,4A4,4,0,0,0-31-375.57Zm3.37-.76v6.92H-31v-.76A7.27,7.27,0,0,1-35-369,7.34,7.34,0,0,1-42-376.34,7.33,7.33,0,0,1-35-383.67a7.2,7.2,0,0,1,4,1.18v-.81h3.37Z"/></clipPath><clipPath id="clip-path-29"><path class="cls-1" d="M135.73-408.22h-4.66l4.83,12.64h5.26l4.93-12.64h-4.54L138.61-400Zm-13.47,5c0-1.89.39-2.94,2.22-2.94s2.27.83,2.27,2.94Zm2.39,5.65c-1.94,0-2.39-.83-2.39-3.16H131c0-5.6-1.33-7.93-6.31-7.93-5.43,0-6.9,1.89-6.9,6.75s2,7,6.6,7,6.21-1.66,6.32-4.26h-3.92C126.75-398.07,126.31-397.57,124.65-397.57ZM113-408.27h-4.26v12.64h8.53v-3H113Zm33.64,22.56v-31.2m0,31.2a33.49,33.49,0,0,0-7.76,2.8A38.77,38.77,0,0,0,123-386.4a40.28,40.28,0,0,0-17.35,4l-7-34.51h47.93"/></clipPath><clipPath id="clip-path-30"><path class="cls-1" d="M164.44-380.57c0-.16-.23-.28-.78-.28v.61c.39,0,.78,0,.78-.32Zm-1.28,1.66v-2.42h.67c.66,0,1.16.16,1.16.77,0,.28-.17.5-.55.72l.44.94h-.44l-.39-.72h-.39v.71Zm2.88-1.21a2,2,0,0,0-2-2.05,2.05,2.05,0,0,0-2.05,2.05,2.09,2.09,0,0,0,2,2,2,2,0,0,0,1.48-.55A2,2,0,0,0,166-380.12Zm-2-2.43a2.44,2.44,0,0,1,2.25,1.17,2.45,2.45,0,0,1,0,2.53,2.44,2.44,0,0,1-2.25,1.17,2.45,2.45,0,0,1-1.73-.71,2.44,2.44,0,0,1-.71-1.73A2.45,2.45,0,0,1,164-382.55Zm-3.43-17.07h-4.49c.05,3,1.66,4.26,6.54,4.26,4.54,0,6.37-1,6.37-4.15,0-5-8.42-2.5-8.42-5.49,0-.72.83-1.33,1.94-1.33a1.73,1.73,0,0,1,1.88,1.55h4.27c-.06-2.66-1.61-3.88-5.88-3.88-4.43,0-6.48,1.22-6.48,4,0,5.49,8.42,2.55,8.42,5.66,0,.94-.5,1.38-1.71,1.38C161.55-397.63,160.67-398.18,160.56-399.62Zm-5.93-7.87-.22,1.27c1.33-.83,1.88-1.55,1.88-2.49a1.56,1.56,0,0,0-.5-1.22,1.6,1.6,0,0,0-1.27-.39,1.47,1.47,0,0,0-1.19.36,1.56,1.56,0,0,0-.53,1.14C152.8-407.66,153.57-407.49,154.63-407.49Zm-7.32-.83v12.69h4.16v-12.69Zm-.77-8.59h32.3l-7.59,34.52c-5-2.88-9.53-4.1-16.12-4.1a45.08,45.08,0,0,0-8.59.78"/></clipPath><clipPath id="clip-path-31"><path class="cls-2" d="M-126.43-557.1l3.37,0c12.31.85,27.08,12.2,27.08,28.88v13.07h-12v-13.07c0-8.14-6.32-14.87-15.13-15.46h-3.32Z"/></clipPath><clipPath id="clip-path-32"><path class="cls-2" d="M-126.43-542.41h3.29c8.54,0,14,8.35,13.82,14.15v13.06h-9.16v-10.54c-.13-2.65-1.74-4.1-4.68-4.15h-3.27Z"/></clipPath><clipPath id="clip-path-33"><path class="cls-2" d="M-126.43-528.27h3.05c2.39,0,3.42,1.19,3.42,3.82v9.25h-6.47Z"/></clipPath><clipPath id="clip-path-34"><polygon class="cls-2" points="-169.55 -515.54 -169.55 -527.95 -161.02 -527.95 -161.02 -524.82 -165.93 -524.82 -165.93 -522.91 -162.02 -522.91 -162.02 -519.91 -165.93 -519.91 -165.93 -515.54 -169.55 -515.54"/></clipPath><clipPath id="clip-path-35"><path class="cls-2" d="M-141.43-520.35H-138a5.48,5.48,0,0,1-1.57,3.8,5.31,5.31,0,0,1-3.83,1.35,5.46,5.46,0,0,1-4.27-1.71,7,7,0,0,1-1.58-4.82,7,7,0,0,1,1.54-4.79,5.35,5.35,0,0,1,4.2-1.75,5.44,5.44,0,0,1,3.88,1.36,5.23,5.23,0,0,1,1.57,3.71h-3.47a2.16,2.16,0,0,0-.56-1.43,1.81,1.81,0,0,0-1.35-.49,1.78,1.78,0,0,0-1.6.86,5,5,0,0,0-.53,2.58,4.74,4.74,0,0,0,.56,2.56,1.88,1.88,0,0,0,1.67.87,1.73,1.73,0,0,0,1.33-.53,2.43,2.43,0,0,0,.58-1.52Z"/></clipPath><clipPath id="clip-path-36"><polygon class="cls-2" points="-136.47 -515.54 -136.47 -527.95 -127.46 -527.95 -127.46 -524.97 -132.85 -524.97 -132.85 -523.32 -128.29 -523.32 -128.29 -520.48 -132.85 -520.48 -132.85 -518.56 -127.23 -518.56 -127.23 -515.54 -136.47 -515.54"/></clipPath><clipPath id="clip-path-37"><path class="cls-2" d="M-186.52-529.83v-12.59h3.45l3.17,5.86a2.93,2.93,0,0,1,.31.7c.11.3.23.66.35,1.09a2.84,2.84,0,0,0-.07-.74,4.72,4.72,0,0,1,0-1v-5.91h3.46v12.59h-3.48l-3.17-5.81a6,6,0,0,1-.32-.73c-.12-.31-.23-.67-.35-1.08,0,.23.06.46.07.7s0,.58,0,1v5.9Z"/></clipPath><clipPath id="clip-path-38"><polygon class="cls-2" points="-146.4 -529.83 -146.4 -539.1 -149.66 -539.1 -149.66 -542.42 -139.58 -542.42 -139.58 -539.1 -142.77 -539.1 -142.77 -529.83 -146.4 -529.83"/></clipPath><clipPath id="clip-path-39"><polygon class="cls-2" points="-138.33 -529.83 -138.33 -542.42 -134.7 -542.42 -134.7 -538.15 -131.31 -538.15 -131.31 -542.42 -127.68 -542.42 -127.68 -529.83 -131.31 -529.83 -131.31 -534.71 -134.7 -534.71 -134.7 -529.83 -138.33 -529.83"/></clipPath><clipPath id="clip-path-40"><polygon class="cls-2" points="-157.28 -543.73 -157.28 -553.79 -160.53 -553.79 -160.53 -557.39 -150.48 -557.39 -150.48 -553.79 -153.66 -553.79 -153.66 -543.73 -157.28 -543.73"/></clipPath><clipPath id="clip-path-41"><polygon class="cls-2" points="-149.24 -543.73 -149.24 -557.39 -145.61 -557.39 -145.61 -552.75 -142.23 -552.75 -142.23 -557.39 -138.61 -557.39 -138.61 -543.73 -142.23 -543.73 -142.23 -549.03 -145.61 -549.03 -145.61 -543.73 -149.24 -543.73"/></clipPath><clipPath id="clip-path-42"><polygon class="cls-2" points="-136.48 -543.73 -136.48 -557.39 -127.46 -557.39 -127.46 -554.12 -132.85 -554.12 -132.85 -552.3 -128.29 -552.3 -128.29 -549.17 -132.85 -549.17 -132.85 -547.05 -127.23 -547.05 -127.23 -543.73 -136.48 -543.73"/></clipPath><clipPath id="clip-path-43"><path class="cls-2" d="M-156.75-519.75l1.15-4.29,1.13,4.29Zm3-8.16h-3.67l-4,12.41h3.56l.44-1.65h3.59l.42,1.65h3.59Z"/></clipPath><clipPath id="clip-path-44"><path class="cls-2" d="M-166.65-533.48a2.09,2.09,0,0,1-1.67.83,2.12,2.12,0,0,1-1.68-.83,6.65,6.65,0,0,1,0-5.25,2.1,2.1,0,0,1,1.68-.84,2.07,2.07,0,0,1,1.67.84,4.93,4.93,0,0,1,.53,2.64A4.93,4.93,0,0,1-166.65-533.48ZM-164-541a5.45,5.45,0,0,0-4.3-1.77,5.48,5.48,0,0,0-4.3,1.77,7.14,7.14,0,0,0-1.58,4.86,7.11,7.11,0,0,0,1.58,4.85,5.48,5.48,0,0,0,4.3,1.78,5.42,5.42,0,0,0,4.3-1.78,7.07,7.07,0,0,0,1.57-4.85A7.08,7.08,0,0,0-164-541Z"/></clipPath><clipPath id="clip-path-45"><path class="cls-2" d="M-154.35-537.27a2,2,0,0,1-1.2.26h-1.65v-2.36h1.56a2.29,2.29,0,0,1,1.29.26,1.1,1.1,0,0,1,.33.93A1.08,1.08,0,0,1-154.35-537.27Zm3.78,6.18-.07-1.82a3.69,3.69,0,0,0-.46-1.92,2.17,2.17,0,0,0-1.38-.88,3,3,0,0,0,1.38-1.2,3.67,3.67,0,0,0,.44-1.92,3.3,3.3,0,0,0-1.08-2.77,6,6,0,0,0-3.63-.85h-5.42v12.62h3.59v-4.34h1.54a1.51,1.51,0,0,1,1.2.4,2,2,0,0,1,.35,1.37v1.26a4.51,4.51,0,0,0,0,.52,3.86,3.86,0,0,0,.15.79h3.71v-.47C-150.45-530.32-150.56-530.58-150.57-531.09Z"/></clipPath><clipPath id="clip-path-46"><path class="cls-1" d="M39.36-519.23H35.75a2.22,2.22,0,0,0-.52-1.25,2.63,2.63,0,0,0-1.93-.58,3,3,0,0,0-1.85.44,1.19,1.19,0,0,0-.4.92c0,.54.75,1,2.25,1.3,1.7.37,2.92.7,3.67.95l.5.2A3.47,3.47,0,0,1,39.75-514a4.12,4.12,0,0,1-2.21,3.89,4.83,4.83,0,0,1-.56.27,8.28,8.28,0,0,1-3.3.62,9.23,9.23,0,0,1-4.52-1,4.39,4.39,0,0,1-1.62-1.58A4.57,4.57,0,0,1,27-514h3.75a1.83,1.83,0,0,0,.69,1.49,3.89,3.89,0,0,0,2.33.54,2.86,2.86,0,0,0,1.86-.51,1.17,1.17,0,0,0,.47-.92c0-.58-.74-1-2.21-1.36a24.87,24.87,0,0,1-4.14-1.13,3.45,3.45,0,0,1-2.25-3.3,4.36,4.36,0,0,1,1.18-3.07,5.77,5.77,0,0,1,4.43-1.57,9.38,9.38,0,0,1,3.89.69,1.71,1.71,0,0,1,.23.13,3.88,3.88,0,0,1,1.59,1.52A4.52,4.52,0,0,1,39.36-519.23Z"/></clipPath><clipPath id="clip-path-47"><path class="cls-1" d="M37.75-528.35a.59.59,0,0,1-.08.78.65.65,0,0,1-.48.21.67.67,0,0,1,.2.12l.34.46.27.46h-.44l-.21-.37a1.74,1.74,0,0,0-.35-.5l-.3-.09h-.22v1h-.37v-2.36H37a1.63,1.63,0,0,1,.45.06A.58.58,0,0,1,37.75-528.35Zm-.3.38a.21.21,0,0,0,0-.19.25.25,0,0,0-.16-.12h-.8v.69h.56a.49.49,0,0,0,.34-.1A.29.29,0,0,0,37.45-528Z"/></clipPath><clipPath id="clip-path-48"><path class="cls-1" d="M39.15-527.51a2,2,0,0,1-.28,1.07,1.94,1.94,0,0,1-.79.79,2.15,2.15,0,0,1-1.06.28,2.21,2.21,0,0,1-1.06-.28,2.07,2.07,0,0,1-.79-.79,2.37,2.37,0,0,1-.28-1.07,2.26,2.26,0,0,1,.28-1.08,1.93,1.93,0,0,1,.81-.79,2.36,2.36,0,0,1,1-.29,2,2,0,0,1,1,.29,1.85,1.85,0,0,1,.8.79A2,2,0,0,1,39.15-527.51Zm-.35,0a1.76,1.76,0,0,0-.24-.9,1.58,1.58,0,0,0-.67-.66,1.86,1.86,0,0,0-.87-.24,1.93,1.93,0,0,0-.87.24,1.7,1.7,0,0,0-.67.66,1.86,1.86,0,0,0-.24.9,1.85,1.85,0,0,0,.24.89,1.74,1.74,0,0,0,.66.66,1.83,1.83,0,0,0,.88.23,1.82,1.82,0,0,0,.89-.23,1.72,1.72,0,0,0,.65-.66A1.75,1.75,0,0,0,38.8-527.51Z"/></clipPath><clipPath id="clip-path-49"><polygon class="cls-1" points="18.15 -544.95 28.29 -528.06 18.15 -528.06 12.01 -528.06 2.33 -544.19 -5 -556.4 2.33 -560.81 6.95 -563.59 18.15 -544.95"/></clipPath><clipPath id="clip-path-50"><path class="cls-1" d="M22.14-515.57v-1.53a4,4,0,0,0-4-3.26,4,4,0,0,0-4,4,4,4,0,0,0,4,4A4,4,0,0,0,22.14-515.57Zm3.37-.76v6.92H22.14v-.76a7.25,7.25,0,0,1-4,1.17,7.34,7.34,0,0,1-7.06-7.34,7.33,7.33,0,0,1,7.06-7.33,7.18,7.18,0,0,1,4,1.18v-.81h3.37Z"/></clipPath><clipPath id="clip-path-51"><path class="cls-1" d="M6.32-515.57v-1.53a4,4,0,0,0-3.95-3.26,4,4,0,0,0-4,4,4,4,0,0,0,4,4A4,4,0,0,0,6.32-515.57Zm3.37-.76v6.92H6.32v-.76A7.25,7.25,0,0,1,2.37-509a7.34,7.34,0,0,1-7.06-7.34,7.33,7.33,0,0,1,7.06-7.33,7.18,7.18,0,0,1,4,1.18v-5.57H9.69Z"/></clipPath><clipPath id="clip-path-52"><polygon class="cls-1" points="2.33 -534.7 6.3 -528.06 2.33 -528.06 -9.97 -528.06 -19 -543.1 -19.4 -543.75 -19 -543.99 -7.44 -550.95 2.33 -534.7"/></clipPath><clipPath id="clip-path-53"><rect class="cls-1" x="-9.95" y="-523.67" width="3.67" height="14.26"/></clipPath><clipPath id="clip-path-54"><rect class="cls-1" x="-9.95" y="-527.99" width="3.67" height="3.22"/></clipPath><clipPath id="clip-path-55"><path class="cls-1" d="M-15-515.57v-1.53a4,4,0,0,0-4-3.26,4,4,0,0,0-4,4,4,4,0,0,0,4,4A4,4,0,0,0-15-515.57Zm3.37-.76v6.92H-15v-.76A7.27,7.27,0,0,1-19-509a7.34,7.34,0,0,1-7.06-7.34A7.33,7.33,0,0,1-19-523.67a7.2,7.2,0,0,1,4,1.18v-5.57h3.37Z"/></clipPath><clipPath id="clip-path-56"><polygon class="cls-1" points="-19 -533.62 -15.67 -528.06 -19 -528.06 -31.95 -528.06 -33.78 -531.11 -21.82 -538.29 -19 -533.62"/></clipPath><clipPath id="clip-path-57"><path class="cls-1" d="M-31-515.57v-1.53a4,4,0,0,0-4-3.26,4,4,0,0,0-4,4,4,4,0,0,0,4,4A4,4,0,0,0-31-515.57Zm3.37-.76v6.92H-31v-.76A7.27,7.27,0,0,1-35-509,7.34,7.34,0,0,1-42-516.34,7.33,7.33,0,0,1-35-523.67a7.2,7.2,0,0,1,4,1.18v-.81h3.37Z"/></clipPath><clipPath id="clip-path-58"><path class="cls-1" d="M135.73-548.22h-4.66l4.83,12.64h5.26l4.93-12.64h-4.54L138.61-540Zm-13.47,5c0-1.89.39-2.94,2.22-2.94s2.27.83,2.27,2.94Zm2.39,5.65c-1.94,0-2.39-.83-2.39-3.16H131c0-5.6-1.33-7.93-6.31-7.93-5.43,0-6.9,1.89-6.9,6.75s2,7,6.6,7,6.21-1.66,6.32-4.26h-3.92C126.75-538.07,126.31-537.57,124.65-537.57ZM113-548.27h-4.26v12.64h8.53v-3H113Zm33.64,22.56v-31.2m0,31.2a33.49,33.49,0,0,0-7.76,2.8A38.77,38.77,0,0,0,123-526.4a40.28,40.28,0,0,0-17.35,4l-7-34.51h47.93"/></clipPath><clipPath id="clip-path-59"><path class="cls-1" d="M164.44-520.57c0-.16-.23-.28-.78-.28v.61c.39,0,.78,0,.78-.32Zm-1.28,1.66v-2.42h.67c.66,0,1.16.16,1.16.77,0,.28-.17.5-.55.72l.44.94h-.44l-.39-.72h-.39v.71Zm2.88-1.21a2,2,0,0,0-2-2,2.05,2.05,0,0,0-2.05,2,2.09,2.09,0,0,0,2,2,2,2,0,0,0,1.48-.55A2,2,0,0,0,166-520.12Zm-2-2.43a2.44,2.44,0,0,1,2.25,1.17,2.45,2.45,0,0,1,0,2.53,2.44,2.44,0,0,1-2.25,1.17,2.45,2.45,0,0,1-1.73-.71,2.44,2.44,0,0,1-.71-1.73A2.45,2.45,0,0,1,164-522.55Zm-3.43-17.07h-4.49c.05,3,1.66,4.26,6.54,4.26,4.54,0,6.37-1,6.37-4.15,0-5-8.42-2.5-8.42-5.49,0-.72.83-1.33,1.94-1.33a1.73,1.73,0,0,1,1.88,1.55h4.27c-.06-2.66-1.61-3.88-5.88-3.88-4.43,0-6.48,1.22-6.48,4,0,5.49,8.42,2.55,8.42,5.66,0,.94-.5,1.38-1.71,1.38C161.55-537.63,160.67-538.18,160.56-539.62Zm-5.93-7.87-.22,1.27c1.33-.83,1.88-1.55,1.88-2.49a1.56,1.56,0,0,0-.5-1.22,1.6,1.6,0,0,0-1.27-.39,1.47,1.47,0,0,0-1.19.36,1.56,1.56,0,0,0-.53,1.14C152.8-547.66,153.57-547.49,154.63-547.49Zm-7.32-.83v12.69h4.16v-12.69Zm-.77-8.59h32.3l-7.59,34.52c-5-2.88-9.53-4.1-16.12-4.1a45.08,45.08,0,0,0-8.59.78"/></clipPath><clipPath id="clip-path-60"><rect class="cls-1" x="262.98" y="-531.65" width="5.64" height="6.9"/></clipPath><clipPath id="clip-path-61"><path class="cls-1" d="M271-522.32H260.56v-11.76h10.52Zm-18.21,0h-9.25l.51-2.49H251l1.43-6.74h-4.44l-.93,4.39h-2.43L246-534h9.29Zm-8.08-18.59h5.7v-6.91H246v-2.41h6.84v9.32h2.39v2.44H244.75Zm15.86,0h10.45v2.43H260.61Zm1.14-9.36h8.06v2.43h-8.06Zm-23-5.26v38.47h38.39v-38.47Z"/></clipPath><clipPath id="clip-path-62"><path class="cls-1" d="M309.82-532a1.61,1.61,0,0,0-1.6,1.61v4a1.63,1.63,0,0,0,.77,1.5,1.63,1.63,0,0,0,1.68,0,1.6,1.6,0,0,0,.76-1.5v-4A1.61,1.61,0,0,0,309.82-532Z"/></clipPath><clipPath id="clip-path-63"><path class="cls-1" d="M289.21-532a1.57,1.57,0,0,0-1.12.47,1.63,1.63,0,0,0-.47,1.14v4a1.59,1.59,0,0,0,1.59,1.59,1.59,1.59,0,0,0,1.59-1.59v-4A1.6,1.6,0,0,0,289.21-532Z"/></clipPath><clipPath id="clip-path-64"><path class="cls-1" d="M313.92-526.42a4.09,4.09,0,0,1-4.09,4.09,4.09,4.09,0,0,1-4.09-4.09v-4a4.09,4.09,0,0,1,4.09-4.09,4.09,4.09,0,0,1,4.09,4.09Zm-9.37-11.7h-2.38l-3.25-6.79v6.82h-2.46v-12.14h2.46l3.25,6.88v-6.88h2.39Zm0,15.75h-8.09v-12.14h2.42v9.76h5.67Zm-13.72,2.46-.83-2.5a4,4,0,0,1-.78.08,4.1,4.1,0,0,1-4-4.09v-4a4.06,4.06,0,0,1,2-3.51,4.07,4.07,0,0,1,4.05,0,4,4,0,0,1,2,3.51v4a4,4,0,0,1-1.19,2.89l1.19,3.62Zm-5.64-30.36h2.45v8.09a1.59,1.59,0,0,0,1.59,1.59,1.59,1.59,0,0,0,1.59-1.59v-8.05h2.46v8.13a4,4,0,0,1-4,4h-.14a4,4,0,0,1-4-4Zm23.42,0H311v12.15h-2.42Zm-28.25-5.26v38.47h38.39v-38.47Z"/></clipPath><clipPath id="clip-path-65"><path class="cls-1" d="M393.87-531.16a.73.73,0,0,1-.52-.21.7.7,0,0,1-.22-.51.74.74,0,0,1,.74-.74.74.74,0,0,1,.74.74.69.69,0,0,1-.21.51A.74.74,0,0,1,393.87-531.16Zm0-1.75a1,1,0,0,0-.94,1,1,1,0,0,0,1,1,1,1,0,0,0,1-1,1,1,0,0,0-.31-.73A1,1,0,0,0,393.87-532.91Z"/></clipPath><clipPath id="clip-path-66"><polygon class="cls-1" points="404.2 -536.49 399.03 -536.49 399.62 -545.47 396.27 -536.49 391.47 -536.49 399.08 -556.78 404.18 -556.78 403.59 -547.68 407.01 -556.78 411.81 -556.78 404.2 -536.49"/></clipPath><clipPath id="clip-path-67"><polygon class="cls-1" points="404.82 -536.49 412.43 -556.78 417.23 -556.78 409.62 -536.49 404.82 -536.49"/></clipPath><clipPath id="clip-path-68"><path class="cls-1" d="M390.92-543.49c-6.71,7.88-13,18.35-7.45,23.17s12.18,1.91,16.79.07,55.6-24,55.6-24c.49-.24.4-.55-.22-.4l-55.5,15C393.13-527.63,385.13-531.91,390.92-543.49Z"/></clipPath><clipPath id="clip-path-69"><path class="cls-1" d="M393.88-532h-.13v-.26h.13c.08,0,.18,0,.18.12S394-532,393.88-532Zm.17.18a.32.32,0,0,0,.21-.08.27.27,0,0,0,.06-.21c0-.27-.17-.34-.46-.34h-.42v1.11h.31v-.47l.26.47h.32Z"/></clipPath><clipPath id="clip-path-70"><path class="cls-1" d="M442.09-555.09a.74.74,0,0,1-.72-.74.74.74,0,0,1,.74-.72.73.73,0,0,1,.72.73.69.69,0,0,1-.21.52A.74.74,0,0,1,442.09-555.09Zm0-1.76a1,1,0,0,0-.93,1,1,1,0,0,0,1,1,1,1,0,0,0,1-1,1,1,0,0,0-.31-.73A1,1,0,0,0,442.09-556.85Z"/></clipPath><clipPath id="clip-path-71"><path class="cls-1" d="M442.1-555.91h-.16v-.25h.13c.08,0,.18,0,.18.11S442.19-555.91,442.1-555.91Zm.17.16a.32.32,0,0,0,.21-.08.27.27,0,0,0,.06-.21c0-.27-.17-.33-.46-.33h-.42v1.1h.28v-.47l.26.47h.32Z"/></clipPath><clipPath id="clip-path-72"><path class="cls-1" d="M423.47-537.84l-.31-10.58,7.26-8Zm15.46-15.56,1.29-3.38H425.59l-5,6.08,2.32-6.08H418l-7.55,20.29h4.8l3.22-8.49.26,8.49h14.72l1.4-3.91h-5.63l1.83-4.92h4.62l1.42-3.78h-4.62l1.58-4.27Z"/></clipPath><clipPath id="clip-path-73"><path class="cls-2" d="M-126.43-697.1l3.37,0c12.31.85,27.08,12.2,27.08,28.88v13.07h-12v-13.07c0-8.14-6.32-14.87-15.13-15.46h-3.32Z"/></clipPath><clipPath id="clip-path-74"><path class="cls-2" d="M-126.43-682.41h3.29c8.54,0,14,8.35,13.82,14.15v13.06h-9.16v-10.54c-.13-2.65-1.74-4.1-4.68-4.15h-3.27Z"/></clipPath><clipPath id="clip-path-75"><polygon class="cls-2" points="-169.55 -655.54 -169.55 -667.95 -161.02 -667.95 -161.02 -664.82 -165.93 -664.82 -165.93 -662.91 -162.02 -662.91 -162.02 -659.91 -165.93 -659.91 -165.93 -655.54 -169.55 -655.54"/></clipPath><clipPath id="clip-path-76"><path class="cls-2" d="M-141.43-660.35H-138a5.48,5.48,0,0,1-1.57,3.8,5.31,5.31,0,0,1-3.83,1.35,5.46,5.46,0,0,1-4.27-1.71,7,7,0,0,1-1.58-4.82,7,7,0,0,1,1.54-4.79,5.35,5.35,0,0,1,4.2-1.75,5.44,5.44,0,0,1,3.88,1.36,5.23,5.23,0,0,1,1.57,3.71h-3.47a2.16,2.16,0,0,0-.56-1.43,1.81,1.81,0,0,0-1.35-.49,1.78,1.78,0,0,0-1.6.86,5,5,0,0,0-.53,2.58,4.74,4.74,0,0,0,.56,2.56,1.88,1.88,0,0,0,1.67.87,1.73,1.73,0,0,0,1.33-.53,2.43,2.43,0,0,0,.58-1.52Z"/></clipPath><clipPath id="clip-path-77"><polygon class="cls-2" points="-136.47 -655.54 -136.47 -667.95 -127.46 -667.95 -127.46 -664.97 -132.85 -664.97 -132.85 -663.32 -128.29 -663.32 -128.29 -660.48 -132.85 -660.48 -132.85 -658.56 -127.23 -658.56 -127.23 -655.54 -136.47 -655.54"/></clipPath><clipPath id="clip-path-78"><path class="cls-2" d="M-186.52-669.83v-12.59h3.45l3.17,5.86a2.93,2.93,0,0,1,.31.7c.11.3.23.66.35,1.09a2.84,2.84,0,0,0-.07-.74,4.72,4.72,0,0,1,0-1v-5.91h3.46v12.59h-3.48l-3.17-5.81a6,6,0,0,1-.32-.73c-.12-.31-.23-.67-.35-1.08,0,.23.06.46.07.7s0,.58,0,1v5.9Z"/></clipPath><clipPath id="clip-path-79"><polygon class="cls-2" points="-146.4 -669.83 -146.4 -679.1 -149.66 -679.1 -149.66 -682.42 -139.58 -682.42 -139.58 -679.1 -142.77 -679.1 -142.77 -669.83 -146.4 -669.83"/></clipPath><clipPath id="clip-path-80"><polygon class="cls-2" points="-138.33 -669.83 -138.33 -682.42 -134.7 -682.42 -134.7 -678.15 -131.31 -678.15 -131.31 -682.42 -127.68 -682.42 -127.68 -669.83 -131.31 -669.83 -131.31 -674.71 -134.7 -674.71 -134.7 -669.83 -138.33 -669.83"/></clipPath><clipPath id="clip-path-81"><polygon class="cls-2" points="-157.28 -683.73 -157.28 -693.79 -160.53 -693.79 -160.53 -697.39 -150.48 -697.39 -150.48 -693.79 -153.66 -693.79 -153.66 -683.73 -157.28 -683.73"/></clipPath><clipPath id="clip-path-82"><polygon class="cls-2" points="-149.24 -683.73 -149.24 -697.39 -145.61 -697.39 -145.61 -692.75 -142.23 -692.75 -142.23 -697.39 -138.61 -697.39 -138.61 -683.73 -142.23 -683.73 -142.23 -689.03 -145.61 -689.03 -145.61 -683.73 -149.24 -683.73"/></clipPath><clipPath id="clip-path-83"><polygon class="cls-2" points="-136.48 -683.73 -136.48 -697.39 -127.46 -697.39 -127.46 -694.12 -132.85 -694.12 -132.85 -692.3 -128.29 -692.3 -128.29 -689.17 -132.85 -689.17 -132.85 -687.05 -127.23 -687.05 -127.23 -683.73 -136.48 -683.73"/></clipPath><clipPath id="clip-path-84"><path class="cls-2" d="M-156.75-659.75l1.15-4.29,1.13,4.29Zm3-8.16h-3.67l-4,12.41h3.56l.44-1.65h3.59l.42,1.65h3.59Z"/></clipPath><clipPath id="clip-path-85"><path class="cls-2" d="M-166.65-673.48a2.09,2.09,0,0,1-1.67.83,2.12,2.12,0,0,1-1.68-.83,6.65,6.65,0,0,1,0-5.25,2.1,2.1,0,0,1,1.68-.84,2.07,2.07,0,0,1,1.67.84,4.93,4.93,0,0,1,.53,2.64A4.93,4.93,0,0,1-166.65-673.48ZM-164-681a5.45,5.45,0,0,0-4.3-1.77,5.48,5.48,0,0,0-4.3,1.77,7.14,7.14,0,0,0-1.58,4.86,7.11,7.11,0,0,0,1.58,4.85,5.48,5.48,0,0,0,4.3,1.78,5.42,5.42,0,0,0,4.3-1.78,7.07,7.07,0,0,0,1.57-4.85A7.08,7.08,0,0,0-164-681Z"/></clipPath><clipPath id="clip-path-86"><path class="cls-1" d="M39.36-659.23H35.75a2.22,2.22,0,0,0-.52-1.25,2.63,2.63,0,0,0-1.93-.58,3,3,0,0,0-1.85.44,1.19,1.19,0,0,0-.4.92c0,.54.75,1,2.25,1.3,1.7.37,2.92.7,3.67.95l.5.2A3.47,3.47,0,0,1,39.75-654a4.12,4.12,0,0,1-2.21,3.89,4.83,4.83,0,0,1-.56.27,8.28,8.28,0,0,1-3.3.62,9.23,9.23,0,0,1-4.52-1,4.39,4.39,0,0,1-1.62-1.58A4.57,4.57,0,0,1,27-654h3.75a1.83,1.83,0,0,0,.69,1.49,3.89,3.89,0,0,0,2.33.54,2.86,2.86,0,0,0,1.86-.51,1.17,1.17,0,0,0,.47-.92c0-.58-.74-1-2.21-1.36a24.87,24.87,0,0,1-4.14-1.13,3.45,3.45,0,0,1-2.25-3.3,4.36,4.36,0,0,1,1.18-3.07,5.77,5.77,0,0,1,4.43-1.57,9.38,9.38,0,0,1,3.89.69,1.71,1.71,0,0,1,.23.13,3.88,3.88,0,0,1,1.59,1.52A4.52,4.52,0,0,1,39.36-659.23Z"/></clipPath><clipPath id="clip-path-87"><path class="cls-1" d="M37.75-668.35a.59.59,0,0,1-.08.78.65.65,0,0,1-.48.21.67.67,0,0,1,.2.12l.34.46.27.46h-.44l-.21-.37a1.74,1.74,0,0,0-.35-.5l-.3-.09h-.22v1h-.37v-2.36H37a1.63,1.63,0,0,1,.45.06A.58.58,0,0,1,37.75-668.35Zm-.3.38a.21.21,0,0,0,0-.19.25.25,0,0,0-.16-.12h-.8v.69h.56a.49.49,0,0,0,.34-.1A.29.29,0,0,0,37.45-668Z"/></clipPath><clipPath id="clip-path-88"><path class="cls-1" d="M39.15-667.51a2,2,0,0,1-.28,1.07,1.94,1.94,0,0,1-.79.79,2.15,2.15,0,0,1-1.06.28,2.21,2.21,0,0,1-1.06-.28,2.07,2.07,0,0,1-.79-.79,2.37,2.37,0,0,1-.28-1.07,2.26,2.26,0,0,1,.28-1.08,1.93,1.93,0,0,1,.81-.79,2.36,2.36,0,0,1,1-.29,2,2,0,0,1,1,.29,1.85,1.85,0,0,1,.8.79A2,2,0,0,1,39.15-667.51Zm-.35,0a1.76,1.76,0,0,0-.24-.9,1.58,1.58,0,0,0-.67-.66,1.86,1.86,0,0,0-.87-.24,1.93,1.93,0,0,0-.87.24,1.7,1.7,0,0,0-.67.66,1.86,1.86,0,0,0-.24.9,1.85,1.85,0,0,0,.24.89,1.74,1.74,0,0,0,.66.66,1.83,1.83,0,0,0,.88.23,1.82,1.82,0,0,0,.89-.23,1.72,1.72,0,0,0,.65-.66A1.75,1.75,0,0,0,38.8-667.51Z"/></clipPath><clipPath id="clip-path-89"><polygon class="cls-1" points="18.15 -684.95 28.29 -668.06 18.15 -668.06 12.01 -668.06 2.33 -684.19 -5 -696.4 2.33 -700.81 6.95 -703.59 18.15 -684.95"/></clipPath><clipPath id="clip-path-90"><path class="cls-1" d="M22.14-655.57v-1.53a4,4,0,0,0-4-3.26,4,4,0,0,0-4,4,4,4,0,0,0,4,4A4,4,0,0,0,22.14-655.57Zm3.37-.76v6.92H22.14v-.76a7.25,7.25,0,0,1-4,1.17,7.34,7.34,0,0,1-7.06-7.34,7.33,7.33,0,0,1,7.06-7.33,7.18,7.18,0,0,1,4,1.18v-.81h3.37Z"/></clipPath><clipPath id="clip-path-91"><path class="cls-1" d="M6.32-655.57v-1.53a4,4,0,0,0-3.95-3.26,4,4,0,0,0-4,4,4,4,0,0,0,4,4A4,4,0,0,0,6.32-655.57Zm3.37-.76v6.92H6.32v-.76A7.25,7.25,0,0,1,2.37-649a7.34,7.34,0,0,1-7.06-7.34,7.33,7.33,0,0,1,7.06-7.33,7.18,7.18,0,0,1,4,1.18v-5.57H9.69Z"/></clipPath><clipPath id="clip-path-92"><polygon class="cls-1" points="2.33 -674.7 6.3 -668.06 2.33 -668.06 -9.97 -668.06 -19 -683.1 -19.4 -683.75 -19 -683.99 -7.44 -690.95 2.33 -674.7"/></clipPath><clipPath id="clip-path-93"><rect class="cls-1" x="-9.95" y="-663.67" width="3.67" height="14.26"/></clipPath><clipPath id="clip-path-94"><rect class="cls-1" x="-9.95" y="-667.99" width="3.67" height="3.22"/></clipPath><clipPath id="clip-path-95"><path class="cls-1" d="M-15-655.57v-1.53a4,4,0,0,0-4-3.26,4,4,0,0,0-4,4,4,4,0,0,0,4,4A4,4,0,0,0-15-655.57Zm3.37-.76v6.92H-15v-.76A7.27,7.27,0,0,1-19-649a7.34,7.34,0,0,1-7.06-7.34A7.33,7.33,0,0,1-19-663.67a7.2,7.2,0,0,1,4,1.18v-5.57h3.37Z"/></clipPath><clipPath id="clip-path-96"><polygon class="cls-1" points="-19 -673.62 -15.67 -668.06 -19 -668.06 -31.95 -668.06 -33.78 -671.11 -21.82 -678.29 -19 -673.62"/></clipPath><clipPath id="clip-path-97"><path class="cls-1" d="M-31-655.57v-1.53a4,4,0,0,0-4-3.26,4,4,0,0,0-4,4,4,4,0,0,0,4,4A4,4,0,0,0-31-655.57Zm3.37-.76v6.92H-31v-.76A7.27,7.27,0,0,1-35-649,7.34,7.34,0,0,1-42-656.34,7.33,7.33,0,0,1-35-663.67a7.2,7.2,0,0,1,4,1.18v-.81h3.37Z"/></clipPath><clipPath id="clip-path-98"><path class="cls-1" d="M135.73-688.22h-4.66l4.83,12.64h5.26l4.93-12.64h-4.54L138.61-680Zm-13.47,5c0-1.89.39-2.94,2.22-2.94s2.27.83,2.27,2.94Zm2.39,5.65c-1.94,0-2.39-.83-2.39-3.16H131c0-5.6-1.33-7.93-6.31-7.93-5.43,0-6.9,1.89-6.9,6.75s2,7,6.6,7,6.21-1.66,6.32-4.26h-3.92C126.75-678.07,126.31-677.57,124.65-677.57ZM113-688.27h-4.26v12.64h8.53v-3H113Zm33.64,22.56v-31.2m0,31.2a33.49,33.49,0,0,0-7.76,2.8A38.77,38.77,0,0,0,123-666.4a40.28,40.28,0,0,0-17.35,4l-7-34.51h47.93"/></clipPath><clipPath id="clip-path-99"><path class="cls-1" d="M164.44-660.57c0-.16-.23-.28-.78-.28v.61c.39,0,.78,0,.78-.32Zm-1.28,1.66v-2.42h.67c.66,0,1.16.16,1.16.77,0,.28-.17.5-.55.72l.44.94h-.44l-.39-.72h-.39v.71Zm2.88-1.21a2,2,0,0,0-2-2,2.05,2.05,0,0,0-2.05,2,2.09,2.09,0,0,0,2,2,2,2,0,0,0,1.48-.55A2,2,0,0,0,166-660.12Zm-2-2.43a2.44,2.44,0,0,1,2.25,1.17,2.45,2.45,0,0,1,0,2.53,2.44,2.44,0,0,1-2.25,1.17,2.45,2.45,0,0,1-1.73-.71,2.44,2.44,0,0,1-.71-1.73A2.45,2.45,0,0,1,164-662.55Zm-3.43-17.07h-4.49c.05,3,1.66,4.26,6.54,4.26,4.54,0,6.37-1,6.37-4.15,0-5-8.42-2.5-8.42-5.49,0-.72.83-1.33,1.94-1.33a1.73,1.73,0,0,1,1.88,1.55h4.27c-.06-2.66-1.61-3.88-5.88-3.88-4.43,0-6.48,1.22-6.48,4,0,5.49,8.42,2.55,8.42,5.66,0,.94-.5,1.38-1.71,1.38C161.55-677.63,160.67-678.18,160.56-679.62Zm-5.93-7.87-.22,1.27c1.33-.83,1.88-1.55,1.88-2.49a1.56,1.56,0,0,0-.5-1.22,1.6,1.6,0,0,0-1.27-.39,1.47,1.47,0,0,0-1.19.36,1.56,1.56,0,0,0-.53,1.14C152.8-687.66,153.57-687.49,154.63-687.49Zm-7.32-.83v12.69h4.16v-12.69Zm-.77-8.59h32.3l-7.59,34.52c-5-2.88-9.53-4.1-16.12-4.1a45.08,45.08,0,0,0-8.59.78"/></clipPath><clipPath id="clip-path-100"><rect class="cls-1" x="262.98" y="-671.65" width="5.64" height="6.9"/></clipPath><clipPath id="clip-path-101"><path class="cls-1" d="M271-662.32H260.56v-11.76h10.52Zm-18.21,0h-9.25l.51-2.49H251l1.43-6.74h-4.44l-.93,4.39h-2.43L246-674h9.29Zm-8.08-18.59h5.7v-6.91H246v-2.41h6.84v9.32h2.39v2.44H244.75Zm15.86,0h10.45v2.43H260.61Zm1.14-9.36h8.06v2.43h-8.06Zm-23-5.26v38.47h38.39v-38.47Z"/></clipPath><clipPath id="clip-path-102"><path class="cls-1" d="M309.82-672a1.61,1.61,0,0,0-1.6,1.61v4a1.63,1.63,0,0,0,.77,1.5,1.63,1.63,0,0,0,1.68,0,1.6,1.6,0,0,0,.76-1.5v-4A1.61,1.61,0,0,0,309.82-672Z"/></clipPath><clipPath id="clip-path-103"><path class="cls-1" d="M289.21-672a1.57,1.57,0,0,0-1.12.47,1.63,1.63,0,0,0-.47,1.14v4a1.59,1.59,0,0,0,1.59,1.59,1.59,1.59,0,0,0,1.59-1.59v-4A1.6,1.6,0,0,0,289.21-672Z"/></clipPath><clipPath id="clip-path-104"><path class="cls-1" d="M313.92-666.42a4.09,4.09,0,0,1-4.09,4.09,4.09,4.09,0,0,1-4.09-4.09v-4a4.09,4.09,0,0,1,4.09-4.09,4.09,4.09,0,0,1,4.09,4.09Zm-9.37-11.7h-2.38l-3.25-6.79v6.82h-2.46v-12.14h2.46l3.25,6.88v-6.88h2.39Zm0,15.75h-8.09v-12.14h2.42v9.76h5.67Zm-13.72,2.46-.83-2.5a4,4,0,0,1-.78.08,4.1,4.1,0,0,1-4-4.09v-4a4.06,4.06,0,0,1,2-3.51,4.07,4.07,0,0,1,4.05,0,4,4,0,0,1,2,3.51v4a4,4,0,0,1-1.19,2.89l1.19,3.62Zm-5.64-30.36h2.45v8.09a1.59,1.59,0,0,0,1.59,1.59,1.59,1.59,0,0,0,1.59-1.59v-8.05h2.46v8.13a4,4,0,0,1-4,4h-.14a4,4,0,0,1-4-4Zm23.42,0H311v12.15h-2.42Zm-28.25-5.26v38.47h38.39v-38.47Z"/></clipPath><clipPath id="clip-path-105"><path class="cls-1" d="M393.87-671.16a.73.73,0,0,1-.52-.21.7.7,0,0,1-.22-.51.74.74,0,0,1,.74-.74.74.74,0,0,1,.74.74.69.69,0,0,1-.21.51A.74.74,0,0,1,393.87-671.16Zm0-1.75a1,1,0,0,0-.94,1,1,1,0,0,0,1,1,1,1,0,0,0,1-1,1,1,0,0,0-.31-.73A1,1,0,0,0,393.87-672.91Z"/></clipPath><clipPath id="clip-path-106"><polygon class="cls-1" points="404.2 -676.49 399.03 -676.49 399.62 -685.47 396.27 -676.49 391.47 -676.49 399.08 -696.78 404.18 -696.78 403.59 -687.68 407.01 -696.78 411.81 -696.78 404.2 -676.49"/></clipPath><clipPath id="clip-path-107"><polygon class="cls-1" points="404.82 -676.49 412.43 -696.78 417.23 -696.78 409.62 -676.49 404.82 -676.49"/></clipPath><clipPath id="clip-path-108"><path class="cls-1" d="M390.92-683.49c-6.71,7.88-13,18.35-7.45,23.17s12.18,1.91,16.79.07,55.6-24,55.6-24c.49-.24.4-.55-.22-.4l-55.5,15C393.13-667.63,385.13-671.91,390.92-683.49Z"/></clipPath><clipPath id="clip-path-109"><path class="cls-1" d="M393.88-672h-.13v-.26h.13c.08,0,.18,0,.18.12S394-672,393.88-672Zm.17.18a.32.32,0,0,0,.21-.08.27.27,0,0,0,.06-.21c0-.27-.17-.34-.46-.34h-.42v1.11h.31v-.47l.26.47h.32Z"/></clipPath><clipPath id="clip-path-110"><path class="cls-1" d="M442.09-695.09a.74.74,0,0,1-.72-.74.74.74,0,0,1,.74-.72.73.73,0,0,1,.72.73.69.69,0,0,1-.21.52A.74.74,0,0,1,442.09-695.09Zm0-1.76a1,1,0,0,0-.93,1,1,1,0,0,0,1,1,1,1,0,0,0,1-1,1,1,0,0,0-.31-.73A1,1,0,0,0,442.09-696.85Z"/></clipPath><clipPath id="clip-path-111"><path class="cls-1" d="M442.1-695.91h-.16v-.25h.13c.08,0,.18,0,.18.11S442.19-695.91,442.1-695.91Zm.17.16a.32.32,0,0,0,.21-.08.27.27,0,0,0,.06-.21c0-.27-.17-.33-.46-.33h-.42v1.1h.28v-.47l.26.47h.32Z"/></clipPath><clipPath id="clip-path-112"><path class="cls-1" d="M423.47-677.84l-.31-10.58,7.26-8Zm15.46-15.56,1.29-3.38H425.59l-5,6.08,2.32-6.08H418l-7.55,20.29h4.8l3.22-8.49.26,8.49h14.72l1.4-3.91h-5.63l1.83-4.92h4.62l1.42-3.78h-4.62l1.58-4.27Z"/></clipPath></defs><title>underarmour</title><path class="cls-115" d="M48.26,98.48H43.68v5.18h1.61v-1.08l.54,1.08h2.46c2.34,0,2.13-1.23,2.13-3.24A1.91,1.91,0,0,0,48.26,98.48ZM48,102.29H45.28V99.86h2.61c.55,0,.89,0,.89,1.27C48.78,101.5,48.85,102.29,48,102.29Z"/><path class="cls-115" d="M112.68,101.63c.5-.34.73-.4.73-1.49,0-1.67-.9-1.66-1.51-1.66h-4.62a.41.41,0,0,0-.43.44v4.57l.14.17h1.36l.25-.22v-2.15s.38.75.57,1.08h2c.14,0,.5,0,.5.61,0,.23-.07.68.21.68h1.35c.08,0,.19,0,.19-.28C113.41,102.83,113.52,101.77,112.68,101.63Zm-2-.64h-2.12v-.92c0-.11,0-.22.33-.22h2c.72,0,.76.09.76.62C111.71,100.74,111.71,101,110.69,101Z"/><path class="cls-115" d="M42.74,98.47h-1c-.34,0-.32.23-.32.38v3.29c-.47-.6-1.16-1.4-1.54-1.92-.49-.7-1.23-1.75-1.75-1.75H36.25c-.32,0-.3.23-.3.38v4.44c0,.15,0,.37.3.37h1c.34,0,.31-.22.31-.37V100c1,1.25,2,2.42,2.69,3.36h0a1,1,0,0,0,.95.33h1.9V98.85C43.05,98.7,43.07,98.47,42.74,98.47Z"/><path class="cls-115" d="M35,98.47H34c-.33,0-.3.23-.3.39v2.72a.67.67,0,0,1-.75.72H31.2a.66.66,0,0,1-.75-.72V98.86c0-.16,0-.39-.31-.39h-1c-.35,0-.34.22-.34.39v2.72a1.81,1.81,0,0,0,2,2.08h2.52a1.82,1.82,0,0,0,2-2.08V98.86C35.32,98.7,35.35,98.47,35,98.47Z"/><path class="cls-115" d="M26.6,81.32s2.49,1.92,10.55,4.89a59.12,59.12,0,0,0,12.48,3.2L49.6,74a10.56,10.56,0,0,1,2.67-6.75,74.86,74.86,0,0,0,17.46,2h0a75,75,0,0,0,17.48-2A10.58,10.58,0,0,1,89.9,74l0,15.44a59.12,59.12,0,0,0,12.48-3.2c8.06-3,10.55-4.89,10.55-4.89-.33-6.93-6.51-13.18-16-17.34,9.45-4.16,15.63-10.4,16-17.33h0s-2.49-1.93-10.55-4.89a59.12,59.12,0,0,0-12.48-3.2l0,15.44a10.6,10.6,0,0,1-2.68,6.75,74.33,74.33,0,0,0-17.46-2,75.12,75.12,0,0,0-17.49,2A10.56,10.56,0,0,1,49.59,54l0-15.44a59.12,59.12,0,0,0-12.47,3.2c-8.06,3-10.55,4.89-10.55,4.89.33,6.93,6.51,13.18,16,17.34C33.1,68.15,26.93,74.39,26.6,81.32ZM69.74,60.51h.19A25.37,25.37,0,0,1,83.44,64a25.31,25.31,0,0,1-13.52,3.47h-.36A25.43,25.43,0,0,1,56,64a25.35,25.35,0,0,1,13.53-3.47Z"/><path class="cls-115" d="M97.3,98.45H93.89c-1.91,0-1.8,1.54-1.8,2.51s-.07,2.71,1.46,2.71h4.07c1.55,0,1.47-1.64,1.47-2.71S99.22,98.45,97.3,98.45Zm-.67,3.89h-2c-.78,0-.73-.8-.73-1.34s-.12-1.24.89-1.24h1.71c1,0,.89.75.89,1.24S97.4,102.34,96.63,102.34Z"/><path class="cls-115" d="M91.48,98.86c0-.16,0-.38-.29-.38H89.58c-.28,0-.61-.06-1,.71s-.91,1.9-1.34,2.58a29,29,0,0,1-1.33-2.58c-.38-.77-.72-.71-1-.71H83.34c-.34,0-.32.22-.32.38v4.44c0,.13,0,.36.32.36h.93c.34,0,.32-.23.32-.36v-3.23c.64,1.16,1.6,2.94,1.94,3.59H88c.36-.65,1.3-2.43,2-3.59v3.23c0,.13,0,.36.32.36h1c.33,0,.29-.23.29-.36Z"/><path class="cls-115" d="M72,98.51H70.39s-2.44,4.39-2.8,5.07v.11h1.75c.25-.41,1-1.74,1.08-2l.46,1H73l.5.91h1.75v-.17c-.35-.64-2-3.67-2.27-4.16C72.62,98.66,72.29,98.51,72,98.51Zm.26,3.07H70.63l-.08-.08.86-1.55h.08l.81,1.56Z"/><path class="cls-115" d="M56.5,102.4H53c-.09,0-.37.06-.37-.25v-1.36l.47.92H56.2c.26,0,.26-.12.2-.25l-.48-.94H53c-.33,0-.27-.13-.27-.44s.3-.27.39-.27h3.34c.36,0,.3-.23.3-.63s.05-.67-.3-.67H52.21A1,1,0,0,0,51,99.58v2.86c0,1.14.71,1.25,1.08,1.25H56.5c.34,0,.31-.23.31-.65S56.84,102.4,56.5,102.4Z"/><path class="cls-115" d="M82.49,100.14c0-1.67-.9-1.66-1.51-1.66H76.36a.41.41,0,0,0-.43.44v4.57l.14.17h1.36l.25-.22v-2.15s.38.75.57,1.08h2c.13,0,.49,0,.49.61,0,.23-.07.68.21.68H82.3c.08,0,.19,0,.19-.28,0-.55.11-1.61-.72-1.75C82.26,101.29,82.49,101.23,82.49,100.14Zm-2.72.85H77.65v-.92c0-.11,0-.22.33-.22H80c.71,0,.75.09.75.62C80.79,100.74,80.79,101,79.77,101Z"/><path class="cls-115" d="M64,100.14c0-1.67-.9-1.66-1.52-1.66H57.87a.4.4,0,0,0-.42.44v4.57l.13.17h1.36l.26-.22v-2.15s.37.75.56,1.08h2c.14,0,.5,0,.5.61,0,.23-.07.68.21.68h1.36c.08,0,.18,0,.18-.28,0-.55.11-1.61-.72-1.75C63.78,101.29,64,101.23,64,100.14Zm-2.73.85H59.17v-.92c0-.11,0-.22.32-.22h2.06c.71,0,.76.09.76.62C62.31,100.74,62.31,101,61.28,101Z"/><path class="cls-115" d="M105.85,98.47h-1c-.33,0-.31.23-.31.39v2.72a.66.66,0,0,1-.75.72h-1.7a.66.66,0,0,1-.75-.72V98.86c0-.16,0-.39-.31-.39h-1c-.35,0-.34.22-.34.39v2.72a1.81,1.81,0,0,0,2,2.08h2.53a1.82,1.82,0,0,0,2-2.08V98.86C106.19,98.7,106.22,98.47,105.85,98.47Z"/></svg>