<svg id="圖層_1" data-name="圖層 1" xmlns="http://www.w3.org/2000/svg" viewBox="0 0 140 140"><defs><style>.cls-1{fill:gray;}</style></defs><title>higgindex</title><path class="cls-1" d="M113.58,90.89v5.33h-4.41V90.88l-1.57-.42A14.15,14.15,0,0,1,97.34,78.69a27.74,27.74,0,0,1,.1-6.44,46,46,0,0,1,6.37-19.07,40.62,40.62,0,0,1,7.08-9.11l.51-.45c.81.81,1.63,1.57,2.37,2.41a47,47,0,0,1,7.63,11.85,45.46,45.46,0,0,1,4.17,19,14.22,14.22,0,0,1-10,13.46C114.94,90.52,114.33,90.68,113.58,90.89ZM111.43,50c-.28.34-.44.52-.59.72a44.52,44.52,0,0,0-3.8,5.8,41.75,41.75,0,0,0-5.34,17.74,16.66,16.66,0,0,0,.12,4.46,9.86,9.86,0,0,0,9.68,7.8,9.71,9.71,0,0,0,9.56-9,35.91,35.91,0,0,0-1.59-12.09,44.49,44.49,0,0,0-5.32-11.52C113.33,52.61,112.39,51.39,111.43,50Z"/><path class="cls-1" d="M37.54,70.4h-5V47.59h5v8.48c3.31,0,6.54,0,9.87,0V47.58h5V70.36H47.44V60.68a79.13,79.13,0,0,0-9.9-.07Z"/><path class="cls-1" d="M60,76l2.62-4c.87.49,1.65,1,2.5,1.4a6.78,6.78,0,0,0,4.53.3,3.17,3.17,0,0,0,2.41-2.58,18.26,18.26,0,0,0,.17-2.42,1.21,1.21,0,0,0-.36.15c-1.89,1.91-4.19,2.05-6.6,1.4-3.35-.9-5-3.74-5.33-6.93a9.05,9.05,0,0,1,1.29-5.63,6.94,6.94,0,0,1,10.13-2.06,16.07,16.07,0,0,1,1.23,1.08v-2H77c0,.31,0,.57,0,.84,0,4.66,0,9.33,0,14a9.33,9.33,0,0,1-1.74,5.76,6.62,6.62,0,0,1-3.92,2.45A15.13,15.13,0,0,1,61.75,77,15.9,15.9,0,0,1,60,76Zm8.65-9.62a3.89,3.89,0,1,0-3.89-3.88A3.89,3.89,0,0,0,68.68,66.36Z"/><path class="cls-1" d="M78.3,75.92,80.92,72c.78.46,1.48.94,2.24,1.31a6.81,6.81,0,0,0,4.68.42,3.29,3.29,0,0,0,2.5-2.51,6.83,6.83,0,0,0,.09-2.57c-.24.21-.39.32-.52.44a6,6,0,0,1-5.16,1.43,7.2,7.2,0,0,1-6.41-6.28,9.08,9.08,0,0,1,1.47-7,6.9,6.9,0,0,1,10.49-1c.13.13.25.27.51.56l.09-2.09,2.14,0h2.2c0,.26.06.47.06.68q0,7.07,0,14.15A10.38,10.38,0,0,1,94.35,74a6.53,6.53,0,0,1-3.87,3.52,14.92,14.92,0,0,1-7.59.38A9.51,9.51,0,0,1,79,76.48C78.82,76.33,78.61,76.15,78.3,75.92ZM87,66.38a3.9,3.9,0,1,0-.08-7.8,4,4,0,0,0-3.87,4A4,4,0,0,0,87,66.38Z"/><path class="cls-1" d="M54,81.77V71.49c1.6-.06,3.15,0,4.76,0V95.91H54.35V94a5,5,0,0,0-.46.34c-3.15,3.39-8,2.07-10.11-.27a8.63,8.63,0,0,1-2-7.32,8.49,8.49,0,0,1,2-4.49,6.64,6.64,0,0,1,6.38-2.31,5.66,5.66,0,0,1,3.46,1.6A2.2,2.2,0,0,0,54,81.77ZM50.5,84.13a3.47,3.47,0,0,0-3.91,3,4.8,4.8,0,0,0,.35,3A3.15,3.15,0,0,0,49.24,92a6.32,6.32,0,0,0,1.31.12,3.43,3.43,0,0,0,3.68-3C54.69,86.53,53.53,84.09,50.5,84.13Z"/><path class="cls-1" d="M76.69,93.27A8,8,0,0,1,72,96.13a8.79,8.79,0,0,1-8.4-2.3,8.34,8.34,0,0,1-.44-11,9.27,9.27,0,0,1,10.22-2.27A6.11,6.11,0,0,1,76,82.84c1.35,2,1.51,4.31,1.36,6.76H66.2a3.32,3.32,0,0,0,1.86,2.67A3.67,3.67,0,0,0,72.12,92c.43-.32.83-.7,1.3-1.1Zm-4.16-7c.34-1.54-1.46-3-2.77-3-2,0-3.51,1.21-3.52,3Z"/><path class="cls-1" d="M39.71,95.91H34.83c0-.34,0-.64,0-.93,0-2.37,0-4.74,0-7.12a9.3,9.3,0,0,0-.21-2,2,2,0,0,0-2.06-1.68,2.58,2.58,0,0,0-3.07,2.65c-.06.63-.1,1.26-.11,1.9,0,2.12,0,4.24,0,6.37,0,.27,0,.53,0,.85H24.66c-.19-.57-.23-14.65,0-15.62h4.54V82c.4-.32.78-.62,1.15-.93,2.29-1.92,6.28-1.47,7.76.22a6.12,6.12,0,0,1,1.49,3.59c.09.93.14,1.87.15,2.81,0,2.48,0,5,0,7.44Z"/><path class="cls-1" d="M96,95.92H90.36l-3.45-5.2-3.71,5.2H77.58l6.16-8.33c-1.62-2.44-3.38-4.78-5.1-7.17a26.66,26.66,0,0,1,5.61-.12L87,84.51l2.69-4.22H95c-.78,1.35-1.67,2.49-2.49,3.67L90,87.55Z"/><path class="cls-1" d="M16.41,73.07h4.85c.19.64.27,21,.1,22.73a21.78,21.78,0,0,1-4.95,0Z"/><path class="cls-1" d="M54.4,54.73h4.8V70.36H54.4Z"/><path class="cls-1" d="M56.75,52.52A2.76,2.76,0,0,1,54,49.72a2.82,2.82,0,1,1,2.76,2.8Z"/><path class="cls-1" d="M109.1,62.91h2.56a4.85,4.85,0,0,1,.66,0,.89.89,0,0,1,.78.83.85.85,0,0,1-.72.87,4.77,4.77,0,0,1-.66.05l-5.36,0a2.68,2.68,0,0,1-.49,0,.91.91,0,0,1-.76-.94.81.81,0,0,1,.86-.81c1,0,2.09,0,3.13,0Z"/><path class="cls-1" d="M109,82.24h-2.72a2.77,2.77,0,0,1-.41,0,1,1,0,0,1-.79-.84,1,1,0,0,1,.74-.88,1.85,1.85,0,0,1,.41,0h5.61c.84,0,1.24.29,1.26.85s-.43.9-1.29.91-1.87,0-2.81,0Z"/><path class="cls-1" d="M109,73.45c-1,0-1.93,0-2.89,0-.79,0-1.2-.61-.91-1.26a.92.92,0,0,1,1-.51c.77,0,1.54,0,2.31,0h3.14a4.53,4.53,0,0,1,.74,0,.87.87,0,0,1,0,1.72c-.74,0-1.49,0-2.23,0Z"/><path class="cls-1" d="M110.5,69.09c-.53,0-1,0-1.57,0s-1-.36-1-.86a1,1,0,0,1,.94-1c.47,0,.94,0,1.4,0s1.16,0,1.73,0,1.09.4,1.09.89-.45.91-1.12.93H110.5Z"/><path class="cls-1" d="M110.55,77.86c-.5,0-1,0-1.49,0-.77,0-1.14-.34-1.12-.92s.38-.85,1.09-.86c1,0,2,0,3,0a1.55,1.55,0,0,1,.71.17.8.8,0,0,1,.35.94.89.89,0,0,1-.86.65c-.55,0-1.1,0-1.65,0Z"/><path class="cls-1" d="M110.48,60.28c-.52,0-1,0-1.57,0a.93.93,0,0,1-1-.9.92.92,0,0,1,1-.87c1,0,2.1,0,3.14,0,.67,0,1.06.41,1,.94s-.4.8-1,.83S111,60.28,110.48,60.28Z"/></svg>