<svg id="圖層_1" data-name="圖層 1" xmlns="http://www.w3.org/2000/svg" xmlns:xlink="http://www.w3.org/1999/xlink" viewBox="0 0 140 140"><defs><style>.cls-1,.cls-2{fill:none;}.cls-2{clip-rule:evenodd;}.cls-3{clip-path:url(#clip-path);}.cls-4{clip-path:url(#clip-path-2);}.cls-5{clip-path:url(#clip-path-3);}.cls-6{clip-path:url(#clip-path-4);}.cls-7{clip-path:url(#clip-path-5);}.cls-8{clip-path:url(#clip-path-6);}.cls-9{clip-path:url(#clip-path-7);}.cls-10{clip-path:url(#clip-path-8);}.cls-11{clip-path:url(#clip-path-9);}.cls-12{clip-path:url(#clip-path-10);}.cls-13{clip-path:url(#clip-path-11);}.cls-14{clip-path:url(#clip-path-12);}.cls-15{clip-path:url(#clip-path-13);}.cls-16{clip-path:url(#clip-path-14);}.cls-17{clip-path:url(#clip-path-15);}.cls-18{clip-path:url(#clip-path-16);}.cls-19{clip-path:url(#clip-path-17);}.cls-20{clip-path:url(#clip-path-18);}.cls-21{clip-path:url(#clip-path-19);}.cls-22{clip-path:url(#clip-path-20);}.cls-23{clip-path:url(#clip-path-21);}.cls-24{clip-path:url(#clip-path-22);}.cls-25{clip-path:url(#clip-path-23);}.cls-26{clip-path:url(#clip-path-24);}.cls-27{clip-path:url(#clip-path-25);}.cls-28{clip-path:url(#clip-path-26);}.cls-29{clip-path:url(#clip-path-27);}.cls-30{clip-path:url(#clip-path-28);}.cls-31{clip-path:url(#clip-path-29);}.cls-32{clip-path:url(#clip-path-30);}.cls-33{clip-path:url(#clip-path-31);}.cls-34{clip-path:url(#clip-path-32);}.cls-35{clip-path:url(#clip-path-33);}.cls-36{clip-path:url(#clip-path-34);}.cls-37{clip-path:url(#clip-path-35);}.cls-38{clip-path:url(#clip-path-36);}.cls-39{clip-path:url(#clip-path-37);}.cls-40{clip-path:url(#clip-path-38);}.cls-41{clip-path:url(#clip-path-39);}.cls-42{clip-path:url(#clip-path-40);}.cls-43{clip-path:url(#clip-path-41);}.cls-44{clip-path:url(#clip-path-42);}.cls-45{clip-path:url(#clip-path-43);}.cls-46{clip-path:url(#clip-path-44);}.cls-47{clip-path:url(#clip-path-45);}.cls-48{clip-path:url(#clip-path-46);}.cls-49{clip-path:url(#clip-path-47);}.cls-50{clip-path:url(#clip-path-48);}.cls-51{clip-path:url(#clip-path-49);}.cls-52{clip-path:url(#clip-path-50);}.cls-53{clip-path:url(#clip-path-51);}.cls-54{clip-path:url(#clip-path-52);}.cls-55{clip-path:url(#clip-path-53);}.cls-56{clip-path:url(#clip-path-54);}.cls-57{clip-path:url(#clip-path-55);}.cls-58{clip-path:url(#clip-path-56);}.cls-59{clip-path:url(#clip-path-57);}.cls-60{clip-path:url(#clip-path-58);}.cls-61{clip-path:url(#clip-path-59);}.cls-62{clip-path:url(#clip-path-60);}.cls-63{clip-path:url(#clip-path-61);}.cls-64{clip-path:url(#clip-path-62);}.cls-65{clip-path:url(#clip-path-63);}.cls-66{clip-path:url(#clip-path-64);}.cls-67{clip-path:url(#clip-path-65);}.cls-68{clip-path:url(#clip-path-66);}.cls-69{clip-path:url(#clip-path-67);}.cls-70{clip-path:url(#clip-path-68);}.cls-71{clip-path:url(#clip-path-69);}.cls-72{clip-path:url(#clip-path-70);}.cls-73{clip-path:url(#clip-path-71);}.cls-74{clip-path:url(#clip-path-72);}.cls-75{clip-path:url(#clip-path-73);}.cls-76{clip-path:url(#clip-path-74);}.cls-77{clip-path:url(#clip-path-75);}.cls-78{clip-path:url(#clip-path-76);}.cls-79{clip-path:url(#clip-path-77);}.cls-80{clip-path:url(#clip-path-78);}.cls-81{clip-path:url(#clip-path-79);}.cls-82{clip-path:url(#clip-path-80);}.cls-83{clip-path:url(#clip-path-81);}.cls-84{clip-path:url(#clip-path-82);}.cls-85{clip-path:url(#clip-path-83);}.cls-86{clip-path:url(#clip-path-84);}.cls-87{clip-path:url(#clip-path-85);}.cls-88{clip-path:url(#clip-path-86);}.cls-89{clip-path:url(#clip-path-87);}.cls-90{clip-path:url(#clip-path-88);}.cls-91{clip-path:url(#clip-path-89);}.cls-92{clip-path:url(#clip-path-90);}.cls-93{clip-path:url(#clip-path-91);}.cls-94{clip-path:url(#clip-path-92);}.cls-95{clip-path:url(#clip-path-93);}.cls-96{clip-path:url(#clip-path-94);}.cls-97{clip-path:url(#clip-path-95);}.cls-98{clip-path:url(#clip-path-96);}.cls-99{clip-path:url(#clip-path-97);}.cls-100{clip-path:url(#clip-path-98);}.cls-101{clip-path:url(#clip-path-99);}.cls-102{clip-path:url(#clip-path-100);}.cls-103{clip-path:url(#clip-path-101);}.cls-104{clip-path:url(#clip-path-102);}.cls-105{clip-path:url(#clip-path-103);}.cls-106{clip-path:url(#clip-path-104);}.cls-107{clip-path:url(#clip-path-105);}.cls-108{clip-path:url(#clip-path-106);}.cls-109{clip-path:url(#clip-path-107);}.cls-110{clip-path:url(#clip-path-108);}.cls-111{clip-path:url(#clip-path-109);}.cls-112{clip-path:url(#clip-path-110);}.cls-113{clip-path:url(#clip-path-111);}.cls-114{clip-path:url(#clip-path-112);}.cls-115{fill:#b2b2b2;}</style><clipPath id="clip-path"><rect class="cls-1" x="35.88" y="-1078.69" width="1024" height="700"/></clipPath><clipPath id="clip-path-2"><path class="cls-2" d="M282.7-608.88l3.37,0c12.31.85,27.08,12.2,27.08,28.88V-567h-12V-580c0-8.14-6.32-14.87-15.13-15.46H282.7Z"/></clipPath><clipPath id="clip-path-3"><path class="cls-2" d="M282.7-594.19H286c8.54,0,14,8.35,13.82,14.15V-567h-9.16v-10.54c-.13-2.65-1.74-4.1-4.68-4.15H282.7Z"/></clipPath><clipPath id="clip-path-4"><path class="cls-2" d="M282.7-580h3.05c2.39,0,3.42,1.19,3.42,3.82V-567H282.7Z"/></clipPath><clipPath id="clip-path-5"><polygon class="cls-2" points="239.58 -567.33 239.58 -579.74 248.11 -579.74 248.11 -576.61 243.2 -576.61 243.2 -574.7 247.11 -574.7 247.11 -571.7 243.2 -571.7 243.2 -567.33 239.58 -567.33"/></clipPath><clipPath id="clip-path-6"><path class="cls-2" d="M267.7-572.13h3.43a5.48,5.48,0,0,1-1.57,3.8,5.39,5.39,0,0,1-3.83,1.35,5.48,5.48,0,0,1-4.27-1.71,7,7,0,0,1-1.58-4.82,7,7,0,0,1,1.54-4.79,5.29,5.29,0,0,1,4.2-1.75,5.38,5.38,0,0,1,3.88,1.36,5.32,5.32,0,0,1,1.57,3.71H267.6a2.21,2.21,0,0,0-.56-1.43,1.79,1.79,0,0,0-1.35-.49,1.73,1.73,0,0,0-1.6.86,4.88,4.88,0,0,0-.53,2.58,4.69,4.69,0,0,0,.56,2.56,1.89,1.89,0,0,0,1.67.87,1.79,1.79,0,0,0,1.33-.53,2.52,2.52,0,0,0,.58-1.52Z"/></clipPath><clipPath id="clip-path-7"><polygon class="cls-2" points="272.66 -567.33 272.66 -579.74 281.67 -579.74 281.67 -576.75 276.28 -576.75 276.28 -575.11 280.84 -575.11 280.84 -572.26 276.28 -572.26 276.28 -570.35 281.9 -570.35 281.9 -567.33 272.66 -567.33"/></clipPath><clipPath id="clip-path-8"><path class="cls-2" d="M222.61-581.61V-594.2h3.45l3.17,5.86a4,4,0,0,1,.31.7c.11.3.23.66.35,1.09a2.84,2.84,0,0,0-.07-.74,4.72,4.72,0,0,1,0-1v-5.91h3.46v12.59H229.8l-3.17-5.81a4.26,4.26,0,0,1-.32-.73c-.12-.31-.23-.67-.35-1.08,0,.23.06.46.07.7s0,.58,0,1v5.9Z"/></clipPath><clipPath id="clip-path-9"><polygon class="cls-2" points="262.73 -581.62 262.73 -590.88 259.47 -590.88 259.47 -594.21 269.55 -594.21 269.55 -590.88 266.36 -590.88 266.36 -581.62 262.73 -581.62"/></clipPath><clipPath id="clip-path-10"><polygon class="cls-2" points="270.8 -581.62 270.8 -594.21 274.43 -594.21 274.43 -589.93 277.82 -589.93 277.82 -594.21 281.45 -594.21 281.45 -581.62 277.82 -581.62 277.82 -586.5 274.43 -586.5 274.43 -581.62 270.8 -581.62"/></clipPath><clipPath id="clip-path-11"><polygon class="cls-2" points="251.85 -595.51 251.85 -605.58 248.6 -605.58 248.6 -609.17 258.65 -609.17 258.65 -605.58 255.47 -605.58 255.47 -595.51 251.85 -595.51"/></clipPath><clipPath id="clip-path-12"><polygon class="cls-2" points="259.89 -595.51 259.89 -609.17 263.52 -609.17 263.52 -604.53 266.9 -604.53 266.9 -609.17 270.52 -609.17 270.52 -595.51 266.9 -595.51 266.9 -600.82 263.52 -600.82 263.52 -595.51 259.89 -595.51"/></clipPath><clipPath id="clip-path-13"><polygon class="cls-2" points="272.65 -595.51 272.65 -609.17 281.67 -609.17 281.67 -605.9 276.28 -605.9 276.28 -604.09 280.84 -604.09 280.84 -600.96 276.28 -600.96 276.28 -598.84 281.9 -598.84 281.9 -595.51 272.65 -595.51"/></clipPath><clipPath id="clip-path-14"><path class="cls-2" d="M252.38-571.53l1.15-4.29,1.13,4.29Zm3-8.16h-3.67l-4,12.41h3.56l.44-1.65h3.59l.42,1.65h3.59Z"/></clipPath><clipPath id="clip-path-15"><path class="cls-2" d="M242.48-585.26a2.12,2.12,0,0,1-1.68.83,2.09,2.09,0,0,1-1.67-.83,6.65,6.65,0,0,1,0-5.25,2.07,2.07,0,0,1,1.67-.84,2.1,2.1,0,0,1,1.68.84,5,5,0,0,1,.53,2.64A5,5,0,0,1,242.48-585.26Zm2.63-7.49a5.41,5.41,0,0,0-4.3-1.77,5.43,5.43,0,0,0-4.3,1.77,7.05,7.05,0,0,0-1.58,4.86,7.08,7.08,0,0,0,1.58,4.85,5.49,5.49,0,0,0,4.3,1.78,5.47,5.47,0,0,0,4.3-1.78,7.07,7.07,0,0,0,1.57-4.85A7.06,7.06,0,0,0,245.11-592.75Z"/></clipPath><clipPath id="clip-path-16"><path class="cls-2" d="M254.78-589a2,2,0,0,1-1.2.26h-1.65v-2.36h1.56a2.17,2.17,0,0,1,1.29.26,1.17,1.17,0,0,1,.33.93A1.15,1.15,0,0,1,254.78-589Zm3.78,6.18-.07-1.82a3.76,3.76,0,0,0-.46-1.92,2.2,2.2,0,0,0-1.38-.88,3.09,3.09,0,0,0,1.38-1.2,3.92,3.92,0,0,0,.44-1.92,3.28,3.28,0,0,0-1.08-2.77,5.94,5.94,0,0,0-3.63-.85h-5.42v12.62h3.59v-4.34h1.54a1.48,1.48,0,0,1,1.2.4,2.13,2.13,0,0,1,.35,1.37v1.26a2.26,2.26,0,0,0,0,.52,3.86,3.86,0,0,0,.15.79h3.71v-.47C258.68-582.1,258.57-582.36,258.56-582.87Z"/></clipPath><clipPath id="clip-path-17"><path class="cls-1" d="M448.49-571h-3.61a2.37,2.37,0,0,0-.52-1.25,2.66,2.66,0,0,0-1.93-.58,2.87,2.87,0,0,0-1.85.44,1.1,1.1,0,0,0-.4.92c0,.54.75,1,2.25,1.3,1.7.37,2.92.7,3.67.95l.5.2a3.46,3.46,0,0,1,2.28,3.26,4.16,4.16,0,0,1-2.21,3.89,5.77,5.77,0,0,1-.56.27,8.49,8.49,0,0,1-3.3.62,9.18,9.18,0,0,1-4.52-1,4.39,4.39,0,0,1-1.62-1.58,4.49,4.49,0,0,1-.54-2.23h3.75a1.79,1.79,0,0,0,.69,1.49,3.87,3.87,0,0,0,2.33.54,3,3,0,0,0,1.86-.51,1.2,1.2,0,0,0,.47-.92c0-.58-.74-1-2.21-1.36a25.59,25.59,0,0,1-4.14-1.13,3.45,3.45,0,0,1-2.25-3.3,4.26,4.26,0,0,1,1.18-3.07,5.77,5.77,0,0,1,4.43-1.57,9.28,9.28,0,0,1,3.89.69,1.34,1.34,0,0,1,.23.13,3.94,3.94,0,0,1,1.59,1.52A4.62,4.62,0,0,1,448.49-571Z"/></clipPath><clipPath id="clip-path-18"><path class="cls-1" d="M446.88-580.13a.6.6,0,0,1-.08.78.73.73,0,0,1-.48.21.82.82,0,0,1,.2.12l.34.46.27.46h-.44l-.21-.37a1.8,1.8,0,0,0-.35-.5l-.3-.09h-.22v1h-.37v-2.36h.93a1.17,1.17,0,0,1,.45.06A.49.49,0,0,1,446.88-580.13Zm-.3.38a.31.31,0,0,0,0-.19.27.27,0,0,0-.16-.12.49.49,0,0,0-.24,0h-.56v.69h.56a.59.59,0,0,0,.34-.1A.36.36,0,0,0,446.58-579.75Z"/></clipPath><clipPath id="clip-path-19"><path class="cls-1" d="M448.28-579.29a2.25,2.25,0,0,1-.28,1.07,2.14,2.14,0,0,1-.79.79,2.33,2.33,0,0,1-1.06.28,2.3,2.3,0,0,1-1.06-.28,2,2,0,0,1-.79-.79,2.25,2.25,0,0,1-.28-1.07,2.12,2.12,0,0,1,.28-1.08,1.82,1.82,0,0,1,.81-.79,2.36,2.36,0,0,1,1-.29,2.1,2.1,0,0,1,1,.29,1.85,1.85,0,0,1,.8.79A2.06,2.06,0,0,1,448.28-579.29Zm-.35,0a1.86,1.86,0,0,0-.24-.9,1.7,1.7,0,0,0-.67-.66,1.81,1.81,0,0,0-.87-.24,1.75,1.75,0,0,0-.87.24,1.64,1.64,0,0,0-.67.66,1.76,1.76,0,0,0-.24.9,1.78,1.78,0,0,0,.24.89,1.74,1.74,0,0,0,.66.66,1.81,1.81,0,0,0,.88.23,1.84,1.84,0,0,0,.89-.23,1.79,1.79,0,0,0,.65-.66A1.88,1.88,0,0,0,447.93-579.29Z"/></clipPath><clipPath id="clip-path-20"><polygon class="cls-1" points="427.28 -596.74 437.42 -579.85 427.28 -579.85 421.14 -579.85 411.46 -595.98 404.13 -608.18 411.46 -612.6 416.08 -615.38 427.28 -596.74"/></clipPath><clipPath id="clip-path-21"><path class="cls-1" d="M431.27-567.35v-1.53a4,4,0,0,0-4-3.26,4,4,0,0,0-4,4,4,4,0,0,0,4,4A4.07,4.07,0,0,0,431.27-567.35Zm3.37-.76v6.92h-3.37v-.76a7.27,7.27,0,0,1-4,1.17,7.34,7.34,0,0,1-7.07-7.34,7.33,7.33,0,0,1,7.07-7.33,7.2,7.2,0,0,1,4,1.18v-.81h3.37Z"/></clipPath><clipPath id="clip-path-22"><path class="cls-1" d="M415.45-567.35v-1.53a4,4,0,0,0-3.95-3.26,4,4,0,0,0-4,4,4,4,0,0,0,4,4A4.06,4.06,0,0,0,415.45-567.35Zm3.37-.76v6.92h-3.37v-.76a7.38,7.38,0,0,1-3.95,1.17,7.34,7.34,0,0,1-7.07-7.34,7.33,7.33,0,0,1,7.07-7.33,7.22,7.22,0,0,1,3.95,1.18v-5.57h3.37Z"/></clipPath><clipPath id="clip-path-23"><polygon class="cls-1" points="411.46 -586.49 415.43 -579.85 411.46 -579.85 399.16 -579.85 390.13 -594.88 389.73 -595.53 390.13 -595.77 401.69 -602.74 411.46 -586.49"/></clipPath><clipPath id="clip-path-24"><rect class="cls-1" x="399.18" y="-575.45" width="3.67" height="14.26"/></clipPath><clipPath id="clip-path-25"><rect class="cls-1" x="399.18" y="-579.77" width="3.67" height="3.22"/></clipPath><clipPath id="clip-path-26"><path class="cls-1" d="M394.13-567.35v-1.53a4,4,0,0,0-4-3.26,4,4,0,0,0-4,4,4,4,0,0,0,4,4A4.07,4.07,0,0,0,394.13-567.35Zm3.37-.76v6.92h-3.37v-.76a7.36,7.36,0,0,1-4,1.17,7.34,7.34,0,0,1-7.07-7.34,7.33,7.33,0,0,1,7.07-7.33,7.2,7.2,0,0,1,4,1.18v-5.57h3.37Z"/></clipPath><clipPath id="clip-path-27"><polygon class="cls-1" points="390.13 -585.4 393.46 -579.85 390.13 -579.85 377.18 -579.85 375.35 -582.89 387.31 -590.08 390.13 -585.4"/></clipPath><clipPath id="clip-path-28"><path class="cls-1" d="M378.14-567.35v-1.53a4,4,0,0,0-4-3.26,4,4,0,0,0-4,4,4,4,0,0,0,4,4A4.07,4.07,0,0,0,378.14-567.35Zm3.37-.76v6.92h-3.37v-.76a7.36,7.36,0,0,1-4,1.17,7.34,7.34,0,0,1-7.07-7.34,7.33,7.33,0,0,1,7.07-7.33,7.2,7.2,0,0,1,4,1.18v-.81h3.37Z"/></clipPath><clipPath id="clip-path-29"><path class="cls-1" d="M544.86-600H540.2L545-587.36h5.26L555.22-600h-4.54l-2.94,8.21Zm-13.47,5c0-1.89.39-2.94,2.22-2.94s2.27.83,2.27,2.94Zm2.39,5.65c-1.94,0-2.39-.83-2.39-3.16h8.7c0-5.6-1.33-7.93-6.31-7.93-5.43,0-6.9,1.89-6.9,6.75s2,7,6.6,7,6.21-1.66,6.32-4.26h-3.92C535.88-589.85,535.44-589.35,533.78-589.35ZM522.08-600h-4.26v12.64h8.53v-3h-4.27Zm33.64,22.56v-31.2m0,31.2a32.59,32.59,0,0,0-7.76,2.8,38.77,38.77,0,0,0-15.79-3.49,40.1,40.1,0,0,0-17.35,4l-7-34.51h47.93"/></clipPath><clipPath id="clip-path-30"><path class="cls-1" d="M573.57-572.35c0-.16-.23-.28-.78-.28v.61c.39,0,.78,0,.78-.32Zm-1.28,1.66v-2.42H573c.66,0,1.16.16,1.16.77,0,.28-.17.5-.55.72l.44.94h-.44l-.39-.72h-.39v.71Zm2.88-1.21a2,2,0,0,0-2-2.05,2,2,0,0,0-2,2.05,2.09,2.09,0,0,0,2,2,2.07,2.07,0,0,0,1.48-.55A2,2,0,0,0,575.17-571.9Zm-2-2.43a2.43,2.43,0,0,1,2.24,1.17,2.43,2.43,0,0,1,0,2.52,2.46,2.46,0,0,1-2.24,1.18,2.44,2.44,0,0,1-1.73-.71,2.41,2.41,0,0,1-.71-1.73A2.44,2.44,0,0,1,573.12-574.33Zm-3.43-17.07H565.2c0,3,1.66,4.26,6.54,4.26,4.54,0,6.37-1,6.37-4.15,0-5-8.42-2.5-8.42-5.49,0-.72.83-1.33,1.94-1.33a1.73,1.73,0,0,1,1.88,1.55h4.27c-.06-2.66-1.61-3.88-5.88-3.88-4.43,0-6.48,1.22-6.48,4,0,5.49,8.42,2.55,8.42,5.66,0,.94-.5,1.38-1.71,1.38C570.68-589.41,569.8-590,569.69-591.4Zm-5.93-7.87-.22,1.27c1.33-.83,1.88-1.55,1.88-2.49a1.55,1.55,0,0,0-.51-1.22,1.53,1.53,0,0,0-1.26-.39,1.49,1.49,0,0,0-1.2.36,1.5,1.5,0,0,0-.52,1.14C561.93-599.44,562.7-599.27,563.76-599.27Zm-7.32-.83v12.69h4.16V-600.1Zm-.77-8.59H588l-7.59,34.52c-5-2.88-9.53-4.1-16.12-4.1a44.21,44.21,0,0,0-8.59.78"/></clipPath><clipPath id="clip-path-31"><path class="cls-2" d="M282.7-748.88l3.37,0c12.31.84,27.08,12.2,27.08,28.88V-707h-12V-720c0-8.14-6.32-14.87-15.13-15.46H282.7Z"/></clipPath><clipPath id="clip-path-32"><path class="cls-2" d="M282.7-734.19H286c8.54,0,14,8.35,13.82,14.15V-707h-9.16v-10.54c-.13-2.65-1.74-4.1-4.68-4.15H282.7Z"/></clipPath><clipPath id="clip-path-33"><path class="cls-2" d="M282.7-720h3.05c2.39,0,3.42,1.18,3.42,3.82V-707H282.7Z"/></clipPath><clipPath id="clip-path-34"><polygon class="cls-2" points="239.58 -707.33 239.58 -719.74 248.11 -719.74 248.11 -716.61 243.2 -716.61 243.2 -714.7 247.11 -714.7 247.11 -711.7 243.2 -711.7 243.2 -707.33 239.58 -707.33"/></clipPath><clipPath id="clip-path-35"><path class="cls-2" d="M267.7-712.13h3.43a5.44,5.44,0,0,1-1.57,3.79,5.35,5.35,0,0,1-3.83,1.36,5.48,5.48,0,0,1-4.27-1.71,7,7,0,0,1-1.58-4.82,7,7,0,0,1,1.54-4.79,5.29,5.29,0,0,1,4.2-1.75,5.38,5.38,0,0,1,3.88,1.36,5.32,5.32,0,0,1,1.57,3.71H267.6a2.21,2.21,0,0,0-.56-1.43,1.79,1.79,0,0,0-1.35-.49,1.73,1.73,0,0,0-1.6.86,4.88,4.88,0,0,0-.53,2.58,4.69,4.69,0,0,0,.56,2.56,1.89,1.89,0,0,0,1.67.87,1.79,1.79,0,0,0,1.33-.53,2.52,2.52,0,0,0,.58-1.53Z"/></clipPath><clipPath id="clip-path-36"><polygon class="cls-2" points="272.66 -707.33 272.66 -719.74 281.67 -719.74 281.67 -716.75 276.28 -716.75 276.28 -715.11 280.84 -715.11 280.84 -712.26 276.28 -712.26 276.28 -710.35 281.9 -710.35 281.9 -707.33 272.66 -707.33"/></clipPath><clipPath id="clip-path-37"><path class="cls-2" d="M222.61-721.62V-734.2h3.45l3.17,5.86a4,4,0,0,1,.31.7c.11.3.23.66.35,1.09a2.84,2.84,0,0,0-.07-.74,4.72,4.72,0,0,1,0-1v-5.91h3.46v12.58H229.8l-3.17-5.8a4.26,4.26,0,0,1-.32-.73c-.12-.31-.23-.67-.35-1.08,0,.23.06.46.07.7s0,.58,0,1v5.9Z"/></clipPath><clipPath id="clip-path-38"><polygon class="cls-2" points="262.73 -721.62 262.73 -730.88 259.47 -730.88 259.47 -734.21 269.55 -734.21 269.55 -730.88 266.36 -730.88 266.36 -721.62 262.73 -721.62"/></clipPath><clipPath id="clip-path-39"><polygon class="cls-2" points="270.8 -721.62 270.8 -734.21 274.43 -734.21 274.43 -729.93 277.82 -729.93 277.82 -734.21 281.45 -734.21 281.45 -721.62 277.82 -721.62 277.82 -726.5 274.43 -726.5 274.43 -721.62 270.8 -721.62"/></clipPath><clipPath id="clip-path-40"><polygon class="cls-2" points="251.85 -735.51 251.85 -745.58 248.6 -745.58 248.6 -749.17 258.65 -749.17 258.65 -745.58 255.47 -745.58 255.47 -735.51 251.85 -735.51"/></clipPath><clipPath id="clip-path-41"><polygon class="cls-2" points="259.89 -735.51 259.89 -749.17 263.52 -749.17 263.52 -744.53 266.9 -744.53 266.9 -749.17 270.52 -749.17 270.52 -735.51 266.9 -735.51 266.9 -740.82 263.52 -740.82 263.52 -735.51 259.89 -735.51"/></clipPath><clipPath id="clip-path-42"><polygon class="cls-2" points="272.65 -735.51 272.65 -749.17 281.67 -749.17 281.67 -745.9 276.28 -745.9 276.28 -744.09 280.84 -744.09 280.84 -740.96 276.28 -740.96 276.28 -738.84 281.9 -738.84 281.9 -735.51 272.65 -735.51"/></clipPath><clipPath id="clip-path-43"><path class="cls-2" d="M252.38-711.53l1.15-4.29,1.13,4.29Zm3-8.16h-3.67l-4,12.41h3.56l.44-1.65h3.59l.42,1.65h3.59Z"/></clipPath><clipPath id="clip-path-44"><path class="cls-2" d="M242.48-725.26a2.12,2.12,0,0,1-1.68.83,2.09,2.09,0,0,1-1.67-.83,6.65,6.65,0,0,1,0-5.25,2.07,2.07,0,0,1,1.67-.84,2.1,2.1,0,0,1,1.68.84,5,5,0,0,1,.53,2.64A5,5,0,0,1,242.48-725.26Zm2.63-7.49a5.41,5.41,0,0,0-4.3-1.77,5.43,5.43,0,0,0-4.3,1.77,7.05,7.05,0,0,0-1.58,4.86,7.08,7.08,0,0,0,1.58,4.85,5.49,5.49,0,0,0,4.3,1.78,5.47,5.47,0,0,0,4.3-1.78,7.07,7.07,0,0,0,1.57-4.85A7.06,7.06,0,0,0,245.11-732.75Z"/></clipPath><clipPath id="clip-path-45"><path class="cls-2" d="M254.78-729a2,2,0,0,1-1.2.26h-1.65v-2.36h1.56a2.17,2.17,0,0,1,1.29.26,1.17,1.17,0,0,1,.33.93A1.15,1.15,0,0,1,254.78-729Zm3.78,6.18-.07-1.82a3.82,3.82,0,0,0-.46-1.93,2.22,2.22,0,0,0-1.38-.87,3.09,3.09,0,0,0,1.38-1.2,3.94,3.94,0,0,0,.44-1.93,3.27,3.27,0,0,0-1.08-2.76,5.94,5.94,0,0,0-3.63-.85h-5.42v12.61h3.59v-4.33h1.54a1.48,1.48,0,0,1,1.2.4,2.13,2.13,0,0,1,.35,1.37v1.26a2.26,2.26,0,0,0,0,.52,3.66,3.66,0,0,0,.15.78h3.71v-.47C258.68-722.1,258.57-722.37,258.56-722.87Z"/></clipPath><clipPath id="clip-path-46"><path class="cls-1" d="M448.49-711h-3.61a2.37,2.37,0,0,0-.52-1.25,2.66,2.66,0,0,0-1.93-.58,2.87,2.87,0,0,0-1.85.44,1.1,1.1,0,0,0-.4.92c0,.54.75,1,2.25,1.3,1.7.37,2.92.7,3.67.95l.5.2a3.46,3.46,0,0,1,2.28,3.26,4.16,4.16,0,0,1-2.21,3.89,4,4,0,0,1-.56.26,8.32,8.32,0,0,1-3.3.63,9.18,9.18,0,0,1-4.52-1,4.39,4.39,0,0,1-1.62-1.58,4.49,4.49,0,0,1-.54-2.23h3.75a1.79,1.79,0,0,0,.69,1.49,3.87,3.87,0,0,0,2.33.54,3,3,0,0,0,1.86-.51,1.2,1.2,0,0,0,.47-.92c0-.58-.74-1-2.21-1.36a25.59,25.59,0,0,1-4.14-1.13,3.45,3.45,0,0,1-2.25-3.3,4.26,4.26,0,0,1,1.18-3.07,5.77,5.77,0,0,1,4.43-1.57,9.28,9.28,0,0,1,3.89.69,1.34,1.34,0,0,1,.23.13,3.94,3.94,0,0,1,1.59,1.52A4.62,4.62,0,0,1,448.49-711Z"/></clipPath><clipPath id="clip-path-47"><path class="cls-1" d="M446.88-720.13a.6.6,0,0,1-.08.78.73.73,0,0,1-.48.21.82.82,0,0,1,.2.12l.34.46.27.46h-.44l-.21-.37a1.8,1.8,0,0,0-.35-.5l-.3-.09h-.22v1h-.37v-2.36h.93a1.38,1.38,0,0,1,.45,0A.55.55,0,0,1,446.88-720.13Zm-.3.38a.31.31,0,0,0,0-.19.27.27,0,0,0-.16-.12.49.49,0,0,0-.24,0h-.56v.69h.56a.59.59,0,0,0,.34-.1A.36.36,0,0,0,446.58-719.75Z"/></clipPath><clipPath id="clip-path-48"><path class="cls-1" d="M448.28-719.29a2.25,2.25,0,0,1-.28,1.07,2.14,2.14,0,0,1-.79.79,2.33,2.33,0,0,1-1.06.28,2.3,2.3,0,0,1-1.06-.28,2,2,0,0,1-.79-.79,2.25,2.25,0,0,1-.28-1.07,2.12,2.12,0,0,1,.28-1.08,1.82,1.82,0,0,1,.81-.79,2.36,2.36,0,0,1,1-.29,2.1,2.1,0,0,1,1,.29,1.85,1.85,0,0,1,.8.79A2.06,2.06,0,0,1,448.28-719.29Zm-.35,0a1.86,1.86,0,0,0-.24-.9,1.7,1.7,0,0,0-.67-.66,1.81,1.81,0,0,0-.87-.24,1.75,1.75,0,0,0-.87.24,1.64,1.64,0,0,0-.67.66,1.76,1.76,0,0,0-.24.9,1.78,1.78,0,0,0,.24.89,1.74,1.74,0,0,0,.66.66,1.81,1.81,0,0,0,.88.23,1.84,1.84,0,0,0,.89-.23,1.79,1.79,0,0,0,.65-.66A1.88,1.88,0,0,0,447.93-719.29Z"/></clipPath><clipPath id="clip-path-49"><polygon class="cls-1" points="427.28 -736.74 437.42 -719.85 427.28 -719.85 421.14 -719.85 411.46 -735.98 404.13 -748.18 411.46 -752.6 416.08 -755.38 427.28 -736.74"/></clipPath><clipPath id="clip-path-50"><path class="cls-1" d="M431.27-707.35v-1.53a4,4,0,0,0-4-3.26,4,4,0,0,0-4,4,4,4,0,0,0,4,4A4.05,4.05,0,0,0,431.27-707.35Zm3.37-.77v6.93h-3.37v-.76a7.27,7.27,0,0,1-4,1.17,7.34,7.34,0,0,1-7.07-7.34,7.33,7.33,0,0,1,7.07-7.33,7.2,7.2,0,0,1,4,1.18v-.82h3.37Z"/></clipPath><clipPath id="clip-path-51"><path class="cls-1" d="M415.45-707.35v-1.53a4,4,0,0,0-3.95-3.26,4,4,0,0,0-4,4,4,4,0,0,0,4,4A4,4,0,0,0,415.45-707.35Zm3.37-.77v6.93h-3.37v-.76a7.38,7.38,0,0,1-3.95,1.17,7.34,7.34,0,0,1-7.07-7.34,7.33,7.33,0,0,1,7.07-7.33,7.22,7.22,0,0,1,3.95,1.18v-5.57h3.37Z"/></clipPath><clipPath id="clip-path-52"><polygon class="cls-1" points="411.46 -726.49 415.43 -719.85 411.46 -719.85 399.16 -719.85 390.13 -734.88 389.73 -735.53 390.13 -735.77 401.69 -742.74 411.46 -726.49"/></clipPath><clipPath id="clip-path-53"><rect class="cls-1" x="399.18" y="-715.45" width="3.67" height="14.26"/></clipPath><clipPath id="clip-path-54"><rect class="cls-1" x="399.18" y="-719.77" width="3.67" height="3.22"/></clipPath><clipPath id="clip-path-55"><path class="cls-1" d="M394.13-707.35v-1.53a4,4,0,0,0-4-3.26,4,4,0,0,0-4,4,4,4,0,0,0,4,4A4.05,4.05,0,0,0,394.13-707.35Zm3.37-.77v6.93h-3.37v-.76a7.36,7.36,0,0,1-4,1.17,7.34,7.34,0,0,1-7.07-7.34,7.33,7.33,0,0,1,7.07-7.33,7.2,7.2,0,0,1,4,1.18v-5.57h3.37Z"/></clipPath><clipPath id="clip-path-56"><polygon class="cls-1" points="390.13 -725.4 393.46 -719.85 390.13 -719.85 377.18 -719.85 375.35 -722.89 387.31 -730.08 390.13 -725.4"/></clipPath><clipPath id="clip-path-57"><path class="cls-1" d="M378.14-707.35v-1.53a4,4,0,0,0-4-3.26,4,4,0,0,0-4,4,4,4,0,0,0,4,4A4.05,4.05,0,0,0,378.14-707.35Zm3.37-.77v6.93h-3.37v-.76a7.36,7.36,0,0,1-4,1.17,7.34,7.34,0,0,1-7.07-7.34,7.33,7.33,0,0,1,7.07-7.33,7.2,7.2,0,0,1,4,1.18v-.82h3.37Z"/></clipPath><clipPath id="clip-path-58"><path class="cls-1" d="M544.86-740H540.2L545-727.37h5.26L555.22-740h-4.54l-2.94,8.21Zm-13.47,5c0-1.89.39-2.94,2.22-2.94s2.27.82,2.27,2.94Zm2.39,5.65c-1.94,0-2.39-.83-2.39-3.16h8.7c0-5.61-1.33-7.93-6.31-7.93-5.43,0-6.9,1.89-6.9,6.75s2,7,6.6,7,6.21-1.66,6.32-4.26h-3.92C535.88-729.85,535.44-729.35,533.78-729.35ZM522.08-740h-4.26v12.64h8.53v-3h-4.27Zm33.64,22.56v-31.2m0,31.2a32.59,32.59,0,0,0-7.76,2.8,38.77,38.77,0,0,0-15.79-3.49,40.1,40.1,0,0,0-17.35,4l-7-34.51h47.93"/></clipPath><clipPath id="clip-path-59"><path class="cls-1" d="M573.57-712.35c0-.16-.23-.28-.78-.28v.61c.39,0,.78,0,.78-.32Zm-1.28,1.66v-2.43H573c.66,0,1.16.17,1.16.78,0,.28-.17.5-.55.72l.44.94h-.44l-.39-.72h-.39v.71Zm2.88-1.21a2,2,0,0,0-2-2.05,2,2,0,0,0-2,2.05,2.09,2.09,0,0,0,2,2,2.07,2.07,0,0,0,1.48-.55A2,2,0,0,0,575.17-711.9Zm-2-2.44a2.46,2.46,0,0,1,2.24,1.18,2.43,2.43,0,0,1,0,2.52,2.46,2.46,0,0,1-2.24,1.18,2.44,2.44,0,0,1-1.73-.71,2.41,2.41,0,0,1-.71-1.73A2.46,2.46,0,0,1,573.12-714.34Zm-3.43-17.06H565.2c0,3,1.66,4.26,6.54,4.26,4.54,0,6.37-1,6.37-4.15,0-5-8.42-2.5-8.42-5.49,0-.72.83-1.34,1.94-1.34a1.73,1.73,0,0,1,1.88,1.56h4.27c-.06-2.66-1.61-3.88-5.88-3.88-4.43,0-6.48,1.22-6.48,4,0,5.49,8.42,2.55,8.42,5.66,0,.94-.5,1.38-1.71,1.38C570.68-729.41,569.8-730,569.69-731.4Zm-5.93-7.87-.22,1.27c1.33-.84,1.88-1.55,1.88-2.49a1.55,1.55,0,0,0-.51-1.22,1.53,1.53,0,0,0-1.26-.39,1.49,1.49,0,0,0-1.2.36,1.5,1.5,0,0,0-.52,1.14C561.93-739.44,562.7-739.27,563.76-739.27Zm-7.32-.83v12.69h4.16V-740.1Zm-.77-8.59H588l-7.59,34.52c-5-2.88-9.53-4.1-16.12-4.1a44.21,44.21,0,0,0-8.59.78"/></clipPath><clipPath id="clip-path-60"><rect class="cls-1" x="672.11" y="-723.43" width="5.64" height="6.9"/></clipPath><clipPath id="clip-path-61"><path class="cls-1" d="M680.17-714.1H669.69v-11.77h10.52Zm-18.21,0h-9.25l.51-2.49h6.86l1.43-6.75h-4.44l-.93,4.4h-2.43l1.41-6.87h9.29Zm-8.08-18.59h5.7v-6.91h-4.42V-742H662v9.32h2.39v2.44H653.88Zm15.86,0h10.45v2.43H669.74Zm1.14-9.36h8.06v2.43h-8.06Zm-23-5.26v38.47h38.39v-38.47Z"/></clipPath><clipPath id="clip-path-62"><path class="cls-1" d="M719-723.82a1.6,1.6,0,0,0-1.6,1.61v4a1.6,1.6,0,0,0,.76,1.49,1.59,1.59,0,0,0,1.68,0,1.59,1.59,0,0,0,.77-1.49v-4A1.62,1.62,0,0,0,719-723.82Z"/></clipPath><clipPath id="clip-path-63"><path class="cls-1" d="M698.34-723.82a1.59,1.59,0,0,0-1.13.47,1.56,1.56,0,0,0-.46,1.14v4a1.59,1.59,0,0,0,1.59,1.59,1.59,1.59,0,0,0,1.59-1.59v-4A1.6,1.6,0,0,0,698.34-723.82Z"/></clipPath><clipPath id="clip-path-64"><path class="cls-1" d="M723.05-718.2a4.09,4.09,0,0,1-4.09,4.08,4.09,4.09,0,0,1-4.09-4.08v-4a4.09,4.09,0,0,1,4.09-4.09,4.09,4.09,0,0,1,4.09,4.09Zm-9.37-11.7H711.3l-3.25-6.79v6.82h-2.46V-742h2.46l3.25,6.88V-742h2.39Zm0,15.75h-8.09v-12.14H708v9.76h5.67ZM700-711.69l-.83-2.5a4.11,4.11,0,0,1-.78.07,4.07,4.07,0,0,1-4-4.08v-4a4,4,0,0,1,2-3.51,4,4,0,0,1,4,0,4,4,0,0,1,2,3.51v4a4.12,4.12,0,0,1-1.19,2.89l1.19,3.62ZM694.32-742h2.45V-734a1.59,1.59,0,0,0,1.59,1.59A1.59,1.59,0,0,0,700-734v-8h2.46v8.13a4,4,0,0,1-4,4h-.14a4,4,0,0,1-4-4Zm23.42,0h2.42v12.15h-2.42Zm-28.25-5.26v38.47h38.39v-38.47Z"/></clipPath><clipPath id="clip-path-65"><path class="cls-1" d="M803-722.94a.7.7,0,0,1-.52-.21.7.7,0,0,1-.22-.51.74.74,0,0,1,.74-.74.74.74,0,0,1,.74.74.7.7,0,0,1-.22.51A.73.73,0,0,1,803-722.94Zm0-1.75a1,1,0,0,0-.94,1,1,1,0,0,0,1,1,1,1,0,0,0,1-1,1,1,0,0,0-.32-.73A1,1,0,0,0,803-724.69Z"/></clipPath><clipPath id="clip-path-66"><polygon class="cls-1" points="813.33 -728.27 808.16 -728.27 808.75 -737.25 805.4 -728.27 800.6 -728.27 808.21 -748.57 813.31 -748.57 812.72 -739.47 816.14 -748.57 820.94 -748.57 813.33 -728.27"/></clipPath><clipPath id="clip-path-67"><polygon class="cls-1" points="813.95 -728.27 821.56 -748.57 826.36 -748.57 818.75 -728.27 813.95 -728.27"/></clipPath><clipPath id="clip-path-68"><path class="cls-1" d="M800.05-735.27c-6.71,7.88-13,18.35-7.45,23.17s12.18,1.91,16.79.07S865-736,865-736c.49-.24.4-.56-.22-.4l-55.5,15C802.26-719.41,794.26-723.69,800.05-735.27Z"/></clipPath><clipPath id="clip-path-69"><path class="cls-1" d="M803-723.77h-.13V-724H803c.08,0,.18,0,.18.12S803.1-723.77,803-723.77Zm.17.18a.27.27,0,0,0,.2-.09.25.25,0,0,0,.07-.2c0-.27-.17-.34-.46-.34h-.42v1.1h.31v-.47l.26.47h.32Z"/></clipPath><clipPath id="clip-path-70"><path class="cls-1" d="M851.22-746.87a.73.73,0,0,1-.72-.74.72.72,0,0,1,.73-.72.73.73,0,0,1,.73.73.74.74,0,0,1-.22.52A.73.73,0,0,1,851.22-746.87Zm0-1.76a1,1,0,0,0-.94,1,1,1,0,0,0,1,1,1,1,0,0,0,1-1,1,1,0,0,0-.32-.73A1,1,0,0,0,851.22-748.63Z"/></clipPath><clipPath id="clip-path-71"><path class="cls-1" d="M851.23-747.69h-.16v-.25h.13c.08,0,.18,0,.18.1S851.32-747.69,851.23-747.69Zm.17.16a.27.27,0,0,0,.2-.09.25.25,0,0,0,.07-.2c0-.27-.17-.33-.46-.33h-.42v1.1h.28v-.47l.26.47h.32Z"/></clipPath><clipPath id="clip-path-72"><path class="cls-1" d="M832.6-729.62l-.31-10.58,7.26-8Zm15.46-15.56,1.29-3.38H834.72l-5,6.08,2.32-6.08h-4.89l-7.55,20.29h4.8l3.22-8.49.26,8.49H842.6l1.4-3.91h-5.63l1.83-4.92h4.62l1.42-3.78h-4.62l1.58-4.27Z"/></clipPath><clipPath id="clip-path-73"><path class="cls-2" d="M282.7-888.88l3.37,0c12.31.84,27.08,12.2,27.08,28.88V-847h-12V-860c0-8.14-6.32-14.87-15.13-15.46H282.7Z"/></clipPath><clipPath id="clip-path-74"><path class="cls-2" d="M282.7-874.19H286c8.54,0,14,8.35,13.82,14.15V-847h-9.16v-10.54c-.13-2.65-1.74-4.1-4.68-4.15H282.7Z"/></clipPath><clipPath id="clip-path-75"><polygon class="cls-2" points="239.58 -847.33 239.58 -859.74 248.11 -859.74 248.11 -856.61 243.2 -856.61 243.2 -854.7 247.11 -854.7 247.11 -851.7 243.2 -851.7 243.2 -847.33 239.58 -847.33"/></clipPath><clipPath id="clip-path-76"><path class="cls-2" d="M267.7-852.13h3.43a5.44,5.44,0,0,1-1.57,3.79,5.35,5.35,0,0,1-3.83,1.36,5.48,5.48,0,0,1-4.27-1.71,7,7,0,0,1-1.58-4.82,7,7,0,0,1,1.54-4.79,5.29,5.29,0,0,1,4.2-1.75,5.38,5.38,0,0,1,3.88,1.36,5.32,5.32,0,0,1,1.57,3.71H267.6a2.21,2.21,0,0,0-.56-1.43,1.79,1.79,0,0,0-1.35-.49,1.73,1.73,0,0,0-1.6.86,4.88,4.88,0,0,0-.53,2.58,4.69,4.69,0,0,0,.56,2.56,1.89,1.89,0,0,0,1.67.87,1.79,1.79,0,0,0,1.33-.53,2.52,2.52,0,0,0,.58-1.53Z"/></clipPath><clipPath id="clip-path-77"><polygon class="cls-2" points="272.66 -847.33 272.66 -859.74 281.67 -859.74 281.67 -856.75 276.28 -856.75 276.28 -855.11 280.84 -855.11 280.84 -852.26 276.28 -852.26 276.28 -850.35 281.9 -850.35 281.9 -847.33 272.66 -847.33"/></clipPath><clipPath id="clip-path-78"><path class="cls-2" d="M222.61-861.62V-874.2h3.45l3.17,5.86a4,4,0,0,1,.31.7c.11.3.23.66.35,1.09a2.84,2.84,0,0,0-.07-.74,4.72,4.72,0,0,1,0-1v-5.91h3.46v12.58H229.8l-3.17-5.8a4.26,4.26,0,0,1-.32-.73c-.12-.31-.23-.67-.35-1.08,0,.23.06.46.07.7s0,.58,0,1v5.9Z"/></clipPath><clipPath id="clip-path-79"><polygon class="cls-2" points="262.73 -861.62 262.73 -870.88 259.47 -870.88 259.47 -874.21 269.55 -874.21 269.55 -870.88 266.36 -870.88 266.36 -861.62 262.73 -861.62"/></clipPath><clipPath id="clip-path-80"><polygon class="cls-2" points="270.8 -861.62 270.8 -874.21 274.43 -874.21 274.43 -869.93 277.82 -869.93 277.82 -874.21 281.45 -874.21 281.45 -861.62 277.82 -861.62 277.82 -866.5 274.43 -866.5 274.43 -861.62 270.8 -861.62"/></clipPath><clipPath id="clip-path-81"><polygon class="cls-2" points="251.85 -875.51 251.85 -885.58 248.6 -885.58 248.6 -889.17 258.65 -889.17 258.65 -885.58 255.47 -885.58 255.47 -875.51 251.85 -875.51"/></clipPath><clipPath id="clip-path-82"><polygon class="cls-2" points="259.89 -875.51 259.89 -889.17 263.52 -889.17 263.52 -884.53 266.9 -884.53 266.9 -889.17 270.52 -889.17 270.52 -875.51 266.9 -875.51 266.9 -880.82 263.52 -880.82 263.52 -875.51 259.89 -875.51"/></clipPath><clipPath id="clip-path-83"><polygon class="cls-2" points="272.65 -875.51 272.65 -889.17 281.67 -889.17 281.67 -885.9 276.28 -885.9 276.28 -884.09 280.84 -884.09 280.84 -880.96 276.28 -880.96 276.28 -878.84 281.9 -878.84 281.9 -875.51 272.65 -875.51"/></clipPath><clipPath id="clip-path-84"><path class="cls-2" d="M252.38-851.53l1.15-4.29,1.13,4.29Zm3-8.16h-3.67l-4,12.41h3.56l.44-1.65h3.59l.42,1.65h3.59Z"/></clipPath><clipPath id="clip-path-85"><path class="cls-2" d="M242.48-865.26a2.12,2.12,0,0,1-1.68.83,2.09,2.09,0,0,1-1.67-.83,6.65,6.65,0,0,1,0-5.25,2.07,2.07,0,0,1,1.67-.84,2.1,2.1,0,0,1,1.68.84,5,5,0,0,1,.53,2.64A5,5,0,0,1,242.48-865.26Zm2.63-7.49a5.41,5.41,0,0,0-4.3-1.77,5.43,5.43,0,0,0-4.3,1.77,7.05,7.05,0,0,0-1.58,4.86,7.08,7.08,0,0,0,1.58,4.85,5.49,5.49,0,0,0,4.3,1.78,5.47,5.47,0,0,0,4.3-1.78,7.07,7.07,0,0,0,1.57-4.85A7.06,7.06,0,0,0,245.11-872.75Z"/></clipPath><clipPath id="clip-path-86"><path class="cls-1" d="M448.49-851h-3.61a2.37,2.37,0,0,0-.52-1.25,2.66,2.66,0,0,0-1.93-.58,2.87,2.87,0,0,0-1.85.44,1.1,1.1,0,0,0-.4.92c0,.54.75,1,2.25,1.3,1.7.37,2.92.7,3.67.95l.5.2a3.46,3.46,0,0,1,2.28,3.26,4.16,4.16,0,0,1-2.21,3.89,4,4,0,0,1-.56.26,8.32,8.32,0,0,1-3.3.63,9.18,9.18,0,0,1-4.52-1,4.39,4.39,0,0,1-1.62-1.58,4.49,4.49,0,0,1-.54-2.23h3.75a1.79,1.79,0,0,0,.69,1.49,3.87,3.87,0,0,0,2.33.54,3,3,0,0,0,1.86-.51,1.2,1.2,0,0,0,.47-.92c0-.58-.74-1-2.21-1.36a25.59,25.59,0,0,1-4.14-1.13,3.45,3.45,0,0,1-2.25-3.3,4.26,4.26,0,0,1,1.18-3.07,5.77,5.77,0,0,1,4.43-1.57,9.28,9.28,0,0,1,3.89.69,1.34,1.34,0,0,1,.23.13,3.94,3.94,0,0,1,1.59,1.52A4.62,4.62,0,0,1,448.49-851Z"/></clipPath><clipPath id="clip-path-87"><path class="cls-1" d="M446.88-860.13a.6.6,0,0,1-.08.78.73.73,0,0,1-.48.21.82.82,0,0,1,.2.12l.34.46.27.46h-.44l-.21-.37a1.8,1.8,0,0,0-.35-.5l-.3-.09h-.22v1h-.37v-2.36h.93a1.38,1.38,0,0,1,.45,0A.55.55,0,0,1,446.88-860.13Zm-.3.38a.31.31,0,0,0,0-.19.27.27,0,0,0-.16-.12.49.49,0,0,0-.24,0h-.56v.69h.56a.59.59,0,0,0,.34-.1A.36.36,0,0,0,446.58-859.75Z"/></clipPath><clipPath id="clip-path-88"><path class="cls-1" d="M448.28-859.29a2.25,2.25,0,0,1-.28,1.07,2.14,2.14,0,0,1-.79.79,2.33,2.33,0,0,1-1.06.28,2.3,2.3,0,0,1-1.06-.28,2,2,0,0,1-.79-.79,2.25,2.25,0,0,1-.28-1.07,2.12,2.12,0,0,1,.28-1.08,1.82,1.82,0,0,1,.81-.79,2.36,2.36,0,0,1,1-.29,2.1,2.1,0,0,1,1,.29,1.85,1.85,0,0,1,.8.79A2.06,2.06,0,0,1,448.28-859.29Zm-.35,0a1.86,1.86,0,0,0-.24-.9,1.7,1.7,0,0,0-.67-.66,1.81,1.81,0,0,0-.87-.24,1.75,1.75,0,0,0-.87.24,1.64,1.64,0,0,0-.67.66,1.76,1.76,0,0,0-.24.9,1.78,1.78,0,0,0,.24.89,1.74,1.74,0,0,0,.66.66,1.81,1.81,0,0,0,.88.23,1.84,1.84,0,0,0,.89-.23,1.79,1.79,0,0,0,.65-.66A1.88,1.88,0,0,0,447.93-859.29Z"/></clipPath><clipPath id="clip-path-89"><polygon class="cls-1" points="427.28 -876.74 437.42 -859.85 427.28 -859.85 421.14 -859.85 411.46 -875.98 404.13 -888.18 411.46 -892.6 416.08 -895.38 427.28 -876.74"/></clipPath><clipPath id="clip-path-90"><path class="cls-1" d="M431.27-847.35v-1.53a4,4,0,0,0-4-3.26,4,4,0,0,0-4,4,4,4,0,0,0,4,4A4.05,4.05,0,0,0,431.27-847.35Zm3.37-.77v6.93h-3.37v-.76a7.27,7.27,0,0,1-4,1.17,7.34,7.34,0,0,1-7.07-7.34,7.33,7.33,0,0,1,7.07-7.33,7.2,7.2,0,0,1,4,1.18v-.82h3.37Z"/></clipPath><clipPath id="clip-path-91"><path class="cls-1" d="M415.45-847.35v-1.53a4,4,0,0,0-3.95-3.26,4,4,0,0,0-4,4,4,4,0,0,0,4,4A4,4,0,0,0,415.45-847.35Zm3.37-.77v6.93h-3.37v-.76a7.38,7.38,0,0,1-3.95,1.17,7.34,7.34,0,0,1-7.07-7.34,7.33,7.33,0,0,1,7.07-7.33,7.22,7.22,0,0,1,3.95,1.18v-5.57h3.37Z"/></clipPath><clipPath id="clip-path-92"><polygon class="cls-1" points="411.46 -866.49 415.43 -859.85 411.46 -859.85 399.16 -859.85 390.13 -874.88 389.73 -875.53 390.13 -875.77 401.69 -882.74 411.46 -866.49"/></clipPath><clipPath id="clip-path-93"><rect class="cls-1" x="399.18" y="-855.45" width="3.67" height="14.26"/></clipPath><clipPath id="clip-path-94"><rect class="cls-1" x="399.18" y="-859.77" width="3.67" height="3.22"/></clipPath><clipPath id="clip-path-95"><path class="cls-1" d="M394.13-847.35v-1.53a4,4,0,0,0-4-3.26,4,4,0,0,0-4,4,4,4,0,0,0,4,4A4.05,4.05,0,0,0,394.13-847.35Zm3.37-.77v6.93h-3.37v-.76a7.36,7.36,0,0,1-4,1.17,7.34,7.34,0,0,1-7.07-7.34,7.33,7.33,0,0,1,7.07-7.33,7.2,7.2,0,0,1,4,1.18v-5.57h3.37Z"/></clipPath><clipPath id="clip-path-96"><polygon class="cls-1" points="390.13 -865.4 393.46 -859.85 390.13 -859.85 377.18 -859.85 375.35 -862.89 387.31 -870.08 390.13 -865.4"/></clipPath><clipPath id="clip-path-97"><path class="cls-1" d="M378.14-847.35v-1.53a4,4,0,0,0-4-3.26,4,4,0,0,0-4,4,4,4,0,0,0,4,4A4.05,4.05,0,0,0,378.14-847.35Zm3.37-.77v6.93h-3.37v-.76a7.36,7.36,0,0,1-4,1.17,7.34,7.34,0,0,1-7.07-7.34,7.33,7.33,0,0,1,7.07-7.33,7.2,7.2,0,0,1,4,1.18v-.82h3.37Z"/></clipPath><clipPath id="clip-path-98"><path class="cls-1" d="M544.86-880H540.2L545-867.37h5.26L555.22-880h-4.54l-2.94,8.21Zm-13.47,5c0-1.89.39-2.94,2.22-2.94s2.27.82,2.27,2.94Zm2.39,5.65c-1.94,0-2.39-.83-2.39-3.16h8.7c0-5.61-1.33-7.93-6.31-7.93-5.43,0-6.9,1.89-6.9,6.75s2,7,6.6,7,6.21-1.66,6.32-4.26h-3.92C535.88-869.85,535.44-869.35,533.78-869.35ZM522.08-880h-4.26v12.64h8.53v-3h-4.27Zm33.64,22.56v-31.2m0,31.2a32.59,32.59,0,0,0-7.76,2.8,38.77,38.77,0,0,0-15.79-3.49,40.1,40.1,0,0,0-17.35,4l-7-34.51h47.93"/></clipPath><clipPath id="clip-path-99"><path class="cls-1" d="M573.57-852.35c0-.16-.23-.28-.78-.28v.61c.39,0,.78,0,.78-.32Zm-1.28,1.66v-2.43H573c.66,0,1.16.17,1.16.78,0,.28-.17.5-.55.72l.44.94h-.44l-.39-.72h-.39v.71Zm2.88-1.21a2,2,0,0,0-2-2.05,2,2,0,0,0-2,2.05,2.09,2.09,0,0,0,2,2,2.07,2.07,0,0,0,1.48-.55A2,2,0,0,0,575.17-851.9Zm-2-2.44a2.46,2.46,0,0,1,2.24,1.18,2.43,2.43,0,0,1,0,2.52,2.46,2.46,0,0,1-2.24,1.18,2.44,2.44,0,0,1-1.73-.71,2.41,2.41,0,0,1-.71-1.73A2.46,2.46,0,0,1,573.12-854.34Zm-3.43-17.06H565.2c0,3,1.66,4.26,6.54,4.26,4.54,0,6.37-1,6.37-4.15,0-5-8.42-2.5-8.42-5.49,0-.72.83-1.34,1.94-1.34a1.73,1.73,0,0,1,1.88,1.56h4.27c-.06-2.66-1.61-3.88-5.88-3.88-4.43,0-6.48,1.22-6.48,4,0,5.49,8.42,2.55,8.42,5.66,0,.94-.5,1.38-1.71,1.38C570.68-869.41,569.8-870,569.69-871.4Zm-5.93-7.87-.22,1.27c1.33-.84,1.88-1.55,1.88-2.49a1.55,1.55,0,0,0-.51-1.22,1.53,1.53,0,0,0-1.26-.39,1.49,1.49,0,0,0-1.2.36,1.5,1.5,0,0,0-.52,1.14C561.93-879.44,562.7-879.27,563.76-879.27Zm-7.32-.83v12.69h4.16V-880.1Zm-.77-8.59H588l-7.59,34.52c-5-2.88-9.53-4.1-16.12-4.1a44.21,44.21,0,0,0-8.59.78"/></clipPath><clipPath id="clip-path-100"><rect class="cls-1" x="672.11" y="-863.43" width="5.64" height="6.9"/></clipPath><clipPath id="clip-path-101"><path class="cls-1" d="M680.17-854.1H669.69v-11.77h10.52Zm-18.21,0h-9.25l.51-2.49h6.86l1.43-6.75h-4.44l-.93,4.4h-2.43l1.41-6.87h9.29Zm-8.08-18.59h5.7v-6.91h-4.42V-882H662v9.32h2.39v2.44H653.88Zm15.86,0h10.45v2.43H669.74Zm1.14-9.36h8.06v2.43h-8.06Zm-23-5.26v38.47h38.39v-38.47Z"/></clipPath><clipPath id="clip-path-102"><path class="cls-1" d="M719-863.82a1.6,1.6,0,0,0-1.6,1.61v4a1.6,1.6,0,0,0,.76,1.49,1.59,1.59,0,0,0,1.68,0,1.59,1.59,0,0,0,.77-1.49v-4A1.62,1.62,0,0,0,719-863.82Z"/></clipPath><clipPath id="clip-path-103"><path class="cls-1" d="M698.34-863.82a1.59,1.59,0,0,0-1.13.47,1.56,1.56,0,0,0-.46,1.14v4a1.59,1.59,0,0,0,1.59,1.59,1.59,1.59,0,0,0,1.59-1.59v-4A1.6,1.6,0,0,0,698.34-863.82Z"/></clipPath><clipPath id="clip-path-104"><path class="cls-1" d="M723.05-858.2a4.09,4.09,0,0,1-4.09,4.08,4.09,4.09,0,0,1-4.09-4.08v-4a4.09,4.09,0,0,1,4.09-4.09,4.09,4.09,0,0,1,4.09,4.09Zm-9.37-11.7H711.3l-3.25-6.79v6.82h-2.46V-882h2.46l3.25,6.88V-882h2.39Zm0,15.75h-8.09v-12.14H708v9.76h5.67ZM700-851.69l-.83-2.5a4.11,4.11,0,0,1-.78.07,4.07,4.07,0,0,1-4-4.08v-4a4,4,0,0,1,2-3.51,4,4,0,0,1,4,0,4,4,0,0,1,2,3.51v4a4.12,4.12,0,0,1-1.19,2.89l1.19,3.62ZM694.32-882h2.45V-874a1.59,1.59,0,0,0,1.59,1.59A1.59,1.59,0,0,0,700-874v-8h2.46v8.13a4,4,0,0,1-4,4h-.14a4,4,0,0,1-4-4Zm23.42,0h2.42v12.15h-2.42Zm-28.25-5.26v38.47h38.39v-38.47Z"/></clipPath><clipPath id="clip-path-105"><path class="cls-1" d="M803-862.94a.7.7,0,0,1-.52-.21.7.7,0,0,1-.22-.51.74.74,0,0,1,.74-.74.74.74,0,0,1,.74.74.7.7,0,0,1-.22.51A.73.73,0,0,1,803-862.94Zm0-1.75a1,1,0,0,0-.94,1,1,1,0,0,0,1,1,1,1,0,0,0,1-1,1,1,0,0,0-.32-.73A1,1,0,0,0,803-864.69Z"/></clipPath><clipPath id="clip-path-106"><polygon class="cls-1" points="813.33 -868.27 808.16 -868.27 808.75 -877.25 805.4 -868.27 800.6 -868.27 808.21 -888.57 813.31 -888.57 812.72 -879.47 816.14 -888.57 820.94 -888.57 813.33 -868.27"/></clipPath><clipPath id="clip-path-107"><polygon class="cls-1" points="813.95 -868.27 821.56 -888.57 826.36 -888.57 818.75 -868.27 813.95 -868.27"/></clipPath><clipPath id="clip-path-108"><path class="cls-1" d="M800.05-875.27c-6.71,7.88-13,18.35-7.45,23.17s12.18,1.91,16.79.07S865-876,865-876c.49-.24.4-.56-.22-.4l-55.5,15C802.26-859.41,794.26-863.69,800.05-875.27Z"/></clipPath><clipPath id="clip-path-109"><path class="cls-1" d="M803-863.77h-.13V-864H803c.08,0,.18,0,.18.12S803.1-863.77,803-863.77Zm.17.18a.27.27,0,0,0,.2-.09.25.25,0,0,0,.07-.2c0-.27-.17-.34-.46-.34h-.42v1.1h.31v-.47l.26.47h.32Z"/></clipPath><clipPath id="clip-path-110"><path class="cls-1" d="M851.22-886.87a.73.73,0,0,1-.72-.74.72.72,0,0,1,.73-.72.73.73,0,0,1,.73.73.74.74,0,0,1-.22.52A.73.73,0,0,1,851.22-886.87Zm0-1.76a1,1,0,0,0-.94,1,1,1,0,0,0,1,1,1,1,0,0,0,1-1,1,1,0,0,0-.32-.73A1,1,0,0,0,851.22-888.63Z"/></clipPath><clipPath id="clip-path-111"><path class="cls-1" d="M851.23-887.69h-.16v-.25h.13c.08,0,.18,0,.18.1S851.32-887.69,851.23-887.69Zm.17.16a.27.27,0,0,0,.2-.09.25.25,0,0,0,.07-.2c0-.27-.17-.33-.46-.33h-.42v1.1h.28v-.47l.26.47h.32Z"/></clipPath><clipPath id="clip-path-112"><path class="cls-1" d="M832.6-869.62l-.31-10.58,7.26-8Zm15.46-15.56,1.29-3.38H834.72l-5,6.08,2.32-6.08h-4.89l-7.55,20.29h4.8l3.22-8.49.26,8.49H842.6l1.4-3.91h-5.63l1.83-4.92h4.62l1.42-3.78h-4.62l1.58-4.27Z"/></clipPath></defs><title>arcteryx</title><path class="cls-115" d="M45.58,62.31a2.45,2.45,0,0,0,.45-.26c.62-.18.88-1,1.59-.89.62-.71,1.51-.8,2.22-1.42,0-.09.09-.18.26-.35.45-.36-.35-.62-.35-.62-.18-.27-.53,0-.53,0-.18.09-.36.26-.54.26-.08.36-.44.36-.7.53a6.51,6.51,0,0,1-1.24.89c-.36.44-.89.53-1.25.89a1.64,1.64,0,0,0-.62.71s-.88.79.27.35l.44-.09Zm-1.06,1.24a.09.09,0,0,1-.09.09v.09a5.21,5.21,0,0,0-1.33,1.51,5.36,5.36,0,0,1-1.51,1.68c-.53,0-.79.53-1.24.71-.09,0-.17-.18-.17-.27a1.77,1.77,0,0,1-.18-1,1.77,1.77,0,0,0,.71-.36l.8-.79c.88-.71,1.68-1.6,2.48-2.31,0,0,.62-.35.53.62Zm-.18-1.77c-1,.35-2.12.35-2.83,1.06-.36.27-1-.09-1.16.36.09.09,0,.26,0,.35H40l.09.71c.88.09,1.33-1,2.13-1.06l.08.09v.26c-.08.09-.26-.17-.44,0a3.9,3.9,0,0,1-1.51,1c-.09.09-.09.35-.26.35l-.09,1c.44.09.8-.27,1.15-.62.09-.09.18-.09.27-.18A19,19,0,0,0,44,62.4s.26.18.35-.62Zm19.77-.18a4,4,0,0,1-1.33,3.1c-.8.18-1.69.8-2.57.27-.54-.27-1.24.09-1.6-.53-.18-.09-.44-.09-.53-.27.09-.26.44-.35.62-.53,1.06.18,2.3,1,3.19.09.35-.18,1-.27,1-.8.09-.35.09-.71.45-.88.26,0,.35-.45.44-.71,0,0,0-1,.36-.8a.5.5,0,0,1,0,.62v.44Zm-7.45-4.87a3.3,3.3,0,0,0-.8.71,5.19,5.19,0,0,1-4,.09c-.18-.27.26-.36,0-.71a.25.25,0,0,1,.35-.09c.18.44.71.18,1.06.26.53.18,1-.17,1.42-.08.36-.18.53-.18.89-.36h.17S56.84,55.84,56.66,56.73ZM83.6,55a.68.68,0,0,0-1.06.18,2.52,2.52,0,0,0-.44.53c-.8.36-1.15,1.42-1.95,1.78-.45.44-1.07.79-1.6,1.33a24.74,24.74,0,0,0-3.45,1c-.8.27-1.69.44-2.49.71-1,.71-2.12.89-3,1.51-.18.17-.53.26-.44.53s.44.09.62.18.62.08.62.44c-.27.18-.71.18-.62.53a7.19,7.19,0,0,0,1.15.62,7.6,7.6,0,0,0,1.68.89c1,.44,2,.8,3,1.24A10.49,10.49,0,0,1,78,67.1a28.63,28.63,0,0,0,2.84.8c.62.26.08.79.17,1.24,0,.26-.26.53-.17.79a4.58,4.58,0,0,0-.45,2.49c-.18.09-.09.26,0,.44A7.22,7.22,0,0,0,80,74.37c-.09,0-.09.08-.18.08-.09.8-.09,1.34-.18,2A1.94,1.94,0,0,0,81,76.4c-.26-.53.18-1,.09-1.59.18-.27.09-.62.18-1a16.42,16.42,0,0,0,.53-4.16c0-.18-.18-.36.09-.53l.18.08c-.09.54.09,1.07,0,1.51.26,1,0,2,.17,3.1.63.36-.26,1.07.45,1.42a.54.54,0,0,0,.26.62c.27.09.62-.09,1-.44.09-1-.45-1.6-.45-2.48-.26-.62-.08-1.15-.44-1.69,0-.53-.26-1.06-.26-1.59-.27-.18-.18-.71-.18-1-.09-.53,0-1.33-.71-1.59a24.79,24.79,0,0,1-3.46-.89c-.71-.18-1.42-.53-2.12-.71l-.8-.26a8.64,8.64,0,0,1-2-.62c-.09-.09-.27-.09-.45-.18a.08.08,0,0,1-.08-.09,12.1,12.1,0,0,1-2-.71c-.27-.44.17-.44.17-.44s1.33.62,1.42.62c.27,0,.36.18.53.18a2.37,2.37,0,0,0,.71.17,12,12,0,0,0,2.75,1.07c.27.09.62.17.89.26.08.18.35.18.53.27a7,7,0,0,1,1.77.53c.35-.18.62.27.89.27.62.35,1.33.09,1.86.53.44.71.26,1.59.62,2.39-.27.53.62.8.26,1.33.18.36.36.8.71.89a.54.54,0,0,0,.62-.18c0-.44-.26-.71-.35-1.06.09-.62-.44-1.16-.36-1.78a2.43,2.43,0,0,0-.53-1.24c-.26-.35-.71-.79-.44-1.33-.09-.17-.35,0-.53-.09a4.92,4.92,0,0,0-1.6-.44A7.08,7.08,0,0,0,79.61,65l-1.5-.26v-.09c-.53.26-1-.45-1.51-.54-.35-.26-1,0-1.33-.35a1.75,1.75,0,0,1-1-.27c-.36,0-1,.09-1.16-.35A5.19,5.19,0,0,0,72,62.84c-.18,0-.26-.09-.35-.09s-.18-.08-.27-.08c-.26,0-.62-.18-.53-.27a2.8,2.8,0,0,1,.8-.27c.09,0,.17-.08.26-.08,1.24-.54,2.57-.89,3.82-1.51.88.09,1.77-.36,2.65-.36,1.07-.7,1.86-2,2.93-2.39.53-.44.88-1.51,1.59-1.15.27-.09.45.09.71.09.18-.27.53-.53.45-.89.09-.26-.45-.8-.45-.8ZM82.19,40.77c.09,0,.09.09.09.27a10.85,10.85,0,0,0,.44,3.37c.35,1.42.62,2.75,1,4.25.09.62-1,.71-.7,1.33.08.62-.27.8-.63,1.24a2.59,2.59,0,0,1,.54.36.72.72,0,0,0,1,.35s.62-.17.53-.71a2.3,2.3,0,0,1,.36-1.33c-.18-.35.09-.79-.18-1.15a7.1,7.1,0,0,0-.53-2.3c0-.53-.27-1-.18-1.42a30,30,0,0,1-.8-4l.18-.27c.44-.08.53.54.89.63.17.62.88.88,1.15,1.41a22,22,0,0,1,2.75,3A21.2,21.2,0,0,1,91.14,49c.35.26.8,0,1.15.26.53-.35,1.6-.08,1.51-1.06.09-.18.26-.18.44-.18.44.27,1,0,1.42-.17A14,14,0,0,0,99,47.33c.26,0,.35-.17.26-.44a.4.4,0,0,0-.44-.26,11.3,11.3,0,0,1-3.46.62l-.09-.09c.09-.36.63-.09.89-.36a7.34,7.34,0,0,0,2.3-.44c.54-.53,1.33.35,1.6-.53.18-.36,1.33-.36.8-.89-.36-.09-.71-.18-.89.27-.71-.18-1.06.53-1.77.53a.31.31,0,0,1-.09-.18,16.77,16.77,0,0,0,2.57-1.24c.09-.09,0-.26-.18-.26-1.24.35-2.3,1-3.45,1.41-.36.18-.62.62-1.07.62-.62.36-1.42.45-2,1.07-.35.09-.62-.09-.88.09a2,2,0,0,1-.89-.8c-1.15-1.24-2.66-2.31-3.9-3.63a18.11,18.11,0,0,1-3.1-2.66l-.71-.54a.8.8,0,0,0-.71.27V40h-.53c-.09-.09-.18-.09-.27-.18a.91.91,0,0,1-.53,0s-.44-.18-.26.36a.89.89,0,0,1-.09.61ZM91.94,48c-.27.09-.18-.17-.36-.26a15.12,15.12,0,0,1-2-2,11.37,11.37,0,0,0-1.06-1c-1.15-.88-2.13-2.21-3.19-3.1a5.49,5.49,0,0,0-1-1.06c-.08-.09,0-.27.09-.36s.45.09.36.27c.88,1.24,2.12,1.68,3.19,3.28.26,0,.18.09.26.26,1.24,1.25,2.66,2.49,4,3.73,0,.17-.18.17-.26.26Z"/><path class="cls-115" d="M71.29,44.5c.53-.18,1.33-.8,1.77-.09l.09-.09c.17,0,.17.27.26.35s.09-.09.18-.09c0-.35.27-.53.53-.79a6.14,6.14,0,0,1,1.42-.53.65.65,0,0,0-.35-.45c0,.09-.18.18-.18.18-.53.09-.71.71-1.24.62l-.09-.27A2.45,2.45,0,0,0,74.56,42c-.17-.35-.61,0-.88-.08a1.19,1.19,0,0,0-1.24-.36c-.44-.53-.89-1.24-1.6-1.24a1.25,1.25,0,0,1-.44-.89c.18-.44.53.09.8.09,1.42.45,2.66,1.78,4.25,1.86.27.63,1,.54,1.51.63.35.44,1,.26,1.51.26.7.36,1.59.18,2.3.44.18.18.18.71.53.54.18.62.62,1,.8,1.5.62.45.35,1.24.44,1.86.09.36-.09.71.27,1.07a1.86,1.86,0,0,1-1,1.59c-.26.62-1.15.36-1.68.62s-.89.45-1.24.89-.71,1.15-.53,1.77a4.33,4.33,0,0,1-.18,1.15,9,9,0,0,0-.27,1.51c-.17.53,0,1.33-.7,1.51-.18-.09-.45-.09-.36-.36-.35-.17,0-.62-.35-.8l.17-1.15c.09-.26.18-.44.27-.71A6.67,6.67,0,0,1,78,50.88c0-.27-.26-.27-.44-.27l-1.51,1.15a3.7,3.7,0,0,0-.62,2,3.17,3.17,0,0,1-.71,1.6c-.09.71.36,1.51,0,2.13-.26.09-.62.35-.88.09a4.28,4.28,0,0,1,.35-3.46c.09-.09.18-.27.27-.36.35-.7.35-1.77,1.24-2.12a.54.54,0,0,0-.09-.36l-.62.36c-.27.17-.53.09-.8.26a7.5,7.5,0,0,0-1,1.86c-.8,1.07-.53,2.75-.89,4.08l-.35.36c-.18.09-.45.09-.54-.09a7.45,7.45,0,0,1,.09-2.4A2.81,2.81,0,0,1,72.17,54v-.27c.09-.62.8-1.06,1.16-1.59l-.09-.27c-.27,0-.27.27-.45.45a4.81,4.81,0,0,0-1.24,1.41,3.86,3.86,0,0,1-.53.71,7.22,7.22,0,0,0-.88,2.31c-.36.62.08,1.42-.45,1.86a1.22,1.22,0,0,1-.8,0A1.46,1.46,0,0,1,69,57.53a15.71,15.71,0,0,0,.18-2,12.2,12.2,0,0,1,1.33-1.87l.8-.79v-.36c-.27-.09-.44.18-.62.36s-.45.53-.62.79c-1.24,1.42-2.57,2.93-2.22,5.06a1.92,1.92,0,0,1-.88.35c-.36-.09-.36-.53-.45-.8.36-.88.09-2,1-2.66-.09-.79.79-1.06,1.06-1.68.18,0,.18-.18.36-.27a.12.12,0,0,1,.17,0,2.53,2.53,0,0,1,.27-.88c-.09-.09-.09-.27-.27-.18a7.61,7.61,0,0,0-1.33,1.06,9.55,9.55,0,0,0-2,3.81,5,5,0,0,1-.53,1.69c-.35,0-.71,0-.88-.18-.18-1.24.44-2.13.79-3.19.18-.27-.08-.71.18-.89a5.64,5.64,0,0,0,1-1.24c.35-.35,1.06-.26,1.15-.79s-.89-.27-.89-.27c-.18.18-.62.09-.62.09a.41.41,0,0,0-.35,0,3.54,3.54,0,0,1-1.33.44,4.6,4.6,0,0,0-.45.53,1.56,1.56,0,0,0-.26,1.51,15.61,15.61,0,0,0-.18,2,4.54,4.54,0,0,1,.27,1.59v.62l.44.18a1,1,0,0,0-.36.62,8.71,8.71,0,0,0-.53,1.24,2.19,2.19,0,0,0-.53,1c0,.8-1,.8-1.51,1.06a18.82,18.82,0,0,1-2.48-.44c-.44-.44-1.06-.35-1.59-.62-1.07-.09-1.86-1-2.75-1.51a16.84,16.84,0,0,1-2.39-1.5,3.16,3.16,0,0,0-1-.36h-.09a1.33,1.33,0,0,0-1.5-.8c-.09.09-.18.09-.27.18a6.38,6.38,0,0,1-2.22,1,.45.45,0,0,1-.62-.09c.09-.62.62-1.15.89-1.78,1.59-.62,3.28.18,4.7.89a6.19,6.19,0,0,0,2,1.15,34.47,34.47,0,0,0,3,2,3.7,3.7,0,0,1,1.68.54,11.09,11.09,0,0,1,1.6.35c.27,0,.62.18.8-.18.44-.8,1.5-1.06,1.42-2.12.88-1.07-.09-2.31,0-3.55a1.33,1.33,0,0,0,.17-1.15c.18-.62.27-1.15.45-1.77.08-.18.62-.63.44-.89-.53-.27-.8.89-1.24.71s.26-.53-.18-.8c0,0-.71.71-1.06,1a.28.28,0,0,0-.09.18h-.36c-.53.62-1.33.62-1.77,1.42a1.51,1.51,0,0,0-.89.27,2.81,2.81,0,0,1-1.24.26,1.33,1.33,0,0,0-.88.36,2.61,2.61,0,0,1-.89.17c-.62.45-1.42.18-2.13.18-.35,0-.08-.62-.53-.71-.26-.71-.53-1.42-.71-2.12-.09-.36-.09-.63-.17-1-.71-1-.18-2.39-1.07-3.28-.35-.09-.53-.53-.62-.88-.44-.36-.35-1-.8-1.25a14.37,14.37,0,0,0-1.15-2l-.17-.09c-.63.35-.36,1.15-.54,1.77-.26.35,0,.8,0,1.24-.09,1.24-.44,2.39-.62,3.63-.26.54-.09,1.33-.35,1.87-.09.08-.18.26-.27.35a.51.51,0,0,1-.62-.18v-.17a22.5,22.5,0,0,0,.27-3.46c.35-.44.26-1.06.44-1.51s.36-1.15.09-1.5c-.53.26-.62.88-.71,1.41-.27.8-.27,1.87-.89,2.57-.08.36-.17.71-.62.8-.62-.26.09-.88.09-1.42.62-.44.36-1.33.45-2s.88-1.33,1.06-2.13c-.27-.27-.62.18-1,.09-.63,1.24-2,.62-2.84,1.33a2.2,2.2,0,0,1-1.42.62c-.27-.27-.27-.45,0-1A1,1,0,0,0,41,47.25a4.64,4.64,0,0,0,2-1.16c.53-.44,1.24-.44,1.78-.88.17,0,.53.09.53-.18-.62-.8.62-.35.79-.89.27-.7,1.07-.53,1.6-.79.18-.09.53-.18.71,0,.71.26.89,1.06,1,1.68-.08.18-.08.44-.44.36l-.53-1.07c-.18.09-.36,0-.44.18-.18.44.35.35.44.62.09.71.71.8,1.06,1.06L50,47.25a25.33,25.33,0,0,1,1.33,2.83,17.66,17.66,0,0,1,1.51,4.43c-.18.62.44,1,.8,1.33a2.43,2.43,0,0,0,2.12-.62,17.1,17.1,0,0,0,2.13-.62,15,15,0,0,0,2-1.5,2.34,2.34,0,0,0,.09-1.16c-.09-.88-.62-.17-.89-.71s.54-.44.18-.88c-.53-1-1.77-.71-2.57-1.24a8.38,8.38,0,0,1-1.24-1.86c-.35-.36-.8-.27-1.24-.36s-.8-1-1.51-1c-.71-.8-1.77-1.07-2.48-1.86-.18-.09-.71-.09-.53-.45-.62-.53-1.42-1-1.95-1.5-.27-.09-.53,0-.8-.18-.09-.71-.88-.53-1.33-.8-.44-.8-1.59-.44-1.86-1.33-1.15,0-1.95-.71-2.92-1a3.89,3.89,0,0,1-1-.62A.89.89,0,0,1,40,37.5a23.43,23.43,0,0,0,2.13,1.06,5.13,5.13,0,0,1,1.24.36c1.24.17,2.12,1.32,3.19,1.77.62-.18.88.53,1.42.71s.7.71,1.15.79a8.73,8.73,0,0,0,1.68,1.07c.44.53.89,1.5,1.69,1.33.62.26.88.88,1.33,1.24.62-.18,1.06.26,1.5.53a1.28,1.28,0,0,0,.62.71c.36.26.62.44.36,1,.35.36.17-.44.62-.35.09,0,.09.09.09.18h.62a6.3,6.3,0,0,1,1.15,1.41c.18.27.44-.26.62.09.62.09.89.8,1.51.8a3.67,3.67,0,0,1,1.68.27c.44.09.36.53.62.79A2.63,2.63,0,0,1,65.08,51c.09,0,.18.09.27.18a3.63,3.63,0,0,0,1.33.26,5.57,5.57,0,0,0,1.24,0,5.46,5.46,0,0,1,1.24,0c.89-.18,1.15.09,1.24.27s.18.09.27.26c.17-.26.17-.62.53-.62a.09.09,0,0,0,.09.09c.09.09.17,0,.17-.09.62,0,.8-.62,1.33-.7.27-.09.45-.45.71-.36.53-.44,1.15,0,1.77-.18,1.07-.26,2.22-.26,3-1.06.26-.09.71.09.88-.27a2.88,2.88,0,0,0,1.24-.44c.63-.35.45-1.06.63-1.59v-.45c-.27-.44,0-1.24-.54-1.59-.7.09-.7-1.07-1.5-1-.53.09-1.07-.18-1.69-.09-.88.71-2.39,1.07-2.66,2.4-.26.17-.62.35-.44.79a.49.49,0,0,1-.53.18c-.36-.18-.18-.71-.27-1a1.59,1.59,0,0,0,.18-.89l-.18.09a.58.58,0,0,1-.88-.18A5.44,5.44,0,0,1,71,46a5.75,5.75,0,0,1-1.24-.62c-.36.09-.62-.27-.89,0A7.13,7.13,0,0,1,68,44.06h.09c-.18,0-.36-.18-.27-.27a.12.12,0,0,1,.18,0,3.14,3.14,0,0,1-.8-2c-.35-.62-.35-1.42-.71-2a10.21,10.21,0,0,1-1.59-3.27c.09-.36.35-.71.71-.63.62.54,1.41.54,2,.89.09.18.36.44,0,.53-.35-.17-1,.27-1.24-.35a.48.48,0,0,0-.44.26.67.67,0,0,0,.44.54c.18.62.71,1.15.8,1.77.44.18.18.8.62,1-.18.36.18.62.09,1.07.36.17.27.71.62,1a3.64,3.64,0,0,0,1.69,2.39,1.26,1.26,0,0,0,.53-.17h-.09a1.45,1.45,0,0,1,.62-.18Z"/><path class="cls-115" d="M70,43.26a.09.09,0,0,0-.09-.09V42.9c.44-.62.71.18,1.24.09a1.63,1.63,0,0,0-1-1.42c0-.35-.62-.44-.71-.88-.35,0-.44-.54-.79-.45-.18.09-.54.18-.54.45a17.38,17.38,0,0,0,1.33,2.83s.89.45.54-.26ZM58.35,89.34v4.79l2.92-4.79ZM57.28,104.5c-.26.62-.53,1.33-.53,1.33a22.47,22.47,0,0,1-4.79.62c-5.31,0-8.77-3.28-8.68-8.07.09-5.14,3.54-8.06,8.77-8a18.45,18.45,0,0,1,4.35.71h.53a6.34,6.34,0,0,0,0,1.41c.09.8.35,1.6.35,2.31,0,.18-.18-.09-.18-.09-.44-1.86-3.45-3.1-5.14-3.1-4,0-6.64,2.57-6.64,6.73C45.41,101.75,48,105,51.7,105c2,0,4.34-.53,5.67-2.21l.35.26s-.17.62-.44,1.42Zm20.83-7.27h3.46a22.54,22.54,0,0,0,2.48,0c.26-.09.44-.35.53-.26a.08.08,0,0,1,.09.08v2.22c-.09,0-.09-.09-.44-.27a23.81,23.81,0,0,0-2.66-.09H78.11v5.41H83a9.21,9.21,0,0,0,1.86-.18c.27-.17.54-.44.63-.35s0,.09,0,.09a14.71,14.71,0,0,1-.18,1.77v.44H77.05c-.71,0-.8.09-1.33.09a.28.28,0,0,1-.18-.09c0-.08.09,0,.27-.44a4.42,4.42,0,0,0,.26-2V93.07a4.42,4.42,0,0,0-.26-1.95c-.18-.45-.27-.36-.27-.45a.28.28,0,0,1,.18-.09c.53,0,.62.09,1.33.09h8v2s.09.09,0,.09-.26-.18-.53-.27a9.89,9.89,0,0,0-1.77-.17l-4.61-.09v5ZM23.87,90.58s3.81,9,5.58,12.85a12,12,0,0,0,1.15,2.22c.36.44.45.44.45.44H29c-.71,0-1.06.09-1.06,0a1.85,1.85,0,0,0-.09-1.33,5.89,5.89,0,0,1-.45-1.06c-1.24-2.75-3.81-8.86-3.81-8.86-.18-.36-.09-.36-.26,0,0,0-2.57,6.11-3.81,8.86a5.89,5.89,0,0,1-.45,1.06,1.85,1.85,0,0,0-.09,1.33c0,.09-.26,0-.88,0h-2l.35-.44a15.5,15.5,0,0,0,1.24-2.22l5.59-12.85c.18-.44.35-.44.62,0ZM67.3,92.45v11.16a6.24,6.24,0,0,1-.18,2l-.27.45c0,.08.18.08.18.08.53,0,.62-.08,1.42-.08.62,0,.8.08,1.33.08,0,0,.09,0,.09-.08s-.18-.18-.27-.54a5.12,5.12,0,0,1-.18-1.86V92.45h2.22a14.29,14.29,0,0,1,2.22.17c.35.09.44.36.53.27a.09.09,0,0,0,.09-.09V90.67H61.8c0,.62-.09,1.69-.09,2.22,0,0-.09.09,0,.09s.27-.18.53-.27a15.13,15.13,0,0,1,2.4-.26Zm36.87,6.11v4.26a13.2,13.2,0,0,1-.27,2.83c-.18.36-.27.36-.27.44s.18,0,.18,0h2.84s.09.09.09,0-.18-.26-.27-.53a10,10,0,0,1-.18-1.86V98.56s4.7-7.35,5.06-7.44a.94.94,0,0,0,.7-.45h-2a6.36,6.36,0,0,0-1.41,0,1.33,1.33,0,0,1-.18,1.24c-.27.45-2.93,4.61-3.1,4.79-.18-.18-2.93-4.25-3.19-4.79a1.34,1.34,0,0,1-.27-1.24c.09,0-.89.09-1.6.09s-2-.09-2-.09.17,0,.62.45,5.23,7.44,5.23,7.44Z"/><path class="cls-115" d="M118.17,98.21s4.79,7.09,5.23,7.44.53.44.53.44-1.33-.08-2-.08-1.68.08-1.68.08a1.31,1.31,0,0,0-.18-1.24c-.27-.53-2.92-4.6-3.1-4.78-.18.18-2.84,4.25-3.1,4.78a1.28,1.28,0,0,0-.18,1.24s-.8-.08-1.51-.08-2,.08-2,.08.18,0,.62-.44S116,98.38,116,98.38s-4.52-7-5.14-7.35-.44-.36-.44-.36h1.86a8.17,8.17,0,0,1,1.6,0,1.36,1.36,0,0,0,.26,1.24c.27.45,2.84,4.43,3,4.61.17-.18,2.74-4.07,3-4.52a1.63,1.63,0,0,0,.27-1.33,8.33,8.33,0,0,1,1.59,0h1.86a3.32,3.32,0,0,0-.71.53c-.44.36-5,7-5,7Zm-25.79.88s3.81,5.5,4.16,5.94a2.74,2.74,0,0,0,2.4,1.33h1.24s-.09-.09-.53-.44c-.8-.71-4.7-6.3-4.7-6.3,1.68-.7,3.54-1.86,3.46-4.43-.09-3.72-2.66-4.69-6.56-4.52H89.72c-.71,0-1-.09-1.51-.09a.25.25,0,0,0-.17.09c0,.09.17.18.17.18.36.44.36,2.57.36,3.28v9.48a6.87,6.87,0,0,1-.18,2c-.27.36-.27.36-.27.44s.09,0,.09,0h2.84a.12.12,0,0,0,.18,0c0-.08-.18-.26-.36-.53a10.25,10.25,0,0,1-.18-2V92.45c0-.71.36-.8,1.24-.8,3,0,4.35,1.5,4.35,3.72,0,2.39-1.33,3.55-3.9,3.72Zm-56.9,0s3.9,5.5,4.16,5.94a2.9,2.9,0,0,0,2.49,1.33h1.15l-.44-.44c-.8-.71-4.7-6.3-4.7-6.3,1.68-.7,3.54-1.86,3.45-4.43-.17-3.72-2.65-4.69-6.55-4.52H32.91c-.8,0-1-.09-1.6-.09a.09.09,0,0,0-.09.09c-.08.09.18.18.18.18a12.41,12.41,0,0,1,.27,3.28c0,1.42.09,8.42.09,9.48a6.59,6.59,0,0,1-.27,2c-.18.36-.27.36-.27.44a.12.12,0,0,0,.18,0h2.75s.18.09.18,0-.18-.26-.27-.53a6,6,0,0,1-.18-2V92.45c0-.71.36-.8,1.24-.8,2.93,0,4.26,1.5,4.35,3.72,0,2.39-1.33,3.55-4,3.72Zm21.18-5.23s.71,1.24.53.09c-.26-1.86.27,1,.27,1L57.1,95l-.44-1.16Z"/></svg>