<svg id="圖層_1" data-name="圖層 1" xmlns="http://www.w3.org/2000/svg" viewBox="0 0 140 140"><defs><style>.cls-1{fill:#b2b2b2;}</style></defs><title>newbalance</title><polygon class="cls-1" points="67.56 44.34 53.33 44.34 51.63 47.31 68.64 48.37 67.56 44.34"/><polygon class="cls-1" points="69.45 51.57 48.41 52.9 46.68 55.87 70.99 57.46 69.45 51.57"/><polygon class="cls-1" points="52.09 77.26 33.63 78.55 31.93 81.51 49.63 81.49 52.09 77.26"/><polygon class="cls-1" points="38.55 70 36.85 72.97 53.98 73.94 57.06 68.6 38.55 70"/><path class="cls-1" d="M77.11,67.45,57.2,68.6l1.52,5.64,14,.85-.44.76-12.92.9,1.22,4.76H85.22c5.91,0,16.57-3.91,17.81-12.15a5.77,5.77,0,0,0-5-6.63c7.67-2.16,10.27-7.3,10.82-9.35h0c1.84-6.76-2.9-9-9.37-9H78.65L76,48.9l11.26.78-.42.76-12.15.78-3.57,6.24,11.28.74L82,59,43.5,61.46l-1.7,3,35.75,2.26ZM91.34,51.61h3.43c1.47,0,2.6,1.73,1.79,3.78s-3.36,3.27-5.73,3.29l-3.57,0Zm-8.2,14.18h4.08c1.24,0,3,1.29,2,3.8-1.06,2.69-4.45,3.64-6.33,3.64H78.86Z"/><path class="cls-1" d="M117.77,93a4.7,4.7,0,0,0-4.65-4.66,4.77,4.77,0,0,0-4.72,4.81,4.71,4.71,0,0,0,4.7,4.74h0a4.57,4.57,0,0,0,4.3-3.11H115a2.16,2.16,0,0,1-2,1.1,2.51,2.51,0,0,1-2.37-1.79h7A5.66,5.66,0,0,0,117.77,93Zm-7.13-.64a2.56,2.56,0,0,1,2.52-2,2.48,2.48,0,0,1,2.47,2Z"/><path class="cls-1" d="M86.53,89.54a3.73,3.73,0,0,0-2.76-1.17,4.7,4.7,0,0,0,0,9.38,3.48,3.48,0,0,0,2.9-1.22V97.7h2V88.8h-2.2Zm-2.45,6.33a2.77,2.77,0,1,1,2.76-2.77A2.76,2.76,0,0,1,84.08,95.87Z"/><path class="cls-1" d="M26.61,88.35a3.07,3.07,0,0,0-2.35,1.09v-.87h-2V97.7h2.19V93.4c0-1.17.1-3,1.71-3s1.68,1.74,1.68,2.86V97.7H30V92.8a5.36,5.36,0,0,0-.45-2.62A3.33,3.33,0,0,0,26.61,88.35Z"/><path class="cls-1" d="M35.58,88.36a4.78,4.78,0,0,0-4.73,4.81,4.72,4.72,0,0,0,4.71,4.74h0a4.58,4.58,0,0,0,4.3-3.11H37.49a2.13,2.13,0,0,1-2,1.1,2.5,2.5,0,0,1-2.37-1.79h7A5.66,5.66,0,0,0,40.23,93,4.7,4.7,0,0,0,35.58,88.36Zm-2.49,4a2.58,2.58,0,0,1,2.53-2,2.48,2.48,0,0,1,2.47,2Z"/><rect class="cls-1" x="76.29" y="85.51" width="2.19" height="12.18"/><path class="cls-1" d="M94.51,88.35a3.09,3.09,0,0,0-2.36,1.09v-.87h-2V97.7h2.19V93.4c0-1.17.1-3,1.71-3s1.68,1.74,1.68,2.86V97.7H97.9V92.8a5.5,5.5,0,0,0-.44-2.62A3.33,3.33,0,0,0,94.51,88.35Z"/><path class="cls-1" d="M103.51,95.9a2.64,2.64,0,0,1-2.67-2.77,2.58,2.58,0,0,1,2.53-2.76,2.17,2.17,0,0,1,2.13,1.25H108a4.73,4.73,0,0,0-4.51-3.27,4.78,4.78,0,1,0,0,9.56,4.88,4.88,0,0,0,3.59-1.6A4,4,0,0,0,108,94.7H105.5A2.3,2.3,0,0,1,103.51,95.9Z"/><polygon class="cls-1" points="48.6 94.14 47.05 88.57 45.29 88.57 43.72 94.14 41.87 88.57 39.93 88.57 42.98 97.7 44.38 97.7 46.16 91.78 47.89 97.7 49.37 97.7 52.29 88.57 50.48 88.57 48.6 94.14"/><path class="cls-1" d="M60.35,88.36a3.79,3.79,0,0,0-2.77,1.17v-4H55.39V97.69h2V96.52a3.46,3.46,0,0,0,2.9,1.23,4.7,4.7,0,0,0,.05-9.39ZM60,95.87A2.77,2.77,0,1,1,62.8,93.1,2.77,2.77,0,0,1,60,95.87Z"/><path class="cls-1" d="M72.63,89.54a3.73,3.73,0,0,0-2.77-1.17,4.7,4.7,0,0,0,0,9.38,3.48,3.48,0,0,0,2.9-1.22V97.7h2V88.8H72.63Zm-2.46,6.33a2.77,2.77,0,1,1,2.77-2.77A2.77,2.77,0,0,1,70.17,95.87Z"/></svg>