<svg id="圖層_1" data-name="圖層 1" xmlns="http://www.w3.org/2000/svg" viewBox="0 0 140 140"><defs><style>.cls-1{fill:gray;}</style></defs><title>promaxtex</title><path class="cls-1" d="M9.07,56.12H130.93V86.51H9.07c0-1.18,0-2.37,0-3.55Zm99.3,6.6,3.06,4.69c.75,1.16,2.07,2.33,2.06,3.48s-1.3,2.4-2.06,3.57c-1.1,1.69-2.22,3.36-3.4,5.14-.17-.4-.27-.65-.37-.9-1.88-5-3.78-10-5.64-15a1.23,1.23,0,0,0-1.39-1,31.44,31.44,0,0,1-3.76,0,1.35,1.35,0,0,0-1.56,1.1c-1.6,4.38-3.26,8.74-4.89,13.11-.36,1-.71,1.91-1.12,3h2.77c2.72,0,2.72,0,3.58-2.59,0-.06.1-.1.21-.22,1.57,0,3.2,0,4.83,0,.66,0,1,.19,1.11.83.06.34.23.66.28,1,.12.79.52,1,1.32,1,3,0,6-.07,9,0a2.2,2.2,0,0,0,2.35-1.3c.71-1.37,1.6-2.64,2.49-4.08,1,1.67,1.92,3.14,2.85,4.59.19.29.5.71.77.72,1.85.06,3.7,0,5.78,0-.34-.54-.54-.89-.76-1.23-1.51-2.3-3-4.61-4.56-6.89a1.17,1.17,0,0,1,0-1.52c1.4-2.1,2.74-4.24,4.1-6.36.21-.34.41-.69.72-1.22-1.79,0-3.34,0-4.89,0a1.52,1.52,0,0,0-1.6,1c-.69,1.37-1.49,2.69-2.31,4.15-.91-1.56-1.7-3-2.53-4.32-.18-.3-.49-.72-.76-.73C112.26,62.69,110.45,62.72,108.37,62.72Zm-39.95,0V79.87h4.34V68.1c.93,2.91,1.7,5.83,2.43,8.75.81,3.22.8,3.2,4,3.1a.92.92,0,0,0,1-.8c.31-1.3.65-2.59,1-3.89q.9-3.49,1.82-7l.25,0V79.84h4.27V62.7c-1.92,0-3.74.09-5.55,0-1.17-.07-1.56.4-1.8,1.46-.63,2.74-1.38,5.45-2.16,8.47-.16-.47-.23-.63-.28-.8-.7-2.7-1.37-5.41-2.11-8.1-.1-.37-.47-.94-.73-1C72.79,62.68,70.64,62.71,68.42,62.71ZM47.83,79.92c-1.81-2.7-2.34-5.87-5.13-7.61l.45-.21a4.76,4.76,0,0,0,3.12-5.27,4.26,4.26,0,0,0-4.28-4c-3.67-.17-7.36-.07-11-.08-.06,0-.11.09-.16.13v17c1.45,0,2.82-.06,4.18,0,1,.07,1.29-.34,1.25-1.32-.06-1.86,0-3.74,0-5.61a2.26,2.26,0,0,1,2.33,1.32c.87,1.62,1.73,3.23,2.64,4.83.16.3.49.7.76.71C43.78,80,45.63,79.92,47.83,79.92Zm18.11-8.56c0-5.72-3.19-9-8.9-9-5.53,0-8.95,3.31-9,8.75,0,5.86,3.19,9.13,9,9.16C62.69,80.3,65.91,77.06,65.94,71.36Zm-47,2.4c1.77-.12,3.37-.13,4.93-.38,2.88-.45,4.38-2.68,4.2-6a4.62,4.62,0,0,0-4.72-4.61c-3.11-.12-6.23-.06-9.35-.06a2.19,2.19,0,0,0-.5.14v17H18.9Z"/><path class="cls-1" d="M98.63,67.22l1.86,6.06H96.8Z"/><path class="cls-1" d="M36.27,69.67V66.26a20.35,20.35,0,0,1,3.34.26,2,2,0,0,1,1.11,1.31,1.19,1.19,0,0,1-1,1.52C38.59,69.55,37.46,69.57,36.27,69.67Z"/><path class="cls-1" d="M60.48,71.59a17.23,17.23,0,0,1-.25,1.92,3,3,0,0,1-3.13,2.6,3,3,0,0,1-3.26-2.57,14.35,14.35,0,0,1,0-4.29,3,3,0,0,1,3.29-2.67,3.25,3.25,0,0,1,3.24,3C60.45,70.13,60.43,70.74,60.48,71.59Z"/><path class="cls-1" d="M19,66.28c1.31.12,2.72-.3,3.46,1.06a2,2,0,0,1-.1,1.78c-.84,1.16-2.14.79-3.36.79Z"/></svg>