<svg id="圖層_1" data-name="圖層 1" xmlns="http://www.w3.org/2000/svg" viewBox="0 0 140 140"><defs><style>.cls-1{fill:gray;}</style></defs><title>nstars</title><path class="cls-1" d="M120.57,74.45c-1.31-.5-2.6-1-3.87-1.48a11,11,0,0,1-1.78-.81,3.07,3.07,0,0,1-1.27-3.81,7,7,0,0,1,6.45-5c4.45-.39,9-.28,13.42-.36a2,2,0,0,1,.72.24,3,3,0,0,1-3,3.51c-2.3.08-4.6,0-6.89,0a7.41,7.41,0,0,0-1.94.23c-.35.1-.88.56-.85.78a1.56,1.56,0,0,0,.78,1.07c.83.37,1.77.53,2.63.84,3.81,1.39,4.48,3.47,2.12,6.9a7.26,7.26,0,0,1-4.38,2.7,17.84,17.84,0,0,1-4,.59c-4.16.07-8.31.06-12.47,0a5.73,5.73,0,0,1-5.46-3c-.72-1.32-1.64-2.53-2.47-3.79l-.39.14a6.08,6.08,0,0,0,.41,1.13,5.51,5.51,0,0,1,.63,4c-.09.51-.58,1.33-.94,1.35-2,.13-4.07.06-6.45.06.44-1.45.73-2.59,1.13-3.68,1.42-3.89,2.92-7.75,4.3-11.66a2,2,0,0,1,2.16-1.55c3.28,0,6.56-.06,9.84,0,3.8.11,5.08,2.51,2.93,5.71a24,24,0,0,1-3.67,3.67,13.47,13.47,0,0,1-1.38,1c.8,2.15,1.54,2.72,3.61,2.73,2.63,0,5.25,0,7.88,0C119.71,76.07,119.76,76,120.57,74.45ZM106,67.33c-1.08-.7-2.12-.88-2.76-.12C102,68.7,101,70.38,99.85,72A17.34,17.34,0,0,0,106,67.33Z"/><path class="cls-1" d="M53.44,67.07c-.36,1.25.16,1.64,1,1.91a24.71,24.71,0,0,1,3.67,1.33c2.17,1.06,2.61,2.52,1.68,4.73A7.27,7.27,0,0,1,54,79.38a40.89,40.89,0,0,1-5.86.51c-2.4.09-4.81,0-7.21,0a15.6,15.6,0,0,1-1.69-.2c.13-2.42,1.28-3.59,3.43-3.6q3.69,0,7.38,0a2.15,2.15,0,0,0,2.27-1.3c-.91-1.34-2.54-1.11-3.74-1.78-.47-.26-1-.38-1.48-.65-1.87-1.07-2.36-2.54-1.5-4.57,1.22-2.87,3.63-4.11,6.52-4.56a31.85,31.85,0,0,1,4.58-.31q10.58,0,21.15,0c.73,0,1.46.13,2.19.2-.25,2.49-1.35,3.56-3.55,3.63-1.1,0-2.19,0-3.28,0a1.84,1.84,0,0,0-1.93,1.42q-1.89,5.2-3.9,10.38c-.2.49-.69,1.2-1.09,1.22-1.93.13-3.88.06-6.11.06a16,16,0,0,1,.42-2.13c1.08-3,2.21-5.93,3.3-8.9a17.55,17.55,0,0,0,.47-2C60.6,66.85,57,66.47,53.44,67.07Z"/><path class="cls-1" d="M32.83,63.1c-.39,1.24-.65,2.21-1,3.16-1.45,4-2.94,8-4.39,11.94-.6,1.63-1,1.85-2.68,1.56a9.14,9.14,0,0,1-7.86-7.32,2.62,2.62,0,0,0-.82-1.33c-.72,1.9-1.41,3.81-2.15,5.7-1.28,3.22-.45,3.12-4.31,3.1-1.17,0-2.34-.08-3.87-.13.44-1.45.73-2.58,1.12-3.68,1.44-3.94,2.93-7.86,4.35-11.81A1.55,1.55,0,0,1,13,63.05a9.08,9.08,0,0,1,8.66,7.18c.1.47.21.93.4,1.73a8,8,0,0,0,.76-1.1c.85-2.24,1.65-4.5,2.53-6.74.16-.41.54-1,.88-1A25.59,25.59,0,0,1,32.83,63.1Z"/><path class="cls-1" d="M95.59,63.35c-1.16,3.17-2.2,6-3.25,8.89-.58,1.58-1.21,3.15-1.72,4.76a3.65,3.65,0,0,1-3.43,2.82c-2.66.12-5.33,0-8.25,0A61.31,61.31,0,0,0,84.36,75c1.57-1.79,2.21-4.15,2.93-6.4L87,68.35,83.6,72.18c-1.9,2.18-3.81,4.36-5.67,6.58a3,3,0,0,1-2.55,1.17c-1.47-.07-2.95,0-4.42,0-.5,0-1-.13-1.88-.25.57-.76.87-1.25,1.25-1.66,3.83-4.26,7.69-8.5,11.52-12.76A5.79,5.79,0,0,1,86.23,63c2.68,0,5.35-.08,8-.08A5.37,5.37,0,0,1,95.59,63.35Z"/><path class="cls-1" d="M33.4,73c0-2.11,1.2-3.4,3.16-3.42h4C40.65,72.93,37.76,74.28,33.4,73Z"/></svg>