<svg id="圖層_1" data-name="圖層 1" xmlns="http://www.w3.org/2000/svg" viewBox="0 0 140 140"><defs><style>.cls-1{fill:gray;}</style></defs><title>singtex</title><path class="cls-1" d="M66.58,73.55c-1.58,0-3.09,0-4.6,0-.62,0-.77-.19-.74-.77,0-1.06,0-2.12,0-3.18,0-.41.11-.54.52-.54,3.42,0,6.84,0,10.26,0,.28,0,.53,0,.52.39,0,2.7-.22,5.35-1.94,7.6a10.14,10.14,0,0,1-7.51,4.16,11.25,11.25,0,0,1-8.74-2.73,9.57,9.57,0,0,1-.33-14c3.74-3.73,11-4.53,16-.33.3.24.33.4,0,.65-1.06.88-2.11,1.76-3.14,2.66-.34.29-.55.07-.82-.09a7.19,7.19,0,0,0-5.66-.93,5.08,5.08,0,0,0-3.94,5.66,5.24,5.24,0,0,0,5.77,4.3,4.87,4.87,0,0,0,4.15-2.45A2.76,2.76,0,0,0,66.58,73.55Z"/><path class="cls-1" d="M43.62,72.82c-.37-3.36-.18-6.73-.24-10.09,0-.67.12-.93.86-.9,1.32.07,2.64,0,4,0,.4,0,.59.07.59.55,0,5.53,0,11.07,0,16.61,0,1.65-1.25,2.34-3,2.3A3.93,3.93,0,0,1,42.42,79c-1.91-3.36-4-6.65-5.72-10.08,0-.06,0-.15-.17-.11.11,1.1.25,2.21.32,3.33.2,2.93,0,5.87.09,8.8,0,.33-.14.41-.43.41-1.49,0-3,0-4.48,0-.31,0-.45-.1-.42-.42,0-.12,0-.24,0-.36V64.82a3.23,3.23,0,0,1,1.9-3.27,3.74,3.74,0,0,1,4.05.85A7.55,7.55,0,0,1,38.77,64Q40.9,67.68,43,71.39A12.16,12.16,0,0,1,43.62,72.82Z"/><path class="cls-1" d="M104.43,79.14c0-.56,0-1.11,0-1.66s.15-.56.57-.59a7.23,7.23,0,0,0,4.28-1.67,5,5,0,0,0-1-8,6.94,6.94,0,0,0-3-.87c-.64,0-.93-.22-.88-.93a25.33,25.33,0,0,0,0-2.89c0-.49.11-.66.64-.64a12,12,0,0,1,8,3.13c.38.36.57.35,1,0a12.06,12.06,0,0,1,8.15-3.12c.42,0,.54.14.53.54,0,1.08,0,2.16,0,3.25,0,.43-.16.58-.58.62a9.54,9.54,0,0,0-2,.34,5,5,0,0,0-4,5,5.09,5.09,0,0,0,4.2,5,12.91,12.91,0,0,0,1.85.28c.36,0,.45.16.45.48,0,1.16,0,2.31,0,3.47,0,.47-.23.48-.58.45-3.13-.18-6-1-8.29-3.31-.21-.22-.36-.23-.58,0A12,12,0,0,1,105,81.28c-.39,0-.57,0-.54-.48S104.43,79.69,104.43,79.14Z"/><path class="cls-1" d="M15.21,61.85c1.41,0,2.59,0,3.77,0,.52,0,.65.16.63.65,0,1,0,2.07,0,3.11,0,.47-.14.61-.61.6-1.8,0-3.61,0-5.41,0a7.1,7.1,0,0,0-1.22.12c-.87.15-1.08.71-.5,1.37a4.86,4.86,0,0,0,1.42,1.08c1.34.71,2.7,1.38,4,2.12a6.07,6.07,0,0,1,3.3,4,5.2,5.2,0,0,1-3.86,6,19.43,19.43,0,0,1-4.37.4c-1.85.06-3.7,0-5.56,0-.59,0-.74-.19-.72-.74,0-1,0-2,0-3,0-.56.18-.69.71-.69,2,0,4,0,6.06,0,.74,0,1.64.08,1.88-.82s-.56-1.32-1.18-1.7c-1.39-.85-2.85-1.6-4.24-2.45a5.86,5.86,0,0,1-3-4,5.11,5.11,0,0,1,4.47-6C12.32,61.81,13.88,61.89,15.21,61.85Z"/><path class="cls-1" d="M94.58,69.09H102c.34,0,.53,0,.53.46q0,1.77,0,3.54c0,.49-.27.46-.6.46H94.48a4,4,0,0,0,2.37,2.57,11.57,11.57,0,0,0,5.14.82c.42,0,.55,0,.55.45,0,1.16,0,2.31,0,3.47,0,.32-.08.49-.44.48-2.59-.12-5.19-.14-7.61-1.29a9.39,9.39,0,0,1-2.78-15A10.58,10.58,0,0,1,98.31,62c1.2-.13,2.4-.16,3.6-.17.45,0,.65.09.63.59,0,1.09,0,2.17,0,3.25,0,.41-.11.54-.53.53a14.28,14.28,0,0,0-4.22.41A4.71,4.71,0,0,0,94.58,69.09Z"/><path class="cls-1" d="M83.05,73.77c0,2.31,0,4.63,0,6.94,0,.51-.15.65-.65.64-1.35,0-2.7,0-4,0-.55,0-.69-.15-.69-.69,0-4.52,0-9,0-13.57,0-.73-.17-1-.91-.91-.94.06-1.88,0-2.82,0-.41,0-.54-.14-.53-.54,0-1.11,0-2.21,0-3.32,0-.38.14-.49.51-.49H86.88c.37,0,.51.1.5.48,0,1.13,0,2.27,0,3.4,0,.4-.16.47-.51.47-1.06,0-2.12,0-3.18,0-.51,0-.65.17-.65.66C83.06,69.15,83.05,71.46,83.05,73.77Z"/><path class="cls-1" d="M28.4,71.6c0,3,0,6,0,9,0,.57-.14.75-.72.73-1.35,0-2.7,0-4,0-.44,0-.59-.11-.59-.57q0-9.19,0-18.4c0-.49.21-.54.61-.53,1.37,0,2.74,0,4.11,0,.53,0,.63.19.63.67C28.39,65.54,28.4,68.57,28.4,71.6Z"/><path class="cls-1" d="M130.39,61.85a3.47,3.47,0,1,1,0,6.94,3.47,3.47,0,1,1,0-6.94Zm-3,3.49a3,3,0,0,0,3,3,3,3,0,0,0-.05-6.09A3,3,0,0,0,127.38,65.34Z"/><path class="cls-1" d="M132.55,67.05c-.55.12-1,.11-1.29-.38a9.62,9.62,0,0,0-1-1.15c-.09-.11-.21-.24-.36-.14a.37.37,0,0,0-.13.3c.05.46-.24,1,.47,1.38h-1.54c.46-.62.41-3.19-.17-3.72.8,0,1.51-.05,2.21,0,.53,0,1.14.14,1.25.85s-.45.86-1,1.1A7,7,0,0,0,132.55,67.05Zm-2.79-2.64c.13.24-.2.71.37.75s1.1-.38,1.05-.82-.45-.75-1-.77C129.56,63.55,129.87,64.08,129.76,64.41Z"/></svg>