<svg id="圖層_1" data-name="圖層 1" xmlns="http://www.w3.org/2000/svg" viewBox="0 0 140 140"><defs><style>.cls-1{fill:#b2b2b2;}</style></defs><title>walmart</title><path class="cls-1" d="M115.55,66.45a1.23,1.23,0,0,0,1.3-.8l.66-7.48c0-.74-.86-1.35-2-1.35s-2,.61-2,1.35l.66,7.48a1.24,1.24,0,0,0,1.3.8h0m-4,2.34a1.22,1.22,0,0,0-.05-1.52L105.31,63c-.64-.37-1.6.08-2.14,1s-.45,2,.19,2.37l6.81,3.17a1.23,1.23,0,0,0,1.34-.73h0m8.09,0a1.24,1.24,0,0,0,1.34.73l6.82-3.17c.64-.37.73-1.43.19-2.37s-1.51-1.39-2.15-1l-6.15,4.32a1.22,1.22,0,0,0,0,1.52h0m-4,7a1.23,1.23,0,0,1,1.3.8l.66,7.48c0,.75-.86,1.35-2,1.35s-2-.6-2-1.35l.66-7.48a1.24,1.24,0,0,1,1.3-.8h0m4-2.34a1.23,1.23,0,0,1,1.34-.72l6.82,3.17c.64.37.73,1.43.19,2.37s-1.51,1.39-2.15,1L119.65,75a1.24,1.24,0,0,1,0-1.53h0m-8.09,0a1.23,1.23,0,0,1-.05,1.53l-6.15,4.31c-.64.37-1.6-.08-2.14-1s-.45-2,.19-2.37l6.81-3.17a1.22,1.22,0,0,1,1.34.72h0"/><path class="cls-1" d="M76.74,75a2.53,2.53,0,0,1-.08.68,2.37,2.37,0,0,1-2.28,1.59,1.54,1.54,0,0,1-1.67-1.65c0-1.71,1.88-2.19,4-2.17V75Zm3.37-3c0-2.82-1.21-5.31-5.29-5.31a9.68,9.68,0,0,0-4.66,1.11l.66,2.28a6.76,6.76,0,0,1,3.4-1c2.07,0,2.41,1.17,2.41,1.93v.17c-4.51,0-7.36,1.56-7.36,4.74a3.75,3.75,0,0,0,4,3.77,4.51,4.51,0,0,0,3.63-1.61H77s.51,2.15,3.36,1.33a18.21,18.21,0,0,1-.2-3V72M9.81,62.82s2.95,12.08,3.42,14c.55,2.29,1.54,3.14,4.39,2.57l1.84-7.49c.47-1.86.78-3.19,1.08-5.08h.05a47.74,47.74,0,0,0,.9,5.08s.75,3.4,1.13,5.19,1.46,2.91,4.25,2.3l4.39-16.61H27.72L26.22,70c-.41,2.09-.77,3.72-1,5.64h-.05c-.26-1.9-.58-3.47-1-5.5l-1.56-7.32H18.88L17.21,70c-.47,2.17-.91,3.92-1.2,5.77H16c-.28-1.74-.67-3.94-1.08-6,0,0-1-5.1-1.34-6.86H9.81M38,75a2.53,2.53,0,0,1-.08.68,2.37,2.37,0,0,1-2.28,1.59,1.54,1.54,0,0,1-1.67-1.65c0-1.71,1.89-2.19,4-2.17V75Zm3.37-3c0-2.82-1.21-5.31-5.28-5.31a9.73,9.73,0,0,0-4.67,1.11L32,70.06a6.77,6.77,0,0,1,3.41-1c2.07,0,2.41,1.17,2.41,1.93v.17c-4.52,0-7.37,1.56-7.37,4.74a3.76,3.76,0,0,0,4,3.77,4.53,4.53,0,0,0,3.63-1.61h.07s.52,2.15,3.36,1.33a18.21,18.21,0,0,1-.2-3V72m5.62,3.92V62.82H43.57V79.43h3.37V75.9M91.06,62.82V75.07a5.17,5.17,0,0,0,1,3.6,3.75,3.75,0,0,0,2.75,1,8.17,8.17,0,0,0,2.44-.36l0-2.64a4.82,4.82,0,0,1-1.28.16c-1.15,0-1.53-.74-1.53-2.26V69.93h2.94V66.75H94.39V62.82H91.06M82.36,67V79.43h3.48V73a5.14,5.14,0,0,1,.07-.92,2.62,2.62,0,0,1,2.75-2.19,7.39,7.39,0,0,1,1,.08V66.75a3.57,3.57,0,0,0-.77-.08,3.68,3.68,0,0,0-3.4,2.64h-.09V67h-3m-33,0V79.43h3.38V72.11a3.2,3.2,0,0,1,.16-1,2.31,2.31,0,0,1,2.06-1.6c1.37,0,2,1.16,2,2.83v7.11h3.39V72a3.38,3.38,0,0,1,.14-1,2.14,2.14,0,0,1,2-1.52c1.39,0,2.06,1.14,2.06,3.1v6.84h3.38V72.08c0-3.88-2-5.41-4.18-5.41a4.56,4.56,0,0,0-2.47.68,5.4,5.4,0,0,0-1.58,1.55h0a3.55,3.55,0,0,0-3.43-2.23,3.94,3.94,0,0,0-3.64,2h0V67H49.31"/><path class="cls-1" d="M129.47,78.82h.05c.06,0,.11,0,.11-.07s0-.07-.11-.07h-.05v.14Zm0,.34h-.18v-.59a1.26,1.26,0,0,1,.26,0,.37.37,0,0,1,.23,0,.13.13,0,0,1,.06.12.16.16,0,0,1-.13.14h0q.09,0,.12.15a.93.93,0,0,0,0,.14h-.2a.33.33,0,0,1,0-.13c0-.06,0-.09-.1-.09h-.06v.22Zm.07-.78a.48.48,0,1,0,.47.47.46.46,0,0,0-.47-.47Zm0-.16a.64.64,0,1,1-.66.63.64.64,0,0,1,.66-.63h0"/></svg>