<svg id="圖層_1" data-name="圖層 1" xmlns="http://www.w3.org/2000/svg" viewBox="0 0 140 140"><defs><style>.cls-1{fill:gray;}</style></defs><title>delicacy</title><path class="cls-1" d="M17,63.27a9.62,9.62,0,0,1,3,.47A6.47,6.47,0,0,1,24.1,67.6a10.32,10.32,0,0,1,0,6.88,6.75,6.75,0,0,1-1.63,2.42A6.6,6.6,0,0,1,20,78.33a9.34,9.34,0,0,1-3,.48H7.2v-.54c.46,0,.68-.17.68-.53V64.33c0-.35-.22-.53-.68-.53v-.53Zm-1.18,13A10.82,10.82,0,0,0,18.25,76,3.82,3.82,0,0,0,20,75.19a3.6,3.6,0,0,0,1-1.61,9.66,9.66,0,0,0,0-5.08,3.55,3.55,0,0,0-1-1.61,3.63,3.63,0,0,0-1.71-.84,10.82,10.82,0,0,0-2.42-.24H11.25V76.27Z"/><path class="cls-1" d="M38.69,68.56c0-.38-.31-.57-.92-.57h-7.2v3h4.55a2.53,2.53,0,0,0,.73-.08c.16,0,.24-.18.24-.39h.53v3.13H36a.28.28,0,0,0-.23-.4,4.34,4.34,0,0,0-.92-.08H30.57v3.49h7.56a1,1,0,0,0,.59-.16A.5.5,0,0,0,39,76h.53v3.1H39c0-.18-.08-.28-.24-.29a4.91,4.91,0,0,0-.59,0H27.29v-.54a.48.48,0,0,0,.29-.1.38.38,0,0,0,.15-.34v-11a.39.39,0,0,0-.15-.34.56.56,0,0,0-.29-.1v-.53H37.77c.61,0,.92-.18.92-.53h.53v3.28Z"/><path class="cls-1" d="M64.3,79.37c0-.3-.09-.47-.28-.51a4.67,4.67,0,0,0-.72,0H49.23v-.54c.6,0,.89-.17.89-.53V64.33c0-.35-.29-.53-.89-.53v-.53h5.09v.53c-.56,0-.83.18-.83.53V76.09H63.3a1.18,1.18,0,0,0,.72-.21.65.65,0,0,0,.28-.56h.53v4.05Z"/><path class="cls-1" d="M66.57,78.27a1.37,1.37,0,0,0,.65-.1.36.36,0,0,0,.18-.34v-11a.37.37,0,0,0-.18-.34,1.52,1.52,0,0,0-.65-.1v-.53h4.49v.53c-.55,0-.82.15-.82.44v11c0,.3.27.44.82.44v.54H66.57Z"/><path class="cls-1" d="M85,69.53a.5.5,0,0,0,0-.12.66.66,0,0,1,0-.15c0-.09-.1-.23-.3-.39a3.51,3.51,0,0,0-.84-.49,7,7,0,0,0-1.29-.4,7.41,7.41,0,0,0-1.62-.16,6.16,6.16,0,0,0-1.93.28,4.46,4.46,0,0,0-1.53.84,3.82,3.82,0,0,0-1,1.39,4.69,4.69,0,0,0-.35,1.89,4.45,4.45,0,0,0,.39,1.9,4.7,4.7,0,0,0,1,1.45,4.48,4.48,0,0,0,1.48.92,4.89,4.89,0,0,0,1.68.31,6.63,6.63,0,0,0,1.63-.21,10.56,10.56,0,0,0,1.5-.49,4.73,4.73,0,0,0,1.11-.6c.29-.22.43-.42.43-.59v-.24a1.26,1.26,0,0,0,0-.3l.33-.29,2.18,3.13-.29.15a1.59,1.59,0,0,0-.51-.15,2,2,0,0,0-.76.27c-.36.17-.81.38-1.35.6a10.87,10.87,0,0,1-1.89.58,11.14,11.14,0,0,1-2.41.23,9.43,9.43,0,0,1-2.68-.38,6.49,6.49,0,0,1-4-3.32,6.3,6.3,0,0,1-.65-2.91,6.23,6.23,0,0,1,.65-2.9,6.41,6.41,0,0,1,1.71-2.08A7.15,7.15,0,0,1,78,66.05a9.58,9.58,0,0,1,2.82-.42,9.29,9.29,0,0,1,2,.21,12.13,12.13,0,0,1,1.64.47l1.18.47a2.07,2.07,0,0,0,.68.21.35.35,0,0,0,.25-.09,1.14,1.14,0,0,1,.23-.15l.35.21-2,2.81Z"/><path class="cls-1" d="M87.66,78.27a.89.89,0,0,0,.58-.34,2.65,2.65,0,0,0,.34-.51l4.4-9.6.28-.67a1.22,1.22,0,0,0,.1-.48c0-.12,0-.2-.07-.23l-.16-.1v-.53h4.46v.53a.66.66,0,0,1-.19.09c-.07,0-.11.1-.11.24a.94.94,0,0,0,.14.42c.08.17.18.36.28.58l4.78,10a1.1,1.1,0,0,0,.33.39,1.3,1.3,0,0,0,.38.17v.54H99v-.45a.67.67,0,0,0,.31-.09.34.34,0,0,0,.16-.32.88.88,0,0,0-.06-.33c0-.09-.09-.22-.15-.38l-.8-1.68H92.15l-.82,1.59c-.08.16-.15.3-.2.43a1.21,1.21,0,0,0-.07.34c0,.16,0,.26.15.29a1.11,1.11,0,0,0,.41.06v.54h-4Zm9.87-4.9-2.39-5-2.1,5Z"/><path class="cls-1" d="M114.84,69.53a.5.5,0,0,0,0-.12.66.66,0,0,1,0-.15c0-.09-.1-.23-.3-.39a3.15,3.15,0,0,0-.84-.49,6.92,6.92,0,0,0-1.28-.4,7.51,7.51,0,0,0-1.63-.16,6.16,6.16,0,0,0-1.93.28,4.41,4.41,0,0,0-1.52.84,3.73,3.73,0,0,0-1,1.39,4.86,4.86,0,0,0-.35,1.89,4.31,4.31,0,0,0,.4,1.9,4.4,4.4,0,0,0,1.05,1.45,4.34,4.34,0,0,0,1.47.92,4.91,4.91,0,0,0,1.69.31,6.55,6.55,0,0,0,1.62-.21,11.15,11.15,0,0,0,1.51-.49,4.85,4.85,0,0,0,1.1-.6c.29-.22.43-.42.43-.59v-.24a1.26,1.26,0,0,0,0-.3l.33-.29,2.18,3.13-.29.15a1.63,1.63,0,0,0-.5-.15,2,2,0,0,0-.77.27c-.36.17-.8.38-1.35.6a10.87,10.87,0,0,1-1.89.58,11,11,0,0,1-2.4.23,9.5,9.5,0,0,1-2.69-.38,6.56,6.56,0,0,1-4-3.32,6.3,6.3,0,0,1-.65-2.91,6.23,6.23,0,0,1,.65-2.9,6.44,6.44,0,0,1,1.72-2.08,7.1,7.1,0,0,1,2.43-1.25,9.63,9.63,0,0,1,2.82-.42,9.39,9.39,0,0,1,2.06.21,12.57,12.57,0,0,1,1.64.47l1.18.47a1.94,1.94,0,0,0,.68.21.38.38,0,0,0,.25-.09,1.07,1.07,0,0,1,.22-.15l.35.21-2,2.81Z"/><path class="cls-1" d="M118.89,66.84a1.27,1.27,0,0,0-.51-.38,1.45,1.45,0,0,0-.56-.12v-.53h4.88v.53a.77.77,0,0,0-.33.1.32.32,0,0,0-.18.28.52.52,0,0,0,.12.33l.27.35,3,3.9,2.63-3.66.4-.58a.62.62,0,0,0,.13-.37.28.28,0,0,0-.15-.29.72.72,0,0,0-.29-.06v-.53h4.52v.53a1.18,1.18,0,0,0-.78.4,8.06,8.06,0,0,0-.76.81l-4.52,5.85v4.43c0,.3.19.44.56.44v.54h-3.92v-.54c.35,0,.53-.14.53-.44V73.28Z"/></svg>