<svg id="圖層_1" data-name="圖層 1" xmlns="http://www.w3.org/2000/svg" xmlns:xlink="http://www.w3.org/1999/xlink" viewBox="0 0 140 140"><defs><style>.cls-1,.cls-2{fill:none;}.cls-2{clip-rule:evenodd;}.cls-3{clip-path:url(#clip-path);}.cls-4{clip-path:url(#clip-path-2);}.cls-5{clip-path:url(#clip-path-3);}.cls-6{clip-path:url(#clip-path-4);}.cls-7{clip-path:url(#clip-path-5);}.cls-8{clip-path:url(#clip-path-6);}.cls-9{clip-path:url(#clip-path-7);}.cls-10{clip-path:url(#clip-path-8);}.cls-11{clip-path:url(#clip-path-9);}.cls-12{clip-path:url(#clip-path-10);}.cls-13{clip-path:url(#clip-path-11);}.cls-14{clip-path:url(#clip-path-12);}.cls-15{clip-path:url(#clip-path-13);}.cls-16{clip-path:url(#clip-path-14);}.cls-17{clip-path:url(#clip-path-15);}.cls-18{clip-path:url(#clip-path-16);}.cls-19{clip-path:url(#clip-path-17);}.cls-20{clip-path:url(#clip-path-18);}.cls-21{clip-path:url(#clip-path-19);}.cls-22{clip-path:url(#clip-path-20);}.cls-23{clip-path:url(#clip-path-21);}.cls-24{clip-path:url(#clip-path-22);}.cls-25{clip-path:url(#clip-path-23);}.cls-26{clip-path:url(#clip-path-24);}.cls-27{clip-path:url(#clip-path-25);}.cls-28{clip-path:url(#clip-path-26);}.cls-29{clip-path:url(#clip-path-27);}.cls-30{clip-path:url(#clip-path-28);}.cls-31{clip-path:url(#clip-path-29);}.cls-32{clip-path:url(#clip-path-30);}.cls-33{clip-path:url(#clip-path-31);}.cls-34{clip-path:url(#clip-path-32);}.cls-35{clip-path:url(#clip-path-33);}.cls-36{clip-path:url(#clip-path-34);}.cls-37{clip-path:url(#clip-path-35);}.cls-38{clip-path:url(#clip-path-36);}.cls-39{clip-path:url(#clip-path-37);}.cls-40{clip-path:url(#clip-path-38);}.cls-41{clip-path:url(#clip-path-39);}.cls-42{clip-path:url(#clip-path-40);}.cls-43{clip-path:url(#clip-path-41);}.cls-44{clip-path:url(#clip-path-42);}.cls-45{clip-path:url(#clip-path-43);}.cls-46{clip-path:url(#clip-path-44);}.cls-47{clip-path:url(#clip-path-45);}.cls-48{clip-path:url(#clip-path-46);}.cls-49{clip-path:url(#clip-path-47);}.cls-50{clip-path:url(#clip-path-48);}.cls-51{clip-path:url(#clip-path-49);}.cls-52{clip-path:url(#clip-path-50);}.cls-53{clip-path:url(#clip-path-51);}.cls-54{clip-path:url(#clip-path-52);}.cls-55{clip-path:url(#clip-path-53);}.cls-56{clip-path:url(#clip-path-54);}.cls-57{clip-path:url(#clip-path-55);}.cls-58{clip-path:url(#clip-path-56);}.cls-59{clip-path:url(#clip-path-57);}.cls-60{clip-path:url(#clip-path-58);}.cls-61{clip-path:url(#clip-path-59);}.cls-62{clip-path:url(#clip-path-60);}.cls-63{clip-path:url(#clip-path-61);}.cls-64{clip-path:url(#clip-path-62);}.cls-65{clip-path:url(#clip-path-63);}.cls-66{clip-path:url(#clip-path-64);}.cls-67{clip-path:url(#clip-path-65);}.cls-68{clip-path:url(#clip-path-66);}.cls-69{clip-path:url(#clip-path-67);}.cls-70{clip-path:url(#clip-path-68);}.cls-71{clip-path:url(#clip-path-69);}.cls-72{clip-path:url(#clip-path-70);}.cls-73{clip-path:url(#clip-path-71);}.cls-74{clip-path:url(#clip-path-72);}.cls-75{clip-path:url(#clip-path-73);}.cls-76{clip-path:url(#clip-path-74);}.cls-77{clip-path:url(#clip-path-75);}.cls-78{clip-path:url(#clip-path-76);}.cls-79{clip-path:url(#clip-path-77);}.cls-80{clip-path:url(#clip-path-78);}.cls-81{clip-path:url(#clip-path-79);}.cls-82{clip-path:url(#clip-path-80);}.cls-83{clip-path:url(#clip-path-81);}.cls-84{clip-path:url(#clip-path-82);}.cls-85{clip-path:url(#clip-path-83);}.cls-86{clip-path:url(#clip-path-84);}.cls-87{clip-path:url(#clip-path-85);}.cls-88{clip-path:url(#clip-path-86);}.cls-89{clip-path:url(#clip-path-87);}.cls-90{clip-path:url(#clip-path-88);}.cls-91{clip-path:url(#clip-path-89);}.cls-92{clip-path:url(#clip-path-90);}.cls-93{clip-path:url(#clip-path-91);}.cls-94{clip-path:url(#clip-path-92);}.cls-95{clip-path:url(#clip-path-93);}.cls-96{clip-path:url(#clip-path-94);}.cls-97{clip-path:url(#clip-path-95);}.cls-98{clip-path:url(#clip-path-96);}.cls-99{clip-path:url(#clip-path-97);}.cls-100{clip-path:url(#clip-path-98);}.cls-101{clip-path:url(#clip-path-99);}.cls-102{clip-path:url(#clip-path-100);}.cls-103{clip-path:url(#clip-path-101);}.cls-104{clip-path:url(#clip-path-102);}.cls-105{clip-path:url(#clip-path-103);}.cls-106{clip-path:url(#clip-path-104);}.cls-107{clip-path:url(#clip-path-105);}.cls-108{clip-path:url(#clip-path-106);}.cls-109{clip-path:url(#clip-path-107);}.cls-110{clip-path:url(#clip-path-108);}.cls-111{clip-path:url(#clip-path-109);}.cls-112{clip-path:url(#clip-path-110);}.cls-113{clip-path:url(#clip-path-111);}.cls-114{clip-path:url(#clip-path-112);}.cls-115{fill:#b2b2b2;}</style><clipPath id="clip-path"><rect class="cls-1" x="35.88" y="-1272.64" width="1024" height="700"/></clipPath><clipPath id="clip-path-2"><path class="cls-2" d="M282.7-802.83l3.37,0c12.31.85,27.08,12.2,27.08,28.88v13.07h-12V-774c0-8.14-6.32-14.87-15.13-15.46H282.7Z"/></clipPath><clipPath id="clip-path-3"><path class="cls-2" d="M282.7-788.14H286c8.54,0,14,8.35,13.82,14.15v13.06h-9.16v-10.54c-.13-2.65-1.74-4.1-4.68-4.15H282.7Z"/></clipPath><clipPath id="clip-path-4"><path class="cls-2" d="M282.7-774h3.05c2.39,0,3.42,1.19,3.42,3.82v9.25H282.7Z"/></clipPath><clipPath id="clip-path-5"><polygon class="cls-2" points="239.58 -761.27 239.58 -773.68 248.11 -773.68 248.11 -770.55 243.2 -770.55 243.2 -768.64 247.11 -768.64 247.11 -765.64 243.2 -765.64 243.2 -761.27 239.58 -761.27"/></clipPath><clipPath id="clip-path-6"><path class="cls-2" d="M267.7-766.08h3.43a5.48,5.48,0,0,1-1.57,3.8,5.34,5.34,0,0,1-3.83,1.35,5.44,5.44,0,0,1-4.27-1.71,7,7,0,0,1-1.58-4.82,7,7,0,0,1,1.54-4.79,5.35,5.35,0,0,1,4.2-1.75,5.43,5.43,0,0,1,3.88,1.36,5.32,5.32,0,0,1,1.57,3.71H267.6a2.21,2.21,0,0,0-.56-1.43,1.83,1.83,0,0,0-1.35-.49,1.76,1.76,0,0,0-1.6.86,4.88,4.88,0,0,0-.53,2.58,4.67,4.67,0,0,0,.56,2.56,1.87,1.87,0,0,0,1.67.87,1.75,1.75,0,0,0,1.33-.53,2.49,2.49,0,0,0,.58-1.52Z"/></clipPath><clipPath id="clip-path-7"><polygon class="cls-2" points="272.66 -761.27 272.66 -773.68 281.67 -773.68 281.67 -770.7 276.28 -770.7 276.28 -769.05 280.84 -769.05 280.84 -766.21 276.28 -766.21 276.28 -764.29 281.9 -764.29 281.9 -761.27 272.66 -761.27"/></clipPath><clipPath id="clip-path-8"><path class="cls-2" d="M222.61-775.56v-12.59h3.45l3.17,5.86a4,4,0,0,1,.31.7c.11.3.23.66.35,1.09a2.84,2.84,0,0,0-.07-.74,4.72,4.72,0,0,1,0-1v-5.91h3.46v12.59H229.8l-3.17-5.81a4.26,4.26,0,0,1-.32-.73c-.12-.31-.23-.67-.35-1.08,0,.23.06.46.07.7s0,.58,0,1v5.9Z"/></clipPath><clipPath id="clip-path-9"><polygon class="cls-2" points="262.73 -775.56 262.73 -784.83 259.47 -784.83 259.47 -788.15 269.55 -788.15 269.55 -784.83 266.36 -784.83 266.36 -775.56 262.73 -775.56"/></clipPath><clipPath id="clip-path-10"><polygon class="cls-2" points="270.8 -775.56 270.8 -788.15 274.43 -788.15 274.43 -783.88 277.82 -783.88 277.82 -788.15 281.45 -788.15 281.45 -775.56 277.82 -775.56 277.82 -780.44 274.43 -780.44 274.43 -775.56 270.8 -775.56"/></clipPath><clipPath id="clip-path-11"><polygon class="cls-2" points="251.85 -789.46 251.85 -799.52 248.6 -799.52 248.6 -803.12 258.65 -803.12 258.65 -799.52 255.47 -799.52 255.47 -789.46 251.85 -789.46"/></clipPath><clipPath id="clip-path-12"><polygon class="cls-2" points="259.89 -789.46 259.89 -803.12 263.52 -803.12 263.52 -798.48 266.9 -798.48 266.9 -803.12 270.52 -803.12 270.52 -789.46 266.9 -789.46 266.9 -794.76 263.52 -794.76 263.52 -789.46 259.89 -789.46"/></clipPath><clipPath id="clip-path-13"><polygon class="cls-2" points="272.65 -789.46 272.65 -803.12 281.67 -803.12 281.67 -799.85 276.28 -799.85 276.28 -798.03 280.84 -798.03 280.84 -794.9 276.28 -794.9 276.28 -792.78 281.9 -792.78 281.9 -789.46 272.65 -789.46"/></clipPath><clipPath id="clip-path-14"><path class="cls-2" d="M252.38-765.48l1.15-4.29,1.13,4.29Zm3-8.16h-3.67l-4,12.41h3.56l.44-1.65h3.59l.42,1.65h3.59Z"/></clipPath><clipPath id="clip-path-15"><path class="cls-2" d="M242.48-779.21a2.12,2.12,0,0,1-1.68.83,2.09,2.09,0,0,1-1.67-.83,6.65,6.65,0,0,1,0-5.25,2.07,2.07,0,0,1,1.67-.84,2.1,2.1,0,0,1,1.68.84,5,5,0,0,1,.53,2.64A5,5,0,0,1,242.48-779.21Zm2.63-7.49a5.48,5.48,0,0,0-4.3-1.77,5.46,5.46,0,0,0-4.3,1.77,7.07,7.07,0,0,0-1.58,4.86,7.08,7.08,0,0,0,1.58,4.85,5.46,5.46,0,0,0,4.3,1.78,5.44,5.44,0,0,0,4.3-1.78,7.07,7.07,0,0,0,1.57-4.85A7.08,7.08,0,0,0,245.11-786.7Z"/></clipPath><clipPath id="clip-path-16"><path class="cls-2" d="M254.78-783a2,2,0,0,1-1.2.26h-1.65v-2.36h1.56a2.17,2.17,0,0,1,1.29.26,1.17,1.17,0,0,1,.33.93A1.14,1.14,0,0,1,254.78-783Zm3.78,6.18-.07-1.82a3.76,3.76,0,0,0-.46-1.92,2.2,2.2,0,0,0-1.38-.88,3.09,3.09,0,0,0,1.38-1.2,3.9,3.9,0,0,0,.44-1.92,3.29,3.29,0,0,0-1.08-2.77,6,6,0,0,0-3.63-.85h-5.42v12.62h3.59v-4.34h1.54a1.48,1.48,0,0,1,1.2.4,2.13,2.13,0,0,1,.35,1.37v1.26a2.26,2.26,0,0,0,0,.52,3.86,3.86,0,0,0,.15.79h3.71V-776C258.68-776,258.57-776.31,258.56-776.82Z"/></clipPath><clipPath id="clip-path-17"><path class="cls-1" d="M448.49-765h-3.61a2.37,2.37,0,0,0-.52-1.25,2.66,2.66,0,0,0-1.93-.58,2.87,2.87,0,0,0-1.85.44,1.13,1.13,0,0,0-.4.92c0,.54.75,1,2.25,1.3,1.7.37,2.92.7,3.67,1l.5.2a3.47,3.47,0,0,1,2.28,3.26,4.14,4.14,0,0,1-2.21,3.89,5.77,5.77,0,0,1-.56.27,8.31,8.31,0,0,1-3.3.62,9.18,9.18,0,0,1-4.52-1,4.39,4.39,0,0,1-1.62-1.58,4.49,4.49,0,0,1-.54-2.23h3.75a1.77,1.77,0,0,0,.69,1.49,3.87,3.87,0,0,0,2.33.54,2.86,2.86,0,0,0,1.86-.51,1.2,1.2,0,0,0,.47-.92c0-.58-.74-1-2.21-1.36a25.59,25.59,0,0,1-4.14-1.13,3.45,3.45,0,0,1-2.25-3.3,4.26,4.26,0,0,1,1.18-3.07,5.77,5.77,0,0,1,4.43-1.57,9.28,9.28,0,0,1,3.89.69,1.34,1.34,0,0,1,.23.13,4,4,0,0,1,1.59,1.52A4.62,4.62,0,0,1,448.49-765Z"/></clipPath><clipPath id="clip-path-18"><path class="cls-1" d="M446.88-774.08a.6.6,0,0,1-.08.78.68.68,0,0,1-.48.21.82.82,0,0,1,.2.12l.34.46.27.46h-.44l-.21-.37a1.8,1.8,0,0,0-.35-.5l-.3-.09h-.22v1h-.37v-2.36h.93a1.74,1.74,0,0,1,.45.06A.58.58,0,0,1,446.88-774.08Zm-.3.38a.31.31,0,0,0,0-.19.31.31,0,0,0-.16-.12h-.8v.69h.56a.59.59,0,0,0,.34-.1A.36.36,0,0,0,446.58-773.7Z"/></clipPath><clipPath id="clip-path-19"><path class="cls-1" d="M448.28-773.24a2.25,2.25,0,0,1-.28,1.07,2.14,2.14,0,0,1-.79.79,2.21,2.21,0,0,1-1.06.28,2.18,2.18,0,0,1-1.06-.28,2,2,0,0,1-.79-.79,2.25,2.25,0,0,1-.28-1.07,2.15,2.15,0,0,1,.28-1.08,1.82,1.82,0,0,1,.81-.79,2.36,2.36,0,0,1,1-.29,2.1,2.1,0,0,1,1,.29,1.85,1.85,0,0,1,.8.79A2.09,2.09,0,0,1,448.28-773.24Zm-.35,0a1.86,1.86,0,0,0-.24-.9,1.7,1.7,0,0,0-.67-.66,1.81,1.81,0,0,0-.87-.24,1.75,1.75,0,0,0-.87.24,1.64,1.64,0,0,0-.67.66,1.76,1.76,0,0,0-.24.9,1.75,1.75,0,0,0,.24.89,1.68,1.68,0,0,0,.66.66,1.81,1.81,0,0,0,.88.23,1.84,1.84,0,0,0,.89-.23,1.79,1.79,0,0,0,.65-.66A1.85,1.85,0,0,0,447.93-773.24Z"/></clipPath><clipPath id="clip-path-20"><polygon class="cls-1" points="427.28 -790.68 437.42 -773.79 427.28 -773.79 421.14 -773.79 411.46 -789.92 404.13 -802.13 411.46 -806.54 416.08 -809.32 427.28 -790.68"/></clipPath><clipPath id="clip-path-21"><path class="cls-1" d="M431.27-761.3v-1.53a4,4,0,0,0-4-3.26,4,4,0,0,0-4,4,4,4,0,0,0,4,4A4.06,4.06,0,0,0,431.27-761.3Zm3.37-.76v6.92h-3.37v-.76a7.27,7.27,0,0,1-4,1.17,7.34,7.34,0,0,1-7.07-7.34,7.33,7.33,0,0,1,7.07-7.33,7.2,7.2,0,0,1,4,1.18V-769h3.37Z"/></clipPath><clipPath id="clip-path-22"><path class="cls-1" d="M415.45-761.3v-1.53a4,4,0,0,0-3.95-3.26,4,4,0,0,0-4,4,4,4,0,0,0,4,4A4.05,4.05,0,0,0,415.45-761.3Zm3.37-.76v6.92h-3.37v-.76a7.3,7.3,0,0,1-3.95,1.17,7.34,7.34,0,0,1-7.07-7.34,7.33,7.33,0,0,1,7.07-7.33,7.22,7.22,0,0,1,3.95,1.18v-5.57h3.37Z"/></clipPath><clipPath id="clip-path-23"><polygon class="cls-1" points="411.46 -780.43 415.43 -773.79 411.46 -773.79 399.16 -773.79 390.13 -788.83 389.73 -789.48 390.13 -789.72 401.69 -796.68 411.46 -780.43"/></clipPath><clipPath id="clip-path-24"><rect class="cls-1" x="399.18" y="-769.4" width="3.67" height="14.26"/></clipPath><clipPath id="clip-path-25"><rect class="cls-1" x="399.18" y="-773.72" width="3.67" height="3.22"/></clipPath><clipPath id="clip-path-26"><path class="cls-1" d="M394.13-761.3v-1.53a4,4,0,0,0-4-3.26,4,4,0,0,0-4,4,4,4,0,0,0,4,4A4.06,4.06,0,0,0,394.13-761.3Zm3.37-.76v6.92h-3.37v-.76a7.36,7.36,0,0,1-4,1.17,7.34,7.34,0,0,1-7.07-7.34,7.33,7.33,0,0,1,7.07-7.33,7.2,7.2,0,0,1,4,1.18v-5.57h3.37Z"/></clipPath><clipPath id="clip-path-27"><polygon class="cls-1" points="390.13 -779.35 393.46 -773.79 390.13 -773.79 377.18 -773.79 375.35 -776.84 387.31 -784.02 390.13 -779.35"/></clipPath><clipPath id="clip-path-28"><path class="cls-1" d="M378.14-761.3v-1.53a4,4,0,0,0-4-3.26,4,4,0,0,0-4,4,4,4,0,0,0,4,4A4.06,4.06,0,0,0,378.14-761.3Zm3.37-.76v6.92h-3.37v-.76a7.27,7.27,0,0,1-4,1.17,7.34,7.34,0,0,1-7.07-7.34,7.33,7.33,0,0,1,7.07-7.33,7.2,7.2,0,0,1,4,1.18V-769h3.37Z"/></clipPath><clipPath id="clip-path-29"><path class="cls-1" d="M544.86-793.95H540.2L545-781.31h5.26l4.93-12.64h-4.54l-2.94,8.21Zm-13.47,5c0-1.89.39-2.94,2.22-2.94s2.27.83,2.27,2.94Zm2.39,5.65c-1.94,0-2.39-.83-2.39-3.16h8.7c0-5.6-1.33-7.93-6.31-7.93-5.43,0-6.9,1.89-6.9,6.75s2,7,6.6,7,6.21-1.66,6.32-4.26h-3.92C535.88-783.8,535.44-783.3,533.78-783.3ZM522.08-794h-4.26v12.64h8.53v-3h-4.27Zm33.64,22.56v-31.2m0,31.2a33.49,33.49,0,0,0-7.76,2.8,38.77,38.77,0,0,0-15.79-3.49,40.25,40.25,0,0,0-17.35,4l-7-34.51h47.93"/></clipPath><clipPath id="clip-path-30"><path class="cls-1" d="M573.57-766.3c0-.16-.23-.28-.78-.28v.61c.39,0,.78,0,.78-.32Zm-1.28,1.66v-2.42H573c.66,0,1.16.16,1.16.77,0,.28-.17.5-.55.72l.44.94h-.44l-.39-.72h-.39v.71Zm2.88-1.21a2,2,0,0,0-2-2,2,2,0,0,0-2,2,2.08,2.08,0,0,0,2,2,2,2,0,0,0,1.48-.55A2,2,0,0,0,575.17-765.85Zm-2-2.43a2.43,2.43,0,0,1,2.24,1.17,2.45,2.45,0,0,1,0,2.53,2.45,2.45,0,0,1-2.24,1.17,2.44,2.44,0,0,1-1.73-.71,2.39,2.39,0,0,1-.71-1.73A2.45,2.45,0,0,1,573.12-768.28Zm-3.43-17.07H565.2c0,3,1.66,4.26,6.54,4.26,4.54,0,6.37-1,6.37-4.15,0-5-8.42-2.5-8.42-5.49,0-.72.83-1.33,1.94-1.33a1.73,1.73,0,0,1,1.88,1.55h4.27c-.06-2.66-1.61-3.88-5.88-3.88-4.43,0-6.48,1.22-6.48,4,0,5.49,8.42,2.55,8.42,5.66,0,.94-.5,1.38-1.71,1.38C570.68-783.36,569.8-783.91,569.69-785.35Zm-5.93-7.87-.22,1.27c1.33-.83,1.88-1.55,1.88-2.49a1.57,1.57,0,0,0-.51-1.22,1.53,1.53,0,0,0-1.26-.39,1.49,1.49,0,0,0-1.2.36,1.51,1.51,0,0,0-.52,1.14C561.93-793.39,562.7-793.22,563.76-793.22Zm-7.32-.83v12.69h4.16V-794Zm-.77-8.59H588l-7.59,34.52c-5-2.88-9.53-4.1-16.12-4.1a44.21,44.21,0,0,0-8.59.78"/></clipPath><clipPath id="clip-path-31"><path class="cls-2" d="M282.7-942.83l3.37,0c12.31.85,27.08,12.2,27.08,28.88v13.07h-12V-914c0-8.14-6.32-14.87-15.13-15.46H282.7Z"/></clipPath><clipPath id="clip-path-32"><path class="cls-2" d="M282.7-928.14H286c8.54,0,14,8.35,13.82,14.15v13.06h-9.16v-10.54c-.13-2.65-1.74-4.1-4.68-4.15H282.7Z"/></clipPath><clipPath id="clip-path-33"><path class="cls-2" d="M282.7-914h3.05c2.39,0,3.42,1.19,3.42,3.82v9.25H282.7Z"/></clipPath><clipPath id="clip-path-34"><polygon class="cls-2" points="239.58 -901.27 239.58 -913.68 248.11 -913.68 248.11 -910.55 243.2 -910.55 243.2 -908.64 247.11 -908.64 247.11 -905.64 243.2 -905.64 243.2 -901.27 239.58 -901.27"/></clipPath><clipPath id="clip-path-35"><path class="cls-2" d="M267.7-906.08h3.43a5.48,5.48,0,0,1-1.57,3.8,5.34,5.34,0,0,1-3.83,1.35,5.44,5.44,0,0,1-4.27-1.71,7,7,0,0,1-1.58-4.82,7,7,0,0,1,1.54-4.79,5.35,5.35,0,0,1,4.2-1.75,5.43,5.43,0,0,1,3.88,1.36,5.32,5.32,0,0,1,1.57,3.71H267.6a2.21,2.21,0,0,0-.56-1.43,1.83,1.83,0,0,0-1.35-.49,1.76,1.76,0,0,0-1.6.86,4.88,4.88,0,0,0-.53,2.58,4.67,4.67,0,0,0,.56,2.56,1.87,1.87,0,0,0,1.67.87,1.75,1.75,0,0,0,1.33-.53,2.49,2.49,0,0,0,.58-1.52Z"/></clipPath><clipPath id="clip-path-36"><polygon class="cls-2" points="272.66 -901.27 272.66 -913.68 281.67 -913.68 281.67 -910.7 276.28 -910.7 276.28 -909.05 280.84 -909.05 280.84 -906.21 276.28 -906.21 276.28 -904.29 281.9 -904.29 281.9 -901.27 272.66 -901.27"/></clipPath><clipPath id="clip-path-37"><path class="cls-2" d="M222.61-915.56v-12.59h3.45l3.17,5.86a4,4,0,0,1,.31.7c.11.3.23.66.35,1.09a2.84,2.84,0,0,0-.07-.74,4.72,4.72,0,0,1,0-1v-5.91h3.46v12.59H229.8l-3.17-5.81a4.26,4.26,0,0,1-.32-.73c-.12-.31-.23-.67-.35-1.08,0,.23.06.46.07.7s0,.58,0,1v5.9Z"/></clipPath><clipPath id="clip-path-38"><polygon class="cls-2" points="262.73 -915.56 262.73 -924.83 259.47 -924.83 259.47 -928.15 269.55 -928.15 269.55 -924.83 266.36 -924.83 266.36 -915.56 262.73 -915.56"/></clipPath><clipPath id="clip-path-39"><polygon class="cls-2" points="270.8 -915.56 270.8 -928.15 274.43 -928.15 274.43 -923.88 277.82 -923.88 277.82 -928.15 281.45 -928.15 281.45 -915.56 277.82 -915.56 277.82 -920.44 274.43 -920.44 274.43 -915.56 270.8 -915.56"/></clipPath><clipPath id="clip-path-40"><polygon class="cls-2" points="251.85 -929.46 251.85 -939.52 248.6 -939.52 248.6 -943.12 258.65 -943.12 258.65 -939.52 255.47 -939.52 255.47 -929.46 251.85 -929.46"/></clipPath><clipPath id="clip-path-41"><polygon class="cls-2" points="259.89 -929.46 259.89 -943.12 263.52 -943.12 263.52 -938.48 266.9 -938.48 266.9 -943.12 270.52 -943.12 270.52 -929.46 266.9 -929.46 266.9 -934.76 263.52 -934.76 263.52 -929.46 259.89 -929.46"/></clipPath><clipPath id="clip-path-42"><polygon class="cls-2" points="272.65 -929.46 272.65 -943.12 281.67 -943.12 281.67 -939.85 276.28 -939.85 276.28 -938.03 280.84 -938.03 280.84 -934.9 276.28 -934.9 276.28 -932.78 281.9 -932.78 281.9 -929.46 272.65 -929.46"/></clipPath><clipPath id="clip-path-43"><path class="cls-2" d="M252.38-905.48l1.15-4.29,1.13,4.29Zm3-8.16h-3.67l-4,12.41h3.56l.44-1.65h3.59l.42,1.65h3.59Z"/></clipPath><clipPath id="clip-path-44"><path class="cls-2" d="M242.48-919.21a2.12,2.12,0,0,1-1.68.83,2.09,2.09,0,0,1-1.67-.83,6.65,6.65,0,0,1,0-5.25,2.07,2.07,0,0,1,1.67-.84,2.1,2.1,0,0,1,1.68.84,5,5,0,0,1,.53,2.64A5,5,0,0,1,242.48-919.21Zm2.63-7.49a5.48,5.48,0,0,0-4.3-1.77,5.46,5.46,0,0,0-4.3,1.77,7.07,7.07,0,0,0-1.58,4.86,7.08,7.08,0,0,0,1.58,4.85,5.46,5.46,0,0,0,4.3,1.78,5.44,5.44,0,0,0,4.3-1.78,7.07,7.07,0,0,0,1.57-4.85A7.08,7.08,0,0,0,245.11-926.7Z"/></clipPath><clipPath id="clip-path-45"><path class="cls-2" d="M254.78-923a2,2,0,0,1-1.2.26h-1.65v-2.36h1.56a2.17,2.17,0,0,1,1.29.26,1.17,1.17,0,0,1,.33.93A1.14,1.14,0,0,1,254.78-923Zm3.78,6.18-.07-1.82a3.76,3.76,0,0,0-.46-1.92,2.2,2.2,0,0,0-1.38-.88,3.09,3.09,0,0,0,1.38-1.2,3.9,3.9,0,0,0,.44-1.92,3.29,3.29,0,0,0-1.08-2.77,6,6,0,0,0-3.63-.85h-5.42v12.62h3.59v-4.34h1.54a1.48,1.48,0,0,1,1.2.4,2.13,2.13,0,0,1,.35,1.37v1.26a2.26,2.26,0,0,0,0,.52,3.86,3.86,0,0,0,.15.79h3.71V-916C258.68-916,258.57-916.31,258.56-916.82Z"/></clipPath><clipPath id="clip-path-46"><path class="cls-1" d="M448.49-905h-3.61a2.37,2.37,0,0,0-.52-1.25,2.66,2.66,0,0,0-1.93-.58,2.87,2.87,0,0,0-1.85.44,1.13,1.13,0,0,0-.4.92c0,.54.75,1,2.25,1.3,1.7.37,2.92.7,3.67,1l.5.2a3.47,3.47,0,0,1,2.28,3.26,4.14,4.14,0,0,1-2.21,3.89,5.77,5.77,0,0,1-.56.27,8.31,8.31,0,0,1-3.3.62,9.18,9.18,0,0,1-4.52-1,4.39,4.39,0,0,1-1.62-1.58,4.49,4.49,0,0,1-.54-2.23h3.75a1.77,1.77,0,0,0,.69,1.49,3.87,3.87,0,0,0,2.33.54,2.86,2.86,0,0,0,1.86-.51,1.2,1.2,0,0,0,.47-.92c0-.58-.74-1-2.21-1.36a25.59,25.59,0,0,1-4.14-1.13,3.45,3.45,0,0,1-2.25-3.3,4.26,4.26,0,0,1,1.18-3.07,5.77,5.77,0,0,1,4.43-1.57,9.28,9.28,0,0,1,3.89.69,1.34,1.34,0,0,1,.23.13,4,4,0,0,1,1.59,1.52A4.62,4.62,0,0,1,448.49-905Z"/></clipPath><clipPath id="clip-path-47"><path class="cls-1" d="M446.88-914.08a.6.6,0,0,1-.08.78.68.68,0,0,1-.48.21.82.82,0,0,1,.2.12l.34.46.27.46h-.44l-.21-.37a1.8,1.8,0,0,0-.35-.5l-.3-.09h-.22v1h-.37v-2.36h.93a1.74,1.74,0,0,1,.45.06A.58.58,0,0,1,446.88-914.08Zm-.3.38a.31.31,0,0,0,0-.19.31.31,0,0,0-.16-.12h-.8v.69h.56a.59.59,0,0,0,.34-.1A.36.36,0,0,0,446.58-913.7Z"/></clipPath><clipPath id="clip-path-48"><path class="cls-1" d="M448.28-913.24a2.25,2.25,0,0,1-.28,1.07,2.14,2.14,0,0,1-.79.79,2.21,2.21,0,0,1-1.06.28,2.18,2.18,0,0,1-1.06-.28,2,2,0,0,1-.79-.79,2.25,2.25,0,0,1-.28-1.07,2.15,2.15,0,0,1,.28-1.08,1.82,1.82,0,0,1,.81-.79,2.36,2.36,0,0,1,1-.29,2.1,2.1,0,0,1,1,.29,1.85,1.85,0,0,1,.8.79A2.09,2.09,0,0,1,448.28-913.24Zm-.35,0a1.86,1.86,0,0,0-.24-.9,1.7,1.7,0,0,0-.67-.66,1.81,1.81,0,0,0-.87-.24,1.75,1.75,0,0,0-.87.24,1.64,1.64,0,0,0-.67.66,1.76,1.76,0,0,0-.24.9,1.75,1.75,0,0,0,.24.89,1.68,1.68,0,0,0,.66.66,1.81,1.81,0,0,0,.88.23,1.84,1.84,0,0,0,.89-.23,1.79,1.79,0,0,0,.65-.66A1.85,1.85,0,0,0,447.93-913.24Z"/></clipPath><clipPath id="clip-path-49"><polygon class="cls-1" points="427.28 -930.68 437.42 -913.79 427.28 -913.79 421.14 -913.79 411.46 -929.92 404.13 -942.13 411.46 -946.54 416.08 -949.32 427.28 -930.68"/></clipPath><clipPath id="clip-path-50"><path class="cls-1" d="M431.27-901.3v-1.53a4,4,0,0,0-4-3.26,4,4,0,0,0-4,4,4,4,0,0,0,4,4A4.06,4.06,0,0,0,431.27-901.3Zm3.37-.76v6.92h-3.37v-.76a7.27,7.27,0,0,1-4,1.17,7.34,7.34,0,0,1-7.07-7.34,7.33,7.33,0,0,1,7.07-7.33,7.2,7.2,0,0,1,4,1.18V-909h3.37Z"/></clipPath><clipPath id="clip-path-51"><path class="cls-1" d="M415.45-901.3v-1.53a4,4,0,0,0-3.95-3.26,4,4,0,0,0-4,4,4,4,0,0,0,4,4A4.05,4.05,0,0,0,415.45-901.3Zm3.37-.76v6.92h-3.37v-.76a7.3,7.3,0,0,1-3.95,1.17,7.34,7.34,0,0,1-7.07-7.34,7.33,7.33,0,0,1,7.07-7.33,7.22,7.22,0,0,1,3.95,1.18v-5.57h3.37Z"/></clipPath><clipPath id="clip-path-52"><polygon class="cls-1" points="411.46 -920.43 415.43 -913.79 411.46 -913.79 399.16 -913.79 390.13 -928.83 389.73 -929.48 390.13 -929.72 401.69 -936.68 411.46 -920.43"/></clipPath><clipPath id="clip-path-53"><rect class="cls-1" x="399.18" y="-909.4" width="3.67" height="14.26"/></clipPath><clipPath id="clip-path-54"><rect class="cls-1" x="399.18" y="-913.72" width="3.67" height="3.22"/></clipPath><clipPath id="clip-path-55"><path class="cls-1" d="M394.13-901.3v-1.53a4,4,0,0,0-4-3.26,4,4,0,0,0-4,4,4,4,0,0,0,4,4A4.06,4.06,0,0,0,394.13-901.3Zm3.37-.76v6.92h-3.37v-.76a7.36,7.36,0,0,1-4,1.17,7.34,7.34,0,0,1-7.07-7.34,7.33,7.33,0,0,1,7.07-7.33,7.2,7.2,0,0,1,4,1.18v-5.57h3.37Z"/></clipPath><clipPath id="clip-path-56"><polygon class="cls-1" points="390.13 -919.35 393.46 -913.79 390.13 -913.79 377.18 -913.79 375.35 -916.84 387.31 -924.02 390.13 -919.35"/></clipPath><clipPath id="clip-path-57"><path class="cls-1" d="M378.14-901.3v-1.53a4,4,0,0,0-4-3.26,4,4,0,0,0-4,4,4,4,0,0,0,4,4A4.06,4.06,0,0,0,378.14-901.3Zm3.37-.76v6.92h-3.37v-.76a7.27,7.27,0,0,1-4,1.17,7.34,7.34,0,0,1-7.07-7.34,7.33,7.33,0,0,1,7.07-7.33,7.2,7.2,0,0,1,4,1.18V-909h3.37Z"/></clipPath><clipPath id="clip-path-58"><path class="cls-1" d="M544.86-933.95H540.2L545-921.31h5.26l4.93-12.64h-4.54l-2.94,8.21Zm-13.47,5c0-1.89.39-2.94,2.22-2.94s2.27.83,2.27,2.94Zm2.39,5.65c-1.94,0-2.39-.83-2.39-3.16h8.7c0-5.6-1.33-7.93-6.31-7.93-5.43,0-6.9,1.89-6.9,6.75s2,7,6.6,7,6.21-1.66,6.32-4.26h-3.92C535.88-923.8,535.44-923.3,533.78-923.3ZM522.08-934h-4.26v12.64h8.53v-3h-4.27Zm33.64,22.56v-31.2m0,31.2a33.49,33.49,0,0,0-7.76,2.8,38.77,38.77,0,0,0-15.79-3.49,40.25,40.25,0,0,0-17.35,4l-7-34.51h47.93"/></clipPath><clipPath id="clip-path-59"><path class="cls-1" d="M573.57-906.3c0-.16-.23-.28-.78-.28v.61c.39,0,.78,0,.78-.32Zm-1.28,1.66v-2.42H573c.66,0,1.16.16,1.16.77,0,.28-.17.5-.55.72l.44.94h-.44l-.39-.72h-.39v.71Zm2.88-1.21a2,2,0,0,0-2-2,2,2,0,0,0-2,2,2.08,2.08,0,0,0,2,2,2,2,0,0,0,1.48-.55A2,2,0,0,0,575.17-905.85Zm-2-2.43a2.43,2.43,0,0,1,2.24,1.17,2.45,2.45,0,0,1,0,2.53,2.45,2.45,0,0,1-2.24,1.17,2.44,2.44,0,0,1-1.73-.71,2.39,2.39,0,0,1-.71-1.73A2.45,2.45,0,0,1,573.12-908.28Zm-3.43-17.07H565.2c0,3,1.66,4.26,6.54,4.26,4.54,0,6.37-1,6.37-4.15,0-5-8.42-2.5-8.42-5.49,0-.72.83-1.33,1.94-1.33a1.73,1.73,0,0,1,1.88,1.55h4.27c-.06-2.66-1.61-3.88-5.88-3.88-4.43,0-6.48,1.22-6.48,4,0,5.49,8.42,2.55,8.42,5.66,0,.94-.5,1.38-1.71,1.38C570.68-923.36,569.8-923.91,569.69-925.35Zm-5.93-7.87-.22,1.27c1.33-.83,1.88-1.55,1.88-2.49a1.57,1.57,0,0,0-.51-1.22,1.53,1.53,0,0,0-1.26-.39,1.49,1.49,0,0,0-1.2.36,1.51,1.51,0,0,0-.52,1.14C561.93-933.39,562.7-933.22,563.76-933.22Zm-7.32-.83v12.69h4.16V-934Zm-.77-8.59H588l-7.59,34.52c-5-2.88-9.53-4.1-16.12-4.1a44.21,44.21,0,0,0-8.59.78"/></clipPath><clipPath id="clip-path-60"><rect class="cls-1" x="672.11" y="-917.38" width="5.64" height="6.9"/></clipPath><clipPath id="clip-path-61"><path class="cls-1" d="M680.17-908H669.69v-11.76h10.52ZM662-908h-9.25l.51-2.49h6.86l1.43-6.74h-4.44l-.93,4.39h-2.43l1.41-6.87h9.29Zm-8.08-18.59h5.7v-6.91h-4.42V-936H662v9.32h2.39v2.44H653.88Zm15.86,0h10.45v2.43H669.74Zm1.14-9.36h8.06v2.43h-8.06Zm-23-5.26v38.47h38.39v-38.47Z"/></clipPath><clipPath id="clip-path-62"><path class="cls-1" d="M719-917.77a1.6,1.6,0,0,0-1.6,1.61v4a1.62,1.62,0,0,0,.76,1.5,1.63,1.63,0,0,0,1.68,0,1.61,1.61,0,0,0,.77-1.5v-4A1.62,1.62,0,0,0,719-917.77Z"/></clipPath><clipPath id="clip-path-63"><path class="cls-1" d="M698.34-917.77a1.59,1.59,0,0,0-1.13.47,1.56,1.56,0,0,0-.46,1.14v4a1.59,1.59,0,0,0,1.59,1.59,1.59,1.59,0,0,0,1.59-1.59v-4A1.61,1.61,0,0,0,698.34-917.77Z"/></clipPath><clipPath id="clip-path-64"><path class="cls-1" d="M723.05-912.15a4.09,4.09,0,0,1-4.09,4.09,4.09,4.09,0,0,1-4.09-4.09v-4a4.09,4.09,0,0,1,4.09-4.09,4.09,4.09,0,0,1,4.09,4.09Zm-9.37-11.7H711.3l-3.25-6.79v6.82h-2.46V-936h2.46l3.25,6.88V-936h2.39Zm0,15.75h-8.09v-12.14H708v9.76h5.67ZM700-905.64l-.83-2.5a4.13,4.13,0,0,1-.78.08,4.08,4.08,0,0,1-4-4.09v-4a4,4,0,0,1,2-3.51,4.07,4.07,0,0,1,4,0,4,4,0,0,1,2,3.51v4a4.12,4.12,0,0,1-1.19,2.89l1.19,3.62ZM694.32-936h2.45v8.09a1.59,1.59,0,0,0,1.59,1.59,1.59,1.59,0,0,0,1.59-1.59V-936h2.46v8.13a4,4,0,0,1-4,4h-.14a4,4,0,0,1-4-4Zm23.42,0h2.42v12.15h-2.42Zm-28.25-5.26v38.47h38.39v-38.47Z"/></clipPath><clipPath id="clip-path-65"><path class="cls-1" d="M803-916.89a.7.7,0,0,1-.52-.21.7.7,0,0,1-.22-.51.74.74,0,0,1,.74-.74.74.74,0,0,1,.74.74.7.7,0,0,1-.22.51A.73.73,0,0,1,803-916.89Zm0-1.75a1,1,0,0,0-.94,1,1,1,0,0,0,1,1,1,1,0,0,0,1-1,1,1,0,0,0-.32-.73A1,1,0,0,0,803-918.64Z"/></clipPath><clipPath id="clip-path-66"><polygon class="cls-1" points="813.33 -922.22 808.16 -922.22 808.75 -931.2 805.4 -922.22 800.6 -922.22 808.21 -942.51 813.31 -942.51 812.72 -933.41 816.14 -942.51 820.94 -942.51 813.33 -922.22"/></clipPath><clipPath id="clip-path-67"><polygon class="cls-1" points="813.95 -922.22 821.56 -942.51 826.36 -942.51 818.75 -922.22 813.95 -922.22"/></clipPath><clipPath id="clip-path-68"><path class="cls-1" d="M800.05-929.22c-6.71,7.88-13,18.35-7.45,23.17s12.18,1.91,16.79.07S865-930,865-930c.49-.24.4-.55-.22-.4l-55.5,15C802.26-913.36,794.26-917.64,800.05-929.22Z"/></clipPath><clipPath id="clip-path-69"><path class="cls-1" d="M803-917.72h-.13V-918H803c.08,0,.18,0,.18.12S803.1-917.72,803-917.72Zm.17.18a.27.27,0,0,0,.2-.09.25.25,0,0,0,.07-.2c0-.27-.17-.34-.46-.34h-.42v1.11h.31v-.47l.26.47h.32Z"/></clipPath><clipPath id="clip-path-70"><path class="cls-1" d="M851.22-940.82a.73.73,0,0,1-.72-.74.73.73,0,0,1,.73-.72.73.73,0,0,1,.73.73.74.74,0,0,1-.22.52A.73.73,0,0,1,851.22-940.82Zm0-1.76a1,1,0,0,0-.94,1,1,1,0,0,0,1,1,1,1,0,0,0,1-1,1,1,0,0,0-.32-.73A1,1,0,0,0,851.22-942.58Z"/></clipPath><clipPath id="clip-path-71"><path class="cls-1" d="M851.23-941.64h-.16v-.25h.13c.08,0,.18,0,.18.11S851.32-941.64,851.23-941.64Zm.17.16a.27.27,0,0,0,.2-.09.25.25,0,0,0,.07-.2c0-.27-.17-.33-.46-.33h-.42v1.1h.28v-.47l.26.47h.32Z"/></clipPath><clipPath id="clip-path-72"><path class="cls-1" d="M832.6-923.57l-.31-10.58,7.26-8Zm15.46-15.56,1.29-3.38H834.72l-5,6.08,2.32-6.08h-4.89l-7.55,20.29h4.8l3.22-8.49.26,8.49H842.6l1.4-3.91h-5.63L840.2-931h4.62l1.42-3.78h-4.62l1.58-4.27Z"/></clipPath><clipPath id="clip-path-73"><path class="cls-2" d="M282.7-1082.83l3.37-.05c12.31.85,27.08,12.2,27.08,28.88v13.07h-12V-1054c0-8.14-6.32-14.87-15.13-15.46H282.7Z"/></clipPath><clipPath id="clip-path-74"><path class="cls-2" d="M282.7-1068.14H286c8.54,0,14,8.35,13.82,14.15v13.06h-9.16v-10.54c-.13-2.65-1.74-4.1-4.68-4.15H282.7Z"/></clipPath><clipPath id="clip-path-75"><polygon class="cls-2" points="239.58 -1041.27 239.58 -1053.68 248.11 -1053.68 248.11 -1050.55 243.2 -1050.55 243.2 -1048.64 247.11 -1048.64 247.11 -1045.64 243.2 -1045.64 243.2 -1041.27 239.58 -1041.27"/></clipPath><clipPath id="clip-path-76"><path class="cls-2" d="M267.7-1046.08h3.43a5.48,5.48,0,0,1-1.57,3.8,5.34,5.34,0,0,1-3.83,1.35,5.44,5.44,0,0,1-4.27-1.71,7,7,0,0,1-1.58-4.82,7,7,0,0,1,1.54-4.79,5.35,5.35,0,0,1,4.2-1.75,5.43,5.43,0,0,1,3.88,1.36,5.32,5.32,0,0,1,1.57,3.71H267.6a2.21,2.21,0,0,0-.56-1.43,1.83,1.83,0,0,0-1.35-.49,1.76,1.76,0,0,0-1.6.86,4.88,4.88,0,0,0-.53,2.58,4.67,4.67,0,0,0,.56,2.56,1.87,1.87,0,0,0,1.67.87,1.75,1.75,0,0,0,1.33-.53,2.49,2.49,0,0,0,.58-1.52Z"/></clipPath><clipPath id="clip-path-77"><polygon class="cls-2" points="272.66 -1041.27 272.66 -1053.68 281.67 -1053.68 281.67 -1050.7 276.28 -1050.7 276.28 -1049.05 280.84 -1049.05 280.84 -1046.21 276.28 -1046.21 276.28 -1044.29 281.9 -1044.29 281.9 -1041.27 272.66 -1041.27"/></clipPath><clipPath id="clip-path-78"><path class="cls-2" d="M222.61-1055.56v-12.59h3.45l3.17,5.86a4,4,0,0,1,.31.7c.11.3.23.66.35,1.09a2.84,2.84,0,0,0-.07-.74,4.72,4.72,0,0,1,0-1v-5.91h3.46v12.59H229.8l-3.17-5.81a4.26,4.26,0,0,1-.32-.73c-.12-.31-.23-.67-.35-1.08,0,.23.06.46.07.7s0,.58,0,1v5.9Z"/></clipPath><clipPath id="clip-path-79"><polygon class="cls-2" points="262.73 -1055.56 262.73 -1064.83 259.47 -1064.83 259.47 -1068.15 269.55 -1068.15 269.55 -1064.83 266.36 -1064.83 266.36 -1055.56 262.73 -1055.56"/></clipPath><clipPath id="clip-path-80"><polygon class="cls-2" points="270.8 -1055.56 270.8 -1068.15 274.43 -1068.15 274.43 -1063.88 277.82 -1063.88 277.82 -1068.15 281.45 -1068.15 281.45 -1055.56 277.82 -1055.56 277.82 -1060.44 274.43 -1060.44 274.43 -1055.56 270.8 -1055.56"/></clipPath><clipPath id="clip-path-81"><polygon class="cls-2" points="251.85 -1069.46 251.85 -1079.52 248.6 -1079.52 248.6 -1083.12 258.65 -1083.12 258.65 -1079.52 255.47 -1079.52 255.47 -1069.46 251.85 -1069.46"/></clipPath><clipPath id="clip-path-82"><polygon class="cls-2" points="259.89 -1069.46 259.89 -1083.12 263.52 -1083.12 263.52 -1078.48 266.9 -1078.48 266.9 -1083.12 270.52 -1083.12 270.52 -1069.46 266.9 -1069.46 266.9 -1074.76 263.52 -1074.76 263.52 -1069.46 259.89 -1069.46"/></clipPath><clipPath id="clip-path-83"><polygon class="cls-2" points="272.65 -1069.46 272.65 -1083.12 281.67 -1083.12 281.67 -1079.85 276.28 -1079.85 276.28 -1078.03 280.84 -1078.03 280.84 -1074.9 276.28 -1074.9 276.28 -1072.78 281.9 -1072.78 281.9 -1069.46 272.65 -1069.46"/></clipPath><clipPath id="clip-path-84"><path class="cls-2" d="M252.38-1045.48l1.15-4.29,1.13,4.29Zm3-8.16h-3.67l-4,12.41h3.56l.44-1.65h3.59l.42,1.65h3.59Z"/></clipPath><clipPath id="clip-path-85"><path class="cls-2" d="M242.48-1059.21a2.12,2.12,0,0,1-1.68.83,2.09,2.09,0,0,1-1.67-.83,6.65,6.65,0,0,1,0-5.25,2.07,2.07,0,0,1,1.67-.84,2.1,2.1,0,0,1,1.68.84,5,5,0,0,1,.53,2.64A5,5,0,0,1,242.48-1059.21Zm2.63-7.49a5.48,5.48,0,0,0-4.3-1.77,5.46,5.46,0,0,0-4.3,1.77,7.07,7.07,0,0,0-1.58,4.86,7.08,7.08,0,0,0,1.58,4.85,5.46,5.46,0,0,0,4.3,1.78,5.44,5.44,0,0,0,4.3-1.78,7.07,7.07,0,0,0,1.57-4.85A7.08,7.08,0,0,0,245.11-1066.7Z"/></clipPath><clipPath id="clip-path-86"><path class="cls-1" d="M448.49-1045h-3.61a2.37,2.37,0,0,0-.52-1.25,2.66,2.66,0,0,0-1.93-.58,2.87,2.87,0,0,0-1.85.44,1.13,1.13,0,0,0-.4.92c0,.54.75,1,2.25,1.3,1.7.37,2.92.7,3.67,1l.5.2a3.47,3.47,0,0,1,2.28,3.26,4.14,4.14,0,0,1-2.21,3.89,5.77,5.77,0,0,1-.56.27,8.31,8.31,0,0,1-3.3.62,9.18,9.18,0,0,1-4.52-1,4.39,4.39,0,0,1-1.62-1.58,4.49,4.49,0,0,1-.54-2.23h3.75a1.77,1.77,0,0,0,.69,1.49,3.87,3.87,0,0,0,2.33.54,2.86,2.86,0,0,0,1.86-.51,1.2,1.2,0,0,0,.47-.92c0-.58-.74-1-2.21-1.36a25.59,25.59,0,0,1-4.14-1.13,3.45,3.45,0,0,1-2.25-3.3,4.26,4.26,0,0,1,1.18-3.07,5.77,5.77,0,0,1,4.43-1.57,9.28,9.28,0,0,1,3.89.69,1.34,1.34,0,0,1,.23.13,4,4,0,0,1,1.59,1.52A4.62,4.62,0,0,1,448.49-1045Z"/></clipPath><clipPath id="clip-path-87"><path class="cls-1" d="M446.88-1054.08a.6.6,0,0,1-.08.78.68.68,0,0,1-.48.21.82.82,0,0,1,.2.12l.34.46.27.46h-.44l-.21-.37a1.8,1.8,0,0,0-.35-.5l-.3-.09h-.22v1h-.37v-2.36h.93a1.74,1.74,0,0,1,.45.06A.58.58,0,0,1,446.88-1054.08Zm-.3.38a.31.31,0,0,0,0-.19.31.31,0,0,0-.16-.12h-.8v.69h.56a.59.59,0,0,0,.34-.1A.36.36,0,0,0,446.58-1053.7Z"/></clipPath><clipPath id="clip-path-88"><path class="cls-1" d="M448.28-1053.24a2.25,2.25,0,0,1-.28,1.07,2.14,2.14,0,0,1-.79.79,2.21,2.21,0,0,1-1.06.28,2.18,2.18,0,0,1-1.06-.28,2,2,0,0,1-.79-.79,2.25,2.25,0,0,1-.28-1.07,2.15,2.15,0,0,1,.28-1.08,1.82,1.82,0,0,1,.81-.79,2.36,2.36,0,0,1,1-.29,2.1,2.1,0,0,1,1,.29,1.85,1.85,0,0,1,.8.79A2.09,2.09,0,0,1,448.28-1053.24Zm-.35,0a1.86,1.86,0,0,0-.24-.9,1.7,1.7,0,0,0-.67-.66,1.81,1.81,0,0,0-.87-.24,1.75,1.75,0,0,0-.87.24,1.64,1.64,0,0,0-.67.66,1.76,1.76,0,0,0-.24.9,1.75,1.75,0,0,0,.24.89,1.68,1.68,0,0,0,.66.66,1.81,1.81,0,0,0,.88.23,1.84,1.84,0,0,0,.89-.23,1.79,1.79,0,0,0,.65-.66A1.85,1.85,0,0,0,447.93-1053.24Z"/></clipPath><clipPath id="clip-path-89"><polygon class="cls-1" points="427.28 -1070.68 437.42 -1053.79 427.28 -1053.79 421.14 -1053.79 411.46 -1069.92 404.13 -1082.13 411.46 -1086.54 416.08 -1089.32 427.28 -1070.68"/></clipPath><clipPath id="clip-path-90"><path class="cls-1" d="M431.27-1041.3v-1.53a4,4,0,0,0-4-3.26,4,4,0,0,0-4,4,4,4,0,0,0,4,4A4.06,4.06,0,0,0,431.27-1041.3Zm3.37-.76v6.92h-3.37v-.76a7.27,7.27,0,0,1-4,1.17,7.34,7.34,0,0,1-7.07-7.34,7.33,7.33,0,0,1,7.07-7.33,7.2,7.2,0,0,1,4,1.18v-.81h3.37Z"/></clipPath><clipPath id="clip-path-91"><path class="cls-1" d="M415.45-1041.3v-1.53a4,4,0,0,0-3.95-3.26,4,4,0,0,0-4,4,4,4,0,0,0,4,4A4.05,4.05,0,0,0,415.45-1041.3Zm3.37-.76v6.92h-3.37v-.76a7.3,7.3,0,0,1-3.95,1.17,7.34,7.34,0,0,1-7.07-7.34,7.33,7.33,0,0,1,7.07-7.33,7.22,7.22,0,0,1,3.95,1.18v-5.57h3.37Z"/></clipPath><clipPath id="clip-path-92"><polygon class="cls-1" points="411.46 -1060.43 415.43 -1053.79 411.46 -1053.79 399.16 -1053.79 390.13 -1068.83 389.73 -1069.48 390.13 -1069.72 401.69 -1076.68 411.46 -1060.43"/></clipPath><clipPath id="clip-path-93"><rect class="cls-1" x="399.18" y="-1049.4" width="3.67" height="14.26"/></clipPath><clipPath id="clip-path-94"><rect class="cls-1" x="399.18" y="-1053.72" width="3.67" height="3.22"/></clipPath><clipPath id="clip-path-95"><path class="cls-1" d="M394.13-1041.3v-1.53a4,4,0,0,0-4-3.26,4,4,0,0,0-4,4,4,4,0,0,0,4,4A4.06,4.06,0,0,0,394.13-1041.3Zm3.37-.76v6.92h-3.37v-.76a7.36,7.36,0,0,1-4,1.17,7.34,7.34,0,0,1-7.07-7.34,7.33,7.33,0,0,1,7.07-7.33,7.2,7.2,0,0,1,4,1.18v-5.57h3.37Z"/></clipPath><clipPath id="clip-path-96"><polygon class="cls-1" points="390.13 -1059.35 393.46 -1053.79 390.13 -1053.79 377.18 -1053.79 375.35 -1056.84 387.31 -1064.02 390.13 -1059.35"/></clipPath><clipPath id="clip-path-97"><path class="cls-1" d="M378.14-1041.3v-1.53a4,4,0,0,0-4-3.26,4,4,0,0,0-4,4,4,4,0,0,0,4,4A4.06,4.06,0,0,0,378.14-1041.3Zm3.37-.76v6.92h-3.37v-.76a7.27,7.27,0,0,1-4,1.17,7.34,7.34,0,0,1-7.07-7.34,7.33,7.33,0,0,1,7.07-7.33,7.2,7.2,0,0,1,4,1.18v-.81h3.37Z"/></clipPath><clipPath id="clip-path-98"><path class="cls-1" d="M544.86-1073.95H540.2l4.83,12.64h5.26l4.93-12.64h-4.54l-2.94,8.21Zm-13.47,5c0-1.89.39-2.94,2.22-2.94s2.27.83,2.27,2.94Zm2.39,5.65c-1.94,0-2.39-.83-2.39-3.16h8.7c0-5.6-1.33-7.93-6.31-7.93-5.43,0-6.9,1.89-6.9,6.75s2,7,6.6,7,6.21-1.66,6.32-4.26h-3.92C535.88-1063.8,535.44-1063.3,533.78-1063.3Zm-11.7-10.7h-4.26v12.64h8.53v-3h-4.27Zm33.64,22.56v-31.2m0,31.2a33.49,33.49,0,0,0-7.76,2.8,38.77,38.77,0,0,0-15.79-3.49,40.25,40.25,0,0,0-17.35,4l-7-34.51h47.93"/></clipPath><clipPath id="clip-path-99"><path class="cls-1" d="M573.57-1046.3c0-.16-.23-.28-.78-.28v.61c.39,0,.78,0,.78-.32Zm-1.28,1.66v-2.42H573c.66,0,1.16.16,1.16.77,0,.28-.17.5-.55.72l.44.94h-.44l-.39-.72h-.39v.71Zm2.88-1.21a2,2,0,0,0-2-2.05,2,2,0,0,0-2,2.05,2.08,2.08,0,0,0,2,2,2,2,0,0,0,1.48-.55A2,2,0,0,0,575.17-1045.85Zm-2-2.43a2.43,2.43,0,0,1,2.24,1.17,2.45,2.45,0,0,1,0,2.53,2.45,2.45,0,0,1-2.24,1.17,2.44,2.44,0,0,1-1.73-.71,2.39,2.39,0,0,1-.71-1.73A2.45,2.45,0,0,1,573.12-1048.28Zm-3.43-17.07H565.2c0,3,1.66,4.26,6.54,4.26,4.54,0,6.37-1,6.37-4.15,0-5-8.42-2.5-8.42-5.49,0-.72.83-1.33,1.94-1.33a1.73,1.73,0,0,1,1.88,1.55h4.27c-.06-2.66-1.61-3.88-5.88-3.88-4.43,0-6.48,1.22-6.48,4,0,5.49,8.42,2.55,8.42,5.66,0,.94-.5,1.38-1.71,1.38C570.68-1063.36,569.8-1063.91,569.69-1065.35Zm-5.93-7.87-.22,1.27c1.33-.83,1.88-1.55,1.88-2.49a1.57,1.57,0,0,0-.51-1.22,1.53,1.53,0,0,0-1.26-.39,1.49,1.49,0,0,0-1.2.36,1.51,1.51,0,0,0-.52,1.14C561.93-1073.39,562.7-1073.22,563.76-1073.22Zm-7.32-.83v12.69h4.16V-1074Zm-.77-8.59H588l-7.59,34.52c-5-2.88-9.53-4.1-16.12-4.1a44.21,44.21,0,0,0-8.59.78"/></clipPath><clipPath id="clip-path-100"><rect class="cls-1" x="672.11" y="-1057.38" width="5.64" height="6.9"/></clipPath><clipPath id="clip-path-101"><path class="cls-1" d="M680.17-1048H669.69v-11.76h10.52ZM662-1048h-9.25l.51-2.49h6.86l1.43-6.74h-4.44l-.93,4.39h-2.43l1.41-6.87h9.29Zm-8.08-18.59h5.7v-6.91h-4.42V-1076H662v9.32h2.39v2.44H653.88Zm15.86,0h10.45v2.43H669.74Zm1.14-9.36h8.06v2.43h-8.06Zm-23-5.26v38.47h38.39v-38.47Z"/></clipPath><clipPath id="clip-path-102"><path class="cls-1" d="M719-1057.77a1.6,1.6,0,0,0-1.6,1.61v4a1.62,1.62,0,0,0,.76,1.5,1.63,1.63,0,0,0,1.68,0,1.61,1.61,0,0,0,.77-1.5v-4A1.62,1.62,0,0,0,719-1057.77Z"/></clipPath><clipPath id="clip-path-103"><path class="cls-1" d="M698.34-1057.77a1.59,1.59,0,0,0-1.13.47,1.56,1.56,0,0,0-.46,1.14v4a1.59,1.59,0,0,0,1.59,1.59,1.59,1.59,0,0,0,1.59-1.59v-4A1.61,1.61,0,0,0,698.34-1057.77Z"/></clipPath><clipPath id="clip-path-104"><path class="cls-1" d="M723.05-1052.15a4.09,4.09,0,0,1-4.09,4.09,4.09,4.09,0,0,1-4.09-4.09v-4a4.09,4.09,0,0,1,4.09-4.09,4.09,4.09,0,0,1,4.09,4.09Zm-9.37-11.7H711.3l-3.25-6.79v6.82h-2.46V-1076h2.46l3.25,6.88V-1076h2.39Zm0,15.75h-8.09v-12.14H708v9.76h5.67ZM700-1045.64l-.83-2.5a4.13,4.13,0,0,1-.78.08,4.08,4.08,0,0,1-4-4.09v-4a4,4,0,0,1,2-3.51,4.07,4.07,0,0,1,4,0,4,4,0,0,1,2,3.51v4a4.12,4.12,0,0,1-1.19,2.89l1.19,3.62ZM694.32-1076h2.45v8.09a1.59,1.59,0,0,0,1.59,1.59,1.59,1.59,0,0,0,1.59-1.59v-8h2.46v8.13a4,4,0,0,1-4,4h-.14a4,4,0,0,1-4-4Zm23.42,0h2.42v12.15h-2.42Zm-28.25-5.26v38.47h38.39v-38.47Z"/></clipPath><clipPath id="clip-path-105"><path class="cls-1" d="M803-1056.89a.7.7,0,0,1-.52-.21.7.7,0,0,1-.22-.51.74.74,0,0,1,.74-.74.74.74,0,0,1,.74.74.7.7,0,0,1-.22.51A.73.73,0,0,1,803-1056.89Zm0-1.75a1,1,0,0,0-.94,1,1,1,0,0,0,1,1,1,1,0,0,0,1-1,1,1,0,0,0-.32-.73A1,1,0,0,0,803-1058.64Z"/></clipPath><clipPath id="clip-path-106"><polygon class="cls-1" points="813.33 -1062.22 808.16 -1062.22 808.75 -1071.2 805.4 -1062.22 800.6 -1062.22 808.21 -1082.51 813.31 -1082.51 812.72 -1073.41 816.14 -1082.51 820.94 -1082.51 813.33 -1062.22"/></clipPath><clipPath id="clip-path-107"><polygon class="cls-1" points="813.95 -1062.22 821.56 -1082.51 826.36 -1082.51 818.75 -1062.22 813.95 -1062.22"/></clipPath><clipPath id="clip-path-108"><path class="cls-1" d="M800.05-1069.22c-6.71,7.88-13,18.35-7.45,23.17s12.18,1.91,16.79.07,55.6-24,55.6-24c.49-.24.4-.55-.22-.4l-55.5,15C802.26-1053.36,794.26-1057.64,800.05-1069.22Z"/></clipPath><clipPath id="clip-path-109"><path class="cls-1" d="M803-1057.72h-.13v-.26H803c.08,0,.18,0,.18.12S803.1-1057.72,803-1057.72Zm.17.18a.27.27,0,0,0,.2-.09.25.25,0,0,0,.07-.2c0-.27-.17-.34-.46-.34h-.42v1.11h.31v-.47l.26.47h.32Z"/></clipPath><clipPath id="clip-path-110"><path class="cls-1" d="M851.22-1080.82a.73.73,0,0,1-.72-.74.73.73,0,0,1,.73-.72.73.73,0,0,1,.73.73.74.74,0,0,1-.22.52A.73.73,0,0,1,851.22-1080.82Zm0-1.76a1,1,0,0,0-.94,1,1,1,0,0,0,1,1,1,1,0,0,0,1-1,1,1,0,0,0-.32-.73A1,1,0,0,0,851.22-1082.58Z"/></clipPath><clipPath id="clip-path-111"><path class="cls-1" d="M851.23-1081.64h-.16v-.25h.13c.08,0,.18,0,.18.11S851.32-1081.64,851.23-1081.64Zm.17.16a.27.27,0,0,0,.2-.09.25.25,0,0,0,.07-.2c0-.27-.17-.33-.46-.33h-.42v1.1h.28v-.47l.26.47h.32Z"/></clipPath><clipPath id="clip-path-112"><path class="cls-1" d="M832.6-1063.57l-.31-10.58,7.26-8Zm15.46-15.56,1.29-3.38H834.72l-5,6.08,2.32-6.08h-4.89l-7.55,20.29h4.8l3.22-8.49.26,8.49H842.6l1.4-3.91h-5.63l1.83-4.92h4.62l1.42-3.78h-4.62l1.58-4.27Z"/></clipPath></defs><title>lululemon</title><path class="cls-115" d="M110.63,71.11A40.63,40.63,0,1,1,70,30.49,40.6,40.6,0,0,1,110.63,71.11Zm-9,19.64-.23.1c-.56.26-1.1.53-1.66.77A15.61,15.61,0,0,1,94.47,93a8.4,8.4,0,0,1-3.58-.53,8.85,8.85,0,0,1-3.72-2.85A7,7,0,0,1,85.68,86a10.67,10.67,0,0,1,.22-3.52,24.93,24.93,0,0,1,1.67-4.86c1-2.18,2.12-4.28,3.3-6.35a60.5,60.5,0,0,0,2.76-5.45A34,34,0,0,0,96,58.29a18.17,18.17,0,0,0,.14-6.41A12.39,12.39,0,0,0,94.25,47a14.21,14.21,0,0,0-4.72-4.34,24.61,24.61,0,0,0-6.38-2.55,45.33,45.33,0,0,0-8.36-1.31,58.47,58.47,0,0,0-6.35-.14,56.94,56.94,0,0,0-8.13.79,32.3,32.3,0,0,0-6.82,1.91,18.06,18.06,0,0,0-5.28,3.24,12.57,12.57,0,0,0-3.77,6.15,16.24,16.24,0,0,0-.4,5.85,25,25,0,0,0,1,4.78,43.62,43.62,0,0,0,3.29,7.93c.9,1.7,1.86,3.38,2.77,5.07a44.51,44.51,0,0,1,2.35,5,17,17,0,0,1,1.19,4.9,7.64,7.64,0,0,1-1.08,4.62,9,9,0,0,1-2,2.24A8,8,0,0,1,46.74,93a12.41,12.41,0,0,1-4.1-.58,26.41,26.41,0,0,1-3.83-1.54c-.09,0-.17-.13-.3-.08l.13.22a25.18,25.18,0,0,0,2.75,3.66,17.94,17.94,0,0,0,4.52,3.66A13.55,13.55,0,0,0,51.48,100a14.12,14.12,0,0,0,6-.85,20,20,0,0,0,6.17-3.68,10.36,10.36,0,0,0,3.77-8.07,18.27,18.27,0,0,0-.56-4.35,47.72,47.72,0,0,0-1.92-5.74c-1.08-2.75-2.18-5.49-3.23-8.25A65.92,65.92,0,0,1,59,60.31a25.64,25.64,0,0,1-.7-5.85A12.68,12.68,0,0,1,58.77,51a7.9,7.9,0,0,1,2.54-3.94,10,10,0,0,1,3.42-1.81,17.18,17.18,0,0,1,3.55-.71,20.9,20.9,0,0,1,2.09-.11,19.44,19.44,0,0,1,3.22.34,13.26,13.26,0,0,1,3.92,1.33,7.91,7.91,0,0,1,3.68,4.19A11.17,11.17,0,0,1,81.9,54a21,21,0,0,1-.31,4.41,43.53,43.53,0,0,1-1.39,5.76c-.88,2.9-1.94,5.73-3,8.55-.87,2.2-1.75,4.39-2.59,6.61A26.67,26.67,0,0,0,73,85.43a13.28,13.28,0,0,0,0,3.88,10,10,0,0,0,2.25,4.83,14.49,14.49,0,0,0,2.83,2.53A19.24,19.24,0,0,0,84,99.54a13.52,13.52,0,0,0,5.73.36,14.12,14.12,0,0,0,6-2.51,19.84,19.84,0,0,0,4.33-4.25A16.64,16.64,0,0,0,101.64,90.75Z"/></svg>