<svg id="圖層_1" data-name="圖層 1" xmlns="http://www.w3.org/2000/svg" viewBox="0 0 140 140"><defs><style>.cls-1{fill:#b2b2b2;}</style></defs><title>asics</title><g id="_群組_" data-name="&lt;群組&gt;"><path id="_複合路徑_" data-name="&lt;複合路徑&gt;" class="cls-1" d="M25,78.8a2.53,2.53,0,0,1-2.57-3.46c1.08-3.86,8-9.54,12.79-9.54,3.46,0,3.18,3.09,1.17,5.74l-1.11,1.24c-4.05,3.92-7.75,6-10.28,6m17-26c-6.05,0-12.69,3.71-16.89,7.19l.34.47c6.48-4.54,15.5-7.51,18-3.06,1.3,2.35-.93,7.07-4,10.81.74-1.64.25-4.82-4.1-4.82-7.26,0-21.56,9.63-21.56,19.48,0,4,2.75,6.52,7.26,6.52,12.07,0,28.44-19.79,28.44-29.7-.06-3.49-2.07-6.89-7.41-6.89"/><path id="_複合路徑_2" data-name="&lt;複合路徑&gt;" class="cls-1" d="M57.48,78.8a2.15,2.15,0,0,1-1.67-.68,2.07,2.07,0,0,1-.31-1.82,3.88,3.88,0,0,1,3.65-2.66H63l-1.39,5.19H57.48ZM68.63,63.3a5.74,5.74,0,0,0-4.2-2H57.36L56.15,65.8h6.67l.65.06a1.47,1.47,0,0,1,1,.53,2,2,0,0,1,.12,1.66l-.31,1.18H60c-3.61,0-8.64,2.59-9.75,6.76a5.68,5.68,0,0,0,1,5.22,6.88,6.88,0,0,0,5.31,2h8.84l2.31-8.64,1.7-6.36a5.33,5.33,0,0,0-.83-4.94"/><path id="_路徑_" data-name="&lt;路徑&gt;" class="cls-1" d="M117.1,61.32A8.46,8.46,0,0,0,112,63a7.2,7.2,0,0,0-2.75,4.17c-1,3.86,2,5.74,4.45,7.07,1.76,1,3.27,1.76,2.93,3-.25.87-.62,1.64-2.78,1.64h-6.58l-1.2,4.48h7.29a8.38,8.38,0,0,0,5.21-1.52,7.94,7.94,0,0,0,2.78-4.6,5,5,0,0,0-1-4.85,12.49,12.49,0,0,0-3.61-2.5c-1.57-.86-3.06-1.66-2.81-2.62a2,2,0,0,1,2-1.42h6.42l1.21-4.48Z"/><path id="_路徑_2" data-name="&lt;路徑&gt;" class="cls-1" d="M78.88,61.32A8.47,8.47,0,0,0,73.75,63,7.25,7.25,0,0,0,71,67.13c-1,3.86,2,5.74,4.45,7.07,1.76,1,3.27,1.76,2.93,3-.24.87-.61,1.64-2.78,1.64H69l-1.21,4.48h7.29a8.39,8.39,0,0,0,5.22-1.52,8,8,0,0,0,2.78-4.6,5.05,5.05,0,0,0-1-4.85,12.77,12.77,0,0,0-3.61-2.5c-1.58-.86-3.06-1.66-2.81-2.62a2,2,0,0,1,2-1.42h6.39l1.21-4.48Z"/><polygon id="_路徑_3" data-name="&lt;路徑&gt;" class="cls-1" points="88.82 61.32 83.11 83.28 87.92 83.28 93.64 61.32 88.82 61.32"/><path id="_路徑_4" data-name="&lt;路徑&gt;" class="cls-1" d="M106.51,61.32a14.38,14.38,0,0,0-14.39,11c-1.66,6.27,1.67,11,7.75,11H104l1.2-4.47h-4.07c-2.29,0-5.41-1.79-4.17-6.52a9.1,9.1,0,0,1,8.68-6.51h2.59l1.2-4.48-2.87.06Z"/><path id="_複合路徑_3" data-name="&lt;複合路徑&gt;" class="cls-1" d="M123.25,82.26h.43v-1H124a1.49,1.49,0,0,1,.46.06c.16.09.22.28.22.56v.34h.4v0a.24.24,0,0,0,0-.13v-.37a.6.6,0,0,0-.12-.37.64.64,0,0,0-.41-.25.69.69,0,0,0,.34-.12.5.5,0,0,0,.25-.46.61.61,0,0,0-.37-.62,1.84,1.84,0,0,0-.65-.09h-.83l0,2.44Zm1.2-1.3a1.2,1.2,0,0,1-.4.06h-.37v-.86h.37a1.2,1.2,0,0,1,.53.09c.12.06.15.18.15.34a.4.4,0,0,1-.28.37m1.24-1.45a2.16,2.16,0,0,0-1.55-.65,2.09,2.09,0,0,0-1.54.65,2.13,2.13,0,0,0-.65,1.54,2.06,2.06,0,0,0,.65,1.55,2.12,2.12,0,0,0,1.54.64,2.1,2.1,0,0,0,1.55-.64,2.16,2.16,0,0,0,.65-1.55,2.13,2.13,0,0,0-.65-1.54m-.22.21a1.81,1.81,0,0,1,.56,1.33,1.86,1.86,0,0,1-.56,1.36,1.85,1.85,0,0,1-2.65,0,1.83,1.83,0,0,1-.56-1.36,1.88,1.88,0,0,1,3.21-1.33"/></g></svg>