<svg id="圖層_1" data-name="圖層 1" xmlns="http://www.w3.org/2000/svg" viewBox="0 0 140 140"><defs><style>.cls-1{fill:gray;}</style></defs><title>ftc</title><path class="cls-1" d="M70,23.32a48,48,0,1,0,48,48A48.05,48.05,0,0,0,70,23.32Zm0,95.2a47.21,47.21,0,1,1,47.25-47.2A47.28,47.28,0,0,1,70,118.52Z"/><path class="cls-1" d="M69.65,28.33a42.81,42.81,0,1,0,42.92,42.81A42.91,42.91,0,0,0,69.65,28.33ZM29.45,72.38h10.7v5.69h8.72v5H40.15V87.3H32.87A39.36,39.36,0,0,1,29.45,72.38ZM48.87,61v4.26H40.15v4.26H29.46a39.47,39.47,0,0,1,3.25-14.21h7.44V61Zm2.68,22v-5H78.38V72.38h31.47a39.17,39.17,0,0,1-3.42,14.92H58.93V83Zm26.83-13.5V65.28H51.55V61h47V55.33h8.09a39.46,39.46,0,0,1,3.24,14.21ZM69.65,31.18a40.31,40.31,0,0,1,35.57,21.31H98.51V48.23H40.15v4.26H34.08A40.32,40.32,0,0,1,69.65,31.18Zm0,79.92A40.29,40.29,0,0,1,34.27,90.15h5.88v5.68H58.93V90.15H105A40.31,40.31,0,0,1,69.65,111.1Z"/></svg>