<svg id="圖層_1" data-name="圖層 1" xmlns="http://www.w3.org/2000/svg" xmlns:xlink="http://www.w3.org/1999/xlink" viewBox="0 0 140 140"><defs><style>.cls-1,.cls-2{fill:none;}.cls-2{clip-rule:evenodd;}.cls-3{clip-path:url(#clip-path);}.cls-4{clip-path:url(#clip-path-2);}.cls-5{clip-path:url(#clip-path-3);}.cls-6{clip-path:url(#clip-path-4);}.cls-7{clip-path:url(#clip-path-5);}.cls-8{clip-path:url(#clip-path-6);}.cls-9{clip-path:url(#clip-path-7);}.cls-10{clip-path:url(#clip-path-8);}.cls-11{clip-path:url(#clip-path-9);}.cls-12{clip-path:url(#clip-path-10);}.cls-13{clip-path:url(#clip-path-11);}.cls-14{clip-path:url(#clip-path-12);}.cls-15{clip-path:url(#clip-path-13);}.cls-16{clip-path:url(#clip-path-14);}.cls-17{clip-path:url(#clip-path-15);}.cls-18{clip-path:url(#clip-path-16);}.cls-19{clip-path:url(#clip-path-17);}.cls-20{clip-path:url(#clip-path-18);}.cls-21{clip-path:url(#clip-path-19);}.cls-22{clip-path:url(#clip-path-20);}.cls-23{clip-path:url(#clip-path-21);}.cls-24{clip-path:url(#clip-path-22);}.cls-25{clip-path:url(#clip-path-23);}.cls-26{clip-path:url(#clip-path-24);}.cls-27{clip-path:url(#clip-path-25);}.cls-28{clip-path:url(#clip-path-26);}.cls-29{clip-path:url(#clip-path-27);}.cls-30{clip-path:url(#clip-path-28);}.cls-31{clip-path:url(#clip-path-29);}.cls-32{clip-path:url(#clip-path-30);}.cls-33{clip-path:url(#clip-path-31);}.cls-34{clip-path:url(#clip-path-32);}.cls-35{clip-path:url(#clip-path-33);}.cls-36{clip-path:url(#clip-path-34);}.cls-37{clip-path:url(#clip-path-35);}.cls-38{clip-path:url(#clip-path-36);}.cls-39{clip-path:url(#clip-path-37);}.cls-40{clip-path:url(#clip-path-38);}.cls-41{clip-path:url(#clip-path-39);}.cls-42{clip-path:url(#clip-path-40);}.cls-43{clip-path:url(#clip-path-41);}.cls-44{clip-path:url(#clip-path-42);}.cls-45{clip-path:url(#clip-path-43);}.cls-46{clip-path:url(#clip-path-44);}.cls-47{clip-path:url(#clip-path-45);}.cls-48{clip-path:url(#clip-path-46);}.cls-49{clip-path:url(#clip-path-47);}.cls-50{clip-path:url(#clip-path-48);}.cls-51{clip-path:url(#clip-path-49);}.cls-52{clip-path:url(#clip-path-50);}.cls-53{clip-path:url(#clip-path-51);}.cls-54{clip-path:url(#clip-path-52);}.cls-55{clip-path:url(#clip-path-53);}.cls-56{clip-path:url(#clip-path-54);}.cls-57{clip-path:url(#clip-path-55);}.cls-58{clip-path:url(#clip-path-56);}.cls-59{clip-path:url(#clip-path-57);}.cls-60{clip-path:url(#clip-path-58);}.cls-61{clip-path:url(#clip-path-59);}.cls-62{clip-path:url(#clip-path-60);}.cls-63{clip-path:url(#clip-path-61);}.cls-64{clip-path:url(#clip-path-62);}.cls-65{clip-path:url(#clip-path-63);}.cls-66{clip-path:url(#clip-path-64);}.cls-67{clip-path:url(#clip-path-65);}.cls-68{clip-path:url(#clip-path-66);}.cls-69{clip-path:url(#clip-path-67);}.cls-70{clip-path:url(#clip-path-68);}.cls-71{clip-path:url(#clip-path-69);}.cls-72{clip-path:url(#clip-path-70);}.cls-73{clip-path:url(#clip-path-71);}.cls-74{clip-path:url(#clip-path-72);}.cls-75{clip-path:url(#clip-path-73);}.cls-76{clip-path:url(#clip-path-74);}.cls-77{clip-path:url(#clip-path-75);}.cls-78{clip-path:url(#clip-path-76);}.cls-79{clip-path:url(#clip-path-77);}.cls-80{clip-path:url(#clip-path-78);}.cls-81{clip-path:url(#clip-path-79);}.cls-82{clip-path:url(#clip-path-80);}.cls-83{clip-path:url(#clip-path-81);}.cls-84{clip-path:url(#clip-path-82);}.cls-85{clip-path:url(#clip-path-83);}.cls-86{clip-path:url(#clip-path-84);}.cls-87{clip-path:url(#clip-path-85);}.cls-88{clip-path:url(#clip-path-86);}.cls-89{clip-path:url(#clip-path-87);}.cls-90{clip-path:url(#clip-path-88);}.cls-91{clip-path:url(#clip-path-89);}.cls-92{clip-path:url(#clip-path-90);}.cls-93{clip-path:url(#clip-path-91);}.cls-94{clip-path:url(#clip-path-92);}.cls-95{clip-path:url(#clip-path-93);}.cls-96{clip-path:url(#clip-path-94);}.cls-97{clip-path:url(#clip-path-95);}.cls-98{clip-path:url(#clip-path-96);}.cls-99{clip-path:url(#clip-path-97);}.cls-100{clip-path:url(#clip-path-98);}.cls-101{clip-path:url(#clip-path-99);}.cls-102{clip-path:url(#clip-path-100);}.cls-103{clip-path:url(#clip-path-101);}.cls-104{clip-path:url(#clip-path-102);}.cls-105{clip-path:url(#clip-path-103);}.cls-106{clip-path:url(#clip-path-104);}.cls-107{clip-path:url(#clip-path-105);}.cls-108{clip-path:url(#clip-path-106);}.cls-109{clip-path:url(#clip-path-107);}.cls-110{clip-path:url(#clip-path-108);}.cls-111{clip-path:url(#clip-path-109);}.cls-112{clip-path:url(#clip-path-110);}.cls-113{clip-path:url(#clip-path-111);}.cls-114{clip-path:url(#clip-path-112);}.cls-115{fill:#b2b2b2;}</style><clipPath id="clip-path"><rect class="cls-1" x="-167.6" y="-886.91" width="1024" height="700"/></clipPath><clipPath id="clip-path-2"><path class="cls-2" d="M79.22-417.1l3.37,0c12.31.85,27.08,12.2,27.08,28.88v13.07h-12v-13.07c0-8.14-6.32-14.87-15.13-15.46H79.22Z"/></clipPath><clipPath id="clip-path-3"><path class="cls-2" d="M79.22-402.41h3.29c8.54,0,14,8.35,13.82,14.15v13.06H87.17v-10.54c-.13-2.65-1.74-4.1-4.68-4.15H79.22Z"/></clipPath><clipPath id="clip-path-4"><path class="cls-2" d="M79.22-388.27h3c2.39,0,3.42,1.19,3.42,3.82v9.25H79.22Z"/></clipPath><clipPath id="clip-path-5"><polygon class="cls-2" points="36.1 -375.54 36.1 -387.95 44.63 -387.95 44.63 -384.82 39.72 -384.82 39.72 -382.91 43.63 -382.91 43.63 -379.91 39.72 -379.91 39.72 -375.54 36.1 -375.54"/></clipPath><clipPath id="clip-path-6"><path class="cls-2" d="M64.22-380.35h3.43a5.48,5.48,0,0,1-1.57,3.8,5.34,5.34,0,0,1-3.83,1.35A5.44,5.44,0,0,1,58-376.91a7,7,0,0,1-1.58-4.82,7,7,0,0,1,1.54-4.79,5.35,5.35,0,0,1,4.2-1.75A5.47,5.47,0,0,1,66-386.91a5.32,5.32,0,0,1,1.57,3.71H64.12a2.21,2.21,0,0,0-.56-1.43,1.83,1.83,0,0,0-1.35-.49,1.76,1.76,0,0,0-1.6.86,4.9,4.9,0,0,0-.53,2.58,4.65,4.65,0,0,0,.56,2.56,1.88,1.88,0,0,0,1.67.87,1.75,1.75,0,0,0,1.33-.53,2.49,2.49,0,0,0,.58-1.52Z"/></clipPath><clipPath id="clip-path-7"><polygon class="cls-2" points="69.18 -375.54 69.18 -387.95 78.19 -387.95 78.19 -384.97 72.8 -384.97 72.8 -383.32 77.36 -383.32 77.36 -380.48 72.8 -380.48 72.8 -378.56 78.42 -378.56 78.42 -375.54 69.18 -375.54"/></clipPath><clipPath id="clip-path-8"><path class="cls-2" d="M19.13-389.83v-12.59h3.45l3.17,5.86a3.39,3.39,0,0,1,.31.7c.11.3.23.66.35,1.09a2.84,2.84,0,0,0-.07-.74,4.72,4.72,0,0,1,0-1v-5.91H29.8v12.59H26.32l-3.17-5.81a3.94,3.94,0,0,1-.32-.73c-.12-.31-.23-.67-.35-1.08,0,.23.06.46.07.7s0,.58,0,1v5.9Z"/></clipPath><clipPath id="clip-path-9"><polygon class="cls-2" points="59.25 -389.83 59.25 -399.1 55.99 -399.1 55.99 -402.42 66.07 -402.42 66.07 -399.1 62.88 -399.1 62.88 -389.83 59.25 -389.83"/></clipPath><clipPath id="clip-path-10"><polygon class="cls-2" points="67.32 -389.83 67.32 -402.42 70.95 -402.42 70.95 -398.15 74.34 -398.15 74.34 -402.42 77.97 -402.42 77.97 -389.83 74.34 -389.83 74.34 -394.71 70.95 -394.71 70.95 -389.83 67.32 -389.83"/></clipPath><clipPath id="clip-path-11"><polygon class="cls-2" points="48.37 -403.73 48.37 -413.79 45.12 -413.79 45.12 -417.39 55.17 -417.39 55.17 -413.79 51.99 -413.79 51.99 -403.73 48.37 -403.73"/></clipPath><clipPath id="clip-path-12"><polygon class="cls-2" points="56.41 -403.73 56.41 -417.39 60.04 -417.39 60.04 -412.75 63.42 -412.75 63.42 -417.39 67.04 -417.39 67.04 -403.73 63.42 -403.73 63.42 -409.03 60.04 -409.03 60.04 -403.73 56.41 -403.73"/></clipPath><clipPath id="clip-path-13"><polygon class="cls-2" points="69.17 -403.73 69.17 -417.39 78.19 -417.39 78.19 -414.12 72.8 -414.12 72.8 -412.3 77.36 -412.3 77.36 -409.17 72.8 -409.17 72.8 -407.05 78.42 -407.05 78.42 -403.73 69.17 -403.73"/></clipPath><clipPath id="clip-path-14"><path class="cls-2" d="M48.9-379.75,50.05-384l1.13,4.29Zm3-8.16H48.23l-4,12.41h3.56l.44-1.65h3.59l.42,1.65h3.59Z"/></clipPath><clipPath id="clip-path-15"><path class="cls-2" d="M39-393.48a2.12,2.12,0,0,1-1.68.83,2.12,2.12,0,0,1-1.67-.83,6.65,6.65,0,0,1,0-5.25,2.1,2.1,0,0,1,1.67-.84,2.1,2.1,0,0,1,1.68.84,5,5,0,0,1,.53,2.64A5,5,0,0,1,39-393.48ZM41.63-401a5.48,5.48,0,0,0-4.3-1.77A5.46,5.46,0,0,0,33-401a7.09,7.09,0,0,0-1.58,4.86A7.06,7.06,0,0,0,33-391.26a5.46,5.46,0,0,0,4.3,1.78,5.44,5.44,0,0,0,4.3-1.78,7.07,7.07,0,0,0,1.57-4.85A7.08,7.08,0,0,0,41.63-401Z"/></clipPath><clipPath id="clip-path-16"><path class="cls-2" d="M51.3-397.27a2,2,0,0,1-1.2.26H48.45v-2.36H50a2.33,2.33,0,0,1,1.29.26,1.17,1.17,0,0,1,.33.93A1.14,1.14,0,0,1,51.3-397.27Zm3.78,6.18L55-392.91a3.79,3.79,0,0,0-.46-1.92,2.2,2.2,0,0,0-1.38-.88,3.09,3.09,0,0,0,1.38-1.2,3.87,3.87,0,0,0,.44-1.92,3.3,3.3,0,0,0-1.08-2.77,6,6,0,0,0-3.63-.85H44.86v12.62h3.59v-4.34H50a1.51,1.51,0,0,1,1.2.4,2.13,2.13,0,0,1,.35,1.37v1.26a2.26,2.26,0,0,0,0,.52,3.86,3.86,0,0,0,.15.79H55.4v-.47C55.2-390.32,55.09-390.58,55.08-391.09Z"/></clipPath><clipPath id="clip-path-17"><path class="cls-1" d="M245-379.23H241.4a2.37,2.37,0,0,0-.52-1.25,2.66,2.66,0,0,0-1.93-.58,2.94,2.94,0,0,0-1.85.44,1.13,1.13,0,0,0-.4.92c0,.54.75,1,2.25,1.3,1.7.37,2.92.7,3.67.95l.5.2A3.47,3.47,0,0,1,245.4-374a4.14,4.14,0,0,1-2.21,3.89,5.77,5.77,0,0,1-.56.27,8.31,8.31,0,0,1-3.3.62,9.18,9.18,0,0,1-4.52-1,4.39,4.39,0,0,1-1.62-1.58,4.46,4.46,0,0,1-.54-2.23h3.75a1.77,1.77,0,0,0,.69,1.49,3.87,3.87,0,0,0,2.33.54,2.86,2.86,0,0,0,1.86-.51,1.2,1.2,0,0,0,.47-.92c0-.58-.74-1-2.21-1.36a24.61,24.61,0,0,1-4.14-1.13,3.44,3.44,0,0,1-2.25-3.3,4.28,4.28,0,0,1,1.18-3.07,5.77,5.77,0,0,1,4.43-1.57,9.44,9.44,0,0,1,3.89.69l.23.13a4,4,0,0,1,1.59,1.52A4.62,4.62,0,0,1,245-379.23Z"/></clipPath><clipPath id="clip-path-18"><path class="cls-1" d="M243.4-388.35a.6.6,0,0,1-.08.78.68.68,0,0,1-.48.21.82.82,0,0,1,.2.12l.34.46.27.46h-.44l-.21-.37a2,2,0,0,0-.35-.5l-.3-.09h-.22v1h-.37v-2.36h.93a1.74,1.74,0,0,1,.45.06A.58.58,0,0,1,243.4-388.35Zm-.3.38a.31.31,0,0,0,0-.19.31.31,0,0,0-.16-.12,1,1,0,0,0-.24,0h-.56v.69h.56a.52.52,0,0,0,.34-.1A.35.35,0,0,0,243.1-388Z"/></clipPath><clipPath id="clip-path-19"><path class="cls-1" d="M244.8-387.51a2.25,2.25,0,0,1-.28,1.07,2,2,0,0,1-.79.79,2.21,2.21,0,0,1-1.06.28,2.18,2.18,0,0,1-1.06-.28,2,2,0,0,1-.79-.79,2.25,2.25,0,0,1-.28-1.07,2.15,2.15,0,0,1,.28-1.08,1.87,1.87,0,0,1,.81-.79,2.36,2.36,0,0,1,1-.29,2.1,2.1,0,0,1,1,.29,1.85,1.85,0,0,1,.8.79A2.09,2.09,0,0,1,244.8-387.51Zm-.35,0a1.76,1.76,0,0,0-.24-.9,1.7,1.7,0,0,0-.67-.66,1.93,1.93,0,0,0-.87-.24,1.86,1.86,0,0,0-.87.24,1.64,1.64,0,0,0-.67.66,1.76,1.76,0,0,0-.24.9,1.75,1.75,0,0,0,.24.89,1.61,1.61,0,0,0,.66.66,1.81,1.81,0,0,0,.88.23,1.84,1.84,0,0,0,.89-.23,1.79,1.79,0,0,0,.65-.66A1.85,1.85,0,0,0,244.45-387.51Z"/></clipPath><clipPath id="clip-path-20"><polygon class="cls-1" points="223.8 -404.95 233.94 -388.06 223.8 -388.06 217.66 -388.06 207.98 -404.19 200.65 -416.4 207.98 -420.81 212.6 -423.59 223.8 -404.95"/></clipPath><clipPath id="clip-path-21"><path class="cls-1" d="M227.79-375.57v-1.53a4,4,0,0,0-4-3.26,4,4,0,0,0-4,4,4,4,0,0,0,4,4A4.06,4.06,0,0,0,227.79-375.57Zm3.37-.76v6.92h-3.37v-.76a7.27,7.27,0,0,1-4,1.17,7.34,7.34,0,0,1-7.07-7.34,7.33,7.33,0,0,1,7.07-7.33,7.2,7.2,0,0,1,4,1.18v-.81h3.37Z"/></clipPath><clipPath id="clip-path-22"><path class="cls-1" d="M212-375.57v-1.53a4,4,0,0,0-3.95-3.26,4,4,0,0,0-4,4,4,4,0,0,0,4,4A4,4,0,0,0,212-375.57Zm3.37-.76v6.92H212v-.76A7.3,7.3,0,0,1,208-369a7.34,7.34,0,0,1-7.07-7.34,7.33,7.33,0,0,1,7.07-7.33,7.22,7.22,0,0,1,3.95,1.18v-5.57h3.37Z"/></clipPath><clipPath id="clip-path-23"><polygon class="cls-1" points="207.98 -394.7 211.95 -388.06 207.98 -388.06 195.68 -388.06 186.65 -403.1 186.25 -403.75 186.65 -403.99 198.21 -410.95 207.98 -394.7"/></clipPath><clipPath id="clip-path-24"><rect class="cls-1" x="195.7" y="-383.67" width="3.67" height="14.26"/></clipPath><clipPath id="clip-path-25"><rect class="cls-1" x="195.7" y="-387.99" width="3.67" height="3.22"/></clipPath><clipPath id="clip-path-26"><path class="cls-1" d="M190.65-375.57v-1.53a4,4,0,0,0-4-3.26,4,4,0,0,0-4,4,4,4,0,0,0,4,4A4.06,4.06,0,0,0,190.65-375.57Zm3.37-.76v6.92h-3.37v-.76a7.27,7.27,0,0,1-4,1.17,7.34,7.34,0,0,1-7.07-7.34,7.33,7.33,0,0,1,7.07-7.33,7.2,7.2,0,0,1,4,1.18v-5.57H194Z"/></clipPath><clipPath id="clip-path-27"><polygon class="cls-1" points="186.65 -393.62 189.98 -388.06 186.65 -388.06 173.7 -388.06 171.87 -391.11 183.83 -398.29 186.65 -393.62"/></clipPath><clipPath id="clip-path-28"><path class="cls-1" d="M174.66-375.57v-1.53a4,4,0,0,0-4-3.26,4,4,0,0,0-4,4,4,4,0,0,0,4,4A4.06,4.06,0,0,0,174.66-375.57Zm3.37-.76v6.92h-3.37v-.76a7.27,7.27,0,0,1-4,1.17,7.34,7.34,0,0,1-7.07-7.34,7.33,7.33,0,0,1,7.07-7.33,7.2,7.2,0,0,1,4,1.18v-.81H178Z"/></clipPath><clipPath id="clip-path-29"><path class="cls-1" d="M341.38-408.22h-4.66l4.83,12.64h5.26l4.93-12.64H347.2L344.26-400Zm-13.47,5c0-1.89.39-2.94,2.22-2.94s2.27.83,2.27,2.94Zm2.39,5.65c-1.94,0-2.39-.83-2.39-3.16h8.7c0-5.6-1.33-7.93-6.31-7.93-5.43,0-6.9,1.89-6.9,6.75s2,7,6.6,7,6.21-1.66,6.32-4.26H332.4C332.4-398.07,332-397.57,330.3-397.57Zm-11.7-10.7h-4.26v12.64h8.53v-3H318.6Zm33.64,22.56v-31.2m0,31.2a33.49,33.49,0,0,0-7.76,2.8,38.77,38.77,0,0,0-15.79-3.49,40.25,40.25,0,0,0-17.35,4l-7-34.51h47.93"/></clipPath><clipPath id="clip-path-30"><path class="cls-1" d="M370.09-380.57c0-.16-.23-.28-.78-.28v.61c.39,0,.78,0,.78-.32Zm-1.28,1.66v-2.42h.67c.66,0,1.16.16,1.16.77,0,.28-.17.5-.55.72l.44.94h-.44l-.39-.72h-.39v.71Zm2.88-1.21a2.05,2.05,0,0,0-2.05-2.05,2.05,2.05,0,0,0-2.05,2.05,2.07,2.07,0,0,0,2,2,2,2,0,0,0,1.48-.55A2,2,0,0,0,371.69-380.12Zm-2.05-2.43a2.42,2.42,0,0,1,2.24,1.17,2.45,2.45,0,0,1,0,2.53,2.42,2.42,0,0,1-2.24,1.17,2.44,2.44,0,0,1-1.73-.71,2.39,2.39,0,0,1-.71-1.73A2.45,2.45,0,0,1,369.64-382.55Zm-3.43-17.07h-4.49c0,3,1.66,4.26,6.54,4.26,4.54,0,6.37-1,6.37-4.15,0-5-8.42-2.5-8.42-5.49,0-.72.83-1.33,1.94-1.33a1.73,1.73,0,0,1,1.88,1.55h4.27c-.06-2.66-1.61-3.88-5.88-3.88-4.43,0-6.48,1.22-6.48,4,0,5.49,8.42,2.55,8.42,5.66,0,.94-.5,1.38-1.71,1.38C367.2-397.63,366.32-398.18,366.21-399.62Zm-5.93-7.87-.22,1.27c1.33-.83,1.88-1.55,1.88-2.49a1.57,1.57,0,0,0-.51-1.22,1.56,1.56,0,0,0-1.26-.39,1.51,1.51,0,0,0-1.2.36,1.51,1.51,0,0,0-.52,1.14C358.45-407.66,359.22-407.49,360.28-407.49Zm-7.32-.83v12.69h4.16v-12.69Zm-.77-8.59h32.3l-7.59,34.52c-5-2.88-9.53-4.1-16.12-4.1a45,45,0,0,0-8.59.78"/></clipPath><clipPath id="clip-path-31"><path class="cls-2" d="M79.22-557.1l3.37,0c12.31.85,27.08,12.2,27.08,28.88v13.07h-12v-13.07c0-8.14-6.32-14.87-15.13-15.46H79.22Z"/></clipPath><clipPath id="clip-path-32"><path class="cls-2" d="M79.22-542.41h3.29c8.54,0,14,8.35,13.82,14.15v13.06H87.17v-10.54c-.13-2.65-1.74-4.1-4.68-4.15H79.22Z"/></clipPath><clipPath id="clip-path-33"><path class="cls-2" d="M79.22-528.27h3c2.39,0,3.42,1.19,3.42,3.82v9.25H79.22Z"/></clipPath><clipPath id="clip-path-34"><polygon class="cls-2" points="36.1 -515.54 36.1 -527.95 44.63 -527.95 44.63 -524.82 39.72 -524.82 39.72 -522.91 43.63 -522.91 43.63 -519.91 39.72 -519.91 39.72 -515.54 36.1 -515.54"/></clipPath><clipPath id="clip-path-35"><path class="cls-2" d="M64.22-520.35h3.43a5.48,5.48,0,0,1-1.57,3.8,5.34,5.34,0,0,1-3.83,1.35A5.44,5.44,0,0,1,58-516.91a7,7,0,0,1-1.58-4.82,7,7,0,0,1,1.54-4.79,5.35,5.35,0,0,1,4.2-1.75A5.47,5.47,0,0,1,66-526.91a5.32,5.32,0,0,1,1.57,3.71H64.12a2.21,2.21,0,0,0-.56-1.43,1.83,1.83,0,0,0-1.35-.49,1.76,1.76,0,0,0-1.6.86,4.9,4.9,0,0,0-.53,2.58,4.65,4.65,0,0,0,.56,2.56,1.88,1.88,0,0,0,1.67.87,1.75,1.75,0,0,0,1.33-.53,2.49,2.49,0,0,0,.58-1.52Z"/></clipPath><clipPath id="clip-path-36"><polygon class="cls-2" points="69.18 -515.54 69.18 -527.95 78.19 -527.95 78.19 -524.97 72.8 -524.97 72.8 -523.32 77.36 -523.32 77.36 -520.48 72.8 -520.48 72.8 -518.56 78.42 -518.56 78.42 -515.54 69.18 -515.54"/></clipPath><clipPath id="clip-path-37"><path class="cls-2" d="M19.13-529.83v-12.59h3.45l3.17,5.86a3.39,3.39,0,0,1,.31.7c.11.3.23.66.35,1.09a2.84,2.84,0,0,0-.07-.74,4.72,4.72,0,0,1,0-1v-5.91H29.8v12.59H26.32l-3.17-5.81a3.94,3.94,0,0,1-.32-.73c-.12-.31-.23-.67-.35-1.08,0,.23.06.46.07.7s0,.58,0,1v5.9Z"/></clipPath><clipPath id="clip-path-38"><polygon class="cls-2" points="59.25 -529.83 59.25 -539.1 55.99 -539.1 55.99 -542.42 66.07 -542.42 66.07 -539.1 62.88 -539.1 62.88 -529.83 59.25 -529.83"/></clipPath><clipPath id="clip-path-39"><polygon class="cls-2" points="67.32 -529.83 67.32 -542.42 70.95 -542.42 70.95 -538.15 74.34 -538.15 74.34 -542.42 77.97 -542.42 77.97 -529.83 74.34 -529.83 74.34 -534.71 70.95 -534.71 70.95 -529.83 67.32 -529.83"/></clipPath><clipPath id="clip-path-40"><polygon class="cls-2" points="48.37 -543.73 48.37 -553.79 45.12 -553.79 45.12 -557.39 55.17 -557.39 55.17 -553.79 51.99 -553.79 51.99 -543.73 48.37 -543.73"/></clipPath><clipPath id="clip-path-41"><polygon class="cls-2" points="56.41 -543.73 56.41 -557.39 60.04 -557.39 60.04 -552.75 63.42 -552.75 63.42 -557.39 67.04 -557.39 67.04 -543.73 63.42 -543.73 63.42 -549.03 60.04 -549.03 60.04 -543.73 56.41 -543.73"/></clipPath><clipPath id="clip-path-42"><polygon class="cls-2" points="69.17 -543.73 69.17 -557.39 78.19 -557.39 78.19 -554.12 72.8 -554.12 72.8 -552.3 77.36 -552.3 77.36 -549.17 72.8 -549.17 72.8 -547.05 78.42 -547.05 78.42 -543.73 69.17 -543.73"/></clipPath><clipPath id="clip-path-43"><path class="cls-2" d="M48.9-519.75,50.05-524l1.13,4.29Zm3-8.16H48.23l-4,12.41h3.56l.44-1.65h3.59l.42,1.65h3.59Z"/></clipPath><clipPath id="clip-path-44"><path class="cls-2" d="M39-533.48a2.12,2.12,0,0,1-1.68.83,2.12,2.12,0,0,1-1.67-.83,6.65,6.65,0,0,1,0-5.25,2.1,2.1,0,0,1,1.67-.84,2.1,2.1,0,0,1,1.68.84,5,5,0,0,1,.53,2.64A5,5,0,0,1,39-533.48ZM41.63-541a5.48,5.48,0,0,0-4.3-1.77A5.46,5.46,0,0,0,33-541a7.09,7.09,0,0,0-1.58,4.86A7.06,7.06,0,0,0,33-531.26a5.46,5.46,0,0,0,4.3,1.78,5.44,5.44,0,0,0,4.3-1.78,7.07,7.07,0,0,0,1.57-4.85A7.08,7.08,0,0,0,41.63-541Z"/></clipPath><clipPath id="clip-path-45"><path class="cls-2" d="M51.3-537.27a2,2,0,0,1-1.2.26H48.45v-2.36H50a2.33,2.33,0,0,1,1.29.26,1.17,1.17,0,0,1,.33.93A1.14,1.14,0,0,1,51.3-537.27Zm3.78,6.18L55-532.91a3.79,3.79,0,0,0-.46-1.92,2.2,2.2,0,0,0-1.38-.88,3.09,3.09,0,0,0,1.38-1.2,3.87,3.87,0,0,0,.44-1.92,3.3,3.3,0,0,0-1.08-2.77,6,6,0,0,0-3.63-.85H44.86v12.62h3.59v-4.34H50a1.51,1.51,0,0,1,1.2.4,2.13,2.13,0,0,1,.35,1.37v1.26a2.26,2.26,0,0,0,0,.52,3.86,3.86,0,0,0,.15.79H55.4v-.47C55.2-530.32,55.09-530.58,55.08-531.09Z"/></clipPath><clipPath id="clip-path-46"><path class="cls-1" d="M245-519.23H241.4a2.37,2.37,0,0,0-.52-1.25,2.66,2.66,0,0,0-1.93-.58,2.94,2.94,0,0,0-1.85.44,1.13,1.13,0,0,0-.4.92c0,.54.75,1,2.25,1.3,1.7.37,2.92.7,3.67.95l.5.2A3.47,3.47,0,0,1,245.4-514a4.14,4.14,0,0,1-2.21,3.89,5.77,5.77,0,0,1-.56.27,8.31,8.31,0,0,1-3.3.62,9.18,9.18,0,0,1-4.52-1,4.39,4.39,0,0,1-1.62-1.58,4.46,4.46,0,0,1-.54-2.23h3.75a1.77,1.77,0,0,0,.69,1.49,3.87,3.87,0,0,0,2.33.54,2.86,2.86,0,0,0,1.86-.51,1.2,1.2,0,0,0,.47-.92c0-.58-.74-1-2.21-1.36a24.61,24.61,0,0,1-4.14-1.13,3.44,3.44,0,0,1-2.25-3.3,4.28,4.28,0,0,1,1.18-3.07,5.77,5.77,0,0,1,4.43-1.57,9.44,9.44,0,0,1,3.89.69l.23.13a4,4,0,0,1,1.59,1.52A4.62,4.62,0,0,1,245-519.23Z"/></clipPath><clipPath id="clip-path-47"><path class="cls-1" d="M243.4-528.35a.6.6,0,0,1-.08.78.68.68,0,0,1-.48.21.82.82,0,0,1,.2.12l.34.46.27.46h-.44l-.21-.37a2,2,0,0,0-.35-.5l-.3-.09h-.22v1h-.37v-2.36h.93a1.74,1.74,0,0,1,.45.06A.58.58,0,0,1,243.4-528.35Zm-.3.38a.31.31,0,0,0,0-.19.31.31,0,0,0-.16-.12h-.8v.69h.56a.52.52,0,0,0,.34-.1A.35.35,0,0,0,243.1-528Z"/></clipPath><clipPath id="clip-path-48"><path class="cls-1" d="M244.8-527.51a2.25,2.25,0,0,1-.28,1.07,2,2,0,0,1-.79.79,2.21,2.21,0,0,1-1.06.28,2.18,2.18,0,0,1-1.06-.28,2,2,0,0,1-.79-.79,2.25,2.25,0,0,1-.28-1.07,2.15,2.15,0,0,1,.28-1.08,1.87,1.87,0,0,1,.81-.79,2.36,2.36,0,0,1,1-.29,2.1,2.1,0,0,1,1,.29,1.85,1.85,0,0,1,.8.79A2.09,2.09,0,0,1,244.8-527.51Zm-.35,0a1.76,1.76,0,0,0-.24-.9,1.7,1.7,0,0,0-.67-.66,1.93,1.93,0,0,0-.87-.24,1.86,1.86,0,0,0-.87.24,1.64,1.64,0,0,0-.67.66,1.76,1.76,0,0,0-.24.9,1.75,1.75,0,0,0,.24.89,1.61,1.61,0,0,0,.66.66,1.81,1.81,0,0,0,.88.23,1.84,1.84,0,0,0,.89-.23,1.79,1.79,0,0,0,.65-.66A1.85,1.85,0,0,0,244.45-527.51Z"/></clipPath><clipPath id="clip-path-49"><polygon class="cls-1" points="223.8 -544.95 233.94 -528.06 223.8 -528.06 217.66 -528.06 207.98 -544.19 200.65 -556.4 207.98 -560.81 212.6 -563.59 223.8 -544.95"/></clipPath><clipPath id="clip-path-50"><path class="cls-1" d="M227.79-515.57v-1.53a4,4,0,0,0-4-3.26,4,4,0,0,0-4,4,4,4,0,0,0,4,4A4.06,4.06,0,0,0,227.79-515.57Zm3.37-.76v6.92h-3.37v-.76a7.27,7.27,0,0,1-4,1.17,7.34,7.34,0,0,1-7.07-7.34,7.33,7.33,0,0,1,7.07-7.33,7.2,7.2,0,0,1,4,1.18v-.81h3.37Z"/></clipPath><clipPath id="clip-path-51"><path class="cls-1" d="M212-515.57v-1.53a4,4,0,0,0-3.95-3.26,4,4,0,0,0-4,4,4,4,0,0,0,4,4A4,4,0,0,0,212-515.57Zm3.37-.76v6.92H212v-.76A7.3,7.3,0,0,1,208-509a7.34,7.34,0,0,1-7.07-7.34,7.33,7.33,0,0,1,7.07-7.33,7.22,7.22,0,0,1,3.95,1.18v-5.57h3.37Z"/></clipPath><clipPath id="clip-path-52"><polygon class="cls-1" points="207.98 -534.7 211.95 -528.06 207.98 -528.06 195.68 -528.06 186.65 -543.1 186.25 -543.75 186.65 -543.99 198.21 -550.95 207.98 -534.7"/></clipPath><clipPath id="clip-path-53"><rect class="cls-1" x="195.7" y="-523.67" width="3.67" height="14.26"/></clipPath><clipPath id="clip-path-54"><rect class="cls-1" x="195.7" y="-527.99" width="3.67" height="3.22"/></clipPath><clipPath id="clip-path-55"><path class="cls-1" d="M190.65-515.57v-1.53a4,4,0,0,0-4-3.26,4,4,0,0,0-4,4,4,4,0,0,0,4,4A4.06,4.06,0,0,0,190.65-515.57Zm3.37-.76v6.92h-3.37v-.76a7.27,7.27,0,0,1-4,1.17,7.34,7.34,0,0,1-7.07-7.34,7.33,7.33,0,0,1,7.07-7.33,7.2,7.2,0,0,1,4,1.18v-5.57H194Z"/></clipPath><clipPath id="clip-path-56"><polygon class="cls-1" points="186.65 -533.62 189.98 -528.06 186.65 -528.06 173.7 -528.06 171.87 -531.11 183.83 -538.29 186.65 -533.62"/></clipPath><clipPath id="clip-path-57"><path class="cls-1" d="M174.66-515.57v-1.53a4,4,0,0,0-4-3.26,4,4,0,0,0-4,4,4,4,0,0,0,4,4A4.06,4.06,0,0,0,174.66-515.57Zm3.37-.76v6.92h-3.37v-.76a7.27,7.27,0,0,1-4,1.17,7.34,7.34,0,0,1-7.07-7.34,7.33,7.33,0,0,1,7.07-7.33,7.2,7.2,0,0,1,4,1.18v-.81H178Z"/></clipPath><clipPath id="clip-path-58"><path class="cls-1" d="M341.38-548.22h-4.66l4.83,12.64h5.26l4.93-12.64H347.2L344.26-540Zm-13.47,5c0-1.89.39-2.94,2.22-2.94s2.27.83,2.27,2.94Zm2.39,5.65c-1.94,0-2.39-.83-2.39-3.16h8.7c0-5.6-1.33-7.93-6.31-7.93-5.43,0-6.9,1.89-6.9,6.75s2,7,6.6,7,6.21-1.66,6.32-4.26H332.4C332.4-538.07,332-537.57,330.3-537.57Zm-11.7-10.7h-4.26v12.64h8.53v-3H318.6Zm33.64,22.56v-31.2m0,31.2a33.49,33.49,0,0,0-7.76,2.8,38.77,38.77,0,0,0-15.79-3.49,40.25,40.25,0,0,0-17.35,4l-7-34.51h47.93"/></clipPath><clipPath id="clip-path-59"><path class="cls-1" d="M370.09-520.57c0-.16-.23-.28-.78-.28v.61c.39,0,.78,0,.78-.32Zm-1.28,1.66v-2.42h.67c.66,0,1.16.16,1.16.77,0,.28-.17.5-.55.72l.44.94h-.44l-.39-.72h-.39v.71Zm2.88-1.21a2.05,2.05,0,0,0-2.05-2,2.05,2.05,0,0,0-2.05,2,2.07,2.07,0,0,0,2,2,2,2,0,0,0,1.48-.55A2,2,0,0,0,371.69-520.12Zm-2.05-2.43a2.42,2.42,0,0,1,2.24,1.17,2.45,2.45,0,0,1,0,2.53,2.42,2.42,0,0,1-2.24,1.17,2.44,2.44,0,0,1-1.73-.71,2.39,2.39,0,0,1-.71-1.73A2.45,2.45,0,0,1,369.64-522.55Zm-3.43-17.07h-4.49c0,3,1.66,4.26,6.54,4.26,4.54,0,6.37-1,6.37-4.15,0-5-8.42-2.5-8.42-5.49,0-.72.83-1.33,1.94-1.33a1.73,1.73,0,0,1,1.88,1.55h4.27c-.06-2.66-1.61-3.88-5.88-3.88-4.43,0-6.48,1.22-6.48,4,0,5.49,8.42,2.55,8.42,5.66,0,.94-.5,1.38-1.71,1.38C367.2-537.63,366.32-538.18,366.21-539.62Zm-5.93-7.87-.22,1.27c1.33-.83,1.88-1.55,1.88-2.49a1.57,1.57,0,0,0-.51-1.22,1.56,1.56,0,0,0-1.26-.39,1.51,1.51,0,0,0-1.2.36,1.51,1.51,0,0,0-.52,1.14C358.45-547.66,359.22-547.49,360.28-547.49Zm-7.32-.83v12.69h4.16v-12.69Zm-.77-8.59h32.3l-7.59,34.52c-5-2.88-9.53-4.1-16.12-4.1a45,45,0,0,0-8.59.78"/></clipPath><clipPath id="clip-path-60"><rect class="cls-1" x="468.63" y="-531.65" width="5.64" height="6.9"/></clipPath><clipPath id="clip-path-61"><path class="cls-1" d="M476.69-522.32H466.21v-11.76h10.52Zm-18.21,0h-9.25l.51-2.49h6.86l1.43-6.74h-4.44l-.93,4.39h-2.43l1.41-6.87h9.29Zm-8.08-18.59h5.7v-6.91h-4.42v-2.41h6.84v9.32h2.39v2.44H450.4Zm15.86,0h10.45v2.43H466.26Zm1.14-9.36h8.06v2.43H467.4Zm-23-5.26v38.47h38.39v-38.47Z"/></clipPath><clipPath id="clip-path-62"><path class="cls-1" d="M515.47-532a1.6,1.6,0,0,0-1.6,1.61v4a1.62,1.62,0,0,0,.76,1.5,1.63,1.63,0,0,0,1.68,0,1.61,1.61,0,0,0,.77-1.5v-4A1.62,1.62,0,0,0,515.47-532Z"/></clipPath><clipPath id="clip-path-63"><path class="cls-1" d="M494.86-532a1.59,1.59,0,0,0-1.13.47,1.62,1.62,0,0,0-.46,1.14v4a1.59,1.59,0,0,0,1.59,1.59,1.59,1.59,0,0,0,1.59-1.59v-4A1.61,1.61,0,0,0,494.86-532Z"/></clipPath><clipPath id="clip-path-64"><path class="cls-1" d="M519.57-526.42a4.09,4.09,0,0,1-4.09,4.09,4.09,4.09,0,0,1-4.09-4.09v-4a4.09,4.09,0,0,1,4.09-4.09,4.09,4.09,0,0,1,4.09,4.09Zm-9.37-11.7h-2.38l-3.25-6.79v6.82h-2.46v-12.14h2.46l3.25,6.88v-6.88h2.39Zm0,15.75h-8.09v-12.14h2.42v9.76h5.67Zm-13.72,2.46-.83-2.5a4.13,4.13,0,0,1-.78.08,4.08,4.08,0,0,1-4-4.09v-4a4,4,0,0,1,2-3.51,4.07,4.07,0,0,1,4.05,0,4,4,0,0,1,2,3.51v4a4.12,4.12,0,0,1-1.19,2.89l1.19,3.62Zm-5.64-30.36h2.45v8.09a1.59,1.59,0,0,0,1.59,1.59,1.59,1.59,0,0,0,1.59-1.59v-8.05h2.46v8.13a4,4,0,0,1-4,4h-.14a4,4,0,0,1-4-4Zm23.42,0h2.42v12.15h-2.42ZM486-555.53v38.47H524.4v-38.47Z"/></clipPath><clipPath id="clip-path-65"><path class="cls-1" d="M599.52-531.16a.72.72,0,0,1-.52-.21.7.7,0,0,1-.22-.51.74.74,0,0,1,.74-.74.74.74,0,0,1,.74.74.7.7,0,0,1-.22.51A.73.73,0,0,1,599.52-531.16Zm0-1.75a1,1,0,0,0-.94,1,1,1,0,0,0,1,1,1,1,0,0,0,1-1,1,1,0,0,0-.32-.73A1,1,0,0,0,599.52-532.91Z"/></clipPath><clipPath id="clip-path-66"><polygon class="cls-1" points="609.85 -536.49 604.68 -536.49 605.27 -545.47 601.92 -536.49 597.12 -536.49 604.73 -556.78 609.83 -556.78 609.24 -547.68 612.66 -556.78 617.46 -556.78 609.85 -536.49"/></clipPath><clipPath id="clip-path-67"><polygon class="cls-1" points="610.47 -536.49 618.08 -556.78 622.88 -556.78 615.27 -536.49 610.47 -536.49"/></clipPath><clipPath id="clip-path-68"><path class="cls-1" d="M596.57-543.49c-6.71,7.88-13,18.35-7.45,23.17s12.18,1.91,16.79.07,55.6-24,55.6-24c.49-.24.4-.55-.22-.4l-55.5,15C598.78-527.63,590.78-531.91,596.57-543.49Z"/></clipPath><clipPath id="clip-path-69"><path class="cls-1" d="M599.53-532h-.13v-.26h.13c.08,0,.18,0,.18.12S599.62-532,599.53-532Zm.17.18a.3.3,0,0,0,.2-.08.28.28,0,0,0,.07-.21c0-.27-.17-.34-.46-.34h-.42v1.11h.31v-.47l.26.47H600Z"/></clipPath><clipPath id="clip-path-70"><path class="cls-1" d="M647.74-555.09a.73.73,0,0,1-.72-.74.73.73,0,0,1,.73-.72.73.73,0,0,1,.73.73.74.74,0,0,1-.22.52A.73.73,0,0,1,647.74-555.09Zm0-1.76a1,1,0,0,0-.94,1,1,1,0,0,0,1,1,1,1,0,0,0,1-1,1,1,0,0,0-.32-.73A1,1,0,0,0,647.74-556.85Z"/></clipPath><clipPath id="clip-path-71"><path class="cls-1" d="M647.75-555.91h-.16v-.25h.13c.08,0,.18,0,.18.11S647.84-555.91,647.75-555.91Zm.17.16a.3.3,0,0,0,.2-.08.28.28,0,0,0,.07-.21c0-.27-.17-.33-.46-.33h-.42v1.1h.28v-.47l.26.47h.32Z"/></clipPath><clipPath id="clip-path-72"><path class="cls-1" d="M629.12-537.84l-.31-10.58,7.26-8Zm15.46-15.56,1.29-3.38H631.24l-5,6.08,2.32-6.08h-4.89l-7.55,20.29h4.8l3.22-8.49.26,8.49h14.72l1.4-3.91h-5.63l1.83-4.92h4.62l1.42-3.78h-4.62l1.58-4.27Z"/></clipPath><clipPath id="clip-path-73"><path class="cls-2" d="M79.22-697.1l3.37,0c12.31.85,27.08,12.2,27.08,28.88v13.07h-12v-13.07c0-8.14-6.32-14.87-15.13-15.46H79.22Z"/></clipPath><clipPath id="clip-path-74"><path class="cls-2" d="M79.22-682.41h3.29c8.54,0,14,8.35,13.82,14.15v13.06H87.17v-10.54c-.13-2.65-1.74-4.1-4.68-4.15H79.22Z"/></clipPath><clipPath id="clip-path-75"><polygon class="cls-2" points="36.1 -655.54 36.1 -667.95 44.63 -667.95 44.63 -664.82 39.72 -664.82 39.72 -662.91 43.63 -662.91 43.63 -659.91 39.72 -659.91 39.72 -655.54 36.1 -655.54"/></clipPath><clipPath id="clip-path-76"><path class="cls-2" d="M64.22-660.35h3.43a5.48,5.48,0,0,1-1.57,3.8,5.34,5.34,0,0,1-3.83,1.35A5.44,5.44,0,0,1,58-656.91a7,7,0,0,1-1.58-4.82,7,7,0,0,1,1.54-4.79,5.35,5.35,0,0,1,4.2-1.75A5.47,5.47,0,0,1,66-666.91a5.32,5.32,0,0,1,1.57,3.71H64.12a2.21,2.21,0,0,0-.56-1.43,1.83,1.83,0,0,0-1.35-.49,1.76,1.76,0,0,0-1.6.86,4.9,4.9,0,0,0-.53,2.58,4.65,4.65,0,0,0,.56,2.56,1.88,1.88,0,0,0,1.67.87,1.75,1.75,0,0,0,1.33-.53,2.49,2.49,0,0,0,.58-1.52Z"/></clipPath><clipPath id="clip-path-77"><polygon class="cls-2" points="69.18 -655.54 69.18 -667.95 78.19 -667.95 78.19 -664.97 72.8 -664.97 72.8 -663.32 77.36 -663.32 77.36 -660.48 72.8 -660.48 72.8 -658.56 78.42 -658.56 78.42 -655.54 69.18 -655.54"/></clipPath><clipPath id="clip-path-78"><path class="cls-2" d="M19.13-669.83v-12.59h3.45l3.17,5.86a3.39,3.39,0,0,1,.31.7c.11.3.23.66.35,1.09a2.84,2.84,0,0,0-.07-.74,4.72,4.72,0,0,1,0-1v-5.91H29.8v12.59H26.32l-3.17-5.81a3.94,3.94,0,0,1-.32-.73c-.12-.31-.23-.67-.35-1.08,0,.23.06.46.07.7s0,.58,0,1v5.9Z"/></clipPath><clipPath id="clip-path-79"><polygon class="cls-2" points="59.25 -669.83 59.25 -679.1 55.99 -679.1 55.99 -682.42 66.07 -682.42 66.07 -679.1 62.88 -679.1 62.88 -669.83 59.25 -669.83"/></clipPath><clipPath id="clip-path-80"><polygon class="cls-2" points="67.32 -669.83 67.32 -682.42 70.95 -682.42 70.95 -678.15 74.34 -678.15 74.34 -682.42 77.97 -682.42 77.97 -669.83 74.34 -669.83 74.34 -674.71 70.95 -674.71 70.95 -669.83 67.32 -669.83"/></clipPath><clipPath id="clip-path-81"><polygon class="cls-2" points="48.37 -683.73 48.37 -693.79 45.12 -693.79 45.12 -697.39 55.17 -697.39 55.17 -693.79 51.99 -693.79 51.99 -683.73 48.37 -683.73"/></clipPath><clipPath id="clip-path-82"><polygon class="cls-2" points="56.41 -683.73 56.41 -697.39 60.04 -697.39 60.04 -692.75 63.42 -692.75 63.42 -697.39 67.04 -697.39 67.04 -683.73 63.42 -683.73 63.42 -689.03 60.04 -689.03 60.04 -683.73 56.41 -683.73"/></clipPath><clipPath id="clip-path-83"><polygon class="cls-2" points="69.17 -683.73 69.17 -697.39 78.19 -697.39 78.19 -694.12 72.8 -694.12 72.8 -692.3 77.36 -692.3 77.36 -689.17 72.8 -689.17 72.8 -687.05 78.42 -687.05 78.42 -683.73 69.17 -683.73"/></clipPath><clipPath id="clip-path-84"><path class="cls-2" d="M48.9-659.75,50.05-664l1.13,4.29Zm3-8.16H48.23l-4,12.41h3.56l.44-1.65h3.59l.42,1.65h3.59Z"/></clipPath><clipPath id="clip-path-85"><path class="cls-2" d="M39-673.48a2.12,2.12,0,0,1-1.68.83,2.12,2.12,0,0,1-1.67-.83,6.65,6.65,0,0,1,0-5.25,2.1,2.1,0,0,1,1.67-.84,2.1,2.1,0,0,1,1.68.84,5,5,0,0,1,.53,2.64A5,5,0,0,1,39-673.48ZM41.63-681a5.48,5.48,0,0,0-4.3-1.77A5.46,5.46,0,0,0,33-681a7.09,7.09,0,0,0-1.58,4.86A7.06,7.06,0,0,0,33-671.26a5.46,5.46,0,0,0,4.3,1.78,5.44,5.44,0,0,0,4.3-1.78,7.07,7.07,0,0,0,1.57-4.85A7.08,7.08,0,0,0,41.63-681Z"/></clipPath><clipPath id="clip-path-86"><path class="cls-1" d="M245-659.23H241.4a2.37,2.37,0,0,0-.52-1.25,2.66,2.66,0,0,0-1.93-.58,2.94,2.94,0,0,0-1.85.44,1.13,1.13,0,0,0-.4.92c0,.54.75,1,2.25,1.3,1.7.37,2.92.7,3.67.95l.5.2A3.47,3.47,0,0,1,245.4-654a4.14,4.14,0,0,1-2.21,3.89,5.77,5.77,0,0,1-.56.27,8.31,8.31,0,0,1-3.3.62,9.18,9.18,0,0,1-4.52-1,4.39,4.39,0,0,1-1.62-1.58,4.46,4.46,0,0,1-.54-2.23h3.75a1.77,1.77,0,0,0,.69,1.49,3.87,3.87,0,0,0,2.33.54,2.86,2.86,0,0,0,1.86-.51,1.2,1.2,0,0,0,.47-.92c0-.58-.74-1-2.21-1.36a24.61,24.61,0,0,1-4.14-1.13,3.44,3.44,0,0,1-2.25-3.3,4.28,4.28,0,0,1,1.18-3.07,5.77,5.77,0,0,1,4.43-1.57,9.44,9.44,0,0,1,3.89.69l.23.13a4,4,0,0,1,1.59,1.52A4.62,4.62,0,0,1,245-659.23Z"/></clipPath><clipPath id="clip-path-87"><path class="cls-1" d="M243.4-668.35a.6.6,0,0,1-.08.78.68.68,0,0,1-.48.21.82.82,0,0,1,.2.12l.34.46.27.46h-.44l-.21-.37a2,2,0,0,0-.35-.5l-.3-.09h-.22v1h-.37v-2.36h.93a1.74,1.74,0,0,1,.45.06A.58.58,0,0,1,243.4-668.35Zm-.3.38a.31.31,0,0,0,0-.19.31.31,0,0,0-.16-.12h-.8v.69h.56a.52.52,0,0,0,.34-.1A.35.35,0,0,0,243.1-668Z"/></clipPath><clipPath id="clip-path-88"><path class="cls-1" d="M244.8-667.51a2.25,2.25,0,0,1-.28,1.07,2,2,0,0,1-.79.79,2.21,2.21,0,0,1-1.06.28,2.18,2.18,0,0,1-1.06-.28,2,2,0,0,1-.79-.79,2.25,2.25,0,0,1-.28-1.07,2.15,2.15,0,0,1,.28-1.08,1.87,1.87,0,0,1,.81-.79,2.36,2.36,0,0,1,1-.29,2.1,2.1,0,0,1,1,.29,1.85,1.85,0,0,1,.8.79A2.09,2.09,0,0,1,244.8-667.51Zm-.35,0a1.76,1.76,0,0,0-.24-.9,1.7,1.7,0,0,0-.67-.66,1.93,1.93,0,0,0-.87-.24,1.86,1.86,0,0,0-.87.24,1.64,1.64,0,0,0-.67.66,1.76,1.76,0,0,0-.24.9,1.75,1.75,0,0,0,.24.89,1.61,1.61,0,0,0,.66.66,1.81,1.81,0,0,0,.88.23,1.84,1.84,0,0,0,.89-.23,1.79,1.79,0,0,0,.65-.66A1.85,1.85,0,0,0,244.45-667.51Z"/></clipPath><clipPath id="clip-path-89"><polygon class="cls-1" points="223.8 -684.95 233.94 -668.06 223.8 -668.06 217.66 -668.06 207.98 -684.19 200.65 -696.4 207.98 -700.81 212.6 -703.59 223.8 -684.95"/></clipPath><clipPath id="clip-path-90"><path class="cls-1" d="M227.79-655.57v-1.53a4,4,0,0,0-4-3.26,4,4,0,0,0-4,4,4,4,0,0,0,4,4A4.06,4.06,0,0,0,227.79-655.57Zm3.37-.76v6.92h-3.37v-.76a7.27,7.27,0,0,1-4,1.17,7.34,7.34,0,0,1-7.07-7.34,7.33,7.33,0,0,1,7.07-7.33,7.2,7.2,0,0,1,4,1.18v-.81h3.37Z"/></clipPath><clipPath id="clip-path-91"><path class="cls-1" d="M212-655.57v-1.53a4,4,0,0,0-3.95-3.26,4,4,0,0,0-4,4,4,4,0,0,0,4,4A4,4,0,0,0,212-655.57Zm3.37-.76v6.92H212v-.76A7.3,7.3,0,0,1,208-649a7.34,7.34,0,0,1-7.07-7.34,7.33,7.33,0,0,1,7.07-7.33,7.22,7.22,0,0,1,3.95,1.18v-5.57h3.37Z"/></clipPath><clipPath id="clip-path-92"><polygon class="cls-1" points="207.98 -674.7 211.95 -668.06 207.98 -668.06 195.68 -668.06 186.65 -683.1 186.25 -683.75 186.65 -683.99 198.21 -690.95 207.98 -674.7"/></clipPath><clipPath id="clip-path-93"><rect class="cls-1" x="195.7" y="-663.67" width="3.67" height="14.26"/></clipPath><clipPath id="clip-path-94"><rect class="cls-1" x="195.7" y="-667.99" width="3.67" height="3.22"/></clipPath><clipPath id="clip-path-95"><path class="cls-1" d="M190.65-655.57v-1.53a4,4,0,0,0-4-3.26,4,4,0,0,0-4,4,4,4,0,0,0,4,4A4.06,4.06,0,0,0,190.65-655.57Zm3.37-.76v6.92h-3.37v-.76a7.27,7.27,0,0,1-4,1.17,7.34,7.34,0,0,1-7.07-7.34,7.33,7.33,0,0,1,7.07-7.33,7.2,7.2,0,0,1,4,1.18v-5.57H194Z"/></clipPath><clipPath id="clip-path-96"><polygon class="cls-1" points="186.65 -673.62 189.98 -668.06 186.65 -668.06 173.7 -668.06 171.87 -671.11 183.83 -678.29 186.65 -673.62"/></clipPath><clipPath id="clip-path-97"><path class="cls-1" d="M174.66-655.57v-1.53a4,4,0,0,0-4-3.26,4,4,0,0,0-4,4,4,4,0,0,0,4,4A4.06,4.06,0,0,0,174.66-655.57Zm3.37-.76v6.92h-3.37v-.76a7.27,7.27,0,0,1-4,1.17,7.34,7.34,0,0,1-7.07-7.34,7.33,7.33,0,0,1,7.07-7.33,7.2,7.2,0,0,1,4,1.18v-.81H178Z"/></clipPath><clipPath id="clip-path-98"><path class="cls-1" d="M341.38-688.22h-4.66l4.83,12.64h5.26l4.93-12.64H347.2L344.26-680Zm-13.47,5c0-1.89.39-2.94,2.22-2.94s2.27.83,2.27,2.94Zm2.39,5.65c-1.94,0-2.39-.83-2.39-3.16h8.7c0-5.6-1.33-7.93-6.31-7.93-5.43,0-6.9,1.89-6.9,6.75s2,7,6.6,7,6.21-1.66,6.32-4.26H332.4C332.4-678.07,332-677.57,330.3-677.57Zm-11.7-10.7h-4.26v12.64h8.53v-3H318.6Zm33.64,22.56v-31.2m0,31.2a33.49,33.49,0,0,0-7.76,2.8,38.77,38.77,0,0,0-15.79-3.49,40.25,40.25,0,0,0-17.35,4l-7-34.51h47.93"/></clipPath><clipPath id="clip-path-99"><path class="cls-1" d="M370.09-660.57c0-.16-.23-.28-.78-.28v.61c.39,0,.78,0,.78-.32Zm-1.28,1.66v-2.42h.67c.66,0,1.16.16,1.16.77,0,.28-.17.5-.55.72l.44.94h-.44l-.39-.72h-.39v.71Zm2.88-1.21a2.05,2.05,0,0,0-2.05-2,2.05,2.05,0,0,0-2.05,2,2.07,2.07,0,0,0,2,2,2,2,0,0,0,1.48-.55A2,2,0,0,0,371.69-660.12Zm-2.05-2.43a2.42,2.42,0,0,1,2.24,1.17,2.45,2.45,0,0,1,0,2.53,2.42,2.42,0,0,1-2.24,1.17,2.44,2.44,0,0,1-1.73-.71,2.39,2.39,0,0,1-.71-1.73A2.45,2.45,0,0,1,369.64-662.55Zm-3.43-17.07h-4.49c0,3,1.66,4.26,6.54,4.26,4.54,0,6.37-1,6.37-4.15,0-5-8.42-2.5-8.42-5.49,0-.72.83-1.33,1.94-1.33a1.73,1.73,0,0,1,1.88,1.55h4.27c-.06-2.66-1.61-3.88-5.88-3.88-4.43,0-6.48,1.22-6.48,4,0,5.49,8.42,2.55,8.42,5.66,0,.94-.5,1.38-1.71,1.38C367.2-677.63,366.32-678.18,366.21-679.62Zm-5.93-7.87-.22,1.27c1.33-.83,1.88-1.55,1.88-2.49a1.57,1.57,0,0,0-.51-1.22,1.56,1.56,0,0,0-1.26-.39,1.51,1.51,0,0,0-1.2.36,1.51,1.51,0,0,0-.52,1.14C358.45-687.66,359.22-687.49,360.28-687.49Zm-7.32-.83v12.69h4.16v-12.69Zm-.77-8.59h32.3l-7.59,34.52c-5-2.88-9.53-4.1-16.12-4.1a45,45,0,0,0-8.59.78"/></clipPath><clipPath id="clip-path-100"><rect class="cls-1" x="468.63" y="-671.65" width="5.64" height="6.9"/></clipPath><clipPath id="clip-path-101"><path class="cls-1" d="M476.69-662.32H466.21v-11.76h10.52Zm-18.21,0h-9.25l.51-2.49h6.86l1.43-6.74h-4.44l-.93,4.39h-2.43l1.41-6.87h9.29Zm-8.08-18.59h5.7v-6.91h-4.42v-2.41h6.84v9.32h2.39v2.44H450.4Zm15.86,0h10.45v2.43H466.26Zm1.14-9.36h8.06v2.43H467.4Zm-23-5.26v38.47h38.39v-38.47Z"/></clipPath><clipPath id="clip-path-102"><path class="cls-1" d="M515.47-672a1.6,1.6,0,0,0-1.6,1.61v4a1.62,1.62,0,0,0,.76,1.5,1.63,1.63,0,0,0,1.68,0,1.61,1.61,0,0,0,.77-1.5v-4A1.62,1.62,0,0,0,515.47-672Z"/></clipPath><clipPath id="clip-path-103"><path class="cls-1" d="M494.86-672a1.59,1.59,0,0,0-1.13.47,1.62,1.62,0,0,0-.46,1.14v4a1.59,1.59,0,0,0,1.59,1.59,1.59,1.59,0,0,0,1.59-1.59v-4A1.61,1.61,0,0,0,494.86-672Z"/></clipPath><clipPath id="clip-path-104"><path class="cls-1" d="M519.57-666.42a4.09,4.09,0,0,1-4.09,4.09,4.09,4.09,0,0,1-4.09-4.09v-4a4.09,4.09,0,0,1,4.09-4.09,4.09,4.09,0,0,1,4.09,4.09Zm-9.37-11.7h-2.38l-3.25-6.79v6.82h-2.46v-12.14h2.46l3.25,6.88v-6.88h2.39Zm0,15.75h-8.09v-12.14h2.42v9.76h5.67Zm-13.72,2.46-.83-2.5a4.13,4.13,0,0,1-.78.08,4.08,4.08,0,0,1-4-4.09v-4a4,4,0,0,1,2-3.51,4.07,4.07,0,0,1,4.05,0,4,4,0,0,1,2,3.51v4a4.12,4.12,0,0,1-1.19,2.89l1.19,3.62Zm-5.64-30.36h2.45v8.09a1.59,1.59,0,0,0,1.59,1.59,1.59,1.59,0,0,0,1.59-1.59v-8.05h2.46v8.13a4,4,0,0,1-4,4h-.14a4,4,0,0,1-4-4Zm23.42,0h2.42v12.15h-2.42ZM486-695.53v38.47H524.4v-38.47Z"/></clipPath><clipPath id="clip-path-105"><path class="cls-1" d="M599.52-671.16a.72.72,0,0,1-.52-.21.7.7,0,0,1-.22-.51.74.74,0,0,1,.74-.74.74.74,0,0,1,.74.74.7.7,0,0,1-.22.51A.73.73,0,0,1,599.52-671.16Zm0-1.75a1,1,0,0,0-.94,1,1,1,0,0,0,1,1,1,1,0,0,0,1-1,1,1,0,0,0-.32-.73A1,1,0,0,0,599.52-672.91Z"/></clipPath><clipPath id="clip-path-106"><polygon class="cls-1" points="609.85 -676.49 604.68 -676.49 605.27 -685.47 601.92 -676.49 597.12 -676.49 604.73 -696.78 609.83 -696.78 609.24 -687.68 612.66 -696.78 617.46 -696.78 609.85 -676.49"/></clipPath><clipPath id="clip-path-107"><polygon class="cls-1" points="610.47 -676.49 618.08 -696.78 622.88 -696.78 615.27 -676.49 610.47 -676.49"/></clipPath><clipPath id="clip-path-108"><path class="cls-1" d="M596.57-683.49c-6.71,7.88-13,18.35-7.45,23.17s12.18,1.91,16.79.07,55.6-24,55.6-24c.49-.24.4-.55-.22-.4l-55.5,15C598.78-667.63,590.78-671.91,596.57-683.49Z"/></clipPath><clipPath id="clip-path-109"><path class="cls-1" d="M599.53-672h-.13v-.26h.13c.08,0,.18,0,.18.12S599.62-672,599.53-672Zm.17.18a.3.3,0,0,0,.2-.08.28.28,0,0,0,.07-.21c0-.27-.17-.34-.46-.34h-.42v1.11h.31v-.47l.26.47H600Z"/></clipPath><clipPath id="clip-path-110"><path class="cls-1" d="M647.74-695.09a.73.73,0,0,1-.72-.74.73.73,0,0,1,.73-.72.73.73,0,0,1,.73.73.74.74,0,0,1-.22.52A.73.73,0,0,1,647.74-695.09Zm0-1.76a1,1,0,0,0-.94,1,1,1,0,0,0,1,1,1,1,0,0,0,1-1,1,1,0,0,0-.32-.73A1,1,0,0,0,647.74-696.85Z"/></clipPath><clipPath id="clip-path-111"><path class="cls-1" d="M647.75-695.91h-.16v-.25h.13c.08,0,.18,0,.18.11S647.84-695.91,647.75-695.91Zm.17.16a.3.3,0,0,0,.2-.08.28.28,0,0,0,.07-.21c0-.27-.17-.33-.46-.33h-.42v1.1h.28v-.47l.26.47h.32Z"/></clipPath><clipPath id="clip-path-112"><path class="cls-1" d="M629.12-677.84l-.31-10.58,7.26-8Zm15.46-15.56,1.29-3.38H631.24l-5,6.08,2.32-6.08h-4.89l-7.55,20.29h4.8l3.22-8.49.26,8.49h14.72l1.4-3.91h-5.63l1.83-4.92h4.62l1.42-3.78h-4.62l1.58-4.27Z"/></clipPath></defs><title>thenorthface</title><path class="cls-115" d="M48.43,74c1.17,0,2.85-.74,2.85-3.68s-1.68-3.67-2.85-3.67-2.86.74-2.86,3.67S47.22,74,48.43,74Z"/><path class="cls-115" d="M44.89,85.08h-.47v.49h.52c.28,0,.31-.14.31-.24S45.22,85.08,44.89,85.08Z"/><path class="cls-115" d="M60.93,68.22c0-.55-.25-1.37-1.54-1.37H56.68v2.79h2.55C60.35,69.64,60.93,69.26,60.93,68.22Z"/><path class="cls-115" d="M44.75,84.31a1.32,1.32,0,1,0,1.32,1.32A1.31,1.31,0,0,0,44.75,84.31Zm.72,2-.2.09-.35-.55h-.47v.52h-.22V84.89h.71c.39,0,.58.16.58.46a.44.44,0,0,1-.36.47Z"/><polygon class="cls-115" points="59.12 78.97 57.75 83.11 60.43 83.11 59.14 78.97 59.12 78.97"/><path class="cls-115" d="M22,23.15V119.1H118V23.15ZM64.19,53.53h2.19v4h4.11v-4h2.2V64h-2.2V59.31H66.38V64H64.19ZM63.64,66.9V65.07h8.53V66.9H69v8.64H66.82V66.9ZM55.09,53.53h8.55v1.86H60.46V64H58.27V55.39H55.09ZM59.83,65a2.94,2.94,0,0,1,3.29,3,2.49,2.49,0,0,1-1.62,2.49c.85.39,1.35.69,1.35,2.66,0,1.54,0,1.92.46,2.09v.27H60.9a7.27,7.27,0,0,1-.22-2.11c0-1.43-.08-2-1.7-2H56.73v4.08H54.59V65Zm-11.4-.27c1.39,0,5,.6,5,5.53s-3.65,5.54-5,5.54-5-.6-5-5.54S47,64.77,48.43,64.77ZM42.29,75.54h-2.2l-4.27-7.49h0v7.49H33.73V65.07h2.33l4.14,7.29h.06V65.07h2Zm2.46,11.65a1.56,1.56,0,0,1-1.56-1.56,1.56,1.56,0,1,1,1.56,1.56Zm5.4-.11H48V76.58h7.48v1.86H50.15V80.8h4.64v1.87H50.15Zm11.57,0L61,84.91H57.17l-.74,2.17h-2.3l3.75-10.5h2.53l3.7,10.5Zm6.77-1.62a2.25,2.25,0,0,0,2.33-2H73a4.36,4.36,0,0,1-4.56,3.86c-2.79,0-4.79-1.89-4.79-5.51s2.11-5.53,4.82-5.53c3.15,0,4.42,2.16,4.53,3.7h-2.2a2.13,2.13,0,0,0-2.33-1.81c-1,0-2.6.71-2.6,3.67C65.89,83.76,66.63,85.46,68.49,85.46Zm13-7H75.92v2.2H80.8V82.5H75.92v2.72h5.54v1.86H73.89V76.58h7.57Zm0-2.9H79.24V70.85H75.15v4.69H73V65.07h2.19V69h4.09V65.07h2.22Zm0-20.15H75.92v2.19H80.8v1.87H75.92v2.71h5.54V64H73.89V53.53h7.57Zm25.79,31.69h-10v.22h-.44v-.22H88.67v.22h-.44v-.22H82.88V76.25h-.22v-.44h.22V64.74h-.22V64.3h.22V53.53A24.37,24.37,0,0,1,107.25,78Z"/><path class="cls-115" d="M84.75,75.81H82.88v.44h1.87a3.48,3.48,0,0,1,3.48,3.48v7.35h.44V79.73A3.93,3.93,0,0,0,84.75,75.81Z"/><path class="cls-115" d="M84,64.3h-1.1v.44H84A12.85,12.85,0,0,1,96.84,77.59v9.49h.44V77.59A13.33,13.33,0,0,0,84,64.3Z"/></svg>