<svg id="圖層_1" data-name="圖層 1" xmlns="http://www.w3.org/2000/svg" viewBox="0 0 140 140"><defs><style>.cls-1{fill:gray;}</style></defs><title>oekotex</title><path class="cls-1" d="M121.77,76.31c.09.1.15.24.21.24.89-.06,1.76.21,2.7.13a9.11,9.11,0,0,1,.18-1.91,1.93,1.93,0,0,1,2.18-1.4,1.79,1.79,0,0,1,1.11,2.74,2.85,2.85,0,0,1-1.74,1.11l-.82.2c0,.68.7.66,1,.94a4.37,4.37,0,0,0,1.26.83c.21-.11.25-.31.34-.47a4.05,4.05,0,0,1,1-1.24,1.77,1.77,0,0,1,2.1-.16,1.66,1.66,0,0,1,.87,1.77,1.82,1.82,0,0,1-1.32,1.49,3,3,0,0,1-1.78-.07,4.64,4.64,0,0,0-.68-.19c-.16.1-.18.24-.2.44.58.64.74,1.57,1.28,2.31a4.83,4.83,0,0,1,2.17-.88,1.78,1.78,0,0,1,1.71.88,1.73,1.73,0,0,1-.14,2,1.69,1.69,0,0,1-1.82.62,3.45,3.45,0,0,1-1.6-1c-.18-.17-.33-.35-.52-.56-.58.4-.24,1-.3,1.41a3.28,3.28,0,0,0-.08,1.57H130a2.46,2.46,0,0,1,1.19.29,1.83,1.83,0,0,1-.23,3.38,1.83,1.83,0,0,1-2-.67,3.72,3.72,0,0,1-.62-1.3c-.07-.26-.13-.51-.2-.75-.21-.05-.39,0-.47.14-.35.75-.91,1.37-1.31,2.1.16.26.43.32.65.46A3.32,3.32,0,0,1,128.27,92a1.71,1.71,0,0,1-.1,2,1.64,1.64,0,0,1-1.79.68A1.73,1.73,0,0,1,125,93.4a4.26,4.26,0,0,1,.27-2.42c-.09-.2-.29-.33-.46-.2-.67.54-1.53.72-2.27,1.23.16.29.3.56.45.82a2.92,2.92,0,0,1,.41,1.6,1.73,1.73,0,0,1-1.1,1.58,1.65,1.65,0,0,1-1.94-.37,1.68,1.68,0,0,1-.46-1.86,3.48,3.48,0,0,1,.93-1.45c.17-.17.36-.31.45-.4,0-.25-.06-.37-.13-.38l-2.7-.17a7.54,7.54,0,0,0,0,1.33,1.93,1.93,0,0,1-2,2,1.59,1.59,0,0,1-1.55-1,1.69,1.69,0,0,1,.27-1.9,3.06,3.06,0,0,1,1.6-1c.28-.08.56-.14.87-.21-.09-.68-.72-.68-1.09-1a4.12,4.12,0,0,0-1.32-.83,7.37,7.37,0,0,1-1,1.44,1.86,1.86,0,0,1-3.31-1.36,1.9,1.9,0,0,1,1.74-1.59,3.83,3.83,0,0,1,1.64.24c.25.09.54.17.67-.27A23.19,23.19,0,0,1,113.63,85c-.44.22-.84.44-1.25.63a2.22,2.22,0,0,1-1.56.14,1.79,1.79,0,0,1-1.23-2.36,1.87,1.87,0,0,1,2.46-1,3.11,3.11,0,0,1,1,.61l.86.76c.07,0,.17-.1.28-.25a3,3,0,0,1,0-1.27,4.25,4.25,0,0,0,.05-1.34,9.89,9.89,0,0,1-1.75-.17,1.85,1.85,0,0,1-1.5-2.39,1.69,1.69,0,0,1,1.44-1.17,1.76,1.76,0,0,1,1.84.78,4.38,4.38,0,0,1,.48,1c.1.32.17.65.25,1,.25.08.46.06.56-.19.32-.74.9-1.32,1.29-2.07a7.07,7.07,0,0,1-1.65-1.15,1.86,1.86,0,0,1,0-2.62,1.68,1.68,0,0,1,1.94-.34A1.71,1.71,0,0,1,118.22,75a4.37,4.37,0,0,1-.32,2.1c.14.23.32.37.5.22a11.79,11.79,0,0,1,2-1.06,1.31,1.31,0,0,0,.23-.2,8,8,0,0,1-.79-1.64A1.9,1.9,0,0,1,121,72a1.73,1.73,0,0,1,1.92.49,1.78,1.78,0,0,1,.35,1.9A4.47,4.47,0,0,1,121.77,76.31Zm.61,14.84a5.28,5.28,0,0,0,1.61-.8c-.79-.94-.89-1.34-.47-1.92a1.09,1.09,0,0,1,1.34-.42c.67.25.83.76.69,2.11a9,9,0,0,0,1.26-1.88l-.35-.08c-.76-.19-1.07-.55-1-1.25a1,1,0,0,1,.92-1,1.22,1.22,0,0,1,1.41.87c.1.22,0,.49.26.71a6.34,6.34,0,0,0,.14-2.29c-1.11.2-1.6,0-1.89-.55a1.14,1.14,0,0,1,.36-1.43c.88-.56,1.52,0,2.16.56a9.51,9.51,0,0,0-1-2.06c-.26.15-.39.4-.63.53a1.22,1.22,0,0,1-1.36-.06,1.15,1.15,0,0,1-.38-1.25A1.22,1.22,0,0,1,127,80.1a.9.9,0,0,0,.74.07c-.72-.48-1.31-1-2-1.32-.32,1.07-.72,1.46-1.41,1.43a1.17,1.17,0,0,1-1.08-1c-.09-.66.34-1.09,1.64-1.56a6.52,6.52,0,0,0-2.3-.19c.05.3.11.51.13.72A1.16,1.16,0,0,1,121,79.38a1.23,1.23,0,0,1-.27-1.88c.15-.19.45-.27.49-.67a16.07,16.07,0,0,0-2.07,1.07c.75.77.9,1.32.56,1.88a1.2,1.2,0,0,1-1.47.47c-.93-.47-.69-1.3-.59-2.12a8.86,8.86,0,0,0-1.3,1.84,6.6,6.6,0,0,1,.7.22,1.14,1.14,0,0,1,.75,1.13,1.24,1.24,0,0,1-.92,1.09,1.27,1.27,0,0,1-1.47-1c0-.18.08-.47-.34-.52a12.39,12.39,0,0,1-.16,1.94,1.26,1.26,0,0,0,0,.27c.28.08.49-.09.72-.12a1.15,1.15,0,0,1,1.27.74,1.11,1.11,0,0,1-.36,1.35,1.25,1.25,0,0,1-1.71-.16c-.15-.13-.2-.4-.58-.36.45.69.62,1.45,1.11,2.07a7.12,7.12,0,0,1,.53-.49,1.13,1.13,0,0,1,1.35-.06,1.09,1.09,0,0,1,.52,1.19,1.21,1.21,0,0,1-1,.91,1.92,1.92,0,0,1-.86-.09c-.12,0-.25-.16-.36,0a5.15,5.15,0,0,0,1.84,1.19c.19-.15.15-.39.24-.59a1.2,1.2,0,0,1,1.21-.73,1.11,1.11,0,0,1,1,1,1.18,1.18,0,0,1-.8,1.31c-.23.1-.54,0-.78.41a12.09,12.09,0,0,0,2.31.08,6,6,0,0,1-.11-.85,1.14,1.14,0,0,1,1.19-1.18,1.1,1.1,0,0,1,1.1,1.19,1.74,1.74,0,0,1-.46,1.11c-.08,0-.17.06-.16.17s.09.06.11,0A.55.55,0,0,0,122.38,91.15Zm3.65.09a2.43,2.43,0,0,0-.39,1.63,1.2,1.2,0,0,0,.8,1.16,1.12,1.12,0,0,0,1.15-.46,1.09,1.09,0,0,0-.11-1.34A2.87,2.87,0,0,0,126,91.24Zm-8.47.33a2.48,2.48,0,0,0-1.88.66,1.12,1.12,0,0,0,.07,1.56,1,1,0,0,0,1.53-.18A2.16,2.16,0,0,0,117.56,91.57Zm4.26.92a2.74,2.74,0,0,0-1.21,1.45,1.1,1.1,0,0,0,.31,1.25,1.18,1.18,0,0,0,1.23.07,1.13,1.13,0,0,0,.48-1.19A3.42,3.42,0,0,0,121.82,92.49ZM130,83.86a2.92,2.92,0,0,0,1.45,1.23,1.07,1.07,0,0,0,1.33-1.47.91.91,0,0,0-1-.57A2.86,2.86,0,0,0,130,83.86Zm-16.84.44a3,3,0,0,0-1.39-1.19,1.16,1.16,0,0,0-1.36.39,1,1,0,0,0,0,1.14,1.1,1.1,0,0,0,1.27.46A3.24,3.24,0,0,0,113.17,84.3Zm8.19-8.61a3,3,0,0,0,1.25-1.52,1,1,0,0,0-.29-1.12,1,1,0,0,0-1.14-.2,1,1,0,0,0-.63,1A2.83,2.83,0,0,0,121.36,75.69Zm-4.16,1.23a3.29,3.29,0,0,0,.3-1.88,1,1,0,0,0-.85-.88,1.07,1.07,0,0,0-1.12.5,1.09,1.09,0,0,0,.16,1.29A2.9,2.9,0,0,0,117.2,76.92Zm8.35-.23a3.15,3.15,0,0,0,1.69-.55,1.13,1.13,0,0,0,.5-1.27,1,1,0,0,0-1-.71,1.12,1.12,0,0,0-1.08.81A3.64,3.64,0,0,0,125.55,76.69ZM114.2,80.06a3.32,3.32,0,0,0-.7-1.77,1,1,0,0,0-1.18-.31.94.94,0,0,0-.67.86,1,1,0,0,0,.59,1.06A2.41,2.41,0,0,0,114.2,80.06Zm14.83,8a2.34,2.34,0,0,0,.54,1.76,1.09,1.09,0,0,0,1.23.4,1.18,1.18,0,0,0,.74-1,1.14,1.14,0,0,0-.78-1A3.16,3.16,0,0,0,129,88.06Zm-.29-8.39a4,4,0,0,0,1.68.38,1.21,1.21,0,0,0,1.09-.91,1.06,1.06,0,0,0-.54-1.09,1.16,1.16,0,0,0-1.33.2A3,3,0,0,0,128.74,79.67ZM114.37,88.5a2.37,2.37,0,0,0-2-.28,1,1,0,0,0-.76.87,1,1,0,0,0,.52,1,1,1,0,0,0,1.16-.08A2.9,2.9,0,0,0,114.37,88.5Zm12.71-1.07c0-.38,0-.72-.41-.85s-.44.1-.57.39A.77.77,0,0,0,127.08,87.43Zm-.6-5.77a.67.67,0,0,0,.7-.67c-.47-.26-.47-.26-.94,0C126.12,81.27,126.21,81.47,126.48,81.66Zm-9.84,0c.29-.11.47-.31.33-.6s-.54-.38-.9-.26A.68.68,0,0,0,116.64,81.65Zm2,7a.73.73,0,0,0-.35,1c.56-.06.56-.06.86-.58C119.07,88.8,118.9,88.7,118.63,88.63ZM127,84.37c.54.21.54.21,1-.2-.18-.29-.36-.61-.77-.49S126.9,84,127,84.37ZM119.18,79a1.26,1.26,0,0,0-.61-.58.83.83,0,0,0-.33.64C118.65,79.64,118.83,79.63,119.18,79Zm2-.72c0,.23.12.42.38.45a.38.38,0,0,0,.4-.24.64.64,0,0,0-.21-.81A.78.78,0,0,0,121.15,78.28Zm3.81.32c-.6,0-.93.16-.9.48s.3.44.63.35A.94.94,0,0,0,125,78.6Zm-3.07,10.94c-.28-.13-.56-.16-.69.15a.73.73,0,0,0,.27.82C121.92,90.29,122.15,90,121.89,89.54Zm-6.07-5.91a1,1,0,0,0-.66.31c.45.65.53.67,1,.31C116.15,83.89,116.15,83.89,115.82,83.63Zm8.79,6c.3-.16.28-.43.23-.69s-.25-.31-.47-.32C123.89,89.14,123.93,89.3,124.61,89.66Zm-7.75-2.37c.18-.31.2-.58-.11-.7s-.61.22-.83.5C116.18,87.45,116.5,87.39,116.86,87.29Z"/><path class="cls-1" d="M52.8,56a4.45,4.45,0,0,1,4.74,3.81,8.52,8.52,0,0,1-.26,4.72A4.57,4.57,0,0,1,53,67.59a6.38,6.38,0,0,1-1.38-.06c-2.31-.41-3.43-2-3.9-4.23a7.68,7.68,0,0,1,.3-4.14,4.69,4.69,0,0,1,3.25-3.07A7,7,0,0,1,52.8,56Zm2.54,5.69a6.16,6.16,0,0,0-.3-2.21,2.3,2.3,0,0,0-2.23-1.65,2.46,2.46,0,0,0-2.42,1.61A5.8,5.8,0,0,0,50,61.06a5.91,5.91,0,0,0,.52,3.39,2.36,2.36,0,0,0,4.3-.08A5.65,5.65,0,0,0,55.34,61.68Z"/><path class="cls-1" d="M23.37,56c2.75-.21,4.64,1.85,4.92,4.56a8.86,8.86,0,0,1-.44,4.06,4.5,4.5,0,0,1-4.18,3,6.06,6.06,0,0,1-1.94-.18,4.6,4.6,0,0,1-3.25-3.67,8.09,8.09,0,0,1,.1-4.31,4.73,4.73,0,0,1,3.35-3.34A6.35,6.35,0,0,1,23.37,56Zm-2.71,5.46a6.19,6.19,0,0,0,.48,2.91,2.27,2.27,0,0,0,2,1.42,2.38,2.38,0,0,0,2.53-2,7.32,7.32,0,0,0,.14-3.8A2.54,2.54,0,0,0,24.27,58,2.47,2.47,0,0,0,21,59.45,5.39,5.39,0,0,0,20.66,61.45Z"/><path class="cls-1" d="M39.16,56.15a11.34,11.34,0,0,1,1.17,0,1,1,0,0,1,.93.8,5.15,5.15,0,0,1,.1,1.3v2.37l.14,0,1.56-2.06c.46-.59.91-1.2,1.4-1.77a1.85,1.85,0,0,1,2.75-.19l-3.63,4.9,4.07,5.54a2.11,2.11,0,0,1-2.93-.32,45.94,45.94,0,0,1-3.12-4.12s-.07,0-.22-.12v4.75a20.55,20.55,0,0,1-2.22,0Z"/><path class="cls-1" d="M92.11,67.19a2,2,0,0,1-2.86-.64c-.46-.71-.89-1.44-1.34-2.17a1.32,1.32,0,0,0-.49-.58l-2,3.47H82.9l3.23-5.51-2.85-5.17a1.73,1.73,0,0,1,2.78.46c.51.9,1,1.82,1.51,2.79a20.93,20.93,0,0,0,1.26-2c.15-.24.28-.5.44-.75A1.76,1.76,0,0,1,92,56.49l-3,5.2Z"/><path class="cls-1" d="M38.5,86.26V79.77c1.13-.52,2,0,2,1.08,0,2.77,0,5.54,0,8.31,0,.11,0,.23,0,.4a12.86,12.86,0,0,1-1.75,0l-4.07-6.22-.16,0v6.13a10,10,0,0,1-2,0V79.74c1.24-.35,1.7-.19,2.34.84L38,85.72A1.4,1.4,0,0,0,38.5,86.26Z"/><path class="cls-1" d="M80.88,62.5H77.45v3c.24.17.51.09.77.09h2.7c1.11,0,1.5.44,1.37,1.64H75.08V56.2h6.85c.19.18.14.38.14.57,0,.83-.33,1.18-1.19,1.2s-1.79,0-2.69,0l-.75,0v2.68h3.4A9.1,9.1,0,0,1,80.88,62.5Z"/><path class="cls-1" d="M69.5,89.61V79.72a7.27,7.27,0,0,1,1.79-.19,8.22,8.22,0,0,1,3,.24,4,4,0,0,1,3.15,3.87A6.63,6.63,0,0,1,77,87a4.18,4.18,0,0,1-3.32,2.5A40.24,40.24,0,0,1,69.5,89.61Zm2.14-8.42v6.72a6.27,6.27,0,0,0,1.29,0,2.26,2.26,0,0,0,2.19-1.69,6.46,6.46,0,0,0,.07-3.15,2.31,2.31,0,0,0-2-1.91A5.23,5.23,0,0,0,71.64,81.19Z"/><path class="cls-1" d="M42.49,89.59V79.66a25.12,25.12,0,0,1,2.59-.14,8.55,8.55,0,0,1,2,.23,4,4,0,0,1,3.14,3.08,6.66,6.66,0,0,1-.13,3.65,4.25,4.25,0,0,1-4.05,3.09C44.89,89.66,43.73,89.59,42.49,89.59Zm2.13-1.68a6,6,0,0,0,1.4,0,2.39,2.39,0,0,0,2.13-2,7.41,7.41,0,0,0,.05-2.53,2.61,2.61,0,0,0-3.58-2.16Z"/><path class="cls-1" d="M36.13,62.52H32.67v3.1H34.8c.48,0,1,0,1.45,0,1,0,1.44.54,1.23,1.65h-7c-.18-.51-.23-10.14-.06-11a59.39,59.39,0,0,1,6.81,0c.3,1.18-.1,1.73-1.28,1.74H32.65c0,.92,0,1.77,0,2.67,1.16.14,2.27,0,3.43.11A11.2,11.2,0,0,1,36.13,62.52Z"/><path class="cls-1" d="M65.92,85.42l2.38,4a2,2,0,0,1-2.83-.77c-.57-.93-1.11-1.87-1.64-2.77a1.56,1.56,0,0,0-.83,0v3.65a8.85,8.85,0,0,1-1.9.08,83.91,83.91,0,0,1-.05-9.92,12.81,12.81,0,0,1,4.66.1,2.5,2.5,0,0,1,2,2.21,3,3,0,0,1-1.13,3C66.41,85.1,66.21,85.23,65.92,85.42ZM63,84.4c1,.07,1.86,0,2.35-.85a1.8,1.8,0,0,0-.08-1.93c-.55-.82-1.42-.63-2.27-.57Z"/><path class="cls-1" d="M100.5,56a5.75,5.75,0,0,1,5.9,5.87,5.88,5.88,0,1,1-11.76-.17C94.66,58.45,97.72,55.72,100.5,56Zm.11,1.38a4.34,4.34,0,0,0-4.53,4.24,4.45,4.45,0,1,0,8.89.25A4.35,4.35,0,0,0,100.61,57.37Z"/><path class="cls-1" d="M90.15,84.74a7.19,7.19,0,0,1,.55-3.22,3.59,3.59,0,0,1,5.69-.92A3.28,3.28,0,0,1,97,81.66a9.23,9.23,0,0,1,.1,5.83,3.24,3.24,0,0,1-3.23,2.3,3.3,3.3,0,0,1-3-1.51,5.17,5.17,0,0,1-.71-2.49C90.13,85.43,90.15,85.07,90.15,84.74Zm5.39,0a13.68,13.68,0,0,0-.31-2.3,1.58,1.58,0,0,0-1.35-1.25,1.53,1.53,0,0,0-1.39,1.18,1.66,1.66,0,0,0-.06.21,12,12,0,0,0-.1,3.83A2.17,2.17,0,0,0,93,87.89a1.35,1.35,0,0,0,2.21-.8A13.28,13.28,0,0,0,95.54,84.73Z"/><path class="cls-1" d="M105.7,84.68a6.78,6.78,0,0,1-.6,3.32,2.9,2.9,0,0,1-2.85,1.76,5.21,5.21,0,0,1-1.3-.09,3.4,3.4,0,0,1-2.45-3,9.06,9.06,0,0,1,.13-4.39c.7-2.41,2.61-3.14,4.76-2.53a3.28,3.28,0,0,1,2.14,2.72A10.59,10.59,0,0,1,105.7,84.68Zm-5.26,0a5.88,5.88,0,0,0,.31,2.5,1.39,1.39,0,0,0,1.37,1,1.42,1.42,0,0,0,1.28-1,4.34,4.34,0,0,0,.25-1.28,8.76,8.76,0,0,0-.23-3.53,1.37,1.37,0,0,0-2.71,0A6,6,0,0,0,100.44,84.72Z"/><path class="cls-1" d="M59.71,89.52a10.09,10.09,0,0,1-2,0c-.44-.71-.53-1.58-1-2.38H53.42c-.43.69-.51,1.58-.92,2.39a11.37,11.37,0,0,1-2,0c1.16-3.27,2.3-6.5,3.44-9.73a2.61,2.61,0,0,1,1.54-.28,1.28,1.28,0,0,1,1.11,1c.61,1.76,1.25,3.5,1.87,5.25l1.07,3.08C59.59,89.08,59.64,89.28,59.71,89.52Zm-4.53-7.73-.17,0-1.22,3.8c.9,0,1.7,0,2.58,0C56,84.24,55.62,83,55.18,81.79Z"/><path class="cls-1" d="M22.14,89.56l3.44-9.77a3.46,3.46,0,0,1,1.36-.27,1.37,1.37,0,0,1,1.31,1.06c.48,1.34.95,2.69,1.42,4l1.56,4.45a.48.48,0,0,1,0,.46,10.27,10.27,0,0,1-1.94.06l-.89-2.41H25.05c-.41.75-.5,1.64-.91,2.39Zm3.33-4a25,25,0,0,0,2.59,0l-1.28-4.1Z"/><path class="cls-1" d="M73.68,56.16c.36,1.11,0,1.69-1,1.88a12.73,12.73,0,0,1-1.38.05,1.81,1.81,0,0,0-.86.11v9.07a15.88,15.88,0,0,1-2.39,0V58.15c-1.16-.15-2.25,0-3.32-.1a1.25,1.25,0,0,1,1-1.88C68.37,56.13,71,56.16,73.68,56.16Z"/><path class="cls-1" d="M8.48,87.3a5.17,5.17,0,0,0,1.8.87,2.69,2.69,0,0,0,1.43-.1A1.21,1.21,0,0,0,12.56,87a1.23,1.23,0,0,0-.62-1.22,7,7,0,0,0-1.19-.54c-.45-.17-.92-.31-1.35-.52a2.39,2.39,0,0,1-1.5-2.14A2.57,2.57,0,0,1,9.22,80a4.8,4.8,0,0,1,4.66,0c.77.39.75.93,0,1.81a11.19,11.19,0,0,0-1.63-.68,2.37,2.37,0,0,0-1.42.08,1,1,0,0,0-.76.9,1,1,0,0,0,.55,1,11.2,11.2,0,0,0,1.66.74c.15.07.32.11.47.17a2.56,2.56,0,0,1,1.9,2.77,3,3,0,0,1-2.52,3,6,6,0,0,1-3.29-.19c-1.21-.45-1.36-1-.59-2C8.3,87.48,8.37,87.42,8.48,87.3Z"/><path class="cls-1" d="M20.52,81.48v8.06a10.76,10.76,0,0,1-2.05,0V81.34H15.41c-.32-1,.1-1.71,1-1.72,2.31,0,4.61,0,6.92,0a.65.65,0,0,1,.2,0c.23,1.2-.11,1.62-1.31,1.64q-.77,0-1.53,0S20.61,81.4,20.52,81.48Z"/><path class="cls-1" d="M85.36,82.13,83.5,83a1.31,1.31,0,0,1-.47-.58.85.85,0,0,1,.34-1.34c.78-.43,1.58-.84,2.39-1.22a1.58,1.58,0,0,1,1.59.08v9.59a8.8,8.8,0,0,1-2,0Z"/><path class="cls-1" d="M51.81,75.5,50.2,73c-.19.92,0,1.69-.15,2.43a.83.83,0,0,1-.81,0V71.42a.68.68,0,0,1,1,.31c.43.73.89,1.44,1.42,2.31.19-1,0-1.81.14-2.62.61-.09.79,0,.8.49,0,1.18,0,2.37,0,3.51A.78.78,0,0,1,51.81,75.5Z"/><path class="cls-1" d="M71,75.43a.78.78,0,0,1-.71.1c-.61-.72-1-1.64-1.71-2.46-.15.86,0,1.64-.11,2.37a.82.82,0,0,1-.8.07V71.4a1,1,0,0,1,.71,0L70,73.91l.16,0V71.37c.7,0,.83.07.84.58C71,73.11,71,74.28,71,75.43Z"/><path class="cls-1" d="M64.93,63.52c-1.46,0-2.92,0-4.37,0-.57,0-.81-.27-.91-.83a1.57,1.57,0,0,1,.07-.86,1.85,1.85,0,0,1,.93-.09h2.84a3.69,3.69,0,0,1,.58,0c.74.12.94.36,1,1.11A1.24,1.24,0,0,1,64.93,63.52Z"/><path class="cls-1" d="M29.74,73.12v2.3a.82.82,0,0,1-.79.09V71.42c.44-.24.7,0,.93.33.44.72.89,1.42,1.34,2.13l.16,0V71.44a.6.6,0,0,1,.8.11v3.9c-.2.19-.43.14-.71,0l-1.59-2.43Z"/><path class="cls-1" d="M40.34,75.51V71.4a3.83,3.83,0,0,1,2.48.2,1.79,1.79,0,0,1,.82,1.31,2,2,0,0,1-1.7,2.59A4.51,4.51,0,0,1,40.34,75.51Zm.94-.77c.76.1,1.06,0,1.3-.4a2.09,2.09,0,0,0-.07-2A1.12,1.12,0,0,0,41.28,72Z"/><path class="cls-1" d="M25.47,75.62c-1.15,0-1.87-.73-1.89-2.09,0-1.16.4-2.32,2.11-2.23a1.6,1.6,0,0,1,1.51,1.06,2.85,2.85,0,0,1,0,2.13A1.63,1.63,0,0,1,25.47,75.62Zm1-2.21c0-.18,0-.4,0-.61a1,1,0,0,0-.88-.83c-.44,0-.75.23-.94.74a2.16,2.16,0,0,0,.06,1.62.88.88,0,0,0,.82.61.93.93,0,0,0,.85-.58A2.11,2.11,0,0,0,26.47,73.41Z"/><path class="cls-1" d="M86.49,75.53c-1.18.32-1.16-.83-1.76-1.2-.38.29-.46.81-.82,1.18a1.61,1.61,0,0,1-.91,0l1.2-2.07-1-1.92c.53-.32.75-.3,1,.13a5,5,0,0,1,.27.51c.08.14.17.28.29.47a3.61,3.61,0,0,0,.65-.94.68.68,0,0,1,1-.25l-1.08,1.91C85.61,74.12,86.16,74.72,86.49,75.53Z"/><path class="cls-1" d="M46.09,72.08a2,2,0,0,0,0,.9c.36.16.76,0,1.14.11.18.15.09.34.07.54-.37.21-.81,0-1.22.17a3.1,3.1,0,0,0,0,.92,3.24,3.24,0,0,0,1.23.09c.38,0,.58.18.61.62H45.14c0-1.34,0-2.68,0-4.07h2.54a.4.4,0,0,1-.08.56C47.13,72.1,46.58,71.84,46.09,72.08Z"/><path class="cls-1" d="M98.66,75.42v-4a21.1,21.1,0,0,1,2.49-.06c.23.29.1.45-.12.67H99.62a2.32,2.32,0,0,0,0,1c.39.17.82,0,1.2.13a.59.59,0,0,1,0,.59l-1.15.06a2.67,2.67,0,0,0-.06.92c.52.45,1.47-.31,1.81.75Z"/><path class="cls-1" d="M80.2,72a2,2,0,0,0,0,1c.36.17.76,0,1.13.11.19.19.12.39,0,.58-.4.15-.8,0-1.19.15a1.75,1.75,0,0,0,0,.88c.53.41,1.46-.33,1.8.73h-2.7V71.36c.87-.07,1.72,0,2.53,0,.14.33,0,.47-.2.66Z"/><path class="cls-1" d="M61.38,71.33a.47.47,0,0,1-.05.59c-.49.14-1,0-1.53.11a2.74,2.74,0,0,0,0,1l1.15,0c.18.18.11.37.08.57-.38.19-.81,0-1.23.16a3.27,3.27,0,0,0,0,.94,4.63,4.63,0,0,0,1.16.08c.45,0,.45,0,.56.61H58.87V71.36C59.73,71.29,60.57,71.32,61.38,71.33Z"/><path class="cls-1" d="M105,72.25c-.94-.44-1.17-.41-1.58.18.05.34.33.45.6.57l.66.28a1.06,1.06,0,0,1,.64,1.18,1.14,1.14,0,0,1-.91,1.09,2,2,0,0,1-2-.36.73.73,0,0,1,.29-.55.58.58,0,0,1,.19,0,1.5,1.5,0,0,0,1,.27.55.55,0,0,0,.57-.46.52.52,0,0,0-.33-.59c-.26-.11-.54-.19-.81-.31a1.09,1.09,0,0,1-.75-1.39,1.2,1.2,0,0,1,1.18-.89c.55,0,1.13-.09,1.5.46A.58.58,0,0,1,105,72.25Z"/><path class="cls-1" d="M22.4,71.69c.07.3,0,.46-.2.56-1.17-.5-1.74-.36-2,.49a1.55,1.55,0,0,0,1.08,2.19,3.31,3.31,0,0,0,.84-.35.62.62,0,0,1,.32.41.56.56,0,0,1-.42.45A1.91,1.91,0,0,1,19.21,74a2.2,2.2,0,0,1,1.67-2.75A1.64,1.64,0,0,1,22.4,71.69Z"/><path class="cls-1" d="M57,74.54a.56.56,0,0,1,.25.69c-1.58,1-3,.22-3.13-1.58a2.63,2.63,0,0,1,.3-1.55,1.83,1.83,0,0,1,2.89-.35.28.28,0,0,1,0,.28,1.65,1.65,0,0,1-.19.25c-1.12-.61-1.94-.48-2.13.94a1.38,1.38,0,0,0,1.18,1.71A2.17,2.17,0,0,0,57,74.54Z"/><path class="cls-1" d="M36.42,71.34a.46.46,0,0,1,0,.55c-.49.31-1.06.11-1.56.25a.72.72,0,0,0-.05.71c.37.21.82,0,1.2.17a.54.54,0,0,1,0,.61c-.4.19-.84,0-1.25.16-.16.53,0,1.1-.11,1.66a.69.69,0,0,1-.77,0V71.35A23.41,23.41,0,0,1,36.42,71.34Z"/><path class="cls-1" d="M89.65,72.18v3.2a.78.78,0,0,1-.94.08V72.21c-.44-.24-.89,0-1.29-.25a.47.47,0,0,1,.43-.61c1,0,2,0,3.06,0C90.9,72.31,90.12,72,89.65,72.18Z"/><path class="cls-1" d="M76.69,75.42a.74.74,0,0,1-.82,0V72.21c-.44-.24-.88,0-1.3-.21-.12-.4.05-.66.46-.67,1,0,1.93,0,2.89,0,0,.66,0,.66-1.23.84Z"/><path class="cls-1" d="M97.17,75.54H94.71V71.42c.28-.17.49-.09.77.15v3.25c.46,0,.84,0,1.21,0S97.18,74.93,97.17,75.54Z"/><path class="cls-1" d="M66,75.45a.85.85,0,0,1-.87,0V71.4c.69-.08.86,0,.87.62C66,73.16,66,74.29,66,75.45Z"/><path class="cls-1" d="M38.75,75.44a1,1,0,0,1-.88.06V71.4c.68-.08.86,0,.87.61C38.76,73.15,38.75,74.28,38.75,75.44Z"/><path class="cls-1" d="M92.22,71.39a.6.6,0,0,1,.73.17,11,11,0,0,1,0,1.91c0,.66,0,1.31,0,2a.65.65,0,0,1-.78.06Z"/><path class="cls-1" d="M119.65,83.89a9.65,9.65,0,0,1,.19-1.73,6.29,6.29,0,0,1,1.5,0,5.33,5.33,0,0,1,0,1.74A11,11,0,0,1,119.65,83.89Z"/><path class="cls-1" d="M123.49,84.32a3.68,3.68,0,0,1-.24,1.73,3.84,3.84,0,0,1-1.43,0,9.53,9.53,0,0,1,0-1.69Z"/><path class="cls-1" d="M121.81,82.14h1.44a3.13,3.13,0,0,1,.22,1.69,5.34,5.34,0,0,1-1.65,0A12.58,12.58,0,0,1,121.81,82.14Z"/><path class="cls-1" d="M121.38,84.29a11.28,11.28,0,0,1,0,1.64,3.2,3.2,0,0,1-1.54,0,9.91,9.91,0,0,1-.22-1.66A14.57,14.57,0,0,1,121.38,84.29Z"/><path class="cls-1" d="M119.37,82.13c0,.59-.18,1.1-.15,1.64a4.17,4.17,0,0,1-1.61.12,2.55,2.55,0,0,1,.43-1.76Z"/><path class="cls-1" d="M119.39,86a4.93,4.93,0,0,1-1.31,0,2.68,2.68,0,0,1-.5-1.73,6.66,6.66,0,0,1,1.61,0Z"/><path class="cls-1" d="M125.09,86.06a4.36,4.36,0,0,1-1.25,0,4.32,4.32,0,0,1,.16-1.71,10.77,10.77,0,0,1,1.61,0A3.27,3.27,0,0,1,125.09,86.06Z"/><path class="cls-1" d="M123.86,82.13h1.24a3,3,0,0,1,.54,1.66,4.41,4.41,0,0,1-1.62.09A6.71,6.71,0,0,1,123.86,82.13Z"/><path class="cls-1" d="M121.37,80.12a7.3,7.3,0,0,1,0,1.55,4.09,4.09,0,0,1-1.35,0C120.26,80.51,120.64,80.06,121.37,80.12Z"/><path class="cls-1" d="M121.37,88.25l-.57-.15a4.33,4.33,0,0,1-.78-1.58,6.11,6.11,0,0,1,1.35,0Z"/><path class="cls-1" d="M121.8,80.09c.77,0,1.2.54,1.33,1.6a4.35,4.35,0,0,1-1.25,0A5.33,5.33,0,0,1,121.8,80.09Z"/><path class="cls-1" d="M121.82,88.11a9.39,9.39,0,0,1,0-1.59,6.44,6.44,0,0,1,1.31,0C123,87.46,122.64,88,121.82,88.11Z"/><path class="cls-1" d="M124.77,81.68a2.91,2.91,0,0,1-1.1,0l-.46-1.19A2.36,2.36,0,0,1,124.77,81.68Z"/><path class="cls-1" d="M119.48,81.69h-1.12A2.69,2.69,0,0,1,120,80.41Z"/><path class="cls-1" d="M120,87.82a3.48,3.48,0,0,1-1.65-1.33h1.11Z"/><path class="cls-1" d="M123.22,87.75l.42-1.22a2.77,2.77,0,0,1,1.11,0,2.63,2.63,0,0,1-1.55,1.2Z"/><path class="cls-1" d="M123.2,87.73l0,0Z"/><path class="cls-1" d="M98.8,58.77c.72,0,1.38,0,2,0,.91,0,1.56.4,1.72,1.07a1.75,1.75,0,0,1-.74,2.16c-.06,0-.11.09-.21.16l1.32,2.24c-.66.39-1.1.32-1.5-.26s-.57-1-.85-1.44c-.11-.19-.21-.4-.55-.32-.19.66,0,1.36-.12,2.07-.34.16-.7,0-1.1.09Zm1.18.86a8.72,8.72,0,0,0,0,1.91c.5.06,1,.09,1.25-.39a1.06,1.06,0,0,0,0-1.16A1.15,1.15,0,0,0,100,59.63Z"/></svg>