<?xml version="1.0" encoding="UTF-8"?>
<svg width="61px" height="61px" viewBox="0 0 61 61" version="1.1" xmlns="http://www.w3.org/2000/svg" xmlns:xlink="http://www.w3.org/1999/xlink">
    <title>m_fb_w</title>
    <g id="Symbols" stroke="none" stroke-width="1" fill="none" fill-rule="evenodd">
        <g id="m_footer" transform="translate(-304.000000, -202.000000)">
            <g id="m_fb_w" transform="translate(304.000000, 202.000000)">
                <g id="fb_w" transform="translate(-0.000000, 0.000000)" fill="#FFFFFF">
                    <path d="M6.67366771,30.6654924 L6.67366771,59.6775253 C6.67366771,60.0972478 7.01612076,60.4375 7.43855799,60.4375 L18.2808777,60.4375 C18.703315,60.4375 19.045768,60.0972478 19.045768,59.6775253 L19.045768,30.2095076 L26.9050157,30.2095076 C27.3024073,30.2100271 27.630405,29.9008497 27.6507837,29.506531 L28.415674,20.6338268 C28.4373607,20.4194608 28.3664539,20.2060228 28.2205917,20.0466055 C28.0747295,19.8871882 27.8676207,19.7967744 27.6507837,19.7978547 L19.1222571,19.7978547 L19.1222571,13.5090643 C19.1222198,12.0369308 20.3177549,10.8405942 21.799373,10.8301536 L27.8611285,10.8301536 C28.2835658,10.8301536 28.6260188,10.4899013 28.6260188,10.0701789 L28.6260188,1.19747467 C28.6260188,0.777752248 28.2835658,0.4375 27.8611285,0.4375 L17.554232,0.4375 C11.5450623,0.4375 6.67366771,5.27758823 6.67366771,11.2481396 L6.67366771,19.7978547 L1.26206897,19.7978547 C0.839631727,19.7978547 0.497178683,20.1381069 0.497178683,20.5578293 L0.497178683,29.4495329 C0.497178683,29.8692554 0.839631727,30.2095076 1.26206897,30.2095076 L6.67366771,30.2095076 L6.67366771,30.6654924 Z" id="Path"></path>
                </g>
                <rect id="Rectangle" fill-opacity="0" fill="#D8D8D8" x="0" y="0" width="61" height="61"></rect>
            </g>
        </g>
    </g>
</svg>