<?xml version="1.0" encoding="UTF-8"?>
<svg width="1115px" height="186px" viewBox="0 0 1115 186" version="1.1" xmlns="http://www.w3.org/2000/svg" xmlns:xlink="http://www.w3.org/1999/xlink">
    <title>m_fig02</title>
    <g id="Mobile" stroke="none" stroke-width="1" fill="none" fill-rule="evenodd">
        <g id="出圖用" transform="translate(-191.000000, -1064.000000)">
            <g id="m_fig02" transform="translate(191.000000, 1064.000000)">
                <ellipse id="Oval" stroke="#FFFFFF" cx="92" cy="91.5" rx="91.5" ry="91"></ellipse>
                <text id="5-Stage-Filtration" font-family="FilsonSoft-Bold, Filson Soft" font-size="18" font-weight="bold" fill="#FFFFFF">
                    <tspan x="56.395" y="85">5 Stage</tspan>
                    <tspan x="49.168" y="109">Filtration</tspan>
                </text>
                <g id="fig1" transform="translate(245.000000, 2.000000)">
                    <path d="M1.41711803,173.653507 C1.19722637,173.67378 0.979641893,173.595651 0.822842726,173.440117 C0.678387697,173.277987 0.61163843,173.06099 0.639988787,172.845674 L1.91996636,159.447848 C1.9143896,159.241245 1.99828911,159.0423 2.15011414,158.902114 C2.30193918,158.761929 2.50689409,158.694164 2.71233343,158.716226 L3.83993272,158.716226 C4.23831804,158.696682 4.60042016,158.946478 4.72372676,159.325911 L9.29507524,170.437419 L13.8664237,159.325911 C13.9981589,158.952847 14.3547889,158.706826 14.7502178,158.716226 L15.8625792,158.716226 C16.0704758,158.689367 16.2796998,158.754965 16.4350737,158.89572 C16.5904476,159.036476 16.6763711,159.238257 16.6701841,159.447848 L17.9349239,172.845674 C17.9617083,173.058341 17.9012392,173.272793 17.7673078,173.440117 C17.6163998,173.595041 17.4035911,173.673467 17.1882703,173.653507 L16.4873302,173.653507 C16.2782778,173.684343 16.0661087,173.623233 15.9054619,173.485914 C15.744815,173.348595 15.6513913,173.148489 15.6492496,172.937127 L14.7349799,162.160946 L10.3007719,172.830432 C10.1661898,173.206198 9.80009411,173.448261 9.40174004,173.424875 L9.14269696,173.424875 C8.75393722,173.439542 8.40130719,173.198201 8.27414075,172.830432 L3.83993272,162.160946 L2.89518737,172.937127 C2.89688115,173.144084 2.80901235,173.34166 2.65420831,173.478978 C2.49940426,173.616296 2.29279406,173.679934 2.08758247,173.653507 L1.41711803,173.653507 Z" id="Path" fill="#FFFFFF" fill-rule="nonzero"></path>
                    <path d="M25.5386002,173.897381 C24.8042188,173.902949 24.0770453,173.752277 23.4053042,173.455359 C22.7630132,173.177623 22.1866282,172.767288 21.7139053,172.251231 C21.2464982,171.722826 20.8798176,171.113241 20.6320195,170.452661 C20.1239335,169.064971 20.1239335,167.542072 20.6320195,166.154382 C20.8798176,165.493802 21.2464982,164.884217 21.7139053,164.355812 C22.1833703,163.839841 22.7609094,163.433888 23.4053042,163.166926 C24.0781914,162.875242 24.8053191,162.729776 25.5386002,162.740147 C26.2695533,162.735806 26.9925618,162.891895 27.6566583,163.19741 C28.3549736,163.538628 28.94555,164.066077 29.3632951,164.721623 L29.3632951,163.791853 C29.3458353,163.581319 29.4242079,163.374133 29.5766247,163.227894 C29.7287874,163.086217 29.9331094,163.014408 30.1404243,163.029747 L30.7804131,163.029747 C30.9879788,163.012485 31.1930567,163.08456 31.3442127,163.227894 C31.4898068,163.378551 31.5669643,163.582525 31.5575423,163.791853 L31.5575423,172.937127 C31.5669643,173.146455 31.4898068,173.350429 31.3442127,173.501085 C31.1930567,173.64442 30.9879788,173.716494 30.7804131,173.699233 L30.1404243,173.699233 C29.9331094,173.714572 29.7287874,173.642763 29.5766247,173.501085 C29.4242079,173.354847 29.3458353,173.147661 29.3632951,172.937127 L29.3632951,172.022599 C28.94555,172.678145 28.3549736,173.205594 27.6566583,173.546812 C26.9843604,173.815755 26.2616711,173.93537 25.5386002,173.897381 L25.5386002,173.897381 Z M25.8281189,171.976873 C26.7893037,172.007541 27.7188259,171.6312 28.3880741,170.940409 C29.7271706,169.437641 29.7271706,167.169402 28.3880741,165.666634 C27.7396011,164.989856 26.841463,164.609555 25.904308,164.614928 C24.6367443,164.533137 23.4408185,165.209025 22.8567424,166.337288 C22.5279203,166.939264 22.3649015,167.617824 22.3843697,168.303521 C22.3670729,168.988991 22.5299581,169.666995 22.8567424,170.269755 C23.4451638,171.392103 24.6401733,172.061497 25.904308,171.976873 L25.8281189,171.976873 Z" id="Shape" fill="#FFFFFF" fill-rule="nonzero"></path>
                    <path d="M39.6183535,178.668165 C38.1891801,178.705607 36.7802608,178.324138 35.5650912,177.570732 C35.3878306,177.464291 35.2626273,177.289094 35.2193076,177.086879 C35.1759879,176.884663 35.2184302,176.673533 35.3365237,176.503784 L35.5041398,176.198941 C35.7327073,175.726435 36.0831773,175.650225 36.55555,175.939825 C37.0214675,176.23869 37.537772,176.450435 38.0793328,176.564752 C38.5765302,176.698413 39.0883383,176.770087 39.6031157,176.778142 C40.5269938,176.821981 41.4307405,176.498732 42.1173573,175.878857 C42.7769637,175.201562 43.1200479,174.277188 43.0621027,173.333422 L43.0621027,171.976873 C42.6443577,172.632418 42.0537812,173.159867 41.3554659,173.501085 C40.6913694,173.806601 39.9683609,173.96269 39.2374078,173.958349 C38.4983033,173.961957 37.7665622,173.811414 37.088874,173.516327 C36.446583,173.238592 35.870198,172.828256 35.3974751,172.3122 C34.9248082,171.787673 34.5574974,171.177041 34.3155892,170.513629 C33.8277513,169.122419 33.8277513,167.606561 34.3155892,166.215351 C34.5612424,165.558311 34.928251,164.953352 35.3974751,164.432022 C35.874281,163.920607 36.4496299,163.511009 37.088874,163.227894 C37.7675521,162.93761 38.4993407,162.792249 39.2374078,162.801115 C39.9683609,162.796774 40.6913694,162.952863 41.3554659,163.258379 C42.0537812,163.599597 42.6443577,164.127046 43.0621027,164.782591 L43.0621027,163.837579 C43.047128,163.631895 43.12547,163.430387 43.2754323,163.288863 C43.427595,163.147186 43.631917,163.075377 43.8392319,163.090715 L44.4639829,163.090715 C44.6755085,163.078224 44.8834687,163.149388 45.0430203,163.288863 C45.1886144,163.43952 45.2657719,163.643494 45.2563499,163.852822 L45.2563499,173.60778 C45.2853345,174.57292 45.0480973,175.52741 44.5706477,176.366604 C44.0927343,177.078215 43.4357593,177.651258 42.6659191,178.027996 C41.7152995,178.480436 40.6706171,178.699881 39.6183535,178.668165 L39.6183535,178.668165 Z M39.6183535,171.976873 C40.5746358,172.005116 41.4985174,171.628819 42.1630708,170.940409 C43.5021674,169.437641 43.5021674,167.169402 42.1630708,165.666634 C41.5011774,164.972617 40.5769472,164.590642 39.6183535,164.614928 C39.0199671,164.605066 38.4301235,164.757837 37.9117167,165.056949 C37.3968485,165.358552 36.9750577,165.796283 36.6926905,166.322045 C36.3638684,166.924022 36.2008496,167.602582 36.2203178,168.288279 C36.203021,168.973749 36.3659062,169.651753 36.6926905,170.254513 C37.2579991,171.341404 38.3939629,172.010154 39.6183535,171.976873 Z" id="Shape" fill="#FFFFFF" fill-rule="nonzero"></path>
                    <path d="M49.3096123,173.653507 C49.09786,173.667689 48.8892705,173.596309 48.7305748,173.455359 C48.578158,173.309121 48.4997855,173.101935 48.5172452,172.8914 L48.5172452,163.746127 C48.4997855,163.535593 48.578158,163.328407 48.7305748,163.182168 C48.8892705,163.041218 49.09786,162.969838 49.3096123,162.984021 L49.949601,162.984021 C50.1564249,162.972263 50.3593817,163.043592 50.5134007,163.182168 C50.6477524,163.33868 50.7184495,163.539952 50.7114925,163.746127 L50.7114925,165.072191 C50.9191653,164.359468 51.3797091,163.747043 52.0067079,163.349831 C52.6924467,162.941747 53.479467,162.73569 54.2771443,162.755389 C54.8390673,162.747098 55.3974741,162.845364 55.9228297,163.044989 C56.4192621,163.245905 56.862541,163.558896 57.2180451,163.959516 C57.6086443,164.400372 57.8996889,164.920241 58.0713635,165.483729 C58.2801474,166.190885 58.3778186,166.926197 58.3608822,167.663352 L58.3608822,172.937127 C58.378342,173.147661 58.2999694,173.354847 58.1475526,173.501085 C57.9953899,173.642763 57.7910679,173.714572 57.583753,173.699233 L56.9437642,173.699233 C56.7361985,173.716494 56.5311206,173.64442 56.3799646,173.501085 C56.2343705,173.350429 56.157213,173.146455 56.166635,172.937127 L56.166635,167.663352 C56.1840169,167.104491 56.1014516,166.547018 55.9228297,166.017203 C55.7744133,165.613613 55.509171,165.263394 55.1609383,165.011223 C54.830319,164.782275 54.4353013,164.664804 54.033339,164.675896 C53.6916471,164.68156 53.352701,164.738067 53.0276423,164.84356 C52.1253802,165.157734 51.4030627,165.846908 51.0467247,166.733583 C50.8065058,167.344548 50.6924698,167.997848 50.7114925,168.65409 L50.7114925,172.906643 C50.7184495,173.112818 50.6477524,173.314089 50.5134007,173.470601 C50.3593817,173.609177 50.1564249,173.680506 49.949601,173.668749 L49.3096123,173.653507 Z" id="Path" fill="#FFFFFF" fill-rule="nonzero"></path>
                    <path d="M66.6959743,173.897381 C65.8445394,173.901088 64.998944,173.756678 64.1969705,173.470601 C63.4774296,173.203656 62.8192016,172.794092 62.2617663,172.266473 C61.7295911,171.768652 61.3134141,171.159821 61.04274,170.483145 C60.7674588,169.805589 60.627681,169.080611 60.6312494,168.349248 C60.6283108,166.859849 61.2144382,165.429733 62.2617663,164.371054 C62.7977327,163.853167 63.4290731,163.444233 64.1207813,163.166926 C64.8434751,162.881191 65.614127,162.73633 66.3912177,162.740147 C67.0487449,162.733407 67.7027897,162.836435 68.3264219,163.044989 C68.9441968,163.244512 69.5182546,163.560074 70.0178209,163.974759 C70.5212032,164.396928 70.9355886,164.915056 71.2368471,165.498971 C71.5689588,166.182134 71.7705102,166.921365 71.8311224,167.678594 C71.8674812,167.882513 71.805331,168.091623 71.6635063,168.242553 C71.5138615,168.399413 71.300084,168.478195 71.0844688,168.455943 L62.8103281,168.455943 C62.7639948,169.399909 63.1579909,170.311986 63.8769761,170.925167 C64.6677202,171.591314 65.6781078,171.939073 66.7112121,171.900662 C67.7456332,171.904968 68.7563632,171.591021 69.6063995,171.001377 C69.9409744,170.73498 70.4265139,170.782199 70.7035231,171.108072 L70.8559014,171.275735 C71.0152082,171.430143 71.0939928,171.649676 71.069231,171.870178 C71.0351151,172.118795 70.9035418,172.34363 70.7035231,172.495105 C69.5742105,173.419599 68.1551531,173.916139 66.6959743,173.897381 L66.6959743,173.897381 Z M62.993182,166.916488 L69.652113,166.916488 C69.526862,166.417443 69.2809241,165.956834 68.9359351,165.575181 C68.6235809,165.252288 68.2437319,165.002454 67.8235736,164.84356 C67.3778144,164.688657 66.9088099,164.611327 66.4369312,164.614928 C65.9165523,164.594922 65.3976853,164.683155 64.9131484,164.874044 C64.4668104,165.032401 64.0609568,165.287432 63.7245978,165.620908 C63.3920734,165.996264 63.1427982,166.437813 62.993182,166.916488 L62.993182,166.916488 Z" id="Shape" fill="#FFFFFF" fill-rule="nonzero"></path>
                    <path d="M78.0024429,173.897399 C77.5844282,173.895318 77.1688363,173.833732 76.7681788,173.714475 C76.3553477,173.59197 75.9752348,173.378422 75.6558173,173.089548 C75.3059601,172.778898 75.0388914,172.38604 74.8786881,171.946389 C74.6833581,171.409556 74.5903257,170.840865 74.6044072,170.269755 L74.6044072,164.614928 L73.3091918,164.614928 C73.1904784,164.618953 73.0751434,164.575004 72.9891974,164.492991 C72.9112148,164.404545 72.8679082,164.290834 72.8672947,164.172906 L72.8672947,163.334589 C72.8619578,163.220125 72.906414,163.108953 72.9891974,163.029747 C73.0705595,162.940736 73.1892458,162.895509 73.3091918,162.90781 L74.6653585,162.90781 L75.0463042,160.453828 C75.0685172,160.284299 75.1493876,160.127905 75.2748716,160.011807 C75.3957964,159.890817 75.5610226,159.824708 75.7320065,159.828901 L76.1891413,159.828901 C76.3620209,159.830476 76.5269091,159.901948 76.6462762,160.027049 C76.7680859,160.153663 76.833966,160.323902 76.8291301,160.499554 L76.8291301,162.90781 L79.7547931,162.90781 C79.8699327,162.898011 79.9829286,162.943222 80.0595497,163.029747 C80.1423331,163.108953 80.1867893,163.220125 80.1814523,163.334589 L80.1814523,164.172906 C80.1808389,164.290834 80.1375323,164.404545 80.0595497,164.492991 C79.978284,164.57266 79.8685698,164.616558 79.7547931,164.614928 L76.7986544,164.614928 L76.7986544,170.330724 C76.7644627,170.761452 76.889135,171.189795 77.1491245,171.534851 C77.3729294,171.788086 77.6950156,171.93251 78.0329185,171.931147 C78.3543255,171.937522 78.667546,171.829485 78.9167126,171.626304 C79.1695883,171.423241 79.3109828,171.112085 79.2976583,170.787987 L79.2976583,170.37645 C79.2569447,170.263142 79.2569447,170.139189 79.2976583,170.025881 C79.3695052,169.931533 79.4841713,169.879918 79.6024148,169.888702 L80.5928737,169.888702 C80.8320292,169.861703 81.0488061,170.031108 81.0804842,170.269755 C81.1126931,170.53297 81.1126931,170.799131 81.0804842,171.062346 C81.1122085,171.819527 80.80499,172.551472 80.2424036,173.059064 C79.6227045,173.602002 78.8262359,173.900084 78.0024429,173.897399 Z" id="Path" fill="#FFFFFF" fill-rule="nonzero"></path>
                    <path d="M84.2499525,161.033029 C83.853422,161.037627 83.4727307,160.877581 83.1985423,160.591007 C82.917646,160.326755 82.762491,159.955386 82.7718831,159.569785 C82.7718831,158.727986 83.4541039,158.045573 84.2956659,158.045573 C84.6954149,158.047256 85.0784932,158.206005 85.3623139,158.487594 C85.6455077,158.757954 85.8057359,159.132475 85.8057359,159.524059 C85.8057359,159.915643 85.6455077,160.290164 85.3623139,160.560523 C85.0724845,160.864655 84.6699987,161.035622 84.2499525,161.033029 Z M83.9451959,173.653507 C83.7336703,173.665998 83.52571,173.594834 83.3661584,173.455359 C83.2205644,173.304702 83.1434069,173.100728 83.1528288,172.8914 L83.1528288,163.746127 C83.1434069,163.536799 83.2205644,163.332825 83.3661584,163.182168 C83.52571,163.042693 83.7336703,162.971529 83.9451959,162.984021 L84.5851847,162.984021 C84.7924996,162.968682 84.9968216,163.040491 85.1489843,163.182168 C85.2945784,163.332825 85.3717359,163.536799 85.3623139,163.746127 L85.3623139,172.8914 C85.3717359,173.100728 85.2945784,173.304702 85.1489843,173.455359 C84.9968216,173.597036 84.7924996,173.668845 84.5851847,173.653507 L83.9451959,173.653507 Z" id="Shape" fill="#FFFFFF" fill-rule="nonzero"></path>
                    <path d="M93.8954977,173.897381 C93.0432724,173.911017 92.1959197,173.766306 91.3964939,173.470601 C90.6808744,173.226633 90.0260803,172.831567 89.4765276,172.3122 C88.9622222,171.817435 88.5573296,171.220309 88.2879769,170.559356 C88.011546,169.882141 87.8717237,169.156932 87.8765556,168.425458 C87.8754686,167.670989 88.0096536,166.922438 88.2727391,166.215351 C88.5412469,165.539683 88.9399078,164.923397 89.4460519,164.401538 C89.9869735,163.853143 90.6426877,163.431494 91.3660183,163.166926 C92.1756641,162.869896 93.0332447,162.725203 93.8954977,162.740147 C95.025289,162.739391 96.1349508,163.039241 97.1106795,163.608948 C97.3020912,163.705422 97.4373934,163.885876 97.4763874,164.096696 C97.5130816,164.307529 97.4575973,164.523979 97.3240091,164.691138 L97.156393,164.904528 C97.0497558,165.045534 96.9078496,165.155937 96.7449716,165.224613 C96.5120002,165.294095 96.2601324,165.254905 96.0592694,165.117918 C95.4167371,164.812498 94.713539,164.656188 94.0021625,164.660654 C93.4829352,164.656491 92.9670633,164.744214 92.4783797,164.91977 C92.0155168,165.088494 91.59079,165.347547 91.2288778,165.681876 C90.8671968,165.997779 90.5852562,166.394696 90.4060351,166.840278 C90.1979194,167.320646 90.0990333,167.841246 90.1165163,168.36449 C90.1150317,169.018143 90.2886686,169.660254 90.6193647,170.224029 C90.9445619,170.813901 91.4451377,171.287984 92.0517205,171.580578 C92.6739744,171.882035 93.3564828,172.038378 94.047876,172.037842 C94.7603697,172.037027 95.4635095,171.87552 96.1049828,171.565336 C96.299657,171.456918 96.5240841,171.414158 96.7449716,171.443399 C96.9394189,171.482071 97.106786,171.604842 97.2021065,171.778725 L97.3544848,171.992115 C97.4568165,172.133169 97.5054483,172.306131 97.4916252,172.479863 C97.4606773,172.654216 97.3753295,172.814288 97.24782,172.937127 C97.113464,173.060645 96.9651629,173.168066 96.8059229,173.257211 C95.9052051,173.712497 94.9040677,173.932704 93.8954977,173.897381 L93.8954977,173.897381 Z" id="Path" fill="#FFFFFF" fill-rule="nonzero"></path>
                    <path d="M197.527968,173.897381 C196.369273,173.930975 195.224174,173.640661 194.221359,173.059064 C193.343982,172.557432 192.649895,171.78838 192.240441,170.864198 C192.147856,170.676872 192.147856,170.457082 192.240441,170.269755 C192.362983,170.088919 192.547144,169.958886 192.758528,169.903944 L193.383278,169.751523 C193.785222,169.650557 194.19705,169.876462 194.328024,170.269755 C194.634713,170.76357 195.065556,171.168256 195.577526,171.443399 C196.167546,171.760058 196.827943,171.922583 197.497492,171.915905 C197.967305,171.908757 198.433899,171.836954 198.884134,171.702515 C199.355609,171.571753 199.779054,171.307026 200.103161,170.940409 C200.4168,170.599798 200.590865,170.153632 200.590771,169.690555 C200.581524,169.403772 200.508657,169.122632 200.377442,168.86748 C200.211241,168.537559 199.96501,168.254577 199.661264,168.044405 C199.283779,167.771097 198.867824,167.555356 198.427,167.404236 L196.217515,166.657372 C195.231194,166.38468 194.333062,165.859308 193.611846,165.13316 C193.019756,164.466196 192.698993,163.601524 192.712814,162.709662 C192.718755,162.230897 192.806361,161.75666 192.971857,161.307387 C193.174835,160.769127 193.497956,160.284309 193.916602,159.88987 C194.392939,159.425468 194.972604,159.080704 195.608001,158.883889 C196.234622,158.663008 196.894054,158.549636 197.558443,158.548563 C198.220832,158.543487 198.879618,158.646451 199.508885,158.853405 C200.102432,159.062877 200.650619,159.383605 201.124095,159.798417 C201.619078,160.206452 202.006288,160.729856 202.251695,161.322629 C202.275912,161.443363 202.275912,161.567706 202.251695,161.68844 C202.250705,161.821168 202.19568,161.94776 202.099316,162.039009 C201.98408,162.16039 201.835707,162.245198 201.672657,162.282883 L201.139333,162.450546 C200.735647,162.581619 200.301495,162.364482 200.164112,161.962798 C199.68486,160.951096 198.627901,160.343477 197.51273,160.438586 C197.016339,160.426971 196.524629,160.536852 196.080374,160.758671 C195.707229,160.926842 195.397571,161.209884 195.19658,161.566503 C195.03002,161.859352 194.940864,162.189848 194.937537,162.526757 C194.919119,162.999128 195.108447,163.455871 195.455623,163.776611 C195.852829,164.140351 196.319251,164.420282 196.827028,164.599686 L199.051751,165.42276 C199.518067,165.567522 199.967593,165.76169 200.392679,166.001961 C200.851221,166.257104 201.271802,166.575194 201.642181,166.946972 C202.012396,167.306807 202.298574,167.744002 202.480262,168.227311 C202.632179,168.626976 202.714636,169.049689 202.724067,169.477165 C202.748188,170.716018 202.182639,171.892692 201.200284,172.647526 C200.154451,173.470788 198.858734,173.911779 197.527968,173.897381 L197.527968,173.897381 Z" id="Path" fill="#FFFFFF" fill-rule="nonzero"></path>
                    <path d="M205.984962,178.439533 C205.774096,178.447369 205.567806,178.376776 205.405925,178.241386 C205.261854,178.089767 205.184951,177.886467 205.192595,177.677427 L205.192595,163.730885 C205.183173,163.521557 205.260331,163.317583 205.405925,163.166926 C205.564621,163.025976 205.77321,162.954596 205.984962,162.968778 L206.624951,162.968778 C206.833645,162.943949 207.042196,163.016221 207.190805,163.164872 C207.339413,163.313522 207.411665,163.522132 207.386843,163.730885 L207.386843,164.614928 C207.804588,163.959382 208.395164,163.431933 209.093479,163.090715 C209.763476,162.786753 210.491092,162.630791 211.226775,162.633452 C211.960056,162.623081 212.687184,162.768547 213.360071,163.060231 C214.004466,163.327193 214.582005,163.733146 215.05147,164.249117 C215.524137,164.773643 215.891448,165.384275 216.133356,166.047687 C216.641442,167.435377 216.641442,168.958276 216.133356,170.345966 C215.891448,171.009378 215.524137,171.62001 215.05147,172.144536 C214.578747,172.660593 214.002362,173.070929 213.360071,173.348664 C212.68833,173.645582 211.961157,173.796254 211.226775,173.790686 C210.491092,173.793346 209.763476,173.637385 209.093479,173.333422 C208.395164,172.992204 207.804588,172.464755 207.386843,171.80921 L207.386843,177.509764 C207.398597,177.716646 207.327288,177.91966 207.188751,178.073722 C207.032283,178.208112 206.831068,178.278829 206.624951,178.27187 L205.984962,178.439533 Z M210.906781,171.976873 C211.514759,171.986222 212.114286,171.833668 212.643893,171.534851 C213.150756,171.228071 213.566377,170.791283 213.847682,170.269755 C214.174466,169.666995 214.337351,168.988991 214.320054,168.303521 C214.339523,167.617824 214.176504,166.939264 213.847682,166.337288 C213.566377,165.81576 213.150756,165.378972 212.643893,165.072191 C212.114286,164.773375 211.514759,164.620821 210.906781,164.63017 C209.946753,164.598054 209.019448,164.9813 208.362064,165.681876 C206.998807,167.163655 206.998807,169.443388 208.362064,170.925167 C209.019448,171.625743 209.946753,172.008989 210.906781,171.976873 L210.906781,171.976873 Z" id="Shape" fill="#FFFFFF" fill-rule="nonzero"></path>
                    <path d="M224.224643,173.897381 C223.378193,173.900872 222.537639,173.756442 221.740877,173.470601 C221.014974,173.207436 220.351035,172.797546 219.790435,172.266473 C219.262622,171.76809 218.851542,171.159104 218.586646,170.483145 C218.299361,169.808725 218.154119,169.082315 218.159987,168.349248 C218.161508,167.607033 218.306382,166.872103 218.586646,166.184866 C218.862402,165.505711 219.271766,164.888901 219.790435,164.371054 C220.326401,163.853167 220.957742,163.444233 221.64945,163.166926 C223.000882,162.643722 224.490961,162.600675 225.870328,163.044989 C226.484879,163.241312 227.054534,163.5573 227.546489,163.974759 C228.054494,164.39632 228.473988,164.91436 228.780754,165.498971 C229.115805,166.180121 229.312607,166.920927 229.359791,167.678594 C229.402708,167.880156 229.345993,168.090059 229.207413,168.242553 C229.050614,168.398087 228.833029,168.476216 228.613137,168.455943 L220.338997,168.455943 C220.292663,169.399909 220.68666,170.311986 221.405645,170.925167 C222.198559,171.587476 223.207427,171.934711 224.239881,171.900662 C225.278766,171.903206 226.293844,171.589559 227.150306,171.001377 C227.479933,170.736725 227.960579,170.784126 228.232192,171.108072 L228.38457,171.275735 C228.542137,171.432136 228.625319,171.648471 228.613137,171.870178 C228.56636,172.117897 228.430927,172.34007 228.232192,172.495105 C227.102879,173.419599 225.683822,173.916139 224.224643,173.897381 Z M220.537088,166.916488 L227.180782,166.916488 C227.063573,166.417555 226.822497,165.956235 226.479841,165.575181 C226.16309,165.250407 225.777856,165.000456 225.352242,164.84356 C224.916433,164.690921 224.457826,164.613606 223.996075,164.614928 C223.501299,164.606432 223.009608,164.694444 222.548482,164.874044 C222.102144,165.032401 221.69629,165.287432 221.359931,165.620908 C220.993736,165.986983 220.71278,166.429353 220.537088,166.916488 Z" id="Shape" fill="#FFFFFF" fill-rule="nonzero"></path>
                    <path d="M236.932992,173.897381 C236.080847,173.909963 235.233687,173.765285 234.433988,173.470601 C233.724592,173.222985 233.075506,172.82823 232.529259,172.3122 C232.014954,171.817435 231.610061,171.220309 231.340709,170.559356 C231.052155,169.885329 230.90686,169.158651 230.914049,168.425458 C230.91052,167.669386 231.050118,166.919479 231.325471,166.215351 C231.588427,165.536833 231.987765,164.919499 232.498784,164.401538 C233.034014,163.853445 233.684721,163.431667 234.403512,163.166926 C235.213515,162.871245 236.070844,162.726595 236.932992,162.740147 C238.067566,162.739607 239.182085,163.03935 240.163411,163.608948 C240.354823,163.705422 240.490125,163.885876 240.529119,164.096696 C240.558473,164.307178 240.503726,164.520754 240.376741,164.691138 L240.193887,164.904528 C240.096084,165.047796 239.958301,165.159113 239.797703,165.224613 C239.564732,165.294095 239.312864,165.254905 239.112001,165.117918 C238.464659,164.810753 237.756113,164.654412 237.039656,164.660654 C236.520403,164.656169 236.004475,164.743901 235.515874,164.91977 C235.04847,165.088512 234.618755,165.347449 234.251134,165.681876 C233.900344,166.007485 233.620259,166.40179 233.428291,166.840278 C233.233102,167.32409 233.139731,167.842962 233.15401,168.36449 C233.152526,169.018143 233.326162,169.660254 233.656859,170.224029 C233.977907,170.817097 234.479667,171.292302 235.089214,171.580578 C235.705395,171.88387 236.383396,172.040376 237.070132,172.037842 C237.78771,172.038797 238.496196,171.877259 239.142477,171.565336 C239.332036,171.458101 239.551272,171.415311 239.767228,171.443399 C239.965461,171.473181 240.136381,171.598558 240.224363,171.778725 L240.376741,171.992115 C240.492903,172.126095 240.543193,172.304957 240.513881,172.479863 C240.495142,172.654818 240.413995,172.817158 240.285314,172.937127 C240.148194,173.057219 240.000265,173.16437 239.843417,173.257211 C238.941171,173.70819 237.941143,173.928154 236.932992,173.897381 Z" id="Path" fill="#FFFFFF" fill-rule="nonzero"></path>
                    <path d="M246.852818,173.897381 C246.4398,173.89533 246.029234,173.833728 245.633792,173.714475 C244.754794,173.466113 244.050577,172.807143 243.744301,171.946389 C243.548971,171.409556 243.455938,170.840865 243.47002,170.269755 L243.47002,164.614928 L242.281469,164.614928 C242.167693,164.616558 242.057979,164.57266 241.976713,164.492991 C241.89873,164.404545 241.855424,164.290834 241.85481,164.172906 L241.85481,163.334589 C241.849473,163.220125 241.893929,163.108953 241.976713,163.029747 C242.053334,162.943222 242.16633,162.898011 242.281469,162.90781 L243.637636,162.90781 L244.018582,160.453828 C244.042138,160.287922 244.116691,160.133449 244.231911,160.011807 C244.35649,159.88686 244.528072,159.820422 244.704284,159.828901 L245.146181,159.828901 C245.319061,159.830476 245.483949,159.901948 245.603316,160.027049 C245.725126,160.153663 245.791006,160.323902 245.78617,160.499554 L245.78617,162.90781 L248.711833,162.90781 C248.826973,162.898011 248.939968,162.943222 249.016589,163.029747 C249.099373,163.108953 249.143829,163.220125 249.138492,163.334589 L249.138492,164.172906 C249.137879,164.290834 249.094572,164.404545 249.016589,164.492991 C248.935324,164.57266 248.82561,164.616558 248.711833,164.614928 L245.78617,164.614928 L245.78617,170.330724 C245.751978,170.761452 245.87665,171.189795 246.13664,171.534851 C246.357948,171.791461 246.681674,171.93662 247.020434,171.931147 C247.341841,171.937522 247.655061,171.829485 247.904228,171.626304 C248.157104,171.423241 248.298498,171.112085 248.285174,170.787987 L248.285174,170.37645 C248.24446,170.263142 248.24446,170.139189 248.285174,170.025881 C248.357021,169.931533 248.471687,169.879918 248.58993,169.888702 L249.580389,169.888702 C249.819545,169.861703 250.036322,170.031108 250.068,170.269755 C250.092756,170.533372 250.092756,170.798729 250.068,171.062346 C250.100274,171.822789 249.786526,172.556943 249.214681,173.059064 C248.567013,173.636245 247.719332,173.93712 246.852818,173.897381 Z" id="Path" fill="#FFFFFF" fill-rule="nonzero"></path>
                    <path d="M252.810809,173.653507 C252.599056,173.667689 252.390467,173.596309 252.231771,173.455359 C252.086177,173.304702 252.00902,173.100728 252.018442,172.8914 L252.018442,163.746127 C252.00902,163.536799 252.086177,163.332825 252.231771,163.182168 C252.390467,163.041218 252.599056,162.969838 252.810809,162.984021 L253.450797,162.984021 C253.659491,162.959191 253.868042,163.031463 254.016651,163.180114 C254.16526,163.328764 254.237512,163.537374 254.212689,163.746127 L254.212689,165.377034 C254.313965,164.953478 254.478339,164.547564 254.700299,164.172906 C254.936359,163.743319 255.283766,163.385283 255.705996,163.136442 C256.120173,162.887482 256.594194,162.755772 257.077401,162.755389 L257.519298,162.755389 C257.85453,162.755389 258.022146,163.075473 258.022146,163.608948 L258.022146,164.233875 C258.022146,164.752107 257.839292,164.980739 257.443108,164.889286 C257.255895,164.866012 257.066522,164.866012 256.879309,164.889286 C256.431863,164.888978 255.995326,165.027432 255.629807,165.285581 C255.153673,165.656489 254.798349,166.160449 254.608872,166.733583 C254.285188,167.668597 254.140446,168.656225 254.182213,169.644828 L254.182213,172.952369 C254.207036,173.161121 254.134784,173.369731 253.986175,173.518382 C253.837567,173.667033 253.629015,173.739305 253.420322,173.714475 L252.810809,173.653507 Z" id="Path" fill="#FFFFFF" fill-rule="nonzero"></path>
                    <path d="M263.842996,173.897381 C263.279963,173.90231 262.721243,173.798814 262.197311,173.592538 C261.702638,173.395544 261.259591,173.087931 260.902095,172.693253 C260.521085,172.248123 260.2358,171.729276 260.064015,171.169041 C259.85295,170.47251 259.750164,169.747668 259.759258,169.019901 L259.759258,163.746127 C259.749836,163.536799 259.826994,163.332825 259.972588,163.182168 C260.123744,163.038834 260.328822,162.966759 260.536388,162.984021 L261.176376,162.984021 C261.3832,162.972263 261.586157,163.043592 261.740176,163.182168 C261.892593,163.328407 261.970965,163.535593 261.953506,163.746127 L261.953506,169.004659 C261.953278,169.52019 262.025083,170.033223 262.166835,170.528871 C262.291774,170.969435 262.553193,171.359006 262.913489,171.641546 C263.24987,171.88718 263.655091,172.020514 264.071564,172.022599 C264.425844,172.017304 264.776487,171.95025 265.107736,171.824452 C265.50892,171.688583 265.877385,171.470556 266.189622,171.184283 C266.573631,170.842013 266.871253,170.413734 267.058178,169.934429 C267.297183,169.328439 267.411212,168.680363 267.39341,168.029163 L267.39341,163.776611 C267.383988,163.567283 267.461146,163.363309 267.60674,163.212652 C267.758903,163.070975 267.963225,162.999166 268.17054,163.014505 L268.810528,163.014505 C269.022054,163.002013 269.230014,163.073177 269.389566,163.212652 C269.53516,163.363309 269.612317,163.567283 269.602895,163.776611 L269.602895,172.921885 C269.612317,173.131213 269.53516,173.335186 269.389566,173.485843 C269.230014,173.625318 269.022054,173.696483 268.810528,173.683991 L268.185777,173.683991 C267.978463,173.699329 267.77414,173.62752 267.621978,173.485843 C267.476384,173.335186 267.399226,173.131213 267.408648,172.921885 L267.408648,171.59582 C267.200975,172.308543 266.740431,172.920968 266.113433,173.31818 C265.427078,173.723274 264.639472,173.924197 263.842996,173.897381 L263.842996,173.897381 Z" id="Path" fill="#FFFFFF" fill-rule="nonzero"></path>
                    <path d="M273.579969,173.653507 C273.372654,173.668845 273.168332,173.597036 273.016169,173.455359 C272.863752,173.309121 272.78538,173.101935 272.802839,172.8914 L272.802839,163.746127 C272.78538,163.535593 272.863752,163.328407 273.016169,163.182168 C273.168332,163.040491 273.372654,162.968682 273.579969,162.984021 L274.280909,162.984021 C274.488474,162.966759 274.693552,163.038834 274.844708,163.182168 C274.990302,163.332825 275.06746,163.536799 275.058038,163.746127 L275.058038,165.072191 C275.175203,164.678775 275.366581,164.311433 275.621838,163.990001 C275.927052,163.592221 276.331774,163.282022 276.79515,163.090715 C277.732616,162.690491 278.784064,162.64712 279.751289,162.968778 C280.180779,163.121673 280.574763,163.360204 280.909364,163.669916 C281.293812,164.027092 281.595465,164.464092 281.793158,164.950254 C282.425903,163.533499 283.871514,162.658596 285.419761,162.755389 C286.565109,162.676918 287.684757,163.119303 288.467327,163.959516 C289.257348,165.024697 289.631243,166.341826 289.518737,167.663352 L289.518737,172.937127 C289.525694,173.143302 289.454997,173.344573 289.320645,173.501085 C289.166626,173.639661 288.963669,173.71099 288.756846,173.699233 L287.994954,173.699233 C287.78813,173.71099 287.585174,173.639661 287.431154,173.501085 C287.278738,173.354847 287.200365,173.147661 287.217825,172.937127 L287.217825,167.663352 C287.229297,167.113598 287.141544,166.566282 286.958782,166.047687 C286.821095,165.64671 286.566306,165.296277 286.227366,165.041707 C285.896747,164.812759 285.501729,164.695289 285.099767,164.70638 C284.628223,164.706873 284.165341,164.833149 283.758838,165.072191 C283.290692,165.366572 282.911439,165.782814 282.661714,166.276319 C282.340843,166.958127 282.174347,167.702365 282.174104,168.455943 L282.174104,172.937127 C282.198926,173.145879 282.126675,173.354489 281.978066,173.50314 C281.829457,173.65179 281.620906,173.724063 281.412212,173.699233 L280.772224,173.699233 C280.560471,173.713415 280.351882,173.642035 280.193186,173.501085 C280.047592,173.350429 279.970435,173.146455 279.979856,172.937127 L279.979856,167.663352 C279.999665,167.113053 279.911665,166.564192 279.720813,166.047687 C279.583126,165.64671 279.328338,165.296277 278.989398,165.041707 C278.664424,164.812948 278.274261,164.695332 277.877036,164.70638 C277.559951,164.709289 277.245657,164.765981 276.947529,164.874044 C276.584436,165.014359 276.256682,165.232923 275.987545,165.514213 C275.641389,165.864389 275.385197,166.293239 275.240892,166.764067 C275.031934,167.382153 274.933918,168.032337 274.951373,168.684575 L274.951373,172.937127 C274.960795,173.146455 274.883638,173.350429 274.738044,173.501085 C274.586888,173.64442 274.38181,173.716494 274.174244,173.699233 L273.579969,173.653507 Z" id="Path" fill="#FFFFFF" fill-rule="nonzero"></path>
                    <path d="M424.053523,173.653507 C423.826038,173.68474 423.599259,173.591676 423.459247,173.409633 C423.35086,173.210014 423.35086,172.969082 423.459247,172.769463 L428.594396,159.341153 C428.744537,158.973641 429.096725,158.728831 429.493427,158.716226 L430.727691,158.716226 C431.135804,158.691442 431.507635,158.949907 431.626723,159.341153 L436.807585,172.769463 C436.915972,172.969082 436.915972,173.210014 436.807585,173.409633 C436.672447,173.58915 436.451357,173.682266 436.228547,173.653507 L435.542845,173.653507 C435.134942,173.681893 434.759266,173.431372 434.628575,173.043822 L433.714306,170.605082 L426.583002,170.605082 L425.668732,173.043822 C425.539523,173.425626 425.172112,173.674789 424.769701,173.653507 L424.053523,173.653507 Z M427.207753,168.776027 L433.059079,168.776027 L430.118178,160.926334 L427.207753,168.776027 Z" id="Shape" fill="#FFFFFF" fill-rule="nonzero"></path>
                    <path d="M440.159907,161.033029 C439.763377,161.037627 439.382685,160.877581 439.108497,160.591007 C438.833805,160.322499 438.679832,159.953961 438.681818,159.569785 C438.6834,159.177347 438.836226,158.800633 439.108497,158.518079 C439.382685,158.231505 439.763377,158.071459 440.159907,158.076057 C440.564933,158.073715 440.954226,158.232767 441.241793,158.518079 C441.522685,158.79495 441.677033,159.175413 441.668452,159.569785 C441.671993,159.957351 441.511466,160.328329 441.226555,160.591007 C440.942734,160.872597 440.559656,161.031345 440.159907,161.033029 Z M439.855151,173.653507 C439.643625,173.665998 439.435665,173.594834 439.276113,173.455359 C439.130519,173.304702 439.053362,173.100728 439.062784,172.8914 L439.062784,163.746127 C439.053362,163.536799 439.130519,163.332825 439.276113,163.182168 C439.435665,163.042693 439.643625,162.971529 439.855151,162.984021 L440.495139,162.984021 C440.702705,162.966759 440.907783,163.038834 441.058939,163.182168 C441.204533,163.332825 441.281691,163.536799 441.272269,163.746127 L441.272269,172.8914 C441.281691,173.100728 441.204533,173.304702 441.058939,173.455359 C440.907783,173.598693 440.702705,173.670768 440.495139,173.653507 L439.855151,173.653507 Z" id="Shape" fill="#FFFFFF" fill-rule="nonzero"></path>
                    <path d="M445.340769,173.653507 C445.129243,173.665998 444.921283,173.594834 444.761731,173.455359 C444.616137,173.304702 444.53898,173.100728 444.548402,172.8914 L444.548402,163.746127 C444.53898,163.536799 444.616137,163.332825 444.761731,163.182168 C444.921283,163.042693 445.129243,162.971529 445.340769,162.984021 L445.980758,162.984021 C446.188072,162.968682 446.392394,163.040491 446.544557,163.182168 C446.690151,163.332825 446.767309,163.536799 446.757887,163.746127 L446.757887,165.377034 C446.853494,164.954052 447.012768,164.548047 447.230259,164.172906 C447.470966,163.746775 447.817319,163.389826 448.235956,163.136442 C448.650133,162.887482 449.124154,162.755772 449.607361,162.755389 L450.079733,162.755389 C450.414966,162.755389 450.582582,163.075473 450.582582,163.608948 L450.582582,164.233875 C450.582582,164.752107 450.399728,164.980739 450.018782,164.889286 C449.826472,164.865984 449.632054,164.865984 449.439745,164.889286 C448.997029,164.889109 448.565386,165.0277 448.20548,165.285581 C447.729347,165.656489 447.374023,166.160449 447.184546,166.733583 C446.860862,167.668597 446.716119,168.656225 446.757887,169.644828 L446.757887,172.952369 C446.767309,173.161697 446.690151,173.365671 446.544557,173.516327 C446.392394,173.658005 446.188072,173.729814 445.980758,173.714475 L445.340769,173.653507 Z" id="Path" fill="#FFFFFF" fill-rule="nonzero"></path>
                    <path d="M610.168357,143.702735 L603.646567,143.702735 L603.646567,148.54973 L609.23885,148.54973 C609.447543,148.5249 609.656094,148.597173 609.804703,148.745823 C609.953312,148.894474 610.025564,149.103084 610.000741,149.311836 L610.000741,149.586194 C610.014919,149.798006 609.94356,150.006655 609.802649,150.165395 C609.652035,150.31103 609.448119,150.388209 609.23885,150.378785 L603.646567,150.378785 L603.646567,154.951422 L610.168357,154.951422 C610.373805,154.948687 610.57357,155.018894 610.732157,155.149569 C610.878591,155.305868 610.955544,155.5148 610.945486,155.72877 L610.945486,156.048855 C610.95313,156.257895 610.876228,156.461195 610.732157,156.612813 C610.57728,156.749935 610.374941,156.821048 610.168357,156.810961 L602.153259,156.810961 C601.945945,156.826299 601.741622,156.75449 601.58946,156.612813 C601.445389,156.461195 601.368486,156.257895 601.37613,156.048855 L601.37613,142.635786 C601.368486,142.426746 601.445389,142.223446 601.58946,142.071828 C601.741622,141.930151 601.945945,141.858342 602.153259,141.87368 L610.168357,141.87368 C610.374941,141.863593 610.57728,141.934706 610.732157,142.071828 C610.876228,142.223446 610.95313,142.426746 610.945486,142.635786 L610.945486,142.955871 C610.958727,143.165791 610.881005,143.371258 610.732157,143.51983 C610.57419,143.65007 610.372673,143.715446 610.168357,143.702735 L610.168357,143.702735 Z" id="Path" fill="#FFFFFF" fill-rule="nonzero"></path>
                    <path d="M617.939649,156.993866 C616.490772,157.019675 615.099597,156.426457 614.114955,155.362959 C613.642288,154.838433 613.274977,154.2278 613.033069,153.564389 C612.525213,152.171418 612.525213,150.643838 613.033069,149.250868 C613.271398,148.590301 613.63922,147.983999 614.114955,147.467539 C614.587678,146.951483 615.164063,146.541147 615.806354,146.263412 C616.481957,145.980511 617.207238,145.835414 617.939649,145.836632 C618.670603,145.832291 619.393611,145.98838 620.057708,146.293896 C620.741767,146.646659 621.312247,147.185598 621.703393,147.848592 L621.703393,142.117554 C621.693971,141.908226 621.771129,141.704252 621.916723,141.553596 C622.076274,141.414121 622.284235,141.342956 622.49576,141.355448 L623.227176,141.355448 C623.434491,141.340109 623.638813,141.411919 623.790976,141.553596 C623.93657,141.704252 624.013727,141.908226 624.004305,142.117554 L624.004305,156.01837 C624.011949,156.227411 623.935047,156.430711 623.790976,156.582329 C623.638813,156.724006 623.434491,156.795815 623.227176,156.780476 L622.587187,156.780476 C622.375662,156.792968 622.167701,156.721804 622.00815,156.582329 C621.864079,156.430711 621.787176,156.227411 621.79482,156.01837 L621.79482,155.088601 C621.386858,155.746773 620.800262,156.275387 620.103421,156.612813 C619.419347,156.898793 618.680234,157.028955 617.939649,156.993866 L617.939649,156.993866 Z M618.229168,155.073359 C619.191729,155.111838 620.124319,154.734255 620.789123,154.036894 C621.453959,153.328042 621.814951,152.387011 621.79482,151.415249 C621.815702,150.438816 621.454883,149.492765 620.789123,148.778362 C620.124319,148.081001 619.191729,147.703418 618.229168,147.741898 C617.636998,147.727102 617.052071,147.874693 616.537769,148.168677 C616.022319,148.47629 615.600775,148.919037 615.318743,149.449015 C614.689348,150.678869 614.689348,152.136387 615.318743,153.366241 C615.59533,153.895158 616.011711,154.338016 616.522531,154.646579 C617.040938,154.945692 617.630782,155.098462 618.229168,155.088601 L618.229168,155.073359 Z" id="Shape" fill="#FFFFFF" fill-rule="nonzero"></path>
                    <path d="M631.714646,156.993866 C630.981492,157.002858 630.25465,156.857448 629.58135,156.567087 C628.944524,156.287502 628.373483,155.877276 627.905189,155.362959 C627.427989,154.839036 627.055567,154.228506 626.808066,153.564389 C626.30021,152.171418 626.30021,150.643838 626.808066,149.250868 C627.052042,148.589587 627.424974,147.983402 627.905189,147.467539 C628.369365,146.948617 628.941475,146.537621 629.58135,146.263412 C630.256954,145.980511 630.982235,145.835414 631.714646,145.836632 C632.450529,145.832036 633.178556,145.988086 633.847942,146.293896 C634.538914,146.639989 635.123372,147.166676 635.539341,147.818108 L635.539341,142.117554 C635.529919,141.908226 635.607077,141.704252 635.752671,141.553596 C635.911366,141.412646 636.119956,141.341266 636.331708,141.355448 L636.941221,141.355448 C637.149915,141.330618 637.358466,141.402891 637.507075,141.551541 C637.655684,141.700192 637.727935,141.908802 637.703113,142.117554 L637.703113,156.01837 C637.714867,156.225253 637.643558,156.428266 637.505021,156.582329 C637.352858,156.724006 637.148536,156.795815 636.941221,156.780476 L636.301233,156.780476 C636.090254,156.803579 635.879898,156.731887 635.726909,156.584741 C635.57392,156.437595 635.494058,156.230152 635.508865,156.01837 L635.508865,155.088601 C635.092897,155.740033 634.508438,156.26672 633.817467,156.612813 C633.15165,156.888161 632.434716,157.018077 631.714646,156.993866 L631.714646,156.993866 Z M632.019403,155.073359 C632.977428,155.111403 633.905164,154.733536 634.56412,154.036894 C635.92221,152.547258 635.92221,150.267999 634.56412,148.778362 C633.430335,147.671982 631.711645,147.425505 630.312766,148.168677 C629.800626,148.480418 629.380055,148.922142 629.09374,149.449015 C628.464345,150.678869 628.464345,152.136387 629.09374,153.366241 C629.37466,153.89206 629.790064,154.333879 630.297528,154.646579 C630.820683,154.947656 631.415958,155.100468 632.019403,155.088601 L632.019403,155.073359 Z" id="Shape" fill="#FFFFFF" fill-rule="nonzero"></path>
                    <path d="M643.173493,161.566503 C642.947739,161.59186 642.726016,161.49264 642.594456,161.307387 C642.486069,161.107768 642.486069,160.866837 642.594456,160.667218 L644.240141,156.368939 L640.141165,146.979791 C640.020158,146.783566 640.020158,146.535848 640.141165,146.339622 C640.281177,146.157579 640.507956,146.064515 640.735441,146.095748 L641.51257,146.095748 C641.908304,146.068789 642.272022,146.313427 642.396364,146.690191 L645.352503,153.914957 L648.080074,146.705433 C648.148204,146.521191 648.270357,146.361816 648.430544,146.24817 C648.600316,146.145124 648.795791,146.092278 648.994343,146.095748 L649.878138,146.095748 C650.105623,146.064515 650.332401,146.157579 650.472413,146.339622 C650.5808,146.539241 650.5808,146.780173 650.472413,146.979791 L644.560135,160.956818 C644.441408,161.339642 644.076268,161.591533 643.676341,161.566503 L643.173493,161.566503 Z" id="Path" fill="#FFFFFF" fill-rule="nonzero"></path>
                    <path d="M598.039046,182.615875 C596.892486,182.634036 595.753513,182.426891 594.686724,182.00619 C593.723325,181.635261 592.846692,181.069699 592.111531,180.344799 C591.413448,179.635216 590.868827,178.789519 590.511559,177.860333 C589.760035,175.971217 589.760035,173.865989 590.511559,171.976873 C590.868827,171.047686 591.413448,170.201989 592.111531,169.492407 C592.849818,168.767661 593.725326,168.197644 594.686724,167.815774 C595.756513,167.407298 596.894074,167.205583 598.039046,167.221331 C599.573424,167.187564 601.083794,167.606346 602.381827,168.425458 C602.564103,168.526684 602.695767,168.699529 602.744969,168.90218 C602.79417,169.104832 602.756427,169.318831 602.64087,169.492407 L602.458016,169.842976 C602.36481,170.037756 602.18874,170.180088 601.978791,170.230371 C601.768843,170.280655 601.547421,170.233524 601.37613,170.102092 C600.341973,169.570486 599.201377,169.278745 598.039046,169.248533 C597.210087,169.233204 596.386403,169.383478 595.616231,169.690555 C594.926929,169.969314 594.303936,170.389953 593.787692,170.925167 C593.282711,171.442056 592.89318,172.060287 592.644855,172.738979 C592.116262,174.143963 592.116262,175.693243 592.644855,177.098226 C592.896547,177.77977 593.285533,178.402324 593.787692,178.927281 C594.309006,179.452627 594.930928,179.867358 595.616231,180.146651 C596.386403,180.453728 597.210087,180.604002 598.039046,180.588673 C599.201377,180.558461 600.341973,180.266719 601.37613,179.735114 C601.547421,179.603682 601.768843,179.556551 601.978791,179.606834 C602.18874,179.657118 602.36481,179.79945 602.458016,179.99423 L602.64087,180.344799 C602.869437,180.771578 602.823724,181.091663 602.518967,181.320294 C601.191404,182.196258 599.629098,182.648072 598.039046,182.615875 L598.039046,182.615875 Z" id="Path" fill="#FFFFFF" fill-rule="nonzero"></path>
                    <path d="M609.101709,182.615875 C608.544626,182.625608 607.990937,182.527261 607.471261,182.326275 C606.972633,182.129404 606.528475,181.815792 606.176046,181.411747 C605.788926,180.970877 605.502882,180.450652 605.337966,179.887535 C605.118232,179.198188 605.015227,178.476953 605.033209,177.753638 L605.033209,172.479863 C605.008386,172.271111 605.080638,172.062501 605.229247,171.91385 C605.377856,171.7652 605.586407,171.692927 605.7951,171.717757 L606.465565,171.717757 C606.677317,171.703575 606.885907,171.774954 607.044602,171.915905 C607.190196,172.066561 607.267354,172.270535 607.257932,172.479863 L607.257932,177.723153 C607.255441,178.238839 607.32729,178.75219 607.471261,179.247366 C607.586092,179.688628 607.843168,180.079708 608.202677,180.360041 C608.541753,180.611687 608.953801,180.745506 609.37599,180.741094 C609.728684,180.733336 610.078117,180.671654 610.412162,180.558188 C610.805742,180.406196 611.171347,180.189862 611.494048,179.918019 C611.874705,179.57279 612.171738,179.145359 612.362604,178.668165 C612.601609,178.062176 612.715638,177.4141 612.697837,176.7629 L612.697837,172.510347 C612.69088,172.304172 612.761577,172.102901 612.895928,171.946389 C613.049947,171.807813 613.252904,171.736484 613.459728,171.748241 L614.084479,171.748241 C614.296231,171.734059 614.504821,171.805439 614.663516,171.946389 C614.815933,172.092627 614.894306,172.299813 614.876846,172.510347 L614.876846,181.655621 C614.890087,181.865542 614.812365,182.071008 614.663516,182.21958 C614.504821,182.36053 614.296231,182.431909 614.084479,182.417727 L613.44449,182.417727 C613.237666,182.429485 613.03471,182.358155 612.88069,182.21958 C612.747625,182.062328 612.677108,181.861569 612.682599,181.655621 L612.682599,180.329556 C612.471645,181.036645 612.011447,181.643194 611.387383,182.036674 C610.698302,182.448667 609.903776,182.650004 609.101709,182.615875 Z" id="Path" fill="#FFFFFF" fill-rule="nonzero"></path>
                    <path d="M618.853919,182.387243 C618.642394,182.399735 618.434433,182.32857 618.274882,182.189095 C618.130811,182.037477 618.053908,181.834177 618.061552,181.625137 L618.061552,172.479863 C618.05213,172.270535 618.129288,172.066561 618.274882,171.915905 C618.434433,171.77643 618.642394,171.705265 618.853919,171.717757 L619.493908,171.717757 C619.702601,171.692927 619.911153,171.7652 620.059761,171.91385 C620.20837,172.062501 620.280622,172.271111 620.255799,172.479863 L620.255799,174.095528 C620.366576,173.675074 620.53043,173.270444 620.74341,172.8914 C621.233431,172.035587 622.134844,171.498055 623.120511,171.473883 L623.592884,171.473883 C623.928116,171.473883 624.095732,171.793968 624.095732,172.327442 L624.095732,172.937127 C624.095732,173.470601 623.912878,173.683991 623.531932,173.60778 C623.339564,173.585474 623.145263,173.585474 622.952895,173.60778 C622.511418,173.615308 622.082012,173.753181 621.718631,174.004075 C621.236863,174.372829 620.876076,174.877011 620.682459,175.452077 C620.366387,176.394193 620.221878,177.385394 620.255799,178.378565 L620.255799,181.686105 C620.267553,181.892988 620.196244,182.096001 620.057708,182.250064 C619.905545,182.391741 619.701223,182.46355 619.493908,182.448212 L618.853919,182.387243 Z" id="Path" fill="#FFFFFF" fill-rule="nonzero"></path>
                    <path d="M626.747114,182.387243 C626.535589,182.399735 626.327628,182.32857 626.168077,182.189095 C626.024006,182.037477 625.947103,181.834177 625.954747,181.625137 L625.954747,172.479863 C625.945325,172.270535 626.022483,172.066561 626.168077,171.915905 C626.327628,171.77643 626.535589,171.705265 626.747114,171.717757 L627.387103,171.717757 C627.594418,171.702418 627.79874,171.774227 627.950903,171.915905 C628.096497,172.066561 628.173654,172.270535 628.164232,172.479863 L628.164232,174.095528 C628.262437,173.673349 628.421563,173.267719 628.636605,172.8914 C628.877737,172.469596 629.224289,172.117693 629.642302,171.870178 C630.05525,171.616576 630.529174,171.479626 631.013706,171.473883 L631.486079,171.473883 C631.821311,171.473883 631.988927,171.793968 631.988927,172.327442 L631.988927,172.937127 C631.988927,173.470601 631.806073,173.683991 631.425127,173.60778 C631.232818,173.584479 631.0384,173.584479 630.84609,173.60778 C630.404613,173.615308 629.975207,173.753181 629.611826,174.004075 C629.135692,174.374983 628.780368,174.878943 628.590891,175.452077 C628.267432,176.392414 628.122722,177.384988 628.164232,178.378565 L628.164232,181.686105 C628.171876,181.895146 628.094974,182.098446 627.950903,182.250064 C627.79874,182.391741 627.594418,182.46355 627.387103,182.448212 L626.747114,182.387243 Z" id="Path" fill="#FFFFFF" fill-rule="nonzero"></path>
                    <path d="M638.906901,182.615875 C638.059839,182.626931 637.217951,182.482272 636.423135,182.189095 C635.70001,181.936807 635.039892,181.531266 634.487931,181.00021 C633.96224,180.496854 633.547087,179.889522 633.268905,179.216881 C632.992426,178.534353 632.852641,177.804156 632.857483,177.067742 C632.856785,176.32677 632.996386,175.592369 633.268905,174.903361 C633.548731,174.227147 633.963531,173.615145 634.487931,173.10479 C635.014308,172.582223 635.641679,172.172501 636.331708,171.900662 C637.053378,171.609714 637.824064,171.459672 638.602145,171.458641 C639.264084,171.459472 639.921945,171.562292 640.552587,171.763483 C641.168509,171.974413 641.741443,172.294521 642.243986,172.708495 C642.74426,173.133693 643.158118,173.651161 643.463012,174.232707 C643.796193,174.914557 643.992894,175.654985 644.042049,176.412331 C644.085047,176.618622 644.028613,176.833133 643.889671,176.991532 C643.728737,177.140382 643.514229,177.217406 643.295396,177.204921 L635.021255,177.204921 C634.974922,178.148888 635.368918,179.060965 636.087903,179.674145 C636.887683,180.333261 637.901913,180.67505 638.937377,180.634399 C639.970023,180.642203 640.980325,180.333708 641.832564,179.750356 C642.162192,179.485704 642.642837,179.533105 642.91445,179.857051 L643.066828,180.024714 C643.224395,180.181115 643.307578,180.39745 643.295396,180.619157 C643.248618,180.866875 643.113185,181.089049 642.91445,181.244084 C641.779048,182.154186 640.361689,182.63935 638.906901,182.615875 Z M635.219347,175.650225 L641.878278,175.650225 C641.750172,175.152286 641.504582,174.692328 641.1621,174.308918 C640.849181,173.979498 640.462793,173.728798 640.0345,173.577296 C639.589967,173.416017 639.120728,173.33349 638.647858,173.333422 C638.153829,173.333762 637.663753,173.421485 637.200264,173.592538 C636.752977,173.756263 636.347195,174.016453 636.011714,174.354644 C635.65651,174.723701 635.386097,175.165847 635.219347,175.650225 L635.219347,175.650225 Z" id="Shape" fill="#FFFFFF" fill-rule="nonzero"></path>
                    <path d="M647.165804,182.387243 C646.954825,182.410345 646.74447,182.338654 646.591481,182.191508 C646.438492,182.044361 646.358629,181.836919 646.373437,181.625137 L646.373437,172.479863 C646.364015,172.270535 646.441173,172.066561 646.586767,171.915905 C646.745462,171.774954 646.954052,171.703575 647.165804,171.717757 L647.805793,171.717757 C648.014486,171.692927 648.223038,171.7652 648.371646,171.91385 C648.520255,172.062501 648.592507,172.271111 648.567684,172.479863 L648.567684,173.760201 C648.779177,173.045069 649.245405,172.432294 649.878138,172.037842 C650.556894,171.624883 651.339024,171.413437 652.133336,171.428157 C652.696237,171.424727 653.254676,171.52817 653.779022,171.732999 C654.271706,171.933681 654.713983,172.24076 655.074237,172.632284 C655.465625,173.072579 655.756771,173.592629 655.927555,174.156497 C656.138621,174.853027 656.241406,175.577869 656.232312,176.305636 L656.232312,181.579411 C656.239956,181.788451 656.163053,181.991751 656.018982,182.143369 C655.859431,182.282844 655.65147,182.354008 655.439945,182.341517 L654.799956,182.341517 C654.592641,182.356855 654.388319,182.285046 654.236156,182.143369 C654.09762,181.989307 654.026311,181.786293 654.038065,181.579411 L654.038065,176.320878 C654.051209,175.761056 653.963461,175.203441 653.779022,174.674729 C653.636233,174.276442 653.375852,173.930942 653.032368,173.683991 C652.702192,173.452483 652.307968,173.32992 651.904769,173.333422 C651.56216,173.342608 651.222986,173.404293 650.899072,173.516327 C649.986524,173.804732 649.256494,174.495647 648.918154,175.391109 C648.672731,176.006318 648.553543,176.664627 648.567684,177.326858 L648.567684,181.579411 C648.579438,181.786293 648.508129,181.989307 648.369593,182.143369 C648.21743,182.285046 648.013108,182.356855 647.805793,182.341517 L647.165804,182.387243 Z" id="Path" fill="#FFFFFF" fill-rule="nonzero"></path>
                    <path d="M663.074097,182.615875 C662.661079,182.613825 662.250513,182.552222 661.855071,182.432969 C661.435906,182.322774 661.049243,182.113708 660.727471,181.823284 C660.387302,181.507352 660.126294,181.115728 659.96558,180.680125 C659.770796,180.137869 659.677809,179.56429 659.691299,178.98825 L659.691299,173.409633 L658.380846,173.409633 C658.26356,173.413297 658.151131,173.36269 658.076089,173.272454 C657.994099,173.186483 657.950162,173.071116 657.954186,172.952369 L657.954186,172.129294 C657.950162,172.010547 657.994099,171.89518 658.076089,171.80921 C658.158896,171.733591 658.26897,171.695055 658.380846,171.702515 L659.797964,171.702515 L660.194147,169.248533 C660.204586,169.074534 660.280863,168.911038 660.407477,168.791269 C660.533467,168.680056 660.696613,168.620219 660.864612,168.623606 L661.321747,168.623606 C661.496194,168.617354 661.664152,168.690156 661.778881,168.821754 C661.899837,168.942712 661.965927,169.107985 661.961735,169.279017 L661.961735,171.702515 L664.887398,171.702515 C664.999274,171.695055 665.109348,171.733591 665.192155,171.80921 C665.274145,171.89518 665.318082,172.010547 665.314058,172.129294 L665.314058,172.952369 C665.318082,173.071116 665.274145,173.186483 665.192155,173.272454 C665.117113,173.36269 665.004684,173.413297 664.887398,173.409633 L661.961735,173.409633 L661.961735,179.125429 C661.930346,179.555865 662.054737,179.983241 662.312205,180.329556 C662.533513,180.586166 662.857239,180.731325 663.195999,180.725852 C663.520031,180.732146 663.834901,180.618109 664.079793,180.405767 C664.332669,180.202703 664.474064,179.891548 664.460739,179.56745 L664.460739,179.171155 C664.420105,179.052605 664.420105,178.923894 664.460739,178.805344 C664.532586,178.710995 664.647252,178.659381 664.765496,178.668165 L665.740717,178.668165 C665.98826,178.641226 666.211825,178.817418 666.243565,179.06446 C666.293819,179.320534 666.319333,179.580848 666.319754,179.841808 C666.352267,180.606697 666.038881,181.345601 665.466436,181.853769 C664.799368,182.411079 663.940508,182.684679 663.074097,182.615875 Z" id="Path" fill="#FFFFFF" fill-rule="nonzero"></path>
                    <path d="M810.103902,158.716226 C810.313171,158.706802 810.517087,158.783981 810.667701,158.929616 C810.810995,159.080814 810.88305,159.28595 810.865793,159.493574 L810.865793,159.813659 C810.890616,160.022411 810.818364,160.231021 810.669755,160.379672 C810.521146,160.528323 810.312595,160.600595 810.103902,160.575765 L803.582111,160.575765 L803.582111,165.42276 L809.128681,165.42276 C809.340433,165.408578 809.549022,165.479958 809.707718,165.620908 C809.853312,165.771565 809.93047,165.975538 809.921048,166.184866 L809.921048,166.474467 C809.928692,166.683507 809.851789,166.886807 809.707718,167.038425 C809.555619,167.191504 809.343711,167.269597 809.128681,167.251815 L803.551636,167.251815 L803.551636,172.8914 C803.561057,173.100728 803.4839,173.304702 803.338306,173.455359 C803.186143,173.597036 802.981821,173.668845 802.774506,173.653507 L802.058328,173.653507 C801.846576,173.667689 801.637987,173.596309 801.479291,173.455359 C801.344939,173.298847 801.274242,173.097576 801.281199,172.8914 L801.281199,159.493574 C801.262298,159.282177 801.33808,159.073278 801.488115,158.923201 C801.63815,158.773123 801.84699,158.697319 802.058328,158.716226 L810.103902,158.716226 Z" id="Path" fill="#FFFFFF" fill-rule="nonzero"></path>
                    <path d="M814.111451,173.653507 C813.899925,173.665998 813.691965,173.594834 813.532413,173.455359 C813.386819,173.304702 813.309662,173.100728 813.319083,172.8914 L813.319083,159.005826 C813.309026,158.791856 813.385979,158.582925 813.532413,158.426626 C813.695675,158.293706 813.901006,158.223442 814.111451,158.228478 L814.751439,158.228478 C814.957556,158.221519 815.158771,158.292236 815.315239,158.426626 C815.461673,158.582925 815.538626,158.791856 815.528569,159.005826 L815.528569,172.8914 C815.53799,173.100728 815.460833,173.304702 815.315239,173.455359 C815.163076,173.597036 814.958754,173.668845 814.751439,173.653507 L814.111451,173.653507 Z" id="Path" fill="#FFFFFF" fill-rule="nonzero"></path>
                    <path d="M823.650331,173.897381 C822.908325,173.89586 822.173602,173.750944 821.486559,173.470601 C820.104329,172.902564 819.006871,171.804797 818.438994,170.422177 C817.85007,169.055265 817.85007,167.506051 818.438994,166.13914 C818.724247,165.465865 819.138358,164.854879 819.65802,164.340569 C820.182302,163.829851 820.797263,163.421484 821.471322,163.136442 C822.156258,162.849126 822.89239,162.703932 823.635093,162.709662 C824.382454,162.706844 825.122995,162.851885 825.814103,163.136442 C826.492737,163.421399 827.112714,163.829666 827.642642,164.340569 C828.708642,165.374097 829.310348,166.795674 829.310348,168.280658 C829.310348,169.765642 828.708642,171.187219 827.642642,172.220747 C826.569175,173.266147 825.133245,173.855973 823.635093,173.866896 L823.650331,173.897381 Z M823.650331,171.976873 C824.257548,171.971108 824.852127,171.802684 825.372206,171.489125 C825.926866,171.172844 826.377051,170.701341 826.667421,170.132576 C826.962868,169.573336 827.119647,168.95127 827.124556,168.318764 C827.117884,167.686485 826.961208,167.064828 826.667421,166.504951 C826.382511,165.928436 825.931351,165.450602 825.372206,165.13316 C824.849477,164.827641 824.255738,164.664711 823.650331,164.660654 C823.28245,164.665666 822.917539,164.727359 822.568445,164.84356 C822.158543,164.987521 821.780686,165.210157 821.456084,165.498971 C821.090725,165.83737 820.791087,166.240445 820.57229,166.687856 C820.309442,167.19051 820.178372,167.751648 820.191344,168.318764 C820.196253,168.95127 820.353032,169.573336 820.648479,170.132576 C821.250547,171.258721 822.419386,171.966068 823.696044,171.976873 L823.650331,171.976873 Z" id="Shape" fill="#FFFFFF" fill-rule="nonzero"></path>
                    <path d="M836.252015,173.897381 C835.517816,173.901111 834.791022,173.750518 834.118719,173.455359 C833.480979,173.177379 832.909624,172.766926 832.442558,172.251231 C831.965358,171.727309 831.592936,171.116778 831.345434,170.452661 C831.094616,169.763853 830.965706,169.036597 830.964489,168.303521 C830.964489,167.570335 831.093399,166.842862 831.345434,166.154382 C831.592936,165.490265 831.965358,164.879734 832.442558,164.355812 C832.906287,163.840155 833.478817,163.434065 834.118719,163.166926 C834.792019,162.876564 835.518861,162.731155 836.252015,162.740147 C836.987898,162.735551 837.715924,162.8916 838.385311,163.19741 C839.076283,163.543503 839.660741,164.070191 840.07671,164.721623 L840.07671,163.791853 C840.067288,163.582525 840.144445,163.378551 840.290039,163.227894 C840.448735,163.086944 840.657325,163.015565 840.869077,163.029747 L841.509066,163.029747 C841.717759,163.004917 841.92631,163.077189 842.074919,163.22584 C842.223528,163.374491 842.29578,163.583101 842.270957,163.791853 L842.270957,172.937127 C842.29578,173.145879 842.223528,173.354489 842.074919,173.50314 C841.92631,173.65179 841.717759,173.724063 841.509066,173.699233 L840.869077,173.699233 C840.657325,173.713415 840.448735,173.642035 840.290039,173.501085 C840.144445,173.350429 840.067288,173.146455 840.07671,172.937127 L840.07671,172.022599 C839.660741,172.674031 839.076283,173.200719 838.385311,173.546812 C837.707772,173.816061 836.98006,173.935648 836.252015,173.897381 L836.252015,173.897381 Z M836.556772,171.976873 C837.513399,172.007034 838.438028,171.630433 839.101489,170.940409 C840.461666,169.445738 840.461666,167.161305 839.101489,165.666634 C838.356579,164.871802 837.277173,164.480298 836.196092,164.612835 C835.11501,164.745373 834.162075,165.386037 833.631109,166.337288 C833.309525,166.942032 833.146973,167.618648 833.158736,168.303521 C833.148301,168.988248 833.310775,169.664538 833.631109,170.269755 C833.917059,170.787894 834.331648,171.223597 834.834897,171.534851 C835.358915,171.833801 835.953594,171.986461 836.556772,171.976873 L836.556772,171.976873 Z" id="Shape" fill="#FFFFFF" fill-rule="nonzero"></path>
                    <path d="M849.417499,173.897381 C849.00448,173.89533 848.593915,173.833728 848.198472,173.714475 C847.319475,173.466113 846.615257,172.807143 846.308982,171.946389 C846.113652,171.409556 846.020619,170.840865 846.034701,170.269755 L846.034701,164.614928 L844.724247,164.614928 C844.610471,164.616558 844.500757,164.57266 844.419491,164.492991 C844.341508,164.404545 844.298202,164.290834 844.297588,164.172906 L844.297588,163.334589 C844.292251,163.220125 844.336708,163.108953 844.419491,163.029747 C844.496112,162.943222 844.609108,162.898011 844.724247,162.90781 L846.065176,162.90781 L846.446122,160.453828 C846.468335,160.284299 846.549205,160.127905 846.67469,160.011807 C846.795614,159.890817 846.96084,159.824708 847.131824,159.828901 L847.588959,159.828901 C847.761839,159.830476 847.926727,159.901948 848.046094,160.027049 C848.167904,160.153663 848.233784,160.323902 848.228948,160.499554 L848.228948,162.90781 L851.139373,162.90781 C851.259319,162.895509 851.378006,162.940736 851.459368,163.029747 C851.542151,163.108953 851.586607,163.220125 851.58127,163.334589 L851.58127,164.172906 C851.580657,164.290834 851.53735,164.404545 851.459368,164.492991 C851.373422,164.575004 851.258087,164.618953 851.139373,164.614928 L848.228948,164.614928 L848.228948,170.330724 C848.187246,170.762189 848.312697,171.193206 848.579418,171.534851 C848.800726,171.791461 849.124452,171.93662 849.463212,171.931147 C849.784205,171.934926 850.096566,171.827185 850.347006,171.626304 C850.594212,171.418883 850.734266,171.110677 850.727952,170.787987 L850.727952,170.37645 C850.704546,170.254091 850.732063,170.127477 850.804141,170.025881 C850.875988,169.931533 850.990654,169.879918 851.108898,169.888702 L852.084119,169.888702 C852.201502,169.871367 852.320923,169.90198 852.415503,169.973652 C852.510082,170.045323 852.571873,170.15203 852.586967,170.269755 C852.611723,170.533372 852.611723,170.798729 852.586967,171.062346 C852.612707,171.82158 852.300104,172.553053 851.733648,173.059064 C851.095918,173.622369 850.267925,173.922056 849.417499,173.897381 Z" id="Path" fill="#FFFFFF" fill-rule="nonzero"></path>
                    <polygon id="Path" fill="#FFFFFF" fill-rule="nonzero" points="134.976683 173.653507 134.976683 158.304689 145.292692 165.92575"></polygon>
                    <polygon id="Path" fill="#FFFFFF" fill-rule="nonzero" points="336.954096 173.653507 336.954096 158.304689 347.270106 165.92575"></polygon>
                    <polygon id="Path" fill="#FFFFFF" fill-rule="nonzero" points="522.200375 173.653507 522.200375 158.304689 532.516384 165.92575"></polygon>
                    <polygon id="Path" fill="#FFFFFF" fill-rule="nonzero" points="716.878868 173.653507 716.878868 158.304689 727.194878 165.92575"></polygon>
                    <path d="M782.721524,27.9692956 C791.391849,27.9692956 791.391849,34.7367982 800.062173,34.7367982 C808.732497,34.7367982 808.732497,27.9692956 817.402821,27.9692956 C826.073146,27.9692956 826.073146,34.7367982 834.758708,34.7367982 C843.44427,34.7367982 843.429032,27.9692956 852.114594,27.9692956 C860.800156,27.9692956 860.784918,34.7367982 869.470481,34.7367982" id="Path" stroke="#C8C2C2" stroke-width="1.63"></path>
                    <path d="M782.721524,37.0993272 C791.391849,37.0993272 791.391849,43.8515877 800.062173,43.8515877 C808.732497,43.8515877 808.732497,37.0993272 817.402821,37.0993272 C826.073146,37.0993272 826.073146,43.8515877 834.758708,43.8515877 C843.44427,43.8515877 843.429032,37.0993272 852.114594,37.0993272 C860.800156,37.0993272 860.784918,43.8515877 869.470481,43.8515877" id="Path" stroke="#C8C2C2" stroke-width="1.63"></path>
                    <path d="M782.721524,46.2141167 C791.391849,46.2141167 791.391849,52.9816193 800.062173,52.9816193 C808.732497,52.9816193 808.732497,46.2141167 817.402821,46.2141167 C826.073146,46.2141167 826.073146,52.9816193 834.758708,52.9816193 C843.44427,52.9816193 843.429032,46.2141167 852.114594,46.2141167 C860.800156,46.2141167 860.784918,52.9816193 869.470481,52.9816193" id="Path" stroke="#C8C2C2" stroke-width="1.63"></path>
                    <path d="M396.899713,53.4541251 C396.899713,53.4541251 418.522191,21.6133303 438.559935,31.7036157 C462.224282,43.6077137 466.963247,26.6127466 465.988026,18.1990948" id="Path" stroke="#C8C2C2" stroke-width="1.63"></path>
                    <path d="M400.236797,64.2760324 C400.236797,64.2760324 419.207893,28.9600336 442.780814,41.1537319 C466.353734,53.3474303 475.587858,35.2702725 474.582161,26.8566206" id="Path" stroke="#C8C2C2" stroke-width="1.63"></path>
                    <path d="M402.994844,76.2106147 C402.994844,76.2106147 423.946858,37.5413488 447.001692,50.588606 C470.056526,63.6358632 481.637276,45.1624103 482.231551,36.200042" id="Path" stroke="#C8C2C2" stroke-width="1.63"></path>
                    <ellipse id="Oval" fill="#BFC723" fill-rule="nonzero" cx="242.525275" cy="87.413575" rx="5.98846651" ry="5.99015431"></ellipse>
                    <ellipse id="Oval" fill="#BFC723" fill-rule="nonzero" opacity="0.4" cx="447.565492" cy="85.1120145" rx="5.98846651" ry="5.99015431"></ellipse>
                    <ellipse id="Oval" fill="#BFC723" fill-rule="nonzero" cx="44.006848" cy="87.9775336" rx="4.75420242" ry="4.75554236"></ellipse>
                    <ellipse id="Oval" fill="#BFC723" fill-rule="nonzero" cx="653.276173" cy="79.8229978" rx="3.00185217" ry="3.00269822"></ellipse>
                    <ellipse id="Oval" fill="#BFC723" fill-rule="nonzero" cx="431.108637" cy="85.172983" rx="3.00185217" ry="3.00269822"></ellipse>
                    <ellipse id="Oval" fill="#BFC723" fill-rule="nonzero" cx="815.467617" cy="81.0271255" rx="4.51039717" ry="4.51166839"></ellipse>
                    <ellipse id="Oval" fill="#BFC723" fill-rule="nonzero" opacity="0.3" cx="61.3170209" cy="86.7429216" rx="5.98846651" ry="5.99015431"></ellipse>
                    <ellipse id="Oval" fill="#BFC723" fill-rule="nonzero" opacity="0.3" cx="833.615871" cy="70.7082083" rx="5.98846651" ry="5.99015431"></ellipse>
                    <ellipse id="Oval" fill="#FFFFFF" fill-rule="nonzero" cx="458.338636" cy="5.34998515" rx="5.24181292" ry="5.24329029"></ellipse>
                    <ellipse id="Oval" fill="#FFFFFF" fill-rule="nonzero" cx="840.183375" cy="28.8228545" rx="5.24181292" ry="5.24329029"></ellipse>
                    <path d="M652.285714,1.37179106 C639.074517,8.85567342 629.855631,25.911609 629.855631,45.7263688 C629.855631,65.5411286 638.998328,82.5970642 652.285714,90.0961887" id="Path" stroke="#C8C2C2" stroke-width="1.63"></path>
                    <path d="M598.755224,90.0961887 C611.951183,82.5970642 621.170069,65.5411286 621.170069,45.7263688 C621.170069,25.911609 612.027372,8.85567342 598.755224,1.37179106" id="Path" stroke="#C8C2C2" stroke-width="1.63"></path>
                    <ellipse id="Oval" fill="#FFFFFF" fill-rule="nonzero" cx="608.400769" cy="10.41037" rx="5.24181292" ry="5.24329029"></ellipse>
                    <polygon id="Path" fill="#C8C2C2" fill-rule="nonzero" opacity="0.2" points="218.403792 68.437132 207.584934 68.437132 242.06814 6.9808923 252.886998 6.9808923"></polygon>
                    <polygon id="Path" fill="#C8C2C2" fill-rule="nonzero" opacity="0.4" points="232.209265 68.437132 221.390407 68.437132 255.873612 6.9808923 266.69247 6.9808923"></polygon>
                    <polygon id="Path" fill="#C8C2C2" fill-rule="nonzero" opacity="0.6" points="245.908072 68.437132 235.089214 68.437132 269.557182 6.9808923 280.391278 6.9808923"></polygon>
                    <polygon id="Path" fill="#C8C2C2" fill-rule="nonzero" points="258.997367 68.437132 248.163271 68.437132 282.646476 6.9808923 293.465334 6.9808923"></polygon>
                    <ellipse id="Oval" fill="#FFFFFF" fill-rule="nonzero" cx="259.987826" cy="66.7604985" rx="5.24181292" ry="5.24329029"></ellipse>
                    <ellipse id="Oval" fill="#FFFFFF" fill-rule="nonzero" cx="38.1250463" cy="31.2158678" rx="5.24181292" ry="5.24329029"></ellipse>
                    <ellipse id="Oval" fill="#FFFFFF" fill-rule="nonzero" cx="59.183725" cy="47.4639708" rx="3.90088403" ry="3.90198347"></ellipse>
                    <path d="M642.77731,25.8201563 C642.77731,32.7705643 627.646146,34.1880817 624.11097,34.1880817 C620.575794,34.1880817 610.396924,33.6698496 610.396924,30.7128777 C610.396924,27.7559059 620.088183,27.3596107 623.775738,27.3596107 C627.463292,27.3596107 642.792547,29.1734233 642.792547,35.7427783 C642.792547,42.3121333 631.348938,43.8515877 624.507153,43.8515877 C617.665369,43.8515877 610.412162,42.9523024 610.412162,40.4983206 C610.412162,38.0443388 619.387243,37.1450536 624.3243,37.1450536 C629.261356,37.1450536 642.807785,39.3399193 642.807785,45.5282212 C642.807785,52.0975762 631.364176,53.6370306 624.522391,53.6370306 C617.680606,53.6370306 610.4274,52.7377454 610.4274,50.2837636 C610.4274,47.8297818 619.402481,46.9457386 624.339537,46.9457386 C629.276594,46.9457386 642.823023,49.1253622 642.823023,55.3136641" id="Path" stroke="#BFC723" stroke-width="1.12"></path>
                    <path d="M642.77731,55.3136641 C642.77731,62.2640722 627.646146,63.6815896 624.11097,63.6815896 C620.575794,63.6815896 610.396924,63.1633574 610.396924,60.2063856 C610.396924,57.2494137 620.088183,56.8531185 623.775738,56.8531185 C627.463292,56.8531185 642.792547,58.651689 642.792547,65.221044" id="Path" stroke="#BFC723" stroke-width="1.12"></path>
                    <rect id="Rectangle" fill="#C8C2C2" fill-rule="nonzero" x="7.77129241" y="16.0042291" width="81.979516" height="9.9683484"></rect>
                </g>
            </g>
        </g>
    </g>
</svg>