<?xml version="1.0" encoding="UTF-8"?>
<svg width="537px" height="183px" viewBox="0 0 537 183" version="1.1" xmlns="http://www.w3.org/2000/svg" xmlns:xlink="http://www.w3.org/1999/xlink">
    <title>m_fig03</title>
    <g id="Mobile" stroke="none" stroke-width="1" fill="none" fill-rule="evenodd">
        <g id="saya_technologies_bottles_Mobile" transform="translate(-54.000000, -8359.000000)">
            <g id="m_fig03" transform="translate(54.000000, 8359.000000)">
                <ellipse id="Oval" stroke="#FFFFFF" cx="92" cy="91.5" rx="91.5" ry="91"></ellipse>
                <text id="2-Stage-Purification" font-family="FilsonSoft-Bold, Filson Soft" font-size="18" font-weight="bold" fill="#FFFFFF">
                    <tspan x="55.868" y="86">2 Stage</tspan>
                    <tspan x="37.931" y="110">Purification</tspan>
                </text>
                <g id="fig2" transform="translate(245.000000, 13.000000)">
                    <ellipse id="Oval" fill="#FFFFFF" fill-rule="nonzero" cx="249.299047" cy="46.3957514" rx="4.74710421" ry="4.76637288"></ellipse>
                    <ellipse id="Oval" fill="#FFFFFF" fill-rule="nonzero" cx="232.897193" cy="41.6293785" rx="5.9795255" ry="6.00379661"></ellipse>
                    <ellipse id="Oval" fill="#FFFFFF" fill-rule="nonzero" cx="32.2255344" cy="11.9159322" rx="4.32108204" ry="4.33862147"></ellipse>
                    <ellipse id="Oval" fill="#FFFFFF" fill-rule="nonzero" cx="46.6798581" cy="18.5613559" rx="5.9795255" ry="6.00379661"></ellipse>
                    <ellipse id="Oval" fill="#FFFFFF" fill-rule="nonzero" cx="79.7726519" cy="6.95096045" rx="5.9795255" ry="6.00379661"></ellipse>
                    <path d="M16.0214767,122.581333 C16.5391954,122.585868 17.0528569,122.673545 17.5429845,122.84104 C18.1062639,123.003562 18.6261513,123.29066 19.0644922,123.681266 C19.518733,124.116302 19.8854739,124.634935 20.1447627,125.208949 C20.4346092,125.883973 20.5797606,126.612676 20.5707849,127.347706 C20.5735899,127.958069 20.4653065,128.563811 20.2512683,129.135096 C20.0645349,129.699686 19.7641548,130.219685 19.3687938,130.66278 C18.96155,131.091751 18.4691083,131.430052 17.9233614,131.655774 C17.3211016,131.90749 16.6737573,132.032285 16.0214767,132.022418 L12.2633525,132.022418 L12.2633525,136.849898 C12.273395,137.064356 12.1965568,137.273763 12.0503415,137.430418 C11.8941071,137.565114 11.6931929,137.635992 11.4873836,137.629017 L10.7722749,137.629017 C10.5598657,137.653788 10.3478321,137.579703 10.1966263,137.427884 C10.0454206,137.276064 9.97163485,137.06317 9.99630599,136.849898 L9.99630599,123.421559 C9.98935937,123.214915 10.0599508,123.013185 10.194102,122.856316 C10.3525607,122.715045 10.5608388,122.643503 10.7722749,122.657718 L16.0214767,122.581333 Z M15.5802395,130.12809 C15.9792736,130.108774 16.3713116,130.015546 16.7365854,129.853107 C17.1764307,129.653659 17.5396194,129.31581 17.7712106,128.890667 C18.0361305,128.425142 18.1775815,127.899123 18.1820177,127.362983 C18.176303,126.935534 18.0991553,126.512082 17.9537916,126.110282 C17.5812234,125.096822 16.5936395,124.44609 15.5193792,124.506215 L12.2633525,124.506215 L12.2633525,130.189198 L15.5802395,130.12809 Z" id="Shape" fill="#FFFFFF" fill-rule="nonzero"></path>
                    <path d="M23.6746608,137.491525 C23.4645307,137.496573 23.2595063,137.426149 23.0964878,137.292927 C22.9502725,137.136271 22.8734343,136.926864 22.8834767,136.712407 L22.8834767,122.795209 C22.8740688,122.585404 22.9511112,122.380966 23.0964878,122.229966 C23.2558012,122.090173 23.463451,122.018847 23.6746608,122.031367 L24.3441242,122.031367 C24.552506,122.006481 24.7607459,122.078918 24.9091328,122.227907 C25.0575197,122.376896 25.1296637,122.585981 25.104878,122.795209 L25.104878,128.905944 C25.3160548,128.189183 25.7815873,127.575012 26.4133747,127.179661 C27.0883505,126.759324 27.8712401,126.546873 28.6652062,126.568588 C29.2272666,126.56515 29.7848722,126.668829 30.3084346,126.874124 C30.8023692,127.071567 31.2447542,127.379881 31.6017162,127.775458 C31.9953712,128.21471 32.2864575,128.736617 32.4537605,129.303141 C32.6657039,130.000992 32.7683624,130.727672 32.7580621,131.457175 L32.7580621,136.727684 C32.7681045,136.942141 32.6912663,137.151548 32.545051,137.308203 C32.377256,137.442066 32.165382,137.507522 31.951663,137.491525 L31.3126297,137.491525 C31.1068204,137.4985 30.9059062,137.427622 30.7496718,137.292927 C30.6089719,137.133825 30.5377188,136.924701 30.5518758,136.712407 L30.5518758,131.457175 C30.5546985,130.910521 30.4620036,130.367605 30.2780044,129.853107 C30.1355727,129.449685 29.8758626,129.098451 29.5324656,128.844836 C29.1989038,128.622652 28.8068265,128.505615 28.4065499,128.508746 C28.064453,128.517952 27.7257852,128.579778 27.4023548,128.692068 C26.9974916,128.831801 26.6211838,129.04401 26.2916541,129.318418 C25.9115655,129.664433 25.6149757,130.092838 25.4243947,130.571119 C25.1777146,131.187261 25.0586442,131.847405 25.0744479,132.511277 L25.0744479,136.758237 C25.0886049,136.970532 25.0173519,137.179655 24.8766519,137.338757 C24.7221011,137.450026 24.5338927,137.504019 24.3441242,137.491525 L23.6746608,137.491525 Z" id="Path" fill="#FFFFFF" fill-rule="nonzero"></path>
                    <path d="M37.642102,142.334282 C37.420067,142.359929 37.2008214,142.267241 37.063929,142.089853 C36.9634607,141.887872 36.9634607,141.650207 37.063929,141.448226 L38.7071574,137.140158 L34.6143016,127.729627 C34.5060763,127.529554 34.5060763,127.288073 34.6143016,127.088 C34.7562783,126.90709 34.9790526,126.809589 35.2076896,126.828294 L36.0597339,126.828294 C36.4590637,126.803207 36.8236581,127.055672 36.9422084,127.439367 L39.8939335,134.680588 L42.6326475,127.454644 C42.689226,127.26388 42.8138055,127.100726 42.9825942,126.996339 C43.1489704,126.88438 43.3452813,126.825781 43.5455521,126.828294 L44.4128115,126.828294 C44.6423914,126.803669 44.8679002,126.902367 45.0061996,127.088 C45.1306923,127.283612 45.1306923,127.534015 45.0061996,127.729627 L39.0723193,141.738486 C38.9422488,142.118481 38.5737914,142.363026 38.1746297,142.334282 L37.642102,142.334282 Z" id="Path" fill="#FFFFFF" fill-rule="nonzero"></path>
                    <path d="M50.2097561,137.781785 C49.4116628,137.797191 48.6222388,137.613469 47.9122794,137.247096 C47.2585165,136.910102 46.726403,136.375829 46.3907716,135.719412 C46.2780663,135.536934 46.2780663,135.306094 46.3907716,135.123616 C46.5226019,134.938308 46.717449,134.807883 46.9385144,134.756972 L47.3797517,134.634757 C47.7605218,134.563284 48.1447587,134.740872 48.3383016,135.077785 C48.5640854,135.360172 48.8571306,135.580849 49.1903459,135.719412 C49.5099762,135.869883 49.8569005,135.953067 50.2097561,135.963842 C50.6702876,135.977613 51.1215325,135.831981 51.4878226,135.551367 C51.8125435,135.319081 52.0052844,134.943419 52.0051353,134.543096 C52.0051353,133.977853 51.563898,133.550102 50.6814235,133.244565 L49.2512062,132.755706 C48.7037856,132.59154 48.188953,132.333079 47.7296984,131.991864 C47.349412,131.727432 47.0492838,131.362644 46.862439,130.937763 C46.7053346,130.586937 46.6224402,130.207196 46.6189978,129.822554 C46.5937798,128.94601 46.9625229,128.104556 47.6231929,127.531028 C48.3309608,126.904749 49.2519028,126.57646 50.194541,126.614418 C50.8562444,126.606334 51.5113371,126.747281 52.1116408,127.026893 C52.6946432,127.31801 53.1692731,127.789212 53.4657827,128.371254 C53.5772171,128.565048 53.5772171,128.803811 53.4657827,128.997605 C53.3566791,129.195582 53.1575371,129.326978 52.933255,129.348972 L52.537663,129.440633 C52.3836927,129.486041 52.2199658,129.486041 52.0659956,129.440633 C51.848024,129.342875 51.6630217,129.183658 51.5334678,128.982328 C51.2073487,128.612124 50.7319184,128.409948 50.2401863,128.432362 C49.8339742,128.405346 49.4339221,128.542907 49.1294856,128.814282 C48.8541953,129.050634 48.6980411,129.397807 48.7034634,129.761446 C48.7034634,130.321597 49.1142705,130.734072 49.9358847,130.99887 L51.4573925,131.518282 C52.2398539,131.706936 52.9396525,132.146756 53.4505676,132.770983 C53.8394288,133.291478 54.0526467,133.923023 54.0591707,134.57365 C54.054776,134.955146 53.9826426,135.332797 53.8461596,135.688859 C53.7020727,136.084175 53.467553,136.439999 53.1614812,136.727684 C52.8002229,137.066647 52.376375,137.33133 51.9138448,137.506802 C51.3674952,137.702922 50.7897956,137.796143 50.2097561,137.781785 Z" id="Path" fill="#FFFFFF" fill-rule="nonzero"></path>
                    <path d="M57.5586386,124.888136 C56.718333,124.888136 56.0371308,124.204168 56.0371308,123.360452 C56.0285632,122.965182 56.1826803,122.583852 56.463153,122.30635 C56.7252835,122.011584 57.1044571,121.849221 57.4977783,121.863322 C58.3380838,121.863322 59.0192975,122.547289 59.0192975,123.391006 C59.0208885,123.782236 58.854565,124.1552 58.5628337,124.414554 C58.2993972,124.69369 57.9408043,124.862804 57.5586386,124.888136 Z M57.2695521,137.491525 C57.059001,137.499379 56.8530186,137.428626 56.6913792,137.292927 C56.5451638,137.136271 56.4683257,136.926864 56.4783681,136.712407 L56.4783681,127.546305 C56.4689602,127.3365 56.5460025,127.132062 56.6913792,126.981062 C56.8474009,126.834253 57.0559617,126.757103 57.2695521,126.767186 L57.9085854,126.767186 C58.117542,126.75774 58.3211538,126.835095 58.4715432,126.981062 C58.612969,127.133614 58.6846506,127.338459 58.6693392,127.546305 L58.6693392,136.712407 C58.6834962,136.924701 58.6122432,137.133825 58.4715432,137.292927 C58.3153089,137.427622 58.1143946,137.4985 57.9085854,137.491525 L57.2695521,137.491525 Z" id="Shape" fill="#FFFFFF" fill-rule="nonzero"></path>
                    <path d="M67.1897827,137.781785 C66.3404173,137.791657 65.4958955,137.652056 64.69451,137.369311 C63.9890097,137.115131 63.3420561,136.720186 62.7926253,136.208271 C62.2790878,135.712379 61.8747998,135.113894 61.6058492,134.451435 C61.3189923,133.775479 61.173968,133.047415 61.1798271,132.312678 C61.1748186,131.55475 61.3142603,130.802857 61.5906341,130.097537 C61.8566151,129.414709 62.2548154,128.791618 62.7621951,128.264316 C63.3015604,127.724741 63.950185,127.307936 64.6640798,127.042169 C65.4719017,126.74061 66.327979,126.590447 67.1897827,126.599141 C68.3226631,126.598601 69.4355181,126.899026 70.4153792,127.469921 C70.6057203,127.575069 70.739558,127.759843 70.780541,127.974056 C70.8098515,128.185019 70.7551857,128.39908 70.6283902,128.569853 L70.4458093,128.783729 C70.3396564,128.919181 70.2044354,129.028841 70.0502173,129.104542 C69.8172084,129.16789 69.5683728,129.129026 69.3655388,128.997605 C68.7224279,128.678696 68.0135168,128.51645 67.2962882,128.524023 C66.776896,128.524421 66.2617107,128.617531 65.7747805,128.799006 C65.3089564,128.962841 64.8798372,129.217205 64.511929,129.547571 C64.1612708,129.879526 63.8817053,130.279784 63.6903149,130.723887 C63.2581432,131.811107 63.3421319,133.036697 63.918541,134.054237 C64.2399634,134.64429 64.7411972,135.115435 65.3487583,135.398599 C65.9640185,135.702582 66.641008,135.859444 67.3267184,135.856904 C68.043947,135.864477 68.7528581,135.702231 69.395969,135.383322 C69.5879037,135.283277 69.8044732,135.240848 70.0197871,135.261107 C70.2148284,135.297835 70.3827266,135.42146 70.4762395,135.597198 L70.6283902,135.811073 C70.7450042,135.951063 70.795009,136.135158 70.7653259,136.315209 C70.7502188,136.487269 70.6682263,136.646431 70.5370998,136.758237 C70.4001846,136.878603 70.2524766,136.985998 70.0958625,137.079051 C69.2030077,137.559091 68.2024034,137.801052 67.1897827,137.781785 Z" id="Path" fill="#FFFFFF" fill-rule="nonzero"></path>
                    <path d="M77.5968958,137.781785 C76.8645813,137.793588 76.1382464,137.647731 75.4667849,137.354034 C74.8277937,137.064669 74.2534098,136.649019 73.7779113,136.131887 C73.2977404,135.618157 72.9297863,135.009349 72.6976408,134.344497 C72.1729439,132.95153 72.1729439,131.41412 72.6976408,130.021153 C72.9334145,129.353476 73.3008231,128.740375 73.7779113,128.218486 C74.768246,127.164626 76.1540038,126.57703 77.5968958,126.599141 C78.3266045,126.596266 79.0482201,126.752642 79.7117916,127.057446 C80.4017315,127.404327 80.9853174,127.932214 81.4006652,128.58513 L81.4006652,127.66852 C81.3912573,127.458715 81.4682996,127.254277 81.6136763,127.103277 C81.7465988,126.930085 81.9447405,126.819559 82.1614191,126.79774 L82.8004523,126.79774 C83.0094089,126.788294 83.2130207,126.865649 83.3634102,127.011616 C83.504836,127.164168 83.5765176,127.369013 83.5612062,127.576859 L83.5612062,136.74296 C83.5753632,136.955255 83.5041102,137.164378 83.3634102,137.32348 C83.2071758,137.458176 83.0062616,137.529054 82.8004523,137.522079 L82.1614191,137.522079 C81.9508679,137.529933 81.7448856,137.459179 81.5832461,137.32348 C81.4370308,137.166825 81.3601926,136.957418 81.370235,136.74296 L81.370235,135.82635 C80.9548872,136.479266 80.3713014,137.007153 79.6813614,137.354034 C79.0248056,137.644033 78.3141276,137.78987 77.5968958,137.781785 L77.5968958,137.781785 Z M77.8859823,135.856904 C78.8425771,135.895035 79.7689278,135.516307 80.4269002,134.818079 C81.7829621,133.32505 81.7829621,131.0406 80.4269002,129.547571 C79.2948083,128.438671 77.5786836,128.191633 76.1818936,128.936497 C75.6709738,129.249515 75.2511613,129.692108 74.9646874,130.219751 C74.3556063,131.457023 74.3556063,132.908626 74.9646874,134.145898 C75.2497746,134.669592 75.6635566,135.111348 76.1666785,135.429153 C76.677696,135.716273 77.2547903,135.863766 77.840337,135.856904 L77.8859823,135.856904 Z" id="Shape" fill="#FFFFFF" fill-rule="nonzero"></path>
                    <path d="M87.6236319,137.491525 C87.4130808,137.499379 87.2070985,137.428626 87.045459,137.292927 C86.8992436,137.136271 86.8224055,136.926864 86.8324479,136.712407 L86.8324479,122.795209 C86.82304,122.585404 86.9000823,122.380966 87.045459,122.229966 C87.2039177,122.088695 87.4121958,122.017153 87.6236319,122.031367 L88.2474501,122.031367 C88.455832,122.006481 88.6640719,122.078918 88.8124588,122.227907 C88.9608456,122.376896 89.0329896,122.585981 89.008204,122.795209 L89.008204,136.712407 C89.022361,136.924701 88.951108,137.133825 88.810408,137.292927 C88.6541736,137.427622 88.4532594,137.4985 88.2474501,137.491525 L87.6236319,137.491525 Z" id="Path" fill="#FFFFFF" fill-rule="nonzero"></path>
                    <path d="M11.1222217,163.217718 C10.7199042,163.242652 10.3589857,162.970865 10.2701774,162.57609 L6.08603104,149.147751 C5.98960035,148.939487 5.98960035,148.699112 6.08603104,148.490847 C6.23123735,148.315637 6.45349621,148.224084 6.67941907,148.246418 L7.36409756,148.246418 C7.55975689,148.243054 7.75146903,148.301871 7.91184035,148.414463 C8.05978435,148.539737 8.17036162,148.703632 8.23135698,148.888045 L11.4873836,159.413785 L14.6064745,149.376904 C14.6894115,148.978346 15.0542271,148.703623 15.4585188,148.735277 L15.9454013,148.735277 C16.1410607,148.731913 16.3327728,148.790729 16.4931441,148.903322 C16.6555999,149.014797 16.7698101,149.184077 16.8126608,149.376904 L19.8556763,159.413785 L23.142133,148.888045 C23.2428023,148.494532 23.6052395,148.226389 24.0093925,148.246418 L24.6788559,148.246418 C24.9084358,148.221793 25.1339446,148.320491 25.2722439,148.506124 C25.3833479,148.705454 25.3833479,148.948422 25.2722439,149.147751 L21.3011086,162.57609 C21.2457581,162.763241 21.1341621,162.928647 20.981592,163.049672 C20.8144213,163.159925 20.6186421,163.218366 20.4186341,163.217718 L19.7796009,163.217718 C19.5793301,163.220231 19.3830192,163.161631 19.216643,163.049672 C19.064073,162.928647 18.9524769,162.763241 18.8971264,162.57609 L15.7323902,152.172565 L12.5372239,162.57609 C12.4429099,162.967254 12.0855867,163.236334 11.6851796,163.217718 L11.1222217,163.217718 Z" id="Path" fill="#FFFFFF" fill-rule="nonzero"></path>
                    <path d="M31.3887051,163.462147 C29.9380805,163.492047 28.5454953,162.890415 27.5697206,161.812249 C27.0946966,161.294612 26.7274231,160.68693 26.4894501,160.024859 C25.9823527,158.628716 25.9823527,157.097657 26.4894501,155.701514 C26.7309971,155.036591 27.0977595,154.424568 27.5697206,153.898847 C28.5600553,152.844987 29.9458131,152.257392 31.3887051,152.279503 C32.1105641,152.289158 32.8217433,152.455947 33.4731707,152.768362 C34.1661998,153.11068 34.7508951,153.63957 35.1620443,154.296045 L35.1620443,153.379435 C35.1526365,153.16963 35.2296788,152.965192 35.3750554,152.814192 C35.5328502,152.670293 35.7401688,152.593602 35.9532284,152.600316 L36.5922616,152.600316 C36.8019279,152.586691 37.007282,152.664391 37.1558486,152.81356 C37.3044153,152.96273 37.3818009,153.168918 37.3682306,153.379435 L37.3682306,162.545537 C37.378273,162.759994 37.3014348,162.969401 37.1552195,163.126056 C36.9989851,163.260752 36.7980709,163.33163 36.5922616,163.324655 L35.9532284,163.324655 C35.7430983,163.329703 35.5380739,163.259279 35.3750554,163.126056 C35.2288401,162.969401 35.1520019,162.759994 35.1620443,162.545537 L35.1620443,161.628927 C34.7508951,162.285401 34.1661998,162.814292 33.4731707,163.15661 C32.8079157,163.406214 32.0972641,163.51038 31.3887051,163.462147 L31.3887051,163.462147 Z M31.6777916,161.537266 C32.6389148,161.575833 33.570113,161.197389 34.2339246,160.498441 C34.8986904,159.78241 35.258971,158.834205 35.2381197,157.855548 C35.2582204,156.881573 34.8977679,155.938399 34.2339246,155.227932 C33.0969408,154.116445 31.3751656,153.869479 29.9737029,154.616859 C29.4636447,154.926125 29.0478862,155.369992 28.7717118,155.900113 C28.1432563,157.132768 28.1432563,158.593605 28.7717118,159.82626 C29.3089409,160.932068 30.4543489,161.606447 31.6777916,161.537266 L31.6777916,161.537266 Z" id="Shape" fill="#FFFFFF" fill-rule="nonzero"></path>
                    <path d="M43.7889933,163.462147 C42.986038,163.477542 42.1916913,163.293891 41.4763016,162.927458 C40.8243453,162.587981 40.2928985,162.054377 39.9547938,161.399774 C39.8343834,161.219575 39.8343834,160.984177 39.9547938,160.803977 C40.0828758,160.621706 40.271828,160.491613 40.4873215,160.437333 L40.9437738,160.315119 C41.324544,160.243645 41.7087809,160.421234 41.9023237,160.758147 C42.1247019,161.044045 42.41875,161.265476 42.7543681,161.399774 C43.1066027,161.565192 43.4914507,161.64874 43.8802838,161.644203 C44.3361798,161.658217 44.782704,161.512372 45.1431353,161.231729 C45.477698,161.006466 45.6776356,160.62791 45.675663,160.223458 C45.675663,159.658215 45.2344257,159.230463 44.3519512,158.924927 L42.9217339,158.436068 C42.3743133,158.271901 41.8594807,158.01344 41.4002262,157.672226 C41.0199229,157.403731 40.7157902,157.040449 40.5177517,156.618124 C40.3727597,156.264028 40.2953405,155.885725 40.2895255,155.502915 C40.2643075,154.626372 40.6330506,153.784918 41.2937206,153.21139 C42.0014885,152.585111 42.9224305,152.256822 43.8650687,152.29478 C44.5220708,152.284767 45.1726408,152.42586 45.7669534,152.707254 C46.3499559,152.998372 46.8245858,153.469574 47.1210953,154.051616 C47.239214,154.243557 47.239214,154.486025 47.1210953,154.677966 C47.0119918,154.875943 46.8128497,155.007339 46.5885676,155.029333 L46.1929756,155.120994 C46.0391322,155.16728 45.8751516,155.16728 45.7213082,155.120994 C45.5033366,155.023237 45.3183343,154.86402 45.1887805,154.662689 C44.8592684,154.288184 44.3772448,154.085588 43.8802838,154.112723 C43.4740718,154.085708 43.0740197,154.223268 42.7695831,154.494644 C42.5049517,154.737502 42.3556,155.08185 42.3587761,155.441808 C42.3587761,156.001959 42.7695831,156.414433 43.5911973,156.679232 L45.1127051,157.198644 C45.8909675,157.387211 46.5859417,157.827359 47.0906652,158.451345 C47.4906345,158.96589 47.7051654,159.601325 47.6992683,160.254011 C47.7003921,160.634642 47.6333958,161.012379 47.5014723,161.36922 C47.3573854,161.764536 47.1228656,162.12036 46.8167938,162.408045 C46.4555355,162.747008 46.0316877,163.011691 45.5691574,163.187164 C44.9982296,163.390242 44.3943139,163.483529 43.7889933,163.462147 L43.7889933,163.462147 Z" id="Path" fill="#FFFFFF" fill-rule="nonzero"></path>
                    <path d="M50.8487894,163.217718 C50.6429801,163.224692 50.4420659,163.153814 50.2858315,163.019119 C50.1330244,162.86663 50.0550695,162.654179 50.0728204,162.438599 L50.0728204,148.521401 C50.0553867,148.310387 50.1336423,148.10273 50.2858315,147.956158 C50.437767,147.814158 50.641784,147.742186 50.8487894,147.757559 L51.4878226,147.757559 C51.6950784,147.740259 51.8998501,147.812497 52.0507805,147.956158 C52.1961571,148.107158 52.2731994,148.311596 52.2637916,148.521401 L52.2637916,154.632136 C52.4711544,153.917789 52.9310106,153.30397 53.5570732,152.905853 C54.2374799,152.485112 55.025329,152.27275 55.8241197,152.29478 C56.3813694,152.289888 56.9342664,152.393653 57.452133,152.600316 C57.9485924,152.801265 58.3952144,153.108912 58.7606297,153.50165 C59.1491056,153.944606 59.4395195,154.465307 59.6126741,155.029333 C59.8189891,155.728102 59.9165023,156.45469 59.9017605,157.183367 L59.9017605,162.453876 C59.9195114,162.669456 59.8415565,162.881907 59.6887494,163.034395 C59.5317766,163.167802 59.3313739,163.238499 59.1257916,163.232994 L58.4867583,163.232994 C58.2743491,163.257766 58.0623154,163.18368 57.9111097,163.031861 C57.7599039,162.880041 57.6861182,162.667147 57.7107894,162.453876 L57.7107894,157.198644 C57.7239137,156.637547 57.6362968,156.078662 57.452133,155.548746 C57.3149616,155.142532 57.0541744,154.789842 56.7065942,154.540475 C56.3730324,154.31829 55.9809551,154.201253 55.5806785,154.204384 C54.8094565,154.226727 54.0688486,154.512318 53.4809978,155.014056 C53.0911488,155.354621 52.7884974,155.784244 52.5985233,156.266757 C52.3574496,156.884102 52.2435772,157.544124 52.2637916,158.206915 L52.2637916,162.453876 C52.2826649,162.665755 52.2069951,162.875129 52.0571842,163.025548 C51.9073732,163.175967 51.698845,163.251944 51.4878226,163.232994 L50.8487894,163.217718 Z" id="Path" fill="#FFFFFF" fill-rule="nonzero"></path>
                    <path d="M64.0859069,150.55322 C63.6922351,150.561823 63.3124466,150.40708 63.0360665,150.125469 C62.758761,149.85842 62.60445,149.487677 62.6100443,149.101921 C62.6014768,148.706651 62.7555939,148.325321 63.0360665,148.047819 C63.470832,147.641973 64.1009836,147.527075 64.6501081,147.753523 C65.1992327,147.979972 65.5670425,148.506411 65.5921996,149.101921 C65.5920117,149.489603 65.4323429,149.859991 65.1509623,150.125469 C64.8651219,150.40211 64.4829103,150.555615 64.0859069,150.55322 Z M63.7816053,163.217718 C63.5714753,163.222765 63.3664508,163.152341 63.2034324,163.019119 C63.057217,162.862464 62.9803789,162.653056 62.9904213,162.438599 L62.9904213,153.272497 C62.9810134,153.062692 63.0580557,152.858254 63.2034324,152.707254 C63.3612271,152.563355 63.5685457,152.486664 63.7816053,152.493379 L64.4206386,152.493379 C64.6303048,152.479753 64.8356589,152.557453 64.9842256,152.706623 C65.1327922,152.855792 65.2101778,153.06198 65.1966075,153.272497 L65.1966075,162.438599 C65.2066499,162.653056 65.1298118,162.862464 64.9835965,163.019119 C64.8273621,163.153814 64.6264479,163.224692 64.4206386,163.217718 L63.7816053,163.217718 Z" id="Shape" fill="#FFFFFF" fill-rule="nonzero"></path>
                    <path d="M69.2590333,163.217718 C69.0484821,163.225571 68.8424998,163.154818 68.6808603,163.019119 C68.534645,162.862464 68.4578068,162.653056 68.4678492,162.438599 L68.4678492,153.272497 C68.4584414,153.062692 68.5354837,152.858254 68.6808603,152.707254 C68.8368821,152.560445 69.0454428,152.483295 69.2590333,152.493379 L69.8980665,152.493379 C70.1070231,152.483932 70.3106349,152.561287 70.4610244,152.707254 C70.6024502,152.859806 70.6741318,153.064652 70.6588204,153.272497 L70.6588204,154.601582 C70.8699971,153.884821 71.3355297,153.27065 71.9673171,152.875299 C72.6422928,152.454962 73.4251825,152.242512 74.2191486,152.264226 C74.781209,152.260788 75.3388145,152.364468 75.8623769,152.569763 C76.3563115,152.767205 76.7986966,153.075519 77.1556585,153.471096 C77.5493136,153.910349 77.8403999,154.432255 78.0077029,154.99878 C78.2196463,155.696631 78.3223048,156.423311 78.3120044,157.152814 L78.3120044,162.423322 C78.3220468,162.637779 78.2452087,162.847187 78.0989933,163.003842 C77.9373539,163.139541 77.7313715,163.210295 77.5208204,163.202441 L76.8817871,163.202441 C76.6759779,163.209415 76.4750637,163.138537 76.3188293,163.003842 C76.1781293,162.84474 76.1068763,162.635616 76.1210333,162.423322 L76.1210333,157.16809 C76.1341576,156.606993 76.0465407,156.048109 75.8623769,155.518192 C75.7199452,155.11477 75.4602352,154.763536 75.1168381,154.509921 C74.7824968,154.289416 74.3909384,154.172534 73.9909224,154.173831 C73.6488255,154.183037 73.3101577,154.244863 72.9867273,154.357153 C72.0755417,154.646214 71.3466022,155.338702 71.0087672,156.236203 C70.7620871,156.852346 70.6430167,157.51249 70.6588204,158.176362 L70.6588204,162.423322 C70.6729774,162.635616 70.6017244,162.84474 70.4610244,163.003842 C70.30479,163.138537 70.1038758,163.209415 69.8980665,163.202441 L69.2590333,163.217718 Z" id="Path" fill="#FFFFFF" fill-rule="nonzero"></path>
                    <path d="M86.2542749,168.243797 C84.8095064,168.292316 83.3835566,167.903778 82.1614191,167.128588 C81.9844232,167.021904 81.8594068,166.846308 81.8161518,166.643632 C81.7728968,166.440956 81.8152757,166.229345 81.9331929,166.059209 L82.1005588,165.753672 C82.3287849,165.295367 82.6787317,165.203706 83.1503991,165.509243 C83.6215307,165.797217 84.1350363,166.008609 84.6719069,166.135593 C85.1689456,166.264711 85.6800175,166.33142 86.1934146,166.334192 C87.1169159,166.384968 88.0218534,166.060071 88.7039024,165.432859 C89.3617658,164.759772 89.7045762,163.838199 89.6472373,162.896904 L89.6472373,161.521989 C89.2301159,162.179027 88.6404213,162.707677 87.9431486,163.049672 C87.2800436,163.355884 86.5581146,163.512328 85.8282528,163.507977 C85.0914111,163.515527 84.3609861,163.369889 83.6829268,163.080226 C82.3831842,162.484016 81.3827341,161.380158 80.9137827,160.024859 C80.6682807,159.328335 80.5447356,158.594393 80.548532,157.855548 C80.5448573,157.126675 80.6684505,156.402788 80.9137827,155.716791 C81.1517557,155.054719 81.5190292,154.447037 81.9940532,153.929401 C82.4704954,153.428704 83.0456981,153.033273 83.6829268,152.768362 C84.3600049,152.473878 85.0903841,152.323049 85.8282528,152.325245 C86.5581146,152.320983 87.2800436,152.477427 87.9431486,152.783638 C88.6404213,153.125634 89.2301159,153.654284 89.6472373,154.311322 L89.6472373,153.364158 C89.6368878,153.163218 89.7147344,152.967811 89.8602483,152.829469 C90.0106378,152.683502 90.2142496,152.606147 90.4232062,152.615593 L91.0470244,152.615593 C91.260084,152.608879 91.4674026,152.68557 91.6251973,152.829469 C91.770574,152.980469 91.8476163,153.184907 91.8382084,153.394712 L91.8382084,163.171887 C91.8691072,164.134591 91.6319995,165.086872 91.1535299,165.921718 C90.6936811,166.691418 90.0228627,167.311925 89.2212151,167.709107 C88.2890236,168.122909 87.271605,168.306264 86.2542749,168.243797 L86.2542749,168.243797 Z M86.2542749,161.521989 C87.2105183,161.558112 88.1360754,161.179709 88.7951929,160.483164 C89.4599587,159.767133 89.8202393,158.818928 89.799388,157.840271 C89.8194887,156.866296 89.4590362,155.923122 88.7951929,155.212655 C88.1360754,154.516111 87.2105183,154.137707 86.2542749,154.173831 C85.6581979,154.159302 85.0693275,154.307118 84.5501863,154.601582 C84.0319841,154.905446 83.609993,155.350335 83.33298,155.884836 C82.7045246,157.117491 82.7045246,158.578328 83.33298,159.810983 C83.6134812,160.337999 84.0282648,160.780825 84.5349712,161.094237 C85.0364865,161.377524 85.6027756,161.524935 86.1781996,161.521989 L86.2542749,161.521989 Z" id="Shape" fill="#FFFFFF" fill-rule="nonzero"></path>
                    <path d="M206.438173,137.781785 C205.293325,137.799988 204.156052,137.592371 203.090856,137.170712 C201.177453,136.436106 199.659289,134.928409 198.90671,133.015412 C198.175878,131.118278 198.175878,129.015688 198.90671,127.118554 C199.274705,126.189432 199.822921,125.342999 200.519508,124.628429 C201.256693,123.902033 202.130893,123.330717 203.090856,122.947977 C204.158039,122.533357 205.293933,122.325992 206.438173,122.336904 C207.971692,122.308525 209.479671,122.733536 210.77447,123.559051 C210.956474,123.660506 211.087942,123.833745 211.13707,124.036858 C211.186198,124.239971 211.148511,124.454458 211.033126,124.628429 L210.83533,124.979797 C210.591889,125.407548 210.241942,125.483932 209.770275,125.224226 C209.26105,124.967562 208.725318,124.767768 208.172692,124.628429 C207.608213,124.466558 207.025129,124.379254 206.438173,124.368723 C205.609423,124.358211 204.786932,124.514028 204.018976,124.827028 C203.331629,125.101118 202.709514,125.517546 202.193166,126.049175 C201.688585,126.572844 201.299737,127.197525 201.052035,127.882395 C200.790693,128.580861 200.656692,129.320854 200.656443,130.066983 C200.658004,130.812993 200.791963,131.552754 201.052035,132.251571 C201.303642,132.930001 201.69214,133.548919 202.193166,134.069514 C202.712841,134.600901 203.333792,135.021744 204.018976,135.306938 C204.790136,135.607177 205.611101,135.757521 206.438173,135.749966 C207.024512,135.74511 207.607675,135.66293 208.172692,135.505537 C208.725972,135.361429 209.261738,135.156499 209.770275,134.894463 C209.936646,134.75668 210.157948,134.705654 210.367519,134.756757 C210.57709,134.807859 210.750432,134.955116 210.83533,135.154169 L211.033126,135.49026 C211.261353,135.918011 211.215707,136.254102 210.911406,136.483254 C209.585825,137.361213 208.025851,137.814056 206.438173,137.781785 L206.438173,137.781785 Z" id="Path" fill="#FFFFFF" fill-rule="nonzero"></path>
                    <path d="M214.350013,137.491525 C214.144431,137.497031 213.944028,137.426333 213.787055,137.292927 C213.634248,137.140438 213.556293,136.927987 213.574044,136.712407 L213.574044,122.795209 C213.556611,122.584195 213.634866,122.376538 213.787055,122.229966 C213.940844,122.091075 214.143498,122.019583 214.350013,122.031367 L214.989047,122.031367 C215.200483,122.017153 215.408761,122.088695 215.56722,122.229966 C215.701371,122.386835 215.771962,122.588564 215.765016,122.795209 L215.765016,128.905944 C215.972378,128.191597 216.432235,127.577778 217.058297,127.179661 C217.738704,126.75892 218.526553,126.546558 219.325344,126.568588 C219.882593,126.563696 220.43549,126.667461 220.953357,126.874124 C221.451999,127.070965 221.89947,127.379197 222.261854,127.775458 C222.65033,128.218414 222.940743,128.739115 223.113898,129.303141 C223.320213,130.00191 223.417726,130.728498 223.402984,131.457175 L223.402984,136.727684 C223.420735,136.943264 223.34278,137.155715 223.189973,137.308203 C223.033001,137.44161 222.832598,137.512307 222.627016,137.506802 L221.987982,137.506802 C221.77696,137.525752 221.568432,137.449775 221.418621,137.299356 C221.26881,137.148937 221.19314,136.939563 221.212013,136.727684 L221.212013,131.472452 C221.232648,130.910879 221.144813,130.350606 220.953357,129.822554 C220.816186,129.41634 220.555398,129.06365 220.207818,128.814282 C219.874256,128.592098 219.482179,128.475061 219.081902,128.478192 C218.740093,128.49013 218.401826,128.551883 218.077707,128.661514 C217.676178,128.798407 217.304363,129.010994 216.982222,129.287864 C216.592373,129.628429 216.289721,130.058052 216.099747,130.540565 C215.858674,131.15791 215.744801,131.817932 215.765016,132.480723 L215.765016,136.727684 C215.789687,136.940955 215.715901,137.153849 215.564695,137.305669 C215.413489,137.457488 215.201456,137.531574 214.989047,137.506802 L214.350013,137.491525 Z" id="Path" fill="#FFFFFF" fill-rule="nonzero"></path>
                    <path d="M231.695202,137.781785 C230.849405,137.792867 230.008773,137.647878 229.215144,137.354034 C228.491235,137.095593 227.828232,136.689935 227.267614,136.162441 C226.747161,135.657352 226.337725,135.04851 226.065623,134.375051 C225.777131,133.694239 225.632082,132.96085 225.639601,132.221017 C225.642631,131.477262 225.787234,130.740945 226.065623,130.051706 C226.341281,129.375669 226.750123,128.762515 227.267614,128.24904 C227.798737,127.724885 228.430209,127.314321 229.123854,127.042169 C229.844446,126.750559 230.613982,126.600175 231.3909,126.599141 C232.051851,126.599975 232.70873,126.703029 233.33843,126.904678 C233.952945,127.106769 234.521697,127.42864 235.012089,127.851842 C235.523848,128.269863 235.943524,128.790085 236.24451,129.379525 C236.577193,130.062928 236.773601,130.805042 236.822683,131.564113 C236.865617,131.770874 236.809267,131.985873 236.670532,132.144633 C236.509838,132.293822 236.295651,132.371022 236.077144,132.358508 L227.815357,132.358508 C227.769093,133.304625 228.162501,134.218779 228.880412,134.833356 C229.67433,135.491679 230.681468,135.834191 231.710417,135.795797 C232.748771,135.805267 233.764359,135.490278 234.616497,134.894463 C234.948004,134.637356 235.421649,134.684243 235.696767,135.001401 L235.848918,135.184723 C236.006249,135.34148 236.089308,135.558308 236.077144,135.78052 C236.02965,136.024303 235.8942,136.241902 235.696767,136.391593 C234.571637,137.320967 233.151786,137.81424 231.695202,137.781785 Z M228.013153,130.784994 L234.662142,130.784994 C234.530911,130.291776 234.285941,129.836479 233.947033,129.45591 C233.634582,129.12574 233.248771,128.874468 232.821118,128.722621 C232.37921,128.553712 231.909332,128.470761 231.436545,128.478192 C230.917725,128.469284 230.401781,128.557351 229.915038,128.737898 C229.468418,128.901996 229.063242,129.162778 228.728262,129.50174 C228.404262,129.875369 228.160786,130.312284 228.013153,130.784994 Z" id="Shape" fill="#FFFFFF" fill-rule="nonzero"></path>
                    <path d="M239.941774,137.491525 C239.731223,137.499379 239.52524,137.428626 239.363601,137.292927 C239.217386,137.136271 239.140547,136.926864 239.15059,136.712407 L239.15059,127.546305 C239.141182,127.3365 239.218224,127.132062 239.363601,126.981062 C239.519623,126.834253 239.728183,126.757103 239.941774,126.767186 L240.580807,126.767186 C240.789764,126.75774 240.993375,126.835095 241.143765,126.981062 C241.285191,127.133614 241.356872,127.338459 241.341561,127.546305 L241.341561,128.87539 C241.464434,128.47881 241.654912,128.106646 241.904519,127.775458 C242.215455,127.383034 242.61781,127.073485 243.07608,126.874124 C243.590658,126.653112 244.144413,126.538794 244.704093,126.538034 C245.155192,126.537183 245.603035,126.614711 246.027805,126.767186 C246.454703,126.917382 246.847722,127.151035 247.184151,127.454644 C247.566282,127.817432 247.871601,128.253888 248.08184,128.737898 C248.71364,127.317916 250.157094,126.441021 251.703029,126.538034 C252.848758,126.46548 253.966213,126.914276 254.746044,127.760181 C255.536941,128.815649 255.915784,130.125247 255.8111,131.441898 L255.8111,136.712407 C255.825257,136.924701 255.754004,137.133825 255.613304,137.292927 C255.457069,137.427622 255.256155,137.4985 255.050346,137.491525 L254.411313,137.491525 C254.201183,137.496573 253.996158,137.426149 253.83314,137.292927 C253.686924,137.136271 253.610086,136.926864 253.620129,136.712407 L253.620129,131.441898 C253.63956,130.885384 253.551732,130.330341 253.361472,129.807277 C253.223991,129.405387 252.969582,129.054155 252.631149,128.799006 C252.303512,128.576294 251.916088,128.459062 251.520448,128.462915 C251.042488,128.461383 250.573562,128.593639 250.166306,128.844836 C249.699812,129.136481 249.325236,129.554955 249.086035,130.051706 C248.758353,130.727102 248.591665,131.469783 248.599153,132.221017 L248.599153,136.712407 C248.623824,136.925678 248.550038,137.138572 248.398833,137.290392 C248.247627,137.442211 248.035593,137.516297 247.823184,137.491525 L247.184151,137.491525 C246.978342,137.4985 246.777427,137.427622 246.621193,137.292927 C246.468386,137.140438 246.390431,136.927987 246.408182,136.712407 L246.408182,131.441898 C246.42148,130.885779 246.333832,130.331874 246.149525,129.807277 C246.012354,129.401063 245.751567,129.048373 245.403987,128.799006 C245.076351,128.576294 244.688926,128.459062 244.293286,128.462915 C243.585338,128.484859 242.91165,128.773974 242.406616,129.272588 C242.070902,129.631182 241.816554,130.058553 241.661078,130.525288 C241.451279,131.149772 241.353402,131.806655 241.371991,132.465446 L241.371991,136.712407 C241.386148,136.924701 241.314895,137.133825 241.174195,137.292927 C241.017961,137.427622 240.817047,137.4985 240.611237,137.491525 L239.941774,137.491525 Z" id="Path" fill="#FFFFFF" fill-rule="nonzero"></path>
                    <path d="M259.995246,124.888136 C259.154941,124.888136 258.473738,124.204168 258.473738,123.360452 C258.465171,122.965182 258.619288,122.583852 258.899761,122.30635 C259.164351,122.015045 259.541849,121.853399 259.934386,121.863322 C260.774691,121.863322 261.455905,122.547289 261.455905,123.391006 C261.457496,123.782236 261.291173,124.1552 260.999441,124.414554 C260.741809,124.70165 260.379807,124.872372 259.995246,124.888136 Z M259.70616,137.552633 C259.495609,137.560487 259.289626,137.489733 259.127987,137.354034 C258.981771,137.197379 258.904933,136.987972 258.914976,136.773514 L258.914976,127.607412 C258.905568,127.397608 258.98261,127.193169 259.127987,127.042169 C259.284008,126.895361 259.492569,126.818211 259.70616,126.828294 L260.345193,126.828294 C260.554149,126.818848 260.757761,126.896203 260.908151,127.042169 C261.049577,127.194722 261.121258,127.399567 261.105947,127.607412 L261.105947,136.773514 C261.120104,136.985808 261.048851,137.194932 260.908151,137.354034 C260.751916,137.48873 260.551002,137.559608 260.345193,137.552633 L259.70616,137.552633 Z" id="Shape" fill="#FFFFFF" fill-rule="nonzero"></path>
                    <path d="M269.62639,137.781785 C268.781981,137.791769 267.942435,137.652139 267.146333,137.369311 C266.434501,137.118953 265.781836,136.723684 265.229233,136.208271 C264.715695,135.712379 264.311407,135.113894 264.042457,134.451435 C263.767587,133.772336 263.628017,133.045706 263.63165,132.312678 C263.621794,131.555739 263.756065,130.803879 264.027242,130.097537 C264.298736,129.417547 264.69629,128.795468 265.198803,128.264316 C265.740783,127.728021 266.388664,127.311694 267.100687,127.042169 C267.908867,126.741939 268.764699,126.59182 269.62639,126.599141 C270.759271,126.598601 271.872126,126.899026 272.851987,127.469921 C273.039788,127.575194 273.171822,127.758234 273.212875,127.970223 C273.253929,128.182212 273.199826,128.401592 273.064998,128.569853 L272.897632,128.783729 C272.782381,128.916051 272.642927,129.024955 272.486825,129.104542 C272.253816,129.16789 272.00498,129.129026 271.802146,128.997605 C271.159035,128.678696 270.450124,128.51645 269.732896,128.524023 C269.213504,128.524421 268.698318,128.617531 268.211388,128.799006 C267.748483,128.959334 267.323678,129.214212 266.963752,129.547571 C266.603619,129.871188 266.322492,130.27368 266.142137,130.723887 C265.93335,131.205046 265.834569,131.727055 265.853051,132.251571 C265.853959,132.911219 266.027079,133.559104 266.355149,134.130621 C266.680736,134.71742 267.180765,135.187432 267.785366,135.474983 C268.402067,135.774883 269.078102,135.931525 269.763326,135.933288 C270.480555,135.940861 271.189466,135.778615 271.832576,135.459706 C272.024511,135.359661 272.241081,135.317232 272.456395,135.337492 C272.653737,135.377838 272.824988,135.499864 272.928062,135.673582 L273.064998,135.887458 C273.181612,136.027447 273.231617,136.211542 273.201933,136.391593 C273.186826,136.563653 273.104834,136.722815 272.973707,136.834621 C272.839552,136.958421 272.691472,137.066087 272.53247,137.155435 C271.632609,137.609015 270.632376,137.824597 269.62639,137.781785 L269.62639,137.781785 Z" id="Path" fill="#FFFFFF" fill-rule="nonzero"></path>
                    <path d="M279.957428,137.781785 C278.506803,137.811685 277.114218,137.210053 276.138443,136.131887 C275.663419,135.614251 275.296146,135.006569 275.058173,134.344497 C274.551076,132.948354 274.551076,131.417295 275.058173,130.021153 C275.29972,129.35623 275.666482,128.744207 276.138443,128.218486 C277.128778,127.164626 278.514536,126.57703 279.957428,126.599141 C280.68729,126.59479 281.409219,126.751235 282.072324,127.057446 C282.765353,127.399765 283.350048,127.928655 283.761197,128.58513 L283.761197,127.66852 C283.751789,127.458715 283.828832,127.254277 283.974208,127.103277 C284.109424,126.932781 284.306341,126.822938 284.521951,126.79774 L285.160984,126.79774 C285.370651,126.784115 285.576005,126.861814 285.724571,127.010984 C285.873138,127.160154 285.950524,127.366341 285.936953,127.576859 L285.936953,136.74296 C285.946996,136.957418 285.870158,137.166825 285.723942,137.32348 C285.567708,137.458176 285.366794,137.529054 285.160984,137.522079 L284.521951,137.522079 C284.311821,137.527127 284.106797,137.456702 283.943778,137.32348 C283.797563,137.166825 283.720725,136.957418 283.730767,136.74296 L283.730767,135.82635 C283.319618,136.482825 282.734923,137.011716 282.041894,137.354034 C281.385771,137.645397 280.674795,137.791296 279.957428,137.781785 L279.957428,137.781785 Z M280.246514,135.856904 C281.207638,135.895471 282.138836,135.517028 282.802647,134.818079 C283.467413,134.102049 283.827694,133.153844 283.806843,132.175186 C283.826943,131.201211 283.466491,130.258037 282.802647,129.547571 C281.665664,128.436084 279.943888,128.189117 278.542426,128.936497 C278.032368,129.245763 277.616609,129.68963 277.340435,130.219751 C276.711979,131.452406 276.711979,132.913244 277.340435,134.145898 C277.877664,135.251706 279.023072,135.926085 280.246514,135.856904 L280.246514,135.856904 Z" id="Shape" fill="#FFFFFF" fill-rule="nonzero"></path>
                    <path d="M290.060239,137.491525 C289.849688,137.499379 289.643706,137.428626 289.482067,137.292927 C289.335851,137.136271 289.259013,136.926864 289.269055,136.712407 L289.269055,122.795209 C289.259648,122.585404 289.33669,122.380966 289.482067,122.229966 C289.640525,122.088695 289.848803,122.017153 290.060239,122.031367 L290.699273,122.031367 C290.907655,122.006481 291.115895,122.078918 291.264281,122.227907 C291.412668,122.376896 291.484812,122.585981 291.460027,122.795209 L291.460027,136.712407 C291.474184,136.924701 291.402931,137.133825 291.262231,137.292927 C291.105996,137.427622 290.905082,137.4985 290.699273,137.491525 L290.060239,137.491525 Z" id="Path" fill="#FFFFFF" fill-rule="nonzero"></path>
                    <path d="M207.077206,163.217718 C206.672915,163.249371 206.308099,162.974649 206.225162,162.57609 L202.0258,149.147751 C201.945795,148.929081 201.974033,148.685251 202.101876,148.490847 C202.240593,148.315861 202.458449,148.22376 202.680049,148.246418 L203.364727,148.246418 C203.76888,148.226389 204.131317,148.494532 204.231987,148.888045 L207.503228,159.413785 L210.546244,149.376904 C210.629181,148.978346 210.993997,148.703623 211.398288,148.735277 L211.885171,148.735277 C212.085179,148.734628 212.280958,148.793069 212.448129,148.903322 C212.600699,149.024347 212.712295,149.189753 212.767645,149.376904 L215.810661,159.413785 L219.081902,148.888045 C219.137253,148.700894 219.248849,148.535489 219.401419,148.414463 C219.567795,148.302505 219.764106,148.243905 219.964377,148.246418 L220.618625,148.246418 C220.848205,148.221793 221.073714,148.320491 221.212013,148.506124 C221.3294,148.703762 221.3294,148.950114 221.212013,149.147751 L217.043082,162.57609 C216.942413,162.969604 216.579976,163.237747 216.175823,163.217718 L215.59765,163.217718 C215.397642,163.218366 215.201862,163.159925 215.034692,163.049672 C214.882122,162.928647 214.770526,162.763241 214.715175,162.57609 L211.550439,152.172565 L208.355273,162.57609 C208.266464,162.970865 207.905546,163.242652 207.503228,163.217718 L207.077206,163.217718 Z" id="Path" fill="#FFFFFF" fill-rule="nonzero"></path>
                    <path d="M227.328475,163.462147 C225.87785,163.492047 224.485265,162.890415 223.50949,161.812249 C223.039786,161.290613 222.673182,160.684038 222.42922,160.024859 C221.922122,158.628716 221.922122,157.097657 222.42922,155.701514 C222.676648,155.039429 223.042781,154.428456 223.50949,153.898847 C223.987581,153.414782 224.556407,153.030564 225.183149,152.768362 C225.855443,152.477339 226.5812,152.331598 227.313259,152.34061 C228.043328,152.334248 228.765689,152.490786 229.428155,152.798915 C230.125428,153.14091 230.715123,153.669561 231.132244,154.326599 L231.132244,153.409989 C231.11481,153.198975 231.193066,152.991317 231.345255,152.844746 C231.496604,152.700306 231.699544,152.623206 231.908213,152.63087 L232.547246,152.63087 C232.760837,152.620787 232.969397,152.697937 233.125419,152.844746 C233.25957,153.001614 233.330162,153.203344 233.323215,153.409989 L233.323215,162.57609 C233.347886,162.789362 233.274101,163.002256 233.122895,163.154076 C232.971689,163.305895 232.759655,163.37998 232.547246,163.355209 L231.908213,163.355209 C231.702631,163.360714 231.502228,163.290017 231.345255,163.15661 C231.192448,163.004122 231.114493,162.791671 231.132244,162.57609 L231.132244,161.65948 C230.715123,162.316519 230.125428,162.845169 229.428155,163.187164 C228.756362,163.430449 228.039943,163.524274 227.328475,163.462147 Z M227.632776,161.537266 C228.589371,161.575396 229.515722,161.196668 230.173694,160.498441 C230.844127,159.78597 231.20533,158.83534 231.177889,157.855548 C231.206325,156.88013 230.844694,155.933873 230.173694,155.227932 C229.041602,154.119033 227.325477,153.871995 225.928687,154.616859 C225.410485,154.920723 224.988494,155.365612 224.711481,155.900113 C224.083026,157.132768 224.083026,158.593605 224.711481,159.82626 C224.991982,160.353276 225.406766,160.796102 225.913472,161.109514 C226.438861,161.400631 227.033065,161.543186 227.632776,161.521989 L227.632776,161.537266 Z" id="Shape" fill="#FFFFFF" fill-rule="nonzero"></path>
                    <path d="M239.728763,163.462147 C238.930669,163.477552 238.141245,163.29383 237.431286,162.927458 C236.777523,162.590464 236.24541,162.056191 235.909778,161.399774 C235.797073,161.217295 235.797073,160.986456 235.909778,160.803977 C236.041609,160.61867 236.236456,160.488245 236.457521,160.437333 L236.898758,160.315119 C237.279528,160.243645 237.663765,160.421234 237.857308,160.758147 C238.083092,161.040534 238.376137,161.26121 238.709353,161.399774 C239.061587,161.565192 239.446435,161.64874 239.835268,161.644203 C240.2958,161.657975 240.747045,161.512343 241.113335,161.231729 C241.438056,160.999443 241.630797,160.62378 241.630647,160.223458 C241.630647,159.658215 241.18941,159.230463 240.306936,158.924927 L238.876718,158.436068 C238.329298,158.271901 237.814465,158.01344 237.355211,157.672226 C236.974924,157.407793 236.674796,157.043005 236.487951,156.618124 C236.330847,156.267298 236.247952,155.887557 236.24451,155.502915 C236.219292,154.626372 236.588035,153.784918 237.248705,153.21139 C237.956473,152.585111 238.877415,152.256822 239.820053,152.29478 C240.481757,152.286696 241.136849,152.427643 241.737153,152.707254 C242.314133,153.006761 242.786498,153.475715 243.091295,154.051616 C243.202729,154.245409 243.202729,154.484173 243.091295,154.677966 C242.982191,154.875943 242.783049,155.007339 242.558767,155.029333 L242.163175,155.120994 C242.009332,155.16728 241.845351,155.16728 241.691508,155.120994 C241.473536,155.023237 241.288534,154.86402 241.15898,154.662689 C240.832861,154.292485 240.357431,154.090309 239.865698,154.112723 C239.459486,154.085708 239.059434,154.223268 238.754998,154.494644 C238.479707,154.730995 238.323553,155.078169 238.328976,155.441808 C238.328976,156.001959 238.739783,156.414433 239.561397,156.679232 L241.082905,157.198644 C241.863649,157.391389 242.56225,157.830457 243.07608,158.451345 C243.464941,158.971839 243.678159,159.603385 243.684683,160.254011 C243.680288,160.635508 243.608155,161.013159 243.471672,161.36922 C243.327585,161.764536 243.093065,162.12036 242.786993,162.408045 C242.425735,162.747008 242.001887,163.011691 241.539357,163.187164 C240.959512,163.396707 240.34439,163.490128 239.728763,163.462147 L239.728763,163.462147 Z" id="Path" fill="#FFFFFF" fill-rule="nonzero"></path>
                    <path d="M246.803774,163.217718 C246.593223,163.225571 246.38724,163.154818 246.225601,163.019119 C246.072794,162.86663 245.994839,162.654179 246.01259,162.438599 L246.01259,148.521401 C245.995156,148.310387 246.073412,148.10273 246.225601,147.956158 C246.38406,147.814887 246.592338,147.743345 246.803774,147.757559 L247.442807,147.757559 C247.649322,147.745775 247.851976,147.817267 248.005765,147.956158 C248.139916,148.113027 248.210508,148.314756 248.203561,148.521401 L248.203561,154.632136 C248.410924,153.917789 248.87078,153.30397 249.496843,152.905853 C250.177249,152.485112 250.965098,152.27275 251.763889,152.29478 C252.32595,152.291342 252.883555,152.395021 253.407118,152.600316 C253.899066,152.801455 254.340683,153.109233 254.700399,153.50165 C255.088875,153.944606 255.379289,154.465307 255.552443,155.029333 C255.764387,155.727184 255.867045,156.453864 255.856745,157.183367 L255.856745,162.453876 C255.866787,162.668333 255.789949,162.87774 255.643734,163.034395 C255.480715,163.167617 255.275691,163.238042 255.065561,163.232994 L254.426528,163.232994 C254.220718,163.239969 254.019804,163.169091 253.86357,163.034395 C253.717355,162.87774 253.640516,162.668333 253.650559,162.453876 L253.650559,157.198644 C253.667915,156.63851 253.585473,156.079768 253.407118,155.548746 C253.259155,155.148309 253.000529,154.798542 252.661579,154.540475 C252.321775,154.319565 251.925258,154.202781 251.520448,154.204384 C251.183474,154.215135 250.850052,154.27694 250.531468,154.387706 C249.619125,154.680678 248.886915,155.370963 248.538293,156.266757 C248.297219,156.884102 248.183347,157.544124 248.203561,158.206915 L248.203561,162.453876 C248.211383,162.665281 248.140915,162.8721 248.005765,163.034395 C247.848792,163.167802 247.648389,163.238499 247.442807,163.232994 L246.803774,163.217718 Z" id="Path" fill="#FFFFFF" fill-rule="nonzero"></path>
                    <path d="M260.025676,150.55322 C259.632005,150.561823 259.252216,150.40708 258.975836,150.125469 C258.711112,149.849936 258.559071,149.484649 258.549814,149.101921 C258.551374,148.708589 258.703972,148.331017 258.975836,148.047819 C259.2463,147.755792 259.628642,147.594446 260.025676,147.604791 C260.430098,147.602443 260.81881,147.761857 261.105947,148.047819 C261.386419,148.325321 261.540537,148.706651 261.531969,149.101921 C261.539431,149.491157 261.378476,149.864528 261.090732,150.125469 C260.804891,150.40211 260.42268,150.555615 260.025676,150.55322 Z M259.721375,163.217718 C259.515565,163.224692 259.314651,163.153814 259.158417,163.019119 C259.00561,162.86663 258.927655,162.654179 258.945406,162.438599 L258.945406,153.272497 C258.927972,153.061484 259.006228,152.853826 259.158417,152.707254 C259.308806,152.561287 259.512418,152.483932 259.721375,152.493379 L260.360408,152.493379 C260.569956,152.480104 260.775058,152.558025 260.923366,152.707254 C261.068743,152.858254 261.145785,153.062692 261.136377,153.272497 L261.136377,162.438599 C261.15525,162.650478 261.079581,162.859852 260.92977,163.010271 C260.779959,163.160691 260.57143,163.236667 260.360408,163.217718 L259.721375,163.217718 Z" id="Shape" fill="#FFFFFF" fill-rule="nonzero"></path>
                    <path d="M265.198803,163.217718 C264.988673,163.222765 264.783648,163.152341 264.62063,163.019119 C264.474414,162.862464 264.397576,162.653056 264.407619,162.438599 L264.407619,153.272497 C264.398211,153.062692 264.475253,152.858254 264.62063,152.707254 C264.778424,152.563355 264.985743,152.486664 265.198803,152.493379 L265.837836,152.493379 C266.047502,152.479753 266.252856,152.557453 266.401423,152.706623 C266.54999,152.855792 266.627375,153.06198 266.613805,153.272497 L266.613805,154.601582 C266.813253,153.883285 267.275049,153.266876 267.907086,152.875299 C268.582062,152.454962 269.364952,152.242512 270.158918,152.264226 C270.720978,152.260788 271.278584,152.364468 271.802146,152.569763 C272.296081,152.767205 272.738466,153.075519 273.095428,153.471096 C273.488607,153.913197 273.784167,154.433827 273.962687,154.99878 C274.169002,155.697548 274.266516,156.424136 274.251774,157.152814 L274.251774,162.423322 C274.261816,162.637779 274.184978,162.847187 274.038763,163.003842 C273.877123,163.139541 273.671141,163.210295 273.46059,163.202441 L272.821557,163.202441 C272.615747,163.209415 272.414833,163.138537 272.258599,163.003842 C272.117899,162.84474 272.046646,162.635616 272.060803,162.423322 L272.060803,157.16809 C272.073927,156.606993 271.98631,156.048109 271.802146,155.518192 C271.664975,155.111978 271.404188,154.759288 271.056608,154.509921 C270.723046,154.287736 270.330968,154.1707 269.930692,154.173831 C269.588595,154.183037 269.249927,154.244863 268.926497,154.357153 C268.521633,154.496886 268.145326,154.709095 267.815796,154.983503 C267.435707,155.329518 267.139118,155.757923 266.948537,156.236203 C266.707463,156.853548 266.593591,157.513571 266.613805,158.176362 L266.613805,162.423322 C266.623847,162.637779 266.547009,162.847187 266.400794,163.003842 C266.244559,163.138537 266.043645,163.209415 265.837836,163.202441 L265.198803,163.217718 Z" id="Path" fill="#FFFFFF" fill-rule="nonzero"></path>
                    <path d="M282.194044,168.243797 C280.764919,168.28128 279.356712,167.893248 278.146834,167.128588 C277.969838,167.021904 277.844821,166.846308 277.801566,166.643632 C277.758311,166.440956 277.80069,166.229345 277.918608,166.059209 L278.085973,165.753672 C278.3142,165.295367 278.664146,165.203706 279.135814,165.509243 C279.608279,165.794559 280.12136,166.005776 280.657322,166.135593 C281.15436,166.264711 281.665432,166.33142 282.178829,166.334192 C283.102331,166.384968 284.007268,166.060071 284.689317,165.432859 C285.34718,164.759772 285.689991,163.838199 285.632652,162.896904 L285.632652,161.521989 C285.217304,162.174904 284.633718,162.702791 283.943778,163.049672 C283.275391,163.356179 282.548452,163.512584 281.813667,163.507977 C281.081608,163.51699 280.355851,163.371249 279.683557,163.080226 C279.037838,162.79489 278.457711,162.378831 277.979468,161.858079 C277.504444,161.340443 277.13717,160.732761 276.899197,160.070689 C276.653695,159.374166 276.53015,158.640223 276.533947,157.901379 C276.530272,157.172506 276.653865,156.448619 276.899197,155.762621 C277.13717,155.10055 277.504444,154.492868 277.979468,153.975232 C278.45434,153.454454 279.035617,153.042782 279.683557,152.768362 C280.354856,152.47253 281.080565,152.321594 281.813667,152.325234 C282.548452,152.320727 283.275391,152.477132 283.943778,152.783638 C284.633718,153.130519 285.217304,153.658407 285.632652,154.311322 L285.632652,153.364158 C285.622302,153.163218 285.700149,152.967811 285.845663,152.829469 C286.001685,152.68266 286.210245,152.60551 286.423836,152.615593 L287.032439,152.615593 C287.246029,152.60551 287.45459,152.68266 287.610612,152.829469 C287.755989,152.980469 287.833031,153.184907 287.823623,153.394712 L287.823623,163.171887 C287.854522,164.134591 287.617414,165.086872 287.138945,165.921718 C286.679096,166.691418 286.008277,167.311925 285.20663,167.709107 C284.260542,168.130206 283.226578,168.313719 282.194044,168.243797 Z M282.117969,161.521989 C283.074564,161.560119 284.000915,161.181392 284.658887,160.483164 C286.014949,158.990135 286.014949,156.705685 284.658887,155.212655 C283.526795,154.103756 281.81067,153.856718 280.41388,154.601582 C279.895678,154.905446 279.473687,155.350335 279.196674,155.884836 C278.568219,157.117491 278.568219,158.578328 279.196674,159.810983 C279.477175,160.337999 279.891959,160.780825 280.398665,161.094237 C280.922552,161.390672 281.516845,161.538528 282.117969,161.521989 L282.117969,161.521989 Z" id="Shape" fill="#FFFFFF" fill-rule="nonzero"></path>
                    <polygon id="Path" fill="#FFFFFF" fill-rule="nonzero" points="140.587317 152.936407 140.587317 137.491525 150.887925 145.129944"></polygon>
                    <ellipse id="Oval" fill="#C8C2C2" fill-rule="nonzero" cx="249.299047" cy="46.3957514" rx="4.74710421" ry="4.76637288"></ellipse>
                    <path d="M287.656281,4.09419209 L287.656281,51.9412429 C287.660315,53.2673835 287.137433,54.5403834 286.203496,55.4781108 C285.26956,56.4158382 284.001706,56.9408426 282.680927,56.9367919 L206.925055,56.9367919 C204.189147,56.9199667 201.980155,54.6883074 201.980155,51.9412429 L201.980155,4.09419209" id="Path" stroke="#FFFFFF" stroke-width="1.63"></path>
                    <path d="M201.980155,18.2099887 C210.637534,18.2099887 210.637534,23.1902373 219.310129,23.1902373 C227.982723,23.1902373 227.967508,18.2099887 236.624887,18.2099887 C245.282266,18.2099887 245.282266,23.1902373 253.939645,23.1902373 C262.597024,23.1902373 262.612239,18.2099887 271.269619,18.2099887 C279.926998,18.2099887 279.942213,23.1902373 288.599592,23.1902373" id="Path" stroke="#FFFFFF" stroke-width="1.63"></path>
                    <polyline id="Path" stroke="#FFFFFF" stroke-width="1.63" points="0.0608603104 29.0412655 10.7266297 38.0240452 21.3923991 29.0412655 32.0733836 38.0240452 42.739153 29.0412655 53.4049224 38.0240452 64.0859069 29.0412655 74.7516763 38.0240452 85.4174457 29.0412655 96.0984302 38.0240452 106.779415 29.0412655"></polyline>
                    <polyline id="Path" stroke="#FFFFFF" stroke-width="1.63" points="0.0608603104 37.5046328 10.7266297 46.4874124 21.3923991 37.5046328 32.0733836 46.4874124 42.739153 37.5046328 53.4049224 46.4874124 64.0859069 37.5046328 74.7516763 46.4874124 85.4174457 37.5046328 96.0984302 46.4874124 106.779415 37.5046328"></polyline>
                    <ellipse id="Oval" fill="#C8C2C2" fill-rule="nonzero" opacity="0.4" cx="232.897193" cy="41.6293785" rx="5.9795255" ry="6.00379661"></ellipse>
                    <ellipse id="Oval" fill="#BFC723" fill-rule="nonzero" cx="263.251273" cy="19.7223955" rx="5.40135255" ry="5.42327684"></ellipse>
                    <ellipse id="Oval" fill="#BFC723" fill-rule="nonzero" cx="75.2081286" cy="63.2002712" rx="3.75812417" ry="3.77337853"></ellipse>
                    <ellipse id="Oval" fill="#C8C2C2" fill-rule="nonzero" cx="32.2255344" cy="11.9159322" rx="4.32108204" ry="4.33862147"></ellipse>
                    <ellipse id="Oval" fill="#C8C2C2" fill-rule="nonzero" opacity="0.4" cx="46.6798581" cy="18.5613559" rx="5.9795255" ry="6.00379661"></ellipse>
                    <ellipse id="Oval" fill="#C8C2C2" fill-rule="nonzero" cx="79.7726519" cy="6.95096045" rx="5.9795255" ry="6.00379661"></ellipse>
                </g>
            </g>
        </g>
    </g>
</svg>