<svg xmlns="http://www.w3.org/2000/svg" xmlns:xlink="http://www.w3.org/1999/xlink" viewBox="0 0 660 380"><defs><style>.cls-1,.cls-5{fill:none;}.cls-2{clip-path:url(#clip-path);}.cls-3{fill:#fff;}.cls-4,.cls-6{fill:#c8c2c2;}.cls-5{stroke:#fff;stroke-miterlimit:10;stroke-width:1.63px;}.cls-6{opacity:0.4;}.cls-7{fill:#bfc723;}.cls-8{clip-path:url(#clip-path-2);}</style><clipPath id="clip-path"><rect class="cls-1" x="-1720.66" y="-1578.78" width="757.5" height="1162.25"/></clipPath><clipPath id="clip-path-2"><rect class="cls-1" x="-1680.38" y="378.41" width="750" height="1150.75"/></clipPath><image id="image" width="1806" height="1309" xlink:href="../../Dropbox/前後&apos;s shared workspace/PROJECTS/202002_SAYA/攝影/20200505_南亞紗廠攝影30張final/jpg/20200401-196.jpg"/></defs><title>m_fig2</title><g id="圖層_2" data-name="圖層 2"><g class="cls-2"><use transform="translate(-1953.73 -1619.67) scale(1.4)" xlink:href="#image"/></g><circle class="cls-3" cx="480.85" cy="148.8" r="6.82"/><circle class="cls-3" cx="457.28" cy="141.98" r="8.6"/><circle class="cls-3" cx="168.88" cy="99.43" r="6.21"/><circle class="cls-3" cx="189.66" cy="108.95" r="8.6"/><circle class="cls-3" cx="237.21" cy="92.34" r="8.6"/><path class="cls-3" d="M141.08,231.87a7,7,0,0,1,5.44,2.17,7.67,7.67,0,0,1,2,5.35,6.93,6.93,0,0,1-7.42,7.26h-4.9v6.08a1.36,1.36,0,0,1-1.54,1.54h-2a1.38,1.38,0,0,1-1.57-1.54V233.4a1.37,1.37,0,0,1,1.57-1.53Zm-.67,10.75a2.77,2.77,0,0,0,2.14-.91,3.29,3.29,0,0,0,.83-2.29,3.4,3.4,0,0,0-.83-2.34,2.74,2.74,0,0,0-2.14-.92h-4.23v6.46Z"/><path class="cls-3" d="M152.85,254.27a1.36,1.36,0,0,1-1.53-1.54V232.67a1.36,1.36,0,0,1,1.53-1.54h1.89a1.36,1.36,0,0,1,1.54,1.54v7.77q1.25-3,5-3a5.21,5.21,0,0,1,4.56,2.06,8.94,8.94,0,0,1,1.46,5.27v7.93a1.38,1.38,0,0,1-1.57,1.54h-1.86a1.36,1.36,0,0,1-1.53-1.54v-7.58a4.63,4.63,0,0,0-.68-2.69,2.2,2.2,0,0,0-1.92-1,3.17,3.17,0,0,0-2.43,1.12,4.68,4.68,0,0,0-1,3.26v6.85a1.37,1.37,0,0,1-1.54,1.54Z"/><path class="cls-3" d="M174.13,261.44a1.36,1.36,0,0,1-1.2-.5,1.3,1.3,0,0,1,0-1.3l2.69-6.49-6.08-13.51a1.17,1.17,0,0,1,1.18-1.82h2.18a1.71,1.71,0,0,1,1.79,1.25l3.36,8.93,3.39-8.93a1.74,1.74,0,0,1,1.79-1.25h2.08a1.3,1.3,0,0,1,1.19.51,1.43,1.43,0,0,1,0,1.31l-9,20.61a1.83,1.83,0,0,1-1.8,1.19Z"/><path class="cls-3" d="M194.42,254.62q-4.74,0-6.37-3.3a1.34,1.34,0,0,1,0-1.23,1.61,1.61,0,0,1,1.06-.69l1-.22a.78.78,0,0,1,.73,0,2.6,2.6,0,0,1,.58.31,7,7,0,0,1,.61.57,3.15,3.15,0,0,0,2.46,1,2.62,2.62,0,0,0,1.52-.4,1.19,1.19,0,0,0,.6-1,1.05,1.05,0,0,0-.36-.83,3.71,3.71,0,0,0-1.18-.61l-2-.7q-4.63-1.5-4.64-4.77a4.64,4.64,0,0,1,1.72-3.74,6.58,6.58,0,0,1,4.4-1.44,5.86,5.86,0,0,1,5.24,2.49,1.26,1.26,0,0,1,.18,1.27,1.5,1.5,0,0,1-1.07.75l-.9.22a1.91,1.91,0,0,1-1.85-.6,2.16,2.16,0,0,0-1.6-.61,1.72,1.72,0,0,0-1.2.4,1.27,1.27,0,0,0-.47,1c0,.55.5,1,1.51,1.34l2,.77q4.57,1.5,4.68,5a4.4,4.4,0,0,1-1.91,3.81A8,8,0,0,1,194.42,254.62Z"/><path class="cls-3" d="M208.64,235.13a3.51,3.51,0,0,1-4.31,0,2.34,2.34,0,0,1-.82-1.82,2.42,2.42,0,0,1,.78-1.87,3.15,3.15,0,0,1,2.2-.72,3.08,3.08,0,0,1,2.17.73,2.43,2.43,0,0,1,.8,1.86A2.34,2.34,0,0,1,208.64,235.13Zm-3.08,19.14a1.36,1.36,0,0,1-1.54-1.54V239.36a1.36,1.36,0,0,1,1.54-1.54h1.85a1.37,1.37,0,0,1,1.57,1.54v13.37a1.38,1.38,0,0,1-1.57,1.54Z"/><path class="cls-3" d="M221.43,254.62a9.68,9.68,0,0,1-6.85-2.43,7.91,7.91,0,0,1-2.62-6.05,8.25,8.25,0,0,1,2.6-6.18,9.54,9.54,0,0,1,6.87-2.49,10.21,10.21,0,0,1,5.21,1.37c.88.56,1,1.28.29,2.18l-.51.64a1.65,1.65,0,0,1-2.17.38,5.78,5.78,0,0,0-2.53-.57,4.78,4.78,0,0,0-3.44,1.28,4.67,4.67,0,0,0,0,6.59,4.82,4.82,0,0,0,3.44,1.28,5.66,5.66,0,0,0,2.53-.58,1.6,1.6,0,0,1,2.17.39l.51.64a1.37,1.37,0,0,1,.34,1.23,1.65,1.65,0,0,1-.91,1.07A9.87,9.87,0,0,1,221.43,254.62Z"/><path class="cls-3" d="M237.08,254.62a7.37,7.37,0,0,1-5.67-2.45,9.48,9.48,0,0,1,0-12.24,7.34,7.34,0,0,1,5.67-2.46,5.82,5.82,0,0,1,5.28,2.69v-.8a1.36,1.36,0,0,1,1.53-1.54h1.89a1.36,1.36,0,0,1,1.54,1.54v13.37a1.37,1.37,0,0,1-1.54,1.54h-1.89a1.36,1.36,0,0,1-1.53-1.54V252A5.86,5.86,0,0,1,237.08,254.62Zm1.15-4a3.86,3.86,0,0,0,3-1.31,5.22,5.22,0,0,0,0-6.59,3.83,3.83,0,0,0-3-1.31,3.68,3.68,0,0,0-3,1.32,5.43,5.43,0,0,0,0,6.58A3.7,3.7,0,0,0,238.23,250.65Z"/><path class="cls-3" d="M252.89,254.27a1.36,1.36,0,0,1-1.54-1.54V232.67a1.36,1.36,0,0,1,1.54-1.54h1.85a1.37,1.37,0,0,1,1.57,1.54v20.06a1.38,1.38,0,0,1-1.57,1.54Z"/><path class="cls-3" d="M134.72,292.67a1.72,1.72,0,0,1-1.75-1.28L126.89,272a1.3,1.3,0,0,1,.11-1.28,1.37,1.37,0,0,1,1.17-.48h2a1.62,1.62,0,0,1,1.73,1.31l3.74,12.57,3.68-11.87A1.65,1.65,0,0,1,141,271h1.09a1.66,1.66,0,0,1,1.73,1.28l3.64,11.87,3.75-12.57a1.59,1.59,0,0,1,1.69-1.31h2a1.22,1.22,0,0,1,1.28,1.76l-6.08,19.36a1.74,1.74,0,0,1-1.76,1.28h-1.34a1.64,1.64,0,0,1-1.73-1.28L141.54,279l-3.74,12.42a1.69,1.69,0,0,1-1.73,1.28Z"/><path class="cls-3" d="M164.45,293a7.35,7.35,0,0,1-5.66-2.45,9.48,9.48,0,0,1,0-12.24,7.32,7.32,0,0,1,5.66-2.46,5.82,5.82,0,0,1,5.28,2.69v-.81a1.36,1.36,0,0,1,1.54-1.53h1.89a1.35,1.35,0,0,1,1.53,1.53v13.38a1.36,1.36,0,0,1-1.53,1.54h-1.89a1.37,1.37,0,0,1-1.54-1.54v-.77A5.86,5.86,0,0,1,164.45,293Zm1.15-4a3.89,3.89,0,0,0,3-1.31,5.22,5.22,0,0,0,0-6.59,3.85,3.85,0,0,0-3-1.31,3.71,3.71,0,0,0-3,1.32,5.47,5.47,0,0,0,0,6.58A3.73,3.73,0,0,0,165.6,289.05Z"/><path class="cls-3" d="M184.26,293q-4.74,0-6.37-3.3a1.34,1.34,0,0,1,0-1.23,1.59,1.59,0,0,1,1.06-.69l1-.22a.78.78,0,0,1,.73,0,2.6,2.6,0,0,1,.58.31,7,7,0,0,1,.61.57,3.14,3.14,0,0,0,2.46,1,2.62,2.62,0,0,0,1.52-.4,1.18,1.18,0,0,0,.59-1,1,1,0,0,0-.35-.83,3.52,3.52,0,0,0-1.18-.61l-2-.7q-4.64-1.5-4.64-4.77a4.64,4.64,0,0,1,1.72-3.74,6.58,6.58,0,0,1,4.39-1.44,5.86,5.86,0,0,1,5.25,2.49,1.26,1.26,0,0,1,.18,1.27,1.5,1.5,0,0,1-1.07.75l-.9.22a1.91,1.91,0,0,1-1.85-.6,2.16,2.16,0,0,0-1.61-.61,1.71,1.71,0,0,0-1.19.4,1.27,1.27,0,0,0-.47,1c0,.55.5,1,1.5,1.34l2.05.77q4.57,1.5,4.68,5a4.37,4.37,0,0,1-1.91,3.8A8,8,0,0,1,184.26,293Z"/><path class="cls-3" d="M195.33,292.67a1.36,1.36,0,0,1-1.53-1.54V271.07a1.36,1.36,0,0,1,1.53-1.54h1.89a1.36,1.36,0,0,1,1.54,1.54v7.77q1.25-3,5-3a5.21,5.21,0,0,1,4.56,2.06,8.93,8.93,0,0,1,1.45,5.26v7.94a1.37,1.37,0,0,1-1.56,1.54h-1.86a1.37,1.37,0,0,1-1.54-1.54v-7.58a4.63,4.63,0,0,0-.67-2.69,2.21,2.21,0,0,0-1.92-1,3.17,3.17,0,0,0-2.43,1.12,4.68,4.68,0,0,0-1,3.26v6.85a1.37,1.37,0,0,1-1.54,1.54Z"/><path class="cls-3" d="M218.2,273.53a3.13,3.13,0,0,1-2.16.74,3.09,3.09,0,0,1-2.16-.74,2.34,2.34,0,0,1-.82-1.82,2.42,2.42,0,0,1,.78-1.87,3.15,3.15,0,0,1,2.2-.72,3.08,3.08,0,0,1,2.17.73,2.39,2.39,0,0,1,.8,1.86A2.36,2.36,0,0,1,218.2,273.53Zm-3.09,19.14a1.36,1.36,0,0,1-1.54-1.54V277.75a1.36,1.36,0,0,1,1.54-1.53H217a1.37,1.37,0,0,1,1.57,1.53v13.38a1.38,1.38,0,0,1-1.57,1.54Z"/><path class="cls-3" d="M224.07,292.67a1.36,1.36,0,0,1-1.54-1.54V277.75a1.36,1.36,0,0,1,1.54-1.53H226a1.35,1.35,0,0,1,1.53,1.53v1.09c.83-2,2.5-3,5-3a5.21,5.21,0,0,1,4.56,2.06,8.93,8.93,0,0,1,1.46,5.26v7.94a1.38,1.38,0,0,1-1.57,1.54h-1.85a1.36,1.36,0,0,1-1.54-1.54v-7.58a4.63,4.63,0,0,0-.67-2.69,2.21,2.21,0,0,0-1.92-1,3.17,3.17,0,0,0-2.43,1.12,4.64,4.64,0,0,0-1,3.26v6.85a1.36,1.36,0,0,1-1.53,1.54Z"/><path class="cls-3" d="M250.12,300.19a13.6,13.6,0,0,1-6.4-1.48,1.33,1.33,0,0,1-.55-2.11l.39-.7a1.35,1.35,0,0,1,2.08-.58,8.59,8.59,0,0,0,4,1,4.9,4.9,0,0,0,3.47-1.2,4.65,4.65,0,0,0,1.3-3.57v-1.22a5.92,5.92,0,0,1-5.32,2.66,7.2,7.2,0,0,1-5.64-2.5,9.4,9.4,0,0,1,0-12.16,7.22,7.22,0,0,1,5.64-2.49,5.8,5.8,0,0,1,5.25,2.69v-.93c0-.94.52-1.41,1.57-1.41h1.76a1.36,1.36,0,0,1,1.54,1.53v13.7c0,3-.85,5.16-2.55,6.59A9.84,9.84,0,0,1,250.12,300.19Zm-2.87-12.42a3.73,3.73,0,0,0,3,1.35,3.87,3.87,0,0,0,3-1.33,5.26,5.26,0,0,0,0-6.69,3.84,3.84,0,0,0-3-1.33,3.71,3.71,0,0,0-3,1.36,5.44,5.44,0,0,0,0,6.64Z"/><path class="cls-3" d="M415,254.62a12.08,12.08,0,0,1-8.92-3.36,11.64,11.64,0,0,1,0-16.38,12.08,12.08,0,0,1,8.92-3.36,11.77,11.77,0,0,1,6.84,2.11,1.33,1.33,0,0,1,.32,2.14l-.8,1a1.44,1.44,0,0,1-2.14.29,8.31,8.31,0,0,0-4.22-1.12,6.91,6.91,0,0,0-5.24,2,7.59,7.59,0,0,0,0,10.18,6.94,6.94,0,0,0,5.24,2,8.31,8.31,0,0,0,4.22-1.12,1.45,1.45,0,0,1,2.14.29l.8,1c.6.86.55,1.54-.16,2A11.8,11.8,0,0,1,415,254.62Z"/><path class="cls-3" d="M427.18,254.27a1.36,1.36,0,0,1-1.53-1.54V232.67a1.36,1.36,0,0,1,1.53-1.54h1.89a1.36,1.36,0,0,1,1.54,1.54v7.77q1.25-3,5-3a5.21,5.21,0,0,1,4.56,2.06,8.94,8.94,0,0,1,1.46,5.27v7.93a1.38,1.38,0,0,1-1.57,1.54h-1.86a1.36,1.36,0,0,1-1.53-1.54v-7.58a4.63,4.63,0,0,0-.68-2.69,2.18,2.18,0,0,0-1.92-1,3.2,3.2,0,0,0-2.43,1.12,4.68,4.68,0,0,0-1,3.26v6.85a1.36,1.36,0,0,1-1.54,1.54Z"/><path class="cls-3" d="M453.81,254.62a9.65,9.65,0,0,1-6.88-2.43,8,8,0,0,1-2.59-6.08,8.38,8.38,0,0,1,2.49-6.11,8.76,8.76,0,0,1,6.53-2.53,9,9,0,0,1,6.11,2.13,7.85,7.85,0,0,1,2.63,5.93,1.15,1.15,0,0,1-.4,1,1.89,1.89,0,0,1-1.17.34H449.07a3.19,3.19,0,0,0,1.36,2.68,5.69,5.69,0,0,0,3.7,1.16,7.38,7.38,0,0,0,3.65-1A1.54,1.54,0,0,1,460,250l.35.45a1.38,1.38,0,0,1-.28,2.27A10.29,10.29,0,0,1,453.81,254.62Zm-4.61-10.5h8.26A3.24,3.24,0,0,0,456,241.9a4.85,4.85,0,0,0-2.57-.69,5.09,5.09,0,0,0-2.66.71A3.4,3.4,0,0,0,449.2,244.12Z"/><path class="cls-3" d="M466.45,254.27a1.37,1.37,0,0,1-1.54-1.54V239.36a1.36,1.36,0,0,1,1.54-1.54h1.89a1.36,1.36,0,0,1,1.53,1.54v1.08a4.11,4.11,0,0,1,1.68-2.19,5.38,5.38,0,0,1,7.54,2.07,5.7,5.7,0,0,1,2.35-2.26,6.88,6.88,0,0,1,2.93-.59,5.26,5.26,0,0,1,4.53,2.09,8.79,8.79,0,0,1,1.52,5.27v7.9a1.38,1.38,0,0,1-1.57,1.54H487a1.36,1.36,0,0,1-1.53-1.54v-7.68a4.63,4.63,0,0,0-.63-2.62,2,2,0,0,0-1.74-.93,2.62,2.62,0,0,0-2,1,5,5,0,0,0-.9,3.11v7.1a1.36,1.36,0,0,1-1.53,1.54h-1.89a1.37,1.37,0,0,1-1.54-1.54v-7.68a4.82,4.82,0,0,0-.6-2.64,2,2,0,0,0-1.73-.91,2.62,2.62,0,0,0-2.11,1.07,5,5,0,0,0-.87,3.22v6.94a1.36,1.36,0,0,1-1.53,1.54Z"/><path class="cls-3" d="M498.85,235.13a3.13,3.13,0,0,1-2.16.74,3.09,3.09,0,0,1-2.16-.74,2.34,2.34,0,0,1-.82-1.82,2.4,2.4,0,0,1,.79-1.87,3.11,3.11,0,0,1,2.19-.72,3.06,3.06,0,0,1,2.17.73,2.39,2.39,0,0,1,.8,1.86A2.36,2.36,0,0,1,498.85,235.13Zm-3.09,19.14a1.37,1.37,0,0,1-1.54-1.54V239.36a1.36,1.36,0,0,1,1.54-1.54h1.86a1.37,1.37,0,0,1,1.56,1.54v13.37a1.37,1.37,0,0,1-1.56,1.54Z"/><path class="cls-3" d="M511.63,254.62a9.69,9.69,0,0,1-6.85-2.43,7.91,7.91,0,0,1-2.62-6.05,8.23,8.23,0,0,1,2.61-6.18,9.53,9.53,0,0,1,6.86-2.49,10.28,10.28,0,0,1,5.22,1.37c.87.56,1,1.28.29,2.18l-.52.64a1.65,1.65,0,0,1-2.17.38,5.75,5.75,0,0,0-2.53-.57,4.79,4.79,0,0,0-3.44,1.28,4.67,4.67,0,0,0,0,6.59,4.83,4.83,0,0,0,3.44,1.28,5.62,5.62,0,0,0,2.53-.58,1.6,1.6,0,0,1,2.17.39l.52.64a1.36,1.36,0,0,1,.33,1.23,1.62,1.62,0,0,1-.91,1.07A9.85,9.85,0,0,1,511.63,254.62Z"/><path class="cls-3" d="M527.28,254.62a7.35,7.35,0,0,1-5.66-2.45,9.48,9.48,0,0,1,0-12.24,7.32,7.32,0,0,1,5.66-2.46,5.82,5.82,0,0,1,5.28,2.69v-.8a1.36,1.36,0,0,1,1.54-1.54H536a1.36,1.36,0,0,1,1.54,1.54v13.37a1.36,1.36,0,0,1-1.54,1.54H534.1a1.36,1.36,0,0,1-1.54-1.54V252A5.86,5.86,0,0,1,527.28,254.62Zm1.15-4a3.89,3.89,0,0,0,3-1.31,5.26,5.26,0,0,0,0-6.59,3.85,3.85,0,0,0-3-1.31,3.7,3.7,0,0,0-3,1.32,5.47,5.47,0,0,0,0,6.58A3.72,3.72,0,0,0,528.43,250.65Z"/><path class="cls-3" d="M543.09,254.27a1.36,1.36,0,0,1-1.54-1.54V232.67a1.36,1.36,0,0,1,1.54-1.54h1.85a1.37,1.37,0,0,1,1.57,1.54v20.06a1.38,1.38,0,0,1-1.57,1.54Z"/><path class="cls-3" d="M416.34,292.67a1.73,1.73,0,0,1-1.76-1.28L408.5,272a1.33,1.33,0,0,1,.11-1.28,1.37,1.37,0,0,1,1.17-.48h2a1.62,1.62,0,0,1,1.73,1.31l3.74,12.57,3.68-11.87a1.65,1.65,0,0,1,1.73-1.28h1.09a1.66,1.66,0,0,1,1.73,1.28l3.64,11.87,3.75-12.57a1.59,1.59,0,0,1,1.69-1.31h2a1.22,1.22,0,0,1,1.28,1.76l-6.08,19.36a1.73,1.73,0,0,1-1.76,1.28h-1.34a1.64,1.64,0,0,1-1.73-1.28L423.15,279l-3.74,12.42a1.69,1.69,0,0,1-1.73,1.28Z"/><path class="cls-3" d="M446.06,293a7.35,7.35,0,0,1-5.66-2.45,9.48,9.48,0,0,1,0-12.24,7.32,7.32,0,0,1,5.66-2.46,5.82,5.82,0,0,1,5.28,2.69v-.81a1.36,1.36,0,0,1,1.54-1.53h1.89a1.35,1.35,0,0,1,1.53,1.53v13.38a1.36,1.36,0,0,1-1.53,1.54h-1.89a1.37,1.37,0,0,1-1.54-1.54v-.77A5.86,5.86,0,0,1,446.06,293Zm1.16-4a3.88,3.88,0,0,0,3-1.31,5.22,5.22,0,0,0,0-6.59,3.85,3.85,0,0,0-3-1.31,3.72,3.72,0,0,0-3,1.32,5.47,5.47,0,0,0,0,6.58A3.74,3.74,0,0,0,447.22,289.05Z"/><path class="cls-3" d="M465.87,293q-4.74,0-6.37-3.3a1.34,1.34,0,0,1,0-1.23,1.61,1.61,0,0,1,1.06-.69l1-.22a.8.8,0,0,1,.74,0,2.72,2.72,0,0,1,.57.31,7,7,0,0,1,.61.57,3.15,3.15,0,0,0,2.46,1,2.62,2.62,0,0,0,1.52-.4,1.19,1.19,0,0,0,.6-1,1.05,1.05,0,0,0-.36-.83,3.52,3.52,0,0,0-1.18-.61l-2-.7q-4.63-1.5-4.64-4.77a4.64,4.64,0,0,1,1.72-3.74,6.58,6.58,0,0,1,4.4-1.44,5.84,5.84,0,0,1,5.24,2.49,1.26,1.26,0,0,1,.18,1.27,1.5,1.5,0,0,1-1.07.75l-.9.22a1.91,1.91,0,0,1-1.85-.6,2.16,2.16,0,0,0-1.6-.61,1.76,1.76,0,0,0-1.2.4,1.27,1.27,0,0,0-.47,1c0,.55.5,1,1.51,1.34l2,.77q4.57,1.5,4.68,5a4.37,4.37,0,0,1-1.91,3.8A8,8,0,0,1,465.87,293Z"/><path class="cls-3" d="M476.94,292.67a1.36,1.36,0,0,1-1.53-1.54V271.07a1.36,1.36,0,0,1,1.53-1.54h1.89a1.36,1.36,0,0,1,1.54,1.54v7.77q1.25-3,5-3a5.21,5.21,0,0,1,4.56,2.06,8.93,8.93,0,0,1,1.46,5.26v7.94a1.38,1.38,0,0,1-1.57,1.54H488a1.36,1.36,0,0,1-1.53-1.54v-7.58a4.63,4.63,0,0,0-.68-2.69,2.18,2.18,0,0,0-1.92-1,3.18,3.18,0,0,0-2.43,1.12,4.68,4.68,0,0,0-1,3.26v6.85a1.36,1.36,0,0,1-1.54,1.54Z"/><path class="cls-3" d="M499.81,273.53a3.13,3.13,0,0,1-2.16.74,3.09,3.09,0,0,1-2.16-.74,2.34,2.34,0,0,1-.82-1.82,2.4,2.4,0,0,1,.79-1.87,3.64,3.64,0,0,1,4.36,0,2.39,2.39,0,0,1,.8,1.86A2.36,2.36,0,0,1,499.81,273.53Zm-3.09,19.14a1.37,1.37,0,0,1-1.54-1.54V277.75a1.36,1.36,0,0,1,1.54-1.53h1.86a1.37,1.37,0,0,1,1.56,1.53v13.38a1.37,1.37,0,0,1-1.56,1.54Z"/><path class="cls-3" d="M505.68,292.67a1.37,1.37,0,0,1-1.54-1.54V277.75a1.36,1.36,0,0,1,1.54-1.53h1.89a1.35,1.35,0,0,1,1.53,1.53v1.09c.84-2,2.5-3,5-3a5.23,5.23,0,0,1,4.56,2.06,8.93,8.93,0,0,1,1.45,5.26v7.94a1.38,1.38,0,0,1-1.57,1.54h-1.85a1.36,1.36,0,0,1-1.54-1.54v-7.58a4.63,4.63,0,0,0-.67-2.69,2.21,2.21,0,0,0-1.92-1,3.17,3.17,0,0,0-2.43,1.12,4.64,4.64,0,0,0-1,3.26v6.85a1.36,1.36,0,0,1-1.53,1.54Z"/><path class="cls-3" d="M531.73,300.19a13.63,13.63,0,0,1-6.4-1.48,1.33,1.33,0,0,1-.55-2.11l.39-.7a1.35,1.35,0,0,1,2.08-.58,8.59,8.59,0,0,0,4,1,4.9,4.9,0,0,0,3.47-1.2,4.61,4.61,0,0,0,1.3-3.57v-1.22a5.9,5.9,0,0,1-5.31,2.66,7.21,7.21,0,0,1-5.65-2.5,9.4,9.4,0,0,1,0-12.16,7.23,7.23,0,0,1,5.65-2.49,5.79,5.79,0,0,1,5.24,2.69v-.93c0-.94.53-1.41,1.57-1.41h1.76a1.36,1.36,0,0,1,1.54,1.53v13.7c0,3-.85,5.16-2.55,6.59A9.82,9.82,0,0,1,531.73,300.19Zm-2.87-12.42a3.73,3.73,0,0,0,3,1.35,3.86,3.86,0,0,0,3-1.33,5.26,5.26,0,0,0,0-6.69,3.83,3.83,0,0,0-3-1.33,3.71,3.71,0,0,0-3,1.36,5.44,5.44,0,0,0,0,6.64Z"/><path class="cls-3" d="M324.61,276.3v-22l14.8,11Z"/><circle class="cls-4" cx="480.85" cy="148.8" r="6.82"/><path class="cls-5" d="M536,88.24v68.43a7.14,7.14,0,0,1-7.14,7.14H420a7.14,7.14,0,0,1-7.14-7.14V88.24"/><path class="cls-5" d="M412.86,110.38c12.45,0,12.45,3.26,24.89,3.26s12.45-3.26,24.9-3.26,12.45,3.26,24.9,3.26,12.45-3.26,24.9-3.26,12.45,3.26,24.9,3.26"/><polyline class="cls-5" points="122.65 127.44 137.99 133.31 153.32 127.44 168.66 133.31 184 127.44 199.34 133.31 214.67 127.44 230.01 133.31 245.35 127.44 260.69 133.31 276.04 127.44"/><polyline class="cls-5" points="122.65 139.56 137.99 145.43 153.32 139.56 168.66 145.43 184 139.56 199.34 145.43 214.67 139.56 230.01 145.43 245.35 139.56 260.69 145.43 276.04 139.56"/><circle class="cls-6" cx="457.28" cy="141.98" r="8.6"/><circle class="cls-7" cx="500.91" cy="110.61" r="7.76"/><circle class="cls-7" cx="230.66" cy="172.84" r="5.39"/><circle class="cls-4" cx="168.88" cy="99.43" r="6.21"/><circle class="cls-6" cx="189.66" cy="108.95" r="8.6"/><circle class="cls-4" cx="237.21" cy="92.34" r="8.6"/><g class="cls-8"><use transform="translate(-1828.99 98.26) scale(1.24)" xlink:href="#image"/></g></g></svg>