<svg xmlns="http://www.w3.org/2000/svg" xmlns:xlink="http://www.w3.org/1999/xlink" viewBox="0 0 685.71 1534.61"><defs><style>.cls-1,.cls-10,.cls-22,.cls-5,.cls-9{fill:#fff;}.cls-13,.cls-14,.cls-15,.cls-16,.cls-17,.cls-2{fill:none;stroke-miterlimit:10;}.cls-2{stroke:#fff;}.cls-3{fill:#353a21;}.cls-4{fill:#bdbdbd;}.cls-5,.cls-7{opacity:0.85;}.cls-6{fill:gray;}.cls-18,.cls-7,.cls-8{fill:#bfc723;}.cls-15,.cls-18,.cls-9{opacity:0.8;}.cls-10{opacity:0.65;}.cls-11{fill:#333;}.cls-12{fill:#d7d7d7;}.cls-13,.cls-14,.cls-15,.cls-16,.cls-17{stroke:#d7d7d7;stroke-width:1.82px;}.cls-13{opacity:0.2;}.cls-14{opacity:0.6;}.cls-16,.cls-20,.cls-22{opacity:0.4;}.cls-19,.cls-20{fill:#c8c2c2;}.cls-21{fill:url(#未命名漸層_4);}</style><linearGradient id="未命名漸層_4" x1="628.09" y1="2837.56" x2="694.29" y2="2722.91" gradientTransform="matrix(0.95, -0.14, 0.01, 0.91, -180.88, -1070.09)" gradientUnits="userSpaceOnUse"><stop offset="0" stop-color="#bfc723" stop-opacity="0.1"/><stop offset="1" stop-color="#bfc723"/></linearGradient></defs><title>m_fig4</title><g id="圖層_2" data-name="圖層 2"><path class="cls-1" d="M369.64,498.51v-1.08c-.55-.19-.9-.25-1.07-.67s0-.71.28-1.24l-.77-.76c-.52.25-.81.46-1.23.28s-.48-.52-.68-1.07h-1.08c-.19.54-.25.9-.67,1.07s-.71,0-1.24-.28l-.76.76c.25.53.46.82.28,1.24s-.53.48-1.08.67v1.08c.55.2.9.25,1.08.68s0,.72-.28,1.24l.76.76c.52-.25.81-.46,1.24-.28s.48.52.67,1.07h1.08c.2-.54.25-.9.68-1.07h0c.42-.18.71,0,1.23.28l.77-.76c-.25-.53-.46-.82-.28-1.24S369.1,498.71,369.64,498.51Zm-4,.8A1.34,1.34,0,1,1,367,498,1.34,1.34,0,0,1,365.63,499.31Z"/><path class="cls-1" d="M360.34,494c.37-.9,1.13-1,2.29-1.43v-2.3c-1.18-.41-1.91-.53-2.29-1.43s.07-1.51.6-2.63l-1.62-1.62c-1.11.52-1.72,1-2.63.6s-1-1.12-1.43-2.29H353c-.41,1.16-.53,1.91-1.43,2.29h0c-.9.37-1.52-.07-2.63-.6l-1.62,1.62c.52,1.11,1,1.73.6,2.63s-1.13,1-2.29,1.43v2.3c1.16.41,1.91.53,2.29,1.43s-.08,1.54-.6,2.63l1.62,1.62c1.11-.52,1.72-1,2.63-.6h0c.9.38,1,1.12,1.43,2.29h2.3c.41-1.16.53-1.91,1.44-2.29h0c.89-.37,1.5.07,2.62.6l1.62-1.62C360.42,495.56,360,494.94,360.34,494Zm-6.23.26a2.84,2.84,0,1,1,2.84-2.84A2.84,2.84,0,0,1,354.11,494.3Z"/><path class="cls-1" d="M328.23,499.41,325.17,493a13.78,13.78,0,0,1-1.64-5.73v-1.33h-.77v1.63a15.86,15.86,0,0,0,1.81,6.13l3.06,6.42a1,1,0,0,1-1,1.11h-.78l-3.87-7.94h-4.17a15.15,15.15,0,0,0,1.61-5.72v-1.63h-.77v1.33A13.78,13.78,0,0,1,317,493l-3.06,6.42a1.9,1.9,0,0,0-.2.86,2,2,0,0,0,2,2h10.75a2,2,0,0,0,2-2A1.9,1.9,0,0,0,328.23,499.41Z"/><path class="cls-1" d="M318.62,484.29h4.91a.82.82,0,0,0,0-1.63h-4.91a.82.82,0,0,0,0,1.63Z"/><line class="cls-2" x1="339.98" y1="104.04" x2="339.98" y2="1479.78"/><polygon class="cls-1" points="336.8 1473.87 337.74 1473.52 339.98 1479.68 342.22 1473.52 343.16 1473.87 339.98 1482.6 336.8 1473.87"/><circle class="cls-1" cx="340.1" cy="996.74" r="3.36"/><circle class="cls-1" cx="340.1" cy="793.32" r="3.36"/><circle class="cls-1" cx="340.1" cy="589.9" r="3.36"/><circle class="cls-1" cx="340.1" cy="386.48" r="3.36"/><circle class="cls-1" cx="340.1" cy="183.05" r="3.36"/><circle class="cls-1" cx="340.1" cy="1200.17" r="3.36"/><circle class="cls-1" cx="340.82" cy="1403.59" r="3.36"/><path class="cls-3" d="M399.27,263.07a4.48,4.48,0,0,1-2.08-.47,4.31,4.31,0,0,1-1.47-1.14,6.72,6.72,0,0,1-.93-1.58,9,9,0,0,1-.54-1.58,10.84,10.84,0,0,1-.22-1.37h-2.19v4.75a1,1,0,0,1-1.13,1.13h-1.46a1,1,0,0,1-1.15-1.13V247.47a1,1,0,0,1,1.15-1.13h6.33a5.15,5.15,0,0,1,4,1.58,5.53,5.53,0,0,1,1.46,3.9,5.16,5.16,0,0,1-1,3.16,4.62,4.62,0,0,1-2.68,1.76,4.88,4.88,0,0,0,.84,2.34,2,2,0,0,0,1.66,1,2.7,2.7,0,0,0,1.08-.18,1.14,1.14,0,0,1,.78,0,1.21,1.21,0,0,1,.49.59l.21.47c.33.69.21,1.19-.35,1.5A6.05,6.05,0,0,1,399.27,263.07Zm-7.43-8.82h3.22a2.05,2.05,0,0,0,1.59-.67,2.69,2.69,0,0,0,0-3.4,2,2,0,0,0-1.58-.69h-3.22Z"/><path class="cls-3" d="M410.36,263.07a7.07,7.07,0,0,1-5.06-1.79,5.87,5.87,0,0,1-1.91-4.47,6.18,6.18,0,0,1,1.84-4.49,6.43,6.43,0,0,1,4.8-1.86,6.66,6.66,0,0,1,4.5,1.56,5.85,5.85,0,0,1,1.93,4.37.84.84,0,0,1-.3.74,1.4,1.4,0,0,1-.86.25h-8.42a2.34,2.34,0,0,0,1,2,4.16,4.16,0,0,0,2.72.85,5.35,5.35,0,0,0,2.68-.73,1.13,1.13,0,0,1,1.6.24l.26.33a1,1,0,0,1-.21,1.67A7.59,7.59,0,0,1,410.36,263.07ZM407,255.35H413a2.33,2.33,0,0,0-1.07-1.63,3.54,3.54,0,0,0-1.89-.51,3.76,3.76,0,0,0-2,.52A2.52,2.52,0,0,0,407,255.35Z"/><path class="cls-3" d="M424.74,263.07a7.1,7.1,0,0,1-5-1.79,5.82,5.82,0,0,1-1.93-4.44,6.05,6.05,0,0,1,1.92-4.55,7,7,0,0,1,5.05-1.83,7.45,7.45,0,0,1,3.84,1c.64.41.71.94.21,1.6l-.38.47a1.21,1.21,0,0,1-1.6.28,4.22,4.22,0,0,0-1.86-.42,3.54,3.54,0,0,0-2.53.94,3.44,3.44,0,0,0,0,4.85,3.54,3.54,0,0,0,2.53.94,4.22,4.22,0,0,0,1.86-.42,1.18,1.18,0,0,1,1.6.28l.38.47a1,1,0,0,1,.25.91,1.2,1.2,0,0,1-.67.78A7.18,7.18,0,0,1,424.74,263.07Z"/><path class="cls-3" d="M433.9,268.09a1,1,0,0,1-.89-.37.94.94,0,0,1,0-1l2-4.78-4.47-9.93a1,1,0,0,1,0-1,1,1,0,0,1,.88-.37H433a1.25,1.25,0,0,1,1.32.91l2.47,6.57,2.5-6.57a1.28,1.28,0,0,1,1.32-.91h1.52a1,1,0,0,1,.88.37,1.09,1.09,0,0,1,0,1l-6.62,15.16a1.33,1.33,0,0,1-1.32.87Z"/><path class="cls-3" d="M450.84,263.07a7.06,7.06,0,0,1-5-1.79,5.79,5.79,0,0,1-1.93-4.44,6.08,6.08,0,0,1,1.91-4.55,7,7,0,0,1,5-1.83,7.45,7.45,0,0,1,3.84,1c.64.41.71.94.21,1.6l-.37.47a1.23,1.23,0,0,1-1.61.28,4.21,4.21,0,0,0-1.85-.42,3.55,3.55,0,0,0-2.54.94,3.44,3.44,0,0,0,0,4.85,3.55,3.55,0,0,0,2.54.94,4.21,4.21,0,0,0,1.85-.42,1.19,1.19,0,0,1,1.61.28l.37.47a1,1,0,0,1,.25.91,1.2,1.2,0,0,1-.67.78A7.15,7.15,0,0,1,450.84,263.07Z"/><path class="cls-3" d="M458.68,262.81a1,1,0,0,1-1.13-1.13V246.93a1,1,0,0,1,1.13-1.13h1.37a1,1,0,0,1,1.15,1.13v14.75a1,1,0,0,1-1.15,1.13Z"/><path class="cls-3" d="M470.36,263.07a7.09,7.09,0,0,1-5.07-1.79,5.87,5.87,0,0,1-1.9-4.47,6.17,6.17,0,0,1,1.83-4.49,6.47,6.47,0,0,1,4.81-1.86,6.65,6.65,0,0,1,4.49,1.56,5.82,5.82,0,0,1,1.93,4.37.81.81,0,0,1-.29.74,1.42,1.42,0,0,1-.86.25h-8.43a2.34,2.34,0,0,0,1,2,4.17,4.17,0,0,0,2.72.85,5.33,5.33,0,0,0,2.68-.73,1.13,1.13,0,0,1,1.6.24l.26.33a1,1,0,0,1-.21,1.67A7.56,7.56,0,0,1,470.36,263.07ZM467,255.35H473a2.4,2.4,0,0,0-1.07-1.63,3.58,3.58,0,0,0-1.9-.51,3.7,3.7,0,0,0-1.95.52A2.48,2.48,0,0,0,467,255.35Z"/><path class="cls-3" d="M483.63,263.07a5.44,5.44,0,0,1-4.19-1.8,7,7,0,0,1,0-9,5.42,5.42,0,0,1,4.19-1.81,4.29,4.29,0,0,1,3.86,2v-5.5a1,1,0,0,1,1.15-1.13H490a1,1,0,0,1,1.13,1.13v14.75a1,1,0,0,1-1.13,1.13h-1.37a1,1,0,0,1-1.15-1.13v-.56A4.29,4.29,0,0,1,483.63,263.07Zm-1.37-3.88a2.74,2.74,0,0,0,2.19,1,2.85,2.85,0,0,0,2.23-1,3.78,3.78,0,0,0,0-4.85,2.85,2.85,0,0,0-2.23-1,2.72,2.72,0,0,0-2.19,1,3.67,3.67,0,0,0-.82,2.42A3.64,3.64,0,0,0,482.26,259.19Z"/><path class="cls-3" d="M507.26,263.07a4.29,4.29,0,0,1-3.86-1.95v.56a1,1,0,0,1-1.15,1.13h-1.37a1,1,0,0,1-1.13-1.13V246.93a1,1,0,0,1,1.13-1.13h1.37a1,1,0,0,1,1.15,1.13v5.5a4.29,4.29,0,0,1,3.86-2,5.42,5.42,0,0,1,4.19,1.81,7,7,0,0,1,0,9A5.44,5.44,0,0,1,507.26,263.07Zm-.82-2.92a2.71,2.71,0,0,0,2.18-1,3.59,3.59,0,0,0,.83-2.42,3.63,3.63,0,0,0-.83-2.42,2.69,2.69,0,0,0-2.18-1,2.84,2.84,0,0,0-2.24,1,3.84,3.84,0,0,0,0,4.87A2.84,2.84,0,0,0,506.44,260.15Z"/><path class="cls-3" d="M526,261.24a7.14,7.14,0,0,1-9.55,0,6.15,6.15,0,0,1,0-9,7.14,7.14,0,0,1,9.55,0,6.15,6.15,0,0,1,0,9Zm-7.08-2.07a3.12,3.12,0,0,0,2.31,1,3.08,3.08,0,0,0,2.3-1,3.51,3.51,0,0,0,0-4.78,3.24,3.24,0,0,0-4.62,0,3.52,3.52,0,0,0,0,4.78Z"/><path class="cls-3" d="M534.87,263.07a5.34,5.34,0,0,1-1.53-.21,4.32,4.32,0,0,1-1.34-.67,3,3,0,0,1-1-1.33,5.21,5.21,0,0,1-.37-2.07v-5.37h-1.2c-.41,0-.61-.19-.61-.59V251.3c0-.39.2-.58.61-.58h1.48l.4-2.45a.84.84,0,0,1,.92-.75h1.15a.73.73,0,0,1,.83.82v2.38h2.73a.52.52,0,0,1,.59.58v1.53a.52.52,0,0,1-.59.59h-2.73v5.49c0,.83.33,1.24,1,1.24a1,1,0,0,0,.73-.3,1.16,1.16,0,0,0,.28-.8c0-.17,0-.31,0-.43-.05-.42.11-.63.49-.63h1.44a.59.59,0,0,1,.65.47,3.37,3.37,0,0,1,.15.92,3.31,3.31,0,0,1-1.15,2.77A4.44,4.44,0,0,1,534.87,263.07Z"/><path class="cls-3" d="M545.48,263.07a5.34,5.34,0,0,1-1.53-.21,4.32,4.32,0,0,1-1.34-.67,3.07,3.07,0,0,1-1-1.33,5.4,5.4,0,0,1-.36-2.07v-5.37h-1.2c-.41,0-.62-.19-.62-.59V251.3c0-.39.21-.58.62-.58h1.48l.4-2.45a.84.84,0,0,1,.92-.75H544a.72.72,0,0,1,.82.82v2.38h2.73a.51.51,0,0,1,.59.58v1.53a.52.52,0,0,1-.59.59h-2.73v5.49c0,.83.33,1.24,1,1.24a1,1,0,0,0,.73-.3,1.12,1.12,0,0,0,.28-.8,2.75,2.75,0,0,0,0-.43c0-.42.12-.63.5-.63h1.43a.6.6,0,0,1,.66.47,3.75,3.75,0,0,1,.14.92,3.33,3.33,0,0,1-1.14,2.77A4.45,4.45,0,0,1,545.48,263.07Z"/><path class="cls-3" d="M552.4,262.81a1,1,0,0,1-1.13-1.13V246.93a1,1,0,0,1,1.13-1.13h1.37a1,1,0,0,1,1.15,1.13v14.75a1,1,0,0,1-1.15,1.13Z"/><path class="cls-3" d="M564.08,263.07a7,7,0,0,1-5.06-1.79,5.84,5.84,0,0,1-1.91-4.47,6.17,6.17,0,0,1,1.83-4.49,6.47,6.47,0,0,1,4.81-1.86,6.65,6.65,0,0,1,4.49,1.56,5.82,5.82,0,0,1,1.93,4.37.81.81,0,0,1-.29.74,1.4,1.4,0,0,1-.86.25h-8.43a2.34,2.34,0,0,0,1,2,4.17,4.17,0,0,0,2.72.85,5.33,5.33,0,0,0,2.68-.73,1.15,1.15,0,0,1,1.61.24l.25.33a1,1,0,0,1-.21,1.67A7.56,7.56,0,0,1,564.08,263.07Zm-3.39-7.72h6.07a2.4,2.4,0,0,0-1.07-1.63,3.58,3.58,0,0,0-1.9-.51,3.7,3.7,0,0,0-1.95.52A2.48,2.48,0,0,0,560.69,255.35Z"/><path class="cls-3" d="M576.36,263.07c-2.32,0-3.88-.8-4.68-2.42a1,1,0,0,1,0-.91,1.18,1.18,0,0,1,.78-.5l.73-.17a.57.57,0,0,1,.54,0,2.3,2.3,0,0,1,.43.22l.44.43a2.33,2.33,0,0,0,1.82.7,1.91,1.91,0,0,0,1.11-.29.9.9,0,0,0,.44-.77.8.8,0,0,0-.26-.61,2.66,2.66,0,0,0-.87-.44l-1.48-.52q-3.42-1.11-3.42-3.51a3.41,3.41,0,0,1,1.26-2.75,4.84,4.84,0,0,1,3.24-1.06,4.31,4.31,0,0,1,3.86,1.83.93.93,0,0,1,.13.93,1.1,1.1,0,0,1-.79.56l-.66.16a1.38,1.38,0,0,1-1.36-.45,1.62,1.62,0,0,0-1.18-.44,1.26,1.26,0,0,0-.88.29.93.93,0,0,0-.34.74c0,.41.36.74,1.1,1l1.51.57c2.24.73,3.39,1.95,3.43,3.64a3.2,3.2,0,0,1-1.4,2.8A5.85,5.85,0,0,1,576.36,263.07Z"/><path class="cls-3" d="M167.07,466.77a1,1,0,0,1,1.13,1.13v.9a1,1,0,0,1-1.13,1.13h-6.35v3.71h5.39a1,1,0,0,1,1.13,1.13v.64a1,1,0,0,1-1.13,1.15h-5.39v5.56a1,1,0,0,1-1.13,1.13h-1.46a1,1,0,0,1-1.15-1.13V467.9a1,1,0,0,1,1.15-1.13Z"/><path class="cls-3" d="M171.59,483.25a1,1,0,0,1-1.13-1.13V467.36a1,1,0,0,1,1.13-1.13H173a1,1,0,0,1,1.15,1.13v14.76a1,1,0,0,1-1.15,1.13Z"/><path class="cls-3" d="M182.14,483.51A5.39,5.39,0,0,1,178,481.7a7,7,0,0,1,0-9,5.39,5.39,0,0,1,4.17-1.81,4.29,4.29,0,0,1,3.88,2v-.59a1,1,0,0,1,1.13-1.13h1.39a1,1,0,0,1,1.13,1.13v9.84a1,1,0,0,1-1.13,1.13h-1.39a1,1,0,0,1-1.13-1.13v-.57A4.3,4.3,0,0,1,182.14,483.51Zm.84-2.92a2.83,2.83,0,0,0,2.23-1,3.51,3.51,0,0,0,.86-2.42,3.56,3.56,0,0,0-.86-2.43,2.85,2.85,0,0,0-2.23-1,2.71,2.71,0,0,0-2.2,1,4,4,0,0,0,0,4.83A2.73,2.73,0,0,0,183,480.59Z"/><path class="cls-3" d="M202.14,483.51a4.13,4.13,0,0,1-2.49-.73,6.21,6.21,0,0,1-1.74-2.15l-1.7-3.1v4.59a1,1,0,0,1-1.13,1.13h-1.39a1,1,0,0,1-1.13-1.13V467.36a1,1,0,0,1,1.13-1.13h1.39a1,1,0,0,1,1.13,1.13v8.73l3-4.21a1.55,1.55,0,0,1,1.37-.73h1.57c.49,0,.8.14.93.41s.05.6-.25,1l-3.24,4.21,1.55,2.52a3.74,3.74,0,0,0,.82,1,1.59,1.59,0,0,0,1,.27,2.43,2.43,0,0,0,.7-.11.74.74,0,0,1,1,.35l.51,1c.22.48,0,.86-.54,1.16A5,5,0,0,1,202.14,483.51Z"/><path class="cls-3" d="M212.24,483.51a7.11,7.11,0,0,1-5.06-1.79,5.9,5.9,0,0,1-1.91-4.48,6.18,6.18,0,0,1,1.84-4.49,6.43,6.43,0,0,1,4.8-1.86,6.62,6.62,0,0,1,4.5,1.57,5.82,5.82,0,0,1,1.93,4.36.84.84,0,0,1-.3.74,1.33,1.33,0,0,1-.86.25h-8.42a2.37,2.37,0,0,0,1,2,4.19,4.19,0,0,0,2.72.84,5.35,5.35,0,0,0,2.68-.73,1.13,1.13,0,0,1,1.6.24l.26.33a1,1,0,0,1-.21,1.67A7.59,7.59,0,0,1,212.24,483.51Zm-3.39-7.72h6.07a2.33,2.33,0,0,0-1.07-1.64,3.57,3.57,0,0,0-1.89-.51,3.83,3.83,0,0,0-2,.52A2.54,2.54,0,0,0,208.85,475.79Z"/><path class="cls-3" d="M224.53,483.51q-3.5,0-4.69-2.43a1,1,0,0,1,0-.9,1.13,1.13,0,0,1,.78-.51l.72-.17a.62.62,0,0,1,.55,0,1.85,1.85,0,0,1,.42.23,5.5,5.5,0,0,1,.45.42,2.3,2.3,0,0,0,1.81.71,2,2,0,0,0,1.12-.3.87.87,0,0,0,.43-.76.79.79,0,0,0-.26-.62,2.66,2.66,0,0,0-.87-.44l-1.48-.52q-3.41-1.11-3.41-3.51a3.41,3.41,0,0,1,1.26-2.75,4.83,4.83,0,0,1,3.23-1.06,4.29,4.29,0,0,1,3.86,1.84.9.9,0,0,1,.13.93,1.1,1.1,0,0,1-.79.55l-.66.16a1.39,1.39,0,0,1-1.36-.44,1.59,1.59,0,0,0-1.18-.45,1.33,1.33,0,0,0-.88.29.94.94,0,0,0-.34.74q0,.62,1.11,1l1.5.57c2.25.74,3.39,1.95,3.44,3.65a3.24,3.24,0,0,1-1.4,2.8A5.87,5.87,0,0,1,224.53,483.51Z"/><path class="cls-3" d="M398.67,666.86a4.45,4.45,0,0,1-2.08-.47,4.31,4.31,0,0,1-1.47-1.14,6.1,6.1,0,0,1-.93-1.58,10,10,0,0,1-.55-1.58,13,13,0,0,1-.22-1.37h-2.19v4.76a1,1,0,0,1-1.13,1.13h-1.46a1,1,0,0,1-1.15-1.13V651.26a1,1,0,0,1,1.15-1.13H395a5.21,5.21,0,0,1,4,1.58,5.53,5.53,0,0,1,1.46,3.9,5.23,5.23,0,0,1-1,3.16,4.61,4.61,0,0,1-2.68,1.76,4.87,4.87,0,0,0,.83,2.34,2,2,0,0,0,1.66,1,2.63,2.63,0,0,0,1.08-.18,1.14,1.14,0,0,1,.78-.05,1.22,1.22,0,0,1,.5.59l.21.47q.5,1-.36,1.5A6,6,0,0,1,398.67,666.86ZM391.23,658h3.23a2.05,2.05,0,0,0,1.59-.67,2.49,2.49,0,0,0,.6-1.69A2.45,2.45,0,0,0,396,654a2,2,0,0,0-1.57-.69h-3.23Z"/><path class="cls-3" d="M409.76,666.86a7.09,7.09,0,0,1-5.07-1.79,5.87,5.87,0,0,1-1.9-4.47,6.17,6.17,0,0,1,1.83-4.49,6.47,6.47,0,0,1,4.81-1.86,6.65,6.65,0,0,1,4.49,1.56,5.82,5.82,0,0,1,1.93,4.37.81.81,0,0,1-.29.74,1.33,1.33,0,0,1-.86.25h-8.43a2.37,2.37,0,0,0,1,2A4.23,4.23,0,0,0,410,664a5.33,5.33,0,0,0,2.68-.73,1.13,1.13,0,0,1,1.6.24l.26.33a1,1,0,0,1-.21,1.67A7.56,7.56,0,0,1,409.76,666.86Zm-3.39-7.72h6.07a2.4,2.4,0,0,0-1.07-1.63,3.58,3.58,0,0,0-1.9-.51,3.79,3.79,0,0,0-2,.52A2.48,2.48,0,0,0,406.37,659.14Z"/><path class="cls-3" d="M424.14,666.86a7.1,7.1,0,0,1-5-1.79,5.79,5.79,0,0,1-1.93-4.44,6.05,6.05,0,0,1,1.92-4.55,7,7,0,0,1,5.05-1.83,7.53,7.53,0,0,1,3.83,1c.65.41.72.94.21,1.6l-.37.47a1.22,1.22,0,0,1-1.6.28,4.22,4.22,0,0,0-1.86-.42,3.52,3.52,0,0,0-2.53.94,3.44,3.44,0,0,0,0,4.85,3.52,3.52,0,0,0,2.53.94,4.22,4.22,0,0,0,1.86-.42,1.18,1.18,0,0,1,1.6.28l.37.47a1,1,0,0,1,.25.91,1.21,1.21,0,0,1-.67.79A7.24,7.24,0,0,1,424.14,666.86Z"/><path class="cls-3" d="M433.29,671.88a1,1,0,0,1-.88-.37.94.94,0,0,1,0-1l2-4.78-4.47-9.93a.86.86,0,0,1,.87-1.34h1.6a1.26,1.26,0,0,1,1.32.92l2.47,6.56,2.49-6.56a1.28,1.28,0,0,1,1.32-.92h1.53a1,1,0,0,1,.87.37,1,1,0,0,1,0,1L435.79,671a1.34,1.34,0,0,1-1.32.87Z"/><path class="cls-3" d="M450.24,666.86a7.1,7.1,0,0,1-5-1.79,5.79,5.79,0,0,1-1.93-4.44,6.05,6.05,0,0,1,1.92-4.55,7,7,0,0,1,5.05-1.83,7.53,7.53,0,0,1,3.83,1c.65.41.72.94.22,1.6l-.38.47a1.22,1.22,0,0,1-1.6.28,4.22,4.22,0,0,0-1.86-.42,3.54,3.54,0,0,0-2.53.94,3.44,3.44,0,0,0,0,4.85,3.54,3.54,0,0,0,2.53.94,4.22,4.22,0,0,0,1.86-.42,1.18,1.18,0,0,1,1.6.28l.38.47a1,1,0,0,1,.24.91,1.21,1.21,0,0,1-.67.79A7.24,7.24,0,0,1,450.24,666.86Z"/><path class="cls-3" d="M458.08,666.61a1,1,0,0,1-1.13-1.13V650.72a1,1,0,0,1,1.13-1.13h1.36a1,1,0,0,1,1.15,1.13v14.76a1,1,0,0,1-1.15,1.13Z"/><path class="cls-3" d="M469.75,666.86a7.07,7.07,0,0,1-5.06-1.79,5.87,5.87,0,0,1-1.91-4.47,6.18,6.18,0,0,1,1.84-4.49,6.43,6.43,0,0,1,4.8-1.86,6.66,6.66,0,0,1,4.5,1.56,5.85,5.85,0,0,1,1.93,4.37.84.84,0,0,1-.3.74,1.33,1.33,0,0,1-.86.25h-8.42a2.34,2.34,0,0,0,1,2A4.18,4.18,0,0,0,470,664a5.36,5.36,0,0,0,2.69-.73,1.13,1.13,0,0,1,1.6.24l.26.33a1,1,0,0,1-.21,1.67A7.59,7.59,0,0,1,469.75,666.86Zm-3.39-7.72h6.07a2.33,2.33,0,0,0-1.07-1.63,3.57,3.57,0,0,0-1.89-.51,3.83,3.83,0,0,0-2,.52A2.52,2.52,0,0,0,466.36,659.14Z"/><path class="cls-3" d="M483,666.86a5.44,5.44,0,0,1-4.19-1.8,7,7,0,0,1,0-9,5.42,5.42,0,0,1,4.19-1.81,4.26,4.26,0,0,1,3.86,2v-5.51a1,1,0,0,1,1.16-1.13h1.36a1,1,0,0,1,1.13,1.13v14.76a1,1,0,0,1-1.13,1.13H488a1,1,0,0,1-1.16-1.13v-.57A4.28,4.28,0,0,1,483,666.86ZM481.66,663a2.75,2.75,0,0,0,2.19,1,2.84,2.84,0,0,0,2.22-1,3.78,3.78,0,0,0,0-4.85,2.83,2.83,0,0,0-2.22-1,2.72,2.72,0,0,0-2.19,1,4,4,0,0,0,0,4.84Z"/><path class="cls-3" d="M506.87,650.13a5.15,5.15,0,0,1,4,1.6,5.64,5.64,0,0,1,1.46,3.93,5.09,5.09,0,0,1-5.46,5.34h-3.6v4.48a1,1,0,0,1-1.13,1.13h-1.46a1,1,0,0,1-1.16-1.13V651.26a1,1,0,0,1,1.16-1.13Zm-.5,7.91a2.06,2.06,0,0,0,1.58-.67,2.41,2.41,0,0,0,.61-1.69A2.44,2.44,0,0,0,508,654a2,2,0,0,0-1.58-.69h-3.1V658Z"/><path class="cls-3" d="M520.31,666.86a7.09,7.09,0,0,1-5.07-1.79,5.87,5.87,0,0,1-1.9-4.47,6.17,6.17,0,0,1,1.83-4.49,6.47,6.47,0,0,1,4.81-1.86,6.65,6.65,0,0,1,4.49,1.56,5.82,5.82,0,0,1,1.93,4.37.81.81,0,0,1-.29.74,1.33,1.33,0,0,1-.86.25h-8.43a2.37,2.37,0,0,0,1,2,4.23,4.23,0,0,0,2.72.84,5.33,5.33,0,0,0,2.68-.73,1.13,1.13,0,0,1,1.6.24l.26.33a1,1,0,0,1-.21,1.67A7.56,7.56,0,0,1,520.31,666.86Zm-3.39-7.72H523a2.4,2.4,0,0,0-1.07-1.63A3.58,3.58,0,0,0,520,657a3.79,3.79,0,0,0-1.95.52A2.48,2.48,0,0,0,516.92,659.14Z"/><path class="cls-3" d="M529.65,666.61a1,1,0,0,1-1.13-1.13V650.72a1,1,0,0,1,1.13-1.13H531a1,1,0,0,1,1.16,1.13v14.76a1,1,0,0,1-1.16,1.13Z"/><path class="cls-3" d="M536.29,666.61a1,1,0,0,1-1.13-1.13V650.72a1,1,0,0,1,1.13-1.13h1.36a1,1,0,0,1,1.15,1.13v14.76a1,1,0,0,1-1.15,1.13Z"/><path class="cls-3" d="M548,666.86a7.07,7.07,0,0,1-5.06-1.79A5.87,5.87,0,0,1,541,660.6a6.18,6.18,0,0,1,1.84-4.49,6.43,6.43,0,0,1,4.8-1.86,6.66,6.66,0,0,1,4.5,1.56,5.85,5.85,0,0,1,1.93,4.37.84.84,0,0,1-.3.74,1.33,1.33,0,0,1-.86.25h-8.42a2.37,2.37,0,0,0,1,2,4.21,4.21,0,0,0,2.72.84,5.35,5.35,0,0,0,2.68-.73,1.13,1.13,0,0,1,1.6.24l.26.33a1,1,0,0,1-.21,1.67A7.59,7.59,0,0,1,548,666.86Zm-3.39-7.72h6.07a2.33,2.33,0,0,0-1.07-1.63,3.54,3.54,0,0,0-1.89-.51,3.85,3.85,0,0,0-2,.52A2.52,2.52,0,0,0,544.57,659.14Z"/><path class="cls-3" d="M561,666.86a5.34,5.34,0,0,1-1.53-.21,4.32,4.32,0,0,1-1.34-.67,2.94,2.94,0,0,1-1-1.33,5.21,5.21,0,0,1-.37-2.07v-5.37h-1.2c-.41,0-.61-.19-.61-.58V655.1c0-.4.2-.59.61-.59h1.49l.4-2.45a.83.83,0,0,1,.91-.75h1.16a.72.72,0,0,1,.82.82v2.38h2.73a.52.52,0,0,1,.59.59v1.53a.52.52,0,0,1-.59.58h-2.73v5.49c0,.83.33,1.25,1,1.25a1,1,0,0,0,.73-.31,1.12,1.12,0,0,0,.28-.8c0-.17,0-.31,0-.42-.05-.43.12-.64.49-.64h1.44a.6.6,0,0,1,.66.47,3.75,3.75,0,0,1,.14.92,3.37,3.37,0,0,1-1.14,2.78A4.5,4.5,0,0,1,561,666.86Z"/><path class="cls-3" d="M570.86,666.86c-2.32,0-3.88-.8-4.68-2.42a1,1,0,0,1,0-.91,1.16,1.16,0,0,1,.78-.5l.73-.17a.6.6,0,0,1,.54,0,2.13,2.13,0,0,1,.42.22l.45.43a2.32,2.32,0,0,0,1.81.7,1.92,1.92,0,0,0,1.12-.29.9.9,0,0,0,.44-.76.81.81,0,0,0-.26-.62,2.66,2.66,0,0,0-.87-.44l-1.48-.52q-3.42-1.11-3.42-3.51a3.41,3.41,0,0,1,1.26-2.75,4.84,4.84,0,0,1,3.24-1.06,4.31,4.31,0,0,1,3.86,1.83.93.93,0,0,1,.13.93,1.12,1.12,0,0,1-.79.56l-.66.16a1.39,1.39,0,0,1-1.37-.45,1.6,1.6,0,0,0-1.17-.44,1.36,1.36,0,0,0-.89.29,1,1,0,0,0-.34.74q0,.61,1.11,1l1.51.57c2.24.73,3.39,2,3.43,3.64a3.23,3.23,0,0,1-1.4,2.81A5.92,5.92,0,0,1,570.86,666.86Z"/><path class="cls-3" d="M155.52,893.14a7.61,7.61,0,0,1-3.9-.94,5.14,5.14,0,0,1-2.29-2.61,1,1,0,0,1,0-.89,1.18,1.18,0,0,1,.78-.5l1-.24a1.21,1.21,0,0,1,1.38.73,3.25,3.25,0,0,0,3,1.46,3.39,3.39,0,0,0,1.93-.49,1.5,1.5,0,0,0,.73-1.3c0-.84-.63-1.48-1.88-1.9l-2.14-.78a8.36,8.36,0,0,1-3.07-1.73,3.82,3.82,0,0,1-1.31-2.91,4.31,4.31,0,0,1,1.67-3.55,6.45,6.45,0,0,1,4.16-1.34q3.84,0,5.28,3a1,1,0,0,1,.06.9,1.21,1.21,0,0,1-.75.54l-.94.26a1.29,1.29,0,0,1-1.46-.64,2.31,2.31,0,0,0-2.14-1.08,2.67,2.67,0,0,0-1.55.44,1.42,1.42,0,0,0-.64,1.23c0,.75.57,1.34,1.72,1.76l2.14.78c2.94,1,4.43,2.6,4.47,4.85a4.25,4.25,0,0,1-1.76,3.63A7.32,7.32,0,0,1,155.52,893.14Z"/><path class="cls-3" d="M165.13,898.15A1,1,0,0,1,164,897V881.91a1,1,0,0,1,1.13-1.13h1.39a1,1,0,0,1,1.13,1.13v.57a4.3,4.3,0,0,1,3.88-2,5.35,5.35,0,0,1,4.16,1.81,7,7,0,0,1,0,9,5.38,5.38,0,0,1-4.16,1.8,4.28,4.28,0,0,1-3.88-2V897a1,1,0,0,1-1.13,1.12Zm5.55-7.93a2.72,2.72,0,0,0,2.2-1,4,4,0,0,0,0-4.84,2.71,2.71,0,0,0-2.2-1,2.84,2.84,0,0,0-2.22,1,3.85,3.85,0,0,0,0,4.85A2.83,2.83,0,0,0,170.68,890.22Z"/><path class="cls-3" d="M183,878.81a2.61,2.61,0,0,1-3.18,0,1.73,1.73,0,0,1-.6-1.34,1.76,1.76,0,0,1,.58-1.38,2.3,2.3,0,0,1,1.61-.53,2.26,2.26,0,0,1,1.6.54,1.79,1.79,0,0,1,.59,1.37A1.73,1.73,0,0,1,183,878.81Zm-2.27,14.07a1,1,0,0,1-1.13-1.13v-9.84a1,1,0,0,1,1.13-1.13h1.36a1,1,0,0,1,1.16,1.13v9.84a1,1,0,0,1-1.16,1.13Z"/><path class="cls-3" d="M187.3,892.88a1,1,0,0,1-1.13-1.13v-9.84a1,1,0,0,1,1.13-1.13h1.39a1,1,0,0,1,1.13,1.13v.8a3.58,3.58,0,0,1,3.67-2.18,3.81,3.81,0,0,1,3.35,1.51,6.56,6.56,0,0,1,1.07,3.88v5.83a1,1,0,0,1-1.15,1.13h-1.37a1,1,0,0,1-1.13-1.13v-5.58a3.4,3.4,0,0,0-.49-2,1.62,1.62,0,0,0-1.41-.71,2.35,2.35,0,0,0-1.79.83,3.42,3.42,0,0,0-.75,2.4v5a1,1,0,0,1-1.13,1.13Z"/><path class="cls-3" d="M201.8,892.88a1,1,0,0,1-1.13-1.13v-9.84a1,1,0,0,1,1.13-1.13h1.38a1,1,0,0,1,1.13,1.13v.8a3.6,3.6,0,0,1,3.68-2.18,3.81,3.81,0,0,1,3.35,1.51,6.63,6.63,0,0,1,1.07,3.88v5.83a1,1,0,0,1-1.15,1.13h-1.37a1,1,0,0,1-1.13-1.13v-5.58a3.4,3.4,0,0,0-.49-2,1.62,1.62,0,0,0-1.41-.71,2.35,2.35,0,0,0-1.79.83,3.42,3.42,0,0,0-.76,2.4v5a1,1,0,0,1-1.13,1.13Z"/><path class="cls-3" d="M218.61,878.81a2.29,2.29,0,0,1-1.59.54,2.26,2.26,0,0,1-1.58-.54,1.73,1.73,0,0,1-.6-1.34,1.79,1.79,0,0,1,.57-1.38,2.31,2.31,0,0,1,1.61-.53,2.26,2.26,0,0,1,1.6.54,1.76,1.76,0,0,1,.59,1.37A1.73,1.73,0,0,1,218.61,878.81Zm-2.27,14.07a1,1,0,0,1-1.13-1.13v-9.84a1,1,0,0,1,1.13-1.13h1.37a1,1,0,0,1,1.15,1.13v9.84a1,1,0,0,1-1.15,1.13Z"/><path class="cls-3" d="M222.93,892.88a1,1,0,0,1-1.13-1.13v-9.84a1,1,0,0,1,1.13-1.13h1.39a1,1,0,0,1,1.13,1.13v.8a3.59,3.59,0,0,1,3.67-2.18,3.84,3.84,0,0,1,3.36,1.51,6.63,6.63,0,0,1,1.07,3.88v5.83a1,1,0,0,1-1.16,1.13H231a1,1,0,0,1-1.13-1.13v-5.58a3.39,3.39,0,0,0-.5-2,1.62,1.62,0,0,0-1.41-.71,2.35,2.35,0,0,0-1.79.83,3.42,3.42,0,0,0-.75,2.4v5a1,1,0,0,1-1.13,1.13Z"/><path class="cls-3" d="M242.09,898.41a10.15,10.15,0,0,1-4.71-1.08,1,1,0,0,1-.4-1.55l.29-.52a1,1,0,0,1,1.53-.42,6.41,6.41,0,0,0,3,.75,3.67,3.67,0,0,0,2.56-.88,3.44,3.44,0,0,0,1-2.63v-.89a4.34,4.34,0,0,1-3.91,1.95,5.32,5.32,0,0,1-4.15-1.83,6.93,6.93,0,0,1,0-8.95,5.32,5.32,0,0,1,4.15-1.83,4.29,4.29,0,0,1,3.86,2v-.68c0-.69.39-1,1.15-1h1.3a1,1,0,0,1,1.13,1.13V892a6,6,0,0,1-1.87,4.85A7.26,7.26,0,0,1,242.09,898.41ZM240,889.28a2.75,2.75,0,0,0,2.21,1,2.83,2.83,0,0,0,2.22-1,3.66,3.66,0,0,0,.88-2.46,3.7,3.7,0,0,0-.88-2.46,2.82,2.82,0,0,0-2.22-1,2.73,2.73,0,0,0-2.21,1,4,4,0,0,0,0,4.88Z"/><path class="cls-3" d="M94.5,1305.19a1.26,1.26,0,0,1-1.29-.94L88.74,1290a1,1,0,0,1,.08-.94,1,1,0,0,1,.86-.35h1.46a1.2,1.2,0,0,1,1.27,1l2.75,9.25,2.71-8.73a1.21,1.21,0,0,1,1.27-.94h.8a1.21,1.21,0,0,1,1.27.94l2.68,8.73,2.76-9.25a1.17,1.17,0,0,1,1.24-1h1.49a.89.89,0,0,1,.94,1.29l-4.47,14.24a1.27,1.27,0,0,1-1.3.94h-1a1.21,1.21,0,0,1-1.27-.94l-2.77-9.13-2.76,9.13a1.23,1.23,0,0,1-1.27.94Z"/><path class="cls-3" d="M117.45,1305.45a7.07,7.07,0,0,1-5.06-1.79,5.87,5.87,0,0,1-1.91-4.47,6.18,6.18,0,0,1,1.84-4.49,6.43,6.43,0,0,1,4.8-1.86,6.66,6.66,0,0,1,4.5,1.56,5.85,5.85,0,0,1,1.93,4.37.84.84,0,0,1-.3.74,1.4,1.4,0,0,1-.86.25H114a2.34,2.34,0,0,0,1,2,4.14,4.14,0,0,0,2.72.85,5.35,5.35,0,0,0,2.68-.73,1.13,1.13,0,0,1,1.6.24l.26.33a1,1,0,0,1-.21,1.67A7.59,7.59,0,0,1,117.45,1305.45Zm-3.39-7.72h6.07a2.33,2.33,0,0,0-1.07-1.63,3.57,3.57,0,0,0-1.89-.51,3.73,3.73,0,0,0-2,.52A2.52,2.52,0,0,0,114.06,1297.73Z"/><path class="cls-3" d="M130.7,1305.45a5.41,5.41,0,0,1-4.17-1.8,7,7,0,0,1,0-9,5.39,5.39,0,0,1,4.17-1.81,4.3,4.3,0,0,1,3.88,2v-.58a1,1,0,0,1,1.13-1.13h1.39a1,1,0,0,1,1.13,1.13v9.83a1,1,0,0,1-1.13,1.13h-1.39a1,1,0,0,1-1.13-1.13v-.56A4.3,4.3,0,0,1,130.7,1305.45Zm.85-2.92a2.83,2.83,0,0,0,2.22-1,3.85,3.85,0,0,0,0-4.85,2.83,2.83,0,0,0-2.22-1,2.7,2.7,0,0,0-2.2,1,3.67,3.67,0,0,0-.81,2.42,3.63,3.63,0,0,0,.81,2.42A2.72,2.72,0,0,0,131.55,1302.53Z"/><path class="cls-3" d="M146,1305.19a1.35,1.35,0,0,1-1.34-.87l-4.14-9.91a.94.94,0,0,1,0-1,1,1,0,0,1,.88-.36h1.51a1.24,1.24,0,0,1,1.29.91l2.59,7.23,2.61-7.23a1.26,1.26,0,0,1,1.3-.91h1.53a1,1,0,0,1,.88.36,1,1,0,0,1,0,1l-4.14,9.91a1.31,1.31,0,0,1-1.32.87Z"/><path class="cls-3" d="M158.72,1291.12a2.61,2.61,0,0,1-3.18,0,1.73,1.73,0,0,1-.6-1.34,1.76,1.76,0,0,1,.58-1.38,2.3,2.3,0,0,1,1.61-.53,2.26,2.26,0,0,1,1.6.54,1.79,1.79,0,0,1,.59,1.37A1.73,1.73,0,0,1,158.72,1291.12Zm-2.27,14.07a1,1,0,0,1-1.13-1.13v-9.83a1,1,0,0,1,1.13-1.13h1.36a1,1,0,0,1,1.16,1.13v9.83a1,1,0,0,1-1.16,1.13Z"/><path class="cls-3" d="M163,1305.19a1,1,0,0,1-1.13-1.13v-9.83a1,1,0,0,1,1.13-1.13h1.39a1,1,0,0,1,1.13,1.13v.8a3.58,3.58,0,0,1,3.67-2.19,3.79,3.79,0,0,1,3.35,1.52,6.51,6.51,0,0,1,1.07,3.87v5.83a1,1,0,0,1-1.15,1.13h-1.36a1,1,0,0,1-1.13-1.13v-5.57a3.41,3.41,0,0,0-.5-2,1.62,1.62,0,0,0-1.41-.71,2.35,2.35,0,0,0-1.79.83,3.45,3.45,0,0,0-.75,2.4v5a1,1,0,0,1-1.13,1.13Z"/><path class="cls-3" d="M182.2,1310.73a10.15,10.15,0,0,1-4.71-1.09,1,1,0,0,1-.4-1.55l.28-.52a1,1,0,0,1,1.53-.42,6.44,6.44,0,0,0,3,.75,3.58,3.58,0,0,0,2.55-.88,3.41,3.41,0,0,0,1-2.63v-.89a4.34,4.34,0,0,1-3.91,2,5.34,5.34,0,0,1-4.16-1.83,7,7,0,0,1,0-8.95,5.34,5.34,0,0,1,4.16-1.83,4.3,4.3,0,0,1,3.86,2v-.68c0-.69.38-1,1.15-1h1.3a1,1,0,0,1,1.13,1.13v10.07a6,6,0,0,1-1.88,4.85A7.22,7.22,0,0,1,182.2,1310.73Zm-2.11-9.14a2.74,2.74,0,0,0,2.2,1,2.84,2.84,0,0,0,2.23-1,3.75,3.75,0,0,0,.88-2.46,3.71,3.71,0,0,0-.88-2.46,2.82,2.82,0,0,0-2.23-1,2.72,2.72,0,0,0-2.2,1,4,4,0,0,0,0,4.88Z"/><path class="cls-3" d="M202.86,1305.45a7,7,0,0,1-4.29-1.29,4.13,4.13,0,0,1-1.73-3.51,4.25,4.25,0,0,1,1.22-3,8,8,0,0,1,3.09-2,4.94,4.94,0,0,1-1.44-1.51,3.47,3.47,0,0,1-.57-1.84,3.27,3.27,0,0,1,1.46-2.9,6.21,6.21,0,0,1,3.51-1,4.61,4.61,0,0,1,3.21,1.11,3.32,3.32,0,0,1,1.24,2.56,3.62,3.62,0,0,1-1,2.37,6,6,0,0,1-2.36,1.7l2.26,2.47,1.69-2a1.05,1.05,0,0,1,.8-.36H212c.28,0,.46.08.53.24s0,.35-.18.56l-3.1,3.56.7.82a2.24,2.24,0,0,0,1.6.87,2.55,2.55,0,0,0,1.27-.37c.43-.25.73-.19.92.18l.64,1.18a.76.76,0,0,1-.17.92,4.42,4.42,0,0,1-3,1.15,4.6,4.6,0,0,1-3.13-1.27l-.5-.49A6.33,6.33,0,0,1,202.86,1305.45Zm.12-2.87a3.4,3.4,0,0,0,2.64-1.22l-3-3.44A4.53,4.53,0,0,0,201,1299a2.13,2.13,0,0,0-.65,1.47,1.84,1.84,0,0,0,.75,1.49A2.89,2.89,0,0,0,203,1302.58Zm.54-8c1.29-.61,1.93-1.31,1.93-2.1a1.58,1.58,0,0,0-2.67-1,1.58,1.58,0,0,0-.41,1.12A2.73,2.73,0,0,0,203.52,1294.58Z"/><path class="cls-3" d="M223.46,1305.19a1,1,0,0,1-1.16-1.13v-14.21a1,1,0,0,1,1.16-1.13h5.43a8.15,8.15,0,0,1,6.06,2.39,8.42,8.42,0,0,1,0,11.71,8.17,8.17,0,0,1-6.06,2.37Zm2.59-3.15h2.47a4.84,4.84,0,0,0,3.67-1.42,5.6,5.6,0,0,0,0-7.32,4.84,4.84,0,0,0-3.67-1.43h-2.47Z"/><path class="cls-3" d="M242.19,1310.47a1,1,0,0,1-.88-.37.94.94,0,0,1,0-.95l2-4.78-4.47-9.93a.86.86,0,0,1,.87-1.34h1.6a1.27,1.27,0,0,1,1.32.91l2.47,6.57,2.49-6.57a1.28,1.28,0,0,1,1.32-.91h1.53a1,1,0,0,1,.87.37,1,1,0,0,1,0,1l-6.61,15.16a1.33,1.33,0,0,1-1.32.87Z"/><path class="cls-3" d="M259.14,1305.45a7.07,7.07,0,0,1-5.06-1.79,5.87,5.87,0,0,1-1.91-4.47,6.14,6.14,0,0,1,1.84-4.49,6.43,6.43,0,0,1,4.8-1.86,6.62,6.62,0,0,1,4.49,1.56,5.78,5.78,0,0,1,1.93,4.37.81.81,0,0,1-.29.74,1.4,1.4,0,0,1-.86.25h-8.43a2.37,2.37,0,0,0,1,2,4.17,4.17,0,0,0,2.72.85,5.39,5.39,0,0,0,2.69-.73,1.14,1.14,0,0,1,1.6.24l.26.33a1,1,0,0,1-.22,1.67A7.53,7.53,0,0,1,259.14,1305.45Zm-3.39-7.72h6.07a2.37,2.37,0,0,0-1.07-1.63,3.57,3.57,0,0,0-1.89-.51,3.71,3.71,0,0,0-2,.52A2.52,2.52,0,0,0,255.75,1297.73Z"/><path class="cls-3" d="M270.75,1291.12a2.6,2.6,0,0,1-3.17,0,1.73,1.73,0,0,1-.6-1.34,1.79,1.79,0,0,1,.57-1.38,2.69,2.69,0,0,1,3.22,0,1.78,1.78,0,0,1,.58,1.37A1.73,1.73,0,0,1,270.75,1291.12Zm-2.27,14.07a1,1,0,0,1-1.13-1.13v-9.83a1,1,0,0,1,1.13-1.13h1.37a1,1,0,0,1,1.15,1.13v9.83a1,1,0,0,1-1.15,1.13Z"/><path class="cls-3" d="M275.07,1305.19a1,1,0,0,1-1.13-1.13v-9.83a1,1,0,0,1,1.13-1.13h1.39a1,1,0,0,1,1.13,1.13v.8a3.59,3.59,0,0,1,3.67-2.19,3.82,3.82,0,0,1,3.36,1.52,6.58,6.58,0,0,1,1.07,3.87v5.83a1,1,0,0,1-1.16,1.13h-1.36a1,1,0,0,1-1.13-1.13v-5.57a3.41,3.41,0,0,0-.5-2,1.61,1.61,0,0,0-1.41-.71,2.36,2.36,0,0,0-1.79.83,3.45,3.45,0,0,0-.75,2.4v5a1,1,0,0,1-1.13,1.13Z"/><path class="cls-3" d="M294.23,1310.73a10.15,10.15,0,0,1-4.71-1.09,1,1,0,0,1-.4-1.55l.29-.52a1,1,0,0,1,1.53-.42,6.41,6.41,0,0,0,3,.75,3.62,3.62,0,0,0,2.56-.88,3.44,3.44,0,0,0,1-2.63v-.89a4.34,4.34,0,0,1-3.91,2,5.32,5.32,0,0,1-4.15-1.83,6.93,6.93,0,0,1,0-8.95,5.32,5.32,0,0,1,4.15-1.83,4.29,4.29,0,0,1,3.86,2v-.68c0-.69.39-1,1.16-1h1.29a1,1,0,0,1,1.13,1.13v10.07a6,6,0,0,1-1.87,4.85A7.27,7.27,0,0,1,294.23,1310.73Zm-2.11-9.14a2.76,2.76,0,0,0,2.21,1,2.82,2.82,0,0,0,2.22-1,3.7,3.7,0,0,0,.88-2.46,3.66,3.66,0,0,0-.88-2.46,2.8,2.8,0,0,0-2.22-1,2.74,2.74,0,0,0-2.21,1,3.72,3.72,0,0,0-.83,2.44A3.68,3.68,0,0,0,292.12,1301.59Z"/><path class="cls-3" d="M456.91,1467.13a1,1,0,0,1,1.13,1.13v.89a1,1,0,0,1-1.13,1.13h-6.36V1474h5.39a1,1,0,0,1,1.13,1.13v.64a1,1,0,0,1-1.13,1.15h-5.39v5.56a1,1,0,0,1-1.13,1.13H448a1,1,0,0,1-1.15-1.13v-14.22a1,1,0,0,1,1.15-1.13Z"/><path class="cls-3" d="M464.81,1483.86a5.37,5.37,0,0,1-4.16-1.8,7,7,0,0,1,0-9,5.38,5.38,0,0,1,4.16-1.81,4.3,4.3,0,0,1,3.89,2v-.59a1,1,0,0,1,1.13-1.13h1.39a1,1,0,0,1,1.13,1.13v9.84a1,1,0,0,1-1.13,1.13h-1.39a1,1,0,0,1-1.13-1.13v-.57A4.32,4.32,0,0,1,464.81,1483.86Zm.85-2.91a2.88,2.88,0,0,0,2.23-1,3.88,3.88,0,0,0,0-4.85,2.87,2.87,0,0,0-2.23-1,2.69,2.69,0,0,0-2.2,1,4,4,0,0,0,0,4.83A2.74,2.74,0,0,0,465.66,1481Z"/><path class="cls-3" d="M482.77,1483.86a4.3,4.3,0,0,1-3.86-1.95v.57a1,1,0,0,1-1.15,1.13h-1.37a1,1,0,0,1-1.13-1.13v-14.76a1,1,0,0,1,1.13-1.13h1.37a1,1,0,0,1,1.15,1.13v5.51a4.28,4.28,0,0,1,3.86-2,5.4,5.4,0,0,1,4.19,1.81,7,7,0,0,1,0,9A5.39,5.39,0,0,1,482.77,1483.86ZM482,1481a2.75,2.75,0,0,0,2.19-1,4,4,0,0,0,0-4.83,2.7,2.7,0,0,0-2.19-1,2.87,2.87,0,0,0-2.24.95,3.68,3.68,0,0,0-.87,2.44,3.64,3.64,0,0,0,.87,2.43A2.85,2.85,0,0,0,482,1481Z"/><path class="cls-3" d="M491.93,1483.61a1,1,0,0,1-1.13-1.13v-9.84a1,1,0,0,1,1.13-1.13h1.29a1,1,0,0,1,1.13,1.13v1.5a3.27,3.27,0,0,1,1.22-2.18,3.19,3.19,0,0,1,1.91-.71l.4,0c.46,0,.69.36.69,1v1.65a.92.92,0,0,1-.23.7.71.71,0,0,1-.6.17l-.59,0a2.41,2.41,0,0,0-1.95.92,4.81,4.81,0,0,0-.75,3v3.82a1,1,0,0,1-1.13,1.13Z"/><path class="cls-3" d="M503.73,1469.53a2.61,2.61,0,0,1-3.18,0,1.73,1.73,0,0,1-.6-1.34,1.81,1.81,0,0,1,.58-1.38,2.3,2.3,0,0,1,1.61-.53,2.26,2.26,0,0,1,1.6.54,1.77,1.77,0,0,1,.59,1.37A1.73,1.73,0,0,1,503.73,1469.53Zm-2.27,14.08a1,1,0,0,1-1.13-1.13v-9.84a1,1,0,0,1,1.13-1.13h1.36a1,1,0,0,1,1.16,1.13v9.84a1,1,0,0,1-1.16,1.13Z"/><path class="cls-3" d="M513.13,1483.86a7.09,7.09,0,0,1-5-1.78,5.83,5.83,0,0,1-1.93-4.45,6,6,0,0,1,1.92-4.54,7,7,0,0,1,5-1.84,7.54,7.54,0,0,1,3.84,1c.64.41.72.94.21,1.6l-.37.47a1.22,1.22,0,0,1-1.6.28,4.25,4.25,0,0,0-1.86-.42,3.57,3.57,0,0,0-2.53.94,3.44,3.44,0,0,0,0,4.85,3.52,3.52,0,0,0,2.53.94,4.25,4.25,0,0,0,1.86-.42,1.19,1.19,0,0,1,1.6.28l.37.47a1,1,0,0,1,.25.91,1.21,1.21,0,0,1-.67.79A7.25,7.25,0,0,1,513.13,1483.86Z"/><path class="cls-3" d="M523.91,1483.86c-2.32,0-3.88-.8-4.68-2.42a1,1,0,0,1,0-.91,1.16,1.16,0,0,1,.77-.5l.73-.17a.6.6,0,0,1,.54,0,1.76,1.76,0,0,1,.43.23,6,6,0,0,1,.44.42,2.34,2.34,0,0,0,1.82.71,2,2,0,0,0,1.12-.3.87.87,0,0,0,.43-.76.82.82,0,0,0-.26-.62,2.66,2.66,0,0,0-.87-.44l-1.48-.52c-2.28-.74-3.41-1.91-3.41-3.51a3.43,3.43,0,0,1,1.25-2.75,4.84,4.84,0,0,1,3.24-1.06,4.3,4.3,0,0,1,3.86,1.84.93.93,0,0,1,.13.93,1.12,1.12,0,0,1-.79.55l-.66.16a1.39,1.39,0,0,1-1.36-.44,1.59,1.59,0,0,0-1.18-.45,1.33,1.33,0,0,0-.88.29.94.94,0,0,0-.34.74c0,.41.37.74,1.1,1l1.51.57c2.24.74,3.39,2,3.44,3.65a3.24,3.24,0,0,1-1.4,2.8A5.9,5.9,0,0,1,523.91,1483.86Z"/><path class="cls-1" d="M464.35,97.69h7a1.14,1.14,0,0,1,1.14,1.14v7.45h1.17a.45.45,0,0,1,.45.46h0v.73a.45.45,0,0,1-.45.46h-.72a.46.46,0,0,0-.45.46v1.8a1.56,1.56,0,0,0,.69,1.31c1.9,1.33,9.2,5.21,10.31,8.13,1.28,3.35,1.36,8.94,1.37,10.66a1.39,1.39,0,0,1-.12.57,4.2,4.2,0,0,0,.29,4.54,1.36,1.36,0,0,1,.2.71v56a1.36,1.36,0,0,1-.31.87,3.12,3.12,0,0,0-.07,4.27,1.35,1.35,0,0,1,.34,1l-.37,6s-.25,4.32-7.13,4.32H452.42c-6.64,0-7.14-4.32-7.14-4.32l-.37-6a1.39,1.39,0,0,1,.34-1,3.11,3.11,0,0,0-.07-4.27,1.36,1.36,0,0,1-.31-.87v-56a1.42,1.42,0,0,1,.2-.72,4.19,4.19,0,0,0,.3-4.53,1.39,1.39,0,0,1-.12-.57c0-1.72.09-7.31,1.37-10.66,1.11-2.92,8.41-6.8,10.31-8.13a1.59,1.59,0,0,0,.68-1.31v-1.8a.47.47,0,0,0-.46-.46h-.71a.45.45,0,0,1-.45-.46v-.73a.45.45,0,0,1,.45-.46h.72a.46.46,0,0,0,.45-.46v-7a1.14,1.14,0,0,1,1.14-1.14Z"/><polygon class="cls-1" points="131.12 337.45 122.93 356.56 137.94 347 131.12 337.45"/><polygon class="cls-4" points="166.59 360.65 166.59 347 177.51 353.83 166.59 360.65"/><polygon class="cls-1" points="204.8 360.65 217.08 360.65 215.55 368.84 210.94 368.84 204.8 360.65"/><polygon class="cls-5" points="177.51 375.66 159.77 386.57 169.32 390.67 177.51 375.66"/><polygon class="cls-5" points="202.07 382.48 202.07 398.86 210.26 382.48 202.07 382.48"/><polygon class="cls-6" points="123.25 409.77 116.11 423.42 131.12 423.42 123.25 409.77"/><polygon class="cls-7" points="133.84 382.48 144.76 398.86 131.12 398.86 133.84 382.48"/><polygon class="cls-1" points="112.97 371.56 112.01 381.12 121.56 379.21 121.56 366.79 112.97 371.56"/><polygon class="cls-4" points="159.44 424.1 148.49 415.96 160.48 411.27 159.44 424.1"/><polygon class="cls-1" points="182.24 393.44 189.57 383.58 195.22 389.7 192.47 393.4 182.24 393.44"/><polygon class="cls-5" points="178 424.3 176.18 445.05 185.16 439.82 178 424.3"/><polygon class="cls-8" points="198.13 408.66 211.27 418.43 203.02 402.09 198.13 408.66"/><polygon class="cls-5" points="271.28 385.49 250.95 380.96 254.95 390.56 271.28 385.49"/><polygon class="cls-5" points="284.15 407.5 272.74 419.25 290.02 413.2 284.15 407.5"/><polygon class="cls-4" points="224.57 407.66 222.38 394.19 234.25 399.18 224.57 407.66"/><polygon class="cls-1" points="262.28 401.54 274.41 399.58 274.2 407.9 269.65 408.64 262.28 401.54"/><polygon class="cls-5" points="237.75 420.73 221.98 434.34 232.07 436.85 237.75 420.73"/><polygon class="cls-8" points="263.08 423.53 265.7 439.69 271.17 422.22 263.08 423.53"/><rect class="cls-9" x="460.03" y="540.99" width="7.57" height="10.93" transform="translate(156.2 -100.93) rotate(14.91)"/><rect class="cls-9" x="473.48" y="577.97" width="7.57" height="10.93" transform="translate(-275.84 615.26) rotate(-53.14)"/><rect class="cls-9" x="482.14" y="561.92" width="7.57" height="10.93" transform="translate(1001.38 26.69) rotate(84.21)"/><rect class="cls-9" x="462.53" y="590.9" width="7.57" height="10.93" transform="translate(184.46 -106.24) rotate(16.16)"/><rect class="cls-9" x="462.11" y="560.65" width="7.57" height="10.93" transform="translate(1193.6 476.81) rotate(122.46)"/><rect class="cls-9" x="418.69" y="562.86" width="7.57" height="10.93" transform="translate(638.8 -105.97) rotate(54.41)"/><rect class="cls-9" x="448.19" y="575.95" width="7.57" height="10.93" transform="translate(776 1242.73) rotate(-168.24)"/><rect class="cls-9" x="409.67" y="548.52" width="7.57" height="10.93" transform="translate(1103.75 517.55) rotate(123.71)"/><rect class="cls-9" x="493.87" y="575.08" width="7.57" height="10.93" transform="translate(238.81 1300.06) rotate(-119.61)"/><rect class="cls-9" x="510.81" y="539.56" width="7.57" height="10.93" transform="translate(1097.2 1016.66) rotate(172.35)"/><rect class="cls-9" x="493.3" y="544.64" width="7.57" height="10.93" transform="translate(-243.68 581.29) rotate(-50.31)"/><rect class="cls-9" x="520.98" y="563.52" width="7.57" height="10.93" transform="translate(273.25 1301.02) rotate(-118.35)"/><rect class="cls-9" x="506.43" y="559.82" width="7.57" height="10.93" transform="translate(-106.85 119.09) rotate(-12.06)"/><rect class="cls-9" x="415.71" y="594.05" width="7.57" height="10.93" transform="translate(-243.19 909.74) rotate(-80.1)"/><rect class="cls-9" x="520.38" y="584.23" width="7.57" height="10.93" transform="translate(736.42 -170.2) rotate(57.24)"/><rect class="cls-9" x="411.81" y="610.54" width="7.57" height="10.93" transform="translate(-108.11 88.83) rotate(-10.8)"/><rect class="cls-9" x="413.21" y="513.17" width="7.57" height="10.93" transform="translate(890.9 51.43) rotate(84.21)"/><rect class="cls-9" x="424.94" y="526.33" width="7.57" height="10.93" transform="translate(178.21 1167.28) rotate(-119.61)"/><rect class="cls-9" x="487.36" y="508.05" width="7.57" height="10.93" transform="translate(272.48 1189.6) rotate(-118.35)"/><rect class="cls-9" x="454.32" y="511.06" width="7.57" height="10.93" transform="translate(-97.82 107.12) rotate(-12.06)"/><rect class="cls-9" x="486.75" y="528.75" width="7.57" height="10.93" transform="translate(674.33 -167.38) rotate(57.24)"/><path class="cls-10" d="M174.08,740.26H152c-10.47,0-19,18.16-19,40.55s8.49,40.56,19,40.56h22.12C157.89,795.27,158,768.23,174.08,740.26Z"/><path class="cls-6" d="M193,780.81c0-22.39-8.49-40.55-19-40.55s-19,18.16-19,40.55,8.49,40.56,19,40.56S193,803.21,193,780.81Zm-21.07.53c0-5.82,2.36-10.53,5.27-10.53s5.27,4.71,5.27,10.53-2.36,10.53-5.27,10.53S172,787.16,172,781.34Z"/><path class="cls-4" d="M178.74,801.14v23.7c0,11.23,19.46,20.33,43.46,20.33s43.47-9.1,43.47-20.33v-23.7C237.69,818.49,208.72,818.38,178.74,801.14Z"/><path class="cls-1" d="M222.2,780.81c-24,0-43.46,9.1-43.46,20.33s19.46,20.32,43.46,20.32,43.47-9.1,43.47-20.32S246.21,780.81,222.2,780.81Zm.57,22.58c-6.24,0-11.29-2.52-11.29-5.64s5.05-5.65,11.29-5.65,11.29,2.53,11.29,5.65S229,803.39,222.77,803.39Z"/><path class="cls-3" d="M419,1048.26a1,1,0,0,1,1.15,1.13v.89a1,1,0,0,1-1.15,1.13h-3.81v12.2a1,1,0,0,1-1.13,1.13H412.6a1,1,0,0,1-1.13-1.13v-12.2H407.7a1,1,0,0,1-1.13-1.13v-.89a1,1,0,0,1,1.13-1.13Z"/><path class="cls-3" d="M426,1065a7,7,0,0,1-5.06-1.79,5.84,5.84,0,0,1-1.91-4.47,6.17,6.17,0,0,1,1.83-4.49,6.47,6.47,0,0,1,4.81-1.86,6.65,6.65,0,0,1,4.49,1.56,5.82,5.82,0,0,1,1.93,4.37.81.81,0,0,1-.29.74,1.33,1.33,0,0,1-.86.25h-8.43a2.37,2.37,0,0,0,1,2,4.23,4.23,0,0,0,2.72.84,5.33,5.33,0,0,0,2.68-.73,1.15,1.15,0,0,1,1.61.24l.25.33a1,1,0,0,1-.21,1.67A7.56,7.56,0,0,1,426,1065Zm-3.39-7.72h6.07a2.4,2.4,0,0,0-1.07-1.63,3.58,3.58,0,0,0-1.9-.51,3.79,3.79,0,0,0-1.95.52A2.48,2.48,0,0,0,422.65,1057.27Z"/><path class="cls-3" d="M433.9,1064.74c-.49,0-.8-.14-.92-.42s0-.6.28-1l4.05-4.85-3.6-4.47c-.3-.38-.39-.71-.26-1s.43-.41.92-.41h1.48a1.65,1.65,0,0,1,1.39.68l2.33,2.8,2.33-2.8a1.67,1.67,0,0,1,1.39-.68h1.53c.48,0,.79.14.92.41a1,1,0,0,1-.26,1l-3.65,4.47,4.05,4.85c.31.37.4.7.28,1s-.43.42-.92.42h-1.41a1.81,1.81,0,0,1-1.39-.64l-2.87-3.41-2.87,3.41a1.81,1.81,0,0,1-1.39.64Z"/><path class="cls-3" d="M453.34,1065a5.34,5.34,0,0,1-1.53-.21,4.32,4.32,0,0,1-1.34-.67,2.94,2.94,0,0,1-1-1.33,5.21,5.21,0,0,1-.37-2.07v-5.37h-1.2c-.41,0-.61-.19-.61-.58v-1.53c0-.4.2-.59.61-.59h1.48l.4-2.45a.84.84,0,0,1,.92-.75h1.15a.73.73,0,0,1,.83.82v2.38h2.73a.52.52,0,0,1,.59.59v1.53a.52.52,0,0,1-.59.58h-2.73v5.49c0,.83.33,1.25,1,1.25a1,1,0,0,0,.73-.31,1.16,1.16,0,0,0,.28-.8c0-.17,0-.31,0-.42-.05-.43.11-.64.49-.64h1.44a.59.59,0,0,1,.65.47,3.64,3.64,0,0,1-1,3.7A4.49,4.49,0,0,1,453.34,1065Z"/><path class="cls-3" d="M463.32,1065a3.79,3.79,0,0,1-3.33-1.51,6.56,6.56,0,0,1-1.07-3.88v-5.83a1,1,0,0,1,1.12-1.13h1.39a1,1,0,0,1,1.13,1.13v5.58a3.48,3.48,0,0,0,.5,2,1.62,1.62,0,0,0,1.41.7,2.38,2.38,0,0,0,1.78-.83,3.46,3.46,0,0,0,.76-2.42v-5a1,1,0,0,1,1.13-1.13h1.37a1,1,0,0,1,1.15,1.13v9.84a1,1,0,0,1-1.15,1.13h-1.37a1,1,0,0,1-1.13-1.13v-.78A3.65,3.65,0,0,1,463.32,1065Z"/><path class="cls-3" d="M474.71,1064.74a1,1,0,0,1-1.13-1.13v-9.84a1,1,0,0,1,1.13-1.13H476a1,1,0,0,1,1.13,1.13v1.5a3.32,3.32,0,0,1,1.21-2.19,3.23,3.23,0,0,1,1.92-.7l.4,0c.46,0,.69.35.69,1V1055a.94.94,0,0,1-.23.71.71.71,0,0,1-.6.17,4.37,4.37,0,0,0-.59-.05,2.38,2.38,0,0,0-1.95.92,4.81,4.81,0,0,0-.75,3v3.82a1,1,0,0,1-1.13,1.13Z"/><path class="cls-3" d="M486.51,1050.66a2.61,2.61,0,0,1-3.18,0,1.73,1.73,0,0,1-.6-1.34,1.8,1.8,0,0,1,.58-1.38,2.3,2.3,0,0,1,1.61-.53,2.26,2.26,0,0,1,1.6.54,1.77,1.77,0,0,1,.59,1.37A1.73,1.73,0,0,1,486.51,1050.66Zm-2.27,14.08a1,1,0,0,1-1.13-1.13v-9.84a1,1,0,0,1,1.13-1.13h1.37a1,1,0,0,1,1.15,1.13v9.84a1,1,0,0,1-1.15,1.13Z"/><path class="cls-3" d="M490.1,1064.74a1,1,0,0,1-1.13-1.13v-.15a2.08,2.08,0,0,1,.54-1.41l6.15-6.59h-5.25a1,1,0,0,1-1.13-1.13v-.56a1,1,0,0,1,1.13-1.13h9.32a1,1,0,0,1,1.13,1.13v.16a2,2,0,0,1-.54,1.41l-6.12,6.57h5.93a1,1,0,0,1,1.15,1.13v.57a1,1,0,0,1-1.15,1.13Z"/><path class="cls-3" d="M506.89,1050.66a2.6,2.6,0,0,1-3.17,0,1.73,1.73,0,0,1-.6-1.34,1.79,1.79,0,0,1,.57-1.38,2.32,2.32,0,0,1,1.62-.53,2.3,2.3,0,0,1,1.6.54,1.8,1.8,0,0,1,.58,1.37A1.73,1.73,0,0,1,506.89,1050.66Zm-2.27,14.08a1,1,0,0,1-1.13-1.13v-9.84a1,1,0,0,1,1.13-1.13H506a1,1,0,0,1,1.15,1.13v9.84a1,1,0,0,1-1.15,1.13Z"/><path class="cls-3" d="M511.21,1064.74a1,1,0,0,1-1.13-1.13v-9.84a1,1,0,0,1,1.13-1.13h1.39a1,1,0,0,1,1.13,1.13v.8a3.59,3.59,0,0,1,3.67-2.19,3.81,3.81,0,0,1,3.36,1.52,6.58,6.58,0,0,1,1.07,3.87v5.84a1,1,0,0,1-1.15,1.13h-1.37a1,1,0,0,1-1.13-1.13V1058a3.41,3.41,0,0,0-.49-2,1.63,1.63,0,0,0-1.42-.71,2.36,2.36,0,0,0-1.79.83,3.45,3.45,0,0,0-.75,2.4v5a1,1,0,0,1-1.13,1.13Z"/><path class="cls-3" d="M530.37,1070.27a10.15,10.15,0,0,1-4.71-1.09,1,1,0,0,1-.4-1.55l.29-.52a1,1,0,0,1,1.53-.42,6.41,6.41,0,0,0,3,.75,3.62,3.62,0,0,0,2.56-.88,3.42,3.42,0,0,0,.95-2.62v-.9a4.34,4.34,0,0,1-3.91,2,5.32,5.32,0,0,1-4.15-1.83,6.93,6.93,0,0,1,0-9,5.32,5.32,0,0,1,4.15-1.83,4.27,4.27,0,0,1,3.86,2v-.69c0-.69.39-1,1.16-1H536a1,1,0,0,1,1.13,1.13v10.07a6,6,0,0,1-1.87,4.85A7.27,7.27,0,0,1,530.37,1070.27Zm-2.1-9.14a2.73,2.73,0,0,0,2.2,1,2.81,2.81,0,0,0,2.22-1,3.7,3.7,0,0,0,.88-2.46,3.66,3.66,0,0,0-.88-2.46,2.82,2.82,0,0,0-2.22-1,2.71,2.71,0,0,0-2.2,1,3.67,3.67,0,0,0-.84,2.44A3.62,3.62,0,0,0,528.27,1061.13Z"/><path class="cls-10" d="M498,945c-21.8-4-40.73,6.2-39,31l20.36,31,46.93-40.73Z"/><path class="cls-1" d="M529.92,969.8c-11.51-15-37.19-12.4-50.47,9.74-12.4,30.1,12.4,43.38,31,37.19C530.92,1010.81,543.2,989.28,529.92,969.8Z"/><ellipse class="cls-8" cx="508.34" cy="992.6" rx="11.28" ry="10.65" transform="translate(-402.53 349.18) rotate(-27.64)"/><ellipse class="cls-11" cx="509.29" cy="993.53" rx="9.19" ry="7.83" transform="translate(-476.73 469.85) rotate(-34.89)"/><path class="cls-1" d="M409.22,935.24v57h1.34c2.48,3.43,14.67,6.05,29.33,6.05s26.85-2.62,29.34-6.05h.47v-57Z"/><path class="cls-12" d="M448.1,927.47c-2.73-.21-6.08,0-9.07,0s-6.35-.21-9.07,0l-20.73,7.45c.24,4,13.48,7.23,29.8,7.23s29.56-3.23,29.8-7.23Z"/><path class="cls-8" d="M448.53,931.79a86.31,86.31,0,0,1-19,0v-8.65h19Z"/><path class="cls-13" d="M146.61,1179.68c13.68,16.75,27,23.38,38.66,25.18,7.92,1.23,11.86-.26,20.17.8,16,2,29.09,11.07,39.54,21.77"/><path class="cls-14" d="M142.28,1191.58c13.68,16.75,27,23.37,38.67,25.18,7.91,1.22,11.85-.27,20.17.8,16,2,29.09,11.06,39.54,21.76"/><path class="cls-15" d="M120.49,1235.25c21.36-3.42,33.77-11.6,41.19-20.79,5-6.24,5.72-10.39,10.82-17,9.78-12.78,24.17-19.6,38.67-23.27"/><path class="cls-14" d="M131.33,1241.77c21.36-3.42,33.77-11.61,41.19-20.8,5-6.23,5.72-10.39,10.82-17,9.78-12.78,24.17-19.59,38.67-23.26"/><path class="cls-16" d="M141.21,1248.3c21.36-3.42,33.77-11.6,41.19-20.79,5-6.24,5.72-10.39,10.82-17,9.78-12.78,24.17-19.6,38.67-23.27"/><path class="cls-13" d="M150.31,1256.21c21.36-3.42,33.77-11.6,41.19-20.8,5-6.23,5.72-10.38,10.82-17,9.78-12.79,24.17-19.6,38.67-23.27"/><path class="cls-17" d="M137.1,1203.12c13.68,16.75,27,23.38,38.67,25.18,7.91,1.23,11.85-.26,20.17.8,16,2,29.09,11.07,39.54,21.77"/><path class="cls-18" d="M183.66,1153.2a9,9,0,0,1-18.06,0c0-5,9-23.08,9-23.08S183.66,1148.21,183.66,1153.2Z"/><circle class="cls-8" cx="263.57" cy="1238.75" r="3.77"/><circle class="cls-19" cx="258.6" cy="1196.61" r="4.34"/><circle class="cls-20" cx="277.71" cy="1226.19" r="6.01"/><circle class="cls-1" cx="283.44" cy="1179.42" r="6.01"/><path class="cls-21" d="M549.27,1365.05c-18.94,7.3-34.12,18.75-44.36,35.65-6.85,14.57-22.25,25.4-42.46,34.12l-40.14-50c17.56-8.06,32.9-18.54,43.12-34.65,7.58-18.49,22.77-29.6,43.7-35.12Z"/><path class="cls-22" d="M507.42,114.35h5.95a1,1,0,0,1,1,1v6.33h1a.38.38,0,0,1,.38.39h0v.63a.38.38,0,0,1-.38.38h-.61a.4.4,0,0,0-.39.39V125a1.35,1.35,0,0,0,.59,1.12c1.62,1.13,7.82,4.42,8.76,6.91,1.09,2.84,1.16,7.59,1.17,9.06a1.33,1.33,0,0,1-.1.48,3.55,3.55,0,0,0,.24,3.86,1.07,1.07,0,0,1,.17.6v47.63a1.17,1.17,0,0,1-.26.74,2.63,2.63,0,0,0-.06,3.62,1.21,1.21,0,0,1,.29.85l-.31,5.13s-.22,3.67-6.07,3.67H497.28c-5.63,0-6.06-3.67-6.06-3.67l-.31-5.13a1.2,1.2,0,0,1,.28-.85,2.63,2.63,0,0,0-.06-3.62,1.17,1.17,0,0,1-.26-.74V147a1.22,1.22,0,0,1,.17-.61,3.54,3.54,0,0,0,.25-3.85,1.37,1.37,0,0,1-.1-.48c0-1.47.08-6.22,1.16-9.06.95-2.49,7.15-5.78,8.77-6.91a1.38,1.38,0,0,0,.58-1.12v-1.53a.4.4,0,0,0-.39-.39h-.6a.38.38,0,0,1-.39-.38V122a.38.38,0,0,1,.39-.39h.6a.39.39,0,0,0,.39-.39v-5.94a1,1,0,0,1,1-1Z"/><path class="cls-1" d="M351,282.93a5.88,5.88,0,0,1,10.45-2.78l1-1.37a7.55,7.55,0,0,0-13.19,4.15h-2.57l3.36,4.41,3.36-4.41Z"/><path class="cls-1" d="M363.52,280.18l-3.36,4.41h2.45a5.87,5.87,0,0,1-10.45,2.79l-1.05,1.37a7.56,7.56,0,0,0,13.2-4.16h2.57Z"/><line class="cls-2" x1="340.82" y1="182.9" x2="367.72" y2="182.9"/><line class="cls-2" x1="340.82" y1="589.9" x2="367.72" y2="589.9"/><line class="cls-2" x1="340.82" y1="996.74" x2="367.72" y2="996.74"/><line class="cls-2" x1="340.82" y1="1403.59" x2="367.72" y2="1403.59"/><line class="cls-2" x1="312.24" y1="386.48" x2="339.14" y2="386.48"/><line class="cls-2" x1="312.24" y1="793.32" x2="339.14" y2="793.32"/><line class="cls-2" x1="312.24" y1="1200.17" x2="339.14" y2="1200.17"/></g></svg>