<svg xmlns="http://www.w3.org/2000/svg" viewBox="0 0 598.64 335.71"><defs><style>.cls-1{fill:#fff;}.cls-2{fill:#bdbdbd;}</style></defs><title>m_fig5</title><g id="圖層_2" data-name="圖層 2"><path class="cls-1" d="M160.8,183.27a.86.86,0,0,1-.66-.24.85.85,0,0,1-.2-.67l1.44-15.07a.8.8,0,0,1,.89-.82h1.27a1,1,0,0,1,1,.67l5.23,12.51L175,167.14a1.06,1.06,0,0,1,1-.67h1.25a.81.81,0,0,1,.91.82l1.42,15.07a.89.89,0,0,1-.2.67.82.82,0,0,1-.64.24h-.8a.82.82,0,0,1-.93-.81l-1-12.12-5,12a1,1,0,0,1-1,.67h-.41a1,1,0,0,1-1-.67l-5-12-1.05,12.12a.81.81,0,0,1-.92.81Z"/><path class="cls-1" d="M188.76,183.54a7.86,7.86,0,0,1-2.79-.48,6.23,6.23,0,0,1-2.19-1.35,5.85,5.85,0,0,1-1.37-2,6.49,6.49,0,0,1,0-4.85,6.22,6.22,0,0,1,1.35-2,6.49,6.49,0,0,1,2.09-1.35,6.71,6.71,0,0,1,2.56-.5,7,7,0,0,1,2.18.35,5.73,5.73,0,0,1,1.9,1.06,5.53,5.53,0,0,1,1.38,1.79,6.71,6.71,0,0,1,.66,2.44.77.77,0,0,1-.18.65.89.89,0,0,1-.66.24h-9.32a3.38,3.38,0,0,0,1.2,2.77,4.69,4.69,0,0,0,3.2,1.1,5.71,5.71,0,0,0,3.26-1,.88.88,0,0,1,1.22.12l.17.19a.83.83,0,0,1,.25.67,1.08,1.08,0,0,1-.42.7A7,7,0,0,1,188.76,183.54Zm-4.15-7.85h7.49a3.48,3.48,0,0,0-.81-1.5,3.3,3.3,0,0,0-1.26-.83,4.77,4.77,0,0,0-3.19,0,3.65,3.65,0,0,0-1.33.85A3.89,3.89,0,0,0,184.61,175.69Z"/><path class="cls-1" d="M198.12,183.27a.92.92,0,0,1-.65-.22.86.86,0,0,1-.24-.64V166.78a.82.82,0,0,1,.24-.63.92.92,0,0,1,.65-.23h.72a.88.88,0,0,1,.64.23.85.85,0,0,1,.23.63v15.63a.9.9,0,0,1-.23.64.87.87,0,0,1-.64.22Z"/><path class="cls-1" d="M207.82,183.54a4.82,4.82,0,0,1-1.38-.21,3.12,3.12,0,0,1-1.26-.69,3.34,3.34,0,0,1-.87-1.29,5.34,5.34,0,0,1-.31-1.89v-6.29h-1.46a.44.44,0,0,1-.35-.15.48.48,0,0,1-.13-.36v-.93a.45.45,0,0,1,.48-.48h1.51l.43-2.76a.88.88,0,0,1,.25-.51.77.77,0,0,1,.52-.19h.5a.67.67,0,0,1,.52.22.72.72,0,0,1,.2.53v2.71h3.29a.45.45,0,0,1,.48.48v.93a.48.48,0,0,1-.13.36.44.44,0,0,1-.35.15h-3.29v6.43a2,2,0,0,0,.4,1.36,1.3,1.3,0,0,0,1,.44,1.52,1.52,0,0,0,1-.35,1.15,1.15,0,0,0,.42-1l-.05-.45a.64.64,0,0,1,.09-.4.4.4,0,0,1,.35-.15h1.1a.49.49,0,0,1,.55.43,3.57,3.57,0,0,1,.1.89,2.87,2.87,0,0,1-1,2.25A3.79,3.79,0,0,1,207.82,183.54Z"/><path class="cls-1" d="M214.85,169.06a1.61,1.61,0,0,1-1.18-.48,1.55,1.55,0,0,1-.48-1.15,1.65,1.65,0,0,1,.48-1.19,1.62,1.62,0,0,1,1.18-.49,1.68,1.68,0,0,1,1.21.49,1.62,1.62,0,0,1,.49,1.19,1.49,1.49,0,0,1-.5,1.15A1.69,1.69,0,0,1,214.85,169.06Zm-.34,14.21a.87.87,0,0,1-.64-.22.86.86,0,0,1-.24-.64v-10.3a.82.82,0,0,1,.24-.63.84.84,0,0,1,.64-.23h.72a.82.82,0,0,1,.64.23.85.85,0,0,1,.23.63v10.3a.9.9,0,0,1-.23.64.86.86,0,0,1-.64.22Z"/><path class="cls-1" d="M220.68,183.27a.92.92,0,0,1-.65-.22.86.86,0,0,1-.24-.64v-10.3a.82.82,0,0,1,.24-.63.88.88,0,0,1,.65-.23h.72a.84.84,0,0,1,.64.23.85.85,0,0,1,.23.63v1.49a3.34,3.34,0,0,1,1.46-1.93,4.62,4.62,0,0,1,2.54-.69,5,5,0,0,1,1.85.34,4.14,4.14,0,0,1,1.47,1,4.81,4.81,0,0,1,1,1.73,8,8,0,0,1,.33,2.41v5.93a.86.86,0,0,1-.24.64.92.92,0,0,1-.65.22h-.72a.85.85,0,0,1-.63-.22.9.9,0,0,1-.23-.64v-5.9a5.17,5.17,0,0,0-.29-1.85,2.3,2.3,0,0,0-.84-1.13,2.15,2.15,0,0,0-1.27-.39,3.74,3.74,0,0,0-1.13.21,3.52,3.52,0,0,0-1.25.71,3.65,3.65,0,0,0-1,1.4,5.44,5.44,0,0,0-.38,2.17v4.78a.9.9,0,0,1-.23.64.87.87,0,0,1-.64.22Z"/><path class="cls-1" d="M239.83,188.91a8.12,8.12,0,0,1-4.56-1.25.82.82,0,0,1-.26-1.19l.19-.34c.26-.53.65-.62,1.18-.29a5.71,5.71,0,0,0,1.68.71,7.32,7.32,0,0,0,1.75.23,3.94,3.94,0,0,0,2.83-1,3.75,3.75,0,0,0,1.06-2.86v-1.53a4.8,4.8,0,0,1-1.91,1.64,5.67,5.67,0,0,1-2.39.52,6,6,0,0,1-2.41-.49,5.69,5.69,0,0,1-1.91-1.36,6,6,0,0,1-1.21-2,7,7,0,0,1-.42-2.42,6.9,6.9,0,0,1,.42-2.41,6,6,0,0,1,1.21-2,5.81,5.81,0,0,1,1.91-1.35,5.88,5.88,0,0,1,2.41-.5,5.67,5.67,0,0,1,2.39.52,4.88,4.88,0,0,1,1.91,1.64v-1a.79.79,0,0,1,.24-.61.86.86,0,0,1,.65-.23h.69a.88.88,0,0,1,.65.23.82.82,0,0,1,.24.63v11a5.91,5.91,0,0,1-.77,3.1,5.42,5.42,0,0,1-2.18,2A7.31,7.31,0,0,1,239.83,188.91Zm-.09-7.53a3.78,3.78,0,0,0,2.86-1.17,4.4,4.4,0,0,0,0-5.93,3.82,3.82,0,0,0-6.15.76,4.87,4.87,0,0,0,0,4.42,3.55,3.55,0,0,0,3.29,1.92Z"/><path class="cls-1" d="M250.08,186.32l-.23.05c-.1,0-.19-.06-.27-.22l-.12-.24a.34.34,0,0,1-.05-.3.36.36,0,0,1,.24-.2,2.76,2.76,0,0,0,.75-.58,2.49,2.49,0,0,0,.58-.92,2.87,2.87,0,0,0,.2-1l-.4.1a1.2,1.2,0,0,1-1-.37,1.43,1.43,0,0,1-.42-1,1.48,1.48,0,0,1,.43-1.14,1.69,1.69,0,0,1,1.29-.47,1.45,1.45,0,0,1,1.1.42,1.93,1.93,0,0,1,.5.88,3.43,3.43,0,0,1,.11.71,5,5,0,0,1-.4,2,3.9,3.9,0,0,1-1,1.5A4.52,4.52,0,0,1,250.08,186.32Z"/><path class="cls-1" d="M272.62,168.56h-7.35V174h6.29a.9.9,0,0,1,.64.23.85.85,0,0,1,.22.63v.31a.9.9,0,0,1-.22.65.86.86,0,0,1-.64.24h-6.29v5.11h7.35a.88.88,0,0,1,.62.23.84.84,0,0,1,.24.64v.36a.86.86,0,0,1-.24.64.87.87,0,0,1-.62.22h-9a.78.78,0,0,1-.86-.86V167.34a.82.82,0,0,1,.23-.64.85.85,0,0,1,.63-.23h9a.88.88,0,0,1,.62.23.83.83,0,0,1,.24.64v.36a.82.82,0,0,1-.24.63A.88.88,0,0,1,272.62,168.56Z"/><path class="cls-1" d="M276.19,183.27c-.37,0-.6-.11-.69-.32s0-.47.21-.76L280,177l-3.93-4.72a.71.71,0,0,1-.19-.75c.09-.21.32-.31.69-.31h.75a1.31,1.31,0,0,1,1.05.48l3.27,3.86,3.26-3.86a1.34,1.34,0,0,1,1.08-.48h.72c.38,0,.62.1.72.31s0,.46-.22.75L283.25,177l4.29,5.16a.75.75,0,0,1,.2.76c-.1.21-.33.32-.7.32h-.86a1.3,1.3,0,0,1-1.06-.5l-3.5-4.2-3.48,4.2a1.38,1.38,0,0,1-1.08.5Z"/><path class="cls-1" d="M294.79,183.54a4.82,4.82,0,0,1-1.38-.21,3.12,3.12,0,0,1-1.26-.69,3.32,3.32,0,0,1-.86-1.29,5.13,5.13,0,0,1-.31-1.89v-6.29h-1.47a.45.45,0,0,1-.35-.15.53.53,0,0,1-.13-.36v-.93a.5.5,0,0,1,.13-.35.48.48,0,0,1,.35-.13H291l.44-2.76a.83.83,0,0,1,.25-.51.75.75,0,0,1,.51-.19h.51a.64.64,0,0,1,.51.22.72.72,0,0,1,.21.53v2.71h3.29a.44.44,0,0,1,.34.13.47.47,0,0,1,.14.35v.93a.49.49,0,0,1-.14.36.42.42,0,0,1-.34.15h-3.29v6.43a2,2,0,0,0,.39,1.36,1.31,1.31,0,0,0,1,.44,1.54,1.54,0,0,0,1-.35,1.15,1.15,0,0,0,.42-1l-.05-.45a.58.58,0,0,1,.08-.4.4.4,0,0,1,.35-.15h1.1a.49.49,0,0,1,.56.43,4.13,4.13,0,0,1,.09.89,2.87,2.87,0,0,1-1,2.25A3.79,3.79,0,0,1,294.79,183.54Z"/><path class="cls-1" d="M301.42,183.27a.9.9,0,0,1-.65-.22.86.86,0,0,1-.24-.64v-10.3a.82.82,0,0,1,.24-.63.86.86,0,0,1,.65-.23h.72a.82.82,0,0,1,.63.23.85.85,0,0,1,.23.63v1.83a5.34,5.34,0,0,1,.54-1.36,3.07,3.07,0,0,1,1.14-1.15,3,3,0,0,1,1.54-.45l.52,0c.39.05.58.37.58,1v.69c0,.6-.22.85-.65.75a2.76,2.76,0,0,0-.65-.07,2.45,2.45,0,0,0-1.39.44,3.44,3.44,0,0,0-1.15,1.63,9,9,0,0,0-.48,3.28v3.72a.9.9,0,0,1-.23.64.85.85,0,0,1-.63.22Z"/><path class="cls-1" d="M313.82,183.54a4.78,4.78,0,0,1-1.84-.34,3.79,3.79,0,0,1-1.46-1,4.7,4.7,0,0,1-.94-1.73,7.66,7.66,0,0,1-.34-2.41v-5.93a.85.85,0,0,1,.23-.63.82.82,0,0,1,.63-.23h.72a.86.86,0,0,1,.65.23.82.82,0,0,1,.24.63V178a6,6,0,0,0,.24,1.68,2.27,2.27,0,0,0,.83,1.24,2.15,2.15,0,0,0,1.31.44,3.47,3.47,0,0,0,1.16-.22,3.64,3.64,0,0,0,1.23-.72,3.83,3.83,0,0,0,1-1.4,5.58,5.58,0,0,0,.38-2.15v-4.78a.85.85,0,0,1,.23-.63.82.82,0,0,1,.64-.23h.72a.85.85,0,0,1,.64.23.82.82,0,0,1,.24.63v10.3a.86.86,0,0,1-.24.64.89.89,0,0,1-.64.22h-.72a.86.86,0,0,1-.64-.22.9.9,0,0,1-.23-.64v-1.49a3.34,3.34,0,0,1-1.46,1.93A4.63,4.63,0,0,1,313.82,183.54Z"/><path class="cls-1" d="M329,183.54a5.92,5.92,0,0,1-2.4-.49,5.65,5.65,0,0,1-1.9-1.36,6,6,0,0,1-1.22-2,6.9,6.9,0,0,1,0-4.85,6.06,6.06,0,0,1,1.22-2,5.47,5.47,0,0,1,1.9-1.34A5.76,5.76,0,0,1,329,171a5.66,5.66,0,0,1,2.38.52,4.81,4.81,0,0,1,1.91,1.64v-6.36a.82.82,0,0,1,.24-.63.92.92,0,0,1,.65-.23h.72a.9.9,0,0,1,.64.23.85.85,0,0,1,.22.63v15.63a.77.77,0,0,1-.86.86h-.72a.92.92,0,0,1-.65-.22.86.86,0,0,1-.24-.64v-1A4.73,4.73,0,0,1,331.4,183,5.66,5.66,0,0,1,329,183.54Zm.33-2.16a3.78,3.78,0,0,0,2.87-1.17,4.43,4.43,0,0,0,0-5.93,4.08,4.08,0,0,0-4.79-.67,3.85,3.85,0,0,0-1.37,1.43,5,5,0,0,0,0,4.42,3.91,3.91,0,0,0,1.36,1.43A3.79,3.79,0,0,0,329.35,181.38Z"/><path class="cls-1" d="M340.7,169.06a1.59,1.59,0,0,1-1.17-.48,1.55,1.55,0,0,1-.48-1.15,1.65,1.65,0,0,1,.48-1.19,1.6,1.6,0,0,1,1.17-.49,1.7,1.7,0,0,1,1.22.49,1.66,1.66,0,0,1,.49,1.19,1.5,1.5,0,0,1-.51,1.15A1.66,1.66,0,0,1,340.7,169.06Zm-.33,14.21a.92.92,0,0,1-.65-.22.86.86,0,0,1-.24-.64v-10.3a.82.82,0,0,1,.24-.63.88.88,0,0,1,.65-.23h.72a.8.8,0,0,1,.86.86v10.3a.78.78,0,0,1-.86.86Z"/><path class="cls-1" d="M346.54,183.27a.9.9,0,0,1-.65-.22.86.86,0,0,1-.24-.64v-10.3a.82.82,0,0,1,.24-.63.86.86,0,0,1,.65-.23h.72a.82.82,0,0,1,.63.23.85.85,0,0,1,.23.63v1.49a3.34,3.34,0,0,1,1.46-1.93,4.63,4.63,0,0,1,2.55-.69,5,5,0,0,1,1.84.34,4.14,4.14,0,0,1,1.47,1,4.66,4.66,0,0,1,1,1.73,8,8,0,0,1,.33,2.41v5.93a.9.9,0,0,1-.23.64.92.92,0,0,1-.65.22h-.72a.86.86,0,0,1-.64-.22.9.9,0,0,1-.23-.64v-5.9a5,5,0,0,0-.29-1.85,2.35,2.35,0,0,0-.83-1.13,2.18,2.18,0,0,0-1.28-.39,3.79,3.79,0,0,0-1.13.21,3.48,3.48,0,0,0-1.24.71,3.66,3.66,0,0,0-1,1.4,5.62,5.62,0,0,0-.38,2.17v4.78a.9.9,0,0,1-.23.64.85.85,0,0,1-.63.22Z"/><path class="cls-1" d="M365.69,188.91a8.12,8.12,0,0,1-4.56-1.25.83.83,0,0,1-.27-1.19l.2-.34c.25-.53.64-.62,1.17-.29a5.71,5.71,0,0,0,1.68.71,7.32,7.32,0,0,0,1.75.23,4,4,0,0,0,2.84-1,3.78,3.78,0,0,0,1.05-2.86v-1.53a4.73,4.73,0,0,1-1.91,1.64,5.66,5.66,0,0,1-2.38.52,6.08,6.08,0,0,1-2.42-.49,5.55,5.55,0,0,1-1.9-1.36,6,6,0,0,1-1.22-2,7,7,0,0,1-.42-2.42,6.9,6.9,0,0,1,.42-2.41,6.06,6.06,0,0,1,1.22-2,5.66,5.66,0,0,1,1.9-1.35,5.92,5.92,0,0,1,2.42-.5,5.66,5.66,0,0,1,2.38.52,4.81,4.81,0,0,1,1.91,1.64v-1a.79.79,0,0,1,.24-.61.88.88,0,0,1,.65-.23h.7a.85.85,0,0,1,.64.23.82.82,0,0,1,.24.63v11a5.91,5.91,0,0,1-.76,3.1,5.51,5.51,0,0,1-2.19,2A7.24,7.24,0,0,1,365.69,188.91Zm-.1-7.53a3.78,3.78,0,0,0,2.87-1.17,4.43,4.43,0,0,0,0-5.93,4.08,4.08,0,0,0-4.79-.67A3.85,3.85,0,0,0,362.3,175a5,5,0,0,0,0,4.42,3.91,3.91,0,0,0,1.36,1.43A3.79,3.79,0,0,0,365.59,181.38Z"/><path class="cls-2" d="M161.11,156.1a1.36,1.36,0,0,1-1-.38,1.24,1.24,0,0,1-.26-1.05l1.57-16.88a1.23,1.23,0,0,1,1.4-1.29h2a1.58,1.58,0,0,1,1.57,1.06l5,12.18,5-12.18a1.53,1.53,0,0,1,1.54-1.06h2a1.27,1.27,0,0,1,1.4,1.29l1.57,16.88c.09,1-.34,1.43-1.29,1.43h-1.71a1.29,1.29,0,0,1-1.43-1.29l-.89-10.7-4.31,10.7a1.54,1.54,0,0,1-1.54,1.07H171a1.54,1.54,0,0,1-1.54-1.07l-4.31-10.7-.93,10.7a1.23,1.23,0,0,1-1.4,1.29Z"/><path class="cls-2" d="M193.39,156.41a8.44,8.44,0,0,1-6-2.13A7,7,0,0,1,185.1,149a7.34,7.34,0,0,1,2.19-5.35A7.68,7.68,0,0,1,193,141.4a7.91,7.91,0,0,1,5.35,1.86,6.91,6.91,0,0,1,2.29,5.2,1,1,0,0,1-.35.88,1.65,1.65,0,0,1-1,.29h-10a2.76,2.76,0,0,0,1.19,2.35,5,5,0,0,0,3.23,1,6.38,6.38,0,0,0,3.19-.87,1.36,1.36,0,0,1,1.91.28l.3.4a1.2,1.2,0,0,1-.25,2A8.94,8.94,0,0,1,193.39,156.41Zm-4-9.19h7.22a2.83,2.83,0,0,0-1.27-1.94,4.32,4.32,0,0,0-2.26-.6,4.47,4.47,0,0,0-2.32.61A3,3,0,0,0,189.36,147.22Z"/><path class="cls-2" d="M210.5,156.41a8.44,8.44,0,0,1-6-2.13,6.89,6.89,0,0,1-2.3-5.29,7.2,7.2,0,0,1,2.28-5.41,8.34,8.34,0,0,1,6-2.18,8.93,8.93,0,0,1,4.56,1.2c.77.49.85,1.12.25,1.91l-.44.56a1.46,1.46,0,0,1-1.91.33,5.07,5.07,0,0,0-2.21-.5,4.2,4.2,0,0,0-3,1.12,4.09,4.09,0,0,0,0,5.77,4.25,4.25,0,0,0,3,1.12,4.94,4.94,0,0,0,2.21-.51,1.42,1.42,0,0,1,1.91.34l.44.56a1.23,1.23,0,0,1,.3,1.08,1.44,1.44,0,0,1-.8.93A8.61,8.61,0,0,1,210.5,156.41Z"/><path class="cls-2" d="M219.77,156.1a1.19,1.19,0,0,1-1.35-1.34V137.2a1.19,1.19,0,0,1,1.35-1.35h1.65a1.19,1.19,0,0,1,1.34,1.35V144q1.1-2.59,4.37-2.6a4.54,4.54,0,0,1,4,1.81,7.76,7.76,0,0,1,1.27,4.6v6.95A1.2,1.2,0,0,1,231,156.1H229.4a1.19,1.19,0,0,1-1.35-1.34v-6.64a4.06,4.06,0,0,0-.58-2.35,2,2,0,0,0-1.68-.84,2.76,2.76,0,0,0-2.13,1,4.06,4.06,0,0,0-.9,2.85v6a1.19,1.19,0,0,1-1.34,1.34Z"/><path class="cls-2" d="M241.72,156.41a6.46,6.46,0,0,1-5-2.14,8.3,8.3,0,0,1,0-10.71,6.41,6.41,0,0,1,5-2.16,5.11,5.11,0,0,1,4.62,2.35v-.7a1.18,1.18,0,0,1,1.34-1.34h1.65a1.19,1.19,0,0,1,1.35,1.34v11.71a1.19,1.19,0,0,1-1.35,1.34h-1.65a1.19,1.19,0,0,1-1.34-1.34v-.68A5.14,5.14,0,0,1,241.72,156.41Zm1-3.48a3.38,3.38,0,0,0,2.64-1.14,4.59,4.59,0,0,0,0-5.77,3.35,3.35,0,0,0-2.64-1.15,3.23,3.23,0,0,0-2.62,1.16,4.76,4.76,0,0,0,0,5.76A3.24,3.24,0,0,0,242.73,152.93Z"/><path class="cls-2" d="M255.49,156.1a1.19,1.19,0,0,1-1.34-1.34V143.05a1.18,1.18,0,0,1,1.34-1.34h1.66a1.18,1.18,0,0,1,1.34,1.34V144c.73-1.73,2.18-2.6,4.37-2.6a4.54,4.54,0,0,1,4,1.81,7.76,7.76,0,0,1,1.27,4.6v6.95a1.2,1.2,0,0,1-1.37,1.34h-1.62a1.19,1.19,0,0,1-1.35-1.34v-6.64a4,4,0,0,0-.59-2.35,1.92,1.92,0,0,0-1.68-.84,2.74,2.74,0,0,0-2.12,1,4.06,4.06,0,0,0-.9,2.85v6a1.19,1.19,0,0,1-1.34,1.34Z"/><path class="cls-2" d="M275.5,139.35a3.07,3.07,0,0,1-3.78,0,2,2,0,0,1-.71-1.59,2.11,2.11,0,0,1,.68-1.64,2.74,2.74,0,0,1,1.92-.63,2.69,2.69,0,0,1,1.9.65,2.08,2.08,0,0,1,.7,1.62A2,2,0,0,1,275.5,139.35Zm-2.7,16.75a1.19,1.19,0,0,1-1.35-1.34V143.05a1.19,1.19,0,0,1,1.35-1.34h1.62a1.19,1.19,0,0,1,1.37,1.34v11.71a1.2,1.2,0,0,1-1.37,1.34Z"/><path class="cls-2" d="M286.68,156.41a8.46,8.46,0,0,1-6-2.13A6.91,6.91,0,0,1,278.4,149a7.2,7.2,0,0,1,2.28-5.41,8.33,8.33,0,0,1,6-2.18,8.94,8.94,0,0,1,4.57,1.2c.76.49.85,1.12.25,1.91l-.45.56a1.44,1.44,0,0,1-1.9.33,5.07,5.07,0,0,0-2.21-.5,4.19,4.19,0,0,0-3,1.12,4.09,4.09,0,0,0,0,5.77,4.23,4.23,0,0,0,3,1.12,4.94,4.94,0,0,0,2.21-.51,1.4,1.4,0,0,1,1.9.34l.45.56a1.23,1.23,0,0,1,.3,1.08,1.47,1.47,0,0,1-.8.93A8.62,8.62,0,0,1,286.68,156.41Z"/><path class="cls-2" d="M300.38,156.41a6.46,6.46,0,0,1-5-2.14,8.3,8.3,0,0,1,0-10.71,6.41,6.41,0,0,1,5-2.16,5.11,5.11,0,0,1,4.62,2.35v-.7a1.18,1.18,0,0,1,1.34-1.34H308a1.19,1.19,0,0,1,1.35,1.34v11.71A1.19,1.19,0,0,1,308,156.1h-1.65a1.18,1.18,0,0,1-1.34-1.34v-.68A5.14,5.14,0,0,1,300.38,156.41Zm1-3.48a3.38,3.38,0,0,0,2.64-1.14,4.59,4.59,0,0,0,0-5.77,3.35,3.35,0,0,0-2.64-1.15,3.23,3.23,0,0,0-2.62,1.16,4.76,4.76,0,0,0,0,5.76A3.24,3.24,0,0,0,301.39,152.93Z"/><path class="cls-2" d="M314.21,156.1a1.19,1.19,0,0,1-1.35-1.34V137.2a1.19,1.19,0,0,1,1.35-1.35h1.62a1.2,1.2,0,0,1,1.37,1.35v17.56a1.2,1.2,0,0,1-1.37,1.34Z"/><path class="cls-2" d="M328.82,162.37a1.19,1.19,0,0,1-1.34-1.34v-18a1.18,1.18,0,0,1,1.34-1.34h1.66a1.18,1.18,0,0,1,1.34,1.34v.67a5.13,5.13,0,0,1,4.62-2.32,6.41,6.41,0,0,1,5,2.16,8.3,8.3,0,0,1,0,10.71,6.46,6.46,0,0,1-5,2.14,5.13,5.13,0,0,1-4.62-2.35v7a1.19,1.19,0,0,1-1.34,1.34Zm6.61-9.44a3.25,3.25,0,0,0,2.62-1.14,4.76,4.76,0,0,0,0-5.76,3.24,3.24,0,0,0-2.62-1.16,3.35,3.35,0,0,0-2.64,1.15,4.56,4.56,0,0,0,0,5.77A3.38,3.38,0,0,0,335.43,152.93Z"/><path class="cls-2" d="M347.3,156.1a1.19,1.19,0,0,1-1.34-1.34V143.05a1.18,1.18,0,0,1,1.34-1.34h1.54a1.19,1.19,0,0,1,1.35,1.34v1.79a3.88,3.88,0,0,1,1.44-2.6,3.83,3.83,0,0,1,2.28-.84l.48,0c.54,0,.81.42.81,1.14v2a1.13,1.13,0,0,1-.27.85.83.83,0,0,1-.71.19,6.25,6.25,0,0,0-.7,0,2.84,2.84,0,0,0-2.32,1.09,5.7,5.7,0,0,0-.9,3.61v4.54A1.19,1.19,0,0,1,349,156.1Z"/><path class="cls-2" d="M369.76,154.22a8.47,8.47,0,0,1-11.37,0,7.32,7.32,0,0,1,0-10.64,8.5,8.5,0,0,1,11.37,0,7.3,7.3,0,0,1,0,10.64Zm-8.43-2.46a3.85,3.85,0,0,0,5.49,0,4.17,4.17,0,0,0,0-5.69,3.89,3.89,0,0,0-5.5,0,4.19,4.19,0,0,0,0,5.69Z"/><path class="cls-2" d="M382,156.41a8.47,8.47,0,0,1-6-2.13,6.91,6.91,0,0,1-2.29-5.29,7.2,7.2,0,0,1,2.28-5.41,8.34,8.34,0,0,1,6-2.18,8.93,8.93,0,0,1,4.56,1.2c.77.49.85,1.12.25,1.91l-.45.56a1.44,1.44,0,0,1-1.9.33,5.07,5.07,0,0,0-2.21-.5,4.19,4.19,0,0,0-3,1.12,4.09,4.09,0,0,0,0,5.77,4.23,4.23,0,0,0,3,1.12,4.94,4.94,0,0,0,2.21-.51,1.4,1.4,0,0,1,1.9.34l.45.56a1.23,1.23,0,0,1,.3,1.08,1.44,1.44,0,0,1-.8.93A8.61,8.61,0,0,1,382,156.41Z"/><path class="cls-2" d="M397,156.41a8.42,8.42,0,0,1-6-2.13,7,7,0,0,1-2.27-5.32,7.37,7.37,0,0,1,2.18-5.35,7.69,7.69,0,0,1,5.71-2.21,7.91,7.91,0,0,1,5.35,1.86,6.92,6.92,0,0,1,2.3,5.2,1,1,0,0,1-.35.88,1.65,1.65,0,0,1-1,.29h-10A2.79,2.79,0,0,0,394,152a5,5,0,0,0,3.24,1,6.41,6.41,0,0,0,3.19-.87,1.35,1.35,0,0,1,1.9.28l.31.4a1.21,1.21,0,0,1-.25,2A9,9,0,0,1,397,156.41Zm-4-9.19h7.23a2.81,2.81,0,0,0-1.28-1.94,4.25,4.25,0,0,0-2.25-.6,4.44,4.44,0,0,0-2.32.61A3,3,0,0,0,392.94,147.22Z"/><path class="cls-2" d="M411.59,156.41q-4.14,0-5.57-2.89a1.15,1.15,0,0,1,0-1.08,1.47,1.47,0,0,1,.93-.6l.86-.19a.68.68,0,0,1,.65,0,2.32,2.32,0,0,1,.5.27,5.83,5.83,0,0,1,.53.5,2.77,2.77,0,0,0,2.16.84,2.29,2.29,0,0,0,1.33-.35,1,1,0,0,0,.52-.91.9.9,0,0,0-.31-.72,3.07,3.07,0,0,0-1-.54l-1.76-.61q-4.07-1.32-4.06-4.18a4.07,4.07,0,0,1,1.5-3.27,5.78,5.78,0,0,1,3.85-1.26,5.13,5.13,0,0,1,4.59,2.18,1.1,1.1,0,0,1,.15,1.11,1.29,1.29,0,0,1-.93.66l-.79.19a1.65,1.65,0,0,1-1.62-.53,1.92,1.92,0,0,0-1.4-.53,1.57,1.57,0,0,0-1,.35,1.12,1.12,0,0,0-.41.88c0,.49.44.88,1.32,1.18l1.79.67c2.67.88,4,2.32,4.09,4.34a3.83,3.83,0,0,1-1.67,3.33A7,7,0,0,1,411.59,156.41Z"/><path class="cls-2" d="M424.84,156.41c-2.77,0-4.62-1-5.58-2.89a1.17,1.17,0,0,1,0-1.08,1.42,1.42,0,0,1,.92-.6l.87-.19a.66.66,0,0,1,.64,0,2.76,2.76,0,0,1,.51.27c.09.07.27.24.53.5a2.74,2.74,0,0,0,2.15.84,2.27,2.27,0,0,0,1.33-.35,1,1,0,0,0,.52-.91.9.9,0,0,0-.31-.72,3,3,0,0,0-1-.54l-1.77-.61c-2.7-.88-4.06-2.27-4.06-4.18a4.07,4.07,0,0,1,1.5-3.27,5.78,5.78,0,0,1,3.85-1.26,5.13,5.13,0,0,1,4.59,2.18,1.11,1.11,0,0,1,.16,1.11,1.31,1.31,0,0,1-.94.66l-.78.19a1.66,1.66,0,0,1-1.63-.53,1.9,1.9,0,0,0-1.4-.53,1.57,1.57,0,0,0-1.05.35,1.11,1.11,0,0,0-.4.88c0,.49.43.88,1.31,1.18l1.79.67c2.67.88,4,2.32,4.09,4.34a3.82,3.82,0,0,1-1.66,3.33A7,7,0,0,1,424.84,156.41Z"/><path class="cls-1" d="M145.94,170.81v-1.67c-.85-.3-1.39-.39-1.66-1s.05-1.1.44-1.91L143.54,165c-.81.38-1.26.71-1.91.44s-.74-.81-1-1.66h-1.66c-.3.84-.39,1.39-1,1.66s-1.1,0-1.91-.44l-1.18,1.18c.38.81.71,1.25.44,1.91s-.82.74-1.66,1v1.67c.84.29,1.38.38,1.66,1s-.06,1.11-.44,1.91l1.18,1.18c.8-.39,1.25-.71,1.91-.44s.74.81,1,1.66h1.66c.3-.85.39-1.39,1-1.66h0c.65-.27,1.09.05,1.91.44l1.18-1.18c-.39-.81-.71-1.26-.44-1.91S145.1,171.1,145.94,170.81ZM139.75,172a2.06,2.06,0,1,1,2.06-2.06A2.06,2.06,0,0,1,139.75,172Z"/><path class="cls-1" d="M131.59,163.9c.57-1.39,1.74-1.57,3.52-2.21v-3.54c-1.81-.64-2.94-.82-3.52-2.21s.11-2.34.93-4.06l-2.51-2.5c-1.7.81-2.66,1.5-4.06.92s-1.57-1.72-2.21-3.52H120.2c-.64,1.79-.82,2.95-2.21,3.52h0c-1.4.58-2.34-.11-4.06-.92l-2.5,2.5c.81,1.72,1.5,2.66.92,4.06s-1.73,1.57-3.52,2.21v3.54c1.78.64,3,.82,3.52,2.21s-.12,2.38-.93,4.06l2.51,2.51c1.71-.82,2.66-1.51,4.06-.93h0c1.39.57,1.57,1.73,2.21,3.52h3.54c.64-1.79.82-2.94,2.22-3.53h0c1.39-.57,2.32.11,4,.94l2.5-2.51C131.7,166.25,131,165.3,131.59,163.9Zm-9.62.4a4.38,4.38,0,1,1,4.38-4.38A4.38,4.38,0,0,1,122,164.3Z"/><path class="cls-1" d="M168.34,270.13a9.33,9.33,0,0,1-3.54-.67,8.82,8.82,0,0,1-2.88-1.86,8.32,8.32,0,0,1-1.87-2.77,8.71,8.71,0,0,1,1.89-9.48,8.68,8.68,0,0,1,2.82-1.87,8.59,8.59,0,0,1,3.36-.68,10.15,10.15,0,0,1,5.45,1.4.81.81,0,0,1,.29,1.2l-.24.4c-.26.52-.66.62-1.2.32a9.28,9.28,0,0,0-1.89-.77,8.8,8.8,0,0,0-2.41-.27,5.83,5.83,0,0,0-2.37.5,5.67,5.67,0,0,0-2,1.38,6.61,6.61,0,0,0-1.32,2.06,6.47,6.47,0,0,0-.48,2.47,6.77,6.77,0,0,0,.42,2.35,6.24,6.24,0,0,0,1.23,2.06,5.79,5.79,0,0,0,2.06,1.42,6.81,6.81,0,0,0,2.77.53,7,7,0,0,0,3.84-1.08v-3.33h-3.79a.83.83,0,0,1-.64-.24.92.92,0,0,1-.23-.65v-.29a.9.9,0,0,1,.23-.64.86.86,0,0,1,.64-.22h5.25a.87.87,0,0,1,.64.22.9.9,0,0,1,.23.64v4.85a1.62,1.62,0,0,1-.75,1.27,9.72,9.72,0,0,1-2.39,1.24A9.13,9.13,0,0,1,168.34,270.13Z"/><path class="cls-1" d="M178.71,269.87a.9.9,0,0,1-.65-.23.83.83,0,0,1-.24-.64V253.38a.86.86,0,0,1,.24-.64.9.9,0,0,1,.65-.22h.72a.85.85,0,0,1,.63.22.9.9,0,0,1,.23.64V269a.8.8,0,0,1-.86.87Z"/><path class="cls-1" d="M186.48,275.24a.74.74,0,0,1-.66-.27.8.8,0,0,1,0-.73l1.85-4.83-4.61-10.56a.71.71,0,0,1,0-.72.75.75,0,0,1,.67-.29h1a1,1,0,0,1,1,.68l3.33,8.13,3.07-8.11a1,1,0,0,1,.4-.52,1.14,1.14,0,0,1,.64-.18h1a.77.77,0,0,1,.67.28.72.72,0,0,1,0,.73l-6.69,15.72a1,1,0,0,1-1,.67Z"/><path class="cls-1" d="M202.83,270.13a7.89,7.89,0,0,1-2.81-.47,6,6,0,0,1-2.15-1.3,5.79,5.79,0,0,1-1.34-2,6,6,0,0,1-.47-2.4,6.88,6.88,0,0,1,.45-2.49,6.33,6.33,0,0,1,1.32-2.05,6,6,0,0,1,2.15-1.38,7.9,7.9,0,0,1,2.85-.49,7.21,7.21,0,0,1,3.62,1,.82.82,0,0,1,.42.56.87.87,0,0,1-.18.67l-.19.24a1.23,1.23,0,0,1-.46.36,1,1,0,0,1-.77-.12,5.23,5.23,0,0,0-2.32-.53,5.08,5.08,0,0,0-1.76.3,4.19,4.19,0,0,0-1.41.85,3.92,3.92,0,0,0-.93,1.31,4.28,4.28,0,0,0,.24,3.74,3.72,3.72,0,0,0,1.62,1.52,5.26,5.26,0,0,0,4.56,0,1.33,1.33,0,0,1,.71-.14.79.79,0,0,1,.52.38l.17.24a.77.77,0,0,1,.15.56.79.79,0,0,1-.26.5,2.8,2.8,0,0,1-.49.36A6.7,6.7,0,0,1,202.83,270.13Z"/><path class="cls-1" d="M214.83,270.13a6.36,6.36,0,0,1-2.44-.48,6.16,6.16,0,0,1-2-1.35,6.38,6.38,0,0,1-1.37-2,6.1,6.1,0,0,1-.49-2.43,6,6,0,0,1,.49-2.4,6.19,6.19,0,0,1,1.37-2,6.34,6.34,0,0,1,2-1.36,6.32,6.32,0,0,1,4.88,0,6.47,6.47,0,0,1,2.07,1.36,6.22,6.22,0,0,1,1.38,2,6,6,0,0,1,.49,2.4,6.15,6.15,0,0,1-1.87,4.44,6.47,6.47,0,0,1-2.07,1.36A6.22,6.22,0,0,1,214.83,270.13Zm0-2.16a3.82,3.82,0,0,0,1.94-.54,3.69,3.69,0,0,0,1.45-1.53,4.24,4.24,0,0,0,0-4.07,3.65,3.65,0,0,0-1.46-1.55,3.87,3.87,0,0,0-1.93-.54,3.72,3.72,0,0,0-1.23.22,3.43,3.43,0,0,0-1.23.73,4.33,4.33,0,0,0-1,1.33,4,4,0,0,0-.42,1.85,4.42,4.42,0,0,0,.51,2,3.72,3.72,0,0,0,1.46,1.53A3.78,3.78,0,0,0,214.83,268Z"/><path class="cls-1" d="M224.88,269.87a.92.92,0,0,1-.65-.23A.83.83,0,0,1,224,269V253.38a.86.86,0,0,1,.24-.64.92.92,0,0,1,.65-.22h.72a.87.87,0,0,1,.64.22.9.9,0,0,1,.23.64V269a.86.86,0,0,1-.23.64.88.88,0,0,1-.64.23Z"/><path class="cls-1" d="M232.66,275.24A.74.74,0,0,1,232,275a.77.77,0,0,1,0-.73l1.84-4.83-4.6-10.56a.71.71,0,0,1,0-.72.74.74,0,0,1,.67-.29h1a1,1,0,0,1,1,.68l3.34,8.13,3.07-8.11a1,1,0,0,1,.4-.52,1.11,1.11,0,0,1,.63-.18h1a.77.77,0,0,1,.67.28.72.72,0,0,1,0,.73l-6.7,15.72a1,1,0,0,1-1,.67Z"/><path class="cls-1" d="M246.72,270.13a5.61,5.61,0,0,1-2.59-.6,4,4,0,0,1-1.78-1.73.63.63,0,0,1,0-.67,1,1,0,0,1,.61-.41l.5-.14a1,1,0,0,1,1.08.5,2.35,2.35,0,0,0,1,.72,3.09,3.09,0,0,0,1.28.27,2.22,2.22,0,0,0,1.42-.46,1.38,1.38,0,0,0,.59-1.13c0-.64-.5-1.12-1.49-1.46l-1.6-.55a5.65,5.65,0,0,1-1.76-.85,2.83,2.83,0,0,1-1-1.19,3.22,3.22,0,0,1-.26-1.25,3.33,3.33,0,0,1,1.12-2.58,4.18,4.18,0,0,1,2.91-1,4.94,4.94,0,0,1,2.15.47,3.39,3.39,0,0,1,1.52,1.5.73.73,0,0,1,0,.71.87.87,0,0,1-.6.39l-.46.1a1,1,0,0,1-.53,0,1.41,1.41,0,0,1-.6-.51,1.82,1.82,0,0,0-1.46-.62,1.79,1.79,0,0,0-1.25.43,1.37,1.37,0,0,0-.48,1.06c0,.64.47,1.1,1.39,1.39l1.73.58a4.17,4.17,0,0,1,2.24,1.4,3.32,3.32,0,0,1,.69,2,3.82,3.82,0,0,1-.23,1.26,3,3,0,0,1-.78,1.16,4.51,4.51,0,0,1-1.4.87A5.4,5.4,0,0,1,246.72,270.13Z"/><path class="cls-1" d="M255.1,255.66a1.6,1.6,0,0,1-1.18-.48,1.56,1.56,0,0,1-.48-1.15,1.64,1.64,0,0,1,.48-1.19,1.57,1.57,0,0,1,1.18-.49,1.64,1.64,0,0,1,1.21.49,1.61,1.61,0,0,1,.49,1.19,1.55,1.55,0,0,1-.5,1.15A1.69,1.69,0,0,1,255.1,255.66Zm-.34,14.21a.92.92,0,0,1-.65-.23.83.83,0,0,1-.24-.64V258.71a.84.84,0,0,1,.24-.64.92.92,0,0,1,.65-.23h.72a.8.8,0,0,1,.87.87V269a.86.86,0,0,1-.23.64.88.88,0,0,1-.64.23Z"/><path class="cls-1" d="M263.62,270.13a5.65,5.65,0,0,1-2.6-.6,4,4,0,0,1-1.77-1.73.61.61,0,0,1,0-.67,1,1,0,0,1,.61-.41l.51-.14a1,1,0,0,1,1.08.5,2.35,2.35,0,0,0,1,.72,3,3,0,0,0,1.27.27,2.23,2.23,0,0,0,1.43-.46,1.38,1.38,0,0,0,.59-1.13c0-.64-.5-1.12-1.49-1.46l-1.61-.55a5.6,5.6,0,0,1-1.75-.85,2.94,2.94,0,0,1-1-1.19,3.41,3.41,0,0,1-.26-1.25,3.34,3.34,0,0,1,1.13-2.58,4.16,4.16,0,0,1,2.9-1,4.91,4.91,0,0,1,2.15.47,3.29,3.29,0,0,1,1.52,1.5.71.71,0,0,1,.05.71.83.83,0,0,1-.6.39l-.45.1a1,1,0,0,1-.53,0,1.31,1.31,0,0,1-.6-.51,1.83,1.83,0,0,0-1.47-.62,1.77,1.77,0,0,0-1.24.43,1.37,1.37,0,0,0-.48,1.06c0,.64.46,1.1,1.39,1.39l1.73.58a4.21,4.21,0,0,1,2.24,1.4,3.31,3.31,0,0,1,.68,2,3.8,3.8,0,0,1-.22,1.26,3.21,3.21,0,0,1-.78,1.16,4.45,4.45,0,0,1-1.41.87A5.39,5.39,0,0,1,263.62,270.13Z"/><path class="cls-1" d="M271,272.92l-.23,0c-.1,0-.2,0-.27-.21l-.12-.24a.31.31,0,0,1-.05-.3.37.37,0,0,1,.24-.21,2.87,2.87,0,0,0,.75-.57,2.76,2.76,0,0,0,.58-.93,3,3,0,0,0,.2-1l-.41.1a1.23,1.23,0,0,1-1-.38,1.5,1.5,0,0,1,0-2.11,1.71,1.71,0,0,1,1.29-.47,1.45,1.45,0,0,1,1.1.42,2,2,0,0,1,.5.88,3.41,3.41,0,0,1,.11.72,5.21,5.21,0,0,1-.4,2,3.76,3.76,0,0,1-1,1.5A4.73,4.73,0,0,1,271,272.92Z"/><path class="cls-1" d="M294.82,270.13a4.5,4.5,0,0,1-2-.48,4.56,4.56,0,0,1-1.68-1.46A8.59,8.59,0,0,1,290,266a9.9,9.9,0,0,1-.51-2.41h-3.31V269a.86.86,0,0,1-.23.64.88.88,0,0,1-.64.23h-.81a.8.8,0,0,1-.87-.87V253.93a.85.85,0,0,1,.23-.63.82.82,0,0,1,.64-.23h6.21a6.14,6.14,0,0,1,1.77.27,4.4,4.4,0,0,1,1.64.95,5.19,5.19,0,0,1,1.22,1.71,5.54,5.54,0,0,1,.48,2.37,5.33,5.33,0,0,1-1.05,3.3,4.6,4.6,0,0,1-2.88,1.77,10.38,10.38,0,0,0,.39,1.72,5.63,5.63,0,0,0,1.06,1.95A2.14,2.14,0,0,0,295,268a2.42,2.42,0,0,0,1.22-.29,1,1,0,0,1,.69-.12.76.76,0,0,1,.46.43l.12.22c.24.54.16.94-.26,1.2a4.15,4.15,0,0,1-1.15.51A4.75,4.75,0,0,1,294.82,270.13Zm-8.64-8.59h4a3.45,3.45,0,0,0,1.35-.29,2.49,2.49,0,0,0,1.16-1.08,3.5,3.5,0,0,0,.46-1.8,4.06,4.06,0,0,0-.26-1.41,2.78,2.78,0,0,0-1-1.28,2.83,2.83,0,0,0-1.74-.52h-4Z"/><path class="cls-1" d="M305.54,270.13a7.9,7.9,0,0,1-2.79-.48,6.36,6.36,0,0,1-2.19-1.34,5.82,5.82,0,0,1-1.36-2,6.13,6.13,0,0,1-.47-2.41,6.27,6.27,0,0,1,.48-2.43,6,6,0,0,1,1.35-2,6.35,6.35,0,0,1,2.09-1.36,6.7,6.7,0,0,1,2.56-.49,7,7,0,0,1,2.18.35,5.45,5.45,0,0,1,3.28,2.84,6.76,6.76,0,0,1,.66,2.45.78.78,0,0,1-.18.65.86.86,0,0,1-.66.24h-9.31a3.34,3.34,0,0,0,1.2,2.77,4.64,4.64,0,0,0,3.19,1.09,5.63,5.63,0,0,0,3.26-1,.91.91,0,0,1,1.23.12l.16.2a.82.82,0,0,1,.26.67,1.13,1.13,0,0,1-.42.69A7,7,0,0,1,305.54,270.13Zm-4.15-7.85h7.49a3.58,3.58,0,0,0-.8-1.5,3.28,3.28,0,0,0-1.26-.82,4.41,4.41,0,0,0-1.56-.27,4.72,4.72,0,0,0-1.64.29,3.79,3.79,0,0,0-1.33.85A4.26,4.26,0,0,0,301.39,262.28Z"/><path class="cls-1" d="M314.23,263.68a.47.47,0,0,1-.37-.15.48.48,0,0,1-.13-.36V261.9a.48.48,0,0,1,.13-.35.49.49,0,0,1,.37-.13h7.08a.48.48,0,0,1,.36.13.45.45,0,0,1,.15.35v1.27a.51.51,0,0,1-.51.51Z"/><path class="cls-1" d="M326.09,275.24a.92.92,0,0,1-.65-.22.86.86,0,0,1-.24-.64V258.71a.84.84,0,0,1,.24-.64.92.92,0,0,1,.65-.23h.72a.85.85,0,0,1,.63.23.84.84,0,0,1,.23.64v1a4.76,4.76,0,0,1,1.92-1.64,5.6,5.6,0,0,1,2.4-.52,5.91,5.91,0,0,1,2.4.48,5.6,5.6,0,0,1,1.9,1.34,6.17,6.17,0,0,1,1.22,2,7.05,7.05,0,0,1,0,4.85,6,6,0,0,1-1.22,2,5.65,5.65,0,0,1-1.9,1.36,6,6,0,0,1-4.8,0,4.86,4.86,0,0,1-1.92-1.65v6.41a.78.78,0,0,1-.86.86Zm5.54-7.27a3.77,3.77,0,0,0,1.95-.49,3.68,3.68,0,0,0,1.36-1.43,4.85,4.85,0,0,0,0-4.41,3.68,3.68,0,0,0-1.36-1.43,4.11,4.11,0,0,0-4.82.68,4.4,4.4,0,0,0,0,5.91A3.8,3.8,0,0,0,331.63,268Z"/><path class="cls-1" d="M346.13,270.13a6.36,6.36,0,0,1-2.44-.48,6.26,6.26,0,0,1-2-1.35,6.55,6.55,0,0,1-1.37-2,6.28,6.28,0,0,1-.49-2.43,6.2,6.2,0,0,1,.49-2.4,6.35,6.35,0,0,1,1.37-2,6.45,6.45,0,0,1,2-1.36,6.18,6.18,0,0,1,2.44-.49,6.3,6.3,0,0,1,2.45.49,6.54,6.54,0,0,1,2.06,1.36,6.22,6.22,0,0,1,1.38,2,6,6,0,0,1,.49,2.4,6.15,6.15,0,0,1-1.87,4.44,6.54,6.54,0,0,1-2.06,1.36A6.3,6.3,0,0,1,346.13,270.13Zm0-2.16a3.82,3.82,0,0,0,1.94-.54,3.63,3.63,0,0,0,1.45-1.53,4.24,4.24,0,0,0,0-4.07,3.65,3.65,0,0,0-1.46-1.55,3.87,3.87,0,0,0-1.93-.54,3.77,3.77,0,0,0-1.23.22,3.43,3.43,0,0,0-1.23.73,4.33,4.33,0,0,0-1,1.33,4,4,0,0,0-.42,1.85,4.32,4.32,0,0,0,.52,2,3.63,3.63,0,0,0,1.45,1.53A3.78,3.78,0,0,0,346.13,268Z"/><path class="cls-1" d="M356.18,269.87a.88.88,0,0,1-.64-.23.83.83,0,0,1-.24-.64V253.38a.86.86,0,0,1,.24-.64.87.87,0,0,1,.64-.22h.72a.86.86,0,0,1,.64.22.9.9,0,0,1,.23.64V269a.8.8,0,0,1-.87.87Z"/><path class="cls-1" d="M364,275.24a.74.74,0,0,1-.66-.27.8.8,0,0,1,0-.73l1.85-4.83-4.61-10.56a.71.71,0,0,1,0-.72.75.75,0,0,1,.67-.29h1a1,1,0,0,1,1,.68l3.34,8.13,3.07-8.11a1,1,0,0,1,.4-.52,1.11,1.11,0,0,1,.63-.18h1a.77.77,0,0,1,.67.28.72.72,0,0,1,0,.73l-6.7,15.72a1,1,0,0,1-1,.67Z"/><path class="cls-1" d="M375.74,269.87a.9.9,0,0,1-.64-.23.8.8,0,0,1-.25-.64V258.71a.81.81,0,0,1,.25-.64.9.9,0,0,1,.64-.23h.72a.8.8,0,0,1,.87.87v1.49A3.79,3.79,0,0,1,378,259a3.44,3.44,0,0,1,1.32-1,4.52,4.52,0,0,1,1.84-.38,4.44,4.44,0,0,1,1.49.25,4,4,0,0,1,1.31.78,4.16,4.16,0,0,1,1,1.44,4.18,4.18,0,0,1,4.08-2.47,4.31,4.31,0,0,1,3.4,1.37,6.12,6.12,0,0,1,1.21,4.13V269a.8.8,0,0,1-.87.87H392a.9.9,0,0,1-.64-.23.83.83,0,0,1-.24-.64v-5.92a5.16,5.16,0,0,0-.29-1.83,2.45,2.45,0,0,0-.83-1.13,2.16,2.16,0,0,0-1.26-.38,2.94,2.94,0,0,0-1.51.42,3.36,3.36,0,0,0-1.23,1.36,5.57,5.57,0,0,0-.55,2.44v5a.82.82,0,0,1-.23.64.85.85,0,0,1-.63.23h-.72a.92.92,0,0,1-.65-.23A.83.83,0,0,1,383,269v-5.92a5.16,5.16,0,0,0-.29-1.83,2.5,2.5,0,0,0-.82-1.13,2.19,2.19,0,0,0-1.27-.38,3.32,3.32,0,0,0-1,.2,3.24,3.24,0,0,0-1.09.71,3.83,3.83,0,0,0-.84,1.41,6.33,6.33,0,0,0-.32,2.17V269a.86.86,0,0,1-.23.64.88.88,0,0,1-.64.23Z"/><path class="cls-1" d="M403,270.13a7.86,7.86,0,0,1-2.79-.48,6.36,6.36,0,0,1-2.19-1.34,5.82,5.82,0,0,1-1.36-2,6.13,6.13,0,0,1-.47-2.41,6.27,6.27,0,0,1,.48-2.43,6,6,0,0,1,1.35-2,6.35,6.35,0,0,1,2.09-1.36,6.7,6.7,0,0,1,2.56-.49,7,7,0,0,1,2.18.35,5.45,5.45,0,0,1,3.28,2.84,6.76,6.76,0,0,1,.66,2.45.78.78,0,0,1-.18.65.88.88,0,0,1-.66.24h-9.31a3.36,3.36,0,0,0,1.19,2.77A4.69,4.69,0,0,0,403,268a5.63,5.63,0,0,0,3.26-1,.91.91,0,0,1,1.23.12l.16.2a.86.86,0,0,1,.26.67,1.13,1.13,0,0,1-.42.69A7,7,0,0,1,403,270.13Zm-4.15-7.85h7.49a3.49,3.49,0,0,0-.81-1.5,3.17,3.17,0,0,0-1.25-.82,4.45,4.45,0,0,0-1.56-.27,4.72,4.72,0,0,0-1.64.29,3.79,3.79,0,0,0-1.33.85A4,4,0,0,0,398.83,262.28Z"/><path class="cls-1" d="M412.27,269.87a.92.92,0,0,1-.65-.23.83.83,0,0,1-.24-.64V258.71a.84.84,0,0,1,.24-.64.92.92,0,0,1,.65-.23H413a.9.9,0,0,1,.64.23.87.87,0,0,1,.22.64v1.82a5.28,5.28,0,0,1,.54-1.35,3.17,3.17,0,0,1,1.14-1.16,3,3,0,0,1,1.54-.44l.53,0q.57.07.57,1v.7c0,.59-.21.84-.64.74a3.5,3.5,0,0,0-.65-.07,2.44,2.44,0,0,0-1.39.45,3.39,3.39,0,0,0-1.16,1.63,9,9,0,0,0-.48,3.27V269a.86.86,0,0,1-.22.64.9.9,0,0,1-.64.23Z"/><path class="cls-1" d="M421.56,255.66a1.6,1.6,0,0,1-1.18-.48,1.56,1.56,0,0,1-.48-1.15,1.64,1.64,0,0,1,.48-1.19,1.57,1.57,0,0,1,1.18-.49,1.64,1.64,0,0,1,1.21.49,1.61,1.61,0,0,1,.49,1.19,1.55,1.55,0,0,1-.5,1.15A1.69,1.69,0,0,1,421.56,255.66Zm-.34,14.21a.92.92,0,0,1-.65-.23.83.83,0,0,1-.24-.64V258.71a.84.84,0,0,1,.24-.64.92.92,0,0,1,.65-.23h.72a.8.8,0,0,1,.87.87V269a.86.86,0,0,1-.23.64.88.88,0,0,1-.64.23Z"/><path class="cls-1" d="M426.29,269.87a.8.8,0,0,1-.87-.87v0a1.54,1.54,0,0,1,.43-1.08l7.56-8.07h-6.6a.86.86,0,0,1-.64-.24.84.84,0,0,1-.24-.62v-.24a.84.84,0,0,1,.24-.64.9.9,0,0,1,.64-.23H436a.85.85,0,0,1,.63.23.88.88,0,0,1,.23.64v.05a1.49,1.49,0,0,1-.41,1.05l-7.56,8.09h7.61a.92.92,0,0,1,.65.23.82.82,0,0,1,.24.63V269a.93.93,0,0,1-.27.64.86.86,0,0,1-.62.23Z"/><path class="cls-1" d="M444.86,270.13a5.82,5.82,0,0,1-2.4-.49,5.61,5.61,0,0,1-1.89-1.36,6,6,0,0,1-1.23-2,7.05,7.05,0,0,1,0-4.85,6.19,6.19,0,0,1,1.23-2,5.56,5.56,0,0,1,1.89-1.34,6,6,0,0,1,2.4-.48,5.53,5.53,0,0,1,2.39.52,4.8,4.8,0,0,1,1.91,1.64v-1a.84.84,0,0,1,.24-.64.9.9,0,0,1,.65-.23h.72a.85.85,0,0,1,.63.23.88.88,0,0,1,.23.64V269a.8.8,0,0,1-.86.87h-.72a.9.9,0,0,1-.65-.23.83.83,0,0,1-.24-.64v-1a4.9,4.9,0,0,1-1.91,1.65A5.67,5.67,0,0,1,444.86,270.13Zm.34-2.16a3.83,3.83,0,0,0,2.87-1.16,4.43,4.43,0,0,0,0-5.93,3.79,3.79,0,0,0-2.87-1.16,3.6,3.6,0,0,0-3.29,1.92,4.85,4.85,0,0,0,0,4.41A3.58,3.58,0,0,0,445.2,268Z"/><path class="cls-1" d="M459.67,270.13a5.17,5.17,0,0,1-1.38-.2,3.27,3.27,0,0,1-1.26-.7,3.18,3.18,0,0,1-.86-1.28,5.14,5.14,0,0,1-.32-1.9v-6.29h-1.46a.45.45,0,0,1-.35-.14.52.52,0,0,1-.13-.36v-.94A.44.44,0,0,1,454,258a.48.48,0,0,1,.35-.14h1.51l.43-2.76a.9.9,0,0,1,.26-.5.69.69,0,0,1,.51-.19h.51a.68.68,0,0,1,.51.21.74.74,0,0,1,.21.53v2.71h3.28a.47.47,0,0,1,.35.14.44.44,0,0,1,.13.34v.94a.52.52,0,0,1-.13.36.43.43,0,0,1-.35.14h-3.28v6.44a2,2,0,0,0,.39,1.35,1.29,1.29,0,0,0,1,.45,1.52,1.52,0,0,0,1-.35,1.17,1.17,0,0,0,.42-.95l0-.46a.54.54,0,0,1,.08-.39.38.38,0,0,1,.35-.16h1.1a.49.49,0,0,1,.55.43,3.62,3.62,0,0,1,.1.89,2.9,2.9,0,0,1-1,2.26A3.83,3.83,0,0,1,459.67,270.13Z"/><path class="cls-1" d="M466.7,255.66a1.59,1.59,0,0,1-1.17-.48,1.56,1.56,0,0,1-.48-1.15,1.64,1.64,0,0,1,.48-1.19,1.56,1.56,0,0,1,1.17-.49,1.69,1.69,0,0,1,1.71,1.68,1.52,1.52,0,0,1-.51,1.15A1.66,1.66,0,0,1,466.7,255.66Zm-.33,14.21a.9.9,0,0,1-.65-.23.83.83,0,0,1-.24-.64V258.71a.84.84,0,0,1,.24-.64.9.9,0,0,1,.65-.23h.72a.85.85,0,0,1,.63.23.88.88,0,0,1,.23.64V269a.8.8,0,0,1-.86.87Z"/><path class="cls-1" d="M477.09,270.13a6.31,6.31,0,0,1-2.43-.48,6.16,6.16,0,0,1-2-1.35,6.38,6.38,0,0,1-1.37-2,6.1,6.1,0,0,1-.49-2.43,6,6,0,0,1,.49-2.4,6.19,6.19,0,0,1,1.37-2,6.34,6.34,0,0,1,2-1.36,6.14,6.14,0,0,1,2.43-.49,6.23,6.23,0,0,1,2.45.49,6.59,6.59,0,0,1,2.07,1.36,6.18,6.18,0,0,1,1.38,6.84,6.11,6.11,0,0,1-1.38,2,6.59,6.59,0,0,1-2.07,1.36A6.23,6.23,0,0,1,477.09,270.13Zm0-2.16a3.85,3.85,0,0,0,2-.54,3.69,3.69,0,0,0,1.45-1.53,4.24,4.24,0,0,0,0-4.07,3.65,3.65,0,0,0-1.46-1.55,3.9,3.9,0,0,0-1.94-.54,3.71,3.71,0,0,0-1.22.22,3.55,3.55,0,0,0-1.24.73,4.47,4.47,0,0,0-1,1.33,4,4,0,0,0-.42,1.85,4.42,4.42,0,0,0,.51,2,3.76,3.76,0,0,0,1.45,1.53A3.83,3.83,0,0,0,477.09,268Z"/><path class="cls-1" d="M487.08,269.87a.9.9,0,0,1-.65-.23.83.83,0,0,1-.24-.64V258.71a.84.84,0,0,1,.24-.64.9.9,0,0,1,.65-.23h.72a.85.85,0,0,1,.63.23.84.84,0,0,1,.23.64v1.49a3.38,3.38,0,0,1,1.47-1.94,4.68,4.68,0,0,1,2.54-.68,4.84,4.84,0,0,1,1.85.34,3.87,3.87,0,0,1,1.46,1,4.48,4.48,0,0,1,1,1.72,8,8,0,0,1,.34,2.42V269a.83.83,0,0,1-.24.64.92.92,0,0,1-.65.23h-.72a.88.88,0,0,1-.64-.23.86.86,0,0,1-.23-.64v-5.9a5.22,5.22,0,0,0-.28-1.85,2.46,2.46,0,0,0-.84-1.13,2.22,2.22,0,0,0-1.28-.38,4,4,0,0,0-1.12.2,3.86,3.86,0,0,0-1.25.71,3.66,3.66,0,0,0-1,1.41,5.43,5.43,0,0,0-.39,2.17V269a.82.82,0,0,1-.23.64.85.85,0,0,1-.63.23Z"/><path class="cls-2" d="M170,244.68a10.57,10.57,0,0,1-7.8-2.94,10.18,10.18,0,0,1,0-14.33,10.57,10.57,0,0,1,7.8-2.94,10.28,10.28,0,0,1,6,1.85,1.16,1.16,0,0,1,.28,1.87l-.7.87a1.27,1.27,0,0,1-1.88.25,7.3,7.3,0,0,0-3.69-1,6.07,6.07,0,0,0-4.58,1.79,6.63,6.63,0,0,0,0,8.91,6.07,6.07,0,0,0,4.58,1.79,7.3,7.3,0,0,0,3.69-1,1.27,1.27,0,0,1,1.88.25l.7.87c.52.75.48,1.34-.14,1.79A10.32,10.32,0,0,1,170,244.68Z"/><path class="cls-2" d="M180.68,244.38a1.19,1.19,0,0,1-1.35-1.35V225.48a1.19,1.19,0,0,1,1.35-1.35h1.65a1.19,1.19,0,0,1,1.34,1.35v6.8c.73-1.74,2.19-2.6,4.37-2.6a4.55,4.55,0,0,1,4,1.8,7.8,7.8,0,0,1,1.28,4.61V243a1.21,1.21,0,0,1-1.38,1.35h-1.62A1.19,1.19,0,0,1,189,243v-6.64a4.08,4.08,0,0,0-.59-2.35,1.92,1.92,0,0,0-1.68-.84,2.81,2.81,0,0,0-2.13,1,4.1,4.1,0,0,0-.9,2.86v6a1.19,1.19,0,0,1-1.34,1.35Z"/><path class="cls-2" d="M204,244.68a8.49,8.49,0,0,1-6-2.12,7,7,0,0,1-2.26-5.32,7.3,7.3,0,0,1,2.18-5.35,7.65,7.65,0,0,1,5.71-2.21,7.91,7.91,0,0,1,5.35,1.86,6.91,6.91,0,0,1,2.3,5.19,1,1,0,0,1-.35.88,1.64,1.64,0,0,1-1,.3h-10a2.8,2.8,0,0,0,1.19,2.35,5,5,0,0,0,3.23,1,6.45,6.45,0,0,0,3.2-.87,1.34,1.34,0,0,1,1.9.28l.31.39a1.22,1.22,0,0,1-.25,2A9.05,9.05,0,0,1,204,244.68Zm-4-9.18h7.23a2.86,2.86,0,0,0-1.28-1.95,4.25,4.25,0,0,0-2.25-.6,4.49,4.49,0,0,0-2.33.62A3,3,0,0,0,199.94,235.5Z"/><path class="cls-2" d="M215,244.38a1.19,1.19,0,0,1-1.34-1.35v-11.7A1.19,1.19,0,0,1,215,230h1.66a1.19,1.19,0,0,1,1.34,1.35v.95a3.63,3.63,0,0,1,1.47-1.92,4.31,4.31,0,0,1,2.42-.68,4.36,4.36,0,0,1,4.17,2.49,5.13,5.13,0,0,1,2.06-2,6.19,6.19,0,0,1,2.56-.51,4.59,4.59,0,0,1,4,1.83,7.69,7.69,0,0,1,1.33,4.61V243a1.21,1.21,0,0,1-1.38,1.35H233a1.19,1.19,0,0,1-1.34-1.35v-6.72a4.1,4.1,0,0,0-.55-2.29,1.72,1.72,0,0,0-1.53-.82,2.27,2.27,0,0,0-1.79.9,4.28,4.28,0,0,0-.78,2.72V243a1.19,1.19,0,0,1-1.35,1.35H224a1.19,1.19,0,0,1-1.34-1.35v-6.72a4.2,4.2,0,0,0-.53-2.31,1.73,1.73,0,0,0-1.52-.8,2.3,2.3,0,0,0-1.84.94A4.41,4.41,0,0,0,218,237V243a1.19,1.19,0,0,1-1.34,1.35Z"/><path class="cls-2" d="M243.38,227.63a2.69,2.69,0,0,1-1.89.65,2.73,2.73,0,0,1-1.89-.65,2.07,2.07,0,0,1-.71-1.59,2.11,2.11,0,0,1,.69-1.64,3.19,3.19,0,0,1,3.82,0,2.14,2.14,0,0,1,.7,1.63A2.05,2.05,0,0,1,243.38,227.63Zm-2.7,16.75a1.19,1.19,0,0,1-1.34-1.35v-11.7a1.19,1.19,0,0,1,1.34-1.35h1.62a1.21,1.21,0,0,1,1.38,1.35V243a1.21,1.21,0,0,1-1.38,1.35Z"/><path class="cls-2" d="M254.57,244.68a8.48,8.48,0,0,1-6-2.12,6.94,6.94,0,0,1-2.3-5.3,7.19,7.19,0,0,1,2.28-5.4,8.32,8.32,0,0,1,6-2.18,8.93,8.93,0,0,1,4.56,1.2c.77.48.85,1.12.26,1.9l-.45.56a1.47,1.47,0,0,1-1.91.34,4.93,4.93,0,0,0-2.21-.5,4.2,4.2,0,0,0-3,1.12,4.08,4.08,0,0,0,0,5.76,4.2,4.2,0,0,0,3,1.12,4.93,4.93,0,0,0,2.21-.5,1.42,1.42,0,0,1,1.91.34l.45.56a1.23,1.23,0,0,1,.29,1.07,1.4,1.4,0,0,1-.8.94A8.58,8.58,0,0,1,254.57,244.68Z"/><path class="cls-2" d="M268.26,244.68a6.43,6.43,0,0,1-5-2.14,8.33,8.33,0,0,1,0-10.71,6.4,6.4,0,0,1,5-2.15,5.11,5.11,0,0,1,4.62,2.35v-.7a1.19,1.19,0,0,1,1.34-1.35h1.66a1.19,1.19,0,0,1,1.34,1.35V243a1.19,1.19,0,0,1-1.34,1.35h-1.66a1.19,1.19,0,0,1-1.34-1.35v-.67A5.13,5.13,0,0,1,268.26,244.68Zm1-3.47a3.39,3.39,0,0,0,2.65-1.15,4.58,4.58,0,0,0,0-5.76,3.39,3.39,0,0,0-2.65-1.15,3.22,3.22,0,0,0-2.62,1.16,4.75,4.75,0,0,0,0,5.75A3.24,3.24,0,0,0,269.27,241.21Z"/><path class="cls-2" d="M282.09,244.38a1.19,1.19,0,0,1-1.34-1.35V225.48a1.19,1.19,0,0,1,1.34-1.35h1.63a1.2,1.2,0,0,1,1.37,1.35V243a1.2,1.2,0,0,1-1.37,1.35Z"/><path class="cls-2" d="M296.71,250.65a1.19,1.19,0,0,1-1.35-1.35v-18a1.19,1.19,0,0,1,1.35-1.35h1.65a1.19,1.19,0,0,1,1.34,1.35V232a5.13,5.13,0,0,1,4.62-2.32,6.4,6.4,0,0,1,5,2.15,8.3,8.3,0,0,1,0,10.71,6.43,6.43,0,0,1-5,2.14,5.11,5.11,0,0,1-4.62-2.35v7a1.19,1.19,0,0,1-1.34,1.35Zm6.61-9.44a3.21,3.21,0,0,0,2.61-1.15,4.75,4.75,0,0,0,0-5.75,3.19,3.19,0,0,0-2.61-1.16,3.36,3.36,0,0,0-2.65,1.15,4.58,4.58,0,0,0,0,5.76A3.36,3.36,0,0,0,303.32,241.21Z"/><path class="cls-2" d="M315.19,244.38a1.19,1.19,0,0,1-1.35-1.35v-11.7a1.19,1.19,0,0,1,1.35-1.35h1.54a1.19,1.19,0,0,1,1.34,1.35v1.79a3.94,3.94,0,0,1,1.44-2.6,3.84,3.84,0,0,1,2.29-.84l.47,0c.54,0,.81.42.81,1.15v2a1.16,1.16,0,0,1-.26.84.84.84,0,0,1-.72.2,6.89,6.89,0,0,0-.7-.06,2.89,2.89,0,0,0-2.32,1.09,5.74,5.74,0,0,0-.9,3.62V243a1.19,1.19,0,0,1-1.34,1.35Z"/><path class="cls-2" d="M337.64,242.5a8.49,8.49,0,0,1-11.36,0,7.3,7.3,0,0,1,0-10.64,8.49,8.49,0,0,1,11.36,0,7.3,7.3,0,0,1,0,10.64ZM329.22,240a3.86,3.86,0,0,0,5.48,0,4.17,4.17,0,0,0,0-5.69,3.86,3.86,0,0,0-5.5,0,4,4,0,0,0-1.1,2.86A3.89,3.89,0,0,0,329.22,240Z"/><path class="cls-2" d="M349.88,244.68a8.5,8.5,0,0,1-6-2.12,6.94,6.94,0,0,1-2.3-5.3,7.19,7.19,0,0,1,2.28-5.4,8.33,8.33,0,0,1,6-2.18,8.93,8.93,0,0,1,4.56,1.2c.77.48.85,1.12.26,1.9l-.45.56a1.47,1.47,0,0,1-1.91.34,4.9,4.9,0,0,0-2.21-.5,4.22,4.22,0,0,0-3,1.12,4.08,4.08,0,0,0,0,5.76,4.22,4.22,0,0,0,3,1.12,4.9,4.9,0,0,0,2.21-.5,1.41,1.41,0,0,1,1.91.34l.45.56a1.2,1.2,0,0,1,.29,1.07,1.4,1.4,0,0,1-.8.94A8.58,8.58,0,0,1,349.88,244.68Z"/><path class="cls-2" d="M364.86,244.68a8.47,8.47,0,0,1-6-2.12,7,7,0,0,1-2.27-5.32,7.3,7.3,0,0,1,2.19-5.35,7.64,7.64,0,0,1,5.71-2.21,7.91,7.91,0,0,1,5.35,1.86,6.91,6.91,0,0,1,2.29,5.19,1,1,0,0,1-.35.88,1.59,1.59,0,0,1-1,.3h-10a2.77,2.77,0,0,0,1.19,2.35,5,5,0,0,0,3.23,1,6.41,6.41,0,0,0,3.19-.87,1.35,1.35,0,0,1,1.91.28l.3.39a1.21,1.21,0,0,1-.25,2A9,9,0,0,1,364.86,244.68Zm-4-9.18h7.22a2.85,2.85,0,0,0-1.27-1.95,4.32,4.32,0,0,0-2.26-.6,4.48,4.48,0,0,0-2.32.62A3,3,0,0,0,360.83,235.5Z"/><path class="cls-2" d="M379.48,244.68c-2.77,0-4.62-1-5.58-2.88a1.17,1.17,0,0,1,0-1.08,1.35,1.35,0,0,1,.92-.6l.87-.2a.68.68,0,0,1,.64,0,2.26,2.26,0,0,1,.51.27c.09.07.27.24.53.5a2.74,2.74,0,0,0,2.15.84,2.32,2.32,0,0,0,1.33-.35,1,1,0,0,0,.52-.91.93.93,0,0,0-.31-.73,3.21,3.21,0,0,0-1-.53l-1.77-.62c-2.7-.87-4.06-2.26-4.06-4.17a4.1,4.1,0,0,1,1.5-3.28,5.82,5.82,0,0,1,3.85-1.25,5.11,5.11,0,0,1,4.59,2.18,1.08,1.08,0,0,1,.16,1.11,1.3,1.3,0,0,1-.94.65l-.78.2a1.68,1.68,0,0,1-1.63-.53,1.86,1.86,0,0,0-1.4-.53,1.52,1.52,0,0,0-1,.35,1.1,1.1,0,0,0-.4.88c0,.48.43.87,1.31,1.17l1.79.68c2.67.87,4,2.32,4.09,4.34a3.85,3.85,0,0,1-1.66,3.33A7,7,0,0,1,379.48,244.68Z"/><path class="cls-2" d="M392.72,244.68q-4.14,0-5.57-2.88a1.15,1.15,0,0,1,0-1.08,1.39,1.39,0,0,1,.92-.6l.87-.2a.69.69,0,0,1,.64,0,1.88,1.88,0,0,1,.51.27c.09.07.27.24.53.5a2.76,2.76,0,0,0,2.16.84,2.37,2.37,0,0,0,1.33-.35,1.07,1.07,0,0,0,.52-.91,1,1,0,0,0-.31-.73,3.28,3.28,0,0,0-1-.53l-1.76-.62q-4.07-1.31-4.06-4.17a4.1,4.1,0,0,1,1.5-3.28,5.8,5.8,0,0,1,3.85-1.25,5.11,5.11,0,0,1,4.59,2.18,1.1,1.1,0,0,1,.15,1.11,1.3,1.3,0,0,1-.94.65l-.78.2a1.67,1.67,0,0,1-1.62-.53,1.89,1.89,0,0,0-1.4-.53,1.56,1.56,0,0,0-1.06.35,1.1,1.1,0,0,0-.4.88q0,.72,1.32,1.17l1.79.68q4,1.31,4.08,4.34a3.85,3.85,0,0,1-1.66,3.33A7,7,0,0,1,392.72,244.68Z"/><path class="cls-1" d="M138.43,260.78l-4.72-9.91c-1.32-2.75-2.54-5.77-2.54-8.83V240H130v2.52a24.35,24.35,0,0,0,2.78,9.46l4.72,9.9a1.55,1.55,0,0,1-1.6,1.72h-1.21l-6-12.26h-6.44a23.19,23.19,0,0,0,2.49-8.82V240H123.6V242c0,3.06-1.23,6.07-2.54,8.83l-4.72,9.91a3.07,3.07,0,0,0,2.75,4.41h16.59a3.07,3.07,0,0,0,3-3.08A3.21,3.21,0,0,0,138.43,260.78Z"/><path class="cls-1" d="M123.6,237.45h7.57a1.26,1.26,0,1,0,0-2.52H123.6a1.26,1.26,0,1,0,0,2.52Z"/><path class="cls-1" d="M161.47,67.42a.82.82,0,0,1-.63-.23.85.85,0,0,1-.23-.63V51.49a.8.8,0,0,1,.86-.87h4.64a9.58,9.58,0,0,1,3.55.65,7.78,7.78,0,0,1,2.76,1.8,8,8,0,0,1,1.73,2.7,9.1,9.1,0,0,1,0,6.5,7.74,7.74,0,0,1-4.49,4.5,9.38,9.38,0,0,1-3.55.65Zm1.68-2.09h2.91a6.42,6.42,0,0,0,2.51-.48,5.55,5.55,0,0,0,1.94-1.35,6,6,0,0,0,1.22-2,7.36,7.36,0,0,0,0-4.9,5.94,5.94,0,0,0-1.22-2,5.45,5.45,0,0,0-1.94-1.36,6.42,6.42,0,0,0-2.51-.48h-2.91Z"/><path class="cls-1" d="M183.55,67.68a8.13,8.13,0,0,1-2.79-.47,6.23,6.23,0,0,1-2.19-1.35,5.69,5.69,0,0,1-1.36-2,6.16,6.16,0,0,1-.47-2.41,6.36,6.36,0,0,1,.48-2.44,6.11,6.11,0,0,1,1.35-2,6.33,6.33,0,0,1,2.09-1.35,6.71,6.71,0,0,1,2.56-.5,7,7,0,0,1,2.18.35,5.63,5.63,0,0,1,1.9,1.06,5.42,5.42,0,0,1,1.38,1.79,6.71,6.71,0,0,1,.66,2.44.77.77,0,0,1-.18.65.86.86,0,0,1-.66.24h-9.31a3.32,3.32,0,0,0,1.2,2.77,4.64,4.64,0,0,0,3.19,1.09,5.7,5.7,0,0,0,3.26-1,.89.89,0,0,1,1.23.12l.16.19a.84.84,0,0,1,.26.67,1.17,1.17,0,0,1-.42.7A7,7,0,0,1,183.55,67.68Zm-4.15-7.84h7.49a3.47,3.47,0,0,0-.8-1.5,3.3,3.3,0,0,0-1.26-.83,4.41,4.41,0,0,0-1.56-.26,4.71,4.71,0,0,0-1.64.28,3.81,3.81,0,0,0-1.33.86A4.17,4.17,0,0,0,179.4,59.84Z"/><path class="cls-1" d="M192.24,61.23a.5.5,0,0,1-.37-.14.52.52,0,0,1-.13-.36V59.45a.48.48,0,0,1,.13-.35.54.54,0,0,1,.37-.13h7.08a.53.53,0,0,1,.36.13.45.45,0,0,1,.15.35v1.28a.5.5,0,0,1-.51.5Z"/><path class="cls-1" d="M204.17,67.42a.88.88,0,0,1-.65-.23.82.82,0,0,1-.24-.63V50.93a.82.82,0,0,1,.24-.63.92.92,0,0,1,.65-.23h.72a.9.9,0,0,1,.64.23.85.85,0,0,1,.22.63V66.56a.78.78,0,0,1-.86.86Z"/><path class="cls-1" d="M214.54,67.68a5.76,5.76,0,0,1-2.4-.49,5.63,5.63,0,0,1-1.9-1.35,6.17,6.17,0,0,1-1.22-2A7.05,7.05,0,0,1,209,59a6.12,6.12,0,0,1,1.22-2,5.49,5.49,0,0,1,1.9-1.35,5.91,5.91,0,0,1,2.4-.48,5.71,5.71,0,0,1,2.39.52,4.71,4.71,0,0,1,1.9,1.64v-1a.82.82,0,0,1,.24-.63.88.88,0,0,1,.65-.23h.72a.84.84,0,0,1,.64.23.85.85,0,0,1,.23.63v10.3a.85.85,0,0,1-.23.63.84.84,0,0,1-.64.23h-.72a.88.88,0,0,1-.65-.23.82.82,0,0,1-.24-.63v-1a4.66,4.66,0,0,1-1.9,1.65A5.7,5.7,0,0,1,214.54,67.68Zm.33-2.16a3.78,3.78,0,0,0,2.87-1.16,4.43,4.43,0,0,0,0-5.93,3.81,3.81,0,0,0-2.87-1.16,3.57,3.57,0,0,0-3.28,1.92,4.85,4.85,0,0,0,0,4.41,3.55,3.55,0,0,0,3.28,1.92Z"/><path class="cls-1" d="M231.72,67.68a5.74,5.74,0,0,1-2.4-.51,4.71,4.71,0,0,1-1.92-1.65v1a.8.8,0,0,1-.86.86h-.72a.88.88,0,0,1-.65-.23.82.82,0,0,1-.24-.63V50.93a.82.82,0,0,1,.24-.63.92.92,0,0,1,.65-.23h.72a.85.85,0,0,1,.63.23.82.82,0,0,1,.23.63v6.36a4.76,4.76,0,0,1,1.92-1.64,5.75,5.75,0,0,1,2.4-.52,5.91,5.91,0,0,1,2.4.48A5.49,5.49,0,0,1,236,57a6.12,6.12,0,0,1,1.22,2,7.05,7.05,0,0,1,0,4.85,6.17,6.17,0,0,1-1.22,2,5.63,5.63,0,0,1-1.9,1.35A5.76,5.76,0,0,1,231.72,67.68Zm-.36-2.16A3.71,3.71,0,0,0,233.3,65a3.57,3.57,0,0,0,1.37-1.43,4.85,4.85,0,0,0,0-4.41,3.63,3.63,0,0,0-1.37-1.43,3.71,3.71,0,0,0-1.94-.49,3.77,3.77,0,0,0-2.87,1.18,4.39,4.39,0,0,0,0,5.9A3.8,3.8,0,0,0,231.36,65.52Z"/><path class="cls-1" d="M246.36,67.68a8.19,8.19,0,0,1-2.8-.47,6.28,6.28,0,0,1-2.18-1.35,5.85,5.85,0,0,1-1.37-2,6.22,6.22,0,0,1,3.46-8.23,6.7,6.7,0,0,1,2.55-.5,7,7,0,0,1,2.19.35,5.59,5.59,0,0,1,1.89,1.06,5.17,5.17,0,0,1,1.38,1.79,6.52,6.52,0,0,1,.66,2.44.74.74,0,0,1-.17.65.9.9,0,0,1-.67.24H242a3.38,3.38,0,0,0,1.2,2.77,4.67,4.67,0,0,0,3.2,1.09,5.7,5.7,0,0,0,3.26-1,.88.88,0,0,1,1.22.12l.17.19a.83.83,0,0,1,.25.67,1.08,1.08,0,0,1-.42.7A7,7,0,0,1,246.36,67.68Zm-4.15-7.84h7.49a3.48,3.48,0,0,0-.81-1.5,3.3,3.3,0,0,0-1.26-.83,4.41,4.41,0,0,0-1.56-.26,4.65,4.65,0,0,0-1.63.28,3.72,3.72,0,0,0-1.33.86A3.89,3.89,0,0,0,242.21,59.84Z"/><path class="cls-1" d="M255.72,67.42a.88.88,0,0,1-.65-.23.82.82,0,0,1-.24-.63V50.93a.82.82,0,0,1,.24-.63.92.92,0,0,1,.65-.23h.72a.9.9,0,0,1,.64.23.85.85,0,0,1,.22.63V66.56a.78.78,0,0,1-.86.86Z"/><path class="cls-1" d="M261.31,70.47l-.23,0c-.1,0-.19-.06-.27-.22l-.12-.24a.34.34,0,0,1-.05-.3.33.33,0,0,1,.24-.2,2.8,2.8,0,0,0,.76-.58,2.6,2.6,0,0,0,.57-.92,2.89,2.89,0,0,0,.21-1l-.41.1a1.2,1.2,0,0,1-1-.37,1.43,1.43,0,0,1-.42-1,1.48,1.48,0,0,1,.43-1.14,1.7,1.7,0,0,1,1.3-.47,1.44,1.44,0,0,1,1.09.42,2,2,0,0,1,.5.87,3.6,3.6,0,0,1,.11.72,5,5,0,0,1-.4,2,3.9,3.9,0,0,1-1,1.5A4.52,4.52,0,0,1,261.31,70.47Z"/><path class="cls-1" d="M277.63,67.42a.93.93,0,0,1-1-.72l-4.73-15.07a.81.81,0,0,1,.09-.73.74.74,0,0,1,.66-.28h.77a1,1,0,0,1,.61.19,1.13,1.13,0,0,1,.37.53l3.67,11.81,3.51-11.26a.91.91,0,0,1,1-.72h.55a1,1,0,0,1,.62.2.89.89,0,0,1,.36.52l3.48,11.26,3.7-11.81a.94.94,0,0,1,.36-.53,1,1,0,0,1,.62-.19H293a.8.8,0,0,1,.67.29.74.74,0,0,1,.07.72l-4.7,15.07a1,1,0,0,1-.36.53,1,1,0,0,1-.63.19h-.65a1,1,0,0,1-.62-.19.91.91,0,0,1-.36-.53L282.86,55l-3.6,11.66a.91.91,0,0,1-1,.72Z"/><path class="cls-1" d="M300.46,67.68a5.76,5.76,0,0,1-2.4-.49,5.63,5.63,0,0,1-1.9-1.35,6,6,0,0,1-1.22-2,6.9,6.9,0,0,1,0-4.85,6,6,0,0,1,1.22-2,5.49,5.49,0,0,1,1.9-1.35,5.91,5.91,0,0,1,2.4-.48,5.66,5.66,0,0,1,2.38.52,4.73,4.73,0,0,1,1.91,1.64v-1a.82.82,0,0,1,.24-.63.88.88,0,0,1,.65-.23h.72a.78.78,0,0,1,.86.86v10.3a.78.78,0,0,1-.86.86h-.72a.88.88,0,0,1-.65-.23.82.82,0,0,1-.24-.63v-1a4.68,4.68,0,0,1-1.91,1.65A5.65,5.65,0,0,1,300.46,67.68Zm.33-2.16a3.78,3.78,0,0,0,2.87-1.16,4.43,4.43,0,0,0,0-5.93,3.81,3.81,0,0,0-2.87-1.16,3.71,3.71,0,0,0-1.92.49,3.78,3.78,0,0,0-1.37,1.43,4.94,4.94,0,0,0,0,4.41A3.76,3.76,0,0,0,298.86,65,3.69,3.69,0,0,0,300.79,65.52Z"/><path class="cls-1" d="M314.42,67.68a5.73,5.73,0,0,1-2.59-.59,4.13,4.13,0,0,1-1.78-1.73.65.65,0,0,1,0-.68,1,1,0,0,1,.61-.4l.51-.15a1.06,1.06,0,0,1,1.08.51,2.46,2.46,0,0,0,1,.72,3.17,3.17,0,0,0,1.27.26,2.3,2.3,0,0,0,1.43-.45,1.38,1.38,0,0,0,.58-1.13c0-.64-.49-1.13-1.49-1.47l-1.6-.55a5.6,5.6,0,0,1-1.75-.85,2.94,2.94,0,0,1-1-1.19,3.41,3.41,0,0,1-.26-1.25,3.3,3.3,0,0,1,1.13-2.58,4.16,4.16,0,0,1,2.9-1,4.94,4.94,0,0,1,2.15.47,3.34,3.34,0,0,1,1.52,1.5.71.71,0,0,1,.05.71.87.87,0,0,1-.6.4l-.46.09a.92.92,0,0,1-.52,0,1.33,1.33,0,0,1-.61-.5,1.79,1.79,0,0,0-1.46-.63,1.84,1.84,0,0,0-1.25.43,1.39,1.39,0,0,0-.48,1.06c0,.64.47,1.11,1.4,1.39l1.72.58a4.3,4.3,0,0,1,2.25,1.4,3.4,3.4,0,0,1,.68,2,3.5,3.5,0,0,1-.23,1.26,3,3,0,0,1-.78,1.17,4.11,4.11,0,0,1-1.4.86A5.4,5.4,0,0,1,314.42,67.68Z"/><path class="cls-1" d="M322.39,67.42a.88.88,0,0,1-.65-.23.82.82,0,0,1-.24-.63V50.93a.82.82,0,0,1,.24-.63.92.92,0,0,1,.65-.23h.72a.88.88,0,0,1,.64.23.85.85,0,0,1,.23.63v6.82a3.34,3.34,0,0,1,1.46-1.93,4.62,4.62,0,0,1,2.54-.69,5,5,0,0,1,1.85.34,3.9,3.9,0,0,1,1.47,1,4.81,4.81,0,0,1,1,1.73,8,8,0,0,1,.33,2.41v5.93a.82.82,0,0,1-.24.63.88.88,0,0,1-.65.23H331a.82.82,0,0,1-.63-.23.85.85,0,0,1-.23-.63V60.65a5.15,5.15,0,0,0-.29-1.84,2.3,2.3,0,0,0-.84-1.13,2.15,2.15,0,0,0-1.27-.39,3.74,3.74,0,0,0-1.13.21,3.52,3.52,0,0,0-1.25.71,3.65,3.65,0,0,0-1,1.4,5.44,5.44,0,0,0-.38,2.17v4.78a.85.85,0,0,1-.23.63.84.84,0,0,1-.64.23Z"/><path class="cls-1" d="M337.29,53.21a1.59,1.59,0,0,1-1.17-.48,1.56,1.56,0,0,1-.48-1.15,1.65,1.65,0,0,1,.48-1.19,1.6,1.6,0,0,1,1.17-.49,1.7,1.7,0,0,1,1.22.49,1.66,1.66,0,0,1,.49,1.19,1.52,1.52,0,0,1-.51,1.15A1.66,1.66,0,0,1,337.29,53.21ZM337,67.42a.88.88,0,0,1-.65-.23.82.82,0,0,1-.24-.63V56.26a.82.82,0,0,1,.24-.63.88.88,0,0,1,.65-.23h.72a.8.8,0,0,1,.86.86v10.3a.8.8,0,0,1-.86.86Z"/><path class="cls-1" d="M343.13,67.42a.86.86,0,0,1-.65-.23.82.82,0,0,1-.24-.63V56.26a.82.82,0,0,1,.24-.63.86.86,0,0,1,.65-.23h.72a.8.8,0,0,1,.86.86v1.49a3.36,3.36,0,0,1,1.47-1.93,4.58,4.58,0,0,1,2.54-.69,5,5,0,0,1,1.85.34,3.87,3.87,0,0,1,1.46,1,4.53,4.53,0,0,1,1,1.73,8,8,0,0,1,.34,2.41v5.93a.82.82,0,0,1-.24.63.88.88,0,0,1-.65.23h-.72a.84.84,0,0,1-.64-.23.85.85,0,0,1-.23-.63V60.65a5.16,5.16,0,0,0-.28-1.84,2.36,2.36,0,0,0-.84-1.13,2.18,2.18,0,0,0-1.28-.39,3.68,3.68,0,0,0-1.12.21,3.44,3.44,0,0,0-1.25.71,3.55,3.55,0,0,0-1,1.4,5.43,5.43,0,0,0-.39,2.17v4.78a.8.8,0,0,1-.86.86Z"/><path class="cls-1" d="M362.28,73.06a8.2,8.2,0,0,1-4.56-1.25.84.84,0,0,1-.27-1.2l.2-.33c.25-.53.64-.63,1.17-.29a5.71,5.71,0,0,0,1.68.71,7.32,7.32,0,0,0,1.75.23,4,4,0,0,0,2.84-1,3.78,3.78,0,0,0,1.05-2.86V65.52a4.68,4.68,0,0,1-1.91,1.65,5.65,5.65,0,0,1-2.38.51,5.92,5.92,0,0,1-2.42-.49,5.53,5.53,0,0,1-1.9-1.35,6,6,0,0,1-1.22-2,7,7,0,0,1-.42-2.42,6.9,6.9,0,0,1,.42-2.41,6.06,6.06,0,0,1,1.22-2,5.53,5.53,0,0,1,1.9-1.35,5.92,5.92,0,0,1,2.42-.5,5.66,5.66,0,0,1,2.38.52,4.73,4.73,0,0,1,1.91,1.64v-1a.79.79,0,0,1,.24-.61.88.88,0,0,1,.65-.23h.7a.85.85,0,0,1,.64.23.82.82,0,0,1,.24.63v11a5.94,5.94,0,0,1-.76,3.1,5.45,5.45,0,0,1-2.19,2A7.24,7.24,0,0,1,362.28,73.06Zm-.1-7.54a3.78,3.78,0,0,0,2.87-1.16,4.43,4.43,0,0,0,0-5.93,3.81,3.81,0,0,0-2.87-1.16,3.71,3.71,0,0,0-1.92.49,3.78,3.78,0,0,0-1.37,1.43,4.94,4.94,0,0,0,0,4.41A3.76,3.76,0,0,0,360.25,65,3.69,3.69,0,0,0,362.18,65.52Z"/><path class="cls-1" d="M372.53,70.47l-.23,0c-.11,0-.2-.06-.28-.22l-.12-.24a.37.37,0,0,1,0-.3.38.38,0,0,1,.24-.2,2.8,2.8,0,0,0,.76-.58,2.63,2.63,0,0,0,.58-.92,3.09,3.09,0,0,0,.2-1l-.41.1a1.22,1.22,0,0,1-1-.37,1.52,1.52,0,0,1,0-2.11,1.72,1.72,0,0,1,1.3-.47,1.42,1.42,0,0,1,1.09.42,2,2,0,0,1,.51.87,3.44,3.44,0,0,1,.1.72,5.22,5.22,0,0,1-.39,2,3.92,3.92,0,0,1-1.05,1.5A4.48,4.48,0,0,1,372.53,70.47Z"/><path class="cls-1" d="M389.88,67.68a7.13,7.13,0,0,1-3.72-.93,5.31,5.31,0,0,1-2.23-2.47.68.68,0,0,1,0-.68.92.92,0,0,1,.57-.4l.7-.17a.91.91,0,0,1,1.08.57,3.6,3.6,0,0,0,1.4,1.33,4.36,4.36,0,0,0,2.15.52,5.6,5.6,0,0,0,1.57-.24,2.83,2.83,0,0,0,1.37-.85,2.05,2.05,0,0,0,.54-1.4,2.27,2.27,0,0,0-.23-.93,2.53,2.53,0,0,0-.81-.92,5.62,5.62,0,0,0-1.38-.72l-2.5-.84a6.63,6.63,0,0,1-2.93-1.79,4,4,0,0,1-1-2.72,4.87,4.87,0,0,1,.29-1.59,4.22,4.22,0,0,1,1.07-1.58,4.86,4.86,0,0,1,1.9-1.14,6.8,6.8,0,0,1,2.19-.37,6.47,6.47,0,0,1,2.2.35,5.65,5.65,0,0,1,1.82,1,4.59,4.59,0,0,1,1.26,1.76,1.14,1.14,0,0,1,.07.41.59.59,0,0,1-.18.41.85.85,0,0,1-.46.26l-.6.2a.89.89,0,0,1-1.11-.55,3,3,0,0,0-3-1.64,3.53,3.53,0,0,0-1.61.36,2.15,2.15,0,0,0-1,.93A2.36,2.36,0,0,0,387,55a1.86,1.86,0,0,0,.59,1.41,4.54,4.54,0,0,0,1.55.91l2.49.94a8.38,8.38,0,0,1,1.52.65,6.28,6.28,0,0,1,1.4,1.07,3.94,3.94,0,0,1,.94,1.44,4.43,4.43,0,0,1-1.36,5A6.53,6.53,0,0,1,389.88,67.68Z"/><path class="cls-1" d="M404.09,67.68a6.54,6.54,0,0,1-2.44-.47,6.18,6.18,0,0,1-2-1.36,6.44,6.44,0,0,1-1.37-2,6.17,6.17,0,0,1,0-4.82,6.39,6.39,0,0,1,1.37-2,6.32,6.32,0,0,1,2-1.35,6.2,6.2,0,0,1,4.88,0A6.45,6.45,0,0,1,408.6,57,6.26,6.26,0,0,1,410,59a6.17,6.17,0,0,1,0,4.82,6.26,6.26,0,0,1-1.38,2,6.45,6.45,0,0,1-2.07,1.35A6.22,6.22,0,0,1,404.09,67.68Zm0-2.16A3.81,3.81,0,0,0,406,65a3.72,3.72,0,0,0,1.45-1.54,4.29,4.29,0,0,0,.52-2,4.36,4.36,0,0,0-.52-2A3.65,3.65,0,0,0,406,57.83a3.87,3.87,0,0,0-1.93-.54,4,4,0,0,0-1.23.22,3.58,3.58,0,0,0-1.23.73,4.45,4.45,0,0,0-1,1.33,4,4,0,0,0-.42,1.85,4.39,4.39,0,0,0,.51,2,3.84,3.84,0,0,0,3.38,2.07Z"/><path class="cls-1" d="M414.07,67.42a.88.88,0,0,1-.65-.23.82.82,0,0,1-.24-.63V56.26a.82.82,0,0,1,.24-.63.88.88,0,0,1,.65-.23h.72a.78.78,0,0,1,.86.86v1.83a5.2,5.2,0,0,1,.54-1.36,3.14,3.14,0,0,1,1.14-1.15,3,3,0,0,1,1.54-.45l.53,0q.57.08.57,1v.69c0,.6-.21.84-.64.75a2.81,2.81,0,0,0-.65-.07,2.43,2.43,0,0,0-1.39.44,3.45,3.45,0,0,0-1.16,1.63,9,9,0,0,0-.48,3.28v3.72a.78.78,0,0,1-.86.86Z"/><path class="cls-1" d="M426.48,67.68a4.8,4.8,0,0,1-1.38-.2,3.24,3.24,0,0,1-1.26-.69A3.34,3.34,0,0,1,423,65.5a5.15,5.15,0,0,1-.31-1.9V57.32H421.2a.44.44,0,0,1-.35-.15.48.48,0,0,1-.13-.36v-.93a.45.45,0,0,1,.48-.48h1.51l.43-2.76a.88.88,0,0,1,.25-.51.77.77,0,0,1,.52-.19h.5a.67.67,0,0,1,.52.22.75.75,0,0,1,.2.52V55.4h3.29a.48.48,0,0,1,.35.13.46.46,0,0,1,.13.35v.93a.48.48,0,0,1-.13.36.45.45,0,0,1-.35.15h-3.29v6.43a1.93,1.93,0,0,0,.4,1.35,1.27,1.27,0,0,0,1,.45,1.52,1.52,0,0,0,1-.35,1.17,1.17,0,0,0,.42-1l-.05-.45a.58.58,0,0,1,.09-.4.4.4,0,0,1,.35-.15h1.1a.49.49,0,0,1,.55.43,3.54,3.54,0,0,1,.1.88,2.89,2.89,0,0,1-1,2.26A3.78,3.78,0,0,1,426.48,67.68Z"/><path class="cls-1" d="M433.51,53.21a1.61,1.61,0,0,1-1.18-.48,1.56,1.56,0,0,1-.48-1.15,1.65,1.65,0,0,1,.48-1.19,1.62,1.62,0,0,1,1.18-.49,1.68,1.68,0,0,1,1.21.49,1.62,1.62,0,0,1,.49,1.19,1.51,1.51,0,0,1-.5,1.15A1.69,1.69,0,0,1,433.51,53.21Zm-.34,14.21a.84.84,0,0,1-.64-.23.82.82,0,0,1-.24-.63V56.26a.82.82,0,0,1,.24-.63.84.84,0,0,1,.64-.23h.72a.82.82,0,0,1,.64.23.85.85,0,0,1,.23.63v10.3a.85.85,0,0,1-.23.63.82.82,0,0,1-.64.23Z"/><path class="cls-1" d="M439.34,67.42a.88.88,0,0,1-.65-.23.82.82,0,0,1-.24-.63V56.26a.82.82,0,0,1,.24-.63.88.88,0,0,1,.65-.23h.72a.8.8,0,0,1,.87.86v1.49a3.34,3.34,0,0,1,1.46-1.93,4.62,4.62,0,0,1,2.54-.69,5,5,0,0,1,1.85.34,3.79,3.79,0,0,1,1.46,1,4.53,4.53,0,0,1,1,1.73,7.66,7.66,0,0,1,.34,2.41v5.93a.82.82,0,0,1-.24.63.88.88,0,0,1-.65.23h-.72a.8.8,0,0,1-.86-.86V60.65a5.15,5.15,0,0,0-.29-1.84,2.3,2.3,0,0,0-.84-1.13,2.15,2.15,0,0,0-1.27-.39,3.74,3.74,0,0,0-1.13.21,3.58,3.58,0,0,0-2.23,2.11,5.44,5.44,0,0,0-.38,2.17v4.78a.8.8,0,0,1-.87.86Z"/><path class="cls-1" d="M458.49,73.06a8.2,8.2,0,0,1-4.56-1.25.83.83,0,0,1-.26-1.2l.19-.33c.26-.53.65-.63,1.18-.29a5.71,5.71,0,0,0,1.68.71,7.32,7.32,0,0,0,1.75.23,3.94,3.94,0,0,0,2.83-1,3.75,3.75,0,0,0,1.06-2.86V65.52a4.75,4.75,0,0,1-1.91,1.65,5.67,5.67,0,0,1-2.39.51,5.87,5.87,0,0,1-2.41-.49,5.67,5.67,0,0,1-1.91-1.35,6,6,0,0,1-1.21-2,7,7,0,0,1-.42-2.42,6.9,6.9,0,0,1,.42-2.41,6,6,0,0,1,1.21-2,5.67,5.67,0,0,1,1.91-1.35,5.88,5.88,0,0,1,2.41-.5,5.67,5.67,0,0,1,2.39.52,4.8,4.8,0,0,1,1.91,1.64v-1a.79.79,0,0,1,.24-.61.86.86,0,0,1,.65-.23h.69a.88.88,0,0,1,.65.23.82.82,0,0,1,.24.63v11a5.94,5.94,0,0,1-.77,3.1,5.42,5.42,0,0,1-2.18,2A7.31,7.31,0,0,1,458.49,73.06Zm-.09-7.54a3.77,3.77,0,0,0,2.86-1.16,4.4,4.4,0,0,0,0-5.93,3.81,3.81,0,0,0-2.86-1.16,3.6,3.6,0,0,0-3.29,1.92,4.85,4.85,0,0,0,0,4.41A3.61,3.61,0,0,0,456.47,65,3.67,3.67,0,0,0,458.4,65.52Z"/><path class="cls-1" d="M168.34,96.48a9.33,9.33,0,0,1-3.54-.67A8.51,8.51,0,0,1,161.92,94a8.22,8.22,0,0,1-1.87-2.77,8.71,8.71,0,0,1,1.89-9.48,8.85,8.85,0,0,1,2.82-1.87,8.58,8.58,0,0,1,3.36-.67,10.15,10.15,0,0,1,5.45,1.39.81.81,0,0,1,.29,1.2l-.24.41c-.26.51-.66.61-1.2.31a9.89,9.89,0,0,0-1.89-.77,8.85,8.85,0,0,0-2.41-.26,5.82,5.82,0,0,0-2.37.49,6,6,0,0,0-2,1.38,6.61,6.61,0,0,0-1.32,2.06,6.52,6.52,0,0,0-.48,2.48,6.86,6.86,0,0,0,.42,2.35,6.2,6.2,0,0,0,1.23,2,5.81,5.81,0,0,0,2.06,1.43,7.42,7.42,0,0,0,6.61-.55V89.79h-3.79a.83.83,0,0,1-.64-.24.92.92,0,0,1-.23-.65v-.29a.8.8,0,0,1,.87-.86h5.25a.88.88,0,0,1,.64.23.85.85,0,0,1,.23.63v4.85a1.6,1.6,0,0,1-.75,1.27A9.39,9.39,0,0,1,171.49,96,9.13,9.13,0,0,1,168.34,96.48Z"/><path class="cls-1" d="M178.63,96.22A.9.9,0,0,1,178,96a.82.82,0,0,1-.24-.63V85.06a.82.82,0,0,1,.24-.63.85.85,0,0,1,.64-.23h.72a.82.82,0,0,1,.64.23.85.85,0,0,1,.23.63v1.83a4.59,4.59,0,0,1,.54-1.36,3,3,0,0,1,1.14-1.15,2.92,2.92,0,0,1,1.53-.45l.53,0c.39.05.58.37.58,1v.69c0,.6-.22.84-.65.75a2.76,2.76,0,0,0-.65-.07,2.45,2.45,0,0,0-1.39.44,3.44,3.44,0,0,0-1.15,1.63,9,9,0,0,0-.48,3.28v3.72a.8.8,0,0,1-.87.86Z"/><path class="cls-1" d="M187.92,82a1.59,1.59,0,0,1-1.17-.48,1.56,1.56,0,0,1-.48-1.15,1.65,1.65,0,0,1,.48-1.19,1.6,1.6,0,0,1,1.17-.49,1.68,1.68,0,0,1,1.21.49,1.63,1.63,0,0,1,.5,1.19,1.52,1.52,0,0,1-.51,1.15A1.66,1.66,0,0,1,187.92,82Zm-.33,14.21a.9.9,0,0,1-.65-.23.82.82,0,0,1-.24-.63V85.06a.82.82,0,0,1,.24-.63.86.86,0,0,1,.65-.23h.72a.82.82,0,0,1,.63.23.85.85,0,0,1,.23.63v10.3a.8.8,0,0,1-.86.86Z"/><path class="cls-1" d="M193.75,96.22a.9.9,0,0,1-.64-.23.82.82,0,0,1-.24-.63V85.06a.82.82,0,0,1,.24-.63.85.85,0,0,1,.64-.23h.72a.82.82,0,0,1,.64.23.85.85,0,0,1,.23.63v1.49a3.34,3.34,0,0,1,1.46-1.93,4.63,4.63,0,0,1,2.55-.69,5,5,0,0,1,1.84.34,3.9,3.9,0,0,1,1.47,1,4.81,4.81,0,0,1,1,1.73,8,8,0,0,1,.33,2.41v5.93a.82.82,0,0,1-.24.63.9.9,0,0,1-.64.23h-.72a.8.8,0,0,1-.87-.86V89.45a5,5,0,0,0-.29-1.85,2.32,2.32,0,0,0-.84-1.12,2.13,2.13,0,0,0-1.27-.39,3.79,3.79,0,0,0-1.13.21,3.48,3.48,0,0,0-1.24.71,3.66,3.66,0,0,0-1,1.4,5.62,5.62,0,0,0-.38,2.17v4.78a.8.8,0,0,1-.87.86Z"/><path class="cls-1" d="M212.5,96.48a5.76,5.76,0,0,1-2.4-.49,5.63,5.63,0,0,1-1.9-1.35,6,6,0,0,1-1.22-2,7.05,7.05,0,0,1,0-4.85,6,6,0,0,1,1.22-2,5.49,5.49,0,0,1,1.9-1.35,5.91,5.91,0,0,1,2.4-.48,5.56,5.56,0,0,1,2.39.52,4.77,4.77,0,0,1,1.9,1.64V79.73a.82.82,0,0,1,.24-.63.92.92,0,0,1,.65-.23h.72a.88.88,0,0,1,.64.23.85.85,0,0,1,.22.63V95.36A.85.85,0,0,1,219,96a.88.88,0,0,1-.64.23h-.72A.92.92,0,0,1,217,96a.82.82,0,0,1-.24-.63v-1a4.72,4.72,0,0,1-1.9,1.65A5.7,5.7,0,0,1,212.5,96.48Zm.33-2.16a3.78,3.78,0,0,0,2.87-1.16,4.43,4.43,0,0,0,0-5.93,3.81,3.81,0,0,0-2.87-1.16A3.57,3.57,0,0,0,209.55,88a4.85,4.85,0,0,0,0,4.41,3.55,3.55,0,0,0,3.28,1.92Z"/><path class="cls-1" d="M224.18,82a1.59,1.59,0,0,1-1.17-.48,1.56,1.56,0,0,1-.48-1.15,1.65,1.65,0,0,1,.48-1.19,1.6,1.6,0,0,1,1.17-.49,1.68,1.68,0,0,1,1.22.49,1.66,1.66,0,0,1,.49,1.19,1.55,1.55,0,0,1-.5,1.15A1.7,1.7,0,0,1,224.18,82Zm-.33,14.21a.92.92,0,0,1-.65-.23.82.82,0,0,1-.24-.63V85.06a.82.82,0,0,1,.24-.63.88.88,0,0,1,.65-.23h.72a.78.78,0,0,1,.86.86v10.3a.85.85,0,0,1-.22.63.9.9,0,0,1-.64.23Z"/><path class="cls-1" d="M230,96.22a.92.92,0,0,1-.65-.23.82.82,0,0,1-.24-.63V85.06a.82.82,0,0,1,.24-.63.88.88,0,0,1,.65-.23h.72a.8.8,0,0,1,.86.86v1.49a3.4,3.4,0,0,1,1.47-1.93,4.6,4.6,0,0,1,2.54-.69,5,5,0,0,1,1.85.34,3.79,3.79,0,0,1,1.46,1,4.53,4.53,0,0,1,1,1.73,8,8,0,0,1,.34,2.41v5.93A.82.82,0,0,1,240,96a.92.92,0,0,1-.65.23h-.72A.9.9,0,0,1,238,96a.85.85,0,0,1-.22-.63V89.45a5.24,5.24,0,0,0-.29-1.85,2.38,2.38,0,0,0-.84-1.12,2.15,2.15,0,0,0-1.27-.39,3.69,3.69,0,0,0-1.13.21A3.58,3.58,0,0,0,232,88.41a5.43,5.43,0,0,0-.39,2.17v4.78a.82.82,0,0,1-.23.63.85.85,0,0,1-.63.23Z"/><path class="cls-1" d="M249.17,101.86a8.2,8.2,0,0,1-4.56-1.25.83.83,0,0,1-.26-1.2l.19-.33c.25-.53.64-.63,1.17-.29a5.71,5.71,0,0,0,1.68.71,7.32,7.32,0,0,0,1.75.23,4,4,0,0,0,2.84-1A3.78,3.78,0,0,0,253,95.86V94.32a4.66,4.66,0,0,1-1.9,1.65,5.7,5.7,0,0,1-2.39.51,5.92,5.92,0,0,1-2.42-.49,5.53,5.53,0,0,1-1.9-1.35,5.82,5.82,0,0,1-1.21-2,7,7,0,0,1-.43-2.42,6.91,6.91,0,0,1,.43-2.41,5.87,5.87,0,0,1,1.21-2,5.53,5.53,0,0,1,1.9-1.35,5.92,5.92,0,0,1,2.42-.5,5.56,5.56,0,0,1,2.39.52,4.71,4.71,0,0,1,1.9,1.64V85a.79.79,0,0,1,.24-.61.88.88,0,0,1,.65-.23h.7a.85.85,0,0,1,.64.23.79.79,0,0,1,.25.63V96a5.94,5.94,0,0,1-.77,3.1,5.45,5.45,0,0,1-2.19,2A7.24,7.24,0,0,1,249.17,101.86Zm-.1-7.54a3.78,3.78,0,0,0,2.87-1.16,4.43,4.43,0,0,0,0-5.93,3.81,3.81,0,0,0-2.87-1.16,3.71,3.71,0,0,0-1.92.49A3.78,3.78,0,0,0,245.78,88a4.94,4.94,0,0,0,0,4.41,3.76,3.76,0,0,0,1.36,1.43A3.69,3.69,0,0,0,249.07,94.32Z"/><path class="cls-1" d="M259.42,99.27l-.23,0c-.11,0-.2-.06-.28-.22l-.12-.24a.32.32,0,0,1,.19-.5,2.8,2.8,0,0,0,.76-.58,2.72,2.72,0,0,0,.58-.92,3.09,3.09,0,0,0,.2-1l-.41.1a1.22,1.22,0,0,1-1-.37,1.52,1.52,0,0,1,0-2.11,1.72,1.72,0,0,1,1.3-.47,1.42,1.42,0,0,1,1.09.42,1.88,1.88,0,0,1,.51.87,3.44,3.44,0,0,1,.1.72,5.22,5.22,0,0,1-.39,2,4,4,0,0,1-1,1.5A4.67,4.67,0,0,1,259.42,99.27Z"/><path class="cls-1" d="M276.77,96.48a7.13,7.13,0,0,1-3.72-.93,5.31,5.31,0,0,1-2.23-2.47.68.68,0,0,1,0-.68.92.92,0,0,1,.57-.4l.7-.17a.91.91,0,0,1,1.08.57,3.6,3.6,0,0,0,1.4,1.33,4.36,4.36,0,0,0,2.15.52,5.6,5.6,0,0,0,1.57-.24,2.83,2.83,0,0,0,1.37-.85,2.05,2.05,0,0,0,.54-1.4,2.27,2.27,0,0,0-.23-.93,2.53,2.53,0,0,0-.81-.92,5.62,5.62,0,0,0-1.38-.72l-2.5-.84a6.63,6.63,0,0,1-2.93-1.79,4,4,0,0,1-1-2.72,4.87,4.87,0,0,1,.29-1.59,4.22,4.22,0,0,1,1.07-1.58,4.86,4.86,0,0,1,1.9-1.14,6.8,6.8,0,0,1,2.19-.37,6.47,6.47,0,0,1,2.2.35,5.65,5.65,0,0,1,1.82,1,4.59,4.59,0,0,1,1.26,1.76,1.14,1.14,0,0,1,.07.41.59.59,0,0,1-.18.41.85.85,0,0,1-.46.26l-.6.2a.89.89,0,0,1-1.11-.55,3,3,0,0,0-3-1.64,3.53,3.53,0,0,0-1.61.36,2.15,2.15,0,0,0-1,.93,2.36,2.36,0,0,0-.29,1.07,1.86,1.86,0,0,0,.59,1.41,4.54,4.54,0,0,0,1.55.91l2.49.94a8.38,8.38,0,0,1,1.52.65,6.28,6.28,0,0,1,1.4,1.07,3.9,3.9,0,0,1,.94,1.43,4.41,4.41,0,0,1,.27,1.41A4.34,4.34,0,0,1,281,95.15,6.53,6.53,0,0,1,276.77,96.48Z"/><path class="cls-1" d="M291.46,96.48a8.19,8.19,0,0,1-2.8-.47,6.33,6.33,0,0,1-2.18-1.35,5.72,5.72,0,0,1-1.37-2,6.43,6.43,0,0,1,0-4.85,6,6,0,0,1,1.36-2,6.28,6.28,0,0,1,2.08-1.35,6.71,6.71,0,0,1,2.56-.5,7,7,0,0,1,2.18.35,5.63,5.63,0,0,1,1.9,1.06,5.42,5.42,0,0,1,1.38,1.79,6.71,6.71,0,0,1,.66,2.44.77.77,0,0,1-.18.65.86.86,0,0,1-.66.24h-9.31a3.38,3.38,0,0,0,1.2,2.77,4.64,4.64,0,0,0,3.19,1.09,5.7,5.7,0,0,0,3.26-1,.89.89,0,0,1,1.23.12l.17.19a.86.86,0,0,1,.25.67,1.17,1.17,0,0,1-.42.7A7,7,0,0,1,291.46,96.48Zm-4.16-7.84h7.49a3.36,3.36,0,0,0-.8-1.5,3.3,3.3,0,0,0-1.26-.83,4.41,4.41,0,0,0-1.56-.26,4.62,4.62,0,0,0-1.63.28,3.74,3.74,0,0,0-1.34.85A4.31,4.31,0,0,0,287.3,88.64Z"/><path class="cls-1" d="M300.74,101.6a.9.9,0,0,1-.64-.23.83.83,0,0,1-.24-.64V85.06a.82.82,0,0,1,.24-.63.85.85,0,0,1,.64-.23h.72a.82.82,0,0,1,.64.23.85.85,0,0,1,.23.63v1a4.76,4.76,0,0,1,1.92-1.64,5.6,5.6,0,0,1,2.4-.52,6,6,0,0,1,2.4.48,5.45,5.45,0,0,1,1.89,1.35,6.15,6.15,0,0,1,1.23,2,7.05,7.05,0,0,1,0,4.85,6.19,6.19,0,0,1-1.23,2A5.59,5.59,0,0,1,309.05,96a5.82,5.82,0,0,1-2.4.49,5.74,5.74,0,0,1-2.4-.51,4.71,4.71,0,0,1-1.92-1.65v6.41a.8.8,0,0,1-.87.87Zm5.55-7.28a3.76,3.76,0,0,0,1.94-.49,3.64,3.64,0,0,0,1.37-1.43,4.85,4.85,0,0,0,0-4.41,3.7,3.7,0,0,0-1.37-1.43,4.08,4.08,0,0,0-4.81.69,4.39,4.39,0,0,0,0,5.9A3.78,3.78,0,0,0,306.29,94.32Z"/><path class="cls-1" d="M320.42,96.48A5.82,5.82,0,0,1,318,96a5.68,5.68,0,0,1-1.89-1.35,6.19,6.19,0,0,1-1.23-2,7.05,7.05,0,0,1,0-4.85,6.15,6.15,0,0,1,1.23-2A5.55,5.55,0,0,1,318,84.41a6,6,0,0,1,2.4-.48,5.53,5.53,0,0,1,2.39.52,4.8,4.8,0,0,1,1.91,1.64v-1a.82.82,0,0,1,.24-.63.88.88,0,0,1,.65-.23h.72a.8.8,0,0,1,.86.86v10.3A.82.82,0,0,1,327,96a.85.85,0,0,1-.63.23h-.72A.92.92,0,0,1,325,96a.82.82,0,0,1-.24-.63v-1A4.75,4.75,0,0,1,322.81,96,5.67,5.67,0,0,1,320.42,96.48Zm.34-2.16a3.79,3.79,0,0,0,2.87-1.16,4.43,4.43,0,0,0,0-5.93,3.83,3.83,0,0,0-2.87-1.16A3.6,3.6,0,0,0,317.47,88a4.85,4.85,0,0,0,0,4.41,3.58,3.58,0,0,0,3.29,1.92Z"/><path class="cls-1" d="M331.7,96.22a.94.94,0,0,1-.65-.23.82.82,0,0,1-.24-.63V85.06a.82.82,0,0,1,.24-.63.89.89,0,0,1,.65-.23h.72a.84.84,0,0,1,.64.23.85.85,0,0,1,.23.63v1.83a4.59,4.59,0,0,1,.54-1.36A3,3,0,0,1,335,84.38a2.89,2.89,0,0,1,1.53-.45l.53,0c.39.05.58.37.58,1v.69c0,.6-.22.84-.65.75a2.81,2.81,0,0,0-.65-.07,2.45,2.45,0,0,0-1.39.44,3.44,3.44,0,0,0-1.15,1.63,9,9,0,0,0-.48,3.28v3.72a.85.85,0,0,1-.23.63.88.88,0,0,1-.64.23Z"/><path class="cls-1" d="M344.57,96.48a5.76,5.76,0,0,1-2.4-.49,5.63,5.63,0,0,1-1.9-1.35,6.17,6.17,0,0,1-1.22-2,6.9,6.9,0,0,1,0-4.85,6.12,6.12,0,0,1,1.22-2,5.49,5.49,0,0,1,1.9-1.35,5.91,5.91,0,0,1,2.4-.48,5.56,5.56,0,0,1,2.39.52,4.71,4.71,0,0,1,1.9,1.64v-1a.82.82,0,0,1,.24-.63.88.88,0,0,1,.65-.23h.72a.8.8,0,0,1,.87.86v10.3a.85.85,0,0,1-.23.63.9.9,0,0,1-.64.23h-.72a.92.92,0,0,1-.65-.23.82.82,0,0,1-.24-.63v-1A4.66,4.66,0,0,1,347,96,5.7,5.7,0,0,1,344.57,96.48Zm.33-2.16a3.78,3.78,0,0,0,2.87-1.16,4.43,4.43,0,0,0,0-5.93,3.81,3.81,0,0,0-2.87-1.16,3.71,3.71,0,0,0-1.92.49A3.78,3.78,0,0,0,341.61,88a4.94,4.94,0,0,0,0,4.41A3.76,3.76,0,0,0,343,93.83,3.69,3.69,0,0,0,344.9,94.32Z"/><path class="cls-1" d="M359.38,96.48a4.8,4.8,0,0,1-1.38-.2,3.23,3.23,0,0,1-1.26-.69,3.34,3.34,0,0,1-.87-1.29,5.15,5.15,0,0,1-.31-1.9V86.12H354.1a.44.44,0,0,1-.35-.15.48.48,0,0,1-.13-.36v-.93a.45.45,0,0,1,.48-.48h1.51l.43-2.76a.88.88,0,0,1,.25-.51.77.77,0,0,1,.52-.19h.5a.67.67,0,0,1,.52.22.75.75,0,0,1,.2.52V84.2h3.29a.48.48,0,0,1,.35.13.46.46,0,0,1,.13.35v.93a.48.48,0,0,1-.13.36.45.45,0,0,1-.35.15H358v6.43a1.93,1.93,0,0,0,.4,1.35,1.25,1.25,0,0,0,1,.45,1.52,1.52,0,0,0,1-.35,1.17,1.17,0,0,0,.42-1l0-.45a.58.58,0,0,1,.09-.4.38.38,0,0,1,.34-.15h1.11a.49.49,0,0,1,.55.43,4.09,4.09,0,0,1,.1.88,2.89,2.89,0,0,1-1,2.26A3.78,3.78,0,0,1,359.38,96.48Z"/><path class="cls-1" d="M366.41,82a1.6,1.6,0,0,1-1.18-.48,1.56,1.56,0,0,1-.48-1.15,1.65,1.65,0,0,1,.48-1.19,1.61,1.61,0,0,1,1.18-.49,1.68,1.68,0,0,1,1.21.49,1.62,1.62,0,0,1,.49,1.19,1.55,1.55,0,0,1-.5,1.15A1.69,1.69,0,0,1,366.41,82Zm-.34,14.21a.92.92,0,0,1-.65-.23.82.82,0,0,1-.24-.63V85.06a.82.82,0,0,1,.24-.63.88.88,0,0,1,.65-.23h.72a.78.78,0,0,1,.86.86v10.3a.85.85,0,0,1-.22.63.9.9,0,0,1-.64.23Z"/><path class="cls-1" d="M376.8,96.48a6.25,6.25,0,0,1-4.48-1.83,6.35,6.35,0,0,1-1.36-2,6.06,6.06,0,0,1,0-4.82,6.2,6.2,0,0,1,1.36-2,6.54,6.54,0,0,1,2-1.35,6.19,6.19,0,0,1,2.44-.5,6.28,6.28,0,0,1,2.45.5,6.51,6.51,0,0,1,2.06,1.35,6.26,6.26,0,0,1,1.38,2,6,6,0,0,1,.49,2.4,6.05,6.05,0,0,1-.49,2.42,6.26,6.26,0,0,1-1.38,2A6.51,6.51,0,0,1,379.25,96,6.27,6.27,0,0,1,376.8,96.48Zm0-2.16a3.91,3.91,0,0,0,1.94-.53,3.66,3.66,0,0,0,1.45-1.54,4.29,4.29,0,0,0,.52-2,4.36,4.36,0,0,0-.52-2,3.65,3.65,0,0,0-1.46-1.55,3.84,3.84,0,0,0-1.93-.54,4,4,0,0,0-1.22.22,3.52,3.52,0,0,0-1.24.73,4.62,4.62,0,0,0-1,1.33,4,4,0,0,0-.42,1.85,4.29,4.29,0,0,0,.52,2,3.72,3.72,0,0,0,1.45,1.54A3.86,3.86,0,0,0,376.8,94.32Z"/><path class="cls-1" d="M386.78,96.22a.92.92,0,0,1-.65-.23.82.82,0,0,1-.24-.63V85.06a.82.82,0,0,1,.24-.63.88.88,0,0,1,.65-.23h.72a.84.84,0,0,1,.64.23.85.85,0,0,1,.23.63v1.49a3.34,3.34,0,0,1,1.46-1.93,4.62,4.62,0,0,1,2.54-.69,5,5,0,0,1,1.85.34,3.9,3.9,0,0,1,1.47,1,4.81,4.81,0,0,1,1,1.73,8,8,0,0,1,.33,2.41v5.93a.82.82,0,0,1-.24.63.9.9,0,0,1-.65.23h-.72a.8.8,0,0,1-.86-.86V89.45a5.24,5.24,0,0,0-.29-1.85,2.32,2.32,0,0,0-.84-1.12,2.15,2.15,0,0,0-1.27-.39,3.74,3.74,0,0,0-1.13.21,3.52,3.52,0,0,0-1.25.71,3.65,3.65,0,0,0-1,1.4,5.44,5.44,0,0,0-.38,2.17v4.78a.85.85,0,0,1-.23.63.88.88,0,0,1-.64.23Z"/><path class="cls-1" d="M117.12,69.31a10.36,10.36,0,0,1,18.43-4.9L137.4,62a13.33,13.33,0,0,0-23.27,7.32h-4.54l5.93,7.78,5.93-7.78Z"/><path class="cls-1" d="M139.24,64.46l-5.93,7.78h4.34a10.36,10.36,0,0,1-18.45,4.91l-1.85,2.43a13.34,13.34,0,0,0,23.29-7.34h4.53Z"/></g></svg>