<svg xmlns="http://www.w3.org/2000/svg" xmlns:xlink="http://www.w3.org/1999/xlink" viewBox="0 0 1400 380"><defs><style>.cls-1,.cls-13,.cls-5{fill:none;}.cls-2{clip-path:url(#clip-path);}.cls-3{clip-path:url(#clip-path-2);}.cls-4{fill:#fff;}.cls-5{stroke:#c8c2c2;stroke-width:1.63px;}.cls-13,.cls-5{stroke-miterlimit:10;}.cls-6,.cls-7,.cls-8{fill:#bfc723;}.cls-10,.cls-7{opacity:0.4;}.cls-8{opacity:0.3;}.cls-10,.cls-11,.cls-12,.cls-9{fill:#c8c2c2;}.cls-9{opacity:0.2;}.cls-11{opacity:0.6;}.cls-13{stroke:#bfc723;stroke-width:1.12px;}</style><clipPath id="clip-path"><rect class="cls-1" x="-2172.49" y="-1156.5" width="750" height="1150.75"/></clipPath><clipPath id="clip-path-2"><rect class="cls-1" x="-980.03" y="-1162.25" width="757.5" height="1162.25"/></clipPath><image id="image" width="1806" height="1309" xlink:href="../../Dropbox/前後&apos;s shared workspace/PROJECTS/202002_SAYA/攝影/20200505_南亞紗廠攝影30張final/jpg/20200401-196.jpg"/></defs><title>m_fig1</title><g id="圖層_2" data-name="圖層 2"><g class="cls-2"><use transform="translate(-2403.25 -1196.99) scale(1.38)" xlink:href="#image"/></g><g class="cls-3"><use transform="translate(-1213.1 -1203.15) scale(1.4)" xlink:href="#image"/></g><path class="cls-4" d="M80.67,308.34a1.49,1.49,0,0,1-1.16-.44,1.41,1.41,0,0,1-.31-1.2L81,287.41a1.42,1.42,0,0,1,1.6-1.47H84.9a1.81,1.81,0,0,1,1.79,1.21l5.7,13.92,5.72-13.92a1.75,1.75,0,0,1,1.76-1.21h2.34a1.46,1.46,0,0,1,1.6,1.47l1.79,19.29c.11,1.09-.38,1.64-1.47,1.64h-1.95a1.47,1.47,0,0,1-1.63-1.48l-1-12.22-4.93,12.22a1.74,1.74,0,0,1-1.76,1.22H92a1.75,1.75,0,0,1-1.76-1.22l-4.93-12.22-1,12.22a1.42,1.42,0,0,1-1.6,1.48Z"/><path class="cls-4" d="M116.13,308.69a7.35,7.35,0,0,1-5.66-2.45,9.48,9.48,0,0,1,0-12.24,7.32,7.32,0,0,1,5.66-2.46,5.84,5.84,0,0,1,5.28,2.68v-.8a1.36,1.36,0,0,1,1.54-1.53h1.88a1.36,1.36,0,0,1,1.54,1.53V306.8a1.36,1.36,0,0,1-1.54,1.54H123a1.36,1.36,0,0,1-1.54-1.54V306A5.86,5.86,0,0,1,116.13,308.69Zm1.15-4a3.89,3.89,0,0,0,3-1.31,5.22,5.22,0,0,0,0-6.59,3.86,3.86,0,0,0-3-1.32,3.7,3.7,0,0,0-3,1.33,5.47,5.47,0,0,0,0,6.58A3.72,3.72,0,0,0,117.28,304.72Z"/><path class="cls-4" d="M138.21,315.86a13.63,13.63,0,0,1-6.4-1.48,1.33,1.33,0,0,1-.54-2.11l.38-.7a1.35,1.35,0,0,1,2.08-.58,8.75,8.75,0,0,0,4,1,4.9,4.9,0,0,0,3.47-1.2,4.61,4.61,0,0,0,1.3-3.57V306a5.89,5.89,0,0,1-5.31,2.66,7.22,7.22,0,0,1-5.65-2.5,9.44,9.44,0,0,1,0-12.16,7.25,7.25,0,0,1,5.65-2.49,5.83,5.83,0,0,1,5.25,2.68v-.92q0-1.41,1.56-1.41h1.76a1.36,1.36,0,0,1,1.54,1.53v13.7c0,3-.85,5.16-2.54,6.59A9.87,9.87,0,0,1,138.21,315.86Zm-2.86-12.42a3.69,3.69,0,0,0,3,1.34,3.84,3.84,0,0,0,3-1.32,5.26,5.26,0,0,0,0-6.69,3.82,3.82,0,0,0-3-1.33,3.68,3.68,0,0,0-3,1.36,5.4,5.4,0,0,0,0,6.64Z"/><path class="cls-4" d="M152.83,308.34a1.36,1.36,0,0,1-1.53-1.54V293.42a1.35,1.35,0,0,1,1.53-1.53h1.89a1.36,1.36,0,0,1,1.54,1.53v1.09q1.25-3,5-3a5.18,5.18,0,0,1,4.56,2.06,8.93,8.93,0,0,1,1.46,5.26v7.94a1.38,1.38,0,0,1-1.57,1.54h-1.86a1.36,1.36,0,0,1-1.53-1.54v-7.58a4.61,4.61,0,0,0-.68-2.69,2.18,2.18,0,0,0-1.92-1,3.18,3.18,0,0,0-2.43,1.12,4.68,4.68,0,0,0-1,3.26v6.85a1.36,1.36,0,0,1-1.54,1.54Z"/><path class="cls-4" d="M179.46,308.69a9.65,9.65,0,0,1-6.88-2.43,8,8,0,0,1-2.59-6.08,8.42,8.42,0,0,1,2.49-6.12,8.79,8.79,0,0,1,6.53-2.52,9.05,9.05,0,0,1,6.11,2.12,7.93,7.93,0,0,1,2.63,5.94,1.16,1.16,0,0,1-.4,1,1.89,1.89,0,0,1-1.17.33H174.72a3.21,3.21,0,0,0,1.36,2.69,5.68,5.68,0,0,0,3.7,1.15,7.37,7.37,0,0,0,3.65-1,1.54,1.54,0,0,1,2.17.32l.35.45a1.38,1.38,0,0,1-.28,2.27A10.29,10.29,0,0,1,179.46,308.69Zm-4.61-10.5h8.26a3.24,3.24,0,0,0-1.46-2.22,4.88,4.88,0,0,0-2.58-.69,5.17,5.17,0,0,0-2.65.7A3.45,3.45,0,0,0,174.85,298.19Z"/><path class="cls-4" d="M197.19,308.69a7.26,7.26,0,0,1-2.08-.29,6.26,6.26,0,0,1-1.83-.91,4.19,4.19,0,0,1-1.36-1.81,7.3,7.3,0,0,1-.49-2.82v-7.29h-1.64a.72.72,0,0,1-.83-.8v-2.08a.72.72,0,0,1,.83-.8h2l.54-3.33a1.14,1.14,0,0,1,1.25-1h1.57a1,1,0,0,1,1.12,1.12v3.23H200a.71.71,0,0,1,.8.8v2.08a.71.71,0,0,1-.8.8h-3.71V303c0,1.14.45,1.7,1.34,1.7a1.3,1.3,0,0,0,1-.42,1.55,1.55,0,0,0,.38-1.08,4.51,4.51,0,0,0,0-.58c-.07-.58.16-.86.67-.86h1.95a.82.82,0,0,1,.9.64,4.68,4.68,0,0,1,.19,1.24,4.57,4.57,0,0,1-1.55,3.78A6.12,6.12,0,0,1,197.19,308.69Z"/><path class="cls-4" d="M209.68,289.2a3.09,3.09,0,0,1-2.16.74,3.13,3.13,0,0,1-2.16-.74,2.36,2.36,0,0,1-.81-1.82,2.44,2.44,0,0,1,.78-1.88,3.64,3.64,0,0,1,4.37,0,2.43,2.43,0,0,1,.8,1.86A2.34,2.34,0,0,1,209.68,289.2Zm-3.09,19.14a1.36,1.36,0,0,1-1.53-1.54V293.42a1.35,1.35,0,0,1,1.53-1.53h1.86a1.37,1.37,0,0,1,1.57,1.53V306.8a1.38,1.38,0,0,1-1.57,1.54Z"/><path class="cls-4" d="M222.47,308.69a9.68,9.68,0,0,1-6.85-2.43,7.92,7.92,0,0,1-2.63-6.05A8.23,8.23,0,0,1,215.6,294a9.54,9.54,0,0,1,6.87-2.49,10.27,10.27,0,0,1,5.21,1.37c.88.56,1,1.28.29,2.18l-.51.64a1.66,1.66,0,0,1-2.18.38,5.75,5.75,0,0,0-2.53-.57,4.81,4.81,0,0,0-3.44,1.28,4.67,4.67,0,0,0,0,6.59,4.85,4.85,0,0,0,3.44,1.28,5.62,5.62,0,0,0,2.53-.58,1.61,1.61,0,0,1,2.18.39l.51.64a1.4,1.4,0,0,1,.34,1.23,1.64,1.64,0,0,1-.92,1.07A9.83,9.83,0,0,1,222.47,308.69Z"/><path class="cls-4" d="M362.28,308.69a10.5,10.5,0,0,1-5.32-1.28,7,7,0,0,1-3.1-3.55,1.26,1.26,0,0,1,0-1.2A1.66,1.66,0,0,1,355,302l1.37-.32a1.65,1.65,0,0,1,1.89,1,4.41,4.41,0,0,0,4,2,4.6,4.6,0,0,0,2.63-.67,2,2,0,0,0,1-1.76c0-1.15-.85-2-2.56-2.59l-2.91-1.06a11.15,11.15,0,0,1-4.16-2.35,5.15,5.15,0,0,1-1.79-3.95,5.87,5.87,0,0,1,2.27-4.83,8.72,8.72,0,0,1,5.66-1.83q5.22,0,7.17,4.1a1.31,1.31,0,0,1,.08,1.22,1.6,1.6,0,0,1-1,.73l-1.28.35a1.72,1.72,0,0,1-2-.86,3.15,3.15,0,0,0-2.91-1.47,3.56,3.56,0,0,0-2.12.61,1.93,1.93,0,0,0-.86,1.66q0,1.53,2.34,2.4l2.91,1.06q6,2,6.08,6.59a5.79,5.79,0,0,1-2.4,4.94A10,10,0,0,1,362.28,308.69Z"/><path class="cls-4" d="M375.33,315.5A1.35,1.35,0,0,1,373.8,314V293.42a1.35,1.35,0,0,1,1.53-1.53h1.89a1.36,1.36,0,0,1,1.54,1.53v.77a5.86,5.86,0,0,1,5.28-2.65A7.32,7.32,0,0,1,389.7,294a9.48,9.48,0,0,1,0,12.24,7.35,7.35,0,0,1-5.66,2.45,5.84,5.84,0,0,1-5.28-2.69v8a1.36,1.36,0,0,1-1.54,1.53Zm7.55-10.78a3.74,3.74,0,0,0,3-1.31,5.47,5.47,0,0,0,0-6.58,3.72,3.72,0,0,0-3-1.33,3.85,3.85,0,0,0-3,1.32,5.22,5.22,0,0,0,0,6.59A3.88,3.88,0,0,0,382.88,304.72Z"/><path class="cls-4" d="M403.36,308.69a9.65,9.65,0,0,1-6.88-2.43,8,8,0,0,1-2.59-6.08,8.39,8.39,0,0,1,2.5-6.12,8.78,8.78,0,0,1,6.53-2.52,9.07,9.07,0,0,1,6.11,2.12,7.92,7.92,0,0,1,2.62,5.94,1.13,1.13,0,0,1-.4,1,1.89,1.89,0,0,1-1.17.33H398.63a3.18,3.18,0,0,0,1.36,2.69,5.67,5.67,0,0,0,3.69,1.15,7.34,7.34,0,0,0,3.65-1,1.55,1.55,0,0,1,2.18.32l.35.45a1.39,1.39,0,0,1-.29,2.27A10.27,10.27,0,0,1,403.36,308.69Zm-4.6-10.5H407a3.23,3.23,0,0,0-1.45-2.22,4.88,4.88,0,0,0-2.58-.69,5.2,5.2,0,0,0-2.66.7A3.4,3.4,0,0,0,398.76,298.19Z"/><path class="cls-4" d="M422.92,308.69a9.68,9.68,0,0,1-6.85-2.43,7.92,7.92,0,0,1-2.63-6.05,8.23,8.23,0,0,1,2.61-6.18,9.54,9.54,0,0,1,6.87-2.49,10.27,10.27,0,0,1,5.21,1.37c.88.56,1,1.28.29,2.18l-.51.64a1.66,1.66,0,0,1-2.18.38,5.75,5.75,0,0,0-2.53-.57,4.81,4.81,0,0,0-3.44,1.28,4.67,4.67,0,0,0,0,6.59,4.85,4.85,0,0,0,3.44,1.28,5.62,5.62,0,0,0,2.53-.58,1.61,1.61,0,0,1,2.18.39l.51.64a1.4,1.4,0,0,1,.34,1.23,1.64,1.64,0,0,1-.92,1.07A9.83,9.83,0,0,1,422.92,308.69Z"/><path class="cls-4" d="M438.79,308.69a7.26,7.26,0,0,1-2.08-.29,6.26,6.26,0,0,1-1.83-.91,4.19,4.19,0,0,1-1.36-1.81,7.3,7.3,0,0,1-.49-2.82v-7.29H431.4c-.56,0-.84-.27-.84-.8v-2.08c0-.53.28-.8.84-.8h2l.55-3.33a1.13,1.13,0,0,1,1.24-1h1.57a1,1,0,0,1,1.12,1.12v3.23h3.71a.71.71,0,0,1,.8.8v2.08a.71.71,0,0,1-.8.8h-3.71V303c0,1.14.45,1.7,1.35,1.7a1.29,1.29,0,0,0,1-.42,1.55,1.55,0,0,0,.38-1.08,4.51,4.51,0,0,0,0-.58c-.06-.58.16-.86.67-.86h1.95a.82.82,0,0,1,.9.64,4.68,4.68,0,0,1,.19,1.24,4.57,4.57,0,0,1-1.55,3.78A6.12,6.12,0,0,1,438.79,308.69Z"/><path class="cls-4" d="M448.13,308.34a1.37,1.37,0,0,1-1.54-1.54V293.42a1.36,1.36,0,0,1,1.54-1.53h1.76a1.36,1.36,0,0,1,1.54,1.53v2.05a4.46,4.46,0,0,1,1.64-3,4.39,4.39,0,0,1,2.61-1l.55,0c.62,0,.92.48.92,1.31v2.24a1.28,1.28,0,0,1-.3,1,.93.93,0,0,1-.82.22c-.38,0-.65-.06-.8-.06a3.28,3.28,0,0,0-2.65,1.25,6.56,6.56,0,0,0-1,4.13v5.18a1.36,1.36,0,0,1-1.53,1.54Z"/><path class="cls-4" d="M465.25,308.69a5.16,5.16,0,0,1-4.53-2.07,8.9,8.9,0,0,1-1.45-5.26v-7.94a1.35,1.35,0,0,1,1.53-1.53h1.89a1.36,1.36,0,0,1,1.54,1.53V301a4.69,4.69,0,0,0,.67,2.72,2.21,2.21,0,0,0,1.92,1,3.16,3.16,0,0,0,2.41-1.14,4.65,4.65,0,0,0,1-3.28v-6.85a1.36,1.36,0,0,1,1.54-1.53h1.86a1.37,1.37,0,0,1,1.56,1.53V306.8a1.37,1.37,0,0,1-1.56,1.54h-1.86a1.37,1.37,0,0,1-1.54-1.54v-1.06Q469,308.69,465.25,308.69Z"/><path class="cls-4" d="M480.74,308.34a1.36,1.36,0,0,1-1.54-1.54V293.42a1.36,1.36,0,0,1,1.54-1.53h1.89a1.35,1.35,0,0,1,1.53,1.53v1.09a4.11,4.11,0,0,1,1.68-2.19,5.39,5.39,0,0,1,7.54,2.06,5.74,5.74,0,0,1,2.35-2.25,6.88,6.88,0,0,1,2.93-.59,5.26,5.26,0,0,1,4.53,2.09,8.76,8.76,0,0,1,1.52,5.27v7.9a1.38,1.38,0,0,1-1.57,1.54h-1.86a1.36,1.36,0,0,1-1.53-1.54v-7.68a4.63,4.63,0,0,0-.63-2.62,2,2,0,0,0-1.74-.93,2.62,2.62,0,0,0-2.05,1,4.9,4.9,0,0,0-.9,3.11v7.1a1.36,1.36,0,0,1-1.53,1.54H491a1.37,1.37,0,0,1-1.54-1.54v-7.68a4.82,4.82,0,0,0-.6-2.64,2,2,0,0,0-1.73-.91,2.62,2.62,0,0,0-2.11,1.07,5,5,0,0,0-.87,3.22v6.94a1.36,1.36,0,0,1-1.53,1.54Z"/><path class="cls-4" d="M690.21,308.34a1.34,1.34,0,0,1-1.19-.48,1.41,1.41,0,0,1,0-1.28l7.49-19.43a1.74,1.74,0,0,1,1.79-1.21h2.27a1.78,1.78,0,0,1,1.8,1.21l7.58,19.43a1.41,1.41,0,0,1,0,1.28,1.34,1.34,0,0,1-1.19.48h-2.08a1.78,1.78,0,0,1-1.79-1.22l-1.12-2.94h-8.64L694,307.09a1.76,1.76,0,0,1-1.76,1.25Zm5.85-8.16h6.63l-3.27-9Z"/><path class="cls-4" d="M717.36,289.2a3.52,3.52,0,0,1-4.32,0,2.34,2.34,0,0,1-.82-1.82,2.42,2.42,0,0,1,.79-1.88,3.64,3.64,0,0,1,4.37,0,2.43,2.43,0,0,1,.8,1.86A2.37,2.37,0,0,1,717.36,289.2Zm-3.09,19.14a1.37,1.37,0,0,1-1.54-1.54V293.42a1.36,1.36,0,0,1,1.54-1.53h1.86a1.37,1.37,0,0,1,1.56,1.53V306.8a1.37,1.37,0,0,1-1.56,1.54Z"/><path class="cls-4" d="M723.23,308.34a1.36,1.36,0,0,1-1.53-1.54V293.42a1.35,1.35,0,0,1,1.53-1.53H725a1.36,1.36,0,0,1,1.54,1.53v2.05a4.43,4.43,0,0,1,1.65-3,4.34,4.34,0,0,1,2.6-1l.55,0c.62,0,.93.48.93,1.31v2.24a1.28,1.28,0,0,1-.31,1,.92.92,0,0,1-.81.22c-.39,0-.66-.06-.8-.06a3.28,3.28,0,0,0-2.66,1.25,6.56,6.56,0,0,0-1,4.13v5.18a1.37,1.37,0,0,1-1.54,1.54Z"/><path class="cls-4" d="M957.07,266h-8.55v5.06h7.24a1.35,1.35,0,0,1,1.53,1.53v.87a1.37,1.37,0,0,1-1.53,1.57h-7.24v4.8h8.55a1.35,1.35,0,0,1,1.53,1.53v1.22a1.35,1.35,0,0,1-1.53,1.53H945a1.37,1.37,0,0,1-1.57-1.53V263.26a1.38,1.38,0,0,1,1.57-1.54h12.06a1.36,1.36,0,0,1,1.53,1.54v1.22A1.35,1.35,0,0,1,957.07,266Z"/><path class="cls-4" d="M968.88,284.48a7.39,7.39,0,0,1-5.7-2.45,9.48,9.48,0,0,1,0-12.24,7.34,7.34,0,0,1,5.7-2.47,5.81,5.81,0,0,1,5.24,2.69v-7.49a1.37,1.37,0,0,1,1.57-1.53h1.86a1.35,1.35,0,0,1,1.53,1.53v20.07a1.35,1.35,0,0,1-1.53,1.53h-1.86a1.37,1.37,0,0,1-1.57-1.53v-.77A5.83,5.83,0,0,1,968.88,284.48ZM967,279.2a3.74,3.74,0,0,0,3,1.31,3.88,3.88,0,0,0,3-1.31,5.14,5.14,0,0,0,0-6.6,3.88,3.88,0,0,0-3-1.31,3.69,3.69,0,0,0-3,1.33,5.39,5.39,0,0,0,0,6.58Z"/><path class="cls-4" d="M990,284.48a7.39,7.39,0,0,1-5.7-2.45,9.48,9.48,0,0,1,0-12.24,7.34,7.34,0,0,1,5.7-2.47,5.81,5.81,0,0,1,5.24,2.69v-7.49a1.37,1.37,0,0,1,1.57-1.53h1.86a1.35,1.35,0,0,1,1.53,1.53v20.07a1.35,1.35,0,0,1-1.53,1.53h-1.86a1.37,1.37,0,0,1-1.57-1.53v-.77A5.83,5.83,0,0,1,990,284.48Zm-1.86-5.28a3.74,3.74,0,0,0,3,1.31,3.88,3.88,0,0,0,3-1.31,5.14,5.14,0,0,0,0-6.6,3.88,3.88,0,0,0-3-1.31,3.69,3.69,0,0,0-3,1.33,5.39,5.39,0,0,0,0,6.58Z"/><path class="cls-4" d="M1007.79,291.29a1.33,1.33,0,0,1-1.2-.49,1.3,1.3,0,0,1,0-1.3l2.69-6.5-6.08-13.5a1.18,1.18,0,0,1,1.19-1.82h2.17a1.7,1.7,0,0,1,1.79,1.24l3.36,8.93,3.4-8.93a1.73,1.73,0,0,1,1.79-1.24H1019a1.28,1.28,0,0,1,1.18.51,1.37,1.37,0,0,1,0,1.31l-9,20.61a1.81,1.81,0,0,1-1.79,1.18Z"/><path class="cls-4" d="M937.34,322.88a12.08,12.08,0,0,1-8.91-3.36,11.62,11.62,0,0,1,0-16.39,12.08,12.08,0,0,1,8.91-3.36,11.88,11.88,0,0,1,6.85,2.11,1.34,1.34,0,0,1,.32,2.15l-.8,1a1.45,1.45,0,0,1-2.15.29,8.28,8.28,0,0,0-4.22-1.12,6.91,6.91,0,0,0-5.23,2.05,7.55,7.55,0,0,0,0,10.17,6.91,6.91,0,0,0,5.23,2,8.28,8.28,0,0,0,4.22-1.12,1.45,1.45,0,0,1,2.15.29l.8,1c.6.85.54,1.54-.16,2.05A11.83,11.83,0,0,1,937.34,322.88Z"/><path class="cls-4" d="M953.73,322.88a5.16,5.16,0,0,1-4.53-2.07,8.91,8.91,0,0,1-1.46-5.26v-7.94a1.36,1.36,0,0,1,1.54-1.53h1.88a1.36,1.36,0,0,1,1.54,1.53v7.59a4.77,4.77,0,0,0,.67,2.72,2.21,2.21,0,0,0,1.92,1,3.18,3.18,0,0,0,2.42-1.14,4.71,4.71,0,0,0,1-3.28v-6.85a1.35,1.35,0,0,1,1.53-1.53h1.86a1.37,1.37,0,0,1,1.57,1.53V321a1.37,1.37,0,0,1-1.57,1.53h-1.86a1.35,1.35,0,0,1-1.53-1.53v-1.06C957.87,321.89,956.2,322.88,953.73,322.88Z"/><path class="cls-4" d="M969.21,322.52a1.35,1.35,0,0,1-1.53-1.53V307.61a1.35,1.35,0,0,1,1.53-1.53H971a1.36,1.36,0,0,1,1.54,1.53v2.05a4.45,4.45,0,0,1,1.65-3,4.34,4.34,0,0,1,2.61-1l.54,0c.62,0,.93.48.93,1.31v2.24a1.24,1.24,0,0,1-.31,1,1,1,0,0,1-.81.22c-.39,0-.65-.06-.8-.06a3.26,3.26,0,0,0-2.66,1.25,6.53,6.53,0,0,0-1,4.12V321a1.36,1.36,0,0,1-1.54,1.53Z"/><path class="cls-4" d="M982.11,322.52a1.36,1.36,0,0,1-1.54-1.53V307.61a1.36,1.36,0,0,1,1.54-1.53h1.76a1.36,1.36,0,0,1,1.54,1.53v2.05a4.48,4.48,0,0,1,1.64-3,4.39,4.39,0,0,1,2.61-1l.55,0c.61,0,.92.48.92,1.31v2.24a1.28,1.28,0,0,1-.3,1,1,1,0,0,1-.82.22c-.38,0-.65-.06-.8-.06a3.25,3.25,0,0,0-2.65,1.25,6.46,6.46,0,0,0-1,4.12V321a1.35,1.35,0,0,1-1.53,1.53Z"/><path class="cls-4" d="M1001.66,322.88a9.66,9.66,0,0,1-6.88-2.44,8,8,0,0,1-2.59-6.08,8.39,8.39,0,0,1,2.49-6.11,8.8,8.8,0,0,1,6.53-2.53,9,9,0,0,1,6.11,2.13,7.89,7.89,0,0,1,2.63,5.94,1.13,1.13,0,0,1-.4,1,1.89,1.89,0,0,1-1.17.33H996.93a3.2,3.2,0,0,0,1.35,2.69A5.7,5.7,0,0,0,1002,319a7.34,7.34,0,0,0,3.65-1,1.55,1.55,0,0,1,2.18.32l.35.45a1.39,1.39,0,0,1-.29,2.27A10.29,10.29,0,0,1,1001.66,322.88Zm-4.61-10.5h8.26a3.18,3.18,0,0,0-1.46-2.22,4.82,4.82,0,0,0-2.57-.69,5.11,5.11,0,0,0-2.66.7A3.45,3.45,0,0,0,997.05,312.38Z"/><path class="cls-4" d="M1014.3,322.52a1.35,1.35,0,0,1-1.53-1.53V307.61a1.35,1.35,0,0,1,1.53-1.53h1.89a1.36,1.36,0,0,1,1.54,1.53v1.09c.83-2,2.49-3,5-3a5.19,5.19,0,0,1,4.56,2.07,8.9,8.9,0,0,1,1.45,5.26V321a1.37,1.37,0,0,1-1.57,1.53h-1.85a1.36,1.36,0,0,1-1.54-1.53V313.4a4.6,4.6,0,0,0-.67-2.68,2.21,2.21,0,0,0-1.92-1,3.17,3.17,0,0,0-2.43,1.12,4.67,4.67,0,0,0-1,3.26V321a1.36,1.36,0,0,1-1.54,1.53Z"/><path class="cls-4" d="M1039.1,322.88a7.26,7.26,0,0,1-2.08-.29,6.09,6.09,0,0,1-1.82-.91,4.12,4.12,0,0,1-1.36-1.81,7.29,7.29,0,0,1-.5-2.82v-7.29h-1.63c-.56,0-.83-.27-.83-.8v-2.08c0-.54.27-.8.83-.8h2l.55-3.33a1.14,1.14,0,0,1,1.25-1h1.56a1,1,0,0,1,1.12,1.12v3.24h3.72a.71.71,0,0,1,.8.8V309a.71.71,0,0,1-.8.8h-3.72v7.45c0,1.13.45,1.7,1.35,1.7a1.29,1.29,0,0,0,1-.42,1.53,1.53,0,0,0,.38-1.09,4.45,4.45,0,0,0,0-.57c-.06-.58.16-.87.67-.87h2a.81.81,0,0,1,.89.64,4.75,4.75,0,0,1,.19,1.25,4.54,4.54,0,0,1-1.55,3.78A6.1,6.1,0,0,1,1039.1,322.88Z"/><path class="cls-4" d="M1243.42,285.94a1.35,1.35,0,0,1,1.53,1.53v1.22a1.35,1.35,0,0,1-1.53,1.53h-8.64v5.06h7.32a1.36,1.36,0,0,1,1.54,1.54v.86a1.37,1.37,0,0,1-1.54,1.57h-7.32v7.55a1.36,1.36,0,0,1-1.54,1.54h-2a1.38,1.38,0,0,1-1.57-1.54V287.47a1.37,1.37,0,0,1,1.57-1.53Z"/><path class="cls-4" d="M1249.56,308.34a1.37,1.37,0,0,1-1.54-1.54V286.74a1.36,1.36,0,0,1,1.54-1.54h1.86a1.37,1.37,0,0,1,1.56,1.54V306.8a1.37,1.37,0,0,1-1.56,1.54Z"/><path class="cls-4" d="M1271.54,306.19a9.69,9.69,0,0,1-13,0,8.36,8.36,0,0,1,0-12.16,9.72,9.72,0,0,1,13,0,8.34,8.34,0,0,1,0,12.16Zm-9.63-2.81a4.41,4.41,0,0,0,6.27,0,4.77,4.77,0,0,0,0-6.5,4.42,4.42,0,0,0-6.28,0,4.78,4.78,0,0,0,0,6.5Z"/><path class="cls-4" d="M1284,308.69a7.35,7.35,0,0,1-5.66-2.45,9.48,9.48,0,0,1,0-12.24,7.32,7.32,0,0,1,5.66-2.46,5.84,5.84,0,0,1,5.28,2.68v-.8a1.36,1.36,0,0,1,1.54-1.53h1.89a1.35,1.35,0,0,1,1.53,1.53V306.8a1.36,1.36,0,0,1-1.53,1.54h-1.89a1.36,1.36,0,0,1-1.54-1.54V306A5.86,5.86,0,0,1,1284,308.69Zm1.15-4a3.89,3.89,0,0,0,3-1.31,5.22,5.22,0,0,0,0-6.59,3.86,3.86,0,0,0-3-1.32,3.72,3.72,0,0,0-3,1.33,5.47,5.47,0,0,0,0,6.58A3.73,3.73,0,0,0,1285.14,304.72Z"/><path class="cls-4" d="M1305,308.69a7.26,7.26,0,0,1-2.08-.29,6.26,6.26,0,0,1-1.83-.91,4.19,4.19,0,0,1-1.36-1.81,7.3,7.3,0,0,1-.49-2.82v-7.29h-1.64a.72.72,0,0,1-.83-.8v-2.08a.72.72,0,0,1,.83-.8h2l.54-3.33a1.14,1.14,0,0,1,1.25-1H1303a1,1,0,0,1,1.12,1.12v3.23h3.71a.71.71,0,0,1,.8.8v2.08a.71.71,0,0,1-.8.8h-3.71V303c0,1.14.45,1.7,1.34,1.7a1.3,1.3,0,0,0,1-.42,1.55,1.55,0,0,0,.38-1.08,4.51,4.51,0,0,0,0-.58c-.07-.58.16-.86.67-.86h2a.82.82,0,0,1,.9.64,4.68,4.68,0,0,1,.19,1.24,4.57,4.57,0,0,1-1.55,3.78A6.12,6.12,0,0,1,1305,308.69Z"/><path class="cls-4" d="M277.22,308.34v-22l14.8,11Z"/><path class="cls-4" d="M567.07,308.34v-22l14.8,11Z"/><path class="cls-4" d="M832.92,308.34v-22l14.81,11Z"/><path class="cls-4" d="M1112.29,308.34v-22l14.8,11Z"/><path class="cls-5" d="M1206.77,122c12.45,0,12.45,4.43,24.89,4.43s12.45-4.43,24.9-4.43,12.45,4.43,24.9,4.43,12.45-4.43,24.9-4.43,12.45,4.43,24.9,4.43"/><path class="cls-5" d="M1206.77,135.05c12.45,0,12.45,4.43,24.89,4.43s12.45-4.43,24.9-4.43,12.45,4.43,24.9,4.43,12.45-4.43,24.9-4.43,12.45,4.43,24.9,4.43"/><path class="cls-5" d="M1206.77,148.13c12.45,0,12.45,4.44,24.89,4.44s12.45-4.44,24.9-4.44,12.45,4.44,24.9,4.44,12.45-4.44,24.9-4.44,12.45,4.44,24.9,4.44"/><path class="cls-5" d="M653.09,155.88s31-45.67,59.8-31.21c34,17.09,40.75-7.3,39.31-19.37"/><path class="cls-5" d="M657.88,171.42s27.22-50.68,61.06-33.21,47.08-8.43,45.64-20.5"/><path class="cls-5" d="M661.85,188.51S691.91,133,725,151.75s49.72-7.79,50.56-20.63"/><circle class="cls-6" cx="431.57" cy="204.6" r="8.6"/><circle class="cls-7" cx="725.81" cy="201.31" r="8.6"/><circle class="cls-6" cx="146.68" cy="205.42" r="6.82"/><circle class="cls-6" cx="1021.01" cy="193.71" r="4.3"/><circle class="cls-6" cx="702.2" cy="201.4" r="4.3"/><circle class="cls-6" cx="1253.76" cy="195.44" r="6.47"/><circle class="cls-8" cx="171.52" cy="203.64" r="8.6"/><circle class="cls-8" cx="1279.81" cy="180.63" r="8.6"/><circle class="cls-4" cx="741.26" cy="86.87" r="7.52"/><circle class="cls-4" cx="1289.24" cy="120.55" r="7.52"/><path class="cls-5" d="M1019.59,81.16c-19,10.74-32.18,35.19-32.18,63.64s13.23,52.9,32.18,63.65"/><path class="cls-5" d="M942.77,208.45C961.71,197.7,975,173.25,975,144.8s-13.24-52.9-32.18-63.64"/><circle class="cls-4" cx="956.61" cy="94.12" r="7.52"/><polygon class="cls-9" points="396.95 177.38 381.42 177.38 430.89 89.22 446.43 89.22 396.95 177.38"/><polygon class="cls-10" points="416.77 177.38 401.24 177.38 450.71 89.22 466.24 89.22 416.77 177.38"/><polygon class="cls-11" points="436.42 177.38 420.89 177.38 470.36 89.22 485.89 89.22 436.42 177.38"/><polygon class="cls-12" points="455.19 177.38 439.66 177.38 489.13 89.22 504.66 89.22 455.19 177.38"/><circle class="cls-4" cx="456.63" cy="174.96" r="7.52"/><circle class="cls-4" cx="138.23" cy="123.97" r="7.52"/><circle class="cls-4" cx="168.45" cy="147.29" r="5.59"/><path class="cls-13" d="M1006,116.24c0,10-21.73,12-26.78,12s-19.71-.74-19.71-5,13.9-4.8,19.2-4.8,27.29,2.58,27.29,12-16.42,11.64-26.28,11.64-20.21-1.29-20.21-4.8,12.89-4.8,20-4.8,26.53,3.14,26.53,12c0,9.42-16.42,11.63-26.28,11.63s-20.21-1.29-20.21-4.8,12.89-4.8,20-4.8,26.53,3.14,26.53,12"/><path class="cls-13" d="M1006,158.55c0,10-21.73,12-26.78,12s-19.71-.74-19.71-5,13.9-4.81,19.2-4.81,27.29,2.59,27.29,12"/><rect class="cls-12" x="94.68" y="102.15" width="117.65" height="14.3"/></g></svg>