<svg xmlns="http://www.w3.org/2000/svg" xmlns:xlink="http://www.w3.org/1999/xlink" viewBox="0 0 750 380"><defs><style>.cls-1,.cls-19,.cls-20,.cls-21{fill:none;}.cls-2{clip-path:url(#clip-path);}.cls-10,.cls-11,.cls-12,.cls-13,.cls-3{fill:#fff;}.cls-17,.cls-4,.cls-5,.cls-6,.cls-9{fill:#bfc723;}.cls-10,.cls-15,.cls-5{opacity:0.4;}.cls-12,.cls-6,.cls-7{opacity:0.6;}.cls-14,.cls-15,.cls-16,.cls-7,.cls-8{fill:#c1c1c1;}.cls-13,.cls-14,.cls-9{opacity:0.3;}.cls-11,.cls-16{opacity:0.8;}.cls-17{opacity:0.5;}.cls-18{fill:#c8c2c2;}.cls-19,.cls-20,.cls-21{stroke:#fff;stroke-miterlimit:10;}.cls-19,.cls-20{stroke-width:2.6px;}.cls-20{stroke-dasharray:6.49 6.49;}.cls-21{stroke-width:2.28px;}</style><clipPath id="clip-path"><rect class="cls-1" x="-1548.29" y="-776.09" width="750" height="1150.75"/></clipPath></defs><title>m_fig3</title><g id="圖層_2" data-name="圖層 2"><g class="cls-2"><image width="1806" height="1309" transform="translate(-1696.9 -1056.24) scale(1.24)" xlink:href="../../Dropbox/前後&apos;s shared workspace/PROJECTS/202002_SAYA/攝影/20200505_南亞紗廠攝影30張final/jpg/20200401-196.jpg"/></g><path class="cls-3" d="M329.62,265.59a4.62,4.62,0,0,1-2.12-.48,4.5,4.5,0,0,1-1.5-1.17,6.57,6.57,0,0,1-.95-1.6,9.69,9.69,0,0,1-.55-1.62,11.34,11.34,0,0,1-.23-1.4H322v4.85a1,1,0,0,1-1.15,1.15H319.4a1,1,0,0,1-1.18-1.15V249.68a1,1,0,0,1,1.18-1.16h6.45a5.29,5.29,0,0,1,4.08,1.61,5.61,5.61,0,0,1,1.49,4,5.32,5.32,0,0,1-1,3.21,4.73,4.73,0,0,1-2.74,1.8,5.11,5.11,0,0,0,.85,2.39,2.06,2.06,0,0,0,1.7,1,2.59,2.59,0,0,0,1.1-.19,1.17,1.17,0,0,1,.79-.05,1.21,1.21,0,0,1,.51.6l.21.48c.34.7.22,1.22-.36,1.54A6.24,6.24,0,0,1,329.62,265.59Zm-7.58-9h3.29a2.07,2.07,0,0,0,1.62-.69,2.72,2.72,0,0,0,0-3.46,2,2,0,0,0-1.6-.7H322Z"/><path class="cls-3" d="M340.93,265.59a7.2,7.2,0,0,1-5.16-1.83,6,6,0,0,1-1.95-4.56,6.3,6.3,0,0,1,1.87-4.58,6.6,6.6,0,0,1,4.9-1.9,6.78,6.78,0,0,1,4.58,1.6,5.89,5.89,0,0,1,2,4.45.83.83,0,0,1-.3.76,1.36,1.36,0,0,1-.87.25h-8.6a2.42,2.42,0,0,0,1,2,4.33,4.33,0,0,0,2.78.86,5.55,5.55,0,0,0,2.73-.74,1.15,1.15,0,0,1,1.63.24l.27.33a1,1,0,0,1-.22,1.71A7.76,7.76,0,0,1,340.93,265.59Zm-3.46-7.87h6.19a2.4,2.4,0,0,0-1.09-1.67,3.6,3.6,0,0,0-1.93-.52,3.82,3.82,0,0,0-2,.53A2.52,2.52,0,0,0,337.47,257.72Z"/><path class="cls-3" d="M354.44,265.59a5.5,5.5,0,0,1-4.25-1.84,7.11,7.11,0,0,1,0-9.18,5.51,5.51,0,0,1,4.25-1.85,4.41,4.41,0,0,1,4,2v-.6a1,1,0,0,1,1.15-1.15H361a1,1,0,0,1,1.15,1.15v10a1,1,0,0,1-1.15,1.15h-1.42a1,1,0,0,1-1.15-1.15v-.57A4.43,4.43,0,0,1,354.44,265.59Zm.86-3a2.91,2.91,0,0,0,2.27-1,3.92,3.92,0,0,0,0-4.95,2.91,2.91,0,0,0-2.27-1,2.75,2.75,0,0,0-2.24,1,4.08,4.08,0,0,0,0,4.93A2.79,2.79,0,0,0,355.3,262.61Z"/><path class="cls-3" d="M366.29,265.32a1,1,0,0,1-1.15-1.15V249.12a1,1,0,0,1,1.15-1.15h1.4a1,1,0,0,1,1.17,1.15v15.05a1,1,0,0,1-1.17,1.15Z"/><path class="cls-3" d="M372.39,259.64c-.42,0-.62-.2-.62-.6V257c0-.4.2-.6.62-.6h7.37a.53.53,0,0,1,.6.6V259a.53.53,0,0,1-.6.6Z"/><path class="cls-3" d="M388.25,265.59a5.21,5.21,0,0,1-1.56-.22,4.45,4.45,0,0,1-1.36-.68,3,3,0,0,1-1-1.36,5.37,5.37,0,0,1-.38-2.11v-5.47h-1.22c-.42,0-.62-.2-.62-.6v-1.56c0-.4.2-.6.62-.6h1.51l.41-2.5a.86.86,0,0,1,.94-.77h1.17a.74.74,0,0,1,.84.84V253h2.79a.53.53,0,0,1,.6.6v1.56a.53.53,0,0,1-.6.6h-2.79v5.59c0,.85.34,1.27,1,1.27a1,1,0,0,0,.74-.31,1.13,1.13,0,0,0,.29-.82c0-.17,0-.32,0-.43-.05-.43.12-.65.5-.65h1.47a.61.61,0,0,1,.67.48,4,4,0,0,1,.14.94,3.43,3.43,0,0,1-1.16,2.83A4.57,4.57,0,0,1,388.25,265.59Z"/><path class="cls-3" d="M397.62,251a2.65,2.65,0,0,1-3.23,0,1.77,1.77,0,0,1-.62-1.37,1.83,1.83,0,0,1,.59-1.4,2.74,2.74,0,0,1,3.28,0,1.81,1.81,0,0,1,.6,1.39A1.77,1.77,0,0,1,397.62,251Zm-2.31,14.35a1,1,0,0,1-1.15-1.15v-10a1,1,0,0,1,1.15-1.15h1.39a1,1,0,0,1,1.18,1.15v10a1,1,0,0,1-1.18,1.15Z"/><path class="cls-3" d="M402,265.32a1,1,0,0,1-1.15-1.15v-10A1,1,0,0,1,402,253h1.42a1,1,0,0,1,1.15,1.15V255a3.08,3.08,0,0,1,1.26-1.65,3.72,3.72,0,0,1,2.07-.59,3.76,3.76,0,0,1,3.58,2.14,4.26,4.26,0,0,1,1.76-1.69,5.18,5.18,0,0,1,2.2-.45,3.94,3.94,0,0,1,3.4,1.58,6.59,6.59,0,0,1,1.14,3.94v5.93a1,1,0,0,1-1.18,1.15h-1.39a1,1,0,0,1-1.16-1.15v-5.76a3.54,3.54,0,0,0-.46-2,1.49,1.49,0,0,0-1.31-.69,2,2,0,0,0-1.54.77,3.64,3.64,0,0,0-.67,2.32v5.33a1,1,0,0,1-1.15,1.15h-1.42a1,1,0,0,1-1.15-1.15v-5.76a3.54,3.54,0,0,0-.46-2,1.46,1.46,0,0,0-1.29-.68,2,2,0,0,0-1.59.8,3.81,3.81,0,0,0-.64,2.41v5.21a1,1,0,0,1-1.15,1.15Z"/><path class="cls-3" d="M429.15,265.59a7.2,7.2,0,0,1-5.16-1.83,6,6,0,0,1-1.94-4.56,6.26,6.26,0,0,1,1.87-4.58,6.58,6.58,0,0,1,4.89-1.9,6.81,6.81,0,0,1,4.59,1.6,6,6,0,0,1,2,4.45.88.88,0,0,1-.3.76,1.39,1.39,0,0,1-.88.25H425.6a2.42,2.42,0,0,0,1,2,4.28,4.28,0,0,0,2.77.86,5.55,5.55,0,0,0,2.73-.74,1.16,1.16,0,0,1,1.64.24l.26.33a1,1,0,0,1-.21,1.71A7.79,7.79,0,0,1,429.15,265.59Zm-3.46-7.87h6.2a2.41,2.41,0,0,0-1.1-1.67,3.58,3.58,0,0,0-1.93-.52,3.82,3.82,0,0,0-2,.53A2.59,2.59,0,0,0,425.69,257.72Z"/><path class="cls-3" d="M308.07,294.39a9,9,0,0,1-6.68-2.52,8.7,8.7,0,0,1,0-12.29,9,9,0,0,1,6.68-2.52,8.92,8.92,0,0,1,5.14,1.58,1,1,0,0,1,.24,1.61l-.6.75a1.09,1.09,0,0,1-1.61.21,6.27,6.27,0,0,0-3.17-.84,5.16,5.16,0,0,0-3.92,1.54,5.66,5.66,0,0,0,0,7.63,5.2,5.2,0,0,0,3.92,1.54,6.27,6.27,0,0,0,3.17-.84,1.09,1.09,0,0,1,1.61.21l.6.75q.66,1-.12,1.53A8.84,8.84,0,0,1,308.07,294.39Z"/><path class="cls-3" d="M326.67,292.52a7.28,7.28,0,0,1-9.74,0,6.26,6.26,0,0,1,0-9.12,7.25,7.25,0,0,1,9.74,0,6.26,6.26,0,0,1,0,9.12Zm-7.22-2.12a3.28,3.28,0,0,0,4.7,0,3.32,3.32,0,0,0,1-2.42,3.37,3.37,0,0,0-1-2.45,3.33,3.33,0,0,0-4.72,0,3.4,3.4,0,0,0-.94,2.45A3.32,3.32,0,0,0,319.45,290.4Z"/><path class="cls-3" d="M332,294.12a1,1,0,0,1-1.15-1.15V277.92a1,1,0,0,1,1.15-1.15h1.39a1,1,0,0,1,1.18,1.15V293a1,1,0,0,1-1.18,1.15Z"/><path class="cls-3" d="M348.51,292.52a7.28,7.28,0,0,1-9.74,0,6.26,6.26,0,0,1,0-9.12,7.25,7.25,0,0,1,9.74,0,6.26,6.26,0,0,1,0,9.12Zm-7.22-2.12a3.28,3.28,0,0,0,4.7,0,3.32,3.32,0,0,0,1-2.42,3.37,3.37,0,0,0-1-2.45,3.33,3.33,0,0,0-4.72,0,3.4,3.4,0,0,0-.94,2.45A3.32,3.32,0,0,0,341.29,290.4Z"/><path class="cls-3" d="M353.81,294.12a1,1,0,0,1-1.15-1.15v-10a1,1,0,0,1,1.15-1.15h1.32a1,1,0,0,1,1.15,1.15v1.54a3.38,3.38,0,0,1,1.24-2.24,3.28,3.28,0,0,1,2-.72l.41,0c.46,0,.69.36.69,1v1.68a.92.92,0,0,1-.23.72.69.69,0,0,1-.61.17l-.6-.05a2.43,2.43,0,0,0-2,.94,4.89,4.89,0,0,0-.77,3.09V293a1,1,0,0,1-1.15,1.15Z"/><path class="cls-3" d="M376.16,294.39a9.07,9.07,0,0,1-6.69-2.52,8.73,8.73,0,0,1,0-12.29,9.07,9.07,0,0,1,6.69-2.52,8.89,8.89,0,0,1,5.13,1.58,1,1,0,0,1,.24,1.61l-.6.75a1.09,1.09,0,0,1-1.61.21,6.23,6.23,0,0,0-3.16-.84,5.2,5.2,0,0,0-3.93,1.54,5.36,5.36,0,0,0,3.93,9.17,6.23,6.23,0,0,0,3.16-.84,1.09,1.09,0,0,1,1.61.21l.6.75q.68,1-.12,1.53A8.79,8.79,0,0,1,376.16,294.39Z"/><path class="cls-3" d="M394.76,292.52a7.29,7.29,0,0,1-9.75,0,6.26,6.26,0,0,1,0-9.12,7.26,7.26,0,0,1,9.75,0,6.26,6.26,0,0,1,0,9.12Zm-7.23-2.12a3.3,3.3,0,0,0,4.71,0,3.32,3.32,0,0,0,1-2.42,3.37,3.37,0,0,0-1-2.45,3.33,3.33,0,0,0-4.72,0,3.4,3.4,0,0,0-.95,2.45A3.32,3.32,0,0,0,387.53,290.4Z"/><path class="cls-3" d="M400.06,294.12a1,1,0,0,1-1.15-1.15v-10a1,1,0,0,1,1.15-1.15h1.42a1,1,0,0,1,1.15,1.15v.82a3.65,3.65,0,0,1,3.74-2.24,3.91,3.91,0,0,1,3.42,1.55,6.68,6.68,0,0,1,1.09,3.95v6a1,1,0,0,1-1.17,1.15h-1.39a1,1,0,0,1-1.16-1.15v-5.69a3.44,3.44,0,0,0-.5-2,1.66,1.66,0,0,0-1.44-.72,2.39,2.39,0,0,0-1.82.84,3.46,3.46,0,0,0-.77,2.45V293a1,1,0,0,1-1.15,1.15Z"/><path class="cls-3" d="M418.66,294.39a5.21,5.21,0,0,1-1.56-.22,4.5,4.5,0,0,1-1.37-.68,3.14,3.14,0,0,1-1-1.36,5.38,5.38,0,0,1-.37-2.11v-5.47h-1.22q-.63,0-.63-.6v-1.56q0-.6.63-.6h1.51l.41-2.5a.85.85,0,0,1,.93-.77h1.18a.74.74,0,0,1,.84.84v2.43h2.78a.53.53,0,0,1,.6.6V284a.53.53,0,0,1-.6.6H418v5.59c0,.85.33,1.27,1,1.27a1,1,0,0,0,.74-.31,1.17,1.17,0,0,0,.29-.82,2.54,2.54,0,0,0,0-.43c0-.43.12-.65.51-.65H422a.62.62,0,0,1,.68.48,4,4,0,0,1,.14.94,3.4,3.4,0,0,1-1.17,2.83A4.53,4.53,0,0,1,418.66,294.39Z"/><path class="cls-3" d="M425.67,294.12a1,1,0,0,1-1.15-1.15v-10a1,1,0,0,1,1.15-1.15H427a1,1,0,0,1,1.15,1.15v1.54a3.38,3.38,0,0,1,1.24-2.24,3.25,3.25,0,0,1,1.95-.72l.41,0c.46,0,.7.36.7,1v1.68a1,1,0,0,1-.23.72.7.7,0,0,1-.61.17l-.6-.05a2.46,2.46,0,0,0-2,.94,4.9,4.9,0,0,0-.76,3.09V293a1,1,0,0,1-1.16,1.15Z"/><path class="cls-3" d="M444.92,292.52a7.29,7.29,0,0,1-9.75,0,6.26,6.26,0,0,1,0-9.12,7.26,7.26,0,0,1,9.75,0,6.28,6.28,0,0,1,0,9.12Zm-7.23-2.12a3.3,3.3,0,0,0,4.71,0,3.32,3.32,0,0,0,1-2.42,3.37,3.37,0,0,0-1-2.45,3.33,3.33,0,0,0-4.72,0,3.4,3.4,0,0,0-.95,2.45A3.32,3.32,0,0,0,437.69,290.4Z"/><path class="cls-3" d="M450.27,294.12a1,1,0,0,1-1.15-1.15V277.92a1,1,0,0,1,1.15-1.15h1.39a1,1,0,0,1,1.18,1.15V293a1,1,0,0,1-1.18,1.15Z"/><circle class="cls-4" cx="330.09" cy="166.47" r="8.24"/><circle class="cls-5" cx="396.26" cy="166.47" r="8.24"/><circle class="cls-6" cx="352.15" cy="166.47" r="8.24"/><circle class="cls-6" cx="374.2" cy="166.47" r="8.24"/><circle class="cls-7" cx="374.2" cy="187.58" r="8.24"/><circle class="cls-8" cx="330.09" cy="187.58" r="8.24"/><circle class="cls-9" cx="418.36" cy="166.47" r="8.24"/><circle class="cls-3" cx="330.09" cy="145.05" r="8.24"/><circle class="cls-10" cx="396.26" cy="145.05" r="8.24"/><circle class="cls-11" cx="352.15" cy="145.05" r="8.24"/><circle class="cls-12" cx="374.2" cy="145.05" r="8.24"/><circle class="cls-13" cx="418.36" cy="145.05" r="8.24"/><circle class="cls-14" cx="418.98" cy="187.58" r="8.24"/><circle class="cls-15" cx="396.93" cy="187.58" r="8.24"/><circle class="cls-16" cx="351.24" cy="187.58" r="8.24"/><path class="cls-3" d="M414.75,75.56c7.42,12.91-5.06,26.8-5.06,26.8a11.44,11.44,0,1,0,20.66,6.78S433.18,92.41,414.75,75.56Z"/><path class="cls-3" d="M568,265.59a4.62,4.62,0,0,1-2.12-.48,4.5,4.5,0,0,1-1.5-1.17,6.57,6.57,0,0,1-.95-1.6,9.69,9.69,0,0,1-.55-1.62,11.34,11.34,0,0,1-.23-1.4h-2.23v4.85a1,1,0,0,1-1.15,1.15h-1.49a1,1,0,0,1-1.18-1.15V249.68a1,1,0,0,1,1.18-1.16h6.45a5.29,5.29,0,0,1,4.08,1.61,5.61,5.61,0,0,1,1.49,4,5.32,5.32,0,0,1-1,3.21,4.73,4.73,0,0,1-2.74,1.8,5.11,5.11,0,0,0,.85,2.39,2.06,2.06,0,0,0,1.7,1,2.59,2.59,0,0,0,1.1-.19,1.17,1.17,0,0,1,.79-.05,1.21,1.21,0,0,1,.51.6l.21.48c.34.7.22,1.22-.36,1.54A6.24,6.24,0,0,1,568,265.59Zm-7.58-9h3.29a2.07,2.07,0,0,0,1.62-.69,2.72,2.72,0,0,0,0-3.46,2,2,0,0,0-1.6-.7h-3.29Z"/><path class="cls-3" d="M579.35,265.59a7.2,7.2,0,0,1-5.16-1.83,6,6,0,0,1-2-4.56,6.3,6.3,0,0,1,1.87-4.58,6.6,6.6,0,0,1,4.9-1.9,6.78,6.78,0,0,1,4.58,1.6,5.89,5.89,0,0,1,2,4.45.83.83,0,0,1-.3.76,1.36,1.36,0,0,1-.87.25h-8.6a2.42,2.42,0,0,0,1,2,4.33,4.33,0,0,0,2.78.86,5.55,5.55,0,0,0,2.73-.74,1.15,1.15,0,0,1,1.63.24l.27.33a1,1,0,0,1-.22,1.71A7.76,7.76,0,0,1,579.35,265.59Zm-3.46-7.87h6.19a2.4,2.4,0,0,0-1.09-1.67,3.6,3.6,0,0,0-1.93-.52,3.82,3.82,0,0,0-2,.53A2.52,2.52,0,0,0,575.89,257.72Z"/><path class="cls-3" d="M592.86,265.59a5.5,5.5,0,0,1-4.25-1.84,7.11,7.11,0,0,1,0-9.18,5.51,5.51,0,0,1,4.25-1.85,4.41,4.41,0,0,1,4,2v-.6A1,1,0,0,1,598,253h1.42a1,1,0,0,1,1.15,1.15v10a1,1,0,0,1-1.15,1.15H598a1,1,0,0,1-1.15-1.15v-.57A4.43,4.43,0,0,1,592.86,265.59Zm.86-3a2.91,2.91,0,0,0,2.27-1,3.92,3.92,0,0,0,0-4.95,2.91,2.91,0,0,0-2.27-1,2.75,2.75,0,0,0-2.24,1,4.08,4.08,0,0,0,0,4.93A2.79,2.79,0,0,0,593.72,262.61Z"/><path class="cls-3" d="M604.71,265.32a1,1,0,0,1-1.15-1.15V249.12a1,1,0,0,1,1.15-1.15h1.4a1,1,0,0,1,1.17,1.15v15.05a1,1,0,0,1-1.17,1.15Z"/><path class="cls-3" d="M610.81,259.64c-.42,0-.62-.2-.62-.6V257c0-.4.2-.6.62-.6h7.37a.53.53,0,0,1,.6.6V259a.53.53,0,0,1-.6.6Z"/><path class="cls-3" d="M626.67,265.59a5.21,5.21,0,0,1-1.56-.22,4.45,4.45,0,0,1-1.36-.68,3,3,0,0,1-1-1.36,5.37,5.37,0,0,1-.38-2.11v-5.47h-1.22c-.42,0-.62-.2-.62-.6v-1.56c0-.4.2-.6.62-.6h1.51l.41-2.5a.86.86,0,0,1,.94-.77h1.17a.74.74,0,0,1,.84.84V253h2.79a.53.53,0,0,1,.6.6v1.56a.53.53,0,0,1-.6.6H626v5.59c0,.85.34,1.27,1,1.27a1,1,0,0,0,.74-.31,1.13,1.13,0,0,0,.29-.82c0-.17,0-.32,0-.43,0-.43.12-.65.5-.65H630a.61.61,0,0,1,.67.48,4,4,0,0,1,.14.94,3.43,3.43,0,0,1-1.16,2.83A4.57,4.57,0,0,1,626.67,265.59Z"/><path class="cls-3" d="M636,251a2.65,2.65,0,0,1-3.23,0,1.77,1.77,0,0,1-.62-1.37,1.83,1.83,0,0,1,.59-1.4,2.74,2.74,0,0,1,3.28,0,1.81,1.81,0,0,1,.6,1.39A1.77,1.77,0,0,1,636,251Zm-2.31,14.35a1,1,0,0,1-1.15-1.15v-10a1,1,0,0,1,1.15-1.15h1.39a1,1,0,0,1,1.18,1.15v10a1,1,0,0,1-1.18,1.15Z"/><path class="cls-3" d="M640.45,265.32a1,1,0,0,1-1.15-1.15v-10a1,1,0,0,1,1.15-1.15h1.42a1,1,0,0,1,1.15,1.15V255a3.08,3.08,0,0,1,1.26-1.65,3.72,3.72,0,0,1,2.07-.59,3.76,3.76,0,0,1,3.58,2.14,4.26,4.26,0,0,1,1.76-1.69,5.18,5.18,0,0,1,2.2-.45,3.91,3.91,0,0,1,3.39,1.58,6.52,6.52,0,0,1,1.15,3.94v5.93a1,1,0,0,1-1.18,1.15h-1.39a1,1,0,0,1-1.16-1.15v-5.76a3.54,3.54,0,0,0-.46-2,1.49,1.49,0,0,0-1.31-.69,1.94,1.94,0,0,0-1.54.77,3.64,3.64,0,0,0-.67,2.32v5.33a1,1,0,0,1-1.15,1.15h-1.42a1,1,0,0,1-1.15-1.15v-5.76a3.54,3.54,0,0,0-.46-2,1.46,1.46,0,0,0-1.29-.68,2,2,0,0,0-1.59.8A3.81,3.81,0,0,0,643,259v5.21a1,1,0,0,1-1.15,1.15Z"/><path class="cls-3" d="M667.57,265.59a7.2,7.2,0,0,1-5.16-1.83,6,6,0,0,1-1.94-4.56,6.26,6.26,0,0,1,1.87-4.58,6.58,6.58,0,0,1,4.89-1.9,6.81,6.81,0,0,1,4.59,1.6,5.92,5.92,0,0,1,2,4.45.85.85,0,0,1-.29.76,1.39,1.39,0,0,1-.88.25H664a2.4,2.4,0,0,0,1,2,4.28,4.28,0,0,0,2.77.86,5.55,5.55,0,0,0,2.73-.74,1.16,1.16,0,0,1,1.64.24l.26.33a1,1,0,0,1-.21,1.71A7.79,7.79,0,0,1,667.57,265.59Zm-3.46-7.87h6.2a2.41,2.41,0,0,0-1.1-1.67,3.58,3.58,0,0,0-1.93-.52,3.82,3.82,0,0,0-2,.53A2.59,2.59,0,0,0,664.11,257.72Z"/><path class="cls-3" d="M526.93,277.32a1,1,0,0,1,1.18,1.16v.91a1,1,0,0,1-1.18,1.15H523V293a1,1,0,0,1-1.15,1.15h-1.44A1,1,0,0,1,519.3,293V280.54h-3.84a1,1,0,0,1-1.15-1.15v-.91a1,1,0,0,1,1.15-1.16Z"/><path class="cls-3" d="M534.16,294.39a7.24,7.24,0,0,1-5.17-1.83,6,6,0,0,1-1.94-4.56,6.26,6.26,0,0,1,1.87-4.58,6.6,6.6,0,0,1,4.9-1.9,6.78,6.78,0,0,1,4.58,1.6,5.92,5.92,0,0,1,2,4.45.83.83,0,0,1-.3.76,1.39,1.39,0,0,1-.88.25H530.6a2.42,2.42,0,0,0,1,2,4.3,4.3,0,0,0,2.77.86,5.56,5.56,0,0,0,2.74-.74,1.15,1.15,0,0,1,1.63.24l.27.33a1.05,1.05,0,0,1-.22,1.71A7.76,7.76,0,0,1,534.16,294.39Zm-3.46-7.87h6.19a2.4,2.4,0,0,0-1.09-1.67,3.6,3.6,0,0,0-1.93-.52,3.88,3.88,0,0,0-2,.53A2.54,2.54,0,0,0,530.7,286.52Z"/><path class="cls-3" d="M543.63,294.12a1,1,0,0,1-1.15-1.15v-10a1,1,0,0,1,1.15-1.15h1.42a1,1,0,0,1,1.15,1.15v.82a3.66,3.66,0,0,1,3.75-2.24,3.91,3.91,0,0,1,3.42,1.55,6.75,6.75,0,0,1,1.09,3.95v6a1,1,0,0,1-1.18,1.15h-1.39a1,1,0,0,1-1.15-1.15v-5.69a3.51,3.51,0,0,0-.5-2,1.67,1.67,0,0,0-1.45-.72,2.39,2.39,0,0,0-1.82.84,3.51,3.51,0,0,0-.77,2.45V293a1,1,0,0,1-1.15,1.15Z"/><path class="cls-3" d="M562.45,294.39a5.5,5.5,0,0,1-4.25-1.84,7.11,7.11,0,0,1,0-9.18,5.51,5.51,0,0,1,4.25-1.85,4.38,4.38,0,0,1,4,2v-.6a1,1,0,0,1,1.15-1.15H569a1,1,0,0,1,1.15,1.15v10a1,1,0,0,1-1.15,1.15h-1.42a1,1,0,0,1-1.15-1.15v-.57A4.4,4.4,0,0,1,562.45,294.39Zm.86-3a2.91,2.91,0,0,0,2.27-1,3.92,3.92,0,0,0,0-4.95,2.91,2.91,0,0,0-2.27-1,2.75,2.75,0,0,0-2.24,1,4.08,4.08,0,0,0,0,4.93A2.79,2.79,0,0,0,563.31,291.41Z"/><path class="cls-3" d="M579.44,294.39a7.23,7.23,0,0,1-5.13-1.83,5.88,5.88,0,0,1-2-4.53,6.15,6.15,0,0,1,1.95-4.63,7.14,7.14,0,0,1,5.15-1.88,7.6,7.6,0,0,1,3.91,1c.66.41.73,1,.22,1.63l-.38.48a1.27,1.27,0,0,1-1.64.29,4.23,4.23,0,0,0-1.89-.44,3.62,3.62,0,0,0-2.58,1,3.51,3.51,0,0,0,0,4.95,3.62,3.62,0,0,0,2.58,1,4.36,4.36,0,0,0,1.89-.43,1.22,1.22,0,0,1,1.64.28l.38.48a1.06,1.06,0,0,1,.25.93,1.22,1.22,0,0,1-.68.8A7.35,7.35,0,0,1,579.44,294.39Z"/><path class="cls-3" d="M589.75,279.77a2.66,2.66,0,0,1-3.24,0,1.76,1.76,0,0,1-.61-1.37,1.79,1.79,0,0,1,.59-1.4,2.33,2.33,0,0,1,1.64-.54,2.3,2.3,0,0,1,1.63.55,1.81,1.81,0,0,1,.6,1.39A1.76,1.76,0,0,1,589.75,279.77Zm-2.32,14.35a1,1,0,0,1-1.15-1.15v-10a1,1,0,0,1,1.15-1.15h1.4a1,1,0,0,1,1.17,1.15v10a1,1,0,0,1-1.17,1.15Z"/><path class="cls-3" d="M598.11,294.39a5.21,5.21,0,0,1-1.56-.22,4.45,4.45,0,0,1-1.36-.68,3,3,0,0,1-1-1.36,5.37,5.37,0,0,1-.38-2.11v-5.47h-1.22c-.42,0-.62-.2-.62-.6v-1.56c0-.4.2-.6.62-.6h1.51l.41-2.5a.86.86,0,0,1,.94-.77h1.17a.74.74,0,0,1,.84.84v2.43h2.79a.53.53,0,0,1,.6.6V284a.53.53,0,0,1-.6.6h-2.79v5.59c0,.85.34,1.27,1,1.27a1,1,0,0,0,.74-.31,1.13,1.13,0,0,0,.29-.82c0-.17,0-.32,0-.43-.05-.43.12-.65.5-.65h1.47a.61.61,0,0,1,.67.48,4,4,0,0,1,.14.94,3.43,3.43,0,0,1-1.16,2.83A4.57,4.57,0,0,1,598.11,294.39Z"/><path class="cls-3" d="M606.2,299.5a1,1,0,0,1-.9-.37,1,1,0,0,1,0-1l2-4.88-4.56-10.12a1,1,0,0,1,0-1,1,1,0,0,1,.9-.38h1.63a1.27,1.27,0,0,1,1.34.93l2.52,6.7,2.55-6.7a1.3,1.3,0,0,1,1.34-.93h1.56a1,1,0,0,1,.89.38,1.07,1.07,0,0,1,0,1l-6.74,15.45a1.37,1.37,0,0,1-1.35.89Z"/><path class="cls-3" d="M631.35,294.39a9.07,9.07,0,0,1-6.68-2.52,8.73,8.73,0,0,1,0-12.29,9.07,9.07,0,0,1,6.68-2.52,8.92,8.92,0,0,1,5.14,1.58,1,1,0,0,1,.24,1.61l-.6.75a1.09,1.09,0,0,1-1.61.21,6.24,6.24,0,0,0-3.17-.84,5.16,5.16,0,0,0-3.92,1.54,5.66,5.66,0,0,0,0,7.63,5.2,5.2,0,0,0,3.92,1.54,6.24,6.24,0,0,0,3.17-.84,1.09,1.09,0,0,1,1.61.21l.6.75q.67,1-.12,1.53A8.8,8.8,0,0,1,631.35,294.39Z"/><path class="cls-3" d="M650,292.52a7.28,7.28,0,0,1-9.74,0,6.26,6.26,0,0,1,0-9.12,7.25,7.25,0,0,1,9.74,0,6.26,6.26,0,0,1,0,9.12Zm-7.22-2.12a3.28,3.28,0,0,0,4.7,0,3.32,3.32,0,0,0,1-2.42,3.37,3.37,0,0,0-1-2.45,3.32,3.32,0,0,0-4.71,0,3.4,3.4,0,0,0-1,2.45A3.32,3.32,0,0,0,642.73,290.4Z"/><path class="cls-3" d="M655.26,294.12a1,1,0,0,1-1.15-1.15v-10a1,1,0,0,1,1.15-1.15h1.41a1,1,0,0,1,1.15,1.15v.82a3.67,3.67,0,0,1,3.75-2.24,3.91,3.91,0,0,1,3.42,1.55,6.68,6.68,0,0,1,1.09,3.95v6a1,1,0,0,1-1.17,1.15h-1.4a1,1,0,0,1-1.15-1.15v-5.69a3.51,3.51,0,0,0-.5-2,1.66,1.66,0,0,0-1.44-.72,2.41,2.41,0,0,0-1.83.84,3.51,3.51,0,0,0-.77,2.45V293a1,1,0,0,1-1.15,1.15Z"/><path class="cls-3" d="M673.86,294.39a5.21,5.21,0,0,1-1.56-.22,4.5,4.5,0,0,1-1.37-.68,3.14,3.14,0,0,1-1-1.36,5.38,5.38,0,0,1-.37-2.11v-5.47h-1.23a.54.54,0,0,1-.62-.6v-1.56a.54.54,0,0,1,.62-.6h1.51l.41-2.5a.86.86,0,0,1,.94-.77h1.18a.74.74,0,0,1,.84.84v2.43H676a.53.53,0,0,1,.6.6V284a.53.53,0,0,1-.6.6h-2.78v5.59c0,.85.33,1.27,1,1.27a1,1,0,0,0,.75-.31,1.17,1.17,0,0,0,.29-.82,2.54,2.54,0,0,0,0-.43c-.05-.43.12-.65.51-.65h1.46a.61.61,0,0,1,.67.48,3.56,3.56,0,0,1,.15.94,3.4,3.4,0,0,1-1.17,2.83A4.54,4.54,0,0,1,673.86,294.39Z"/><path class="cls-3" d="M680.87,294.12a1,1,0,0,1-1.16-1.15v-10a1,1,0,0,1,1.16-1.15h1.32a1,1,0,0,1,1.15,1.15v1.54a3.37,3.37,0,0,1,1.23-2.24,3.28,3.28,0,0,1,2-.72l.41,0c.46,0,.69.36.69,1v1.68a1,1,0,0,1-.22.72.72.72,0,0,1-.62.17l-.6-.05a2.44,2.44,0,0,0-2,.94,4.89,4.89,0,0,0-.77,3.09V293a1,1,0,0,1-1.15,1.15Z"/><path class="cls-3" d="M700.11,292.52a7.28,7.28,0,0,1-9.74,0,6.26,6.26,0,0,1,0-9.12,7.25,7.25,0,0,1,9.74,0,6.26,6.26,0,0,1,0,9.12Zm-7.22-2.12a3.28,3.28,0,0,0,4.7,0,3.32,3.32,0,0,0,1-2.42,3.37,3.37,0,0,0-1-2.45,3.32,3.32,0,0,0-4.71,0,3.36,3.36,0,0,0-1,2.45A3.32,3.32,0,0,0,692.89,290.4Z"/><path class="cls-3" d="M705.46,294.12a1,1,0,0,1-1.15-1.15V277.92a1,1,0,0,1,1.15-1.15h1.4a1,1,0,0,1,1.17,1.15V293a1,1,0,0,1-1.17,1.15Z"/><path class="cls-17" d="M620.48,140.8c0-12.18,2.66-46.15,3.21-53a9.71,9.71,0,0,0,.09-1.21,8.33,8.33,0,0,0-16.65,0h0a9.55,9.55,0,0,0,.09,1.2c.55,6.81,3.21,40.78,3.21,53s-2.66,46.15-3.21,53a9.41,9.41,0,0,0-.09,1.2h0a8.33,8.33,0,0,0,16.65,0,9.43,9.43,0,0,0-.09-1.21C623.14,186.94,620.48,153,620.48,140.8Z"/><path class="cls-4" d="M652.77,157.61c-.74-6.34-3.08-26.87-3.08-34.54s2.34-28.2,3.08-34.54a8.45,8.45,0,0,0,.23-1.9,8.33,8.33,0,0,0-16.66,0,7.91,7.91,0,0,0,.23,1.9c.74,6.34,3.08,26.87,3.08,34.54s-2.34,28.2-3.08,34.54a7.91,7.91,0,0,0-.23,1.9h0a8.33,8.33,0,0,0,16.66,0h0A8.45,8.45,0,0,0,652.77,157.61Z"/><circle class="cls-18" cx="584.45" cy="86.63" r="8.33"/><circle class="cls-18" cx="584.45" cy="134.52" r="8.33"/><path class="cls-18" d="M576.12,134.52s3.31-17.94,3.31-23.94-3.31-24-3.31-24h16.66s-3.31,18-3.31,24,3.31,23.94,3.31,23.94Z"/><line class="cls-19" x1="679.47" y1="167.84" x2="676.22" y2="167.84"/><line class="cls-20" x1="669.73" y1="167.84" x2="556.23" y2="167.84"/><line class="cls-19" x1="552.98" y1="167.84" x2="549.73" y2="167.84"/><circle class="cls-4" cx="141.88" cy="167.56" r="29.68"/><path class="cls-21" d="M100.21,112.37s13.74,3.08,23.46,13.73"/><polygon class="cls-3" points="120.34 127.53 126.74 129.94 125.63 123.2 120.34 127.53"/><path class="cls-21" d="M186.85,120.88s-8.61-1.12-16.69,7.75"/><polygon class="cls-3" points="168.17 125.76 167.14 132.51 173.5 130.03 168.17 125.76"/><path class="cls-21" d="M134.08,90.38s13.27,12.69,13.28,32"/><polygon class="cls-3" points="143.91 121.19 147.08 127.24 150.73 121.47 143.91 121.19"/><circle class="cls-8" cx="88.14" cy="109.31" r="6.29"/><circle class="cls-5" cx="198.57" cy="123.68" r="6.29"/><circle class="cls-3" cx="127.7" cy="83.68" r="4.29"/><path class="cls-3" d="M119.74,256.61a3.69,3.69,0,0,1,2.54,1.39,4.11,4.11,0,0,1,.92,2.57,4.21,4.21,0,0,1-1.64,3.46,6.78,6.78,0,0,1-4.34,1.29H111a1,1,0,0,1-1.17-1.15V249.68a1,1,0,0,1,1.17-1.16h5.52a6.84,6.84,0,0,1,4.26,1.25,4,4,0,0,1,1.65,3.36,3.57,3.57,0,0,1-.66,2.08A3.85,3.85,0,0,1,119.74,256.61Zm-3.5-5.06h-2.6v4.08h2a3.65,3.65,0,0,0,2.28-.61,1.87,1.87,0,0,0,.77-1.5,1.69,1.69,0,0,0-.7-1.44A2.78,2.78,0,0,0,116.24,251.55Zm.84,10.7a2.58,2.58,0,0,0,1.74-.55,1.8,1.8,0,0,0,.63-1.42,1.92,1.92,0,0,0-.8-1.54,3.74,3.74,0,0,0-2.37-.64h-2.64v4.15Z"/><path class="cls-3" d="M130.71,265.59a5.5,5.5,0,0,1-4.25-1.84,7.11,7.11,0,0,1,0-9.18,5.51,5.51,0,0,1,4.25-1.85,4.4,4.4,0,0,1,4,2v-.6a1,1,0,0,1,1.15-1.15h1.42a1,1,0,0,1,1.15,1.15v10a1,1,0,0,1-1.15,1.15h-1.42a1,1,0,0,1-1.15-1.15v-.57A4.42,4.42,0,0,1,130.71,265.59Zm.86-3a2.91,2.91,0,0,0,2.27-1,3.92,3.92,0,0,0,0-4.95,2.91,2.91,0,0,0-2.27-1,2.75,2.75,0,0,0-2.24,1,4.08,4.08,0,0,0,0,4.93A2.79,2.79,0,0,0,131.57,262.61Z"/><path class="cls-3" d="M146.48,265.59a5.21,5.21,0,0,1-1.56-.22,4.5,4.5,0,0,1-1.37-.68,3.14,3.14,0,0,1-1-1.36,5.38,5.38,0,0,1-.37-2.11v-5.47h-1.23a.54.54,0,0,1-.62-.6v-1.56a.54.54,0,0,1,.62-.6h1.51l.41-2.5a.86.86,0,0,1,.94-.77H145a.74.74,0,0,1,.84.84V253h2.79a.53.53,0,0,1,.6.6v1.56a.53.53,0,0,1-.6.6H145.8v5.59c0,.85.34,1.27,1,1.27a1,1,0,0,0,.75-.31,1.17,1.17,0,0,0,.28-.82,2.69,2.69,0,0,0,0-.43c0-.43.12-.65.5-.65h1.47a.61.61,0,0,1,.67.48,3.51,3.51,0,0,1,.14.94,3.4,3.4,0,0,1-1.16,2.83A4.54,4.54,0,0,1,146.48,265.59Z"/><path class="cls-3" d="M158.67,265.59a7.25,7.25,0,0,1-5.14-1.83,5.92,5.92,0,0,1-2-4.53,6.16,6.16,0,0,1,2-4.63,7.13,7.13,0,0,1,5.15-1.88,7.63,7.63,0,0,1,3.91,1c.66.41.73,1,.22,1.63l-.39.48a1.25,1.25,0,0,1-1.63.29,4.24,4.24,0,0,0-1.9-.44,3.62,3.62,0,0,0-2.58,1,3.51,3.51,0,0,0,0,4.95,3.62,3.62,0,0,0,2.58,1,4.37,4.37,0,0,0,1.9-.43,1.2,1.2,0,0,1,1.63.28l.39.48a1.06,1.06,0,0,1,.25.93,1.21,1.21,0,0,1-.69.8A7.29,7.29,0,0,1,158.67,265.59Z"/><path class="cls-3" d="M166.61,265.32a1,1,0,0,1-1.15-1.15V249.12a1,1,0,0,1,1.15-1.15H168a1,1,0,0,1,1.15,1.15V255a3.65,3.65,0,0,1,3.74-2.24,3.88,3.88,0,0,1,3.42,1.55,6.68,6.68,0,0,1,1.1,4v5.95a1,1,0,0,1-1.18,1.15h-1.39a1,1,0,0,1-1.15-1.15v-5.69a3.43,3.43,0,0,0-.51-2,1.64,1.64,0,0,0-1.44-.72,2.39,2.39,0,0,0-1.82.84,3.51,3.51,0,0,0-.77,2.45v5.13a1,1,0,0,1-1.15,1.15Z"/><path class="cls-3" d="M80,291.87a9.34,9.34,0,0,1-12.76,0,8.75,8.75,0,0,1,0-12.29,9.34,9.34,0,0,1,12.76,0,8.73,8.73,0,0,1,0,12.29Zm-10-2.34a5.06,5.06,0,0,0,7.29,0,5.75,5.75,0,0,0,0-7.61,5.06,5.06,0,0,0-7.29,0,5.81,5.81,0,0,0,0,7.61Z"/><path class="cls-3" d="M86,299.5a1,1,0,0,1-1.15-1.15V282.94A1,1,0,0,1,86,281.79h1.42a1,1,0,0,1,1.15,1.15v.58a4.39,4.39,0,0,1,4-2,5.51,5.51,0,0,1,4.25,1.85,7.11,7.11,0,0,1,0,9.18,5.5,5.5,0,0,1-4.25,1.84,4.36,4.36,0,0,1-4-2v6a1,1,0,0,1-1.15,1.15Zm5.67-8.09a2.79,2.79,0,0,0,2.24-1,4.08,4.08,0,0,0,0-4.93,2.75,2.75,0,0,0-2.24-1,2.91,2.91,0,0,0-2.27,1,3.92,3.92,0,0,0,0,4.95A2.91,2.91,0,0,0,91.69,291.41Z"/><path class="cls-3" d="M105.65,294.39a5.21,5.21,0,0,1-1.56-.22,4.62,4.62,0,0,1-1.37-.68,3.14,3.14,0,0,1-1-1.36,5.57,5.57,0,0,1-.37-2.11v-5.47h-1.22c-.42,0-.62-.2-.62-.6v-1.56c0-.4.2-.6.62-.6h1.51l.41-2.5a.85.85,0,0,1,.93-.77h1.18a.74.74,0,0,1,.84.84v2.43h2.78a.54.54,0,0,1,.61.6V284a.54.54,0,0,1-.61.6H105v5.59c0,.85.34,1.27,1,1.27a1,1,0,0,0,.74-.31,1.17,1.17,0,0,0,.29-.82c0-.17,0-.32,0-.43,0-.43.12-.65.5-.65H109a.62.62,0,0,1,.68.48,4,4,0,0,1,.14.94,3.43,3.43,0,0,1-1.16,2.83A4.57,4.57,0,0,1,105.65,294.39Z"/><path class="cls-3" d="M115,279.77a2.29,2.29,0,0,1-1.62.55,2.32,2.32,0,0,1-1.62-.55,1.79,1.79,0,0,1-.61-1.37,1.83,1.83,0,0,1,.59-1.4,2.74,2.74,0,0,1,3.28,0,1.81,1.81,0,0,1,.6,1.39A1.77,1.77,0,0,1,115,279.77Zm-2.31,14.35a1,1,0,0,1-1.15-1.15v-10a1,1,0,0,1,1.15-1.15h1.39a1,1,0,0,1,1.18,1.15v10a1,1,0,0,1-1.18,1.15Z"/><path class="cls-3" d="M119.43,294.12a1,1,0,0,1-1.15-1.15v-10a1,1,0,0,1,1.15-1.15h1.41a1,1,0,0,1,1.16,1.15v.82a3.08,3.08,0,0,1,1.26-1.65,3.72,3.72,0,0,1,2.07-.59,3.76,3.76,0,0,1,3.58,2.14,4.26,4.26,0,0,1,1.76-1.69,5.18,5.18,0,0,1,2.2-.45,3.92,3.92,0,0,1,3.39,1.58A6.52,6.52,0,0,1,137.4,287V293a1,1,0,0,1-1.17,1.15h-1.39a1,1,0,0,1-1.16-1.15v-5.76a3.54,3.54,0,0,0-.46-2,1.51,1.51,0,0,0-1.31-.69,1.94,1.94,0,0,0-1.54.77,3.64,3.64,0,0,0-.67,2.32V293a1,1,0,0,1-1.15,1.15h-1.42A1,1,0,0,1,126,293v-5.76a3.54,3.54,0,0,0-.46-2,1.46,1.46,0,0,0-1.29-.68,2,2,0,0,0-1.59.8,3.81,3.81,0,0,0-.64,2.41V293a1,1,0,0,1-1.16,1.15Z"/><path class="cls-3" d="M143.73,279.77a2.66,2.66,0,0,1-3.24,0,1.76,1.76,0,0,1-.61-1.37,1.82,1.82,0,0,1,.58-1.4,2.36,2.36,0,0,1,1.65-.54,2.3,2.3,0,0,1,1.63.55,1.81,1.81,0,0,1,.6,1.39A1.76,1.76,0,0,1,143.73,279.77Zm-2.32,14.35a1,1,0,0,1-1.15-1.15v-10a1,1,0,0,1,1.15-1.15h1.39a1,1,0,0,1,1.18,1.15v10a1,1,0,0,1-1.18,1.15Z"/><path class="cls-3" d="M147.39,294.12a1,1,0,0,1-1.15-1.15v-.14a2.08,2.08,0,0,1,.55-1.44l6.26-6.72H147.7a1,1,0,0,1-1.15-1.15v-.58a1,1,0,0,1,1.15-1.15h9.5a1,1,0,0,1,1.16,1.15v.17a2.12,2.12,0,0,1-.56,1.44l-6.24,6.69h6.05a1,1,0,0,1,1.18,1.16V293a1.06,1.06,0,0,1-1.18,1.15Z"/><path class="cls-3" d="M166,294.39a5.49,5.49,0,0,1-4.25-1.84,7.11,7.11,0,0,1,0-9.18,5.49,5.49,0,0,1,4.25-1.85,4.41,4.41,0,0,1,4,2v-.6a1,1,0,0,1,1.15-1.15h1.41a1,1,0,0,1,1.16,1.15v10a1,1,0,0,1-1.16,1.15h-1.41A1,1,0,0,1,170,293v-.57A4.43,4.43,0,0,1,166,294.39Zm.86-3a2.92,2.92,0,0,0,2.27-1,4,4,0,0,0,0-4.95,2.92,2.92,0,0,0-2.27-1,2.75,2.75,0,0,0-2.24,1,4.08,4.08,0,0,0,0,4.93A2.79,2.79,0,0,0,166.9,291.41Z"/><path class="cls-3" d="M181.8,294.39a5.21,5.21,0,0,1-1.56-.22,4.45,4.45,0,0,1-1.36-.68,3,3,0,0,1-1-1.36,5.37,5.37,0,0,1-.38-2.11v-5.47h-1.22c-.42,0-.62-.2-.62-.6v-1.56c0-.4.2-.6.62-.6h1.51l.41-2.5a.86.86,0,0,1,.94-.77h1.17a.74.74,0,0,1,.84.84v2.43h2.79a.53.53,0,0,1,.6.6V284a.53.53,0,0,1-.6.6h-2.79v5.59c0,.85.34,1.27,1,1.27a1,1,0,0,0,.74-.31,1.13,1.13,0,0,0,.29-.82c0-.17,0-.32,0-.43-.05-.43.12-.65.5-.65h1.47a.61.61,0,0,1,.67.48,4,4,0,0,1,.14.94,3.43,3.43,0,0,1-1.16,2.83A4.57,4.57,0,0,1,181.8,294.39Z"/><path class="cls-3" d="M191.18,279.77a2.32,2.32,0,0,1-1.62.55,2.29,2.29,0,0,1-1.62-.55,1.77,1.77,0,0,1-.62-1.37,1.83,1.83,0,0,1,.59-1.4,2.34,2.34,0,0,1,1.65-.54,2.32,2.32,0,0,1,1.63.55,1.88,1.88,0,0,1,0,2.76Zm-2.32,14.35a1,1,0,0,1-1.15-1.15v-10a1,1,0,0,1,1.15-1.15h1.39a1,1,0,0,1,1.18,1.15v10a1,1,0,0,1-1.18,1.15Z"/><path class="cls-3" d="M205.35,292.52a7.29,7.29,0,0,1-9.75,0,6.28,6.28,0,0,1,0-9.12,7.26,7.26,0,0,1,9.75,0,6.26,6.26,0,0,1,0,9.12Zm-7.23-2.12a3.3,3.3,0,0,0,4.71,0,3.32,3.32,0,0,0,1-2.42,3.37,3.37,0,0,0-1-2.45,3.33,3.33,0,0,0-4.72,0,3.4,3.4,0,0,0-1,2.45A3.32,3.32,0,0,0,198.12,290.4Z"/><path class="cls-3" d="M210.65,294.12A1,1,0,0,1,209.5,293v-10a1,1,0,0,1,1.15-1.15h1.42a1,1,0,0,1,1.15,1.15v.82a3.65,3.65,0,0,1,3.74-2.24,3.88,3.88,0,0,1,3.42,1.55,6.68,6.68,0,0,1,1.1,3.95v6a1,1,0,0,1-1.18,1.15h-1.39a1,1,0,0,1-1.15-1.15v-5.69a3.43,3.43,0,0,0-.51-2,1.65,1.65,0,0,0-1.44-.72,2.39,2.39,0,0,0-1.82.84,3.51,3.51,0,0,0-.77,2.45V293a1,1,0,0,1-1.15,1.15Z"/></g></svg>