<?xml version="1.0" encoding="UTF-8"?>
<svg width="641px" height="198px" viewBox="0 0 641 198" version="1.1" xmlns="http://www.w3.org/2000/svg" xmlns:xlink="http://www.w3.org/1999/xlink">
    <title>m_fig04</title>
    <g id="Mobile" stroke="none" stroke-width="1" fill="none" fill-rule="evenodd">
        <g id="saya_technologies_bottles_Mobile" transform="translate(-54.000000, -9088.000000)">
            <g id="m_fig04" transform="translate(54.000000, 9088.000000)">
                <g id="Group" transform="translate(236.000000, 149.000000)" fill="#FFFFFF" font-family="FilsonSoft-Bold, Filson Soft" font-size="18" font-weight="bold">
                    <text id="R">
                        <tspan x="15.4117647" y="18.2943841">R</tspan>
                    </text>
                    <text id="eal">
                        <tspan x="29.2273109" y="18.2943841">eal</tspan>
                    </text>
                    <text id="-">
                        <tspan x="59.9957983" y="18.2943841">-</tspan>
                    </text>
                    <text id="time">
                        <tspan x="69.3089076" y="18.2943841">time</tspan>
                    </text>
                    <text id="C">
                        <tspan x="0.253193277" y="42.2617754">C</tspan>
                    </text>
                    <text id="olo">
                        <tspan x="13.672437" y="42.2617754">olo</tspan>
                    </text>
                    <text id="r">
                        <tspan x="44.1436975" y="42.2617754">r</tspan>
                    </text>
                    <text id="C">
                        <tspan x="56.4621008" y="42.2617754">C</tspan>
                    </text>
                    <text id="o">
                        <tspan x="69.8813445" y="42.2617754">o</tspan>
                    </text>
                    <text id="n">
                        <tspan x="82.3318487" y="42.2617754">n</tspan>
                    </text>
                    <text id="t">
                        <tspan x="94.4080672" y="42.2617754">t</tspan>
                    </text>
                    <text id="r">
                        <tspan x="103.467983" y="42.2617754">r</tspan>
                    </text>
                    <text id="ol">
                        <tspan x="111.294958" y="42.2617754">ol</tspan>
                    </text>
                </g>
                <circle id="Oval" fill="#BFC723" fill-rule="nonzero" cx="257.5" cy="86.5" r="7.5"></circle>
                <circle id="Oval" fill="#BFC723" fill-rule="nonzero" opacity="0.2" cx="320.5" cy="86.5" r="7.5"></circle>
                <circle id="Oval" fill="#BFC723" fill-rule="nonzero" opacity="0.6" cx="277.5" cy="86.5" r="7.5"></circle>
                <circle id="Oval" fill="#BFC723" fill-rule="nonzero" opacity="0.4" cx="299.5" cy="86.5" r="7.5"></circle>
                <circle id="Oval" fill="#C1C1C1" fill-rule="nonzero" opacity="0.4" cx="299.5" cy="106.5" r="7.5"></circle>
                <circle id="Oval" fill="#C1C1C1" fill-rule="nonzero" cx="257.5" cy="106.5" r="7.5"></circle>
                <circle id="Oval" fill="#BFC723" fill-rule="nonzero" opacity="0.1" cx="340.5" cy="86.5" r="7.5"></circle>
                <circle id="Oval" fill="#FFFFFF" fill-rule="nonzero" cx="257.5" cy="66.5" r="7.5"></circle>
                <circle id="Oval" fill="#FFFFFF" fill-rule="nonzero" opacity="0.3" cx="320.5" cy="66.5" r="7.5"></circle>
                <circle id="Oval" fill="#FFFFFF" fill-rule="nonzero" opacity="0.8" cx="277.5" cy="66.5" r="7.5"></circle>
                <circle id="Oval" fill="#FFFFFF" fill-rule="nonzero" opacity="0.6" cx="299.5" cy="66.5" r="7.5"></circle>
                <circle id="Oval" fill="#FFFFFF" fill-rule="nonzero" opacity="0.1" cx="340.5" cy="66.5" r="7.5"></circle>
                <circle id="Oval" fill="#C1C1C1" fill-rule="nonzero" opacity="0.1" cx="341.5" cy="106.5" r="7.5"></circle>
                <circle id="Oval" fill="#C1C1C1" fill-rule="nonzero" opacity="0.2" cx="320.5" cy="106.5" r="7.5"></circle>
                <circle id="Oval" fill="#C1C1C1" fill-rule="nonzero" opacity="0.8" cx="276.5" cy="106.5" r="7.5"></circle>
                <path d="M336.958508,0 C344.038903,12.3089786 332.127441,25.5511288 332.127441,25.5511288 C329.315623,29.3800192 329.288694,34.5903763 332.060783,38.4482767 C334.832872,42.3061771 339.770834,43.9304772 344.283675,42.4688914 C348.796516,41.0073056 351.853503,36.7936598 351.850607,32.0388937 C351.850607,32.0388937 354.554232,16.0749928 336.958508,0 Z" id="Path" fill="#FFFFFF" fill-rule="nonzero"></path>
                <g id="Group" transform="translate(477.000000, 149.000000)" fill="#FFFFFF" font-family="FilsonSoft-Bold, Filson Soft" font-size="18" font-weight="bold">
                    <text id="R">
                        <tspan x="34.3513514" y="18.2943841">R</tspan>
                    </text>
                    <text id="eal">
                        <tspan x="48.2581081" y="18.2943841">eal</tspan>
                    </text>
                    <text id="-">
                        <tspan x="79.2297297" y="18.2943841">-</tspan>
                    </text>
                    <text id="time">
                        <tspan x="88.6043243" y="18.2943841">time</tspan>
                    </text>
                    <text id="T">
                        <tspan x="0.321351351" y="42.2617754">T</tspan>
                    </text>
                    <text id="enaci">
                        <tspan x="10.6932432" y="42.2617754">enaci</tspan>
                    </text>
                    <text id="t">
                        <tspan x="64.8686486" y="42.2617754">t</tspan>
                    </text>
                    <text id="y">
                        <tspan x="73.5894595" y="42.2617754">y</tspan>
                    </text>
                    <text id="C">
                        <tspan x="89.6237838" y="42.2617754">C</tspan>
                    </text>
                    <text id="o">
                        <tspan x="103.120541" y="42.2617754">o</tspan>
                    </text>
                    <text id="n">
                        <tspan x="115.653243" y="42.2617754">n</tspan>
                    </text>
                    <text id="t">
                        <tspan x="127.82027" y="42.2617754">t</tspan>
                    </text>
                    <text id="r">
                        <tspan x="136.928919" y="42.2617754">r</tspan>
                    </text>
                    <text id="ol">
                        <tspan x="144.807568" y="42.2617754">ol</tspan>
                    </text>
                </g>
                <path d="M566.825579,61.4188911 C566.825579,49.819998 569.377076,17.508796 569.900746,11.0244624 C570.317183,8.09144236 569.048182,5.1731523 566.611275,3.45974832 C564.174368,1.74634435 560.976835,1.524188 558.322716,2.88388053 C555.668596,4.24357307 554.001473,6.9578688 554.001244,9.91980594 L554.001244,9.91980594 C554.007647,10.2899463 554.041161,10.6591367 554.101521,11.0244624 C554.625191,17.508796 557.176688,49.8310446 557.176688,61.4299377 C557.176688,73.0288307 554.625191,105.340033 554.101521,111.824366 C554.042137,112.189814 554.008629,112.558935 554.001244,112.929023 L554.001244,112.929023 C553.948024,115.928245 555.605994,118.700629 558.285713,120.093321 C560.965432,121.486013 564.20836,121.260702 566.665975,119.511082 C569.123589,117.761461 570.375355,114.786916 569.900746,111.824366 C569.377076,105.328986 566.825579,73.0067376 566.825579,61.4188911 Z" id="Path" fill="#BFC723" fill-rule="nonzero" opacity="0.5"></path>
                <path d="M597.744356,77.5765132 C597.032999,71.5601793 594.787778,52.078717 594.787778,44.7952065 C594.787778,37.511696 597.010769,18.0192148 597.744356,12.0028808 C597.882251,11.4138938 597.953089,10.8114344 597.95554,10.2067958 C598.064578,7.31182851 596.568853,4.58928465 594.056499,3.10969342 C591.544145,1.63010219 588.416975,1.63010219 585.904621,3.10969342 C583.392267,4.58928465 581.896542,7.31182851 582.00558,10.2067958 C582.006216,10.8121953 582.08086,11.4152872 582.227879,12.0028808 C582.994811,18.0192148 585.217802,37.511696 585.217802,44.7952065 C585.217802,52.078717 582.994811,71.5601793 582.272339,77.5765132 C582.124643,78.1677248 582.049996,78.7745442 582.05004,79.3836172 L582.05004,79.3836172 C582.210175,83.635233 585.733363,87 590.02502,87 C594.316677,87 597.839865,83.635233 598,79.3836172 L598,79.3836172 C597.983633,78.773633 597.897876,78.1674286 597.744356,77.5765132 Z" id="Path" fill="#BFC723" fill-rule="nonzero"></path>
                <circle id="Oval" fill="#C8C2C2" fill-rule="nonzero" cx="532" cy="10" r="8"></circle>
                <circle id="Oval" fill="#C8C2C2" fill-rule="nonzero" cx="532" cy="56" r="8"></circle>
                <path d="M524,56 C524,56 527.1777,38.7597576 527.1777,32.9944242 C527.1777,27.2290909 524,10 524,10 L540,10 C540,10 536.833449,27.2402424 536.833449,32.9944242 C536.833449,38.7486061 540,56 540,56 L524,56 Z" id="Path" fill="#C8C2C2" fill-rule="nonzero"></path>
                <line x1="624" y1="86.5" x2="620" y2="86.5" id="Path" stroke="#FFFFFF" stroke-width="2.6"></line>
                <line x1="613" y1="86.5" x2="507" y2="86.5" id="Path" stroke="#FFFFFF" stroke-width="2.6" stroke-dasharray="6.19"></line>
                <line x1="503" y1="86.5" x2="499" y2="86.5" id="Path" stroke="#FFFFFF" stroke-width="2.6"></line>
                <circle id="Oval" fill="#BFC723" fill-rule="nonzero" cx="56.5" cy="87.5" r="28.5"></circle>
                <path d="M17,35 C17,35 29.1186613,37.7113857 38,47" id="Path" stroke="#FFFFFF" stroke-width="2.28"></path>
                <polygon id="Path" fill="#FFFFFF" fill-rule="nonzero" points="36 49.5661218 43 52 41.7024922 45"></polygon>
                <path d="M99,43.043866 C99,43.043866 91.3544213,42.008325 84,50" id="Path" stroke="#FFFFFF" stroke-width="2.28"></path>
                <polygon id="Path" fill="#FFFFFF" fill-rule="nonzero" points="82.2578125 47 81 54 88 51.5349183"></polygon>
                <path d="M50,14 C50,14 61.6643357,25.4854694 62,43" id="Path" stroke="#FFFFFF" stroke-width="2.28"></path>
                <polygon id="Path" fill="#FFFFFF" fill-rule="nonzero" points="59 42 62.3103953 49 66 42.255814"></polygon>
                <circle id="Oval" fill="#C1C1C1" fill-rule="nonzero" cx="6" cy="31" r="6"></circle>
                <circle id="Oval" fill="#BFC723" fill-rule="nonzero" opacity="0.4" cx="111" cy="46" r="6"></circle>
                <circle id="Oval" fill="#FFFFFF" fill-rule="nonzero" cx="44" cy="7" r="4"></circle>
                <text id="Batch" fill="#FFFFFF" font-family="FilsonSoft-Bold, Filson Soft" font-size="18" font-weight="bold">
                    <tspan x="29" y="166">Batch</tspan>
                </text>
            </g>
        </g>
    </g>
</svg>