<?xml version="1.0" encoding="utf-8"?>
<!-- Generator: Adobe Illustrator 22.1.0, SVG Export Plug-In . SVG Version: 6.00 Build 0)  -->
<svg version="1.1" id="Layer_1" xmlns="http://www.w3.org/2000/svg" xmlns:xlink="http://www.w3.org/1999/xlink" x="0px" y="0px"
	 viewBox="0 0 638 1192" style="enable-background:new 0 0 638 1192;" xml:space="preserve">
<style type="text/css">
	.st0{fill:#FFFFFF;}
</style>
<title>m_home_bottle</title>
<path class="st0" d="M637.8,1192V605.4c0-4-1.1-7.9-3.2-11.2c-20-32.3-13.2-52.3-4.6-71.5c1.3-2.8,1.9-5.8,1.9-8.9
	c-0.1-27.2-1.4-115.2-21.5-168c-17.6-46-132.9-107.1-163-128c-6.8-4.7-10.8-12.5-10.8-20.7v-28.4c0-4,3.2-7.2,7.2-7.2h11.2
	c4,0,7.2-3.2,7.2-7.2v-11.6c0-4-3.2-7.2-7.2-7.2h-18.4V18c0-10-8.1-18-18-18H307.9h-88.4c-10,0-18,8.1-18,18v110.1
	c0,4-3.2,7.2-7.2,7.2h-11.2c-4,0-7.2,3.2-7.2,7.2v11.6c0,4,3.2,7.2,7.2,7.2h11.2c4,0,7.2,3.2,7.2,7.2V197c0,8.3-4,16-10.8,20.7
	c-30.1,20.9-145.4,82-163,128C7.5,398.5,6.2,486.5,6.1,513.7c0,3.1,0.6,6.1,1.9,8.9c8.6,19.2,15.4,39.2-4.6,71.5
	c-2.1,3.4-3.2,7.3-3.2,11.2V1192H637.8z"/>
</svg>
