<?xml version="1.0" encoding="UTF-8"?>
<svg width="638px" height="1192px" viewBox="0 0 638 1192" version="1.1" xmlns="http://www.w3.org/2000/svg" xmlns:xlink="http://www.w3.org/1999/xlink">
    <title>m_home_bottle</title>
    <defs>
        <rect id="path-1" x="0.5" y="0" width="637" height="1192"></rect>
    </defs>
    <g id="Mobile" stroke="none" stroke-width="1" fill="none" fill-rule="evenodd">
        <g id="saya_home_Mobile" transform="translate(-56.000000, -5860.000000)">
            <g id="m_home_bottle" transform="translate(56.000000, 5860.000000)">
                <mask id="mask-2" fill="white">
                    <use xlink:href="#path-1"></use>
                </mask>
                <g id="Mask"></g>
                <path d="M1193,863.949542 L1193,974.235855 C1192.9344,984.141858 1184.87959,992.134497 1174.97337,992.123345 L1057.57175,992.123345 L1057.57175,1010.52759 C1057.56649,1012.43575 1056.80342,1014.26367 1055.45041,1015.60923 C1054.0974,1016.95478 1052.26529,1017.70773 1050.35712,1017.70246 L1038.71037,1017.70246 C1034.74457,1017.70247 1031.52658,1014.49337 1031.51562,1010.52759 L1031.51562,999.318091 C1031.50467,995.34133 1028.27778,992.12333 1024.301,992.123345 L995.9195,992.123345 C987.651928,992.118148 979.906755,996.165239 975.189875,1002.95521 C954.281375,1032.96645 893.145875,1148.04263 847.0955,1165.5525 C794.327375,1185.76536 706.26125,1187.03736 679.0325,1187.13674 C675.964904,1187.13901 672.931167,1186.49569 670.1285,1185.24861 C650.92925,1176.66262 630.89525,1169.90512 598.5785,1189.83974 C595.196083,1191.91987 591.300079,1193.01433 587.32925,1193 L-296.07475,1193 C-301.077307,1193 -305.925825,1191.26963 -309.7885,1188.09074 C-321.017875,1178.86874 -348.4255,1161.975 -376.966,1186.97774 C-381.291958,1190.79176 -386.949725,1192.74197 -392.707,1192.40361 L-487.90825,1186.56036 C-487.90825,1186.56036 -556,1182.62511 -556,1074.10767 L-556,675.892397 C-556,571.33008 -487.90825,563.439709 -487.90825,563.439709 L-392.707,557.596463 C-386.957963,557.241783 -381.301227,559.170215 -376.966,562.96271 C-348.4255,587.965446 -321.017875,571.071705 -309.7885,561.84971 C-305.917678,558.692271 -301.069968,556.97801 -296.07475,557 L587.369,557 C591.339829,556.985746 595.235833,558.080206 598.61825,560.160336 C630.89525,580.035325 650.92925,573.337454 670.16825,564.751459 C672.96605,563.543965 675.985379,562.934683 679.0325,562.96271 C706.26125,562.96271 794.3075,564.334084 847.0955,584.467448 C893.145875,601.997188 954.281375,717.053499 975.189875,747.064732 C979.941935,753.794431 987.68122,757.779084 995.9195,757.737601 L1024.301,757.737601 C1028.27778,757.737616 1031.50467,754.519616 1031.51562,750.542855 L1031.51562,739.392986 C1031.52658,735.427202 1034.74457,732.2181 1038.71037,732.218115 L1050.35712,732.218115 C1052.26529,732.212837 1054.0974,732.965795 1055.45041,734.311346 C1056.80342,735.656897 1057.56649,737.484819 1057.57175,739.392986 L1057.57175,750.60248 C1057.58271,754.579241 1060.8096,757.797241 1064.78637,757.797226 L1174.97337,757.797226 C1184.87959,757.786075 1192.9344,765.778713 1193,775.684716 L1193,863.949542 Z" fill="#FFFFFF" fill-rule="nonzero" mask="url(#mask-2)" transform="translate(318.500000, 875.000000) rotate(-90.000000) translate(-318.500000, -875.000000) "></path>
            </g>
        </g>
    </g>
</svg>