<svg xmlns="http://www.w3.org/2000/svg" viewBox="0 0 651.56 180.95"><defs><style>.cls-1{fill:#64703f;}</style></defs><title>m_icon1</title><g id="圖層_2" data-name="圖層 2"><path class="cls-1" d="M599.69,108.45a.82.82,0,0,0-.27,0c-1.42.44-3.7-1.52-4-.08s1.38,3.47,2.24,5.2c.53,1.06,1.17.36,1.74,0a8.52,8.52,0,0,1,4.52-1.44,4.28,4.28,0,0,1,4,2.64,4,4,0,0,1-.72,4.71,4.21,4.21,0,0,1-4.58,1.38,9,9,0,0,1-4-2.59c-.35-.36-.69-1-1.28-.61-.27.17-.33.76-.39,1.17-.09.7,0,1.43-.17,2.12-.55,2.49-.06,4,2.94,3.51a4.73,4.73,0,0,1,2.8.79,4.3,4.3,0,0,1,2.39,4.41,4.11,4.11,0,0,1-2.75,3.65,4.41,4.41,0,0,1-4.94-1,8.3,8.3,0,0,1-2.07-4c-.15-.57-.06-1.39-.88-1.44s-.9.75-1.22,1.25a6.17,6.17,0,0,1-.71,1.13c-2.08,2-1.89,3.29.74,4.92,3.34,2.06,3.4,6.17.55,8a4.17,4.17,0,0,1-4.78.08c-2-1.26-2.39-3.18-2.24-5.37.08-1.12,1.21-2.5.31-3.26-1.15-1-2.1.8-3.27,1.05-2.61.56-3,1.95-1.46,4.1a5.14,5.14,0,0,1,.76,3.08,4.2,4.2,0,0,1-2.61,4,4.14,4.14,0,0,1-4.53-.48,4.27,4.27,0,0,1-1.7-4.48,8.91,8.91,0,0,1,1.72-3.28c.52-.76,2-1.18,1.46-2.25s-1.8-.22-2.72-.42c-.43-.1-.89-.1-1.31-.22-2.11-.58-3,.12-2.72,2.36a5.55,5.55,0,0,1-1.14,4,4.46,4.46,0,1,1-7.11-5.4,8.52,8.52,0,0,1,3-2.15c1-.51,3.4-.4,2.7-1.45-1.07-1.6-3.35-2.43-5.2-3.43-.36-.2-.72.65-1,1.1a8.85,8.85,0,0,1-2.58,3,4.44,4.44,0,0,1-5.26.05,4.08,4.08,0,0,1-1.91-4.14,4.45,4.45,0,0,1,3.57-3.87,8.81,8.81,0,0,1,4.72.39c.5.14,1.06.43,1.42-.16.27-.43-.05-.84-.28-1.22s-.39-.61-.55-.92c-.67-1.25-1-3-2.08-3.62s-2.24,1-3.53,1.4c-2.62.75-4.9.13-6.07-1.93a4.07,4.07,0,0,1,.77-5.36c1.9-1.82,4-1.61,6.12-.32a3.09,3.09,0,0,0,.67.44c1.19.34,2.16,2.87,2.88,1.69.93-1.54.55-3.94.49-6,0-.64-1-.46-1.65-.45a7.92,7.92,0,0,1-3.64-.7c-1.83-.87-3-2.3-2.86-4.41a4.52,4.52,0,0,1,8.11-2.4,8.74,8.74,0,0,1,1.75,3.85c.11.51.13,1.13.85,1.16.51,0,.73-.43,1-.82a6.47,6.47,0,0,1,1-1.59c2.16-2.07,1.82-3.42-.79-4.93a4.57,4.57,0,0,1-2.06-6.22A4.16,4.16,0,0,1,567,90.45c2.43.62,3.71,3,3.43,5.9-.1,1.12-1.19,2.52-.32,3.26,1.16,1,2.09-.83,3.26-1.07,2.6-.55,2.95-1.78,1.53-4.07-1.29-2.1-1.37-4.44.64-6.36A4.45,4.45,0,0,1,583,91.72a8.27,8.27,0,0,1-1,2.75c-.59,1.29-2.91,2.38-2.22,3.25,1.11,1.4,3.46.4,5.25.87,1.11.3,1.19-.62,1.27-1.5a15.42,15.42,0,0,1,.64-3.66,4.32,4.32,0,0,1,4.47-3.14,4.1,4.1,0,0,1,4.08,3.26,4.45,4.45,0,0,1-2,5.1,12.58,12.58,0,0,1-3.69,1.53c-.39.12-.94.07-1,.65s.32.78.71,1,.49.23.72.37c1.28.79,2.51,2.16,3.84,2.24s1.53-2.12,2.58-3.06c1.79-1.62,3.68-2.6,6-1.25a4,4,0,0,1,2.13,5C604.07,107.62,602.19,108.55,599.69,108.45Zm-3.51,6.88-.32-.75c-.3-.83-.6-1.65-.92-2.47-.45-1.17-1-1.51-2.11-.53a2.83,2.83,0,0,1-4.6-3.06c.55-1.62,1.88-2,3.42-1.83l1.32.1.31.21-.24-.29c-2.78-2.86-2.75-2.83-5.36-.38a2.59,2.59,0,0,1-4,0,2.62,2.62,0,0,1,.22-4.18,11,11,0,0,1,2.46-1.27c-.45-.69-1-.4-1.51-.47-2.09-.3-4-.63-3.65,2.71.16,1.33-1.17,2.09-2.59,2.13a2.58,2.58,0,0,1-2.69-1.76c-.49-1.29.05-2.43.63-3.55.09-.13.3-.33.26-.38-.18-.31-.41-.19-.62,0-1.74.67-4.74.41-2.16,3.79,1,1.35,0,3-1.6,3.65s-3-.08-3.67-1.68a17.22,17.22,0,0,1-.6-3c-.94,1.42-2,2.42-2.25,3.59-.21.95,1.41.7,2,1.31,1.38,1.35,1.58,2.85.3,4.24s-2.81,1.21-4.23-.06c-.76-.69-.72-1.8-1.43-2.8-.16.92-.29,1.53-.37,2.14-.26,1.77-1.06,3.67,2.3,3.12,1.8-.29,2.92,1.39,2.6,3.24s-1.69,2.63-3.59,2.34c-.83-.13-1.4-1.21-2.42-.66.89,1.94,1.08,4.76,4.48,2.23,1.25-.92,3,.33,3.35,2.06a2.61,2.61,0,0,1-2.4,3.45,14.85,14.85,0,0,1-3.16-.24,12.62,12.62,0,0,0,1.1.93c1.71,1,3.31,3.59,5-.27.67-1.5,2.67-1.3,3.92,0a2.63,2.63,0,0,1-.23,4.2,11.62,11.62,0,0,1-2.46,1.26c.44.71,1,.41,1.52.48,2.08.31,4.11.71,3.62-2.7-.17-1.21,1-2,2.33-2.13a2.6,2.6,0,0,1,3,1.73,3.4,3.4,0,0,1-.95,3.63c3.7-.13,3.92-.48,2.81-3.38a2.71,2.71,0,0,1,1.58-3.75,2.57,2.57,0,0,1,3.58,1.36,19.7,19.7,0,0,1,.89,3.12c.83-1.92,4.34-3.16.14-4.77-1.12-.43-1.28-1.65-1.11-2.78a2.74,2.74,0,0,1,2.27-2.34,2.59,2.59,0,0,1,2.81,1.12,17.08,17.08,0,0,1,1.31,2.76c.15-1,.24-1.67.35-2.37.28-1.7,1.09-3.5-2.16-3-1.75.29-3-1.26-2.73-3.15a2.7,2.7,0,0,1,3.48-2.43,8.82,8.82,0,0,1,2.13,1.06c.12.29.25.55.65.41l.15.26s0-.12,0-.14A1.08,1.08,0,0,0,596.18,115.33Zm-15,26.86c.07-1.77-1.33-4.63-2.09-4.72-1-.1-3.14,2.79-3.15,4.23a2.49,2.49,0,0,0,2.57,2.75A2.43,2.43,0,0,0,581.16,142.19Zm17.5-16.08c-.72.24-1.84-.19-1.81,1.29,0,1.95,2,4.47,3.58,4.43s2.77-1,2.65-2.68C602.88,126.5,600.62,126.51,598.66,126.11Zm-29.73,10.71c-.29-.72.53-1.92-1-2-2-.07-4.7,1.88-4.67,3.55a2.4,2.4,0,0,0,2.67,2.62C568.55,140.88,568.58,138.7,568.93,136.82Zm9.5-48.15c-1.7.41-2.75,1.41-2.47,3.18.25,1.52.58,3.25,2.24,3.87.82.32,3-3,3-4.37A2.74,2.74,0,0,0,578.43,88.67Zm-17.75,39c-.61-1-1.87-1-3-1.11-1.87-.13-3.48.37-3.66,2.56a2.42,2.42,0,0,0,2.37,2.71C557.88,132,560.57,129.57,560.68,127.67ZM588.18,96c.25.88-.58,2.31,1.32,2.26s4.47-1.94,4.37-3.53a2.37,2.37,0,0,0-2.51-2.52C588.85,92.24,588.5,94.13,588.18,96Zm11.58,10.72c1.89-.12,3.31-.79,3.32-2.8a2.39,2.39,0,0,0-2.54-2.52c-1.54-.08-4.54,2.68-4.09,4C597,106.85,598.64,106.45,599.76,106.74Zm-31.25-11c0-2.1-.59-3.54-2.81-3.51a2.39,2.39,0,0,0-2.49,2.54c-.08,1.42,2.42,4.1,3.81,3.92C568.88,98.44,568.19,96.69,568.51,95.74Zm-10.39,11.17c.69-.28,2,.57,2.09-1.08.07-1.9-1.91-4.42-3.52-4.41s-2.78,1-2.68,2.61C554.16,106.46,556.08,106.79,558.12,106.91Zm30.46,30.61c0,2.33.95,3.55,2.62,3.51a2.51,2.51,0,0,0,2.63-2.74c0-1.36-2.44-3.9-3.76-3.72C588.19,134.82,588.9,136.58,588.58,137.52Zm14.89-23.44c-1.49.25-3.76.54-3.71,2.13s2,2.8,4,2.91a2.31,2.31,0,0,0,2.69-2.58C606.38,114.76,605.22,114.09,603.47,114.08Zm-50.63,5.09c2.16-.06,4.68-1.36,4.72-2.1.06-1-2.89-3-4.34-3a2.35,2.35,0,0,0-2.56,2.68A2.23,2.23,0,0,0,552.84,119.17Zm33.95,10.08c-.07-.78-.39-1.39-1.26-1.37a.94.94,0,0,0-.91,1.09A1.51,1.51,0,0,0,586,130.4C586.66,130.46,586.63,129.74,586.79,129.25Zm-15.28-1.38a1.49,1.49,0,0,0-1.32,1.39c-.13.66.21,1,.87.93a1.36,1.36,0,0,0,1.4-1.27A1,1,0,0,0,571.51,127.87Zm-.07-22.62c.59-.06,1.08-.32,1-1a1.46,1.46,0,0,0-1.34-1.43c-.68,0-.76.68-.79,1.18A1.08,1.08,0,0,0,571.44,105.25Zm15.49-1.41c0-.72-.5-.88-1.08-.76a1.29,1.29,0,0,0-1.21,1.18c0,.63.39,1,1,1C586.51,105.22,586.78,104.57,586.93,103.84Zm-8.33,28.42a1.52,1.52,0,0,0,.93-1.67.93.93,0,0,0-1.2-.75c-.73.17-.92.75-.76,1.43C577.69,131.78,577.83,132.31,578.6,132.26Zm12.41-9.5c-.6,0-1.1.23-1.12.84,0,.85.59,1.21,1.36,1.29.45.06,1,0,.93-.61A1.44,1.44,0,0,0,591,122.76Zm-23.76.91a1,1,0,0,0-.93-.89,1.32,1.32,0,0,0-1.52,1.13c-.09.66.54.82,1.05.88C566.54,124.86,567,124.52,567.25,123.67Zm0-14a1.31,1.31,0,0,0-1.37-1.29c-.45,0-1,0-.94.6a1.38,1.38,0,0,0,1.16,1.51A1,1,0,0,0,567.22,109.65Zm24-1.21c-.72,0-1.23.27-1.34,1a.85.85,0,0,0,.88,1,1.31,1.31,0,0,0,1.5-1.15C592.38,108.66,591.74,108.54,591.24,108.44Zm-11.7-6.53c-.2-.27-.2-1-.87-.91a1.24,1.24,0,0,0-1.1,1.5.91.91,0,0,0,1,.9C579.35,103.31,579.59,102.77,579.54,101.91Zm14.74,14.72a1.48,1.48,0,0,0-1.61-1,.93.93,0,0,0-.77,1.16c.15.78.77.85,1.41.74C593.79,117.43,594.39,117.41,594.28,116.63Zm-31.51-.1a1.44,1.44,0,0,0,1.38,1c.74,0,1.17-.38,1-1.12a1,1,0,0,0-1.36-.79C563.34,115.76,562.75,115.82,562.77,116.53Zm25.7,14.36c-.05.05-.16.11-.16.17s.09.13.14.2.16-.12.16-.18S588.52,131,588.47,130.89Z"/><path class="cls-1" d="M420.86,61.61a19.86,19.86,0,0,1-.56,5c-1.42,6-5.66,9.47-11.83,9.54s-10.28-3.1-11.89-9.06a20,20,0,0,1-.09-10.29c1.62-6.37,6.54-9.8,13.35-9.35,6.11.39,10.16,4.65,10.9,11.46C420.83,59.83,420.82,60.72,420.86,61.61Zm-5.9.07a12.28,12.28,0,0,0-.72-5.34c-.93-2.49-2.52-4.24-5.47-4.25s-5,1.18-6,3.9a16,16,0,0,0,.33,12.18,5.87,5.87,0,0,0,10.59.13A12.88,12.88,0,0,0,415,61.68Z"/><path class="cls-1" d="M348.33,61.65a44,44,0,0,1-.56,4.75c-1.47,6.46-5.9,9.91-12.43,9.78-6.16-.12-10.54-4-11.66-10.37a22.52,22.52,0,0,1,0-8C324.92,51,330,47.11,337,47.47c6.33.31,10.62,4.85,11.1,11.77.06.79,0,1.6,0,2.4Zm-6,.11a16.71,16.71,0,0,0-.58-5c-1-3.19-2.79-4.62-5.72-4.64s-5.15,1.44-6.1,4.59a16.7,16.7,0,0,0,.33,11,5.6,5.6,0,0,0,5.52,3.88,5.76,5.76,0,0,0,5.58-3.8A13.93,13.93,0,0,0,342.35,61.76Z"/><path class="cls-1" d="M380.24,59.68l7.06-9.28A5.39,5.39,0,0,1,390.41,48c1.42-.28,3.09-.43,3.94.87.68,1.06-.78,1.81-1.36,2.62-2,2.75-4,5.47-6.09,8.11a2,2,0,0,0,0,3c2.71,3.53,5.26,7.18,8,10.7,1.18,1.53.77,2.17-.94,2.41a5.56,5.56,0,0,1-5.69-2.1c-2.5-3.3-5-6.56-8-10.32,0,3.53-.15,6.52.05,9.48.16,2.27-.81,2.65-2.77,2.6-1.81,0-2.93-.1-2.88-2.51.17-7.38.06-14.77.07-22.16,0-1.37-.43-3,1.94-2.85,2,.13,3.55.66,3.57,3C380.27,53.62,380.24,56.35,380.24,59.68Z"/><path class="cls-1" d="M363.4,115.54c0,4.18-.11,8.36.05,12.53.09,2.22-1.1,2.13-2.65,2.15s-2.46-.14-2.42-2.11c.11-6.5,0-13,.08-19.51,0-1-.77-2.53.87-3s3.38-.25,4.45,1.5c1.36,2.2,2.74,4.38,4.1,6.57a53.47,53.47,0,0,0,5.38,7.61c0-4.32,0-8.64,0-13,0-1.19-.65-2.9,1.62-2.87,2,0,3.22.85,3.22,3,0,3.38,0,6.77,0,10.15,0,2.85.08,5.7,0,8.55,0,1,.83,2.6-.91,2.88s-3.25.47-4.41-1.47c-2.38-4-5-7.78-7.56-11.65-.37-.57-.82-1.08-1.23-1.62Z"/><path class="cls-1" d="M494.3,66.51c-1.61,2.72-2.94,5-4.31,7.3-.87,1.44-4.72,2.43-6.14,1.6-1.06-.62-.19-1.25.09-1.75,2-3.39,3.92-6.78,6-10.08A3,3,0,0,0,490,60c-1.86-3.14-3.51-6.39-5.37-9.53-.85-1.44-.47-2.07,1-2.37,2.32-.48,4.2,0,5.33,2.33.79,1.68,1.8,3.27,2.65,4.93.67,1.33,1.25,1.65,2.07.1s1.77-3.08,2.66-4.62a5.88,5.88,0,0,1,2.06-2.4,3.84,3.84,0,0,1,4.3,0c1.31,1-.3,2-.77,2.9-1.57,2.89-3.27,5.71-5,8.48a2.85,2.85,0,0,0,0,3.42c2,3.35,3.91,6.78,5.93,10.13,1.07,1.76.47,2.3-1.36,2.47a4.71,4.71,0,0,1-4.93-2.41C497.23,71.2,495.85,69,494.3,66.51Z"/><path class="cls-1" d="M449.84,117.94c0-3.39.05-6.77,0-10.15,0-1.41.32-2.16,1.9-2.15s3.37-.27,5.06-.26c9.67,0,14.53,6.15,12.48,15.65-1.19,5.51-5,8.84-10.66,9.12-2.3.11-4.62,0-6.93.06-1.42,0-1.87-.49-1.84-1.86C449.88,124.88,449.84,121.41,449.84,117.94Zm5.19-.07c0,2.22,0,4.45,0,6.68,0,.84,0,1.48,1.18,1.68a6.47,6.47,0,0,0,7.85-5.45,22.52,22.52,0,0,0,.13-5.06c-.33-4.35-2.93-6.49-7.3-6.36-1.33,0-1.94.38-1.88,1.82C455.1,113.41,455,115.64,455,117.87Z"/><path class="cls-1" d="M383,117.86c0-3.38.06-6.77,0-10.15,0-1.49.48-2.08,2-2.08,1.68,0,3.37-.26,5.06-.25,9.38.05,14.07,5.67,12.53,14.93-1,6.16-5.12,9.78-11.39,9.83-2.63,0-6,1.15-7.7-.53-1.5-1.47-.33-4.74-.43-7.21C382.93,120.89,383,119.37,383,117.86Zm14.46,0c.05-6-2.33-8.67-7.38-8.51-1.31,0-1.94.32-1.91,1.79.07,4.45.06,8.91,0,13.36,0,1.28.45,1.66,1.7,1.72C394.91,126.46,397.38,123.79,397.44,117.88Z"/><path class="cls-1" d="M353,61.53c0-3.74.1-7.49,0-11.22-.07-1.93.63-2.42,2.45-2.37,4.18.11,8.37,0,12.56.05.95,0,2.36-.52,2.42,1.22,0,1.56-.45,2.93-2.27,3a55.15,55.15,0,0,1-6.68.06c-2.09-.14-3,.54-2.69,2.69a5.36,5.36,0,0,1,0,1.6c-.27,1.91.35,2.85,2.45,2.58,1.23-.16,2.5,0,3.74,0,1.7-.14,2.54.22,2.56,2.26,0,2.2-1.13,2.22-2.68,2.13-.8-.05-1.6,0-2.4,0-4.16.05-3.65-.5-3.64,3.74s-.58,3.7,3.88,3.76c1.78,0,3.56,0,5.34,0a2.86,2.86,0,0,1,3,2.55c.18,1.15-.15,1.91-1.5,1.91h-15c-1.4,0-1.51-.89-1.51-2C353,69.54,353,65.53,353,61.53Z"/><path class="cls-1" d="M463.64,61.47c0-3.74.07-7.48,0-11.22-.05-1.7.41-2.36,2.22-2.31,4.27.12,8.55,0,12.82.05,1,0,2.37-.37,2.36,1.31s-.48,2.9-2.36,3c-2.22.08-4.45.18-6.67,0-1.93-.12-2.68.39-2.59,2.48.22,5.23-.61,4.25,4.41,4.36a15.13,15.13,0,0,0,2.13,0c1.87-.26,2.17.68,2.2,2.32s-.61,2.25-2.19,2a11.8,11.8,0,0,0-1.33,0c-5.52,0-6,.68-5.2,6.23.19,1.33,1,1.27,1.86,1.27,2.31,0,4.63,0,6.94,0a3.15,3.15,0,0,1,3,1.44c1,1.76.47,2.86-1.57,2.87-4.63,0-9.26,0-13.89,0-1.66,0-2.15-.55-2.11-2.16C463.7,69.31,463.64,65.39,463.64,61.47Z"/><path class="cls-1" d="M526.51,76.28a14.45,14.45,0,1,1,0-28.89,14.45,14.45,0,1,1,0,28.89Zm0-3.59a10.86,10.86,0,1,0-11-10.78A10.74,10.74,0,0,0,526.46,72.69Z"/><path class="cls-1" d="M428.71,117.92c0-3.38.08-6.76,0-10.14-.05-1.63.53-2.13,2.12-2.21a37.84,37.84,0,0,1,8.24.13c3,.51,5.57,1.69,6.27,4.94s.19,6.31-2.83,8.27c-1.35.87-1.3,1.49-.51,2.68,1.46,2.23,2.73,4.58,4.14,6.85.76,1.21.45,1.74-.92,1.93-2.11.28-3.88-.15-5-2.12s-2.38-4-3.55-6c-.48-.82-1-1.52-2.11-1.21s-.69,1.31-.72,2c0,1.42,0,2.84,0,4.27,0,2.53-1.95,3.75-4.31,2.73-1-.44-.71-1.33-.71-2.06C428.69,124.68,428.71,121.3,428.71,117.92Zm5-4.46c.27,1.14-.72,2.93.51,3.78s2.76.34,4.05-.39a4.6,4.6,0,0,0,1.6-5.64c-1-2.18-3-2.49-4.94-2.16-2.28.38-.82,2.42-1.22,3.67A3.5,3.5,0,0,0,433.73,113.46Z"/><path class="cls-1" d="M539.57,118a25.48,25.48,0,0,1-1,6.34c-1.31,4.3-4.1,6.39-8.43,6.35s-7.14-2.14-8.3-6.48a21.82,21.82,0,0,1,.15-12.38c1.4-4.43,4.64-6.5,9.37-6.21,3.93.25,6.6,2.72,7.5,7.1C539.23,114.49,539.34,116.27,539.57,118Zm-5.25.16a17.83,17.83,0,0,0-.72-6c-.57-1.54-1.54-2.63-3.29-2.61a3.36,3.36,0,0,0-3.3,2.63A20.54,20.54,0,0,0,527,124a3.33,3.33,0,0,0,3.48,2.71c1.8,0,2.67-1.16,3.21-2.69A18,18,0,0,0,534.32,118.19Z"/><path class="cls-1" d="M500.91,118.33a19,19,0,0,1,.77-6.32c1.46-4.49,4.54-6.6,9.27-6.36,4.07.2,6.73,2.65,7.67,7.21a22.69,22.69,0,0,1-.5,12.12c-1.33,3.9-4.18,5.81-8.33,5.74a8,8,0,0,1-8.12-6.06A20.17,20.17,0,0,1,500.91,118.33Zm13.14-.27a17.59,17.59,0,0,0-.78-6,3.34,3.34,0,0,0-3.11-2.48,3.15,3.15,0,0,0-3.25,2.27,19.52,19.52,0,0,0-.06,12.52,3.15,3.15,0,0,0,3.2,2.33c1.79,0,2.72-1,3.29-2.57A18.7,18.7,0,0,0,514.05,118.06Z"/><path class="cls-1" d="M423.33,130c-2.35.66-3.21-.49-3.48-2.18-.48-3-2.17-4.21-5.17-3.65a4.25,4.25,0,0,1-1.59,0c-2.4-.42-3.74.61-4,3-.37,3-2.29,3.34-4.75,3.06-1-.11-1.22-.46-.89-1.36q3.9-10.94,7.76-21.89c.51-1.45,1.76-1.37,2.87-1.44,1.58-.1,3.15.23,3.77,1.91,2.6,7.1,5.23,14.2,7.58,21.38C426.19,131.23,423.74,129.6,423.33,130Zm-8.69-18.92h-.57c-.89,2.73-1.77,5.45-2.67,8.17-.34,1,.2,1.24,1.05,1.24,1.24,0,2.48,0,3.72,0,.83,0,1.39-.14,1.05-1.21C416.33,116.58,415.5,113.84,414.64,111.1Z"/><path class="cls-1" d="M353.53,130c-2.47.64-3.44-.44-3.73-2.27-.47-2.91-2.07-4.07-5-3.56a7.73,7.73,0,0,1-2.4,0c-1.85-.28-2.71.53-3.23,2.27-.38,1.28-.24,3.12-1.82,3.6-1.22.37-2.9.62-3.87-.17-.81-.65.24-1.94.57-2.89,2.23-6.39,4.56-12.74,6.72-19.15a3,3,0,0,1,3.07-2.34c1.73-.07,3.33.22,4,2,2.57,7,5.11,14,7.53,21.13C356.24,131.16,353.93,129.72,353.53,130Zm-9.16-19.85c-.84,2.54-1.44,4.3-2,6.07-1.53,4.69-1.53,4.65,3.56,4.3,1.16-.07,1.63-.26,1.2-1.54C346.22,116.33,345.44,113.62,344.37,110.17Z"/><path class="cls-1" d="M305,130.77a12.74,12.74,0,0,1-5.7-1.15c-1.56-.69-2.1-1.72-1.32-3.41.86-1.87,1.89-1.31,3.12-.48a7.23,7.23,0,0,0,4.87,1c1.63-.17,2.95-.8,3.25-2.6a3.13,3.13,0,0,0-2-3.64c-1.63-.7-3.33-1.25-5-1.93-3.13-1.31-4.41-3.19-4.38-6.3a6.45,6.45,0,0,1,4.45-6.31,12.63,12.63,0,0,1,10.11.46,2.2,2.2,0,0,1,1.31,3.23c-.81,1.84-1.84,1-3,.39a7.53,7.53,0,0,0-5.17-.71,2.62,2.62,0,0,0-2.29,2,2.48,2.48,0,0,0,1.38,2.9,35.73,35.73,0,0,0,3.91,1.69c4.91,1.91,6.53,4.24,5.86,8.48-.59,3.72-3.78,6.17-8.36,6.4C305.68,130.78,305.33,130.77,305,130.77Z"/><path class="cls-1" d="M446.42,64.26c0-3.21-.06-6.42,0-9.62,0-1.5-.46-2.1-2-2a35.78,35.78,0,0,1-4.27,0c-1,0-2.34.52-2.52-1.14a2.8,2.8,0,0,1,1.85-3.2,7.17,7.17,0,0,1,2.36-.32q8.14,0,16.29,0c1,0,2.33-.49,2.5,1.17a2.82,2.82,0,0,1-1.82,3.21,8.46,8.46,0,0,1-4,.26c-2.05-.17-2.8.45-2.74,2.64.15,5.87-.07,11.75.11,17.62.08,2.49-1.06,2.63-3,2.7-2.18.07-3-.51-2.86-2.79C446.57,70,446.42,67.1,446.42,64.26Z"/><path class="cls-1" d="M323.75,120c0-2.67-.06-5.35,0-8,.05-1.56-.39-2.34-2.09-2.18a16.29,16.29,0,0,1-3.2,0c-.93-.08-2.35.63-2.47-1.14a2.46,2.46,0,0,1,2.42-2.92c1.77-.13,3.56-.07,5.34-.07,3.47,0,7,0,10.42,0,.92,0,2.37-.61,2.41,1.18a2.48,2.48,0,0,1-2.25,2.83,11.51,11.51,0,0,1-2.93.1c-2-.23-2.63.44-2.57,2.5.15,5.25-.06,10.51.1,15.76.06,2.2-1.06,2.16-2.63,2.18s-2.74-.09-2.61-2.22C323.88,125.34,323.75,122.66,323.75,120Z"/><path class="cls-1" d="M494.17,118.21c0,3.38-.1,6.77,0,10.14.09,2.25-1.38,1.78-2.65,1.84s-2.43.12-2.38-1.84c.12-4.36,0-8.72,0-13.08,0-3.42-.07-3.54-3-2-1.88,1-2.58.11-3.15-1.41a1.69,1.69,0,0,1,.81-2.28,78.16,78.16,0,0,1,7.17-3.54c2.14-.85,3.14,0,3.16,2.28C494.19,111.62,494.17,114.92,494.17,118.21Z"/><path class="cls-1" d="M345.9,90.41c0,3.37-1.89,5.55-4.8,5.52s-4.62-2.16-4.66-5.4S338.36,85,341.29,85C344.06,85,345.89,87.15,345.9,90.41Zm-7.08,0c.11,1.65.09,3.57,2.47,3.56,2.2,0,2.35-1.9,2.36-3.45s-.08-3.62-2.47-3.59C339,87,338.91,88.75,338.82,90.43Z"/><path class="cls-1" d="M451.42,90.92c0-1.42,0-2.83,0-4.25,0-.64.06-1.3.94-1.3s1.1.53,1.1,1.22c0,2.58,0,5.16,0,7.75,0,.53,0,1.09-.76,1.18a1.51,1.51,0,0,1-1.58-.74,24.43,24.43,0,0,0-3.71-4.73c0,1.27,0,2.55,0,3.82,0,.8.07,1.71-1.16,1.65-1.07,0-.91-.9-.92-1.58q0-3.48,0-6.94c0-.58-.22-1.33.59-1.59a1.48,1.48,0,0,1,1.8.79q1.53,2.44,3,4.91Z"/><path class="cls-1" d="M406,90.9c0-1.32,0-2.64,0-4,0-.69-.12-1.55.94-1.56s1.12.72,1.12,1.48q0,3.6,0,7.2c0,.59.14,1.32-.76,1.46a1.46,1.46,0,0,1-1.55-.78A24.56,24.56,0,0,0,402,90v4.09c0,.77-.11,1.45-1.14,1.4-.87,0-.94-.65-.94-1.3,0-2.49,0-5,0-7.46,0-.61-.08-1.31.81-1.42a1.53,1.53,0,0,1,1.56.81l3.09,4.89Z"/><path class="cls-1" d="M355.72,90.89c0-1.42,0-2.83,0-4.25,0-.64.08-1.29,1-1.27s1.08.56,1.09,1.24q0,3.87,0,7.74c0,.53-.05,1.08-.78,1.17a1.5,1.5,0,0,1-1.55-.79,23.43,23.43,0,0,0-3.73-4.68c0,1.27,0,2.55,0,3.83,0,.8.08,1.71-1.15,1.64-1.08,0-.92-.9-.92-1.58q0-3.47,0-6.94c0-.57-.24-1.33.58-1.59s1.49.26,1.95,1l2.93,4.66Z"/><path class="cls-1" d="M431.75,61.81c1.61,0,3.21,0,4.81,0,1.78.06,2.45,1.09,2.45,2.81,0,2-1.39,1.46-2.44,1.48-2.67,0-5.34,0-8,0-1.33,0-2.55-.3-2.89-1.8s-.31-2.71,1.81-2.54c1.42.11,2.85,0,4.27,0Z"/><path class="cls-1" d="M380.24,95.57c-1.76.38-2.5-.41-2.33-2.43a31.4,31.4,0,0,0,0-5.57c-.19-2,.79-2.42,2.46-2.44,3.75,0,5.68,1.63,5.73,5.05C386.13,93.86,384.35,95.57,380.24,95.57Zm-.41-5.07c1.19.84-1.19,3.31,1.62,3.32,2,0,2.46-1.7,2.46-3.45s-.52-3.43-2.55-3.35C378.88,87.11,380.72,89.29,379.83,90.5Z"/><path class="cls-1" d="M534.36,96a10.45,10.45,0,0,1-1.41-.23c-.75-.22-1.77-.42-1.54-1.46.27-1.27,1.16-.58,1.9-.38.94.25,2.11.58,2.56-.6.54-1.44-.75-1.78-1.73-2.14-2-.73-3.29-1.91-2.46-4.21.61-1.72,3.3-2.41,5.35-1.52.59.25,1.25.5,1.05,1.29s-.83.6-1.48.41c-.91-.27-2.17-.71-2.55.49-.45,1.44,1.07,1.61,2,2,1.66.7,2.73,1.74,2.31,3.66S536.37,95.85,534.36,96Z"/><path class="cls-1" d="M483.43,95.27a13.24,13.24,0,0,1,1.05-1.82c1.58-1.94,1.93-3.84.16-5.92-.41-.48-1.32-1.38-.34-2s1.75,0,2.13.93c.95,2.32,1.76,1.54,2.6-.05.41-.77,1.09-1.4,1.93-.94s.17,1.31-.2,1.76c-1.79,2.17-1.76,4.23,0,6.41.41.5,1.32,1.37.29,2a1.44,1.44,0,0,1-2-.85c-1.11-2.31-2-2.24-3.08.06C485.53,95.84,484.57,95.68,483.43,95.27Z"/><path class="cls-1" d="M477.11,85.32a7.36,7.36,0,0,1,1.27,0c.7.14,1.89-.48,1.95.68s-1.08.88-1.85,1-2.14-.48-2.19,1.14c0,1.38,1,1.18,1.88,1.25.66.06,1.31.2,1.24,1s-.84.78-1.44.77c-1,0-1.74.1-1.73,1.39,0,1.54,1.07,1.33,2,1.36a10.31,10.31,0,0,1,1.58.12.83.83,0,0,1,.71,1c-.05.48-.46.53-.79.53-1.59,0-3.19,0-4.79,0-1,0-1.08-.73-1.08-1.48,0-2.4,0-4.8,0-7.19C474,84.13,476.19,85.86,477.11,85.32Z"/><path class="cls-1" d="M411.81,90.63c0-4.11,3.21-6.7,6.6-5.27.75.31,1.63.68,1.3,1.69-.39,1.2-1.09.3-1.68.09-1.18-.4-2.39-.45-3.14.67a4.76,4.76,0,0,0-.17,5.07c.62,1.2,1.83,1.28,3,1,.68-.15,1.6-1.08,1.91.27.22,1-.77,1.26-1.53,1.52C414.81,96.8,411.84,94.44,411.81,90.63Z"/><path class="cls-1" d="M325.61,90.5c0-4.11,3.26-6.58,6.66-5.08.66.29,1.47.6,1.22,1.48-.3,1.08-1.08.53-1.72.28-1.3-.49-2.52-.4-3.31.85a4.36,4.36,0,0,0,0,4.8c.76,1.26,2,1.39,3.29,1,.64-.2,1.4-.83,1.73.26.27.89-.53,1.2-1.18,1.49C328.88,97.07,325.59,94.56,325.61,90.5Z"/><path class="cls-1" d="M423.52,90.2v-.53c0-4.67.44-5,5.19-4.35.51.08,1.17,0,1.15.75s-.56.85-1.13.88-1.07,0-1.61,0c-.77,0-1.42.11-1.41,1.13s.51,1.2,1.34,1.27,1.86-.29,1.78,1-1.2.79-1.91.83c-.91.06-1.22.47-1.24,1.35,0,1,.41,1.37,1.42,1.44s3-.53,2.92.86c-.11,1.58-2,.66-3.14.7C423.53,95.66,423.52,95.57,423.52,90.2Z"/><path class="cls-1" d="M389.81,90.34v-.53c0-4.7.72-5.31,5.32-4.48.42.07.95,0,1,.6s-.4.92-1,1a1.14,1.14,0,0,0-.26,0c-1,.33-2.6-.8-2.84,1-.26,2,1.53,1.16,2.47,1.48a.83.83,0,0,1,.61,1c-.12.69-.7.71-1.24.71-1,0-2-.07-1.94,1.46s1.16,1.24,2.08,1.3c.53,0,1.07,0,1.59.1a.89.89,0,0,1,.8.91c0,.61-.55.58-1,.63-.09,0-.18,0-.26,0C389.81,96.16,389.81,96.16,389.81,90.34Z"/><path class="cls-1" d="M525.37,95.57c-4,0-3.46.41-3.51-3.62V89.81c0-4.7.72-5.31,5.31-4.48.42.07,1,0,1,.6s-.39.93-1,1c-.35,0-.71,0-1.07,0-.87.1-2.11-.42-2.11,1.23,0,1.32.93,1.29,1.85,1.32.61,0,1.35,0,1.29.91,0,.7-.67.73-1.21.74-1,0-2-.12-2,1.42,0,1.82,1.37,1.19,2.31,1.33h.27c.78,0,1.86-.1,1.83,1s-1.09.54-1.72.64A8.43,8.43,0,0,1,525.37,95.57Z"/><path class="cls-1" d="M466.91,85.18a12.2,12.2,0,0,1,1.6,0c.79.11,2-.49,2.18.78.13,1.09-1,1-1.78,1-1.18,0-1.2.8-1.2,1.64,0,1.78,0,3.56,0,5.34,0,.88-.11,1.62-1.27,1.56s-1.05-.78-1.05-1.51c0-1.42-.06-2.85,0-4.27.07-1.64.08-3.12-2.26-2.8-.44.06-.92-.14-.81-.75a1,1,0,0,1,.87-.89c1.24-.12,2.48-.15,3.72-.22Z"/><path class="cls-1" d="M361.94,90.37v-.53c0-5,0-5,5-4.52.57.06,1.43-.17,1.35.8-.06.78-.79.83-1.44.84l-1.6,0c-.75,0-1.14.32-1.13,1.12s.41,1,1.15,1.13,2.06-.42,2,1c-.06,1.17-1.2.76-1.92.83-1.95.2-1.05,1.7-1.24,2.68-.14.73.19,1.71-1,1.75S362,94.61,362,93.84C361.92,92.69,361.94,91.53,361.94,90.37Z"/><path class="cls-1" d="M512,90.27c0-1.16,0-2.31,0-3.47,0-.71,0-1.52,1-1.46a1.3,1.3,0,0,1,1.23,1.46,40.1,40.1,0,0,1,0,4.52c-.17,1.9.33,2.91,2.44,2.59.72-.11,1.63,0,1.64.92,0,1.08-1,.7-1.65.73C512,95.82,512,95.81,512,90.27Z"/><path class="cls-1" d="M498.69,85.32a6.46,6.46,0,0,1,1.32,0c.87.18,2.28-.6,2.49.66s-1.18.92-2,1.06c-1.14.2-1,1.08-1,1.85,0,1.77,0,3.54,0,5.32,0,.64-.06,1.26-.93,1.31s-1.22-.48-1.22-1.31c0-1.6-.05-3.19,0-4.79s0-2.72-2-2.44c-.39.05-1,.05-1-.53a.91.91,0,0,1,.93-1.06c1.14-.08,2.3,0,3.45,0Z"/><path class="cls-1" d="M441.41,90.72v3.47c0,.79-.18,1.4-1.18,1.37s-1.12-.66-1.12-1.44c0-2.4,0-4.8,0-7.2,0-.69-.12-1.55.95-1.56s1.31.76,1.33,1.63C441.43,88.23,441.41,89.48,441.41,90.72Z"/><path class="cls-1" d="M508,90.62c0,1.24,0,2.49,0,3.73,0,.72-.24,1.19-1.07,1.18s-1.05-.51-1.05-1.21q0-3.87,0-7.74c0-.66.12-1.27,1-1.21a1.11,1.11,0,0,1,1.1,1.25c0,1.33,0,2.66,0,4Z"/><path class="cls-1" d="M371.67,90.45c0-1.24,0-2.49,0-3.73,0-.63,0-1.32.88-1.35a1.07,1.07,0,0,1,1.22,1.12c0,2.66,0,5.33,0,8a.9.9,0,0,1-.93,1c-.77,0-1.18-.3-1.18-1.08,0-1.33,0-2.66,0-4Z"/><path class="cls-1" d="M579.11,114c-.3-1.63.3-2.22,2-2.27,2.23-.07,2,1.44,2.22,2.82.24,1.67-.88,1.56-2,1.63C579.67,116.26,578.69,115.82,579.11,114Z"/><path class="cls-1" d="M570.32,116c-.39-.15-1.92.63-1.63-1.08.25-1.46.24-3.39,2.61-3.21.79.07,2.07-.3,1.65,1.22C572.59,114.25,573.49,116.56,570.32,116Z"/><path class="cls-1" d="M586.6,116.08c-3.05.41-2.17-1.9-2.49-3.17-.36-1.46.94-1.11,1.73-1.15,2.36-.13,2.33,1.84,2.54,3.27C588.63,116.69,587.09,115.88,586.6,116.08Z"/><path class="cls-1" d="M575.91,117.09c1.7-.34,2.19.45,2.17,2.19s-.49,2.1-2.11,2.13c-2.23,0-2-1.43-2.19-2.81C573.58,116.89,574.74,117.05,575.91,117.09Z"/><path class="cls-1" d="M579.11,119.27c-.38-1.76.4-2.4,2.14-2.22,1,.11,2.29-.22,2,1.52-.19,1.34.08,2.9-2.17,2.83C579.56,121.36,578.76,121,579.11,119.27Z"/><path class="cls-1" d="M578,113.84c.46,2.07-.69,2.28-2.23,2.21-1.13,0-2.15,0-1.94-1.63.19-1.42.12-2.82,2.28-2.71C577.68,111.79,578.38,112.31,578,113.84Z"/><path class="cls-1" d="M587,117.21c.21.06,1.7-.62,1.36,1.11-.27,1.37-.23,3.23-2.49,3-.77-.07-2.1.38-1.75-1.14C584.44,118.91,583.6,116.58,587,117.21Z"/><path class="cls-1" d="M570.56,117.09c2.86-.55,2.07,1.74,2.38,3.06.36,1.54-.92,1.12-1.7,1.2-2.26.24-2.24-1.6-2.54-3C568.33,116.65,569.77,117.23,570.56,117.09Z"/><path class="cls-1" d="M578,124.71c-.2.49.52,1.79-.72,1.69-1.68-.14-2-1.81-2.38-3.12-.29-1.12.82-.8,1.44-.88C578.1,122.17,578.11,123.32,578,124.71Z"/><path class="cls-1" d="M579.09,124.72c-.07-1.3-.19-2.55,1.62-2.32.61.08,1.74-.28,1.48.84-.3,1.32-.68,3-2.33,3.15C578.58,126.54,579.31,125.23,579.09,124.72Z"/><path class="cls-1" d="M578,108.62c.24,1.53-.21,2.27-1.65,2.1-.63-.07-1.67.19-1.4-.94s.74-2.78,2.24-2.92S577.76,108.14,578,108.62Z"/><path class="cls-1" d="M581.39,110.6c-2.46.38-2.41-.85-2.3-2,.06-.66-.46-1.9.85-1.72,1.53.22,1.88,1.74,2.2,3S581.36,110.61,581.39,110.6Z"/><path class="cls-1" d="M570.81,122.59c2.57-.81,3.15.66,3.46,2.87A5.36,5.36,0,0,1,570.81,122.59Z"/><path class="cls-1" d="M586.43,122.61a7.16,7.16,0,0,1-3.54,2.89C583.06,123.33,583.55,121.86,586.43,122.61Z"/><path class="cls-1" d="M586.44,110.56c-2.79.88-3.32-.61-3.63-2.78A6.79,6.79,0,0,1,586.44,110.56Z"/><path class="cls-1" d="M574.3,107.49c-.37,2.45-.92,3.9-3.47,3.15C571.37,109.08,572.71,108.53,574.3,107.49Z"/><path class="cls-1" d="M522,61.31a12.33,12.33,0,0,1,0-2.65c.32-1.41-1.09-3.39,1-4.19,2.49-.93,7,0,8,1.63,1.22,1.83,1.24,4-.37,5.36s-1.05,2.29-.17,3.51a7.08,7.08,0,0,1,.83,1.36c.29.74,1.6,1.5.61,2.22a2.15,2.15,0,0,1-3.05-.73c-.75-1.1-1.39-2.27-2.09-3.4-.28-.45-.59-1-1.2-.88s-.53.81-.55,1.31c0,.71,0,1.42,0,2.13,0,1-.11,1.72-1.39,1.73s-1.71-.6-1.69-1.8C522,65.05,522,63.18,522,61.31Zm3-2.4c.31.81-.68,2.37,1.19,2.35a2.26,2.26,0,0,0,2.47-2.53,2.11,2.11,0,0,0-2.15-2.25C524.51,56.33,525.22,57.86,525,58.91Z"/><path class="cls-1" d="M57.39,45.69h-8v3.2h7.32v2.62H49.41v3.88h8.34V58.1H46.33V43H57.39Z"/><path class="cls-1" d="M62.88,47v6.72a3.53,3.53,0,0,0,.22,1.43,1.56,1.56,0,0,0,1.56.85,2,2,0,0,0,2-1.21A4.33,4.33,0,0,0,67,53V47h3V58.1H67.1V56.52l-.2.31a2.11,2.11,0,0,1-.39.45,4.13,4.13,0,0,1-1.32.84,4.5,4.5,0,0,1-1.49.22,3.33,3.33,0,0,1-3.33-1.78,6.77,6.77,0,0,1-.48-2.89V47Z"/><path class="cls-1" d="M79,46.69l.25,0v3l-.49,0h-.35A2.41,2.41,0,0,0,76,50.79a4.51,4.51,0,0,0-.34,2V58.1H72.74V47h2.78v1.94a6,6,0,0,1,1.18-1.52,3.16,3.16,0,0,1,2.12-.69Z"/><path class="cls-1" d="M90.22,56.73a6.12,6.12,0,0,1-8.57,0,6.88,6.88,0,0,1,0-8.37,6.07,6.07,0,0,1,8.57,0,6.92,6.92,0,0,1,0,8.37Zm-2.34-1.61a4.17,4.17,0,0,0,.69-2.58A4.17,4.17,0,0,0,87.88,50a2.31,2.31,0,0,0-2-.9,2.34,2.34,0,0,0-2,.9,4.17,4.17,0,0,0-.69,2.58A4.17,4.17,0,0,0,84,55.12a2.32,2.32,0,0,0,2,.91A2.29,2.29,0,0,0,87.88,55.12Z"/><path class="cls-1" d="M103.09,48.15a5.93,5.93,0,0,1,1.36,4.23,6.69,6.69,0,0,1-1.33,4.49,4.33,4.33,0,0,1-3.43,1.55,3.63,3.63,0,0,1-2.23-.67,4.24,4.24,0,0,1-.94-1.07v5.81H93.63V47h2.79V48.6a4.85,4.85,0,0,1,1-1.15,3.73,3.73,0,0,1,2.33-.74A4.41,4.41,0,0,1,103.09,48.15Zm-2.24,2.09a2.07,2.07,0,0,0-1.92-1,2.2,2.2,0,0,0-2.21,1.5,5.86,5.86,0,0,0-.31,2,3.19,3.19,0,0,0,1,2.73,2.35,2.35,0,0,0,1.46.46A2.13,2.13,0,0,0,100.8,55a4.9,4.9,0,0,0,0-4.79Z"/><path class="cls-1" d="M113.77,47.18a4.44,4.44,0,0,1,1.93,1.65,5.48,5.48,0,0,1,.89,2.3,13.5,13.5,0,0,1,.09,2.21h-8.12a2.7,2.7,0,0,0,1.17,2.36,3.06,3.06,0,0,0,1.61.41A2.49,2.49,0,0,0,113,55.6a2.66,2.66,0,0,0,.6-.76h3a3.65,3.65,0,0,1-1.08,2,5.42,5.42,0,0,1-4.19,1.63,6.09,6.09,0,0,1-3.93-1.37,5.44,5.44,0,0,1-1.7-4.47,6,6,0,0,1,1.54-4.44,5.36,5.36,0,0,1,4-1.55A6.29,6.29,0,0,1,113.77,47.18Zm-4.36,2.51a3,3,0,0,0-.77,1.73h5a2.4,2.4,0,0,0-.78-1.76,2.55,2.55,0,0,0-1.73-.6A2.32,2.32,0,0,0,109.41,49.69Z"/><path class="cls-1" d="M122.57,51.32a4.81,4.81,0,0,0,1.17-.26.88.88,0,0,0,.63-.83,1,1,0,0,0-.49-.94,3,3,0,0,0-1.41-.26,1.85,1.85,0,0,0-1.48.51,2.07,2.07,0,0,0-.42,1h-2.81a4.28,4.28,0,0,1,.82-2.4c.78-1,2.1-1.48,4-1.48a7.14,7.14,0,0,1,3.26.73,2.77,2.77,0,0,1,1.43,2.74v5.12c0,.35,0,.78,0,1.28a1.52,1.52,0,0,0,.18.78,1,1,0,0,0,.43.34v.43h-3.18a3.68,3.68,0,0,1-.18-.64c0-.19-.06-.42-.08-.67a5.81,5.81,0,0,1-1.4,1.11,4.16,4.16,0,0,1-2.14.55,3.7,3.7,0,0,1-2.52-.87,3.07,3.07,0,0,1-1-2.45,3.15,3.15,0,0,1,1.6-3,6.91,6.91,0,0,1,2.57-.72Zm1.79,1.36a3.75,3.75,0,0,1-.57.28,4.8,4.8,0,0,1-.78.2l-.66.12a4.21,4.21,0,0,0-1.34.4,1.34,1.34,0,0,0-.69,1.24,1.29,1.29,0,0,0,.42,1.08,1.6,1.6,0,0,0,1,.33,3,3,0,0,0,1.76-.55,2.34,2.34,0,0,0,.84-2Z"/><path class="cls-1" d="M138.8,47.59a3.68,3.68,0,0,1,1.09,3V58.1h-3V51.32a3,3,0,0,0-.24-1.35,1.62,1.62,0,0,0-1.62-.86,2,2,0,0,0-2,1.26,4.31,4.31,0,0,0-.29,1.69v6h-2.91V47h2.82V48.6a4.78,4.78,0,0,1,1.06-1.24,3.67,3.67,0,0,1,2.27-.68A4.3,4.3,0,0,1,138.8,47.59Z"/><path class="cls-1" d="M148.66,43h3.2v9.26a5.16,5.16,0,0,0,.37,2.27,3.06,3.06,0,0,0,5,0,5.31,5.31,0,0,0,.37-2.27V43h3.2v9.27A7.72,7.72,0,0,1,160,56q-1.38,2.46-5.3,2.46T149.4,56a7.84,7.84,0,0,1-.74-3.74Z"/><path class="cls-1" d="M172.54,47.59a3.68,3.68,0,0,1,1.09,3V58.1h-3V51.32a3,3,0,0,0-.24-1.35,1.62,1.62,0,0,0-1.62-.86,2,2,0,0,0-2,1.26,4.32,4.32,0,0,0-.28,1.69v6h-2.92V47h2.82V48.6a5,5,0,0,1,1.06-1.24,3.69,3.69,0,0,1,2.27-.68A4.3,4.3,0,0,1,172.54,47.59Z"/><path class="cls-1" d="M179.34,45.62h-3V42.93h3Zm-3,1.33h3V58.1h-3Z"/><path class="cls-1" d="M191.46,56.73a6.12,6.12,0,0,1-8.57,0,6.92,6.92,0,0,1,0-8.37,6.07,6.07,0,0,1,8.57,0,6.92,6.92,0,0,1,0,8.37Zm-2.33-1.61a4.17,4.17,0,0,0,.68-2.58,4.17,4.17,0,0,0-.68-2.58,2.6,2.6,0,0,0-3.93,0,4.17,4.17,0,0,0-.69,2.58,4.17,4.17,0,0,0,.69,2.58,2.58,2.58,0,0,0,3.93,0Z"/><path class="cls-1" d="M204,47.59a3.68,3.68,0,0,1,1.09,3V58.1h-3V51.32a3,3,0,0,0-.24-1.35,1.62,1.62,0,0,0-1.62-.86,2,2,0,0,0-2,1.26,4.31,4.31,0,0,0-.29,1.69v6H195V47h2.82V48.6a5,5,0,0,1,1.06-1.24,3.69,3.69,0,0,1,2.27-.68A4.3,4.3,0,0,1,204,47.59Z"/><path class="cls-1" d="M68.83,71.75a8.24,8.24,0,0,1,3.08,2.3,10.64,10.64,0,0,1,1.65,2.77,9.16,9.16,0,0,1,.61,3.46A9.85,9.85,0,0,1,73,84.89a6.62,6.62,0,0,1-3.91,3.2,6.19,6.19,0,0,1,3.23,2.6,10.84,10.84,0,0,1,1,5.14V98a16.85,16.85,0,0,0,.18,3.06A2.71,2.71,0,0,0,74.71,103v.83H67.12c-.21-.73-.36-1.32-.45-1.76a16.67,16.67,0,0,1-.29-2.84l0-3c0-2.1-.39-3.5-1.09-4.2s-2-1-3.92-1H54.62v12.9H47.91V70.91H63.64A14.26,14.26,0,0,1,68.83,71.75ZM54.62,76.62v8.84H62a7.85,7.85,0,0,0,3.31-.54c1.29-.62,1.94-1.86,1.94-3.7,0-2-.62-3.34-1.88-4a6.8,6.8,0,0,0-3.18-.58Z"/><path class="cls-1" d="M105.08,76.73H87.67v7h16v5.71h-16v8.46h18.21v5.91H81V70.91h24.13Z"/><path class="cls-1" d="M120.64,70.91h7.78l11.64,32.89H132.6L130.43,97H118.32l-2.23,6.76H108.9Zm-.45,20.46h8.42l-4.15-12.94Z"/><path class="cls-1" d="M147.38,74.34a13.57,13.57,0,0,1,10.11-4.06q8.22,0,12,5.45a11.81,11.81,0,0,1,2.25,6.13h-6.87a9.58,9.58,0,0,0-1.68-3.57,6.81,6.81,0,0,0-5.45-2.14,6.72,6.72,0,0,0-5.79,3q-2.11,3-2.12,8.56c0,3.69.75,6.46,2.24,8.29a7,7,0,0,0,5.68,2.76,6.45,6.45,0,0,0,5.4-2.37,10.38,10.38,0,0,0,1.7-3.81h6.83a14.81,14.81,0,0,1-4.52,8.74,13.11,13.11,0,0,1-9.3,3.37q-7,0-11-4.55t-4-12.54Q142.81,79,147.38,74.34Z"/><path class="cls-1" d="M177.2,103.8V70.91H184V83.45h12.78V70.91h6.83V103.8h-6.83V89.12H184V103.8Z"/><path class="cls-1" d="M98.31,134.46a10.28,10.28,0,0,1,3.65-3.89,26.47,26.47,0,0,0,3.23-2.56,3.78,3.78,0,0,0,1.13-2.63,2.93,2.93,0,0,0-.65-1.94,2.63,2.63,0,0,0-4.09.46,6.16,6.16,0,0,0-.41,2.25H97.66a9,9,0,0,1,.85-3.79q1.45-2.74,5.14-2.75a6.49,6.49,0,0,1,4.64,1.62,5.59,5.59,0,0,1,1.73,4.28,5.8,5.8,0,0,1-1.22,3.62,12,12,0,0,1-2.63,2.34l-1.44,1c-.91.64-1.53,1.11-1.86,1.39a4.11,4.11,0,0,0-.85,1h8v3.18H97.46A8.8,8.8,0,0,1,98.31,134.46Z"/><path class="cls-1" d="M123.15,122.05a14.16,14.16,0,0,1,1.42,7,14.08,14.08,0,0,1-1.42,7q-1.41,2.46-4.92,2.46t-4.92-2.46a14.2,14.2,0,0,1-1.41-7,14.28,14.28,0,0,1,1.41-7q1.41-2.47,4.92-2.47T123.15,122.05Zm-7.05,11.86a2.1,2.1,0,0,0,2.13,1.68,2.06,2.06,0,0,0,2.11-1.68,18,18,0,0,0,.5-4.84,17.86,17.86,0,0,0-.5-4.92,2.05,2.05,0,0,0-2.11-1.6,2.09,2.09,0,0,0-2.13,1.6,17.32,17.32,0,0,0-.52,4.92A17.5,17.5,0,0,0,116.1,133.91Z"/><path class="cls-1" d="M127.18,134.46a10.2,10.2,0,0,1,3.65-3.89,26.47,26.47,0,0,0,3.23-2.56,3.78,3.78,0,0,0,1.13-2.63,2.93,2.93,0,0,0-.65-1.94,2.63,2.63,0,0,0-4.09.46,6,6,0,0,0-.41,2.25h-3.51a8.88,8.88,0,0,1,.85-3.79q1.45-2.74,5.14-2.75a6.51,6.51,0,0,1,4.64,1.62,5.59,5.59,0,0,1,1.73,4.28,5.8,5.8,0,0,1-1.22,3.62,12.28,12.28,0,0,1-2.63,2.34l-1.45,1c-.9.64-1.52,1.11-1.86,1.39a4.3,4.3,0,0,0-.84,1h8v3.18H126.33A8.64,8.64,0,0,1,127.18,134.46Z"/><path class="cls-1" d="M152,122.05a14.28,14.28,0,0,1,1.41,7,14.2,14.2,0,0,1-1.41,7q-1.41,2.46-4.92,2.46t-4.92-2.46a14.08,14.08,0,0,1-1.42-7,14.16,14.16,0,0,1,1.42-7q1.41-2.47,4.92-2.47T152,122.05ZM145,133.91a2.1,2.1,0,0,0,2.13,1.68,2.07,2.07,0,0,0,2.11-1.68,18,18,0,0,0,.5-4.84,17.86,17.86,0,0,0-.5-4.92,2.06,2.06,0,0,0-2.11-1.6,2.09,2.09,0,0,0-2.13,1.6,17,17,0,0,0-.52,4.92A17.13,17.13,0,0,0,145,133.91Z"/></g></svg>