<?xml version="1.0" encoding="UTF-8"?>
<svg width="60px" height="60px" viewBox="0 0 60 60" version="1.1" xmlns="http://www.w3.org/2000/svg" xmlns:xlink="http://www.w3.org/1999/xlink">
    <title>m_ig_w</title>
    <g id="Symbols" stroke="none" stroke-width="1" fill="none" fill-rule="evenodd">
        <g id="m_footer" transform="translate(-387.000000, -202.000000)" fill="#FFFFFF" fill-rule="nonzero">
            <g id="m_ig_w" transform="translate(387.000000, 202.000000)">
                <path d="M59.60625,41.775 L59.60625,18.225 C59.60625,8.37707255 51.6229274,0.39375 41.775,0.39375 L18.225,0.39375 C8.37707255,0.39375 0.39375,8.37707255 0.39375,18.225 L0.39375,41.775 C0.39375,51.6229274 8.37707255,59.60625 18.225,59.60625 L41.775,59.60625 C51.6229274,59.60625 59.60625,51.6229274 59.60625,41.775 Z M5.98125,41.775 L5.98125,18.225 C5.98125,11.4629636 11.4629636,5.98125 18.225,5.98125 L41.775,5.98125 C48.5370364,5.98125 54.01875,11.4629636 54.01875,18.225 L54.01875,41.775 C54.01875,45.0222444 52.7287872,48.1364901 50.4326387,50.4326387 C48.1364901,52.7287872 45.0222444,54.01875 41.775,54.01875 L18.225,54.01875 C11.4629636,54.01875 5.98125,48.5370364 5.98125,41.775 L5.98125,41.775 Z" id="Shape"></path>
                <path d="M30.09375,15.75 C22.0165855,15.75 15.46875,22.2978355 15.46875,30.375 C15.46875,38.4521645 22.0165855,45 30.09375,45 C38.1709145,45 44.71875,38.4521645 44.71875,30.375 C44.70842,22.3021182 38.1666318,15.76033 30.09375,15.75 Z M30.09375,39.75 C24.9160805,39.75 20.71875,35.5526695 20.71875,30.375 C20.71875,25.1973305 24.9160805,21 30.09375,21 C35.2714195,21 39.46875,25.1973305 39.46875,30.375 C39.46875,35.5526695 35.2714195,39.75 30.09375,39.75 Z" id="Shape"></path>
                <path d="M45.58125,18.262551 C47.5073431,18.262551 49.06875,16.7010931 49.06875,14.775 C49.06875,12.8489069 47.5073431,11.2875 45.58125,11.2875 C43.6551569,11.2875 42.093699,12.8489069 42.093699,14.775 C42.0887284,15.7014728 42.4545476,16.5914528 43.1096724,17.2465776 C43.7647972,17.9017024 44.6547772,18.2675216 45.58125,18.262551 L45.58125,18.262551 Z" id="Path"></path>
            </g>
        </g>
    </g>
</svg>