<?xml version="1.0" encoding="UTF-8"?>
<svg width="262px" height="36px" viewBox="0 0 262 36" version="1.1" xmlns="http://www.w3.org/2000/svg" xmlns:xlink="http://www.w3.org/1999/xlink">
    <title>m_logo_w</title>
    <g id="Symbols" stroke="none" stroke-width="1" fill="none" fill-rule="evenodd">
        <g id="m_header" transform="translate(-65.000000, -32.000000)" fill="#FFFFFF">
            <g id="m_logo_w" transform="translate(65.000000, 32.000000)">
                <path d="M143.09,34.4 C139.98322,34.4370619 136.897949,33.8804233 134,32.76 C130.83,31.45 128.73,29.44 127.93,26.95 C127.683784,26.199163 127.774972,25.3784765 128.18,24.7 C128.681613,23.9675817 129.512277,23.5297993 130.4,23.53 C131.646158,23.5134797 132.784139,24.2355087 133.3,25.37 C134.53,28.93 140.53,29.31 143.05,29.31 C150.21,29.31 152.75,26.72 152.75,24.5 C152.75,21.5 148.19,21.15 143.37,20.79 L143.08,20.79 C136.08,20.28 128.24,19.7 128.24,12.06 C128.24,9.06 129.95,6.46 133.18,4.71 C136.08709,3.24297694 139.303909,2.49535814 142.56,2.53 C147.91,2.53 154.76,3.71 157.02,9.38 C157.302561,10.0295579 157.2503,10.7761424 156.88,11.38 C156.266399,12.1435127 155.328952,12.5733307 154.35,12.54 C153.369215,12.5801829 152.455007,12.0449419 152.01,11.17 C151.33,9.58 149.14,7.67 142.61,7.67 C140.642153,7.66172895 138.690731,8.02825697 136.86,8.75 C135.51,9.31 133.86,10.35 133.86,12.08 C133.86,15.21 138.36,15.53 143.58,15.9 L144.32,15.96 C150.88,16.48 158.32,17.07 158.32,24.45 C158.32,27.88 156.44,30.63 152.87,32.37 C149.768004,33.7461432 146.403038,34.4286921 143.01,34.37" id="Path" fill-rule="nonzero"></path>
                <path d="M165.92,34.0800461 C164.917796,34.0854925 163.976425,33.5998645 163.4,32.78 C162.988532,32.1335493 162.957946,31.3153674 163.32,30.64 L178.12,3.76 C178.554843,2.83322076 179.486277,2.24138307 180.51,2.24138307 C181.533723,2.24138307 182.465157,2.83322076 182.9,3.76 L197.64,30.48 C198.096984,31.1248123 198.151158,31.9722471 197.78,32.67 C197.204079,33.5306348 196.225018,34.0333957 195.19,34 C194.183052,34.0414005 193.237429,33.5164835 192.74,32.64 L189.19,26.13 L171.88,26.13 L168.18,32.79 C167.733415,33.61373 166.85612,34.1106049 165.92,34.07 M174.35,21.45 L186.68,21.45 L180.54,9.15 L174.35,21.45 Z" id="Shape" fill-rule="nonzero"></path>
                <path d="M212.17,34.07 C211.455298,34.1237947 210.751132,33.8731352 210.231175,33.3798424 C209.711218,32.8865496 209.42387,32.1965424 209.44,31.48 L209.44,21.53 L196.73,6 C196.125209,5.34059204 195.975394,4.38256462 196.35,3.57 C196.880093,2.60813996 197.902099,2.02193249 199,2.05 C199.905418,2.03598427 200.760523,2.46540387 201.29,3.2 L212.16,16.89 L223.16,3.15 C223.656833,2.43543542 224.469712,2.0066231 225.34,1.99973709 C226.345322,1.98617844 227.279201,2.51818364 227.78,3.39 C228.185632,4.18339913 228.091886,5.14039854 227.54,5.84 L214.9,21.53 L214.9,31.48 C214.895311,32.1900391 214.601535,32.8675205 214.086417,33.356223 C213.571298,33.8449255 212.879303,34.1026617 212.17,34.07" id="Path" fill-rule="nonzero"></path>
                <path d="M229.15,34.08 C228.147796,34.0854925 227.206425,33.5998645 226.63,32.78 C226.218532,32.1335493 226.187946,31.3153674 226.55,30.64 L241.35,3.76 C241.784843,2.83322076 242.716277,2.24138307 243.74,2.24138307 C244.763723,2.24138307 245.695157,2.83322076 246.13,3.76 L260.87,30.48 C261.32025,31.1271795 261.374177,31.9707567 261.01,32.67 C260.439283,33.5451511 259.454359,34.0603422 258.41,34.03 C257.412394,34.0545615 256.483758,33.5228115 256,32.65 L252.45,26.14 L235.11,26.14 L231.41,32.8 C230.963415,33.62373 230.08612,34.1206049 229.15,34.08 M237.58,21.46 L249.91,21.46 L243.76,9.16 L237.58,21.46 Z" id="Shape" fill-rule="nonzero"></path>
                <path d="M103.8,18.25 L83.23,10.54 L83.1,10.54 L63.36,10.54 L63.23,10.54 L40.42,20.08 C40.3739054,20.0903335 40.3260946,20.0903335 40.28,20.08 L22.87,20.08 L22.76,20.08 C21.92,19.78 14.82,17.39 11.76,16.34 L10.76,15.97 C10.7218021,15.9488657 10.6980948,15.9086547 10.6980948,15.865 C10.6980948,15.8213453 10.7218021,15.7811343 10.76,15.76 C11.94,15.08 27.41,6.18 28.17,5.76 C28.2257525,5.74560478 28.2842475,5.74560478 28.34,5.76 L83,5.76 C83.711078,5.76013385 84.3893864,5.46102234 84.8688445,4.93590154 C85.3483027,4.41078074 85.5846435,3.70813358 85.52,3 C85.5738963,2.30387974 85.3306589,1.61746713 84.8504732,1.11060437 C84.3702874,0.603741614 83.6980152,0.323783011 83,0.34 L26.6,0.34 C26.5367109,0.340995749 26.4747355,0.358211151 26.42,0.39 L1.05,16.6 C0.846055466,16.7332384 0.733733846,16.9693298 0.759016752,17.2116243 C0.784299658,17.4539189 0.942942138,17.6617357 1.17,17.75 L21.74,25.46 L21.87,25.46 L41.6,25.46 C41.6461904,25.4694286 41.6938096,25.4694286 41.74,25.46 L64.55,15.93 C64.5928463,15.9208119 64.6371537,15.9208119 64.68,15.93 L82.09,15.93 L82.21,15.93 C83.05,16.23 90.15,18.62 93.21,19.67 L94.26,20.04 C94.2981979,20.0611343 94.3219052,20.1013453 94.3219052,20.145 C94.3219052,20.1886547 94.2981979,20.2288657 94.26,20.25 C93.08,20.94 77.61,29.83 76.85,30.25 C76.7942475,30.2643952 76.7357525,30.2643952 76.68,30.25 L22,30.25 C21.2846301,30.2384879 20.5980876,30.5316002 20.1116163,31.0562261 C19.6251451,31.5808519 19.3846072,32.2875322 19.45,33 C19.3921474,33.7022854 19.6382383,34.3956625 20.1258823,34.9043421 C20.6135264,35.4130218 21.2958986,35.6881593 22,35.66 L78.37,35.66 C78.4290852,35.6748171 78.4909148,35.6748171 78.55,35.66 L103.92,19.4 C104.123945,19.2667616 104.236266,19.0306702 104.210983,18.7883757 C104.1857,18.5460811 104.027058,18.3382643 103.8,18.25" id="Path"></path>
            </g>
        </g>
    </g>
</svg>