<svg id="Layer_2" data-name="Layer 2" xmlns="http://www.w3.org/2000/svg" viewBox="0 0 262 40"><defs><style>.cls-1,.cls-2{fill:#fff;}.cls-2{fill-rule:evenodd;}</style></defs><title>m_logo_w</title><path class="cls-1" d="M143.09,36.4A24.4,24.4,0,0,1,134,34.76c-3.17-1.31-5.27-3.32-6.07-5.81a2.73,2.73,0,0,1,.25-2.25,2.69,2.69,0,0,1,2.22-1.17,3.14,3.14,0,0,1,2.9,1.84c1.23,3.56,7.23,3.94,9.75,3.94,7.16,0,9.7-2.59,9.7-4.81,0-3-4.56-3.35-9.38-3.71l-.29,0c-7-.51-14.84-1.09-14.84-8.73,0-3,1.71-5.6,4.94-7.35a20.34,20.34,0,0,1,9.38-2.18c5.35,0,12.2,1.18,14.46,6.85a2.17,2.17,0,0,1-.14,2,3.11,3.11,0,0,1-2.53,1.16,2.51,2.51,0,0,1-2.34-1.37c-.68-1.59-2.87-3.5-9.4-3.5a15.5,15.5,0,0,0-5.75,1.08c-1.35.56-3,1.6-3,3.33,0,3.13,4.5,3.45,9.72,3.82l.74.06c6.56.52,14,1.11,14,8.49,0,3.43-1.88,6.18-5.45,7.92a23.32,23.32,0,0,1-9.86,2"/><path class="cls-1" d="M165.92,36.08a3.06,3.06,0,0,1-2.52-1.3,2.12,2.12,0,0,1-.08-2.14l14.8-26.88a2.64,2.64,0,0,1,4.78,0l14.74,26.72a2.09,2.09,0,0,1,.14,2.19A3,3,0,0,1,195.19,36a2.69,2.69,0,0,1-2.45-1.36l-3.55-6.51H171.88l-3.7,6.66a2.45,2.45,0,0,1-2.26,1.28m8.43-12.62h12.33l-6.14-12.3Z"/><path class="cls-1" d="M212.17,36.07a2.54,2.54,0,0,1-2.73-2.59V23.53L196.73,8a2.22,2.22,0,0,1-.38-2.43A2.94,2.94,0,0,1,199,4.05a2.77,2.77,0,0,1,2.29,1.15l10.87,13.69,11-13.74A2.68,2.68,0,0,1,225.34,4a2.77,2.77,0,0,1,2.44,1.39,2.28,2.28,0,0,1-.24,2.45L214.9,23.53v9.95a2.61,2.61,0,0,1-2.73,2.59"/><path class="cls-1" d="M229.15,36.08a3.06,3.06,0,0,1-2.52-1.3,2.12,2.12,0,0,1-.08-2.14l14.8-26.88a2.64,2.64,0,0,1,4.78,0l14.74,26.72a2.12,2.12,0,0,1,.14,2.19,3,3,0,0,1-2.6,1.36A2.68,2.68,0,0,1,256,34.65l-3.55-6.51H235.11l-3.7,6.66a2.45,2.45,0,0,1-2.26,1.28m8.43-12.62h12.33l-6.15-12.3Z"/><path class="cls-2" d="M103.8,20.25,83.23,12.54l-.13,0H63.36l-.13,0L40.42,22.08a.32.32,0,0,1-.14,0H22.87l-.11,0c-.84-.3-7.94-2.69-11-3.74l-1-.37a.12.12,0,0,1,0-.21c1.18-.68,16.65-9.58,17.41-10a.34.34,0,0,1,.17,0H83A2.53,2.53,0,0,0,85.52,5,2.47,2.47,0,0,0,83,2.34H26.6a.37.37,0,0,0-.18.05L1.05,18.6a.65.65,0,0,0,.12,1.15l20.57,7.71.13,0H41.6a.35.35,0,0,0,.14,0l22.81-9.53a.31.31,0,0,1,.13,0H82.09l.12,0c.84.3,7.94,2.69,11,3.74l1.05.37a.12.12,0,0,1,0,.21c-1.18.69-16.65,9.58-17.41,10a.34.34,0,0,1-.17,0H22A2.52,2.52,0,0,0,19.45,35,2.46,2.46,0,0,0,22,37.66H78.37a.37.37,0,0,0,.18,0L103.92,21.4a.65.65,0,0,0-.12-1.15"/></svg>