<svg id="Layer_2" data-name="Layer 2" xmlns="http://www.w3.org/2000/svg" viewBox="0 0 880 320"><defs><style>.cls-1{fill:#fff;}</style></defs><title>bottle_w</title><path class="cls-1" d="M880,154.44v55.49a9.06,9.06,0,0,1-9.07,9H811.86v9.26a3.62,3.62,0,0,1-3.63,3.61h-5.86a3.62,3.62,0,0,1-3.62-3.61v-5.64a3.63,3.63,0,0,0-3.63-3.62H780.84a12.69,12.69,0,0,0-10.43,5.45c-10.52,15.1-41.28,73-64.45,81.81C679.41,316.36,635.1,317,621.4,317.05a11,11,0,0,1-4.48-.95c-9.66-4.32-19.74-7.72-36,2.31a10.73,10.73,0,0,1-5.66,1.59H130.78a10.84,10.84,0,0,1-6.9-2.47c-5.65-4.64-19.44-13.14-33.8-.56a11,11,0,0,1-7.92,2.73l-47.9-2.94S0,314.78,0,260.18V59.82C0,7.21,34.26,3.24,34.26,3.24L82.16.3A11,11,0,0,1,90.08,3c14.36,12.58,28.15,4.08,33.8-.56A10.84,10.84,0,0,1,130.78,0h444.5a10.73,10.73,0,0,1,5.66,1.59c16.24,10,26.32,6.63,36,2.31A11,11,0,0,1,621.4,3c13.7,0,58,.69,84.56,10.82,23.17,8.82,53.93,66.71,64.45,81.81A12.69,12.69,0,0,0,780.84,101h14.28a3.63,3.63,0,0,0,3.63-3.62V91.77a3.62,3.62,0,0,1,3.62-3.61h5.86a3.62,3.62,0,0,1,3.63,3.61v5.64a3.63,3.63,0,0,0,3.63,3.62h55.44a9.06,9.06,0,0,1,9.07,9Z"/></svg>