<svg id="Layer_2" data-name="Layer 2" xmlns="http://www.w3.org/2000/svg" viewBox="0 0 583.6 138.58"><defs><style>.cls-1{fill:#fff;}.cls-10,.cls-2{fill:none;stroke-miterlimit:10;}.cls-2{stroke:#c8c2c2;stroke-width:1.63px;}.cls-3,.cls-4,.cls-5{fill:#bfc723;}.cls-4,.cls-7{opacity:0.4;}.cls-5{opacity:0.3;}.cls-6,.cls-7,.cls-8,.cls-9{fill:#c8c2c2;}.cls-6{opacity:0.2;}.cls-8{opacity:0.6;}.cls-10{stroke:#bfc723;stroke-width:1.12px;}</style></defs><title>fig1</title><path class="cls-1" d="M13.93,115.93a.49.49,0,0,1-.39-.14.49.49,0,0,1-.12-.39l.84-8.79a.47.47,0,0,1,.52-.48h.74a.58.58,0,0,1,.58.4l3,7.29,3-7.29a.6.6,0,0,1,.58-.4h.73a.47.47,0,0,1,.53.48l.83,8.79a.52.52,0,0,1-.11.39.47.47,0,0,1-.38.14h-.46a.48.48,0,0,1-.55-.47l-.6-7.07-2.91,7a.59.59,0,0,1-.59.39H19a.58.58,0,0,1-.57-.39l-2.91-7-.62,7.07a.47.47,0,0,1-.53.47Z"/><path class="cls-1" d="M29.76,116.09a3.4,3.4,0,0,1-1.4-.29,3.26,3.26,0,0,1-1.11-.79,3.79,3.79,0,0,1-.71-1.18,4.1,4.1,0,0,1,0-2.82,3.79,3.79,0,0,1,.71-1.18,3.11,3.11,0,0,1,1.11-.78,3.4,3.4,0,0,1,1.4-.28,3.28,3.28,0,0,1,1.39.3,2.77,2.77,0,0,1,1.12,1v-.61a.46.46,0,0,1,.14-.37.49.49,0,0,1,.37-.13h.42a.48.48,0,0,1,.37.13.5.5,0,0,1,.14.37v6a.5.5,0,0,1-.14.37.48.48,0,0,1-.37.13h-.42a.49.49,0,0,1-.37-.13.46.46,0,0,1-.14-.37v-.6a2.77,2.77,0,0,1-1.12,1A3.28,3.28,0,0,1,29.76,116.09Zm.19-1.26a2.24,2.24,0,0,0,1.68-.68,2.6,2.6,0,0,0,0-3.46A2.24,2.24,0,0,0,30,110,2.1,2.1,0,0,0,28,111.13a2.54,2.54,0,0,0-.31,1.29,2.57,2.57,0,0,0,.31,1.29A2.1,2.1,0,0,0,30,114.83Z"/><path class="cls-1" d="M39,119.22a4.81,4.81,0,0,1-2.66-.72.49.49,0,0,1-.15-.7l.11-.2c.15-.31.38-.36.69-.17a3,3,0,0,0,1,.41,4.1,4.1,0,0,0,1,.14,2.3,2.3,0,0,0,1.65-.59,2.2,2.2,0,0,0,.62-1.67v-.89a2.77,2.77,0,0,1-1.12,1,3.28,3.28,0,0,1-1.39.3,3.49,3.49,0,0,1-1.41-.29,3.26,3.26,0,0,1-1.11-.79,3.61,3.61,0,0,1-.71-1.18,4.26,4.26,0,0,1,0-2.82,3.67,3.67,0,0,1,.71-1.17,3.4,3.4,0,0,1,1.11-.79,3.48,3.48,0,0,1,1.41-.28,3.28,3.28,0,0,1,1.39.3,2.77,2.77,0,0,1,1.12,1v-.62a.45.45,0,0,1,.14-.36.49.49,0,0,1,.37-.13h.41a.53.53,0,0,1,.38.13.5.5,0,0,1,.14.37v6.4a3.45,3.45,0,0,1-.45,1.81A3.2,3.2,0,0,1,41,118.8,4.35,4.35,0,0,1,39,119.22Zm0-4.39a2.23,2.23,0,0,0,1.67-.68,2.6,2.6,0,0,0,0-3.46A2.23,2.23,0,0,0,39,110a2.17,2.17,0,0,0-1.12.29,2.13,2.13,0,0,0-.8.83,2.54,2.54,0,0,0-.31,1.29,2.57,2.57,0,0,0,.31,1.29A2.1,2.1,0,0,0,39,114.83Z"/><path class="cls-1" d="M45.36,115.93a.52.52,0,0,1-.38-.13.46.46,0,0,1-.14-.37v-6a.46.46,0,0,1,.14-.37.52.52,0,0,1,.38-.13h.42a.51.51,0,0,1,.37.13.54.54,0,0,1,.13.37v.87a2,2,0,0,1,.85-1.13,2.78,2.78,0,0,1,1.49-.39,2.92,2.92,0,0,1,1.08.19,2.28,2.28,0,0,1,.85.6,2.69,2.69,0,0,1,.56,1A4.67,4.67,0,0,1,51.3,112v3.46a.46.46,0,0,1-.14.37.49.49,0,0,1-.37.13h-.42a.48.48,0,0,1-.37-.13.5.5,0,0,1-.14-.37V112a3.08,3.08,0,0,0-.16-1.08,1.42,1.42,0,0,0-.5-.66,1.24,1.24,0,0,0-.74-.22,2.26,2.26,0,0,0-.66.11,2.17,2.17,0,0,0-1.3,1.24,3.19,3.19,0,0,0-.22,1.26v2.79a.54.54,0,0,1-.13.37.51.51,0,0,1-.37.13Z"/><path class="cls-1" d="M56.77,116.09a4.82,4.82,0,0,1-1.64-.28,3.74,3.74,0,0,1-1.27-.79,3.26,3.26,0,0,1-.8-1.17,3.67,3.67,0,0,1-.27-1.4,3.7,3.7,0,0,1,1.07-2.61,3.78,3.78,0,0,1,1.22-.79,4,4,0,0,1,1.49-.28,3.88,3.88,0,0,1,1.27.2,3.35,3.35,0,0,1,1.11.61,3.25,3.25,0,0,1,.8,1,4,4,0,0,1,.39,1.43.43.43,0,0,1-.11.37.46.46,0,0,1-.38.14H54.22a2,2,0,0,0,.7,1.62,2.73,2.73,0,0,0,1.86.64,3.31,3.31,0,0,0,1.9-.59.52.52,0,0,1,.72.07l.1.11a.47.47,0,0,1,.14.39.62.62,0,0,1-.24.41A4.07,4.07,0,0,1,56.77,116.09Zm-2.43-4.58h4.37a2.06,2.06,0,0,0-.47-.88,2,2,0,0,0-.73-.48,2.71,2.71,0,0,0-.91-.15,2.47,2.47,0,0,0-1,.17,2.11,2.11,0,0,0-.78.49A2.33,2.33,0,0,0,54.34,111.51Z"/><path class="cls-1" d="M64.19,116.09a2.89,2.89,0,0,1-.81-.12,1.89,1.89,0,0,1-.73-.41,1.85,1.85,0,0,1-.51-.75,3,3,0,0,1-.18-1.1V110h-.85a.29.29,0,0,1-.21-.08.32.32,0,0,1-.08-.21v-.55a.26.26,0,0,1,.08-.2.25.25,0,0,1,.21-.08H62l.25-1.61a.48.48,0,0,1,.15-.29.41.41,0,0,1,.3-.12H63a.42.42,0,0,1,.3.13.43.43,0,0,1,.12.31v1.58h1.92a.24.24,0,0,1,.2.08.26.26,0,0,1,.08.2v.55a.32.32,0,0,1-.08.21.28.28,0,0,1-.2.08H63.4v3.75a1.16,1.16,0,0,0,.23.79.77.77,0,0,0,.58.26.89.89,0,0,0,.58-.2.67.67,0,0,0,.25-.55l0-.27a.34.34,0,0,1,0-.23.23.23,0,0,1,.2-.09h.65a.29.29,0,0,1,.32.25,2.14,2.14,0,0,1,0,.52,1.67,1.67,0,0,1-.55,1.31A2.22,2.22,0,0,1,64.19,116.09Z"/><path class="cls-1" d="M68.29,107.65a.94.94,0,0,1-.69-.29.89.89,0,0,1-.28-.67,1,1,0,0,1,1-1,1,1,0,0,1,.7.29.94.94,0,0,1,0,1.36A1,1,0,0,1,68.29,107.65Zm-.2,8.28a.53.53,0,0,1-.38-.13.5.5,0,0,1-.14-.37v-6a.5.5,0,0,1,.14-.37.53.53,0,0,1,.38-.13h.42a.49.49,0,0,1,.37.13.5.5,0,0,1,.14.37v6a.5.5,0,0,1-.14.37.49.49,0,0,1-.37.13Z"/><path class="cls-1" d="M74.62,116.09a4.52,4.52,0,0,1-1.64-.28,3.46,3.46,0,0,1-1.26-.76,3.35,3.35,0,0,1-.78-1.15,3.64,3.64,0,0,1-.27-1.4,4.14,4.14,0,0,1,.26-1.45,3.64,3.64,0,0,1,.77-1.19,3.42,3.42,0,0,1,1.26-.81,4.59,4.59,0,0,1,1.66-.28,4.18,4.18,0,0,1,2.11.57.45.45,0,0,1,.24.32.49.49,0,0,1-.1.39l-.11.14a.66.66,0,0,1-.27.21.53.53,0,0,1-.45-.07,3.1,3.1,0,0,0-1.35-.3,2.89,2.89,0,0,0-1,.17,2.44,2.44,0,0,0-.82.5,2,2,0,0,0-.54.76,2.32,2.32,0,0,0-.19,1,2.4,2.4,0,0,0,.33,1.22,2.13,2.13,0,0,0,.94.89,3,3,0,0,0,1.31.3,3.11,3.11,0,0,0,1.35-.31.68.68,0,0,1,.42-.08.44.44,0,0,1,.3.22l.1.14a.48.48,0,0,1,.09.32.55.55,0,0,1-.16.3,1.54,1.54,0,0,1-.29.21A3.93,3.93,0,0,1,74.62,116.09Z"/><path class="cls-1" d="M142.63,116.09a4.09,4.09,0,0,1-2.17-.55,3.11,3.11,0,0,1-1.3-1.44.44.44,0,0,1,0-.39.59.59,0,0,1,.34-.24l.41-.1a.52.52,0,0,1,.62.34,2.18,2.18,0,0,0,.82.77,2.61,2.61,0,0,0,1.26.31,3.36,3.36,0,0,0,.91-.14,1.66,1.66,0,0,0,.8-.5,1.21,1.21,0,0,0,.32-.82,1.27,1.27,0,0,0-.14-.54,1.45,1.45,0,0,0-.47-.54,3.09,3.09,0,0,0-.81-.42l-1.45-.49a3.86,3.86,0,0,1-1.71-1,2.34,2.34,0,0,1-.59-1.59,2.76,2.76,0,0,1,.17-.92,2.48,2.48,0,0,1,.62-.93,2.76,2.76,0,0,1,1.11-.66,3.87,3.87,0,0,1,1.28-.22,4,4,0,0,1,1.28.2,3.25,3.25,0,0,1,1.06.62,2.57,2.57,0,0,1,.74,1,.61.61,0,0,1,0,.24.32.32,0,0,1-.1.23.56.56,0,0,1-.28.16l-.35.11a.51.51,0,0,1-.64-.32,1.76,1.76,0,0,0-1.74-1,2,2,0,0,0-.94.21,1.26,1.26,0,0,0-.58.53,1.3,1.3,0,0,0-.17.63,1.06,1.06,0,0,0,.34.82,2.63,2.63,0,0,0,.9.54l1.46.54a4.5,4.5,0,0,1,.88.38,3.69,3.69,0,0,1,.82.62,2.3,2.3,0,0,1,.55.84,2.46,2.46,0,0,1,.16.82,2.56,2.56,0,0,1-1,2.08A3.83,3.83,0,0,1,142.63,116.09Z"/><path class="cls-1" d="M148.18,119.07a.56.56,0,0,1-.38-.13.51.51,0,0,1-.14-.37v-9.15a.5.5,0,0,1,.14-.37.52.52,0,0,1,.38-.13h.42a.45.45,0,0,1,.5.5V110a2.77,2.77,0,0,1,1.12-1,3.36,3.36,0,0,1,1.4-.3,3.4,3.4,0,0,1,1.4.28,3.11,3.11,0,0,1,1.11.78,3.61,3.61,0,0,1,.71,1.18,4.1,4.1,0,0,1,0,2.82,3.61,3.61,0,0,1-.71,1.18,3.26,3.26,0,0,1-1.11.79,3.4,3.4,0,0,1-1.4.29,3.36,3.36,0,0,1-1.4-.3,2.77,2.77,0,0,1-1.12-1v3.74a.51.51,0,0,1-.13.37.54.54,0,0,1-.37.13Zm3.23-4.24a2.25,2.25,0,0,0,1.14-.29,2.18,2.18,0,0,0,.79-.83,2.57,2.57,0,0,0,.31-1.29,2.54,2.54,0,0,0-.31-1.29,2.18,2.18,0,0,0-.79-.83,2.25,2.25,0,0,0-1.14-.29,2.19,2.19,0,0,0-1.67.69,2.54,2.54,0,0,0,0,3.44A2.19,2.19,0,0,0,151.41,114.83Z"/><path class="cls-1" d="M160.15,116.09a4.77,4.77,0,0,1-1.63-.28,3.69,3.69,0,0,1-1.28-.79,3.23,3.23,0,0,1-.79-1.17,3.5,3.5,0,0,1-.28-1.4,3.78,3.78,0,0,1,.28-1.42,3.59,3.59,0,0,1,.79-1.19,3.78,3.78,0,0,1,1.22-.79,4.15,4.15,0,0,1,2.77-.08,3.21,3.21,0,0,1,1.1.61,3.28,3.28,0,0,1,.81,1,3.77,3.77,0,0,1,.38,1.43.42.42,0,0,1-.1.37.49.49,0,0,1-.39.14H157.6a2,2,0,0,0,.7,1.62,2.76,2.76,0,0,0,1.86.64,3.36,3.36,0,0,0,1.91-.59.51.51,0,0,1,.71.07l.1.11a.51.51,0,0,1,.15.39.68.68,0,0,1-.25.41A4.07,4.07,0,0,1,160.15,116.09Zm-2.42-4.58h4.36a2,2,0,0,0-.46-.88,2,2,0,0,0-.74-.48A2.67,2.67,0,0,0,160,110a2.5,2.5,0,0,0-.95.17,2.11,2.11,0,0,0-.78.49A2.31,2.31,0,0,0,157.73,111.51Z"/><path class="cls-1" d="M168.49,116.09a4.55,4.55,0,0,1-1.64-.28,3.5,3.5,0,0,1-1.25-.76,3.35,3.35,0,0,1-.78-1.15,3.47,3.47,0,0,1-.28-1.4,3.93,3.93,0,0,1,.27-1.45,3.49,3.49,0,0,1,.77-1.19,3.38,3.38,0,0,1,1.25-.81,4.63,4.63,0,0,1,1.66-.28,4.22,4.22,0,0,1,2.12.57.45.45,0,0,1,.24.32.53.53,0,0,1-.1.39l-.12.14a.58.58,0,0,1-.26.21.53.53,0,0,1-.45-.07,3.11,3.11,0,0,0-1.36-.3,2.88,2.88,0,0,0-1,.17,2.49,2.49,0,0,0-.83.5,2.29,2.29,0,0,0-.54.76,2.49,2.49,0,0,0-.18,1,2.4,2.4,0,0,0,.33,1.22,2.08,2.08,0,0,0,.94.89,2.92,2.92,0,0,0,1.3.3,3.12,3.12,0,0,0,1.36-.31.66.66,0,0,1,.41-.08.4.4,0,0,1,.3.22l.1.14a.39.39,0,0,1,.09.32.48.48,0,0,1-.15.3,1.94,1.94,0,0,1-.29.21A4,4,0,0,1,168.49,116.09Z"/><path class="cls-1" d="M175,116.09a2.82,2.82,0,0,1-.8-.12,1.85,1.85,0,0,1-1.24-1.16,3,3,0,0,1-.18-1.1V110H172a.28.28,0,0,1-.2-.08.32.32,0,0,1-.08-.21v-.55a.26.26,0,0,1,.08-.2.24.24,0,0,1,.2-.08h.89l.25-1.61a.53.53,0,0,1,.14-.29.41.41,0,0,1,.31-.12h.29a.42.42,0,0,1,.3.13.43.43,0,0,1,.12.31v1.58h1.92a.24.24,0,0,1,.2.08.26.26,0,0,1,.08.2v.55a.32.32,0,0,1-.08.21.28.28,0,0,1-.2.08h-1.92v3.75a1.16,1.16,0,0,0,.23.79.75.75,0,0,0,.58.26.89.89,0,0,0,.58-.2.67.67,0,0,0,.25-.55l0-.27a.34.34,0,0,1,0-.23.23.23,0,0,1,.2-.09h.65a.29.29,0,0,1,.32.25,2.78,2.78,0,0,1,0,.52,1.65,1.65,0,0,1-.56,1.31A2.18,2.18,0,0,1,175,116.09Z"/><path class="cls-1" d="M178.91,115.93a.52.52,0,0,1-.38-.13.5.5,0,0,1-.14-.37v-6a.5.5,0,0,1,.14-.37.52.52,0,0,1,.38-.13h.42a.45.45,0,0,1,.5.5v1.07a2.85,2.85,0,0,1,.32-.79,1.79,1.79,0,0,1,.66-.68,1.75,1.75,0,0,1,.9-.25H182c.22,0,.33.21.33.56v.41c0,.34-.12.49-.38.43a1.5,1.5,0,0,0-.37,0,1.42,1.42,0,0,0-.82.26,2,2,0,0,0-.67.95,5.17,5.17,0,0,0-.28,1.91v2.17a.45.45,0,0,1-.5.5Z"/><path class="cls-1" d="M186.15,116.09a2.88,2.88,0,0,1-1.08-.2,2.29,2.29,0,0,1-.85-.59,2.8,2.8,0,0,1-.55-1,4.66,4.66,0,0,1-.2-1.41v-3.46a.5.5,0,0,1,.14-.37.48.48,0,0,1,.37-.13h.42a.51.51,0,0,1,.37.13.46.46,0,0,1,.14.37v3.45a3.63,3.63,0,0,0,.14,1,1.42,1.42,0,0,0,.49.73,1.3,1.3,0,0,0,.76.25,2,2,0,0,0,.68-.13,2,2,0,0,0,.71-.42,2.14,2.14,0,0,0,.57-.82,3.17,3.17,0,0,0,.22-1.25v-2.79a.5.5,0,0,1,.14-.37.49.49,0,0,1,.37-.13h.42a.53.53,0,0,1,.38.13.5.5,0,0,1,.14.37v6a.5.5,0,0,1-.14.37.53.53,0,0,1-.38.13H189a.49.49,0,0,1-.37-.13.5.5,0,0,1-.14-.37v-.87a2,2,0,0,1-.85,1.13A2.75,2.75,0,0,1,186.15,116.09Z"/><path class="cls-1" d="M192.54,115.93a.49.49,0,0,1-.37-.13.46.46,0,0,1-.14-.37v-6a.46.46,0,0,1,.14-.37.49.49,0,0,1,.37-.13H193a.48.48,0,0,1,.37.13.5.5,0,0,1,.14.37v.87a2.11,2.11,0,0,1,.37-.71,1.87,1.87,0,0,1,.77-.59,2.74,2.74,0,0,1,1.94-.08,2.21,2.21,0,0,1,.76.46,2.36,2.36,0,0,1,.58.84,2.44,2.44,0,0,1,2.38-1.44,2.5,2.5,0,0,1,2,.79A3.57,3.57,0,0,1,203,112v3.46a.54.54,0,0,1-.13.37.51.51,0,0,1-.37.13H202a.51.51,0,0,1-.37-.13.46.46,0,0,1-.14-.37V112a3,3,0,0,0-.17-1.06,1.39,1.39,0,0,0-.48-.66,1.24,1.24,0,0,0-.74-.22,1.74,1.74,0,0,0-.88.24,2,2,0,0,0-.72.79,3.36,3.36,0,0,0-.32,1.43v2.94a.45.45,0,0,1-.5.5h-.42a.52.52,0,0,1-.38-.13.5.5,0,0,1-.14-.37V112a2.77,2.77,0,0,0-.17-1.06,1.39,1.39,0,0,0-.48-.66,1.21,1.21,0,0,0-.73-.22,1.84,1.84,0,0,0-.61.11,1.74,1.74,0,0,0-.63.42,2,2,0,0,0-.49.82,3.63,3.63,0,0,0-.19,1.26v2.79a.5.5,0,0,1-.14.37.48.48,0,0,1-.37.13Z"/><path class="cls-1" d="M291.29,115.93a.42.42,0,0,1-.39-.16.44.44,0,0,1,0-.42l3.37-8.81a.66.66,0,0,1,.59-.41h.81a.58.58,0,0,1,.59.41l3.4,8.81a.44.44,0,0,1,0,.42.41.41,0,0,1-.38.16h-.45a.59.59,0,0,1-.6-.4l-.6-1.6h-4.68l-.6,1.6a.59.59,0,0,1-.59.4Zm2.07-3.2h3.84l-1.93-5.15Z"/><path class="cls-1" d="M301.86,107.65a.94.94,0,0,1-.69-.29.93.93,0,0,1-.28-.67,1,1,0,0,1,.28-.69.94.94,0,0,1,.69-.29,1,1,0,0,1,.71.29.94.94,0,0,1,.28.69.9.9,0,0,1-.29.67A1,1,0,0,1,301.86,107.65Zm-.2,8.28a.53.53,0,0,1-.38-.13.5.5,0,0,1-.14-.37v-6a.5.5,0,0,1,.14-.37.53.53,0,0,1,.38-.13h.42a.48.48,0,0,1,.37.13.5.5,0,0,1,.14.37v6a.5.5,0,0,1-.14.37.48.48,0,0,1-.37.13Z"/><path class="cls-1" d="M305.26,115.93a.53.53,0,0,1-.38-.13.5.5,0,0,1-.14-.37v-6a.5.5,0,0,1,.14-.37.53.53,0,0,1,.38-.13h.42a.49.49,0,0,1,.37.13.5.5,0,0,1,.14.37v1.07a2.81,2.81,0,0,1,.31-.79,1.87,1.87,0,0,1,.66-.68,1.75,1.75,0,0,1,.9-.25h.31c.22,0,.33.21.33.56v.41c0,.34-.12.49-.37.43a1.58,1.58,0,0,0-.38,0,1.39,1.39,0,0,0-.81.26,2,2,0,0,0-.67.95,5.17,5.17,0,0,0-.28,1.91v2.17a.5.5,0,0,1-.14.37.49.49,0,0,1-.37.13Z"/><path class="cls-1" d="M413.43,96.28h-4.28v3.18h3.67a.45.45,0,0,1,.5.5v.18a.52.52,0,0,1-.13.38.5.5,0,0,1-.37.14h-3.67v3h4.28a.57.57,0,0,1,.37.13.52.52,0,0,1,.14.38v.21a.51.51,0,0,1-.14.37.52.52,0,0,1-.37.13h-5.26a.49.49,0,0,1-.37-.13.51.51,0,0,1-.14-.37v-8.8a.51.51,0,0,1,.14-.37.49.49,0,0,1,.37-.13h5.26a.52.52,0,0,1,.37.13.51.51,0,0,1,.14.37v.21a.48.48,0,0,1-.14.37A.53.53,0,0,1,413.43,96.28Z"/><path class="cls-1" d="M418.53,105a3.34,3.34,0,0,1-2.51-1.07,3.61,3.61,0,0,1-.71-1.18,4.13,4.13,0,0,1,0-2.83,3.46,3.46,0,0,1,.71-1.17,3.26,3.26,0,0,1,1.11-.79,3.61,3.61,0,0,1,1.4-.28,3.28,3.28,0,0,1,1.39.3A2.68,2.68,0,0,1,421,99V95.24a.5.5,0,0,1,.14-.37.53.53,0,0,1,.38-.13H422a.49.49,0,0,1,.37.13.5.5,0,0,1,.14.37v9.12a.51.51,0,0,1-.14.37.49.49,0,0,1-.37.13h-.42a.53.53,0,0,1-.38-.13.51.51,0,0,1-.14-.37v-.61a2.68,2.68,0,0,1-1.11,1A3.28,3.28,0,0,1,418.53,105Zm.19-1.26a2.2,2.2,0,0,0,1.68-.68,2.44,2.44,0,0,0,.66-1.72,2.46,2.46,0,0,0-.66-1.73,2.2,2.2,0,0,0-1.68-.68,2.13,2.13,0,0,0-1.11.28,2.16,2.16,0,0,0-.8.84,2.82,2.82,0,0,0,0,2.57,2.14,2.14,0,0,0,.79.84A2.17,2.17,0,0,0,418.72,103.75Z"/><path class="cls-1" d="M427.57,105a3.43,3.43,0,0,1-1.4-.28,3.26,3.26,0,0,1-1.1-.79,3.64,3.64,0,0,1-.72-1.18,4.13,4.13,0,0,1,0-2.83,3.49,3.49,0,0,1,.72-1.17,3.13,3.13,0,0,1,1.1-.79,3.61,3.61,0,0,1,1.4-.28,3.32,3.32,0,0,1,1.4.3,2.81,2.81,0,0,1,1.11,1V95.24a.5.5,0,0,1,.14-.37.52.52,0,0,1,.38-.13H431a.45.45,0,0,1,.5.5v9.12a.51.51,0,0,1-.13.37.49.49,0,0,1-.37.13h-.42a.47.47,0,0,1-.52-.5v-.61a2.81,2.81,0,0,1-1.11,1A3.32,3.32,0,0,1,427.57,105Zm.2-1.26a2.18,2.18,0,0,0,1.67-.68,2.56,2.56,0,0,0,0-3.45,2.39,2.39,0,0,0-2.79-.4,2.23,2.23,0,0,0-.8.84,2.82,2.82,0,0,0,0,2.57,2.21,2.21,0,0,0,.79.84A2.18,2.18,0,0,0,427.77,103.75Z"/><path class="cls-1" d="M435.09,108a.41.41,0,0,1-.38-.17.44.44,0,0,1,0-.42l1.08-2.82-2.69-6.16a.4.4,0,0,1,0-.42.42.42,0,0,1,.39-.16H434a.57.57,0,0,1,.58.39l1.94,4.74,1.79-4.73a.64.64,0,0,1,.23-.3.69.69,0,0,1,.37-.1h.58a.42.42,0,0,1,.39.16.44.44,0,0,1,0,.42L436,107.6a.57.57,0,0,1-.58.4Z"/><path class="cls-1" d="M405.47,121.81a5.75,5.75,0,0,1-2.2-.4,4.93,4.93,0,0,1-1.69-1.09,4.76,4.76,0,0,1-1.05-1.63,5.22,5.22,0,0,1,0-3.86,4.76,4.76,0,0,1,1.05-1.63,5.1,5.1,0,0,1,1.69-1.1,5.94,5.94,0,0,1,2.2-.39,5.13,5.13,0,0,1,2.85.79.49.49,0,0,1,.17.7l-.12.23a.47.47,0,0,1-.71.17,5.08,5.08,0,0,0-2.19-.56,4.09,4.09,0,0,0-1.59.29,3.48,3.48,0,0,0-1.2.81,3.35,3.35,0,0,0-.75,1.19,4.06,4.06,0,0,0,0,2.86,3.48,3.48,0,0,0,.75,1.2,3.61,3.61,0,0,0,1.2.8,4.09,4.09,0,0,0,1.59.29,5.08,5.08,0,0,0,2.19-.56.47.47,0,0,1,.71.17l.12.23c.15.28.12.49-.08.64A5.15,5.15,0,0,1,405.47,121.81Z"/><path class="cls-1" d="M412.73,121.81a2.83,2.83,0,0,1-1.07-.19,2.2,2.2,0,0,1-.85-.6,2.64,2.64,0,0,1-.55-1,4.26,4.26,0,0,1-.2-1.4v-3.46a.45.45,0,0,1,.5-.5H411a.52.52,0,0,1,.38.13.5.5,0,0,1,.14.37v3.44a3.52,3.52,0,0,0,.14,1,1.36,1.36,0,0,0,.48.73,1.27,1.27,0,0,0,.77.25,2.27,2.27,0,0,0,.68-.12,2.5,2.5,0,0,0,.71-.42,2.22,2.22,0,0,0,.57-.82,3.17,3.17,0,0,0,.22-1.25v-2.79a.54.54,0,0,1,.13-.37.51.51,0,0,1,.37-.13H416a.52.52,0,0,1,.38.13.46.46,0,0,1,.14.37v6a.48.48,0,0,1-.14.37.52.52,0,0,1-.38.13h-.42a.51.51,0,0,1-.37-.13.55.55,0,0,1-.13-.37v-.87a2,2,0,0,1-.85,1.12A2.7,2.7,0,0,1,412.73,121.81Z"/><path class="cls-1" d="M419.13,121.66a.53.53,0,0,1-.38-.13.51.51,0,0,1-.14-.37v-6a.5.5,0,0,1,.14-.37.53.53,0,0,1,.38-.13h.42a.45.45,0,0,1,.5.5v1.06a3.36,3.36,0,0,1,.32-.79,1.85,1.85,0,0,1,1.56-.93l.31,0c.22,0,.33.21.33.56v.4c0,.35-.12.49-.37.44a1.65,1.65,0,0,0-.38,0,1.47,1.47,0,0,0-.81.26,2,2,0,0,0-.68.95,5.45,5.45,0,0,0-.28,1.92v2.17a.51.51,0,0,1-.13.37.49.49,0,0,1-.37.13Z"/><path class="cls-1" d="M424.31,121.66a.53.53,0,0,1-.38-.13.51.51,0,0,1-.14-.37v-6a.5.5,0,0,1,.14-.37.53.53,0,0,1,.38-.13h.42a.49.49,0,0,1,.37.13.5.5,0,0,1,.14.37v1.06a2.93,2.93,0,0,1,.31-.79,1.84,1.84,0,0,1,.66-.67,1.76,1.76,0,0,1,.9-.26l.31,0c.22,0,.33.21.33.56v.4c0,.35-.12.49-.37.44a1.58,1.58,0,0,0-.38,0,1.47,1.47,0,0,0-.81.26,2,2,0,0,0-.67.95,5.23,5.23,0,0,0-.28,1.92v2.17a.51.51,0,0,1-.14.37.49.49,0,0,1-.37.13Z"/><path class="cls-1" d="M432.29,121.81a4.54,4.54,0,0,1-1.63-.28,3.49,3.49,0,0,1-1.27-.78,3.44,3.44,0,0,1-.8-1.17,3.69,3.69,0,0,1-.27-1.41,3.85,3.85,0,0,1,.27-1.42,3.53,3.53,0,0,1,.8-1.18,3.58,3.58,0,0,1,1.21-.79,4,4,0,0,1,1.49-.29,4.23,4.23,0,0,1,1.28.2,3.56,3.56,0,0,1,1.11.62,3.36,3.36,0,0,1,.8,1,3.82,3.82,0,0,1,.38,1.43.44.44,0,0,1-.1.38.53.53,0,0,1-.39.14h-5.43a2,2,0,0,0,.7,1.62,2.77,2.77,0,0,0,1.87.63,3.32,3.32,0,0,0,1.9-.58.51.51,0,0,1,.71.07l.1.11a.51.51,0,0,1,.15.39.68.68,0,0,1-.25.41A4.1,4.1,0,0,1,432.29,121.81Zm-2.42-4.57h4.37a2.11,2.11,0,0,0-.47-.88,1.89,1.89,0,0,0-.74-.48,2.67,2.67,0,0,0-.91-.16,2.75,2.75,0,0,0-.95.17,2.13,2.13,0,0,0-.78.5A2.31,2.31,0,0,0,429.87,117.24Z"/><path class="cls-1" d="M437.71,121.66a.47.47,0,0,1-.52-.5v-6a.5.5,0,0,1,.14-.37.52.52,0,0,1,.38-.13h.42a.45.45,0,0,1,.5.5V116a2,2,0,0,1,.86-1.13,2.75,2.75,0,0,1,1.48-.4,2.92,2.92,0,0,1,1.08.2,2.37,2.37,0,0,1,.85.59,2.67,2.67,0,0,1,.56,1,4.66,4.66,0,0,1,.2,1.41v3.46a.51.51,0,0,1-.14.37.53.53,0,0,1-.38.13h-.42a.49.49,0,0,1-.37-.13.51.51,0,0,1-.13-.37v-3.45a3.06,3.06,0,0,0-.17-1.08,1.37,1.37,0,0,0-.49-.65,1.27,1.27,0,0,0-.74-.23,2.2,2.2,0,0,0-.66.12,2.05,2.05,0,0,0-1.3,1.23,3.24,3.24,0,0,0-.23,1.27v2.79a.51.51,0,0,1-.13.37.49.49,0,0,1-.37.13Z"/><path class="cls-1" d="M448.15,121.81a2.82,2.82,0,0,1-.8-.12,1.78,1.78,0,0,1-.74-.4,1.94,1.94,0,0,1-.5-.75,3.07,3.07,0,0,1-.18-1.11v-3.66h-.86a.25.25,0,0,1-.2-.09.29.29,0,0,1-.08-.21v-.54a.29.29,0,0,1,.08-.21.27.27,0,0,1,.2-.07H446l.26-1.61a.45.45,0,0,1,.14-.3.44.44,0,0,1,.3-.11h.3a.38.38,0,0,1,.3.13.41.41,0,0,1,.12.3v1.59h1.92a.27.27,0,0,1,.2.07.29.29,0,0,1,.08.21v.54a.29.29,0,0,1-.08.21.25.25,0,0,1-.2.09h-1.92v3.75a1.18,1.18,0,0,0,.23.79.75.75,0,0,0,.58.26.86.86,0,0,0,.58-.21.67.67,0,0,0,.25-.55l0-.26a.37.37,0,0,1,0-.24.23.23,0,0,1,.2-.09h.64a.3.3,0,0,1,.33.26,2.67,2.67,0,0,1,.05.51,1.67,1.67,0,0,1-.56,1.32A2.18,2.18,0,0,1,448.15,121.81Z"/><path class="cls-1" d="M544.64,106.13a.5.5,0,0,1,.37.14.48.48,0,0,1,.13.37v.21a.45.45,0,0,1-.5.5h-4.28v3.18H544a.52.52,0,0,1,.38.13.5.5,0,0,1,.14.37v.19a.51.51,0,0,1-.14.37.48.48,0,0,1-.38.14h-3.66v3.7a.5.5,0,0,1-.14.37.49.49,0,0,1-.37.13h-.47a.52.52,0,0,1-.38-.13.54.54,0,0,1-.13-.37v-8.79a.47.47,0,0,1,.51-.51Z"/><path class="cls-1" d="M547.27,115.93a.53.53,0,0,1-.38-.13.5.5,0,0,1-.14-.37v-9.11a.52.52,0,0,1,.14-.38.58.58,0,0,1,.38-.13h.42a.54.54,0,0,1,.37.13.52.52,0,0,1,.14.38v9.11a.5.5,0,0,1-.14.37.49.49,0,0,1-.37.13Z"/><path class="cls-1" d="M553.53,116.09a3.78,3.78,0,0,1-1.42-.28,3.67,3.67,0,0,1-2-2,3.55,3.55,0,0,1,0-2.81,3.68,3.68,0,0,1,.8-1.18,3.86,3.86,0,0,1,1.19-.79,3.6,3.6,0,0,1,1.42-.28,3.72,3.72,0,0,1,1.43.28,3.91,3.91,0,0,1,1.2.79,3.6,3.6,0,0,1,0,5.17,3.81,3.81,0,0,1-2.63,1.08Zm0-1.26a2.23,2.23,0,0,0,1.13-.32,2.15,2.15,0,0,0,.85-.89,2.59,2.59,0,0,0,.3-1.19,2.62,2.62,0,0,0-.3-1.19,2.11,2.11,0,0,0-.85-.9,2.27,2.27,0,0,0-1.13-.31,2.35,2.35,0,0,0-.71.12,2.19,2.19,0,0,0-.73.43,2.65,2.65,0,0,0-.58.78,2.2,2.2,0,0,0-.25,1.07,2.59,2.59,0,0,0,.3,1.19,2.29,2.29,0,0,0,2,1.21Z"/><path class="cls-1" d="M561.8,116.09a3.44,3.44,0,0,1-1.4-.29,3.22,3.22,0,0,1-1.1-.79,3.64,3.64,0,0,1-.72-1.18,4.14,4.14,0,0,1-.25-1.41,4.1,4.1,0,0,1,.25-1.41,3.64,3.64,0,0,1,.72-1.18,3.07,3.07,0,0,1,1.1-.78,3.43,3.43,0,0,1,1.4-.28,3.32,3.32,0,0,1,1.4.3,2.81,2.81,0,0,1,1.11,1v-.61a.5.5,0,0,1,.14-.37.52.52,0,0,1,.38-.13h.42a.45.45,0,0,1,.5.5v6a.45.45,0,0,1-.5.5h-.42a.52.52,0,0,1-.38-.13.5.5,0,0,1-.14-.37v-.6a2.81,2.81,0,0,1-1.11,1A3.32,3.32,0,0,1,561.8,116.09Zm.2-1.26a2.22,2.22,0,0,0,1.67-.68,2.57,2.57,0,0,0,0-3.46,2.24,2.24,0,0,0-3.59.44,2.65,2.65,0,0,0-.31,1.29,2.67,2.67,0,0,0,.31,1.29,2.26,2.26,0,0,0,.79.83A2.21,2.21,0,0,0,562,114.83Z"/><path class="cls-1" d="M570.44,116.09a2.82,2.82,0,0,1-.8-.12,1.85,1.85,0,0,1-1.24-1.16,3,3,0,0,1-.18-1.1V110h-.86a.28.28,0,0,1-.2-.08.32.32,0,0,1-.08-.21v-.55a.26.26,0,0,1,.08-.2.24.24,0,0,1,.2-.08h.88l.25-1.61a.48.48,0,0,1,.15-.29.41.41,0,0,1,.3-.12h.3a.42.42,0,0,1,.3.13.43.43,0,0,1,.12.31v1.58h1.91a.25.25,0,0,1,.21.08.26.26,0,0,1,.08.2v.55a.32.32,0,0,1-.08.21.29.29,0,0,1-.21.08h-1.91v3.75a1.11,1.11,0,0,0,.23.79.75.75,0,0,0,.58.26.91.91,0,0,0,.58-.2.7.7,0,0,0,.25-.55l0-.27a.3.3,0,0,1,.05-.23.23.23,0,0,1,.2-.09h.64a.29.29,0,0,1,.33.25,2.78,2.78,0,0,1,0,.52,1.68,1.68,0,0,1-.56,1.31A2.2,2.2,0,0,1,570.44,116.09Z"/><path class="cls-1" d="M101.58,115.93V105.86l6.77,5Z"/><path class="cls-1" d="M234.13,115.93V105.86l6.77,5Z"/><path class="cls-1" d="M355.7,115.93V105.86l6.77,5Z"/><path class="cls-1" d="M483.46,115.93V105.86l6.77,5Z"/><path class="cls-2" d="M526.67,20.35c5.69,0,5.69,4.44,11.38,4.44s5.69-4.44,11.38-4.44,5.69,4.44,11.39,4.44,5.69-4.44,11.39-4.44,5.69,4.44,11.39,4.44"/><path class="cls-2" d="M526.67,26.34c5.69,0,5.69,4.43,11.38,4.43s5.69-4.43,11.38-4.43,5.69,4.43,11.39,4.43,5.69-4.43,11.39-4.43,5.69,4.43,11.39,4.43"/><path class="cls-2" d="M526.67,32.32c5.69,0,5.69,4.44,11.38,4.44s5.69-4.44,11.38-4.44,5.69,4.44,11.39,4.44,5.69-4.44,11.39-4.44,5.69,4.44,11.39,4.44"/><path class="cls-2" d="M273.47,37.07s14.19-20.89,27.34-14.27c15.53,7.81,18.64-3.34,18-8.86"/><path class="cls-2" d="M275.66,44.17S288.11,21,303.58,29s21.53-3.86,20.87-9.38"/><path class="cls-2" d="M277.47,52s13.75-25.37,28.88-16.81,22.73-3.56,23.12-9.44"/><circle class="cls-3" cx="172.16" cy="59.35" r="3.93"/><circle class="cls-4" cx="306.72" cy="57.84" r="3.93"/><circle class="cls-3" cx="41.88" cy="59.72" r="3.12"/><circle class="cls-3" cx="441.72" cy="54.37" r="1.97"/><circle class="cls-3" cx="295.92" cy="57.88" r="1.97"/><circle class="cls-3" cx="548.16" cy="55.16" r="2.96"/><circle class="cls-5" cx="53.24" cy="58.91" r="3.93"/><circle class="cls-5" cx="560.07" cy="48.39" r="3.93"/><circle class="cls-1" cx="313.79" cy="5.51" r="3.44"/><circle class="cls-1" cx="564.38" cy="20.91" r="3.44"/><path class="cls-2" d="M441.07,2.9C432.4,7.81,426.35,19,426.35,32s6,24.19,14.72,29.11"/><path class="cls-2" d="M405.94,61.11C414.6,56.19,420.65,45,420.65,32s-6-24.19-14.71-29.1"/><circle class="cls-1" cx="412.27" cy="8.83" r="3.44"/><polygon class="cls-6" points="156.33 46.9 149.23 46.9 171.86 6.58 178.96 6.58 156.33 46.9"/><polygon class="cls-7" points="165.39 46.9 158.29 46.9 180.92 6.58 188.02 6.58 165.39 46.9"/><polygon class="cls-8" points="174.38 46.9 167.28 46.9 189.9 6.58 197.01 6.58 174.38 46.9"/><polygon class="cls-9" points="182.97 46.9 175.86 46.9 198.49 6.58 205.59 6.58 182.97 46.9"/><circle class="cls-1" cx="183.62" cy="45.8" r="3.44"/><circle class="cls-1" cx="38.02" cy="22.48" r="3.44"/><circle class="cls-1" cx="51.84" cy="33.14" r="2.56"/><path class="cls-10" d="M434.83,18.94c0,4.56-9.93,5.49-12.25,5.49s-9-.34-9-2.28,6.36-2.2,8.78-2.2,12.48,1.19,12.48,5.5-7.51,5.32-12,5.32-9.25-.59-9.25-2.2,5.89-2.2,9.13-2.2,12.13,1.44,12.13,5.5c0,4.31-7.51,5.32-12,5.32s-9.25-.59-9.25-2.2,5.89-2.19,9.13-2.19,12.13,1.43,12.13,5.49"/><path class="cls-10" d="M434.83,38.29c0,4.56-9.93,5.49-12.25,5.49s-9-.34-9-2.28,6.36-2.2,8.78-2.2,12.48,1.18,12.48,5.49"/><rect class="cls-9" x="18.1" y="12.5" width="53.8" height="6.54"/></svg>