<svg id="Layer_2" data-name="Layer 2" xmlns="http://www.w3.org/2000/svg" viewBox="0 0 226.43 132.57"><defs><style>.cls-1{fill:#fff;}.cls-2,.cls-4{fill:#c8c2c2;}.cls-3{fill:none;stroke:#fff;stroke-miterlimit:10;stroke-width:1.63px;}.cls-4{opacity:0.4;}.cls-5{fill:#bfc723;}</style></defs><title>fig2</title><circle class="cls-1" cx="175.85" cy="51.37" r="3.12"/><circle class="cls-1" cx="165.07" cy="48.25" r="3.93"/><circle class="cls-1" cx="33.18" cy="28.8" r="2.84"/><circle class="cls-1" cx="42.68" cy="33.15" r="3.93"/><circle class="cls-1" cx="64.43" cy="25.55" r="3.93"/><path class="cls-1" d="M22.53,101.24a3.19,3.19,0,0,1,1,.17,2.58,2.58,0,0,1,1,.55,3.22,3.22,0,0,1,.71,1,3.43,3.43,0,0,1,.28,1.4,3.28,3.28,0,0,1-.21,1.17,2.84,2.84,0,0,1-.58,1,2.77,2.77,0,0,1-.95.65,3.13,3.13,0,0,1-1.25.24H20.06v3.16a.52.52,0,0,1-.14.38.54.54,0,0,1-.37.13h-.47a.46.46,0,0,1-.51-.51v-8.79a.54.54,0,0,1,.13-.37.52.52,0,0,1,.38-.13Zm-.29,4.94A2.13,2.13,0,0,0,23,106a1.46,1.46,0,0,0,.68-.63,2.05,2.05,0,0,0,.27-1,2.5,2.5,0,0,0-.15-.82,1.61,1.61,0,0,0-1.6-1.05H20.06v3.72Z"/><path class="cls-1" d="M27.56,111a.58.58,0,0,1-.38-.13.52.52,0,0,1-.14-.38v-9.11a.5.5,0,0,1,.14-.37.53.53,0,0,1,.38-.13H28a.45.45,0,0,1,.5.5v4a2,2,0,0,1,.86-1.13,2.67,2.67,0,0,1,1.48-.4,2.92,2.92,0,0,1,1.08.2,2.29,2.29,0,0,1,.85.59,2.6,2.6,0,0,1,.56,1,4.61,4.61,0,0,1,.2,1.41v3.45a.52.52,0,0,1-.14.38A.56.56,0,0,1,33,111h-.42a.54.54,0,0,1-.37-.13.52.52,0,0,1-.13-.38v-3.44A3.06,3.06,0,0,0,31.9,106a1.4,1.4,0,0,0-.49-.66,1.32,1.32,0,0,0-.74-.22,2.2,2.2,0,0,0-.66.12,2.33,2.33,0,0,0-.73.41,2.22,2.22,0,0,0-.57.82,3.2,3.2,0,0,0-.23,1.27v2.78a.52.52,0,0,1-.13.38A.54.54,0,0,1,28,111Z"/><path class="cls-1" d="M36.74,114.17a.42.42,0,0,1-.38-.16.47.47,0,0,1,0-.42l1.08-2.82-2.69-6.16a.44.44,0,0,1,0-.42.45.45,0,0,1,.39-.17h.56a.57.57,0,0,1,.58.4l1.94,4.74,1.8-4.73a.53.53,0,0,1,.23-.3.65.65,0,0,1,.37-.11h.57a.43.43,0,0,1,.39.17.39.39,0,0,1,0,.42l-3.9,9.17a.58.58,0,0,1-.59.39Z"/><path class="cls-1" d="M45,111.19a3.17,3.17,0,0,1-1.51-.35,2.31,2.31,0,0,1-1-1,.37.37,0,0,1,0-.39.61.61,0,0,1,.36-.24l.29-.08a.6.6,0,0,1,.63.29,1.41,1.41,0,0,0,.56.42A1.7,1.7,0,0,0,45,110a1.32,1.32,0,0,0,.84-.27.81.81,0,0,0,.34-.66c0-.37-.29-.65-.87-.85l-.94-.32a3.24,3.24,0,0,1-1-.5,1.65,1.65,0,0,1-.57-.69,1.82,1.82,0,0,1-.16-.73,1.91,1.91,0,0,1,.66-1.5,2.41,2.41,0,0,1,1.69-.6,2.91,2.91,0,0,1,1.26.27,2,2,0,0,1,.89.88.41.41,0,0,1,0,.41.45.45,0,0,1-.35.23l-.26.06a.55.55,0,0,1-.31,0,.81.81,0,0,1-.35-.3,1.07,1.07,0,0,0-.85-.36,1,1,0,0,0-.73.25.8.8,0,0,0-.28.62q0,.55.81.81l1,.34a2.43,2.43,0,0,1,1.31.82,2,2,0,0,1,.4,1.18,2.1,2.1,0,0,1-.14.73,1.76,1.76,0,0,1-.45.68,2.49,2.49,0,0,1-.82.51A3.1,3.1,0,0,1,45,111.19Z"/><path class="cls-1" d="M49.83,102.75a1,1,0,0,1-1-1,.94.94,0,0,1,.28-.69.87.87,0,0,1,.68-.29,1,1,0,0,1,1,1,.89.89,0,0,1-.3.67A1,1,0,0,1,49.83,102.75ZM49.64,111a.56.56,0,0,1-.38-.13.52.52,0,0,1-.14-.38v-6a.5.5,0,0,1,.14-.37.52.52,0,0,1,.38-.14h.42a.5.5,0,0,1,.37.14.49.49,0,0,1,.13.37v6a.52.52,0,0,1-.13.38.54.54,0,0,1-.37.13Z"/><path class="cls-1" d="M56.16,111.19a4.78,4.78,0,0,1-1.64-.27,3.65,3.65,0,0,1-1.25-.76,3.35,3.35,0,0,1-.78-1.15,3.5,3.5,0,0,1-.28-1.4,3.89,3.89,0,0,1,.27-1.45,3.63,3.63,0,0,1,.77-1.2,3.49,3.49,0,0,1,1.25-.8,4.63,4.63,0,0,1,1.66-.29,4.22,4.22,0,0,1,2.12.57.48.48,0,0,1,.24.33.53.53,0,0,1-.1.39l-.12.14a.75.75,0,0,1-.26.21.56.56,0,0,1-.45-.07,3,3,0,0,0-1.36-.31,2.88,2.88,0,0,0-1,.18,2.47,2.47,0,0,0-.83.49,2.33,2.33,0,0,0-.54.77,2.52,2.52,0,0,0,.15,2.18,2.06,2.06,0,0,0,.94.88,2.92,2.92,0,0,0,1.3.3,3,3,0,0,0,1.36-.31.74.74,0,0,1,.41-.08.43.43,0,0,1,.3.22l.1.14a.41.41,0,0,1,.09.33.43.43,0,0,1-.15.29,1.94,1.94,0,0,1-.29.21A3.89,3.89,0,0,1,56.16,111.19Z"/><path class="cls-1" d="M63,111.19a3.37,3.37,0,0,1-1.4-.28,3.43,3.43,0,0,1-1.11-.8,3.31,3.31,0,0,1-.71-1.17,4,4,0,0,1,0-2.83,3.45,3.45,0,0,1,.71-1.18A3.38,3.38,0,0,1,63,103.87a3.31,3.31,0,0,1,1.39.3,2.81,2.81,0,0,1,1.11,1v-.6a.5.5,0,0,1,.14-.37A.52.52,0,0,1,66,104h.42a.5.5,0,0,1,.37.14.49.49,0,0,1,.13.37v6a.52.52,0,0,1-.13.38.54.54,0,0,1-.37.13H66a.56.56,0,0,1-.38-.13.52.52,0,0,1-.14-.38v-.6a2.81,2.81,0,0,1-1.11,1A3.31,3.31,0,0,1,63,111.19Zm.19-1.26a2.18,2.18,0,0,0,1.67-.68,2.56,2.56,0,0,0,0-3.45,2.39,2.39,0,0,0-2.79-.4,2.24,2.24,0,0,0-.8.84,2.9,2.9,0,0,0,0,2.57,2.29,2.29,0,0,0,.79.84A2.2,2.2,0,0,0,63.16,109.93Z"/><path class="cls-1" d="M69.59,111a.56.56,0,0,1-.38-.13.52.52,0,0,1-.14-.38v-9.11a.5.5,0,0,1,.14-.37.52.52,0,0,1,.38-.13H70a.45.45,0,0,1,.5.5v9.11a.52.52,0,0,1-.13.38A.54.54,0,0,1,70,111Z"/><path class="cls-1" d="M19.31,127.84a.54.54,0,0,1-.56-.42L16,118.63a.51.51,0,0,1,0-.43.45.45,0,0,1,.39-.16h.45a.61.61,0,0,1,.36.11.69.69,0,0,1,.21.31l2.14,6.89,2.05-6.57a.53.53,0,0,1,.56-.42h.32a.61.61,0,0,1,.36.11.51.51,0,0,1,.21.31l2,6.57,2.16-6.89a.56.56,0,0,1,.57-.42h.44a.43.43,0,0,1,.39.17.43.43,0,0,1,0,.42L26,127.42a.62.62,0,0,1-.21.31.67.67,0,0,1-.37.11H25a.65.65,0,0,1-.37-.11.62.62,0,0,1-.21-.31l-2.08-6.81-2.1,6.81a.55.55,0,0,1-.56.42Z"/><path class="cls-1" d="M32.63,128a3.3,3.3,0,0,1-2.51-1.08,3.46,3.46,0,0,1-.71-1.17,4.13,4.13,0,0,1,0-2.83,3.61,3.61,0,0,1,.71-1.18,3.38,3.38,0,0,1,2.51-1.06A3.28,3.28,0,0,1,34,121a2.74,2.74,0,0,1,1.11,1v-.6a.5.5,0,0,1,.14-.37.54.54,0,0,1,.38-.14h.42a.48.48,0,0,1,.51.51v6a.52.52,0,0,1-.14.38.54.54,0,0,1-.37.13h-.42a.58.58,0,0,1-.38-.13.52.52,0,0,1-.14-.38v-.6a2.74,2.74,0,0,1-1.11,1A3.28,3.28,0,0,1,32.63,128Zm.19-1.26a2.2,2.2,0,0,0,1.68-.68,2.46,2.46,0,0,0,.66-1.73,2.44,2.44,0,0,0-.66-1.72,2.4,2.4,0,0,0-2.8-.4,2.14,2.14,0,0,0-.79.84,2.82,2.82,0,0,0,0,2.57,2,2,0,0,0,1.91,1.12Z"/><path class="cls-1" d="M40.78,128a3.21,3.21,0,0,1-1.52-.35,2.34,2.34,0,0,1-1-1,.35.35,0,0,1,0-.39.61.61,0,0,1,.35-.24l.3-.08a.6.6,0,0,1,.63.29,1.34,1.34,0,0,0,.56.42,1.7,1.7,0,0,0,.74.16,1.29,1.29,0,0,0,.83-.27.79.79,0,0,0,.35-.66c0-.37-.29-.65-.87-.85l-.94-.32a3.24,3.24,0,0,1-1-.5,1.76,1.76,0,0,1-.58-.69,2,2,0,0,1-.15-.73,1.91,1.91,0,0,1,.66-1.5,2.41,2.41,0,0,1,1.69-.6,2.83,2.83,0,0,1,1.25.27,2,2,0,0,1,.89.88.39.39,0,0,1,0,.41.45.45,0,0,1-.35.23l-.26.06a.54.54,0,0,1-.31,0,.81.81,0,0,1-.35-.3,1.07,1.07,0,0,0-.86-.36,1,1,0,0,0-.73.25.83.83,0,0,0-.27.62q0,.55.81.81l1,.34a2.4,2.4,0,0,1,1.3.82,1.89,1.89,0,0,1,.4,1.18,2.08,2.08,0,0,1-.13.73,1.76,1.76,0,0,1-.45.68,2.49,2.49,0,0,1-.82.51A3.17,3.17,0,0,1,40.78,128Z"/><path class="cls-1" d="M45.42,127.84a.54.54,0,0,1-.37-.13.48.48,0,0,1-.14-.38v-9.11a.46.46,0,0,1,.14-.37.49.49,0,0,1,.37-.13h.42a.48.48,0,0,1,.37.13.5.5,0,0,1,.14.37v4a2,2,0,0,1,.85-1.13,2.7,2.7,0,0,1,1.49-.4,2.83,2.83,0,0,1,1.07.2,2.41,2.41,0,0,1,.86.59,2.73,2.73,0,0,1,.56,1,4.63,4.63,0,0,1,.19,1.41v3.45a.48.48,0,0,1-.14.38.55.55,0,0,1-.37.13h-.42a.46.46,0,0,1-.51-.51v-3.44a3.06,3.06,0,0,0-.17-1.08,1.34,1.34,0,0,0-.49-.66,1.32,1.32,0,0,0-.74-.22,2.23,2.23,0,0,0-1.38.53,2.12,2.12,0,0,0-.58.82,3.21,3.21,0,0,0-.22,1.27v2.78a.47.47,0,0,1-.51.51Z"/><path class="cls-1" d="M54.12,119.55a.94.94,0,0,1-.69-.28.91.91,0,0,1-.28-.67.94.94,0,0,1,.28-.69,1,1,0,0,1,1.68.69.92.92,0,0,1-.29.67A1,1,0,0,1,54.12,119.55Zm-.2,8.29a.58.58,0,0,1-.38-.13.52.52,0,0,1-.14-.38v-6a.5.5,0,0,1,.14-.37.54.54,0,0,1,.38-.14h.42a.48.48,0,0,1,.51.51v6a.52.52,0,0,1-.14.38.54.54,0,0,1-.37.13Z"/><path class="cls-1" d="M57.52,127.84a.56.56,0,0,1-.38-.13.52.52,0,0,1-.14-.38v-6a.5.5,0,0,1,.14-.37.52.52,0,0,1,.38-.14h.42a.5.5,0,0,1,.37.14.49.49,0,0,1,.13.37v.87a2,2,0,0,1,.86-1.13,2.67,2.67,0,0,1,1.48-.4,2.92,2.92,0,0,1,1.08.2,2.29,2.29,0,0,1,.85.59,2.6,2.6,0,0,1,.56,1,4.61,4.61,0,0,1,.2,1.41v3.45a.52.52,0,0,1-.14.38.56.56,0,0,1-.38.13h-.42a.54.54,0,0,1-.37-.13.52.52,0,0,1-.13-.38v-3.44a3.06,3.06,0,0,0-.17-1.08,1.4,1.4,0,0,0-.49-.66,1.34,1.34,0,0,0-.74-.22,2.2,2.2,0,0,0-.66.12,2.05,2.05,0,0,0-1.3,1.23,3.2,3.2,0,0,0-.23,1.27v2.78a.52.52,0,0,1-.13.38.54.54,0,0,1-.37.13Z"/><path class="cls-1" d="M68.69,131.13A4.74,4.74,0,0,1,66,130.4a.49.49,0,0,1-.15-.7l.11-.2c.15-.3.38-.36.69-.16a3.44,3.44,0,0,0,1,.41,4.08,4.08,0,0,0,1,.13,2.26,2.26,0,0,0,1.65-.59,2.18,2.18,0,0,0,.62-1.66v-.9a2.77,2.77,0,0,1-1.12,1,3.28,3.28,0,0,1-1.39.3,3.51,3.51,0,0,1-1.41-.28,3.44,3.44,0,0,1-1.82-2,4.19,4.19,0,0,1-.24-1.42,4.08,4.08,0,0,1,.24-1.4,3.46,3.46,0,0,1,.71-1.17A3.26,3.26,0,0,1,67,121a3.52,3.52,0,0,1,1.41-.29,3.28,3.28,0,0,1,1.39.3,2.77,2.77,0,0,1,1.12,1v-.62a.45.45,0,0,1,.14-.35.5.5,0,0,1,.37-.14h.41a.54.54,0,0,1,.38.14.5.5,0,0,1,.14.37v6.4a3.39,3.39,0,0,1-.45,1.8,3.06,3.06,0,0,1-1.27,1.17A4.19,4.19,0,0,1,68.69,131.13Zm0-4.4a2.19,2.19,0,0,0,1.67-.68,2.46,2.46,0,0,0,.66-1.73,2.44,2.44,0,0,0-.66-1.72,2.19,2.19,0,0,0-1.67-.68,2.17,2.17,0,0,0-1.12.28,2.09,2.09,0,0,0-.8.84,2.82,2.82,0,0,0,0,2.57,2.21,2.21,0,0,0,.79.84A2.18,2.18,0,0,0,68.64,126.73Z"/><path class="cls-1" d="M147.68,111.19a5.75,5.75,0,0,1-2.2-.4,4.8,4.8,0,0,1-2.75-2.72,5.35,5.35,0,0,1,0-3.86,4.94,4.94,0,0,1,1.06-1.63,5.1,5.1,0,0,1,1.69-1.1,5.94,5.94,0,0,1,2.2-.4,5.14,5.14,0,0,1,2.85.8.49.49,0,0,1,.17.7l-.13.23c-.16.28-.39.33-.7.16a5.12,5.12,0,0,0-1.05-.39,4.44,4.44,0,0,0-1.14-.17,4.09,4.09,0,0,0-1.59.3,3.46,3.46,0,0,0-1.2.8,3.39,3.39,0,0,0-.75,1.2,4.07,4.07,0,0,0-.26,1.43,4.11,4.11,0,0,0,.26,1.43,3.44,3.44,0,0,0,.75,1.19,3.63,3.63,0,0,0,1.2.81,4.29,4.29,0,0,0,1.59.29,4.4,4.4,0,0,0,1.14-.16,5.11,5.11,0,0,0,1.05-.4.45.45,0,0,1,.7.17l.13.22c.15.28.12.5-.08.65A5.15,5.15,0,0,1,147.68,111.19Z"/><path class="cls-1" d="M152.88,111a.55.55,0,0,1-.37-.13.48.48,0,0,1-.14-.38v-9.11a.46.46,0,0,1,.14-.37.51.51,0,0,1,.37-.13h.42a.52.52,0,0,1,.38.13.54.54,0,0,1,.13.37v4a2,2,0,0,1,.85-1.13,2.7,2.7,0,0,1,1.49-.4,2.83,2.83,0,0,1,1.07.2,2.32,2.32,0,0,1,.86.59,2.73,2.73,0,0,1,.56,1,4.63,4.63,0,0,1,.19,1.41v3.45a.48.48,0,0,1-.14.38.55.55,0,0,1-.37.13h-.42a.47.47,0,0,1-.51-.51v-3.44a2.85,2.85,0,0,0-.17-1.08,1.34,1.34,0,0,0-.49-.66,1.32,1.32,0,0,0-.74-.22,2.32,2.32,0,0,0-.66.12,2.19,2.19,0,0,0-.72.41,2.12,2.12,0,0,0-.58.82,3.21,3.21,0,0,0-.22,1.27v2.78a.46.46,0,0,1-.51.51Z"/><path class="cls-1" d="M164.28,111.19a4.54,4.54,0,0,1-1.63-.28,3.67,3.67,0,0,1-1.28-.78,3.41,3.41,0,0,1-.79-1.17,3.51,3.51,0,0,1-.28-1.41,3.82,3.82,0,0,1,.28-1.42,3.55,3.55,0,0,1,.79-1.18,3.62,3.62,0,0,1,1.22-.79,4,4,0,0,1,1.49-.29,4.23,4.23,0,0,1,1.28.2,3.23,3.23,0,0,1,1.1.62,3.13,3.13,0,0,1,.81,1,3.82,3.82,0,0,1,.38,1.43.44.44,0,0,1-.1.38.53.53,0,0,1-.39.14h-5.43a2,2,0,0,0,.7,1.62,2.76,2.76,0,0,0,1.86.63,3.29,3.29,0,0,0,1.91-.59.52.52,0,0,1,.71.07l.1.12a.51.51,0,0,1,.15.39.66.66,0,0,1-.25.4A4,4,0,0,1,164.28,111.19Zm-2.42-4.58h4.37a2.13,2.13,0,0,0-.47-.87,1.89,1.89,0,0,0-.74-.48,2.45,2.45,0,0,0-.91-.16,2.75,2.75,0,0,0-1,.17,2.13,2.13,0,0,0-.78.5A2.35,2.35,0,0,0,161.86,106.61Z"/><path class="cls-1" d="M169.7,111a.56.56,0,0,1-.38-.13.52.52,0,0,1-.14-.38v-6a.5.5,0,0,1,.14-.37.52.52,0,0,1,.38-.14h.42a.5.5,0,0,1,.37.14.49.49,0,0,1,.13.37v.87a2.35,2.35,0,0,1,.37-.72,2,2,0,0,1,.77-.59,2.73,2.73,0,0,1,1.07-.22,2.57,2.57,0,0,1,.87.15,2.25,2.25,0,0,1,.76.45,2.57,2.57,0,0,1,.59.84,2.44,2.44,0,0,1,2.38-1.44,2.51,2.51,0,0,1,2,.8,3.54,3.54,0,0,1,.7,2.41v3.45a.52.52,0,0,1-.13.38.54.54,0,0,1-.37.13h-.42a.58.58,0,0,1-.38-.13.52.52,0,0,1-.14-.38v-3.45a2.83,2.83,0,0,0-.17-1.07,1.39,1.39,0,0,0-.48-.66,1.28,1.28,0,0,0-.73-.22,1.69,1.69,0,0,0-.89.25,1.91,1.91,0,0,0-.71.79,3.17,3.17,0,0,0-.32,1.42v2.94a.46.46,0,0,1-.51.51h-.42a.54.54,0,0,1-.37-.13.48.48,0,0,1-.14-.38v-3.45a3,3,0,0,0-.17-1.07,1.34,1.34,0,0,0-.49-.66,1.28,1.28,0,0,0-.73-.22,1.85,1.85,0,0,0-1.24.53,2.23,2.23,0,0,0-.49.82,3.65,3.65,0,0,0-.19,1.27v2.78a.52.52,0,0,1-.13.38.54.54,0,0,1-.37.13Z"/><path class="cls-1" d="M182.88,102.75a1,1,0,0,1-1-1,.94.94,0,0,1,.28-.69.89.89,0,0,1,.68-.29,1,1,0,0,1,1,1,.89.89,0,0,1-.3.67A.94.94,0,0,1,182.88,102.75Zm-.19,8.29a.56.56,0,0,1-.38-.13.52.52,0,0,1-.14-.38v-6a.5.5,0,0,1,.14-.37.52.52,0,0,1,.38-.14h.42a.5.5,0,0,1,.37.14.49.49,0,0,1,.13.37v6a.52.52,0,0,1-.13.38.54.54,0,0,1-.37.13Z"/><path class="cls-1" d="M189.21,111.19a4.72,4.72,0,0,1-1.63-.27,3.6,3.6,0,0,1-1.26-.76,3.35,3.35,0,0,1-.78-1.15,3.67,3.67,0,0,1-.27-1.4,3.89,3.89,0,0,1,.26-1.45,3.79,3.79,0,0,1,.77-1.2,3.58,3.58,0,0,1,1.25-.8,4.67,4.67,0,0,1,1.66-.29,4.22,4.22,0,0,1,2.12.57.48.48,0,0,1,.14.72l-.11.14a.9.9,0,0,1-.27.21.56.56,0,0,1-.45-.07,3,3,0,0,0-1.36-.31,2.88,2.88,0,0,0-1,.18,2.33,2.33,0,0,0-.82.49,2.07,2.07,0,0,0-.54.77,2.3,2.3,0,0,0-.19,1,2.47,2.47,0,0,0,.33,1.23,2.11,2.11,0,0,0,.94.88,3,3,0,0,0,1.3.3,3,3,0,0,0,1.36-.31.74.74,0,0,1,.41-.08.47.47,0,0,1,.31.22l.09.14a.41.41,0,0,1,.09.33.43.43,0,0,1-.15.29,1.54,1.54,0,0,1-.29.21A3.89,3.89,0,0,1,189.21,111.19Z"/><path class="cls-1" d="M196,111.19a3.3,3.3,0,0,1-2.51-1.08,3.46,3.46,0,0,1-.71-1.17,4.13,4.13,0,0,1,0-2.83,3.61,3.61,0,0,1,.71-1.18,3.38,3.38,0,0,1,2.51-1.06,3.28,3.28,0,0,1,1.39.3,2.74,2.74,0,0,1,1.11,1v-.6a.5.5,0,0,1,.14-.37A.54.54,0,0,1,199,104h.42a.48.48,0,0,1,.51.51v6a.52.52,0,0,1-.14.38.54.54,0,0,1-.37.13H199a.58.58,0,0,1-.38-.13.52.52,0,0,1-.14-.38v-.6a2.74,2.74,0,0,1-1.11,1A3.28,3.28,0,0,1,196,111.19Zm.19-1.26a2.2,2.2,0,0,0,1.68-.68,2.46,2.46,0,0,0,.66-1.73,2.44,2.44,0,0,0-.66-1.72,2.4,2.4,0,0,0-2.8-.4,2.14,2.14,0,0,0-.79.84,2.82,2.82,0,0,0,0,2.57,2,2,0,0,0,1.91,1.12Z"/><path class="cls-1" d="M202.64,111a.56.56,0,0,1-.38-.13.52.52,0,0,1-.14-.38v-9.11a.5.5,0,0,1,.14-.37.52.52,0,0,1,.38-.13h.42a.45.45,0,0,1,.5.5v9.11a.52.52,0,0,1-.13.38.54.54,0,0,1-.37.13Z"/><path class="cls-1" d="M148.1,127.84a.53.53,0,0,1-.56-.42l-2.76-8.79a.48.48,0,0,1,.05-.43.43.43,0,0,1,.38-.16h.45a.56.56,0,0,1,.57.42l2.15,6.89,2-6.57a.53.53,0,0,1,.56-.42h.32a.67.67,0,0,1,.37.11.62.62,0,0,1,.21.31l2,6.57,2.15-6.89a.62.62,0,0,1,.21-.31.65.65,0,0,1,.37-.11h.43a.43.43,0,0,1,.39.17.41.41,0,0,1,0,.42l-2.74,8.79a.56.56,0,0,1-.57.42h-.38a.67.67,0,0,1-.37-.11.62.62,0,0,1-.21-.31l-2.08-6.81-2.1,6.81a.54.54,0,0,1-.56.42Z"/><path class="cls-1" d="M161.41,128a3.3,3.3,0,0,1-2.51-1.08,3.63,3.63,0,0,1-.71-1.17,4.13,4.13,0,0,1,0-2.83,3.79,3.79,0,0,1,.71-1.18A3.38,3.38,0,0,1,160,121a3.43,3.43,0,0,1,1.4-.28,3.24,3.24,0,0,1,1.39.3,2.77,2.77,0,0,1,1.12,1v-.6a.46.46,0,0,1,.14-.37.51.51,0,0,1,.37-.14h.42a.52.52,0,0,1,.38.14.54.54,0,0,1,.13.37v6a.46.46,0,0,1-.51.51h-.42a.55.55,0,0,1-.37-.13.48.48,0,0,1-.14-.38v-.6a2.77,2.77,0,0,1-1.12,1A3.24,3.24,0,0,1,161.41,128Zm.2-1.26a2.18,2.18,0,0,0,1.67-.68,2.42,2.42,0,0,0,.66-1.73,2.39,2.39,0,0,0-.66-1.72,2.39,2.39,0,0,0-2.79-.4,2.09,2.09,0,0,0-.8.84,2.82,2.82,0,0,0,0,2.57,2.21,2.21,0,0,0,.79.84A2.18,2.18,0,0,0,161.61,126.73Z"/><path class="cls-1" d="M169.56,128a3.17,3.17,0,0,1-1.51-.35,2.31,2.31,0,0,1-1-1,.37.37,0,0,1,0-.39.61.61,0,0,1,.36-.24l.29-.08a.6.6,0,0,1,.63.29,1.41,1.41,0,0,0,.56.42,1.7,1.7,0,0,0,.74.16,1.32,1.32,0,0,0,.84-.27.81.81,0,0,0,.34-.66c0-.37-.29-.65-.87-.85l-.94-.32a3.24,3.24,0,0,1-1-.5,1.65,1.65,0,0,1-.57-.69,1.82,1.82,0,0,1-.16-.73,1.91,1.91,0,0,1,.66-1.5,2.41,2.41,0,0,1,1.69-.6,2.91,2.91,0,0,1,1.26.27,2.1,2.1,0,0,1,.89.88.41.41,0,0,1,0,.41.45.45,0,0,1-.35.23l-.26.06a.54.54,0,0,1-.31,0,.81.81,0,0,1-.35-.3,1.07,1.07,0,0,0-.85-.36,1,1,0,0,0-.73.25.8.8,0,0,0-.28.62q0,.55.81.81l1,.34a2.47,2.47,0,0,1,1.31.82,2,2,0,0,1,.4,1.18,2.1,2.1,0,0,1-.14.73,1.76,1.76,0,0,1-.45.68,2.49,2.49,0,0,1-.82.51A3.1,3.1,0,0,1,169.56,128Z"/><path class="cls-1" d="M174.21,127.84a.56.56,0,0,1-.38-.13.48.48,0,0,1-.14-.38v-9.11a.46.46,0,0,1,.14-.37.52.52,0,0,1,.38-.13h.42a.51.51,0,0,1,.37.13.54.54,0,0,1,.13.37v4a2,2,0,0,1,.85-1.13,2.7,2.7,0,0,1,1.49-.4,2.92,2.92,0,0,1,1.08.2,2.37,2.37,0,0,1,.85.59,2.73,2.73,0,0,1,.56,1,4.61,4.61,0,0,1,.2,1.41v3.45a.52.52,0,0,1-.14.38.58.58,0,0,1-.38.13h-.42a.54.54,0,0,1-.37-.13.52.52,0,0,1-.14-.38v-3.44a3.08,3.08,0,0,0-.16-1.08,1.47,1.47,0,0,0-.49-.66,1.37,1.37,0,0,0-.75-.22,2.2,2.2,0,0,0-.65.12,2.09,2.09,0,0,0-1.31,1.23,3.21,3.21,0,0,0-.22,1.27v2.78a.56.56,0,0,1-.13.38.55.55,0,0,1-.37.13Z"/><path class="cls-1" d="M182.9,119.55a.94.94,0,0,1-.69-.28,1,1,0,0,1-.28-.67,1,1,0,0,1,.28-.69.91.91,0,0,1,.69-.29,1,1,0,0,1,.71.29.94.94,0,0,1,.28.69.88.88,0,0,1-.29.67A1,1,0,0,1,182.9,119.55Zm-.2,8.29a.54.54,0,0,1-.37-.13.48.48,0,0,1-.14-.38v-6a.46.46,0,0,1,.14-.37.5.5,0,0,1,.37-.14h.42a.48.48,0,0,1,.37.14.5.5,0,0,1,.14.37v6a.47.47,0,0,1-.51.51Z"/><path class="cls-1" d="M186.3,127.84a.58.58,0,0,1-.38-.13.52.52,0,0,1-.14-.38v-6a.5.5,0,0,1,.14-.37.54.54,0,0,1,.38-.14h.42a.48.48,0,0,1,.51.51v.87a1.94,1.94,0,0,1,.85-1.13,2.67,2.67,0,0,1,1.48-.4,2.92,2.92,0,0,1,1.08.2,2.29,2.29,0,0,1,.85.59,2.75,2.75,0,0,1,.57,1,4.63,4.63,0,0,1,.19,1.41v3.45a.52.52,0,0,1-.14.38.56.56,0,0,1-.38.13h-.42a.54.54,0,0,1-.37-.13.52.52,0,0,1-.13-.38v-3.44a3.06,3.06,0,0,0-.17-1.08,1.34,1.34,0,0,0-.49-.66,1.32,1.32,0,0,0-.74-.22,2.2,2.2,0,0,0-.66.12,2.33,2.33,0,0,0-.73.41,2.22,2.22,0,0,0-.57.82,3.21,3.21,0,0,0-.22,1.27v2.78a.52.52,0,0,1-.14.38.54.54,0,0,1-.37.13Z"/><path class="cls-1" d="M197.47,131.13a4.76,4.76,0,0,1-2.66-.73.49.49,0,0,1-.15-.7l.11-.2c.15-.3.38-.36.69-.16a3.56,3.56,0,0,0,1,.41,4.08,4.08,0,0,0,1,.13,2.26,2.26,0,0,0,1.65-.59,2.18,2.18,0,0,0,.62-1.66v-.9a2.81,2.81,0,0,1-1.11,1,3.32,3.32,0,0,1-1.4.3,3.43,3.43,0,0,1-1.4-.28,3.37,3.37,0,0,1-1.12-.8,3.46,3.46,0,0,1-.71-1.17,4.19,4.19,0,0,1-.24-1.42,4.08,4.08,0,0,1,.24-1.4,3.46,3.46,0,0,1,.71-1.17,3.21,3.21,0,0,1,1.12-.79,3.44,3.44,0,0,1,1.4-.29,3.32,3.32,0,0,1,1.4.3,2.81,2.81,0,0,1,1.11,1v-.62a.45.45,0,0,1,.14-.35.52.52,0,0,1,.38-.14h.4a.52.52,0,0,1,.38.14.5.5,0,0,1,.14.37v6.4a3.39,3.39,0,0,1-.45,1.8,3.06,3.06,0,0,1-1.27,1.17A4.19,4.19,0,0,1,197.47,131.13Zm-.05-4.4a2.18,2.18,0,0,0,1.67-.68,2.56,2.56,0,0,0,0-3.45,2.39,2.39,0,0,0-2.79-.4,2.09,2.09,0,0,0-.8.84,2.82,2.82,0,0,0,0,2.57,2.21,2.21,0,0,0,.79.84A2.18,2.18,0,0,0,197.42,126.73Z"/><path class="cls-1" d="M104.4,121.11V111l6.77,5Z"/><circle class="cls-2" cx="175.85" cy="51.37" r="3.12"/><path class="cls-3" d="M201.06,23.68V55a3.26,3.26,0,0,1-3.27,3.27H148A3.27,3.27,0,0,1,144.75,55V23.68"/><path class="cls-3" d="M144.75,32.92c5.69,0,5.69,3.26,11.39,3.26s5.69-3.26,11.38-3.26,5.69,3.26,11.38,3.26,5.7-3.26,11.39-3.26,5.7,3.26,11.39,3.26"/><polyline class="cls-3" points="12.04 40.01 19.05 45.89 26.06 40.01 33.08 45.89 40.09 40.01 47.1 45.89 54.12 40.01 61.13 45.89 68.14 40.01 75.16 45.89 82.18 40.01"/><polyline class="cls-3" points="12.04 45.55 19.05 51.43 26.06 45.55 33.08 51.43 40.09 45.55 47.1 51.43 54.12 45.55 61.13 51.43 68.14 45.55 75.16 51.43 82.18 45.55"/><circle class="cls-4" cx="165.07" cy="48.25" r="3.93"/><circle class="cls-5" cx="185.02" cy="33.91" r="3.55"/><circle class="cls-5" cx="61.43" cy="62.37" r="2.47"/><circle class="cls-2" cx="33.18" cy="28.8" r="2.84"/><circle class="cls-4" cx="42.68" cy="33.15" r="3.93"/><circle class="cls-2" cx="64.43" cy="25.55" r="3.93"/></svg>