<svg id="Layer_2" data-name="Layer 2" xmlns="http://www.w3.org/2000/svg" viewBox="0 0 770.02 279.91"><defs><style>.cls-1{font-size:18px;font-family:FilsonSoft-Bold, Filson Soft;font-weight:700;}.cls-1,.cls-15,.cls-16,.cls-17,.cls-18,.cls-19{fill:#fff;}.cls-2{letter-spacing:0em;}.cls-3{letter-spacing:0em;}.cls-4{letter-spacing:-0.01em;}.cls-5{letter-spacing:-0.02em;}.cls-6{letter-spacing:-0.01em;}.cls-7{letter-spacing:-0.01em;}.cls-10,.cls-11,.cls-14,.cls-28,.cls-8,.cls-9{fill:#bfc723;}.cls-21,.cls-9{opacity:0.2;}.cls-10,.cls-18{opacity:0.6;}.cls-11,.cls-12{opacity:0.4;}.cls-12,.cls-13,.cls-20,.cls-21,.cls-22{fill:#c1c1c1;}.cls-14,.cls-19,.cls-20{opacity:0.1;}.cls-16{opacity:0.3;}.cls-17,.cls-22{opacity:0.8;}.cls-23{letter-spacing:-0.09em;}.cls-24{letter-spacing:-0.02em;}.cls-25{letter-spacing:-0.03em;}.cls-26{letter-spacing:0em;}.cls-27{letter-spacing:-0.01em;}.cls-28{opacity:0.5;}.cls-29{fill:#c8c2c2;}.cls-30,.cls-31,.cls-32{fill:none;stroke:#fff;stroke-miterlimit:10;}.cls-30,.cls-31{stroke-width:2.6px;}.cls-31{stroke-dasharray:6.19 6.19;}.cls-32{stroke-width:2.28px;}.cls-33{letter-spacing:0em;}.cls-34{letter-spacing:-0.01em;}</style></defs><title>fig3</title><text class="cls-1" transform="translate(338.41 204.27)"><tspan class="cls-2">R</tspan><tspan x="12.55" y="0">eal</tspan><tspan class="cls-3" x="40.5" y="0">-</tspan><tspan x="48.96" y="0">time</tspan><tspan class="cls-4" x="-13.77" y="21.6">C</tspan><tspan x="-1.58" y="21.6">olo</tspan><tspan class="cls-5" x="26.1" y="21.6">r</tspan><tspan x="32.94" y="21.6"> </tspan><tspan class="cls-4" x="37.29" y="21.6">C</tspan><tspan x="49.48" y="21.6">o</tspan><tspan class="cls-6" x="60.79" y="21.6">n</tspan><tspan x="71.76" y="21.6">t</tspan><tspan class="cls-7" x="79.99" y="21.6">r</tspan><tspan x="87.1" y="21.6">ol</tspan></text><circle class="cls-8" cx="343.56" cy="130.27" r="7.1"/><circle class="cls-9" cx="400.56" cy="130.27" r="7.1"/><circle class="cls-10" cx="362.56" cy="130.27" r="7.1"/><circle class="cls-11" cx="381.56" cy="130.27" r="7.1"/><circle class="cls-12" cx="381.56" cy="148.46" r="7.1"/><circle class="cls-13" cx="343.56" cy="148.46" r="7.1"/><circle class="cls-14" cx="419.6" cy="130.27" r="7.1"/><circle class="cls-15" cx="343.56" cy="111.82" r="7.1"/><circle class="cls-16" cx="400.56" cy="111.82" r="7.1"/><circle class="cls-17" cx="362.56" cy="111.82" r="7.1"/><circle class="cls-18" cx="381.56" cy="111.82" r="7.1"/><circle class="cls-19" cx="419.6" cy="111.82" r="7.1"/><circle class="cls-20" cx="420.14" cy="148.46" r="7.1"/><circle class="cls-21" cx="401.14" cy="148.46" r="7.1"/><circle class="cls-22" cx="361.78" cy="148.46" r="7.1"/><path class="cls-15" d="M416.49,52C422.88,63.08,412.13,75,412.13,75a9.86,9.86,0,1,0,17.8,5.84S432.37,66.47,416.49,52Z"/><text class="cls-1" transform="translate(612.53 204.27)"><tspan class="cls-2">R</tspan><tspan x="12.55" y="0">eal</tspan><tspan class="cls-3" x="40.5" y="0">-</tspan><tspan x="48.96" y="0">time</tspan><tspan class="cls-23" x="-30.71" y="21.6">T</tspan><tspan x="-21.35" y="21.6">enaci</tspan><tspan class="cls-24" x="27.54" y="21.6">t</tspan><tspan class="cls-25" x="35.41" y="21.6">y</tspan><tspan x="45.52" y="21.6"> </tspan><tspan class="cls-4" x="49.88" y="21.6">C</tspan><tspan x="62.06" y="21.6">o</tspan><tspan class="cls-6" x="73.37" y="21.6">n</tspan><tspan class="cls-26" x="84.35" y="21.6">t</tspan><tspan class="cls-27" x="92.57" y="21.6">r</tspan><tspan x="99.68" y="21.6">ol </tspan></text><path class="cls-28" d="M662.45,107.72c0-10.5,2.29-39.75,2.76-45.62a7.17,7.17,0,1,0-14.27-1h0a6.92,6.92,0,0,0,.09,1c.47,5.87,2.76,35.13,2.76,45.63s-2.29,39.75-2.76,45.62a7.18,7.18,0,0,0-.09,1h0a7.18,7.18,0,1,0,14.27-1C664.74,147.47,662.45,118.21,662.45,107.72Z"/><path class="cls-8" d="M690.27,122.2c-.64-5.46-2.66-23.14-2.66-29.75s2-24.3,2.66-29.76a7.34,7.34,0,0,0,.19-1.63,7.18,7.18,0,1,0-14.35,0,6.8,6.8,0,0,0,.2,1.63C677,68.15,679,85.84,679,92.45s-2,24.29-2.65,29.75a6.82,6.82,0,0,0-.2,1.64h0a7.18,7.18,0,0,0,14.35,0h0A7.36,7.36,0,0,0,690.27,122.2Z"/><circle class="cls-29" cx="631.41" cy="61.06" r="7.17"/><circle class="cls-29" cx="631.41" cy="102.31" r="7.17"/><path class="cls-29" d="M624.23,102.31s2.85-15.46,2.85-20.63-2.85-20.62-2.85-20.62h14.35s-2.84,15.46-2.84,20.62,2.84,20.63,2.84,20.63Z"/><line class="cls-30" x1="713.27" y1="131.01" x2="710.01" y2="131.01"/><line class="cls-31" x1="703.82" y1="131.01" x2="607.85" y2="131.01"/><line class="cls-30" x1="604.75" y1="131.01" x2="601.5" y2="131.01"/><circle class="cls-8" cx="107.87" cy="130.99" r="25.57"/><path class="cls-32" d="M72,83.44S83.38,86,91.72,94.77"/><polygon class="cls-15" points="88.41 96.24 94.83 98.58 93.64 91.85 88.41 96.24"/><path class="cls-32" d="M146.61,90.77s-7.09-.92-13.91,6.18"/><polygon class="cls-15" points="130.78 94.06 129.63 100.79 136.03 98.42 130.78 94.06"/><path class="cls-32" d="M101.15,64.5s11.12,10.63,11.44,26.84"/><polygon class="cls-15" points="109.12 90.23 112.35 96.25 115.95 90.45 109.12 90.23"/><circle class="cls-13" cx="61.58" cy="80.81" r="5.42"/><circle class="cls-11" cx="156.71" cy="93.19" r="5.42"/><circle class="cls-15" cx="95.66" cy="58.73" r="3.7"/><text class="cls-1" transform="translate(82.59 204.27)">Batch<tspan class="cls-33" x="-33.03" y="21.6">O</tspan><tspan class="cls-34" x="-18.43" y="21.6">p</tspan><tspan x="-6.68" y="21.6">timi</tspan><tspan class="cls-6" x="28.15" y="21.6">z</tspan><tspan x="38.56" y="21.6">ation</tspan></text></svg>