<svg id="Layer_2" data-name="Layer 2" xmlns="http://www.w3.org/2000/svg" xmlns:xlink="http://www.w3.org/1999/xlink" viewBox="0 0 76 76"><defs><style>.cls-1,.cls-6{fill:none;}.cls-2{clip-path:url(#clip-path);}.cls-3{clip-path:url(#clip-path-2);}.cls-4{fill:#fff;}.cls-5,.cls-7{fill:#c8c2c2;}.cls-6{stroke:#fff;stroke-miterlimit:10;stroke-width:1.63px;}.cls-7{opacity:0.4;}.cls-8{fill:#bfc723;}</style><clipPath id="clip-path"><rect class="cls-1" x="-1585.89" y="-668.16" width="1024" height="767.8"/></clipPath><clipPath id="clip-path-2"><rect class="cls-1" width="76" height="76"/></clipPath></defs><title>icon7</title><g class="cls-2"><image width="1806" height="1309" transform="translate(-1654.89 -1165.36) scale(1.13)" xlink:href="../../Dropbox/前後&apos;s shared workspace/PROJECTS/202002_SAYA/攝影/20200505_南亞紗廠攝影30張final/jpg/20200401-196.jpg"/></g><g class="cls-3"><circle class="cls-4" cx="40.63" cy="48.41" r="3.12"/><circle class="cls-4" cx="29.85" cy="45.29" r="3.93"/><circle class="cls-5" cx="40.63" cy="48.41" r="3.12"/><path class="cls-6" d="M65.84,20.72V52a3.26,3.26,0,0,1-3.26,3.26H12.8A3.26,3.26,0,0,1,9.54,52V20.72"/><path class="cls-6" d="M9.54,30c5.69,0,5.69,3.26,11.38,3.26S26.61,30,32.3,30,38,33.22,43.68,33.22,49.38,30,55.07,30s5.7,3.26,11.39,3.26"/><circle class="cls-7" cx="29.85" cy="45.29" r="3.93"/><circle class="cls-8" cx="49.8" cy="30.95" r="3.55"/></g></svg>