<svg id="Layer_2" data-name="Layer 2" xmlns="http://www.w3.org/2000/svg" xmlns:xlink="http://www.w3.org/1999/xlink" viewBox="0 0 76 76"><defs><style>.cls-1,.cls-6,.cls-8{fill:none;}.cls-2{clip-path:url(#clip-path);}.cls-3{clip-path:url(#clip-path-2);}.cls-4{clip-path:url(#clip-path-3);}.cls-5{fill:#bfc723;}.cls-6{stroke:#c8c2c2;stroke-width:1.63px;}.cls-6,.cls-8{stroke-miterlimit:10;}.cls-7{fill:#fff;}.cls-8{stroke:#bfc723;stroke-width:1.12px;}</style><clipPath id="clip-path"><rect class="cls-1" x="-1839.64" y="-497.49" width="1024" height="767.8"/></clipPath><clipPath id="clip-path-2"><rect class="cls-1" x="-548.97" y="-886.32" width="1034.24" height="775.48"/></clipPath><clipPath id="clip-path-3"><rect class="cls-1" width="76" height="76"/></clipPath><image id="image" width="1806" height="1309" xlink:href="../../Dropbox/前後&apos;s shared workspace/PROJECTS/202002_SAYA/攝影/20200505_南亞紗廠攝影30張final/jpg/20200401-196.jpg"/></defs><title>icon4</title><g class="cls-2"><use transform="translate(-1908.64 -994.69) scale(1.13)" xlink:href="#image"/></g><g class="cls-3"><use transform="translate(-618.66 -1388.49) scale(1.14)" xlink:href="#image"/></g><g class="cls-4"><circle class="cls-5" cx="54.73" cy="60.25" r="1.97"/><path class="cls-6" d="M54.08,8.78c-8.67,4.91-14.72,16.09-14.72,29.1s6,24.19,14.72,29.11"/><path class="cls-6" d="M19,67c8.66-4.92,14.71-16.1,14.71-29.11S27.61,13.69,19,8.78"/><circle class="cls-7" cx="25.28" cy="14.71" r="3.44"/><path class="cls-8" d="M47.84,24.82c0,4.56-9.93,5.49-12.25,5.49s-9-.34-9-2.28,6.36-2.2,8.78-2.2S47.84,27,47.84,31.33s-7.51,5.32-12,5.32-9.25-.59-9.25-2.2,5.89-2.2,9.13-2.2,12.13,1.44,12.13,5.5c0,4.31-7.51,5.32-12,5.32s-9.25-.59-9.25-2.2,5.89-2.19,9.13-2.19,12.13,1.43,12.13,5.49"/><path class="cls-8" d="M47.84,44.17c0,4.56-9.93,5.49-12.25,5.49s-9-.34-9-2.28,6.36-2.2,8.78-2.2,12.48,1.18,12.48,5.49"/></g></svg>