<svg id="Layer_2" data-name="Layer 2" xmlns="http://www.w3.org/2000/svg" xmlns:xlink="http://www.w3.org/1999/xlink" viewBox="0 0 76 76"><defs><style>.cls-1,.cls-5{fill:none;}.cls-2{clip-path:url(#clip-path);}.cls-3{clip-path:url(#clip-path-2);}.cls-4{fill:#fff;}.cls-5{stroke:#fff;stroke-miterlimit:10;stroke-width:1.63px;}.cls-6{fill:#bfc723;}.cls-7,.cls-8{fill:#c8c2c2;}.cls-8{opacity:0.4;}</style><clipPath id="clip-path"><rect class="cls-1" x="-1459.66" y="-668.16" width="1024" height="767.8"/></clipPath><clipPath id="clip-path-2"><rect class="cls-1" width="76" height="76"/></clipPath></defs><title>icon6</title><g class="cls-2"><image width="1806" height="1309" transform="translate(-1528.66 -1165.36) scale(1.13)" xlink:href="../../Dropbox/前後&apos;s shared workspace/PROJECTS/202002_SAYA/攝影/20200505_南亞紗廠攝影30張final/jpg/20200401-196.jpg"/></g><g class="cls-3"><circle class="cls-4" cx="24.07" cy="25.84" r="2.84"/><circle class="cls-4" cx="33.57" cy="30.19" r="3.93"/><circle class="cls-4" cx="55.32" cy="22.59" r="3.93"/><polyline class="cls-5" points="2.93 37.05 9.94 42.93 16.95 37.05 23.96 42.93 30.98 37.05 37.99 42.93 45 37.05 52.01 42.93 59.03 37.05 66.05 42.93 73.07 37.05"/><polyline class="cls-5" points="2.93 42.59 9.94 48.47 16.95 42.59 23.96 48.47 30.98 42.59 37.99 48.47 45 42.59 52.01 48.47 59.03 42.59 66.05 48.47 73.07 42.59"/><circle class="cls-6" cx="52.32" cy="59.41" r="2.47"/><circle class="cls-7" cx="24.07" cy="25.84" r="2.84"/><circle class="cls-8" cx="33.57" cy="30.19" r="3.93"/><circle class="cls-7" cx="55.32" cy="22.59" r="3.93"/></g></svg>