<svg id="圖層_1" data-name="圖層 1" xmlns="http://www.w3.org/2000/svg" viewBox="0 0 140 140"><defs><style>.cls-1{fill:#87898c;fill-rule:evenodd;}</style></defs><title>icon15</title><path class="cls-1" d="M84.82,50.81l3.37-.05h0c12.31.85,27.08,12.2,27.08,28.88h0V92.71h-12V79.64h0c0-8.14-6.32-14.87-15.13-15.46H84.82V50.81Z"/><path class="cls-1" d="M84.82,65.5h3.29c8.54,0,14,8.35,13.82,14.15h0V92.71H92.77V82.17h0c-.13-2.65-1.74-4.1-4.68-4.15H84.82V65.5Z"/><path class="cls-1" d="M84.82,79.64h3.05c2.39,0,3.42,1.19,3.42,3.82h0v9.25H84.82V79.64Z"/><polygon class="cls-1" points="41.7 92.37 41.7 79.96 50.23 79.96 50.23 83.09 45.32 83.09 45.32 85 49.23 85 49.23 88 45.32 88 45.32 92.37 41.7 92.37 41.7 92.37 41.7 92.37 41.7 92.37"/><path class="cls-1" d="M69.82,87.56h3.43a5.47,5.47,0,0,1-1.57,3.8,5.31,5.31,0,0,1-3.83,1.35A5.44,5.44,0,0,1,63.58,91,7,7,0,0,1,62,86.18a7,7,0,0,1,1.54-4.79,5.34,5.34,0,0,1,4.2-1.75A5.45,5.45,0,0,1,71.62,81a5.3,5.3,0,0,1,1.57,3.71H69.72a2.21,2.21,0,0,0-.56-1.43,1.83,1.83,0,0,0-1.35-.49,1.76,1.76,0,0,0-1.6.86,4.92,4.92,0,0,0-.53,2.58,4.7,4.7,0,0,0,.56,2.56,1.87,1.87,0,0,0,1.67.87,1.74,1.74,0,0,0,1.33-.53,2.45,2.45,0,0,0,.58-1.52Z"/><polygon class="cls-1" points="74.78 92.37 74.78 79.96 83.79 79.96 83.79 82.94 78.4 82.94 78.4 84.59 82.96 84.59 82.96 87.43 78.4 87.43 78.4 89.35 84.02 89.35 84.02 92.37 74.78 92.37 74.78 92.37 74.78 92.37 74.78 92.37"/><path class="cls-1" d="M24.73,78.08V65.49h3.45l3.17,5.86h0a3.72,3.72,0,0,1,.31.7c.11.3.23.66.35,1.09,0-.22,0-.47-.07-.74s0-.59,0-1h0V65.49h3.46V78.08H31.92l-3.17-5.81h0a4.44,4.44,0,0,1-.32-.73c-.12-.31-.23-.67-.35-1.08,0,.23.06.46.07.7s0,.58,0,1h0v5.9Z"/><polygon class="cls-1" points="64.85 78.08 64.85 68.81 61.59 68.81 61.59 65.49 71.67 65.49 71.67 68.81 68.48 68.81 68.48 78.08 64.85 78.08 64.85 78.08 64.85 78.08 64.85 78.08"/><polygon class="cls-1" points="72.92 78.08 72.92 65.49 76.55 65.49 76.55 69.76 79.94 69.76 79.94 65.49 83.57 65.49 83.57 78.08 79.94 78.08 79.94 73.2 76.55 73.2 76.55 78.08 72.92 78.08 72.92 78.08 72.92 78.08 72.92 78.08"/><polygon class="cls-1" points="53.97 64.18 53.97 54.12 50.72 54.12 50.72 50.52 60.77 50.52 60.77 54.12 57.59 54.12 57.59 64.18 53.97 64.18 53.97 64.18 53.97 64.18 53.97 64.18"/><polygon class="cls-1" points="62.01 64.18 62.01 50.52 65.64 50.52 65.64 55.16 69.02 55.16 69.02 50.52 72.64 50.52 72.64 64.18 69.02 64.18 69.02 58.88 65.64 58.88 65.64 64.18 62.01 64.18 62.01 64.18 62.01 64.18 62.01 64.18"/><polygon class="cls-1" points="74.77 64.18 74.77 50.52 83.79 50.52 83.79 53.79 78.4 53.79 78.4 55.61 82.96 55.61 82.96 58.74 78.4 58.74 78.4 60.86 84.02 60.86 84.02 64.18 74.77 64.18 74.77 64.18 74.77 64.18 74.77 64.18"/><path class="cls-1" d="M57.5,80H53.83l-4,12.41h3.56l.44-1.65h3.59l.42,1.65h3.59Zm-3,8.16,1.15-4.29,1.13,4.29Z"/><path class="cls-1" d="M47.23,66.94a5.46,5.46,0,0,0-4.3-1.77,5.47,5.47,0,0,0-4.3,1.77,7.09,7.09,0,0,0-1.58,4.86,7.08,7.08,0,0,0,1.58,4.85,5.45,5.45,0,0,0,4.3,1.78,5.43,5.43,0,0,0,4.3-1.78A7.07,7.07,0,0,0,48.8,71.8,7.08,7.08,0,0,0,47.23,66.94ZM44.6,74.43a2.1,2.1,0,0,1-3.35,0,6.65,6.65,0,0,1,0-5.25,2.1,2.1,0,0,1,3.35,0,5,5,0,0,1,.53,2.64A5,5,0,0,1,44.6,74.43Z"/><path class="cls-1" d="M60.68,76.82a.06.06,0,0,1,0,0L60.61,75a3.76,3.76,0,0,0-.46-1.92,2.2,2.2,0,0,0-1.38-.88A3,3,0,0,0,60.15,71a3.84,3.84,0,0,0,.44-1.92,3.3,3.3,0,0,0-1.08-2.77,6,6,0,0,0-3.63-.85H50.46V78.08h3.59V73.74h1.54a1.51,1.51,0,0,1,1.2.4,2.09,2.09,0,0,1,.35,1.37v1.26a3,3,0,0,0,0,.52c0,.23.08.49.15.79H61v-.47C60.8,77.59,60.69,77.33,60.68,76.82ZM56.9,70.64a2,2,0,0,1-1.2.26H54.05V68.54h1.56a2.26,2.26,0,0,1,1.29.26,1.14,1.14,0,0,1,.33.93A1.1,1.1,0,0,1,56.9,70.64Z"/></svg>