<svg id="Layer_2" data-name="Layer 2" xmlns="http://www.w3.org/2000/svg" xmlns:xlink="http://www.w3.org/1999/xlink" viewBox="0 0 76 76"><defs><style>.cls-1{fill:none;}.cls-2{clip-path:url(#clip-path);}.cls-3{clip-path:url(#clip-path-2);}.cls-4{clip-path:url(#clip-path-3);}.cls-5{fill:#bfc723;}.cls-6,.cls-7,.cls-8,.cls-9{fill:#c8c2c2;}.cls-6{opacity:0.2;}.cls-7{opacity:0.4;}.cls-8{opacity:0.6;}.cls-10{fill:#fff;}</style><clipPath id="clip-path"><rect class="cls-1" x="-1585.89" y="-497.49" width="1024" height="767.8"/></clipPath><clipPath id="clip-path-2"><rect class="cls-1" x="-295.22" y="-886.32" width="1034.24" height="775.48"/></clipPath><clipPath id="clip-path-3"><rect class="cls-1" width="76" height="76"/></clipPath><image id="image" width="1806" height="1309" xlink:href="../../Dropbox/前後&apos;s shared workspace/PROJECTS/202002_SAYA/攝影/20200505_南亞紗廠攝影30張final/jpg/20200401-196.jpg"/></defs><title>icon2</title><g class="cls-2"><use transform="translate(-1654.89 -994.69) scale(1.13)" xlink:href="#image"/></g><g class="cls-3"><use transform="translate(-364.91 -1388.49) scale(1.14)" xlink:href="#image"/></g><g class="cls-4"><circle class="cls-5" cx="38.93" cy="65.23" r="3.93"/><polygon class="cls-6" points="23.1 52.78 15.99 52.78 38.62 12.46 45.72 12.46 23.1 52.78"/><polygon class="cls-7" points="32.16 52.78 25.06 52.78 47.68 12.46 54.78 12.46 32.16 52.78"/><polygon class="cls-8" points="41.15 52.78 34.04 52.78 56.67 12.46 63.77 12.46 41.15 52.78"/><polygon class="cls-9" points="49.73 52.78 42.63 52.78 65.25 12.46 72.35 12.46 49.73 52.78"/><circle class="cls-10" cx="50.39" cy="51.68" r="3.44"/></g></svg>