<svg id="Layer_2" data-name="Layer 2" xmlns="http://www.w3.org/2000/svg" viewBox="0 0 220 80"><defs><style>.cls-1{fill:none;}.cls-2{fill:#64703f;}</style></defs><title>icon14</title><rect class="cls-1" width="220" height="80"/><path class="cls-2" d="M205,51.1a.33.33,0,0,0-.17,0c-.92.28-2.4-1-2.57-.06s.9,2.25,1.46,3.37c.33.69.75.24,1.12,0a5.49,5.49,0,0,1,2.93-.93,2.79,2.79,0,0,1,2.59,1.71,2.58,2.58,0,0,1-.47,3,2.72,2.72,0,0,1-3,.9,5.84,5.84,0,0,1-2.58-1.67c-.23-.24-.44-.65-.83-.4-.17.11-.21.49-.25.75-.06.46,0,.93-.11,1.38-.36,1.61,0,2.56,1.91,2.27a3,3,0,0,1,1.8.51,2.77,2.77,0,0,1,1.55,2.86,2.66,2.66,0,0,1-1.78,2.36,2.84,2.84,0,0,1-3.19-.65A5.36,5.36,0,0,1,202.05,64c-.1-.37-.05-.9-.58-.94s-.57.49-.78.81a4.11,4.11,0,0,1-.46.73c-1.35,1.31-1.23,2.13.48,3.19,2.16,1.33,2.2,4,.35,5.16a2.71,2.71,0,0,1-3.1,0,3.43,3.43,0,0,1-1.44-3.47c0-.73.78-1.63.2-2.12-.74-.62-1.36.52-2.12.69-1.69.36-2,1.25-.94,2.65a3.34,3.34,0,0,1,.49,2,2.74,2.74,0,0,1-1.69,2.6,2.68,2.68,0,0,1-2.93-.32,2.73,2.73,0,0,1-1.1-2.89A5.72,5.72,0,0,1,189.54,70c.33-.49,1.29-.76.94-1.46s-1.16-.13-1.76-.27c-.28-.06-.57-.06-.85-.14-1.36-.37-1.92.08-1.75,1.53a3.58,3.58,0,0,1-.75,2.6,2.88,2.88,0,1,1-4.59-3.49,5.29,5.29,0,0,1,1.94-1.39c.63-.34,2.2-.27,1.75-1-.69-1-2.17-1.57-3.37-2.22-.23-.12-.46.43-.64.72a5.7,5.7,0,0,1-1.67,2,2.88,2.88,0,0,1-3.41,0,2.67,2.67,0,0,1-1.23-2.68,2.87,2.87,0,0,1,2.31-2.5,5.79,5.79,0,0,1,3.06.25c.32.09.68.28.92-.1s0-.55-.19-.79-.24-.39-.35-.6c-.44-.81-.67-1.93-1.35-2.34s-1.45.67-2.28.9c-1.7.49-3.17.09-3.93-1.25a2.63,2.63,0,0,1,.49-3.46c1.23-1.18,2.6-1,4-.21a2.32,2.32,0,0,0,.43.29c.77.21,1.4,1.85,1.87,1.09.6-1,.35-2.55.32-3.86,0-.41-.69-.3-1.07-.29A5.13,5.13,0,0,1,176,50.9,2.83,2.83,0,0,1,174.14,48a2.78,2.78,0,0,1,2-2.56,2.82,2.82,0,0,1,3.24,1A5.5,5.5,0,0,1,180.52,49c.08.33.09.73.55.75s.47-.28.61-.53a4.44,4.44,0,0,1,.63-1c1.4-1.34,1.17-2.21-.51-3.19a3,3,0,0,1-1.33-4,2.69,2.69,0,0,1,3.31-1.51c1.58.4,2.41,1.92,2.23,3.83-.07.72-.78,1.62-.21,2.1.75.64,1.35-.53,2.11-.69,1.68-.35,1.91-1.15,1-2.64a3.06,3.06,0,0,1,.41-4.11,2.87,2.87,0,0,1,4.82,2.33,5.23,5.23,0,0,1-.62,1.79c-.38.83-1.88,1.53-1.43,2.1.71.91,2.24.26,3.39.57.72.19.78-.41.83-1a9.89,9.89,0,0,1,.41-2.37,2.81,2.81,0,0,1,2.9-2,2.66,2.66,0,0,1,2.64,2.11,2.88,2.88,0,0,1-1.3,3.3,7.9,7.9,0,0,1-2.38,1c-.26.08-.61,0-.67.43s.21.5.46.64.32.15.47.24c.82.51,1.63,1.4,2.48,1.45s1-1.37,1.67-2c1.17-1.05,2.39-1.68,3.9-.81a2.64,2.64,0,0,1,1.38,3.22A2.94,2.94,0,0,1,205,51.1Zm-2.27,4.45-.21-.49c-.19-.53-.38-1.07-.59-1.6-.29-.75-.67-1-1.37-.34a1.71,1.71,0,0,1-2.47.05,1.74,1.74,0,0,1-.51-2A1.86,1.86,0,0,1,199.75,50l.85.06.2.14-.16-.19c-1.79-1.85-1.77-1.83-3.46-.24a1.69,1.69,0,0,1-2.6,0,1.71,1.71,0,0,1,.14-2.71,7.3,7.3,0,0,1,1.6-.82c-.29-.45-.67-.26-1-.3-1.35-.2-2.62-.42-2.36,1.75.1.86-.76,1.35-1.68,1.38a1.66,1.66,0,0,1-1.74-1.14,2.73,2.73,0,0,1,.4-2.3c.07-.08.2-.21.18-.25s-.27-.12-.41,0c-1.12.43-3.06.26-1.4,2.45.67.87,0,1.94-1,2.36a1.71,1.71,0,0,1-2.37-1.09,10.59,10.59,0,0,1-.4-1.94,8.65,8.65,0,0,0-1.45,2.33c-.14.61.91.45,1.32.84a1.8,1.8,0,0,1,.2,2.75c-.86.93-1.82.78-2.74,0-.5-.45-.47-1.17-.93-1.82-.11.6-.19,1-.24,1.39-.17,1.15-.68,2.38,1.49,2,1.17-.19,1.89.9,1.68,2.1a1.82,1.82,0,0,1-2.32,1.51c-.54-.08-.91-.78-1.57-.42.57,1.25.7,3.08,2.9,1.44.81-.6,1.92.22,2.17,1.34a1.69,1.69,0,0,1-1.55,2.23,9.59,9.59,0,0,1-2.05-.16,7,7,0,0,0,.71.6c1.11.67,2.15,2.33,3.26-.17.43-1,1.72-.84,2.54,0a1.69,1.69,0,0,1-.15,2.71,8.5,8.5,0,0,1-1.59.82c.28.46.67.26,1,.31,1.35.2,2.66.45,2.34-1.75-.11-.79.66-1.29,1.51-1.38A1.67,1.67,0,0,1,193,64.89a2.19,2.19,0,0,1-.61,2.35c2.39-.08,2.54-.31,1.82-2.19a1.75,1.75,0,0,1,1-2.42,1.66,1.66,0,0,1,2.32.88,13.31,13.31,0,0,1,.57,2c.54-1.24,2.82-2,.09-3.08-.72-.28-.82-1.07-.71-1.8a1.77,1.77,0,0,1,1.46-1.52,1.69,1.69,0,0,1,1.82.73,11.42,11.42,0,0,1,.86,1.78c.09-.63.15-1.08.22-1.53.18-1.1.7-2.26-1.4-1.92a1.62,1.62,0,0,1-1.77-2,1.76,1.76,0,0,1,2.26-1.57,5.69,5.69,0,0,1,1.37.69c.08.19.17.36.42.27l.11.16s0-.08,0-.09S202.72,55.57,202.68,55.55ZM193,72.94c0-1.15-.86-3-1.36-3.06s-2,1.81-2,2.74a1.6,1.6,0,0,0,1.66,1.78A1.58,1.58,0,0,0,193,72.94Zm11.32-10.41c-.46.15-1.19-.13-1.17.83,0,1.27,1.27,2.89,2.32,2.87s1.8-.65,1.71-1.74C207,62.78,205.55,62.79,204.28,62.53ZM185,69.46c-.19-.46.34-1.24-.67-1.28-1.31,0-3,1.21-3,2.3a1.55,1.55,0,0,0,1.72,1.69C184.79,72.09,184.81,70.68,185,69.46Zm6.15-31.17c-1.1.26-1.78.91-1.6,2.06.16,1,.38,2.1,1.45,2.51.53.2,2-2,1.91-2.83A1.77,1.77,0,0,0,191.19,38.29ZM179.7,63.54c-.4-.65-1.21-.67-2-.72-1.21-.09-2.25.24-2.36,1.66a1.55,1.55,0,0,0,1.53,1.75C177.89,66.36,179.63,64.77,179.7,63.54Zm17.8-20.49c.16.57-.37,1.5.86,1.47s2.89-1.26,2.82-2.29a1.52,1.52,0,0,0-1.62-1.63C197.94,40.6,197.71,41.82,197.5,43.05ZM205,50c1.22-.08,2.14-.51,2.15-1.81a1.55,1.55,0,0,0-1.65-1.63c-1-.06-2.94,1.73-2.64,2.56S204.27,49.8,205,50Zm-20.23-7.12c0-1.36-.38-2.29-1.82-2.27a1.54,1.54,0,0,0-1.61,1.64c-.06.92,1.57,2.66,2.47,2.54C185,44.62,184.56,43.49,184.77,42.87ZM178,50.1c.45-.18,1.31.37,1.35-.7.05-1.23-1.23-2.86-2.27-2.85a1.54,1.54,0,0,0-1.74,1.68C175.48,49.81,176.72,50,178,50.1Zm19.72,19.82c0,1.5.62,2.29,1.7,2.27a1.63,1.63,0,0,0,1.7-1.78c0-.88-1.58-2.52-2.43-2.41C197.51,68.17,198,69.3,197.76,69.92Zm9.64-15.18c-1,.16-2.43.35-2.4,1.38s1.33,1.81,2.58,1.88a1.48,1.48,0,0,0,1.73-1.67C209.29,55.18,208.53,54.75,207.4,54.74ZM174.62,58c1.4,0,3-.88,3.06-1.35,0-.64-1.87-2-2.81-1.92a1.52,1.52,0,0,0-1.66,1.73A1.44,1.44,0,0,0,174.62,58Zm22,6.53c0-.5-.25-.9-.82-.89a.61.61,0,0,0-.58.71,1,1,0,0,0,.86.93C196.52,65.35,196.5,64.88,196.6,64.56Zm-9.89-.9a1,1,0,0,0-.86.91c-.08.43.14.64.57.6a.88.88,0,0,0,.9-.83C187.35,64,187.1,63.73,186.71,63.66ZM186.66,49c.39,0,.7-.2.66-.63a1,1,0,0,0-.87-.92c-.44,0-.49.44-.51.76A.7.7,0,0,0,186.66,49Zm10-.91c0-.47-.32-.57-.7-.49a.84.84,0,0,0-.78.77.57.57,0,0,0,.64.62C196.42,49,196.59,48.58,196.69,48.11Zm-5.39,18.4a1,1,0,0,0,.6-1.08.6.6,0,0,0-.77-.49c-.48.11-.6.49-.5.93S190.8,66.54,191.3,66.51Zm8-6.15c-.39,0-.71.15-.72.54,0,.56.38.78.88.84.29,0,.61,0,.6-.39A.93.93,0,0,0,199.33,60.36ZM184,61a.63.63,0,0,0-.6-.58.85.85,0,0,0-1,.73c-.06.43.34.54.68.57S183.8,61.5,184,61Zm0-9.08A.86.86,0,0,0,183,51c-.29,0-.61,0-.6.39a.9.9,0,0,0,.75,1A.63.63,0,0,0,183.94,51.87Zm15.54-.78a.74.74,0,0,0-.86.64.54.54,0,0,0,.56.67.85.85,0,0,0,1-.74C200.22,51.23,199.81,51.15,199.48,51.09Zm-7.57-4.23c-.13-.17-.13-.64-.56-.58a.8.8,0,0,0-.72,1,.59.59,0,0,0,.68.59C191.79,47.77,191.94,47.42,191.91,46.86Zm9.54,9.53a1,1,0,0,0-1-.66.6.6,0,0,0-.5.75c.1.5.5.55.91.48S201.52,56.9,201.45,56.39Zm-20.4-.07a.93.93,0,0,0,.89.65c.49,0,.76-.24.67-.72a.63.63,0,0,0-.88-.51C181.42,55.83,181,55.87,181.05,56.32Zm16.64,9.3s-.1.07-.11.11.06.09.09.13.11-.07.11-.12S197.72,65.66,197.69,65.62Z"/><path class="cls-2" d="M89.19,20.77A13.2,13.2,0,0,1,88.83,24a7.48,7.48,0,0,1-7.66,6.18,7.33,7.33,0,0,1-7.7-5.87,12.86,12.86,0,0,1-.06-6.66c1-4.12,4.23-6.34,8.64-6,4,.25,6.58,3,7.06,7.42C89.17,19.62,89.16,20.2,89.19,20.77Zm-3.82.05a8,8,0,0,0-.47-3.45,3.63,3.63,0,0,0-3.54-2.76,3.73,3.73,0,0,0-3.89,2.53A10.35,10.35,0,0,0,77.69,25a3.79,3.79,0,0,0,6.85.09A8.34,8.34,0,0,0,85.37,20.82Z"/><path class="cls-2" d="M42.23,20.8a26.15,26.15,0,0,1-.36,3.08c-.95,4.18-3.82,6.41-8,6.33-4-.08-6.82-2.57-7.55-6.72a14.66,14.66,0,0,1,0-5.16c.8-4.42,4.08-6.94,8.63-6.71,4.1.2,6.88,3.14,7.19,7.62,0,.51,0,1,0,1.55Zm-3.86.07A10.87,10.87,0,0,0,38,17.62c-.68-2.06-1.81-3-3.71-3a3.75,3.75,0,0,0-3.94,3,10.74,10.74,0,0,0,.21,7.12,3.61,3.61,0,0,0,3.57,2.52,3.73,3.73,0,0,0,3.62-2.46A9.1,9.1,0,0,0,38.37,20.87Z"/><path class="cls-2" d="M62.89,19.53c1.71-2.25,3.15-4.13,4.57-6a3.49,3.49,0,0,1,2-1.54c.91-.19,2-.28,2.54.56s-.5,1.17-.87,1.7c-1.28,1.77-2.58,3.54-4,5.25a1.32,1.32,0,0,0,0,1.94c1.76,2.29,3.41,4.65,5.17,6.93.76,1,.49,1.41-.62,1.56a3.58,3.58,0,0,1-3.68-1.36c-1.61-2.14-3.27-4.25-5.15-6.68,0,2.29-.1,4.22,0,6.14.1,1.47-.52,1.71-1.79,1.68s-1.9-.06-1.86-1.62c.1-4.78,0-9.57,0-14.35,0-.89-.28-2,1.26-1.85,1.29.09,2.29.43,2.31,2C62.91,15.6,62.89,17.37,62.89,19.53Z"/><path class="cls-2" d="M52,55.69c0,2.7-.07,5.41,0,8.1,0,1.44-.72,1.39-1.72,1.4s-1.59-.09-1.57-1.37c.07-4.21,0-8.42,0-12.62,0-.66-.49-1.64.57-1.92a2.35,2.35,0,0,1,2.88,1l2.65,4.25a34.32,34.32,0,0,0,3.49,4.93c0-2.8,0-5.6,0-8.39,0-.77-.42-1.88,1-1.86,1.29,0,2.09.55,2.09,2,0,2.19,0,4.38,0,6.57,0,1.85,0,3.7,0,5.54,0,.64.54,1.68-.59,1.86s-2.1.31-2.85-1c-1.54-2.57-3.25-5-4.89-7.54-.25-.37-.53-.7-.8-1Z"/><path class="cls-2" d="M136.73,24c-1,1.76-1.9,3.25-2.79,4.72a4,4,0,0,1-4,1c-.69-.4-.13-.81.06-1.14,1.26-2.19,2.53-4.39,3.89-6.52a2,2,0,0,0,0-2.35c-1.2-2-2.27-4.14-3.47-6.17-.55-.93-.3-1.34.66-1.54,1.51-.3,2.72,0,3.45,1.51.52,1.1,1.17,2.12,1.72,3.2.44.86.81,1.06,1.34.06s1.15-2,1.72-3a3.75,3.75,0,0,1,1.34-1.55,2.47,2.47,0,0,1,2.78,0c.85.67-.19,1.31-.5,1.87q-1.53,2.81-3.26,5.49a1.86,1.86,0,0,0,0,2.22c1.31,2.17,2.53,4.39,3.84,6.55.69,1.14.3,1.49-.88,1.6a3,3,0,0,1-3.19-1.56C138.62,27,137.73,25.58,136.73,24Z"/><path class="cls-2" d="M108,57.24c0-2.19,0-4.38,0-6.57,0-.91.21-1.4,1.23-1.39s2.18-.18,3.27-.17c6.26,0,9.41,4,8.08,10.13a7,7,0,0,1-6.89,5.9c-1.5.08-3,0-4.5,0-.91,0-1.21-.31-1.19-1.2C108,61.73,108,59.48,108,57.24Zm3.36-.05v4.33c0,.54,0,1,.76,1.08a4.18,4.18,0,0,0,5.08-3.52,14.39,14.39,0,0,0,.09-3.28c-.22-2.81-1.9-4.2-4.73-4.11-.86,0-1.26.24-1.22,1.18C111.35,54.31,111.31,55.75,111.31,57.19Z"/><path class="cls-2" d="M64.66,57.19c0-2.19,0-4.38,0-6.57,0-1,.31-1.35,1.27-1.35s2.18-.17,3.28-.16c6.07,0,9.11,3.67,8.11,9.67-.66,4-3.31,6.33-7.37,6.36-1.7,0-3.86.74-5-.35-1-.94-.22-3.07-.28-4.67C64.63,59.15,64.66,58.17,64.66,57.19Zm9.37,0c0-3.86-1.51-5.61-4.78-5.51-.85,0-1.25.21-1.24,1.16,0,2.88,0,5.77,0,8.65,0,.83.29,1.08,1.1,1.11C72.39,62.76,74,61,74,57.2Z"/><path class="cls-2" d="M45.27,20.72c0-2.42.07-4.84,0-7.26,0-1.25.41-1.57,1.58-1.54,2.71.08,5.42,0,8.13,0,.62,0,1.53-.34,1.57.79s-.29,1.89-1.47,2a32.8,32.8,0,0,1-4.32,0c-1.36-.09-2,.36-1.74,1.74a3.62,3.62,0,0,1,0,1c-.18,1.24.22,1.84,1.58,1.67.8-.1,1.62,0,2.42,0,1.1-.09,1.65.14,1.66,1.46s-.73,1.44-1.73,1.38c-.52,0-1,0-1.56,0C48.68,22,49,21.68,49,24.42s-.37,2.4,2.51,2.44c1.16,0,2.31,0,3.46,0a1.85,1.85,0,0,1,1.92,1.65c.12.75-.1,1.24-1,1.24q-4.84,0-9.69,0c-.91,0-1-.58-1-1.28C45.28,25.91,45.27,23.31,45.27,20.72Z"/><path class="cls-2" d="M116.88,20.68c0-2.42.05-4.84,0-7.26,0-1.1.27-1.53,1.44-1.5,2.76.08,5.53,0,8.3,0,.65,0,1.53-.24,1.53.85s-.32,1.88-1.53,1.92c-1.44,0-2.89.11-4.32,0-1.25-.07-1.74.26-1.68,1.61.15,3.38-.39,2.75,2.86,2.82a9.07,9.07,0,0,0,1.38,0c1.21-.16,1.4.45,1.42,1.51s-.4,1.45-1.42,1.33a6.15,6.15,0,0,0-.86,0c-3.57,0-3.9.44-3.37,4,.13.86.62.82,1.21.82h4.49a2,2,0,0,1,1.92.93c.68,1.14.31,1.85-1,1.86-3,0-6,0-9,0-1.07,0-1.39-.36-1.37-1.4C116.92,25.76,116.88,23.22,116.88,20.68Z"/><path class="cls-2" d="M157.58,30.27A9.46,9.46,0,0,1,148.13,21a9.47,9.47,0,0,1,9.47-9.43,9.35,9.35,0,1,1,0,18.7Zm0-2.32a7,7,0,1,0-7.09-7A7,7,0,0,0,157.55,28Z"/><path class="cls-2" d="M94.27,57.23c0-2.19,0-4.38,0-6.57,0-1,.34-1.38,1.37-1.42a25.08,25.08,0,0,1,5.34.07c1.93.34,3.6,1.1,4.05,3.2s.13,4.09-1.83,5.36c-.87.56-.83,1-.33,1.74,1,1.44,1.77,3,2.69,4.43.48.78.28,1.12-.6,1.24a2.93,2.93,0,0,1-3.27-1.37c-.76-1.29-1.54-2.56-2.29-3.85-.31-.54-.68-1-1.37-.78s-.45.84-.46,1.31c0,.92,0,1.84,0,2.76a1.84,1.84,0,0,1-2.79,1.78c-.66-.29-.45-.86-.46-1.34C94.26,61.6,94.27,59.42,94.27,57.23Zm3.25-2.89c.17.74-.47,1.9.33,2.44a2.61,2.61,0,0,0,2.62-.24,3,3,0,0,0,1-3.65c-.62-1.42-1.94-1.62-3.2-1.41-1.48.25-.53,1.57-.79,2.38A2.44,2.44,0,0,0,97.52,54.34Z"/><path class="cls-2" d="M166,57.3a16.15,16.15,0,0,1-.63,4.1c-.85,2.78-2.65,4.14-5.45,4.11a5.11,5.11,0,0,1-5.38-4.19,14.12,14.12,0,0,1,.1-8c.9-2.87,3-4.2,6.06-4,2.55.15,4.27,1.75,4.85,4.59C165.81,55,165.89,56.16,166,57.3Zm-3.39.1a11.7,11.7,0,0,0-.47-3.9A2.18,2.18,0,0,0,160,51.81a2.15,2.15,0,0,0-2.13,1.7,13.22,13.22,0,0,0,0,7.63,2.16,2.16,0,0,0,2.25,1.75,2.18,2.18,0,0,0,2.08-1.74A11.86,11.86,0,0,0,162.64,57.4Z"/><path class="cls-2" d="M141,57.49a12.29,12.29,0,0,1,.5-4.09,5.45,5.45,0,0,1,6-4.12c2.63.13,4.36,1.72,5,4.67a14.64,14.64,0,0,1-.32,7.85,5.62,5.62,0,0,1-10.65-.21A13.17,13.17,0,0,1,141,57.49Zm8.5-.17a11.25,11.25,0,0,0-.5-3.91,2.15,2.15,0,0,0-2-1.6,2,2,0,0,0-2.11,1.47,12.62,12.62,0,0,0,0,8.1,2,2,0,0,0,2.07,1.51,2.17,2.17,0,0,0,2.14-1.66A12,12,0,0,0,149.51,57.32Z"/><path class="cls-2" d="M90.79,65.06c-1.53.42-2.08-.32-2.26-1.41-.31-2-1.4-2.73-3.34-2.36a3,3,0,0,1-1,0,2,2,0,0,0-2.61,1.91c-.24,1.93-1.48,2.16-3.08,2-.64-.08-.78-.3-.57-.89q2.52-7.08,5-14.17c.33-.93,1.14-.88,1.86-.93a2.16,2.16,0,0,1,2.44,1.24c1.68,4.6,3.39,9.19,4.91,13.84C92.64,65.84,91.05,64.79,90.79,65.06ZM85.16,52.81h-.37c-.57,1.76-1.15,3.53-1.73,5.29-.22.66.13.8.69.8h2.4c.54,0,.9-.09.68-.79C86.26,56.36,85.72,54.58,85.16,52.81Z"/><path class="cls-2" d="M45.6,65.06c-1.59.42-2.22-.29-2.41-1.47C42.88,61.71,41.85,61,40,61.28a4.74,4.74,0,0,1-1.55,0c-1.2-.18-1.76.35-2.09,1.48-.25.83-.16,2-1.18,2.33A2.92,2.92,0,0,1,32.64,65c-.52-.43.16-1.26.37-1.88,1.45-4.13,3-8.24,4.35-12.39a1.94,1.94,0,0,1,2-1.52c1.12,0,2.15.15,2.57,1.29,1.67,4.55,3.31,9.1,4.88,13.68C47.36,65.8,45.86,64.87,45.6,65.06ZM39.67,52.21c-.54,1.64-.93,2.79-1.3,3.93-1,3-1,3,2.31,2.79.74-.06,1-.18.77-1C40.87,56.2,40.36,54.44,39.67,52.21Z"/><path class="cls-2" d="M14.17,65.54a8.08,8.08,0,0,1-3.69-.74,1.45,1.45,0,0,1-.86-2.21c.56-1.21,1.22-.84,2-.31a4.64,4.64,0,0,0,3.15.65,2.08,2.08,0,0,0,.79-4c-1.06-.46-2.16-.81-3.22-1.25a4,4,0,0,1-2.83-4.08,4.18,4.18,0,0,1,2.88-4.09,8.18,8.18,0,0,1,6.54.3,1.42,1.42,0,0,1,.85,2.09c-.53,1.19-1.19.64-1.92.26a4.8,4.8,0,0,0-3.35-.46,1.69,1.69,0,0,0-1.48,1.26,1.61,1.61,0,0,0,.9,1.88,21.91,21.91,0,0,0,2.53,1.09c3.18,1.24,4.23,2.75,3.79,5.5-.38,2.41-2.44,4-5.41,4.14Z"/><path class="cls-2" d="M105.73,22.49c0-2.08,0-4.15,0-6.23,0-1-.3-1.35-1.29-1.29a23.1,23.1,0,0,1-2.76,0c-.62,0-1.51.33-1.63-.75a1.8,1.8,0,0,1,1.2-2.06,4.55,4.55,0,0,1,1.52-.21c3.52,0,7,0,10.55,0,.62,0,1.51-.32,1.62.75a1.82,1.82,0,0,1-1.18,2.08,5.47,5.47,0,0,1-2.57.17c-1.32-.11-1.8.29-1.77,1.71.1,3.8,0,7.61.07,11.41,0,1.61-.68,1.7-2,1.74s-2-.32-1.85-1.8C105.83,26.18,105.73,24.33,105.73,22.49Z"/><path class="cls-2" d="M26.33,58.57c0-1.73,0-3.47,0-5.19,0-1-.25-1.52-1.35-1.42a10.23,10.23,0,0,1-2.07,0c-.6-.06-1.52.4-1.6-.74a1.59,1.59,0,0,1,1.57-1.89c1.14-.09,2.3,0,3.45,0,2.25,0,4.5,0,6.75,0,.6,0,1.53-.4,1.56.76a1.6,1.6,0,0,1-1.46,1.83A7.49,7.49,0,0,1,31.3,52c-1.27-.15-1.71.28-1.67,1.61.1,3.4,0,6.81.06,10.21,0,1.42-.68,1.4-1.69,1.41s-1.78-.06-1.7-1.44C26.41,62,26.33,60.3,26.33,58.57Z"/><path class="cls-2" d="M136.64,57.41c0,2.19-.06,4.39,0,6.57.06,1.46-.89,1.15-1.71,1.19s-1.58.08-1.54-1.19c.07-2.82,0-5.65,0-8.47,0-2.21,0-2.29-2-1.29-1.22.64-1.67.07-2.05-.91a1.11,1.11,0,0,1,.53-1.48c1.53-.8,3.05-1.65,4.64-2.29,1.39-.55,2,0,2,1.48C136.66,53.15,136.64,55.28,136.64,57.41Z"/><path class="cls-2" d="M40.66,39.42c0,2.18-1.22,3.59-3.1,3.57s-3-1.4-3-3.49,1.24-3.57,3.14-3.57S40.66,37.31,40.66,39.42Zm-4.58,0c.07,1.07.06,2.31,1.6,2.31s1.52-1.23,1.53-2.24-.06-2.34-1.6-2.32S36.14,38.35,36.08,39.43Z"/><path class="cls-2" d="M109,39.75c0-.92,0-1.84,0-2.75,0-.42,0-.84.61-.84s.71.34.71.79c0,1.67,0,3.34,0,5,0,.34,0,.71-.49.77a1,1,0,0,1-1-.48,15.57,15.57,0,0,0-2.4-3.06v2.47c0,.52,0,1.11-.75,1.07s-.59-.59-.6-1c0-1.5,0-3,0-4.49,0-.37-.14-.86.39-1a1,1,0,0,1,1.16.51l2,3.18Z"/><path class="cls-2" d="M79.56,39.73c0-.85,0-1.71,0-2.56,0-.44-.08-1,.61-1s.72.47.73,1c0,1.55,0,3.11,0,4.66,0,.38.09.85-.5.94a.93.93,0,0,1-1-.5,16.3,16.3,0,0,0-2.42-3v2.65c0,.49-.07.93-.74.9s-.61-.42-.61-.84c0-1.61,0-3.22,0-4.83,0-.39,0-.85.53-.92a1,1,0,0,1,1,.53l2,3.16Z"/><path class="cls-2" d="M47,39.73c0-.92,0-1.83,0-2.75,0-.42,0-.84.62-.83s.7.37.7.81c0,1.67,0,3.34,0,5,0,.34,0,.7-.5.76a1,1,0,0,1-1-.52,15.78,15.78,0,0,0-2.41-3c0,.83,0,1.66,0,2.48,0,.52.05,1.11-.75,1.07s-.59-.59-.59-1c0-1.49,0-3,0-4.49,0-.37-.16-.86.37-1s1,.17,1.27.64l1.89,3Z"/><path class="cls-2" d="M96.24,20.91c1,0,2.07,0,3.11,0s1.58.71,1.59,1.82c0,1.27-.9.94-1.58,1-1.73,0-3.46,0-5.19,0-.86,0-1.65-.2-1.87-1.17s-.2-1.75,1.18-1.64c.91.07,1.84,0,2.76,0Z"/><path class="cls-2" d="M62.89,42.76c-1.13.24-1.62-.26-1.51-1.58a19.68,19.68,0,0,0,0-3.6C61.26,36.29,61.89,36,63,36c2.43,0,3.68,1,3.71,3.27C66.71,41.65,65.55,42.76,62.89,42.76Zm-.26-3.28c.77.54-.77,2.14,1,2.15,1.31,0,1.59-1.11,1.59-2.24s-.34-2.22-1.65-2.17C62,37.28,63.21,38.69,62.63,39.48Z"/><path class="cls-2" d="M162.66,43a6.37,6.37,0,0,1-.91-.14c-.49-.15-1.15-.27-1-1s.75-.37,1.23-.24,1.36.37,1.66-.39c.35-.93-.49-1.16-1.12-1.39-1.3-.47-2.13-1.24-1.6-2.72.4-1.12,2.15-1.57,3.47-1,.38.17.81.33.68.84s-.54.39-1,.26c-.59-.17-1.4-.46-1.65.32s.69,1,1.28,1.29c1.07.46,1.77,1.13,1.49,2.37S164,42.94,162.66,43Z"/><path class="cls-2" d="M129.69,42.56a8.71,8.71,0,0,1,.68-1.17c1-1.26,1.25-2.49.11-3.83-.27-.31-.86-.9-.22-1.32s1.13,0,1.37.6c.62,1.5,1.14,1,1.69,0,.26-.5.71-.9,1.25-.61s.1.85-.14,1.14a2.93,2.93,0,0,0,0,4.15c.27.32.86.89.19,1.3a.94.94,0,0,1-1.29-.55c-.72-1.49-1.31-1.45-2,0C131.05,42.93,130.43,42.83,129.69,42.56Z"/><path class="cls-2" d="M125.6,36.12a4.36,4.36,0,0,1,.83,0c.45.09,1.22-.31,1.26.44s-.7.57-1.2.63-1.38-.31-1.42.74c0,.89.66.76,1.22.81s.85.13.8.67-.54.5-.93.5c-.64,0-1.13.06-1.12.9,0,1,.69.86,1.31.88a7.13,7.13,0,0,1,1,.07.53.53,0,0,1,.45.62c0,.31-.29.34-.51.34-1,0-2.06,0-3.1,0-.64,0-.69-.47-.7-1,0-1.56,0-3.11,0-4.66C123.58,35.35,125,36.47,125.6,36.12Z"/><path class="cls-2" d="M83.33,39.56c0-2.66,2.08-4.34,4.27-3.41.49.2,1.06.44.84,1.09s-.7.19-1.09.06a1.6,1.6,0,0,0-2,.44,3.08,3.08,0,0,0-.1,3.28,1.59,1.59,0,0,0,2,.65c.44-.1,1-.7,1.23.18.15.64-.49.81-1,1C85.27,43.56,83.35,42,83.33,39.56Z"/><path class="cls-2" d="M27.53,39.47c0-2.66,2.11-4.25,4.31-3.28.43.18.95.39.79,1s-.7.35-1.12.19a1.59,1.59,0,0,0-2.13.55,2.81,2.81,0,0,0,0,3.11,1.66,1.66,0,0,0,2.13.63c.42-.13.91-.53,1.12.17s-.34.78-.76,1C29.64,43.73,27.51,42.11,27.53,39.47Z"/><path class="cls-2" d="M90.91,39.28v-.34c0-3,.28-3.26,3.36-2.82.33.05.76,0,.75.49s-.37.55-.74.57h-1c-.5,0-.92.08-.91.73s.33.78.87.82,1.2-.18,1.15.63-.78.52-1.24.54-.79.31-.8.87.27.89.92.93,1.94-.34,1.89.56-1.33.43-2,.46C90.91,42.82,90.91,42.76,90.91,39.28Z"/><path class="cls-2" d="M69.09,39.37V39c0-3.05.47-3.44,3.44-2.9.27,0,.62,0,.65.39s-.25.59-.63.65h-.17c-.62.22-1.68-.51-1.84.65s1,.76,1.6,1a.54.54,0,0,1,.4.66c-.08.44-.45.46-.8.46-.66,0-1.28,0-1.26.94s.75.81,1.34.85a8.94,8.94,0,0,1,1,.06.57.57,0,0,1,.51.59c0,.4-.35.37-.63.41h-.17C69.09,43.14,69.09,43.14,69.09,39.37Z"/><path class="cls-2" d="M156.84,42.76c-2.58,0-2.24.27-2.27-2.34V39c0-3,.47-3.44,3.44-2.9.27,0,.62,0,.65.39s-.25.6-.63.65c-.23,0-.46,0-.69,0-.57.06-1.37-.27-1.37.79,0,.86.61.84,1.2.86.4,0,.88,0,.83.59s-.43.47-.78.47c-.64,0-1.29-.07-1.26.93,0,1.18.89.77,1.5.86h.17c.51,0,1.21-.07,1.19.64s-.71.35-1.12.41A4.93,4.93,0,0,1,156.84,42.76Z"/><path class="cls-2" d="M119,36a7.08,7.08,0,0,1,1,0c.51.07,1.32-.32,1.42.5s-.65.68-1.15.68c-.77,0-.78.52-.78,1.07,0,1.15,0,2.3,0,3.46,0,.56-.07,1-.83,1s-.67-.5-.67-1c0-.92,0-1.84,0-2.76s0-2-1.46-1.81c-.29,0-.6-.09-.53-.49a.66.66,0,0,1,.57-.58c.8-.07,1.6-.09,2.4-.14Z"/><path class="cls-2" d="M51.05,39.39c0-.11,0-.23,0-.34,0-3.25,0-3.25,3.24-2.92.36,0,.92-.12.87.51s-.51.54-.93.55h-1a.63.63,0,0,0-.73.73c0,.51.27.68.74.73s1.34-.27,1.29.66c0,.76-.77.49-1.24.54-1.26.13-.68,1.1-.8,1.73-.09.48.12,1.11-.68,1.14s-.7-.6-.71-1.09C51,40.89,51.05,40.14,51.05,39.39Z"/><path class="cls-2" d="M148.16,39.32c0-.74,0-1.49,0-2.24,0-.46,0-1,.67-.94s.79.43.81.94a26,26,0,0,1,0,2.93c-.11,1.23.21,1.88,1.58,1.67.47-.07,1.06,0,1.06.6s-.66.45-1.07.47C148.16,42.92,148.16,42.91,148.16,39.32Z"/><path class="cls-2" d="M139.57,36.12a4.12,4.12,0,0,1,.86,0c.56.12,1.47-.39,1.61.43s-.77.59-1.28.68c-.74.13-.64.7-.65,1.2,0,1.15,0,2.3,0,3.44,0,.42,0,.82-.6.85s-.79-.31-.79-.85c0-1,0-2.06,0-3.09s0-1.77-1.31-1.59c-.26,0-.62,0-.67-.34a.59.59,0,0,1,.59-.69c.75-.05,1.49,0,2.24,0Z"/><path class="cls-2" d="M102.49,39.62v2.24c0,.52-.12.91-.76.89s-.73-.42-.73-.93c0-1.55,0-3.11,0-4.66,0-.45-.08-1,.61-1s.85.49.86,1.05C102.5,38,102.49,38.81,102.49,39.62Z"/><path class="cls-2" d="M145.59,39.55V42c0,.46-.16.77-.7.76s-.68-.33-.68-.78v-5c0-.43.08-.83.65-.79a.73.73,0,0,1,.71.81c0,.87,0,1.73,0,2.59Z"/><path class="cls-2" d="M57.34,39.45V37c0-.41,0-.85.58-.88a.69.69,0,0,1,.78.73c0,1.72,0,3.45,0,5.18a.58.58,0,0,1-.61.67c-.49,0-.76-.19-.76-.69,0-.87,0-1.73,0-2.59Z"/><path class="cls-2" d="M191.63,54.67c-.2-1.05.19-1.44,1.28-1.47,1.44,0,1.3.94,1.43,1.82.16,1.09-.57,1-1.28,1.06C192,56.15,191.36,55.87,191.63,54.67Z"/><path class="cls-2" d="M185.94,56c-.26-.1-1.24.41-1.05-.7.16-.94.15-2.19,1.69-2.07.51,0,1.33-.2,1.06.78C187.41,54.85,188,56.35,185.94,56Z"/><path class="cls-2" d="M196.48,56c-2,.26-1.4-1.24-1.61-2.06s.61-.71,1.12-.74c1.53-.08,1.51,1.19,1.64,2.11C197.79,56.43,196.8,55.91,196.48,56Z"/><path class="cls-2" d="M189.56,56.69c1.1-.22,1.42.29,1.4,1.41s-.31,1.36-1.36,1.39c-1.44,0-1.31-.93-1.42-1.82C188.05,56.56,188.8,56.66,189.56,56.69Z"/><path class="cls-2" d="M191.63,58.1c-.24-1.14.26-1.55,1.38-1.44.67.07,1.49-.14,1.33,1-.12.86,0,1.87-1.4,1.83C191.92,59.45,191.4,59.21,191.63,58.1Z"/><path class="cls-2" d="M190.88,54.58c.3,1.35-.45,1.48-1.44,1.44-.73,0-1.4,0-1.26-1.06s.08-1.83,1.47-1.76C190.71,53.26,191.16,53.59,190.88,54.58Z"/><path class="cls-2" d="M196.75,56.77c.13,0,1.1-.41.88.72-.18.88-.15,2.09-1.61,1.95-.5,0-1.36.25-1.14-.73S194.54,56.36,196.75,56.77Z"/><path class="cls-2" d="M186.09,56.69c1.85-.36,1.35,1.13,1.55,2s-.6.73-1.11.78c-1.46.15-1.44-1-1.64-1.93C184.65,56.4,185.59,56.78,186.09,56.69Z"/><path class="cls-2" d="M190.91,61.62c-.14.32.33,1.16-.47,1.1-1.09-.1-1.32-1.18-1.54-2s.53-.52.93-.57C191,60,191,60.72,190.91,61.62Z"/><path class="cls-2" d="M191.62,61.63c-.05-.85-.13-1.65,1-1.5.39,0,1.12-.19,1,.54s-.45,1.92-1.52,2C191.29,62.81,191.76,62,191.62,61.63Z"/><path class="cls-2" d="M190.89,51.21c.15,1-.14,1.47-1.07,1.36-.41,0-1.08.12-.91-.61s.48-1.8,1.45-1.89S190.76,50.9,190.89,51.21Z"/><path class="cls-2" d="M193.11,52.49c-1.6.25-1.57-.55-1.49-1.32,0-.42-.3-1.23.55-1.11s1.21,1.13,1.42,1.92S193.08,52.49,193.11,52.49Z"/><path class="cls-2" d="M186.25,60.25c1.67-.52,2.05.42,2.25,1.86A3.48,3.48,0,0,1,186.25,60.25Z"/><path class="cls-2" d="M196.37,60.27a4.75,4.75,0,0,1-2.3,1.87C194.19,60.73,194.5,59.78,196.37,60.27Z"/><path class="cls-2" d="M196.37,52.46c-1.8.57-2.15-.39-2.34-1.8A4.36,4.36,0,0,1,196.37,52.46Z"/><path class="cls-2" d="M188.52,50.47c-.24,1.59-.6,2.53-2.25,2.05C186.62,51.51,187.49,51.15,188.52,50.47Z"/><path class="cls-2" d="M154.66,20.58a8.23,8.23,0,0,1,0-1.72c.21-.91-.7-2.19.66-2.7,1.61-.61,4.51,0,5.19,1.05a2.53,2.53,0,0,1-.24,3.47c-1,.89-.68,1.48-.11,2.27a4.73,4.73,0,0,1,.54.88c.19.48,1,1,.39,1.44a1.39,1.39,0,0,1-2-.48c-.49-.7-.9-1.46-1.36-2.2-.18-.29-.37-.65-.77-.57s-.34.53-.36.85,0,.92,0,1.38c0,.64-.07,1.12-.91,1.12s-1.1-.39-1.09-1.16C154.68,23,154.66,21.79,154.66,20.58Zm2-1.55c.2.52-.44,1.53.77,1.52a1.47,1.47,0,0,0,1.6-1.64,1.36,1.36,0,0,0-1.4-1.45C156.29,17.36,156.74,18.35,156.63,19Z"/></svg>