<svg id="圖層_1" data-name="圖層 1" xmlns="http://www.w3.org/2000/svg" viewBox="0 0 140 140"><defs><style>.cls-1{fill:gray;}</style></defs><title>icon19</title><path class="cls-1" d="M45.12,76a1,1,0,1,0,1.06,1A1,1,0,0,0,45.12,76Zm0,1.75a.72.72,0,0,1-.74-.72.74.74,0,1,1,1.48,0A.72.72,0,0,1,45.12,77.75Z"/><polygon class="cls-1" points="55.45 72.42 50.28 72.42 50.87 63.44 47.52 72.42 42.72 72.42 50.33 52.13 55.43 52.13 54.84 61.23 58.26 52.13 63.06 52.13 55.45 72.42"/><polygon class="cls-1" points="56.07 72.42 63.68 52.13 68.48 52.13 60.87 72.42 56.07 72.42"/><path class="cls-1" d="M42.17,65.42c-6.71,7.88-13,18.35-7.45,23.17,5.42,4.68,12.18,1.91,16.79.07s55.6-24,55.6-24c.49-.24.4-.55-.22-.4l-55.5,15C44.38,81.28,36.38,77,42.17,65.42Z"/><path class="cls-1" d="M45.3,77.1a.26.26,0,0,0,.27-.29c0-.27-.17-.34-.46-.34h-.42v1.11H45v-.47h0l.26.47h.32Zm-.17-.18H45v-.26h.13c.08,0,.18,0,.18.12S45.22,76.92,45.13,76.92Z"/><path class="cls-1" d="M93.34,52.06a1,1,0,1,0,1.06,1A1,1,0,0,0,93.34,52.06Zm0,1.76a.73.73,0,1,1,.74-.73A.72.72,0,0,1,93.34,53.82Z"/><path class="cls-1" d="M93.52,53.16a.26.26,0,0,0,.27-.29c0-.27-.17-.33-.46-.33h-.42v1.1h.28v-.47h0l.26.47h.32ZM93.35,53h-.16v-.25h.13c.08,0,.18,0,.18.11S93.44,53,93.35,53Z"/><path class="cls-1" d="M90.18,55.51l1.29-3.38H76.84l-5,6.08,2.32-6.08H69.27L61.72,72.42h4.8l3.22-8.49L70,72.42l14.72,0,1.4-3.91H80.49l1.83-4.92h4.62l1.42-3.78H83.74l1.58-4.27ZM74.72,71.07l-.31-10.58,7.26-8Z"/></svg>