<svg id="Layer_2" data-name="Layer 2" xmlns="http://www.w3.org/2000/svg" xmlns:xlink="http://www.w3.org/1999/xlink" viewBox="0 0 100 100"><defs><style>.cls-1{fill:none;}.cls-2{clip-path:url(#clip-path);}.cls-3{clip-path:url(#clip-path-2);}.cls-4{fill:#a8a8a8;}</style><clipPath id="clip-path"><rect class="cls-1" x="-1875.24" y="-962.79" width="1024" height="767.8"/></clipPath><clipPath id="clip-path-2"><rect class="cls-1" width="100" height="100"/></clipPath></defs><title>icon12</title><g class="cls-2"><image width="1806" height="1309" transform="translate(-1944.24 -1459.99) scale(1.13)" xlink:href="../../Dropbox/前後&apos;s shared workspace/PROJECTS/202002_SAYA/攝影/20200505_南亞紗廠攝影30張final/jpg/20200401-196.jpg"/></g><g class="cls-3"><path d="M75.76,75.37l-11-23.11c-3.06-6.43-5.93-13.47-5.93-20.61V26.84H56.07v5.88c.27,8,3.43,15.61,6.51,22.07l11,23.1c.43.89-.6,4-3.74,4H67L53.11,53.31h-15c2.6-5.61,5.55-12.87,5.81-20.59l0-5.88H41.18v4.81c0,7.14-2.87,14.18-5.93,20.61l-11,23.11a7.19,7.19,0,0,0,6.41,10.3h38.7a7.19,7.19,0,0,0,6.41-10.3Z"/><path class="cls-4" d="M41.18,21H58.82a2.94,2.94,0,1,0,0-5.88H41.18a2.94,2.94,0,1,0,0,5.88Z"/></g></svg>