<svg id="Layer_2" data-name="Layer 2" xmlns="http://www.w3.org/2000/svg" xmlns:xlink="http://www.w3.org/1999/xlink" viewBox="0 0 76 76"><defs><style>.cls-1,.cls-4{fill:none;}.cls-2{clip-path:url(#clip-path);}.cls-3{clip-path:url(#clip-path-2);}.cls-4{stroke:#c8c2c2;stroke-miterlimit:10;stroke-width:1.63px;}.cls-5,.cls-6{fill:#bfc723;}.cls-6{opacity:0.3;}.cls-7{fill:#fff;}</style><clipPath id="clip-path"><rect class="cls-1" x="-679.11" y="-886.32" width="1034.24" height="775.48"/></clipPath><clipPath id="clip-path-2"><rect class="cls-1" width="76" height="76"/></clipPath></defs><title>icon5</title><g class="cls-2"><image width="1806" height="1309" transform="translate(-748.8 -1388.49) scale(1.14)" xlink:href="../../Dropbox/前後&apos;s shared workspace/PROJECTS/202002_SAYA/攝影/20200505_南亞紗廠攝影30張final/jpg/20200401-196.jpg"/></g><g class="cls-3"><path class="cls-4" d="M9.53,26.23c5.69,0,5.69,4.44,11.39,4.44s5.69-4.44,11.38-4.44S38,30.67,43.68,30.67s5.7-4.44,11.39-4.44,5.7,4.44,11.39,4.44"/><path class="cls-4" d="M9.53,32.22c5.69,0,5.69,4.43,11.39,4.43s5.69-4.43,11.38-4.43S38,36.65,43.68,36.65s5.7-4.43,11.39-4.43,5.7,4.43,11.39,4.43"/><path class="cls-4" d="M9.53,38.2c5.69,0,5.69,4.44,11.39,4.44S26.61,38.2,32.3,38.2,38,42.64,43.68,42.64s5.7-4.44,11.39-4.44,5.7,4.44,11.39,4.44"/><circle class="cls-5" cx="31.02" cy="61.04" r="2.96"/><circle class="cls-6" cx="42.93" cy="54.27" r="3.93"/><circle class="cls-7" cx="47.25" cy="26.79" r="3.44"/></g></svg>