<svg id="Layer_2" data-name="Layer 2" xmlns="http://www.w3.org/2000/svg" xmlns:xlink="http://www.w3.org/1999/xlink" viewBox="0 0 140 140"><defs><style>.cls-1,.cls-5{fill:none;}.cls-2{clip-path:url(#clip-path);}.cls-3{clip-path:url(#clip-path-2);}.cls-4,.cls-8{fill:#bfc723;}.cls-5{stroke:#fff;stroke-miterlimit:10;stroke-width:2.28px;}.cls-6{fill:#fff;}.cls-7{fill:#c1c1c1;}.cls-8{opacity:0.4;}</style><clipPath id="clip-path"><rect class="cls-1" x="-138.91" y="-920.51" width="1034.24" height="775.48"/></clipPath><clipPath id="clip-path-2"><rect class="cls-1" x="-1237.32" y="-920.51" width="1034.24" height="775.48"/></clipPath><image id="image" width="1806" height="1309" xlink:href="../../Dropbox/前後&apos;s shared workspace/PROJECTS/202002_SAYA/攝影/20200505_南亞紗廠攝影30張final/jpg/20200401-196.jpg"/></defs><title>icon8</title><rect class="cls-1" width="140" height="140"/><g class="cls-2"><use transform="translate(-208.6 -1422.68) scale(1.14)" xlink:href="#image"/></g><g class="cls-3"><use transform="translate(-1307.01 -1422.68) scale(1.14)" xlink:href="#image"/></g><circle class="cls-4" cx="68.73" cy="94.84" r="25.57"/><path class="cls-5" d="M32.83,47.29s11.41,2.56,19.74,11.33"/><polygon class="cls-6" points="49.26 60.09 55.68 62.43 54.5 55.7 49.26 60.09"/><path class="cls-5" d="M107.47,54.62s-7.09-.92-13.91,6.18"/><polygon class="cls-6" points="91.63 57.91 90.49 64.64 96.89 62.27 91.63 57.91"/><path class="cls-5" d="M62,28.35S73.12,39,73.44,55.19"/><polygon class="cls-6" points="69.98 54.08 73.2 60.1 76.81 54.3 69.98 54.08"/><circle class="cls-7" cx="22.43" cy="44.66" r="5.42"/><circle class="cls-8" cx="117.56" cy="57.04" r="5.42"/><circle class="cls-6" cx="56.52" cy="22.58" r="3.7"/></svg>