<svg id="Layer_2" data-name="Layer 2" xmlns="http://www.w3.org/2000/svg" xmlns:xlink="http://www.w3.org/1999/xlink" viewBox="0 0 140 140"><defs><style>.cls-1,.cls-7,.cls-8{fill:none;}.cls-2{clip-path:url(#clip-path);}.cls-3{clip-path:url(#clip-path-2);}.cls-4,.cls-5{fill:#bfc723;}.cls-4{opacity:0.5;}.cls-6{fill:#c8c2c2;}.cls-7,.cls-8{stroke:#fff;stroke-miterlimit:10;stroke-width:2.6px;}.cls-8{stroke-dasharray:6.19 6.19;}</style><clipPath id="clip-path"><rect class="cls-1" x="-687.15" y="-920.51" width="1034.24" height="775.48"/></clipPath><clipPath id="clip-path-2"><rect class="cls-1" x="-1785.56" y="-920.51" width="1034.24" height="775.48"/></clipPath><image id="image" width="1806" height="1309" xlink:href="../../Dropbox/前後&apos;s shared workspace/PROJECTS/202002_SAYA/攝影/20200505_南亞紗廠攝影30張final/jpg/20200401-196.jpg"/></defs><title>icon10</title><rect class="cls-1" width="140" height="140"/><g class="cls-2"><use transform="translate(-756.84 -1422.68) scale(1.14)" xlink:href="#image"/></g><g class="cls-3"><use transform="translate(-1855.25 -1422.68) scale(1.14)" xlink:href="#image"/></g><path class="cls-4" d="M75.06,71.57c0-10.49,2.3-39.75,2.77-45.62a7.17,7.17,0,1,0-14.27-1h0a6.93,6.93,0,0,0,.08,1c.47,5.87,2.77,35.13,2.77,45.63s-2.3,39.75-2.77,45.62a7.17,7.17,0,0,0-.08,1h0a7.18,7.18,0,1,0,14.27-1C77.36,111.32,75.06,82.06,75.06,71.57Z"/><path class="cls-5" d="M102.88,86.05c-.64-5.46-2.65-23.14-2.65-29.75s2-24.3,2.65-29.76a6.8,6.8,0,0,0,.2-1.63,7.18,7.18,0,1,0-14.35,0,7.34,7.34,0,0,0,.19,1.63c.64,5.46,2.66,23.15,2.66,29.76s-2,24.29-2.66,29.75a7.36,7.36,0,0,0-.19,1.64h0a7.18,7.18,0,0,0,14.35,0h0A6.82,6.82,0,0,0,102.88,86.05Z"/><circle class="cls-6" cx="44.03" cy="24.91" r="7.17"/><circle class="cls-6" cx="44.03" cy="66.16" r="7.17"/><path class="cls-6" d="M36.85,66.16S39.7,50.7,39.7,45.53s-2.85-20.62-2.85-20.62H51.2s-2.85,15.46-2.85,20.62S51.2,66.16,51.2,66.16Z"/><line class="cls-7" x1="125.88" y1="94.86" x2="122.63" y2="94.86"/><line class="cls-8" x1="116.44" y1="94.86" x2="20.47" y2="94.86"/><line class="cls-7" x1="17.37" y1="94.86" x2="14.12" y2="94.86"/></svg>