<svg id="圖層_1" data-name="圖層 1" xmlns="http://www.w3.org/2000/svg" viewBox="0 0 140 140"><defs><style>.cls-1{fill:gray;}</style></defs><title>icon16</title><g id="_群組_" data-name="&lt;群組&gt;"><path class="cls-1" d="M110.61,88.68H107a2.32,2.32,0,0,0-.52-1.25,2.68,2.68,0,0,0-1.93-.58,2.93,2.93,0,0,0-1.85.44,1.15,1.15,0,0,0-.4.92c0,.54.75,1,2.25,1.3,1.7.37,2.92.7,3.67.95l.5.2A3.47,3.47,0,0,1,111,93.92a4.13,4.13,0,0,1-2.21,3.89,5.77,5.77,0,0,1-.56.27,8.3,8.3,0,0,1-3.3.62,9.12,9.12,0,0,1-4.52-1,4.32,4.32,0,0,1-1.62-1.58,4.46,4.46,0,0,1-.54-2.23H102a1.78,1.78,0,0,0,.69,1.49,3.86,3.86,0,0,0,2.33.54,2.87,2.87,0,0,0,1.86-.51,1.18,1.18,0,0,0,.47-.92c0-.58-.74-1-2.21-1.36A24.5,24.5,0,0,1,101,92a3.44,3.44,0,0,1-2.25-3.3,4.31,4.31,0,0,1,1.18-3.07,5.78,5.78,0,0,1,4.43-1.57,9.41,9.41,0,0,1,3.89.69,1.71,1.71,0,0,1,.23.13,4,4,0,0,1,1.59,1.52A4.58,4.58,0,0,1,110.61,88.68Z"/><path class="cls-1" d="M108.7,79.94a.29.29,0,0,0,0-.19.28.28,0,0,0-.16-.12.89.89,0,0,0-.24,0h-.56v.69h.56a.53.53,0,0,0,.34-.1A.32.32,0,0,0,108.7,79.94Zm.3-.38a.59.59,0,0,1-.08.78.67.67,0,0,1-.48.21.87.87,0,0,1,.2.12l.34.46.27.46h-.44l-.21-.37a2,2,0,0,0-.35-.5l0,0-.3-.09h-.22v1h-.37V79.27h.93a1.57,1.57,0,0,1,.45.06A.59.59,0,0,1,109,79.56Z"/><path class="cls-1" d="M110.05,80.4a1.81,1.81,0,0,0-.24-.9,1.7,1.7,0,0,0-.67-.66,1.87,1.87,0,0,0-.87-.24h0a1.87,1.87,0,0,0-.87.24,1.7,1.7,0,0,0-.67.66,1.81,1.81,0,0,0-.24.9,1.78,1.78,0,0,0,.24.89,1.68,1.68,0,0,0,.66.66,1.75,1.75,0,0,0,.88.23h0a1.79,1.79,0,0,0,.89-.23,1.72,1.72,0,0,0,.65-.66A1.78,1.78,0,0,0,110.05,80.4Zm.35,0a2.12,2.12,0,0,1-.28,1.07,2,2,0,0,1-.79.79,2.16,2.16,0,0,1-1.06.28h0a2.16,2.16,0,0,1-1.06-.28,2,2,0,0,1-.79-.79,2.22,2.22,0,0,1-.28-1.07,2.18,2.18,0,0,1,.28-1.08,1.93,1.93,0,0,1,.81-.79,2.36,2.36,0,0,1,1-.29h0a2.19,2.19,0,0,1,1,.29,1.9,1.9,0,0,1,.8.79A2.08,2.08,0,0,1,110.4,80.4Z"/><polygon class="cls-1" points="89.4 62.96 99.54 79.85 89.4 79.85 83.26 79.85 73.58 63.72 66.25 51.51 73.58 47.1 78.2 44.32 89.4 62.96"/><path class="cls-1" d="M96.76,91.58V98.5H93.39v-.76a7.19,7.19,0,0,1-4,1.17h0a7.34,7.34,0,0,1,0-14.67h0a7.2,7.2,0,0,1,4,1.18v-.81h3.37Zm-3.37.76V90.81a4,4,0,0,0-4-3.26h0a4,4,0,0,0,0,8.06h0A4.05,4.05,0,0,0,93.39,92.34Z"/><path class="cls-1" d="M80.94,91.58V98.5H77.57v-.76a7.27,7.27,0,0,1-3.95,1.17h0a7.34,7.34,0,0,1,0-14.67h0a7.27,7.27,0,0,1,3.95,1.18V79.85h3.37Zm-3.37.76V90.81a4,4,0,0,0-3.95-3.26h0a4,4,0,0,0,0,8.06h0A4.05,4.05,0,0,0,77.57,92.34Z"/><polygon class="cls-1" points="73.58 73.21 77.55 79.85 73.58 79.85 61.28 79.85 52.25 64.81 51.85 64.16 52.25 63.92 63.81 56.96 73.58 73.21"/><rect class="cls-1" x="61.3" y="84.24" width="3.67" height="14.26"/><rect class="cls-1" x="61.3" y="79.92" width="3.67" height="3.22"/><path class="cls-1" d="M59.62,91.58V98.5H56.25v-.76a7.3,7.3,0,0,1-4,1.17h0a7.34,7.34,0,0,1,0-14.67h0a7.31,7.31,0,0,1,4,1.18V79.85h3.37Zm-3.37.76V90.81a4,4,0,0,0-4-3.26h0a4,4,0,0,0,0,8.06h0A4.05,4.05,0,0,0,56.25,92.34Z"/><polygon class="cls-1" points="52.25 74.29 55.58 79.85 52.25 79.85 39.3 79.85 37.47 76.8 49.43 69.62 52.25 74.29"/><path class="cls-1" d="M43.63,91.58V98.5H40.26v-.76a7.27,7.27,0,0,1-4,1.17h0a7.34,7.34,0,0,1,0-14.67h0a7.28,7.28,0,0,1,4,1.18v-.81h3.37Zm-3.37.76V90.81a4,4,0,0,0-4-3.26h0a4,4,0,0,0,0,8.06h0A4.05,4.05,0,0,0,40.26,92.34Z"/></g></svg>