<svg id="圖層_1" data-name="圖層 1" xmlns="http://www.w3.org/2000/svg" xmlns:xlink="http://www.w3.org/1999/xlink" viewBox="0 0 140 140"><defs><style>.cls-1{fill:none;}.cls-2{opacity:0.35;}.cls-3{clip-path:url(#clip-path);}.cls-4{fill:#1a1a1a;}</style><clipPath id="clip-path"><rect class="cls-1" x="-171.95" y="-467.55" width="1035.68" height="332"/></clipPath></defs><title>icon21</title><g class="cls-2"><g class="cls-3"><rect x="106.45" y="45.48" width="47.91" height="47.91"/><image width="2048" height="1346" transform="translate(-398.98 -737.69) scale(0.73)" xlink:href="../../Dropbox/前後&apos;s shared workspace/PROJECTS/202002_SAYA/圖庫/istock/istockphoto-182146447-2048x2048.jpg"/></g></g><path class="cls-4" d="M126,74.91C126,83.4,122.1,88.6,114.75,90.6a.77.77,0,0,0-.69.93c0,1.19,0,2.39,0,3.59,0,.78-.15,1.12-1,1.06-1.15-.1-2.65.35-3.37-.22s-.31-2.18-.21-3.31c.11-1.44-.35-2-1.8-2.35A13.88,13.88,0,0,1,97.55,77a46.07,46.07,0,0,1,13.5-32.81c.56-.59.88-.57,1.44,0A46.83,46.83,0,0,1,125.25,68.6,37.75,37.75,0,0,1,126,74.91Zm-4.55,1.36A44,44,0,0,0,112.35,51c-.43-.57-.7-.71-1.14,0-.72,1.1-1.55,2.14-2.25,3.26a41.26,41.26,0,0,0-6.8,22.67,9.67,9.67,0,0,0,6.61,9,9.56,9.56,0,0,0,10.47-3.13A9.39,9.39,0,0,0,121.43,76.27Z"/><path class="cls-4" d="M91.14,56.24c.18-1.61.18-1.61,1.93-1.61,2.77,0,2.77,0,2.77,2.74,0,3.6,0,7.19,0,10.79a26.54,26.54,0,0,1-.12,3A7.31,7.31,0,0,1,88.94,78a14.56,14.56,0,0,1-9.36-1.48c-.78-.44-1-.84-.35-1.61A23.91,23.91,0,0,0,81,72.38c.34-.57.62-.57,1.13-.18a7.28,7.28,0,0,0,4.09,1.59c3.3.14,4.79-1.39,4.58-4.91a6.42,6.42,0,0,1-5.59,1.68,7,7,0,0,1-5-2.87,9.37,9.37,0,0,1,.73-11.35C83.54,53.56,87.14,53.53,91.14,56.24Zm.1,6.25a3.83,3.83,0,1,0-3.86,3.77A4,4,0,0,0,91.24,62.49Z"/><path class="cls-4" d="M53.09,59c0,3.43,0,6.86,0,10.29,0,1-.31,1.28-1.25,1.2a17.77,17.77,0,0,0-2.73,0c-.93.08-1.3-.16-1.26-1.2.08-2.56,0-5.12,0-7.69,0-.82-.24-1-1-1q-3.78.07-7.56,0c-.84,0-1.14.18-1.12,1.08.06,2.56,0,5.13,0,7.69,0,.81-.12,1.24-1.06,1.14-1.34-.15-3.09.58-3.93-.29s-.2-2.52-.2-3.83c0-5.92,0-11.83,0-17.74,0-.89.16-1.27,1.14-1.18a18.41,18.41,0,0,0,3,0c.85-.06,1.15.16,1.12,1.07-.07,2.1,0,4.21,0,6.32,0,.82.13,1.17,1.06,1.15,2.56-.07,5.13,0,7.69,0,.76,0,1-.19,1-1-.05-2.19,0-4.38,0-6.57,0-.74.15-1.07,1-1,1.39.12,3.2-.58,4,.28.67.68.2,2.5.21,3.82C53.1,54,53.09,56.51,53.09,59Z"/><path class="cls-4" d="M72.61,68.87c-3.1,2.87-7.9,1.81-10-.42a9.33,9.33,0,0,1-.21-11.76C65,53.6,68.83,53.42,72.9,56.2c.27-.22.17-.54.15-.8,0-.6.19-.85.78-.77H74c1.18.07,2.7-.49,3.47.21s.2,2.19.21,3.33c0,3.6,0,7.2,0,10.8a13.29,13.29,0,0,1-.19,2.59c-.73,3.86-2.88,6-6.77,6.48a14.28,14.28,0,0,1-9.47-1.6c-.62-.38-.84-.74-.26-1.33a3,3,0,0,0,.34-.51c.58-.86,1-2,1.78-2.49s1.65.84,2.58,1.16a8.29,8.29,0,0,0,3.65.48C71.7,73.45,72.77,71.91,72.61,68.87Zm-7.19-6.52a3.93,3.93,0,0,0,3.68,3.91,4,4,0,0,0,4-3.79,3.94,3.94,0,0,0-3.78-3.83A3.87,3.87,0,0,0,65.42,62.35Z"/><path class="cls-4" d="M54.75,94.15c-3.31,2.8-7.32,2.8-10.17.1s-3.2-8.31-.62-11.86c1.77-2.45,6.06-4.14,10.5-1.07,0-2.92.08-5.76,0-8.59-.05-1.25.35-1.58,1.51-1.44a10.86,10.86,0,0,0,2.35,0c.88-.08,1.21.14,1.2,1.12q-.07,11.16,0,22.31c0,.92-.22,1.28-1.17,1.16a12.45,12.45,0,0,0-1.73,0C54.88,95.87,54.88,95.87,54.75,94.15Zm.07-6.08a3.83,3.83,0,1,0-4,3.8A3.66,3.66,0,0,0,54.82,88.07Z"/><path class="cls-4" d="M72.42,89.55c-1.57,0-3.14,0-4.71,0-.8,0-.93.23-.58.94a3.64,3.64,0,0,0,5.87.85c.75-.75,1.22-.71,1.9-.07a13.16,13.16,0,0,0,1.19.89c1.43,1,1.43,1,.1,2.15a9.45,9.45,0,0,1-11.5,0A8.42,8.42,0,0,1,62.7,84c2.1-3.94,7.9-5.63,11.76-3.37C77,82.11,77.83,84.56,78,87.31c0,.45,0,.91,0,1.36.09.75-.27.91-.93.89C75.57,89.53,74,89.55,72.42,89.55ZM69.8,86.14c.74,0,1.49,0,2.22,0,1.17.1,1.11-.46.74-1.25a3,3,0,0,0-2.93-1.63,3.42,3.42,0,0,0-2.91,2.15c-.17.55,0,.75.54.73C68.24,86.11,69,86.14,69.8,86.14Z"/><path class="cls-4" d="M29.87,81.84a6.32,6.32,0,0,1,6.35-2c2.2.35,3.59,1.89,3.94,4.34.52,3.7.14,7.42.25,11.14,0,.4-.12.6-.56.6-1.28,0-2.56,0-3.84,0-.78,0-.59-.52-.59-.93,0-2.36,0-4.71,0-7.07A11.47,11.47,0,0,0,35.23,86a2.15,2.15,0,0,0-2.17-2,2.5,2.5,0,0,0-2.67,1.76,7.19,7.19,0,0,0-.28,2.44c0,2.19,0,4.38,0,6.57,0,.75-.12,1.14-1,1.06a21.25,21.25,0,0,0-3.09,0c-.81,0-.95-.28-.95-1q0-6.94,0-13.88c0-.73.15-1.07.95-1s1.41,0,2.11,0C29.2,80,30.52,79.71,29.87,81.84Z"/><path class="cls-4" d="M87.53,84.16c.75-1.19,1.46-2.25,2.1-3.35a1.44,1.44,0,0,1,1.49-.8c1.15.06,2.31,0,3.47,0,.3,0,.72-.2.89.19s-.21.51-.36.74c-1.3,1.86-2.57,3.75-3.93,5.57a1.2,1.2,0,0,0,0,1.71c1.68,2.25,3.3,4.54,4.94,6.83.13.19.37.34.28.79-1.72,0-3.47,0-5.22,0-.53,0-.69-.39-.91-.72l-2.9-4.42c-1,1.48-2.07,2.85-3,4.27a1.7,1.7,0,0,1-1.72.88c-1.48-.06-3,0-4.44,0-.26-.44.12-.63.29-.87,1.68-2.3,3.36-4.61,5.1-6.87a1,1,0,0,0,0-1.48c-1.44-1.91-2.8-3.88-4.22-5.82-.44-.6-.38-.87.41-.8A2.08,2.08,0,0,1,80,80c1.57,0,3.4-.44,4.62.21S86.51,82.68,87.53,84.16Z"/><path class="cls-4" d="M16.91,84.32c0-3.39.05-6.78,0-10.16,0-1.15.34-1.43,1.4-1.33a17,17,0,0,0,2.85,0c.86-.06,1.12.22,1.11,1.1-.05,4,0,8,0,12,0,2.94,0,5.87,0,8.81,0,.82-.15,1.2-1.07,1.13a23.07,23.07,0,0,0-3.22,0c-.82,0-1.06-.2-1.05-1C16.93,91.35,16.91,87.84,16.91,84.32Z"/><path class="cls-4" d="M54.84,62.48c0-2.27,0-4.54,0-6.8,0-.77.14-1.13,1-1.06a22.76,22.76,0,0,0,3.09,0c.81-.06.94.28.93,1,0,4.62,0,9.23,0,13.85,0,.86-.3,1.06-1.07,1a19.37,19.37,0,0,0-2.85,0c-1,.1-1.15-.31-1.13-1.2C54.88,67,54.84,64.75,54.84,62.48Z"/><path class="cls-4" d="M54.5,49.73a2.87,2.87,0,0,1,5.74,0,2.84,2.84,0,0,1-2.86,2.93A2.81,2.81,0,0,1,54.5,49.73Z"/><path class="cls-4" d="M109.6,71.53h2.85c.62,0,1.07.25,1.1.9s-.41,1-1.08,1h-5.94c-.67,0-1.14-.3-1.11-1s.47-.92,1.09-.92Z"/><path class="cls-4" d="M109.45,82.22h-3c-.63,0-1-.29-1.06-1a.91.91,0,0,1,1-1c2,0,4,0,6.06,0,.63,0,1.06.3,1.06,1s-.45,1-1.13,1C111.43,82.21,110.44,82.22,109.45,82.22Z"/><path class="cls-4" d="M109.62,62.8h2.84c.63,0,1.07.25,1.1.9s-.45,1-1.12,1h-5.93c-.61,0-1.07-.23-1.09-.91s.44-1,1.12-1Z"/><path class="cls-4" d="M111,60.35c-.57,0-1.15,0-1.72,0a.93.93,0,0,1-1-1,.9.9,0,0,1,1-.93c1.15,0,2.3,0,3.45,0a.88.88,0,0,1,.93.93.89.89,0,0,1-.88,1c-.57.05-1.15,0-1.73,0Z"/><path class="cls-4" d="M110.9,69.08c-.57,0-1.15,0-1.72,0a.9.9,0,0,1-1-.93.89.89,0,0,1,.88-1q1.78-.07,3.57,0a.87.87,0,0,1,.88,1,.88.88,0,0,1-.94.93C112.05,69.1,111.48,69.08,110.9,69.08Z"/><path class="cls-4" d="M110.84,77.81c-.58,0-1.15,0-1.73,0a.93.93,0,0,1,0-1.86c1.19,0,2.39,0,3.59,0a.85.85,0,0,1,.87,1,.89.89,0,0,1-1,.89h-1.74Z"/></svg>