<svg id="圖層_1" data-name="圖層 1" xmlns="http://www.w3.org/2000/svg" xmlns:xlink="http://www.w3.org/1999/xlink" viewBox="0 0 140 140"><defs><style>.cls-1{fill:none;}.cls-2{opacity:0.35;}.cls-3{clip-path:url(#clip-path);}.cls-4{fill:#1a1a1a;}</style><clipPath id="clip-path"><rect class="cls-1" x="-491.95" y="-467.55" width="1035.68" height="332"/></clipPath></defs><title>icon24</title><g class="cls-2"><g class="cls-3"><image width="2048" height="1346" transform="translate(-718.98 -737.69) scale(0.73)" xlink:href="../../Dropbox/前後&apos;s shared workspace/PROJECTS/202002_SAYA/圖庫/istock/istockphoto-182146447-2048x2048.jpg"/></g></g><path class="cls-4" d="M35.1,108.14H33v-8.07l-2.5.77v-1.7l4.37-1.56h.22Z"/><path class="cls-4" d="M44.73,104.17h1.19v1.69H44.73v2.28h-2.1v-2.28H38.31l-.1-1.32,4.4-7h2.12Zm-4.43,0h2.33v-3.72l-.14.23Z"/><path class="cls-4" d="M54.14,103.78a5.39,5.39,0,0,1-.9,3.35,3.64,3.64,0,0,1-5.29,0,5.23,5.23,0,0,1-.94-3.26v-2a5.27,5.27,0,0,1,.92-3.35,3.64,3.64,0,0,1,5.28,0,5.14,5.14,0,0,1,.93,3.26Zm-2.09-2.14a3.86,3.86,0,0,0-.36-1.91,1.34,1.34,0,0,0-2.21,0,3.64,3.64,0,0,0-.37,1.78v2.57a4.13,4.13,0,0,0,.35,1.92,1.19,1.19,0,0,0,1.13.63,1.15,1.15,0,0,0,1.1-.61,3.89,3.89,0,0,0,.36-1.84Z"/><path class="cls-4" d="M62.66,103.78a5.39,5.39,0,0,1-.91,3.35,3.64,3.64,0,0,1-5.29,0,5.16,5.16,0,0,1-.93-3.26v-2a5.27,5.27,0,0,1,.91-3.35,3.22,3.22,0,0,1,2.65-1.14,3.17,3.17,0,0,1,2.63,1.13,5.21,5.21,0,0,1,.94,3.26Zm-2.1-2.14a3.86,3.86,0,0,0-.36-1.91,1.34,1.34,0,0,0-2.21,0,3.75,3.75,0,0,0-.37,1.78v2.57A4.13,4.13,0,0,0,58,106a1.2,1.2,0,0,0,1.13.63,1.17,1.17,0,0,0,1.11-.61,4,4,0,0,0,.35-1.84Z"/><path class="cls-4" d="M69.16,108.14h-2.1v-8.07l-2.5.77v-1.7l4.37-1.56h.23Z"/><path class="cls-4" d="M72.77,101.18a1,1,0,0,1,.34-.81,1.28,1.28,0,0,1,1.69,0,1,1,0,0,1,.34.81,1,1,0,0,1-.33.8,1.33,1.33,0,0,1-1.71,0A1,1,0,0,1,72.77,101.18Zm0,5.93a1,1,0,0,1,.34-.81,1.31,1.31,0,0,1,1.69,0,1.13,1.13,0,0,1,0,1.61,1.33,1.33,0,0,1-1.71,0A1,1,0,0,1,72.77,107.11Z"/><path class="cls-4" d="M84,108.14H76.77v-1.43l3.41-3.64a8.06,8.06,0,0,0,1-1.34,2.12,2.12,0,0,0,.34-1.09,1.57,1.57,0,0,0-.36-1.1,1.26,1.26,0,0,0-1-.41,1.4,1.4,0,0,0-1.12.49,2,2,0,0,0-.41,1.29h-2.1A3.43,3.43,0,0,1,77,99.15a3.26,3.26,0,0,1,1.3-1.25,4,4,0,0,1,1.91-.45,3.75,3.75,0,0,1,2.53.78,2.77,2.77,0,0,1,.9,2.21,3.53,3.53,0,0,1-.4,1.59,9.21,9.21,0,0,1-1.4,1.89l-2.39,2.53H84Z"/><path class="cls-4" d="M92.38,103.78a5.39,5.39,0,0,1-.9,3.35,3.64,3.64,0,0,1-5.29,0,5.23,5.23,0,0,1-.94-3.26v-2a5.27,5.27,0,0,1,.92-3.35,3.64,3.64,0,0,1,5.28,0,5.14,5.14,0,0,1,.93,3.26Zm-2.09-2.14a3.86,3.86,0,0,0-.36-1.91,1.34,1.34,0,0,0-2.21,0,3.64,3.64,0,0,0-.37,1.78v2.57A4.13,4.13,0,0,0,87.7,106a1.19,1.19,0,0,0,1.13.63,1.17,1.17,0,0,0,1.11-.61,4,4,0,0,0,.35-1.84Z"/><path class="cls-4" d="M98.88,108.14H96.79v-8.07l-2.5.77v-1.7l4.37-1.56h.22Z"/><path class="cls-4" d="M102.62,103l.61-5.36h5.91v1.75H105l-.26,2.26a3.33,3.33,0,0,1,1.58-.39,3.06,3.06,0,0,1,2.37.93,3.74,3.74,0,0,1,.85,2.62,3.8,3.8,0,0,1-.43,1.83,3.11,3.11,0,0,1-1.24,1.25,3.8,3.8,0,0,1-1.89.44,4.09,4.09,0,0,1-1.78-.38,3.07,3.07,0,0,1-1.29-1.09,3,3,0,0,1-.51-1.6h2.08a1.5,1.5,0,0,0,.46,1,1.46,1.46,0,0,0,1,.37,1.28,1.28,0,0,0,1.09-.51,2.36,2.36,0,0,0,.39-1.45,1.94,1.94,0,0,0-.45-1.38,1.6,1.6,0,0,0-1.25-.47,1.81,1.81,0,0,0-1.21.39l-.2.19Z"/><path class="cls-4" d="M77,43a23.27,23.27,0,0,1,.43-3.83,10.1,10.1,0,0,1,6.24-7.75A16.77,16.77,0,0,1,98,31.94a9,9,0,0,1,4.88,5.68,16.6,16.6,0,0,1-1,13.11A8,8,0,0,1,98,54.31c-5.64,2.47-11.19,2.5-16.48-1-2.72-1.78-3.85-4.54-4.33-7.62C77.05,44.84,77.05,43.93,77,43Zm17.53.16c0-1,.07-1.91,0-2.86-.2-2.43-1-3.55-2.86-3.87a6.19,6.19,0,0,0-2.93.16,2.72,2.72,0,0,0-2.12,2.3,23.23,23.23,0,0,0,0,8,3.09,3.09,0,0,0,3.23,2.76,6.8,6.8,0,0,0,2-.14,2.94,2.94,0,0,0,2.58-2.7A21.42,21.42,0,0,0,94.52,43.2Z"/><path class="cls-4" d="M58.57,53.87s-.06,0-.06.07c-.19,1.52-.19,1.52-1.78,1.52-1.08,0-2.15,0-3.23,0-.47,0-.61-.13-.61-.61q0-4,0-8c0-.45.11-.64.6-.63,1.31,0,2.63,0,3.94,0a.8.8,0,0,1,.78.46c1.81,3,6.36,4.07,9.68,3.1.38-.11.78-.27.78-.75s-.38-.68-.74-.8c-1.67-.55-3.36-1.07-5-1.59-1.28-.4-2.57-.77-3.86-1.16a10.74,10.74,0,0,1-3.34-1.69,7.06,7.06,0,0,1-2.91-7.16A6.76,6.76,0,0,1,57.44,31a14.12,14.12,0,0,1,11.86.8c.65.34,1,.55.93-.46,0-.44.17-.56.58-.55,1.41,0,2.81,0,4.22,0,.44,0,.55.16.55.57,0,2.48,0,5,0,7.45,0,.44-.17.55-.58.54-1.38,0-2.75,0-4.13,0a.93.93,0,0,1-.81-.44c-2.17-2.62-5.12-3.19-8.3-3.14a1.7,1.7,0,0,0-1,.36.78.78,0,0,0,0,1.4A4.59,4.59,0,0,0,61.9,38c2.7.8,5.4,1.54,8.08,2.37,3.14,1,5.48,2.88,6.24,6.19,1,4.22-1.68,8-6.25,9a15.31,15.31,0,0,1-10.52-1.37c-.24-.12-.47-.26-.71-.37C58.69,53.85,58.62,53.87,58.57,53.87Z"/><path class="cls-4" d="M43.49,30.37c2.41,0,4.83,0,7.25,0,.64,0,.75.2.74.75,0,1.59,0,3.17,0,4.75,0,.56-.17.74-.71.71-.78,0-1.56,0-2.33,0-.5,0-.68.13-.67.65q0,5.79,0,11.56c0,.55.23.64.69.63.81,0,1.62,0,2.42,0,.49,0,.61.17.6.62,0,1.65,0,3.29,0,4.93,0,.43-.14.56-.57.56H36c-.44,0-.55-.14-.55-.56,0-1.64,0-3.29,0-4.93,0-.56.23-.64.69-.62.78,0,1.55,0,2.33,0,.44,0,.64-.09.64-.59q0-5.82,0-11.64c0-.48-.17-.63-.62-.61-.81,0-1.62,0-2.42,0-.48,0-.62-.15-.61-.62,0-1.61,0-3.22,0-4.84,0-.59.16-.75.75-.75C38.65,30.39,41.07,30.37,43.49,30.37Z"/><path class="cls-4" d="M44.9,58.19a1.2,1.2,0,0,1,1.55.56,26.17,26.17,0,0,0,4.75,5.11c.37.31.7.43,1.11.12.7-.51,1.88-.69,2.07-1.43s-.86-1.31-1.32-2S52,59,51.44,58.23a1.05,1.05,0,0,1,1.53.46,22.52,22.52,0,0,0,2.24,2.91.74.74,0,0,0,1,.28c1.22-.49,2.45-1,3.71-1.33.63-.2.65-.46.37-.95a3.45,3.45,0,0,1-.36-.81c-.07-.22-.42-.51,0-.67a.71.71,0,0,1,.9.18.8.8,0,0,1,.08.16c.38,1.55,1.39,1.55,2.7,1.26a31.18,31.18,0,0,1,4-.45c.46,0,.76-.15.66-.69-.07-.37.12-.49.45-.48s.68-.05.62.41c-.09.68.31.69.8.73a30.59,30.59,0,0,1,4.88.63,1,1,0,0,0,1.42-.73c.25-.63.5-1.35,1.46-.94a4.72,4.72,0,0,1-.56,1.49c-.18.4-.2.63.3.79,1.27.43,2.54.88,3.79,1.37a.68.68,0,0,0,.9-.31c.72-.92,1.45-1.82,2.14-2.76.52-.69.5-.71,1.54-.61a17.13,17.13,0,0,1-2.46,3.51c-.54.6-.6.92.21,1.36,2.23,1.23,2.22,1.27,4-.49A23.63,23.63,0,0,0,91,58.75a1.18,1.18,0,0,1,1.6-.51c-5.43,8-12.85,12.38-22.44,12.93A28.19,28.19,0,0,1,44.9,58.19Zm25.59,2.16c-1.17-.06-1.18-.06-1.18,1.08s0,2.21,0,3.32c0,1.91,0,1.91,2,2a.83.83,0,0,0,.77-.33,46,46,0,0,0,3.14-4.8c.26-.47.1-.6-.34-.69A32,32,0,0,0,70.49,60.35Zm-2.24,3.11h0c0-.87,0-1.73,0-2.6,0-.43-.16-.56-.58-.54a32.05,32.05,0,0,0-4.88.6c-.5.11-.54.29-.3.71.74,1.3,1.59,2.53,2.38,3.79a2.16,2.16,0,0,0,2.7,1.15c.48-.13.74-.23.71-.78C68.22,65,68.25,64.24,68.25,63.46Zm-7.43-2.09a27.46,27.46,0,0,0-3.38,1.15c-1,.4-1,.48-.25,1.15A40.13,40.13,0,0,0,62,67.3a2,2,0,0,0,2.29.06c.36-.19.52-.29.23-.7a43.2,43.2,0,0,1-3.17-5C61.2,61.5,61.09,61.31,60.82,61.37Zm13.54,6.41a.71.71,0,0,0,.22,0,22.92,22.92,0,0,0,6.14-4.57c.25-.27.07-.41-.19-.51A25.25,25.25,0,0,0,77,61.45a.48.48,0,0,0-.65.26,51.59,51.59,0,0,1-3.17,5c-.14.19-.31.43,0,.59S74,67.62,74.36,67.78ZM62.92,69.4s.06.12.11.13a1.39,1.39,0,0,0,.35.09,23.08,23.08,0,0,0,5.05.59,28.25,28.25,0,0,0,5.51-.51c.26-.06.71,0,.74-.32s-.38-.43-.63-.56a11.09,11.09,0,0,0-10.58.05C63.25,69,63,69.08,62.92,69.4ZM84.72,65c0-.22-.21-.27-.36-.36-.54-.31-1.11-.59-1.64-.92a.83.83,0,0,0-1.17.16,32.34,32.34,0,0,1-5.31,4.23c-.21.13-.69.21-.43.62a.76.76,0,0,0,.93.31,26.58,26.58,0,0,0,7.57-3.59C84.48,65.29,84.68,65.19,84.72,65ZM61.23,69.09c.13,0,.44-.16.57-.45s-.25-.43-.45-.55a27.92,27.92,0,0,1-4.29-3.19c-1.78-1.63-1.76-1.63-3.76-.33-.47.31-.51.54,0,.84s1,.62,1.43.9A25.22,25.22,0,0,0,61.23,69.09Z"/><path class="cls-4" d="M71.2,26.51c-.49-.27-1,0-1.51.09s-.53.21-.5.58-.14.51-.53.52-.61-.13-.57-.56-.21-.57-.6-.58a30.09,30.09,0,0,1-5.6-.69.54.54,0,0,0-.69.38c-.16.39-.35.76-.54,1.14a.63.63,0,0,1-.91.27c-.34-.16-.13-.46,0-.7.6-1.37.59-1.37-.8-1.86-.93-.33-1.86-.65-2.76-1a.79.79,0,0,0-1.08.28c-.68.9-1.39,1.78-2.08,2.68a1.81,1.81,0,0,1-.64.59.54.54,0,0,1-.65-.05c-.2-.18,0-.38.12-.55A20.41,20.41,0,0,1,54.1,23.9c.39-.44.37-.68-.17-.93a5.25,5.25,0,0,1-1.25-.69c-.76-.64-1.33-.52-2,.14A34.91,34.91,0,0,0,46.38,27c-.16.2-.24.47-.58.49s-.48.29-.71,0,.08-.43.2-.6A27.22,27.22,0,0,1,64.49,15C75.78,13.56,85,17.54,91.83,26.65c.18.24.69.52.23.88s-.79,0-1.08-.37A26.2,26.2,0,0,0,86.14,22a.82.82,0,0,0-1.17-.1,9.21,9.21,0,0,1-1.55.9c-.58.28-.67.56-.22,1.07a14.63,14.63,0,0,1,2,2.74c.13.24.71.48.2.85s-.78,0-1.06-.38c-.66-1-1.37-1.88-2.12-2.77A1,1,0,0,0,80.92,24c-1.1.45-2.22.88-3.36,1.22-.63.19-.68.46-.44,1a5.89,5.89,0,0,1,.24.58c.07.21.33.47,0,.62a.76.76,0,0,1-.91-.08.32.32,0,0,1-.09-.16c-.35-1.5-1.35-1.34-2.5-1.05A23.27,23.27,0,0,1,71.2,26.51Zm-3.13-4h0a20,20,0,0,1,0-2.05c.09-.84-.23-1.22-1-1.18-.55,0-1.16-.43-1.65.2a37.74,37.74,0,0,0-3.17,4.75c-.17.31-.23.6.21.67a24.21,24.21,0,0,0,5.23.56c.38,0,.41-.24.41-.53C68.06,24.14,68.07,23.34,68.07,22.53Zm2.56,2.94a29.32,29.32,0,0,0,3.93-.55c.47-.1.56-.28.31-.73-.73-1.27-1.58-2.46-2.35-3.7a2.13,2.13,0,0,0-2.7-1.14c-.46.14-.65.24-.64.73,0,1.41,0,2.81,0,4.21S69.05,25.47,70.63,25.47Zm10.05-2.72c-.13-.14-.28-.32-.45-.48a30.57,30.57,0,0,0-4.91-3.71,2,2,0,0,0-2.24-.06c-.37.2-.49.32-.2.71A44.52,44.52,0,0,1,76,24c.16.27.3.5.69.39a21.33,21.33,0,0,0,3.63-1.25C80.45,23.07,80.64,23,80.68,22.75ZM60.53,24.44c.42.07.53-.19.66-.43a39.47,39.47,0,0,1,3.06-4.74c.14-.16.31-.43.11-.54-.53-.27-1.06-.84-1.7-.49a26.53,26.53,0,0,0-5.89,4.36c-.2.19-.32.39,0,.55A26.75,26.75,0,0,0,60.53,24.44Zm2.08-8a1.25,1.25,0,0,0,.18.3,10.85,10.85,0,0,0,11.37.14c.14-.09.36-.18.28-.4s-.29-.17-.46-.2a27.61,27.61,0,0,0-7.31-.46A19.11,19.11,0,0,0,62.61,16.39ZM61,16.85a3,3,0,0,0-.5.07,31.24,31.24,0,0,0-7.31,3.54c-.45.31-.59.57,0,.87a15.28,15.28,0,0,1,1.48.84c.49.33.82.23,1.24-.17a31.56,31.56,0,0,1,5.29-4.12c.21-.13.6-.19.5-.53A.73.73,0,0,0,61,16.85Zm15.63,0c-.59-.08-.88.05-1,.34s.2.43.42.56A30.07,30.07,0,0,1,80.38,21c1.69,1.48,1.67,1.47,3.6.25.56-.35.47-.53,0-.85a28.2,28.2,0,0,0-4.54-2.49C78.43,17.5,77.38,17.17,76.59,16.88Z"/><path class="cls-4" d="M39.46,87a2.62,2.62,0,0,1-1.91.81,2.83,2.83,0,0,1-2.24-1,3.81,3.81,0,0,1-.84-2.59,4,4,0,0,1,.46-1.91A3.32,3.32,0,0,1,36.19,81,3.53,3.53,0,0,1,38,80.48a3.32,3.32,0,0,1,3.11,2,5.41,5.41,0,0,1,.46,2.23v.78a6.1,6.1,0,0,1-1.31,4.14,4.94,4.94,0,0,1-3.72,1.61h-.51V89.53h.46C38.33,89.44,39.32,88.59,39.46,87Zm-1.39-.8a1.42,1.42,0,0,0,.87-.26,1.66,1.66,0,0,0,.55-.63v-.86a2.88,2.88,0,0,0-.4-1.65A1.26,1.26,0,0,0,38,82.17a1.2,1.2,0,0,0-1,.58,2.36,2.36,0,0,0-.41,1.44A2.41,2.41,0,0,0,37,85.61,1.3,1.3,0,0,0,38.07,86.16Z"/><path class="cls-4" d="M50.18,86.82a5.34,5.34,0,0,1-.9,3.34,3.63,3.63,0,0,1-5.29,0,5.23,5.23,0,0,1-.94-3.26V85A5.27,5.27,0,0,1,44,81.63a3.62,3.62,0,0,1,5.28,0,5.19,5.19,0,0,1,.93,3.26Zm-2.09-2.14a3.86,3.86,0,0,0-.36-1.91,1.21,1.21,0,0,0-1.12-.6,1.19,1.19,0,0,0-1.09.57,3.53,3.53,0,0,0-.37,1.78v2.57A4,4,0,0,0,45.5,89a1.31,1.31,0,0,0,2.23,0,3.89,3.89,0,0,0,.36-1.84Z"/><path class="cls-4" d="M58.69,86.82a5.34,5.34,0,0,1-.9,3.34,3.15,3.15,0,0,1-2.65,1.16,3.21,3.21,0,0,1-2.64-1.13,5.23,5.23,0,0,1-.94-3.26V85a5.27,5.27,0,0,1,.92-3.35,3.62,3.62,0,0,1,5.28,0,5.12,5.12,0,0,1,.93,3.26ZM56.6,84.68a3.86,3.86,0,0,0-.36-1.91,1.34,1.34,0,0,0-2.21,0,3.64,3.64,0,0,0-.37,1.78v2.57A4.13,4.13,0,0,0,54,89a1.19,1.19,0,0,0,1.13.63,1.17,1.17,0,0,0,1.1-.61,3.89,3.89,0,0,0,.36-1.84Z"/><path class="cls-4" d="M65.19,91.18H63.1V83.11l-2.5.77v-1.7L65,80.62h.22Z"/><path class="cls-4" d="M68.81,84.22a1.05,1.05,0,0,1,.34-.82,1.21,1.21,0,0,1,.84-.31,1.23,1.23,0,0,1,.85.31,1.05,1.05,0,0,1,.34.82,1,1,0,0,1-.34.8,1.21,1.21,0,0,1-.85.3,1.23,1.23,0,0,1-.85-.3A1.06,1.06,0,0,1,68.81,84.22Zm0,5.93a1,1,0,0,1,.34-.81A1.16,1.16,0,0,1,70,89a1.19,1.19,0,0,1,.85.31,1,1,0,0,1,.34.81,1,1,0,0,1-.34.8,1.17,1.17,0,0,1-.85.31,1.19,1.19,0,0,1-.85-.31A1,1,0,0,1,68.81,90.15Z"/><path class="cls-4" d="M80,91.18H72.81V89.74l3.41-3.63a8.49,8.49,0,0,0,1-1.34,2.22,2.22,0,0,0,.34-1.09,1.61,1.61,0,0,0-.36-1.11,1.3,1.3,0,0,0-1-.4,1.39,1.39,0,0,0-1.12.49A1.92,1.92,0,0,0,74.7,84H72.6a3.43,3.43,0,0,1,.46-1.76,3.2,3.2,0,0,1,1.3-1.25,4,4,0,0,1,1.9-.46,3.78,3.78,0,0,1,2.54.79,2.77,2.77,0,0,1,.9,2.21,3.55,3.55,0,0,1-.41,1.59A8.75,8.75,0,0,1,77.9,87l-2.4,2.53H80Z"/><path class="cls-4" d="M88.42,86.82a5.34,5.34,0,0,1-.9,3.34,3.63,3.63,0,0,1-5.29,0,5.23,5.23,0,0,1-.94-3.26V85a5.27,5.27,0,0,1,.92-3.35,3.62,3.62,0,0,1,5.28,0,5.19,5.19,0,0,1,.93,3.26Zm-2.09-2.14A3.86,3.86,0,0,0,86,82.77a1.21,1.21,0,0,0-1.12-.6,1.19,1.19,0,0,0-1.09.57,3.53,3.53,0,0,0-.37,1.78v2.57A4,4,0,0,0,83.74,89a1.19,1.19,0,0,0,1.12.63A1.17,1.17,0,0,0,86,89a3.89,3.89,0,0,0,.36-1.84Z"/><path class="cls-4" d="M94.92,91.18H92.83V83.11l-2.5.77v-1.7l4.37-1.56h.22Z"/><path class="cls-4" d="M98.66,86l.61-5.36h5.91v1.75H101l-.26,2.26a3.41,3.41,0,0,1,1.59-.4,3.06,3.06,0,0,1,2.36.94,3.73,3.73,0,0,1,.86,2.62,3.85,3.85,0,0,1-.43,1.82,3.07,3.07,0,0,1-1.24,1.26,4,4,0,0,1-1.9.44,4.16,4.16,0,0,1-1.77-.38,3.24,3.24,0,0,1-1.3-1.09,3.06,3.06,0,0,1-.5-1.61h2.07a1.6,1.6,0,0,0,.46,1,1.5,1.5,0,0,0,1,.37,1.27,1.27,0,0,0,1.09-.52,2.4,2.4,0,0,0,.38-1.44A1.94,1.94,0,0,0,103,86.3a1.61,1.61,0,0,0-1.25-.48,1.77,1.77,0,0,0-1.21.4l-.21.18Z"/><path class="cls-4" d="M54.26,125.1H52.17V117l-2.5.77v-1.7L54,114.54h.22Z"/><path class="cls-4" d="M64.57,117.36a2.43,2.43,0,0,1-.39,1.36,2.8,2.8,0,0,1-1.06,1,3,3,0,0,1,1.22,1,2.65,2.65,0,0,1,.45,1.53,2.75,2.75,0,0,1-1,2.22,3.88,3.88,0,0,1-2.6.82,4,4,0,0,1-2.61-.82,2.78,2.78,0,0,1-1-2.22,2.65,2.65,0,0,1,.45-1.53,3,3,0,0,1,1.21-1,2.77,2.77,0,0,1-1-1,2.43,2.43,0,0,1-.38-1.36,2.75,2.75,0,0,1,.89-2.15,4.14,4.14,0,0,1,4.88,0A2.71,2.71,0,0,1,64.57,117.36Zm-1.88,4.7a1.49,1.49,0,0,0-.4-1.1,1.39,1.39,0,0,0-1.07-.42,1.44,1.44,0,0,0-1.07.41,1.55,1.55,0,0,0-.39,1.11,1.49,1.49,0,0,0,.39,1.08,1.4,1.4,0,0,0,1.08.42,1.44,1.44,0,0,0,1.07-.4A1.51,1.51,0,0,0,62.69,122.06Zm-.22-4.6a1.49,1.49,0,0,0-.32-1,1.17,1.17,0,0,0-.92-.38,1.18,1.18,0,0,0-.92.37,1.46,1.46,0,0,0-.32,1,1.53,1.53,0,0,0,.32,1,1.14,1.14,0,0,0,.92.39,1.13,1.13,0,0,0,.92-.39A1.53,1.53,0,0,0,62.47,117.46Z"/><path class="cls-4" d="M73.3,120.74a5.39,5.39,0,0,1-.9,3.35,3.62,3.62,0,0,1-5.29,0,5.23,5.23,0,0,1-.94-3.26v-1.94a5.28,5.28,0,0,1,.92-3.36,3.64,3.64,0,0,1,5.28,0,5.14,5.14,0,0,1,.93,3.26Zm-2.09-2.14a3.86,3.86,0,0,0-.36-1.91,1.34,1.34,0,0,0-2.21,0,3.64,3.64,0,0,0-.37,1.78V121a4.13,4.13,0,0,0,.35,1.92,1.19,1.19,0,0,0,1.13.63,1.16,1.16,0,0,0,1.1-.6,4,4,0,0,0,.36-1.85Z"/><path class="cls-4" d="M81.82,120.74a5.39,5.39,0,0,1-.91,3.35,3.62,3.62,0,0,1-5.29,0,5.16,5.16,0,0,1-.93-3.26v-1.94a5.28,5.28,0,0,1,.91-3.36,3.22,3.22,0,0,1,2.65-1.14,3.17,3.17,0,0,1,2.63,1.13,5.21,5.21,0,0,1,.94,3.26Zm-2.1-2.14a3.86,3.86,0,0,0-.36-1.91,1.34,1.34,0,0,0-2.21,0,3.75,3.75,0,0,0-.37,1.78V121a4.13,4.13,0,0,0,.35,1.92,1.2,1.2,0,0,0,1.13.63,1.18,1.18,0,0,0,1.11-.6,4.12,4.12,0,0,0,.35-1.85Z"/><path class="cls-4" d="M90.33,120.74a5.32,5.32,0,0,1-.91,3.35,3.61,3.61,0,0,1-5.28,0,5.23,5.23,0,0,1-.94-3.26v-1.94a5.28,5.28,0,0,1,.92-3.36,3.64,3.64,0,0,1,5.28,0,5.21,5.21,0,0,1,.93,3.26Zm-2.09-2.14a3.86,3.86,0,0,0-.36-1.91,1.21,1.21,0,0,0-1.12-.6,1.19,1.19,0,0,0-1.09.57,3.62,3.62,0,0,0-.38,1.78V121a4,4,0,0,0,.36,1.92,1.32,1.32,0,0,0,2.23,0,4,4,0,0,0,.36-1.85Z"/></svg>