<svg id="圖層_1" data-name="圖層 1" xmlns="http://www.w3.org/2000/svg" viewBox="0 0 140 140"><defs><style>.cls-1{fill:gray;}</style></defs><title>icon18</title><rect class="cls-1" x="54.23" y="76.26" width="5.64" height="6.9"/><path class="cls-1" d="M30,52.38V90.85H68.39V52.38Zm23,5.26h8.06v2.43H53ZM51.86,67H62.31v2.43H51.86ZM36,67h5.7V60.09H37.28V57.68h6.84V67h2.39v2.44H36Zm8.08,18.59H34.83l.51-2.49H42.2l1.43-6.74H39.19l-.93,4.39H35.83l1.41-6.87h9.29Zm18.21,0H51.81V73.83H62.33Z"/><path class="cls-1" d="M101.07,75.87a1.61,1.61,0,0,0-1.6,1.61v4a1.61,1.61,0,1,0,3.21,0v-4A1.62,1.62,0,0,0,101.07,75.87Z"/><path class="cls-1" d="M80.46,75.87a1.6,1.6,0,0,0-1.59,1.61v4a1.59,1.59,0,1,0,3.18,0v-4A1.61,1.61,0,0,0,80.46,75.87Z"/><path class="cls-1" d="M71.61,52.38V90.85H110V52.38Zm28.25,5.26h2.42V69.79H99.86Zm-23.42,0h2.45v8.09a1.59,1.59,0,0,0,3.18,0V57.68h2.46v8.13a4,4,0,0,1-4,4h-.14a4,4,0,0,1-4-4ZM82.08,88l-.83-2.5a4,4,0,0,1-.78.08,4.08,4.08,0,0,1-4-4.09v-4a4.05,4.05,0,1,1,8.1,0v4a4.06,4.06,0,0,1-1.19,2.89L84.57,88ZM95.8,85.54H87.71V73.4h2.42v9.76H95.8Zm0-15.75H93.42L90.17,63v6.82H87.71V57.68h2.46l3.25,6.88V57.68h2.39Zm9.37,11.7a4.09,4.09,0,0,1-8.18,0v-4a4.09,4.09,0,0,1,8.18,0Z"/></svg>