<svg id="圖層_1" data-name="圖層 1" xmlns="http://www.w3.org/2000/svg" xmlns:xlink="http://www.w3.org/1999/xlink" viewBox="0 0 140 140"><defs><style>.cls-1{fill:none;}.cls-2{opacity:0.35;}.cls-3{clip-path:url(#clip-path);}.cls-4{clip-path:url(#clip-path-2);}.cls-5{fill:#1a1a1a;}</style><clipPath id="clip-path"><rect class="cls-1" x="-1226.99" y="-466.9" width="1025.43" height="328.71"/></clipPath><clipPath id="clip-path-2"><rect class="cls-1" x="-11.95" y="-467.55" width="1035.68" height="332"/></clipPath><image id="image" width="2048" height="1346" xlink:href="../../Dropbox/前後&apos;s shared workspace/PROJECTS/202002_SAYA/圖庫/istock/istockphoto-182146447-2048x2048.jpg"/></defs><title>icon20</title><g class="cls-2"><g class="cls-3"><use transform="translate(-1451.77 -734.37) scale(0.72)" xlink:href="#image"/></g></g><g class="cls-2"><g class="cls-4"><use transform="translate(-238.98 -737.69) scale(0.73)" xlink:href="#image"/></g></g><path class="cls-5" d="M117.77,99.87a2.59,2.59,0,1,0,2.59,2.58A2.59,2.59,0,0,0,117.77,99.87Zm.92,4-.38-.6a4.13,4.13,0,0,0-.28-.4,1.25,1.25,0,0,0-.19-.2.67.67,0,0,0-.18-.07l-.21,0H117v1.29h-.38V101h1.28a1.49,1.49,0,0,1,.58.08.6.6,0,0,1,.32.27.83.83,0,0,1,.12.44.72.72,0,0,1-.19.51,1,1,0,0,1-.62.27.91.91,0,0,1,.23.15,2.07,2.07,0,0,1,.32.38l.5.79Z"/><path class="cls-5" d="M118.46,102.06a.5.5,0,0,0,.08-.26.43.43,0,0,0-.15-.34.68.68,0,0,0-.47-.13H117v1h.82a1.47,1.47,0,0,0,.41,0A.48.48,0,0,0,118.46,102.06Z"/><path class="cls-5" d="M94.87,106.41a3.29,3.29,0,0,0-3.5,1.9,5.52,5.52,0,0,0-.49,3.69c.52,2,1.92,3.31,3.58,3.19,1.83-.13,2.93-1.57,3-3.88,0-.16,0-.31,0-.47h0c0-.4,0-.8,0-1.19A3.15,3.15,0,0,0,94.87,106.41Z"/><path class="cls-5" d="M64.78,106.23c-1.65-.16-2.72.8-3.53,3.27h6.12C67,107.23,66.31,106.38,64.78,106.23Z"/><path class="cls-5" d="M128.86,10.9H11.14V129.1H128.86ZM35.26,112.5a8.47,8.47,0,0,1-.59,1.66,6.31,6.31,0,0,1-1.1,1.62c-1.6,1.69-4,1.93-6.42.63a9.39,9.39,0,0,1-1-.63c-.51.21-.21.9-.78,1.19H22.1a1.18,1.18,0,0,1-.3-.48.77.77,0,0,1,0-.3,1.28,1.28,0,0,1,.12-.41c.36-.46,1-.33,1.47-.56a1.41,1.41,0,0,0,.34-.22V101.19a1.16,1.16,0,0,0-.06-.15.65.65,0,0,0-.19-.18l0,0a2.36,2.36,0,0,0-.65-.19c-.57-.12-1.16-.28-.92-1.32h0a4,4,0,0,1,1.41-.25c.83,0,1.7.08,2.6,0,.44,2.22,0,4.44.29,6.59l.3,0a1.43,1.43,0,0,0,.82-.29c.13-.09.26-.19.39-.27a1.28,1.28,0,0,1,.25-.15,5.71,5.71,0,0,1,.88-.3l.23,0a4.54,4.54,0,0,1,.88-.12H30A4.91,4.91,0,0,1,34.48,107a4.16,4.16,0,0,1,.24.47,8.2,8.2,0,0,1,.74,3.34A8,8,0,0,1,35.26,112.5Zm7.6,4.43a34.77,34.77,0,0,1-5.77.13,1,1,0,0,1-.17-1.34c.45-.59,1.27-.11,1.76-.7V101l-1.77-.53A1.1,1.1,0,0,1,37,99.21h3.8c.58,1.66.19,3.4.26,5.11s0,3.65,0,5.47v5.29c.71.4,1.35.17,1.78.62A1.3,1.3,0,0,1,42.86,116.93ZM57.3,117a10.87,10.87,0,0,1-3.12,0c-.15-.42-.28-.78-.42-1.19a3.14,3.14,0,0,0-.65.25c-.4.23-.77.55-1.19.76-2.73,1.3-5.27.06-6.05-2.87a18.8,18.8,0,0,1-.26-4.49c0-.87,0-1.73,0-2.37-.43-1-1.27-.58-1.76-1a.86.86,0,0,1-.05-1,1.66,1.66,0,0,1,1.17-.24c.94,0,1.89,0,2.87,0a52.13,52.13,0,0,1,.15,5.81,16.7,16.7,0,0,0,.11,2.13c.29,1.8,1.09,2.56,2.55,2.56a2.94,2.94,0,0,0,2.93-2.83c.08-1.89,0-3.79,0-5.89l-1.7-.44a1,1,0,0,1,0-1.2,3,3,0,0,1,.64-.13c1,0,2,0,3.27,0V115C56.57,115.5,58,115.37,57.3,117Zm12.1-5.55H61.35c.19,3.65,1.82,4.44,7.21,3.62a1.8,1.8,0,0,1,.3,1.44,8.58,8.58,0,0,1-5.71.58,5.12,5.12,0,0,1-3.86-3.51,7.37,7.37,0,0,1,.42-6,5.33,5.33,0,0,1,5.92-2.94,4.81,4.81,0,0,1,4,4.39A3.58,3.58,0,0,1,69.4,111.44Zm10.39,2.71a3.35,3.35,0,0,1-2.74,2.91,6.24,6.24,0,0,1-5-.59c-.23-.67.22-1.08.24-1.72a8.48,8.48,0,0,0,3.4.68c.83-.08,1.58-.29,1.78-1.25a1.72,1.72,0,0,0-.93-2c-.69-.38-1.45-.62-2.15-1-1.7-.89-2.44-2.11-2.22-3.57a3.75,3.75,0,0,1,3.28-3,5.8,5.8,0,0,1,3.74.65,1.27,1.27,0,0,1-.47,1.43c-.72.15-1.32-.38-2-.43a2.48,2.48,0,0,0-2,.7,1.66,1.66,0,0,0,1,2.47c.79.38,1.61.68,2.37,1.11A3.29,3.29,0,0,1,79.79,114.15Zm5.78,2.65a2.24,2.24,0,0,1-2.24,0V107c-.58-.93-1.46-.49-1.82-1.05a1,1,0,0,1,.16-1.1,16.44,16.44,0,0,1,3.9,0Zm-1.23-14a1.31,1.31,0,0,1-1.23-1.45A1.39,1.39,0,0,1,84.68,100a1.34,1.34,0,0,1,1.25,1.33A1.45,1.45,0,0,1,84.34,102.85Zm15.37,14c-.13,3.17-1.9,4.91-5,5.34a7.83,7.83,0,0,1-4.94-.87,3.07,3.07,0,0,1,.25-1.68c5.61,1.44,7.42.5,7.36-3.94-1.43.59-2.71,1.57-4.33,1.24a5.26,5.26,0,0,1-3.75-2.64A7.1,7.1,0,0,1,90.41,106c2-1.88,4.46-1.89,7.1,0l.22.06c.06-.31.13-.62.2-1a1.79,1.79,0,0,1,1.81,0C99.74,109,99.86,112.92,99.71,116.86Zm17,0c-.9.54-2,.19-2.94.25s-1.88,0-2.69,0a1.16,1.16,0,0,1-.16-1.53l1.52-.4a6.88,6.88,0,0,0,.08-.72c0-1.58.06-3.17,0-4.75-.11-2.19-1-3.18-2.76-3.14s-2.86,1.26-2.91,3.33c0,1.73,0,3.47,0,5,.53.66,1.23.28,1.88,1,.14.15.13.57-.25,1.11h-5.7a1.1,1.1,0,0,1-.18-1.18c.43-.65,1.19-.28,1.82-.67v-8.38c-.51-.57-1.27-.26-1.77-.61a1.17,1.17,0,0,1,.09-1.25h3.37c.56.28.17.91.59,1.25a16.9,16.9,0,0,1,1.57-1,4.28,4.28,0,0,1,6.38,2.7,12.37,12.37,0,0,1,.28,3.53c0,1.19,0,2.38,0,3.55C115.39,115.71,117.33,115,116.75,116.83Zm1-11.4a3,3,0,1,1,3-3A3,3,0,0,1,117.77,105.43Z"/><path class="cls-5" d="M29.48,106.38a3.25,3.25,0,0,0-3,2A5.28,5.28,0,0,0,26,111a15.15,15.15,0,0,0,.19,1.65,3.15,3.15,0,0,0,3.1,2.75A3.19,3.19,0,0,0,32.68,113a5.8,5.8,0,0,0-.18-4.62A3.19,3.19,0,0,0,29.48,106.38Z"/></svg>