<svg id="Layer_2" data-name="Layer 2" xmlns="http://www.w3.org/2000/svg" viewBox="0 0 120 80"><defs><style>.cls-1{fill:none;}.cls-2{fill:#64703f;}</style></defs><title>icon13</title><rect class="cls-1" width="120" height="80"/><path class="cls-2" d="M15.9,10.47H10.73v2.07h4.74v1.7H10.73v2.51h5.4V18.5H8.74V8.74H15.9Z"/><path class="cls-2" d="M19.45,11.28v4.35a2.24,2.24,0,0,0,.15.93,1,1,0,0,0,1,.55,1.32,1.32,0,0,0,1.32-.78,2.91,2.91,0,0,0,.18-1.12V11.28H24V18.5H22.18v-1l-.13.2a1.16,1.16,0,0,1-.25.29,2.4,2.4,0,0,1-.85.54,2.86,2.86,0,0,1-1,.15,2.14,2.14,0,0,1-2.15-1.15,4.41,4.41,0,0,1-.31-1.88V11.28Z"/><path class="cls-2" d="M29.86,11.12H30v1.93l-.31,0h-.23a1.55,1.55,0,0,0-1.53.74,2.91,2.91,0,0,0-.22,1.28V18.5h-1.9V11.28h1.8v1.26a3.93,3.93,0,0,1,.77-1,2,2,0,0,1,1.37-.45Z"/><path class="cls-2" d="M37.15,17.62a3.38,3.38,0,0,1-2.78,1.13,3.36,3.36,0,0,1-2.77-1.13,4.18,4.18,0,0,1-.91-2.72,4.18,4.18,0,0,1,.91-2.7,3.31,3.31,0,0,1,2.77-1.15,3.33,3.33,0,0,1,2.78,1.15,4.18,4.18,0,0,1,.91,2.7A4.18,4.18,0,0,1,37.15,17.62Zm-1.51-1a2.8,2.8,0,0,0,.44-1.68,2.77,2.77,0,0,0-.44-1.67,1.69,1.69,0,0,0-2.55,0,2.7,2.7,0,0,0-.44,1.67,2.73,2.73,0,0,0,.44,1.68,1.69,1.69,0,0,0,2.55,0Z"/><path class="cls-2" d="M45.48,12.06a3.82,3.82,0,0,1,.88,2.74,4.32,4.32,0,0,1-.86,2.91,2.8,2.8,0,0,1-2.22,1,2.37,2.37,0,0,1-1.44-.43,2.71,2.71,0,0,1-.61-.7v3.76H39.36V11.28h1.81v1.07a3,3,0,0,1,.65-.74,2.41,2.41,0,0,1,1.51-.48A2.86,2.86,0,0,1,45.48,12.06ZM44,13.42a1.33,1.33,0,0,0-1.24-.65,1.42,1.42,0,0,0-1.43,1,3.72,3.72,0,0,0-.2,1.31,2.09,2.09,0,0,0,.68,1.77,1.58,1.58,0,0,0,.95.29A1.37,1.37,0,0,0,44,16.51a2.78,2.78,0,0,0,.42-1.62A2.76,2.76,0,0,0,44,13.42Z"/><path class="cls-2" d="M52.4,11.43a2.9,2.9,0,0,1,1.24,1.07A3.5,3.5,0,0,1,54.22,14a9.27,9.27,0,0,1,.06,1.43H49A1.76,1.76,0,0,0,49.78,17a1.92,1.92,0,0,0,1,.27,1.61,1.61,0,0,0,1-.33,1.7,1.7,0,0,0,.39-.5h1.92a2.3,2.3,0,0,1-.7,1.3,3.47,3.47,0,0,1-2.71,1.06,3.93,3.93,0,0,1-2.54-.89A3.48,3.48,0,0,1,47.13,15a3.93,3.93,0,0,1,1-2.88,3.5,3.5,0,0,1,2.58-1A4.23,4.23,0,0,1,52.4,11.43Zm-2.83,1.63a2,2,0,0,0-.5,1.12h3.25a1.56,1.56,0,0,0-.5-1.14,1.64,1.64,0,0,0-1.12-.39A1.54,1.54,0,0,0,49.57,13.06Z"/><path class="cls-2" d="M58.09,14.11a3.21,3.21,0,0,0,.76-.16.57.57,0,0,0,.4-.54.62.62,0,0,0-.31-.61,1.87,1.87,0,0,0-.91-.17,1.18,1.18,0,0,0-1,.33,1.25,1.25,0,0,0-.27.66H55a2.69,2.69,0,0,1,.53-1.55,3.09,3.09,0,0,1,2.58-1,4.62,4.62,0,0,1,2.11.47,1.81,1.81,0,0,1,.93,1.78v3.31c0,.23,0,.5,0,.83a1,1,0,0,0,.11.5.69.69,0,0,0,.28.22v.28H59.48a1.71,1.71,0,0,1-.12-.41c0-.13,0-.27,0-.44a3.79,3.79,0,0,1-.91.73,2.77,2.77,0,0,1-1.38.35,2.41,2.41,0,0,1-1.63-.56,2,2,0,0,1-.64-1.59,2.06,2.06,0,0,1,1-1.93,4.69,4.69,0,0,1,1.67-.46Zm1.16.88a1.41,1.41,0,0,1-.37.18,2.72,2.72,0,0,1-.5.13l-.43.08a2.75,2.75,0,0,0-.87.26.86.86,0,0,0-.45.8.84.84,0,0,0,.27.7,1.1,1.1,0,0,0,.67.22A2,2,0,0,0,58.71,17a1.55,1.55,0,0,0,.54-1.31Z"/><path class="cls-2" d="M68.6,11.7a2.39,2.39,0,0,1,.71,1.94V18.5H67.37V14.11a2,2,0,0,0-.15-.87,1.06,1.06,0,0,0-1-.56,1.3,1.3,0,0,0-1.31.82,2.82,2.82,0,0,0-.18,1.09V18.5H62.79V11.3h1.83v1a3.22,3.22,0,0,1,.68-.8,2.4,2.4,0,0,1,1.47-.44A2.79,2.79,0,0,1,68.6,11.7Z"/><path class="cls-2" d="M75,8.74h2.07v6a3.29,3.29,0,0,0,.24,1.46,2,2,0,0,0,3.21,0,3.29,3.29,0,0,0,.24-1.46v-6h2.07v6a5,5,0,0,1-.48,2.42c-.6,1.06-1.74,1.59-3.43,1.59s-2.84-.53-3.44-1.59A5,5,0,0,1,75,14.74Z"/><path class="cls-2" d="M90.44,11.7a2.39,2.39,0,0,1,.71,1.94V18.5H89.21V14.11a2,2,0,0,0-.15-.87,1.06,1.06,0,0,0-1-.56,1.31,1.31,0,0,0-1.31.82,2.82,2.82,0,0,0-.18,1.09V18.5H84.63V11.3h1.83v1a3,3,0,0,1,.69-.8,2.36,2.36,0,0,1,1.47-.44A2.76,2.76,0,0,1,90.44,11.7Z"/><path class="cls-2" d="M94.84,10.42H92.93V8.68h1.91Zm-1.91.86h1.91V18.5H92.93Z"/><path class="cls-2" d="M102.69,17.62a4,4,0,0,1-5.55,0,4.18,4.18,0,0,1-.91-2.72,4.18,4.18,0,0,1,.91-2.7,3.92,3.92,0,0,1,5.55,0,4.18,4.18,0,0,1,.91,2.7A4.18,4.18,0,0,1,102.69,17.62Zm-1.51-1a2.8,2.8,0,0,0,.44-1.68,2.77,2.77,0,0,0-.44-1.67,1.69,1.69,0,0,0-2.55,0,2.7,2.7,0,0,0-.44,1.67,2.73,2.73,0,0,0,.44,1.68,1.69,1.69,0,0,0,2.55,0Z"/><path class="cls-2" d="M110.77,11.7a2.39,2.39,0,0,1,.71,1.94V18.5h-1.93V14.11a2,2,0,0,0-.15-.87,1.08,1.08,0,0,0-1.06-.56,1.29,1.29,0,0,0-1.3.82,2.63,2.63,0,0,0-.19,1.09V18.5H105V11.3h1.83v1a3,3,0,0,1,.69-.8,2.36,2.36,0,0,1,1.47-.44A2.76,2.76,0,0,1,110.77,11.7Z"/><path class="cls-2" d="M23.3,27.34a5.26,5.26,0,0,1,2,1.49,6.91,6.91,0,0,1,1.07,1.79,6,6,0,0,1,.39,2.24,6.35,6.35,0,0,1-.76,3,4.35,4.35,0,0,1-2.53,2.08,3.89,3.89,0,0,1,2.08,1.68,7,7,0,0,1,.62,3.33v1.43a10.6,10.6,0,0,0,.12,2,1.74,1.74,0,0,0,.82,1.21v.54H22.2c-.14-.48-.23-.86-.29-1.15a10,10,0,0,1-.19-1.83l0-2a4,4,0,0,0-.7-2.71,3.56,3.56,0,0,0-2.54-.68H14.11v8.35H9.76V26.79H19.94A9.2,9.2,0,0,1,23.3,27.34Zm-9.19,3.15v5.72H18.9A5.06,5.06,0,0,0,21,35.87a2.4,2.4,0,0,0,1.27-2.4,2.69,2.69,0,0,0-1.22-2.6A4.44,4.44,0,0,0,19,30.49Z"/><path class="cls-2" d="M46.77,30.56H35.5v4.52H45.84v3.7H35.5v5.48H47.29v3.83H31.15V26.79H46.77Z"/><path class="cls-2" d="M56.84,26.79h5l7.53,21.3H64.59l-1.41-4.38H55.34L53.9,48.09H49.24ZM56.55,40H62l-2.69-8.38Z"/><path class="cls-2" d="M74.15,29a8.76,8.76,0,0,1,6.55-2.63q5.31,0,7.77,3.52a7.69,7.69,0,0,1,1.46,4H85.48a6.12,6.12,0,0,0-1.09-2.32,4.39,4.39,0,0,0-3.52-1.38,4.32,4.32,0,0,0-3.75,2,9.49,9.49,0,0,0-1.38,5.53,8.43,8.43,0,0,0,1.45,5.37,4.56,4.56,0,0,0,3.68,1.79,4.14,4.14,0,0,0,3.49-1.54,6.72,6.72,0,0,0,1.11-2.47h4.42A9.59,9.59,0,0,1,87,46.5a8.5,8.5,0,0,1-6,2.18,9,9,0,0,1-7.14-3q-2.61-3-2.61-8.12C71.19,33.9,72.18,31,74.15,29Z"/><path class="cls-2" d="M93.46,48.09V26.79h4.42v8.12h8.27V26.79h4.42v21.3h-4.42V38.58H97.88v9.51Z"/><path class="cls-2" d="M42.39,67.94a6.5,6.5,0,0,1,2.36-2.52,17.45,17.45,0,0,0,2.09-1.66,2.44,2.44,0,0,0,.73-1.71,1.87,1.87,0,0,0-.42-1.25,1.71,1.71,0,0,0-2.65.29,4.24,4.24,0,0,0-.26,1.46H42a5.76,5.76,0,0,1,.55-2.45,3.43,3.43,0,0,1,3.33-1.78,4.2,4.2,0,0,1,3,1A3.59,3.59,0,0,1,50,62.14a3.76,3.76,0,0,1-.79,2.34A7.83,7.83,0,0,1,47.48,66l-.94.66c-.59.42-1,.72-1.2.91a2.59,2.59,0,0,0-.55.64H50v2.06H41.84A5.44,5.44,0,0,1,42.39,67.94Z"/><path class="cls-2" d="M58.47,59.9a9.22,9.22,0,0,1,.92,4.54A9.22,9.22,0,0,1,58.47,69a3.37,3.37,0,0,1-3.19,1.59A3.36,3.36,0,0,1,52.1,69a9.22,9.22,0,0,1-.92-4.54,9.22,9.22,0,0,1,.92-4.54,3.35,3.35,0,0,1,3.18-1.6A3.35,3.35,0,0,1,58.47,59.9ZM53.9,67.58a1.37,1.37,0,0,0,1.38,1.09,1.35,1.35,0,0,0,1.37-1.09A11.92,11.92,0,0,0,57,64.44a11.75,11.75,0,0,0-.32-3.18,1.33,1.33,0,0,0-1.37-1,1.36,1.36,0,0,0-1.38,1,11.28,11.28,0,0,0-.33,3.18A11.44,11.44,0,0,0,53.9,67.58Z"/><path class="cls-2" d="M61.07,67.94a6.54,6.54,0,0,1,2.37-2.52,18.36,18.36,0,0,0,2.09-1.66,2.44,2.44,0,0,0,.73-1.71,1.87,1.87,0,0,0-.42-1.25,1.49,1.49,0,0,0-1.2-.5,1.46,1.46,0,0,0-1.45.79,4,4,0,0,0-.26,1.46H60.66a5.62,5.62,0,0,1,.55-2.45,3.43,3.43,0,0,1,3.32-1.78,4.23,4.23,0,0,1,3,1,3.62,3.62,0,0,1,1.11,2.77,3.7,3.7,0,0,1-.79,2.34A7.6,7.6,0,0,1,66.16,66l-.93.66c-.59.42-1,.72-1.21.91a2.78,2.78,0,0,0-.54.64h5.19v2.06H60.52A5.74,5.74,0,0,1,61.07,67.94Z"/><path class="cls-2" d="M77.16,59.9a9.23,9.23,0,0,1,.91,4.54A9.23,9.23,0,0,1,77.16,69a4,4,0,0,1-6.38,0,9.23,9.23,0,0,1-.91-4.54,9.23,9.23,0,0,1,.91-4.54,4,4,0,0,1,6.38,0Zm-4.57,7.68a1.41,1.41,0,0,0,2.75,0,11.92,11.92,0,0,0,.32-3.14,11.75,11.75,0,0,0-.32-3.18,1.43,1.43,0,0,0-2.75,0,11.28,11.28,0,0,0-.33,3.18A11.44,11.44,0,0,0,72.59,67.58Z"/></svg>