<svg id="圖層_1" data-name="圖層 1" xmlns="http://www.w3.org/2000/svg" viewBox="0 0 140 140"><defs><style>.cls-1{fill:gray;}</style></defs><title>icon17</title><path class="cls-1" d="M77.84,83.2A33.35,33.35,0,0,0,70.08,86a38.92,38.92,0,0,0-15.79-3.49,40.27,40.27,0,0,0-17.35,4L29.91,52H77.84m0,31.2,0-31.2M44.2,60.64H39.94V73.28h8.53v-3H44.2Zm11.7,10.7c-1.94,0-2.39-.83-2.39-3.16h8.7c0-5.6-1.33-7.93-6.31-7.93C50.47,60.25,49,62.14,49,67s2,7,6.6,7,6.21-1.66,6.32-4.26H58C58,70.84,57.56,71.34,55.9,71.34Zm-2.39-5.65c0-1.89.39-2.94,2.22-2.94S58,63.58,58,65.69Zm13.47-5H62.32l4.83,12.64h5.26l4.93-12.64H72.8L69.86,68.9Z"/><path class="cls-1" d="M77.79,52m0,0h32.3L102.5,86.52c-5-2.88-9.53-4.1-16.12-4.1a45.33,45.33,0,0,0-8.59.78m.77-22.61V73.28h4.16V60.59Zm7.32.83-.22,1.27c1.33-.83,1.88-1.55,1.88-2.49a1.56,1.56,0,0,0-1.77-1.61,1.52,1.52,0,0,0-1.72,1.5C84.05,61.25,84.82,61.42,85.88,61.42Zm5.93,7.87H87.32c.05,3,1.66,4.26,6.54,4.26,4.54,0,6.37-1,6.37-4.15,0-5-8.42-2.5-8.42-5.49,0-.72.83-1.33,1.94-1.33s1.6.5,1.88,1.55H99.9c-.06-2.66-1.61-3.88-5.88-3.88-4.43,0-6.48,1.22-6.48,4,0,5.49,8.42,2.55,8.42,5.66,0,.94-.5,1.38-1.71,1.38C92.8,71.28,91.92,70.73,91.81,69.29Zm3.43,17.07a2.44,2.44,0,1,1,0,4.87,2.42,2.42,0,0,1-2.44-2.44A2.45,2.45,0,0,1,95.24,86.36Zm2.05,2.43a2.05,2.05,0,0,0-4.1,0,2.08,2.08,0,0,0,2,2A2,2,0,0,0,97.29,88.79ZM94.41,90V87.58h.67c.66,0,1.16.16,1.16.77,0,.28-.17.5-.55.72l.44.94h-.44l-.39-.72h-.39V90Zm1.28-1.66c0-.16-.23-.28-.78-.28v.61C95.3,88.68,95.69,88.68,95.69,88.35Z"/></svg>