<svg id="Layer_2" data-name="Layer 2" xmlns="http://www.w3.org/2000/svg" xmlns:xlink="http://www.w3.org/1999/xlink" viewBox="0 0 100 100"><defs><style>.cls-1{fill:none;}.cls-2{clip-path:url(#clip-path);}.cls-3{clip-path:url(#clip-path-2);}.cls-4{fill:#a8a8a8;}</style><clipPath id="clip-path"><rect class="cls-1" x="-1459.66" y="-962.79" width="1024" height="767.8"/></clipPath><clipPath id="clip-path-2"><rect class="cls-1" width="100" height="100"/></clipPath></defs><title>icon11</title><g class="cls-2"><image width="1806" height="1309" transform="translate(-1528.66 -1459.99) scale(1.13)" xlink:href="../../Dropbox/前後&apos;s shared workspace/PROJECTS/202002_SAYA/攝影/20200505_南亞紗廠攝影30張final/jpg/20200401-196.jpg"/></g><g class="cls-3"><path class="cls-4" d="M96.43,75.23V71.06c-2.13-.76-3.47-1-4.15-2.6s.13-2.75,1.09-4.78l-3-3c-2,1-3.14,1.77-4.78,1.09s-1.85-2-2.6-4.15H78.87c-.75,2.11-1,3.47-2.61,4.15s-2.75-.13-4.77-1.09l-2.95,3c1,2,1.77,3.14,1.09,4.78s-2,1.85-4.15,2.6v4.17c2.1.75,3.47,1,4.15,2.6s-.15,2.8-1.09,4.79l2.95,2.94c2-1,3.14-1.77,4.77-1.09s1.86,2,2.61,4.15H83c.75-2.11,1-3.47,2.61-4.15h0c1.62-.68,2.73.13,4.76,1.09l3-2.94c-1-2-1.77-3.15-1.09-4.78S94.33,76,96.43,75.23ZM81,78.3a5.16,5.16,0,1,1,5.16-5.16A5.16,5.16,0,0,1,81,78.3Z"/><path d="M60.52,58c1.44-3.48,4.35-4,8.83-5.54V43.57C64.82,42,62,41.5,60.52,38s.28-5.85,2.33-10.16l-6.26-6.26c-4.28,2-6.67,3.77-10.17,2.32s-3.93-4.32-5.53-8.83H32c-1.6,4.49-2.05,7.38-5.54,8.83h0c-3.49,1.44-5.85-.27-10.16-2.32l-6.26,6.26c2,4.29,3.77,6.67,2.32,10.16S8.05,42,3.57,43.56v8.86C8,54,11,54.47,12.39,58s-.31,5.93-2.32,10.15l6.26,6.27c4.28-2,6.67-3.77,10.16-2.32h0C30,73.5,30.43,76.38,32,80.88h8.85c1.6-4.48,2-7.37,5.56-8.83h0c3.46-1.44,5.81.27,10.13,2.33l6.26-6.27C60.81,63.83,59.07,61.45,60.52,58ZM36.46,59a11,11,0,1,1,11-11A11,11,0,0,1,36.46,59Z"/></g></svg>