<svg id="圖層_1" data-name="圖層 1" xmlns="http://www.w3.org/2000/svg" xmlns:xlink="http://www.w3.org/1999/xlink" viewBox="0 0 140 140"><defs><style>.cls-1{fill:none;}.cls-2{opacity:0.35;}.cls-3{clip-path:url(#clip-path);}.cls-4{fill:#1a1a1a;}</style><clipPath id="clip-path"><rect class="cls-1" x="-331.95" y="-467.55" width="1035.68" height="332"/></clipPath></defs><title>icon22</title><g class="cls-2"><g class="cls-3"><image width="2048" height="1346" transform="translate(-558.98 -737.69) scale(0.73)" xlink:href="../../Dropbox/前後&apos;s shared workspace/PROJECTS/202002_SAYA/圖庫/istock/istockphoto-182146447-2048x2048.jpg"/></g></g><path class="cls-4" d="M80.88,70.08a33.47,33.47,0,0,1,.63-5.66c1.18-5.33,4-9.34,9.22-11.45a24.86,24.86,0,0,1,21.26.7,13.37,13.37,0,0,1,7.22,8.4c2,6.65,1.85,13.15-1.52,19.38a11.9,11.9,0,0,1-5.76,5.3c-8.33,3.64-16.54,3.69-24.36-1.43-4-2.64-5.7-6.72-6.4-11.28C81,72.74,81,71.4,80.88,70.08Zm25.92.25c0-1.41.09-2.83,0-4.24-.3-3.59-1.54-5.24-4.24-5.73a9.43,9.43,0,0,0-4.32.25A4.05,4.05,0,0,0,95.08,64a34.67,34.67,0,0,0,0,11.85c.56,2.72,2,3.87,4.78,4.08a10.11,10.11,0,0,0,2.9-.2,4.34,4.34,0,0,0,3.8-4A32.61,32.61,0,0,0,106.8,70.33Z"/><path class="cls-4" d="M53.64,86.1s-.08.06-.09.09c-.28,2.26-.28,2.26-2.63,2.26-1.59,0-3.18,0-4.77,0-.7,0-.91-.2-.91-.9q0-5.9,0-11.8c0-.66.15-.94.88-.93,1.94,0,3.89,0,5.83,0a1.17,1.17,0,0,1,1.15.68c2.68,4.39,9.4,6,14.32,4.58.55-.16,1.15-.4,1.15-1.1s-.57-1-1.1-1.19C65,77,62.52,76.22,60,75.45c-1.9-.58-3.8-1.14-5.71-1.71a15.85,15.85,0,0,1-4.93-2.51,10.4,10.4,0,0,1-4.3-10.58A10,10,0,0,1,52,52.31,20.87,20.87,0,0,1,69.51,53.5c.95.5,1.55.82,1.38-.68-.08-.65.24-.83.85-.82,2.08,0,4.15,0,6.23,0,.66,0,.83.23.82.84,0,3.66,0,7.33,0,11,0,.66-.25.82-.86.81q-3,0-6.09,0a1.41,1.41,0,0,1-1.2-.65c-3.21-3.87-7.58-4.72-12.28-4.65a2.51,2.51,0,0,0-1.48.54c-.84.64-.89,1.46,0,2.06a6.33,6.33,0,0,0,1.69.72c4,1.17,8,2.27,11.94,3.5,4.64,1.44,8.1,4.25,9.22,9.15,1.43,6.24-2.48,11.8-9.23,13.36a22.57,22.57,0,0,1-15.55-2c-.36-.17-.7-.37-1.06-.54C53.82,86.07,53.72,86.1,53.64,86.1Z"/><path class="cls-4" d="M31.34,51.35c3.58,0,7.16,0,10.73,0,1,0,1.1.3,1.09,1.12,0,2.34,0,4.68,0,7,0,.83-.25,1.09-1,1-1.15-.06-2.3,0-3.45,0-.73,0-1,.18-1,1q0,8.55,0,17.09c0,.82.32.94,1,.92,1.19,0,2.38,0,3.57,0,.72,0,.9.24.89.92q0,3.65,0,7.28c0,.64-.21.83-.84.83q-11,0-22,0c-.65,0-.82-.21-.81-.83,0-2.43,0-4.86,0-7.28,0-.83.34-.95,1-.92,1.14,0,2.29,0,3.44,0,.65,0,1-.14.94-.87q0-8.61,0-17.22c0-.71-.26-.93-.93-.9-1.19,0-2.38,0-3.57,0-.7,0-.92-.22-.91-.91,0-2.38.06-4.77,0-7.15,0-.88.24-1.12,1.11-1.11C24.19,51.38,27.77,51.35,31.34,51.35Z"/><path class="cls-4" d="M33.44,92.47a1.79,1.79,0,0,1,2.29.84,38.09,38.09,0,0,0,7,7.55c.54.46,1,.64,1.64.19,1-.76,2.77-1,3.06-2.12S46.17,97,45.49,96s-1.55-2.25-2.38-3.44a1.55,1.55,0,0,1,2.26.67,34.4,34.4,0,0,0,3.3,4.31,1.11,1.11,0,0,0,1.46.41c1.8-.73,3.62-1.41,5.47-2,.94-.29,1-.67.56-1.4a5.38,5.38,0,0,1-.54-1.2c-.1-.32-.61-.76,0-1a1,1,0,0,1,1.32.26.68.68,0,0,1,.12.24c.56,2.29,2.05,2.29,4,1.86A46.61,46.61,0,0,1,67,94.08c.68-.07,1.13-.23,1-1-.1-.53.18-.71.67-.69s1-.08.91.6c-.13,1,.47,1,1.19,1.07a44.87,44.87,0,0,1,7.22.94A1.52,1.52,0,0,0,80,93.89c.37-.94.74-2,2.17-1.4a7,7,0,0,1-.84,2.21c-.27.59-.3.93.45,1.17q2.82.94,5.6,2a1,1,0,0,0,1.33-.45c1.06-1.36,2.14-2.7,3.17-4.08.76-1,.73-1,2.27-.91a26.16,26.16,0,0,1-3.63,5.2c-.8.88-.89,1.34.3,2,3.31,1.82,3.28,1.88,6-.72a35.93,35.93,0,0,0,4.83-5.62,1.73,1.73,0,0,1,2.35-.76c-8,11.78-19,18.31-33.16,19.12A41.64,41.64,0,0,1,33.44,92.47Zm37.83,3.21c-1.74-.1-1.74-.1-1.75,1.59s0,3.27,0,4.9c0,2.84,0,2.83,2.89,3a1.22,1.22,0,0,0,1.14-.49,68,68,0,0,0,4.64-7.09c.39-.7.15-.89-.51-1A46.21,46.21,0,0,0,71.27,95.68ZM68,100.27h0c0-1.28,0-2.56,0-3.83,0-.64-.24-.84-.87-.81a47.22,47.22,0,0,0-7.2.89c-.75.16-.8.42-.45,1,1.09,1.92,2.35,3.73,3.51,5.6,1,1.59,2.15,2.22,4,1.7.7-.19,1.09-.34,1-1.16C67.91,102.57,68,101.42,68,100.27ZM57,97.18a41.89,41.89,0,0,0-5,1.7c-1.42.59-1.47.71-.38,1.7a57.31,57.31,0,0,0,7,5.36A3,3,0,0,0,62,106c.52-.28.77-.44.33-1a66.28,66.28,0,0,1-4.69-7.35C57.52,97.37,57.37,97.1,57,97.18Zm20,9.47a1,1,0,0,0,.32-.06,33.81,33.81,0,0,0,9.07-6.77c.38-.4.11-.59-.28-.75a37.24,37.24,0,0,0-5.25-1.77.73.73,0,0,0-1,.38A74.31,74.31,0,0,1,75.19,105c-.2.29-.45.64,0,.88S76.43,106.42,77,106.65Zm-16.92,2.41c.06.07.1.17.17.19a2.72,2.72,0,0,0,.51.13,35.89,35.89,0,0,0,7.47.88,42.67,42.67,0,0,0,8.14-.76c.38-.08,1,0,1.11-.48s-.57-.63-.94-.82a16.41,16.41,0,0,0-15.64.07C60.56,108.44,60.14,108.59,60.07,109.06Zm32.23-6.58c0-.33-.31-.41-.53-.53-.8-.46-1.64-.87-2.42-1.37a1.22,1.22,0,0,0-1.73.24,46.93,46.93,0,0,1-7.86,6.25c-.31.2-1,.31-.63.92a1.12,1.12,0,0,0,1.37.46,39.45,39.45,0,0,0,11.2-5.31C91.94,103,92.24,102.83,92.3,102.48Zm-34.73,6.11c.2,0,.66-.23.85-.67s-.37-.62-.67-.8a41.25,41.25,0,0,1-6.34-4.72c-2.62-2.41-2.6-2.41-5.56-.48-.7.45-.74.79-.06,1.23s1.4.92,2.12,1.34A37.24,37.24,0,0,0,57.57,108.59Z"/><path class="cls-4" d="M72.31,45.65c-.73-.41-1.46,0-2.23.13-.55.08-.78.32-.74.85s-.21.76-.77.77-.92-.19-.86-.83-.3-.83-.89-.85a45.15,45.15,0,0,1-8.27-1c-.55-.13-.81.1-1,.56s-.53,1.12-.8,1.67a.93.93,0,0,1-1.35.4c-.5-.24-.19-.67,0-1,.88-2,.88-2-1.18-2.75-1.37-.48-2.75-1-4.09-1.54a1.15,1.15,0,0,0-1.58.41c-1,1.34-2.07,2.65-3.09,4a2.8,2.8,0,0,1-.94.87.81.81,0,0,1-1-.07c-.3-.27,0-.57.17-.82A30.91,30.91,0,0,1,47,41.78c.57-.64.54-1-.25-1.36a7.77,7.77,0,0,1-1.85-1c-1.13-.94-2-.76-3,.21a52.54,52.54,0,0,0-6.29,6.8c-.23.3-.35.7-.86.73-.36,0-.71.42-1-.06s.12-.64.29-.89c7-9.83,16.45-15.93,28.38-17.49,16.69-2.19,30.25,3.7,40.43,17.17.26.35,1,.77.34,1.3s-1.17.07-1.61-.55A38.41,38.41,0,0,0,94.41,39a1.21,1.21,0,0,0-1.74-.14,15.35,15.35,0,0,1-2.29,1.33c-.86.41-1,.82-.32,1.57a22.67,22.67,0,0,1,3,4c.19.36,1,.71.29,1.26s-1.14,0-1.56-.56c-1-1.41-2-2.77-3.14-4.1A1.43,1.43,0,0,0,86.69,42a52.88,52.88,0,0,1-5,1.8c-.93.27-1,.68-.64,1.42a6.91,6.91,0,0,1,.35.85c.11.31.49.7.08.93a1.14,1.14,0,0,1-1.35-.13.48.48,0,0,1-.13-.23c-.52-2.22-2-2-3.7-1.55A35.53,35.53,0,0,1,72.31,45.65Zm-4.62-5.88h0a28,28,0,0,1,0-3c.13-1.24-.34-1.8-1.56-1.74-.81,0-1.71-.63-2.43.3a54.3,54.3,0,0,0-4.69,7c-.25.45-.33.88.31,1a35.87,35.87,0,0,0,7.73.82c.56,0,.61-.34.61-.78C67.68,42.15,67.69,41,67.69,39.77Zm3.78,4.34a43.27,43.27,0,0,0,5.81-.82c.69-.14.84-.41.46-1.07-1.08-1.88-2.33-3.64-3.47-5.47-1-1.62-2.14-2.21-4-1.68-.68.19-1,.35-.94,1.08,0,2.07,0,4.14,0,6.22S69.13,44.11,71.47,44.11Zm14.86-4c-.2-.21-.42-.48-.67-.71a45,45,0,0,0-7.25-5.49,3,3,0,0,0-3.31-.09c-.55.3-.74.48-.3,1.05a66,66,0,0,1,4.59,7.09c.22.39.43.74,1,.58a32.33,32.33,0,0,0,5.36-1.85C86,40.56,86.27,40.49,86.33,40.09Zm-29.79,2.5c.62.1.79-.29,1-.64a56.14,56.14,0,0,1,4.53-7c.19-.25.45-.65.15-.8-.78-.41-1.56-1.24-2.52-.73A39.52,39.52,0,0,0,51,39.87c-.3.28-.47.57,0,.81A38.07,38.07,0,0,0,56.54,42.59Zm3.07-11.9c.14.23.18.37.27.44,4.6,3.3,12.21,3.24,16.81.21.21-.14.53-.27.42-.59s-.44-.25-.69-.3a40.79,40.79,0,0,0-10.8-.68A28,28,0,0,0,59.61,30.69Zm-2.43.68a3.39,3.39,0,0,0-.74.1,45.7,45.7,0,0,0-10.8,5.24c-.67.46-.88.83,0,1.28a21.15,21.15,0,0,1,2.18,1.24A1.24,1.24,0,0,0,49.66,39a46.59,46.59,0,0,1,7.83-6.09c.31-.19.89-.28.74-.78A1.08,1.08,0,0,0,57.18,31.37Zm23.1,0c-.88-.12-1.29.08-1.47.5s.29.64.61.84a42,42,0,0,1,6.47,4.77c2.49,2.18,2.47,2.16,5.32.37.83-.52.69-.79,0-1.26A40.77,40.77,0,0,0,84.5,33C83,32.33,81.45,31.84,80.28,31.41Z"/></svg>