<svg id="Layer_2" data-name="Layer 2" xmlns="http://www.w3.org/2000/svg" xmlns:xlink="http://www.w3.org/1999/xlink" viewBox="0 0 140 140"><defs><style>.cls-1{fill:none;}.cls-2{clip-path:url(#clip-path);}.cls-3{clip-path:url(#clip-path-2);}.cls-10,.cls-4,.cls-5,.cls-6,.cls-7{fill:#bfc723;}.cls-17,.cls-5{opacity:0.2;}.cls-14,.cls-6{opacity:0.6;}.cls-7,.cls-8{opacity:0.4;}.cls-16,.cls-17,.cls-18,.cls-8,.cls-9{fill:#c1c1c1;}.cls-10,.cls-15,.cls-16{opacity:0.1;}.cls-11,.cls-12,.cls-13,.cls-14,.cls-15{fill:#fff;}.cls-12{opacity:0.3;}.cls-13,.cls-18{opacity:0.8;}</style><clipPath id="clip-path"><rect class="cls-1" x="-413.03" y="-920.51" width="1034.24" height="775.48"/></clipPath><clipPath id="clip-path-2"><rect class="cls-1" x="-1511.44" y="-920.51" width="1034.24" height="775.48"/></clipPath><image id="image" width="1806" height="1309" xlink:href="../../Dropbox/前後&apos;s shared workspace/PROJECTS/202002_SAYA/攝影/20200505_南亞紗廠攝影30張final/jpg/20200401-196.jpg"/></defs><title>icon9</title><rect class="cls-1" width="140" height="140"/><g class="cls-2"><use transform="translate(-482.72 -1422.68) scale(1.14)" xlink:href="#image"/></g><g class="cls-3"><use transform="translate(-1581.13 -1422.68) scale(1.14)" xlink:href="#image"/></g><circle class="cls-4" cx="30.3" cy="94.12" r="7.1"/><circle class="cls-5" cx="87.3" cy="94.12" r="7.1"/><circle class="cls-6" cx="49.3" cy="94.12" r="7.1"/><circle class="cls-7" cx="68.3" cy="94.12" r="7.1"/><circle class="cls-8" cx="68.3" cy="112.31" r="7.1"/><circle class="cls-9" cx="30.3" cy="112.31" r="7.1"/><circle class="cls-10" cx="106.33" cy="94.12" r="7.1"/><circle class="cls-11" cx="30.3" cy="75.67" r="7.1"/><circle class="cls-12" cx="87.3" cy="75.67" r="7.1"/><circle class="cls-13" cx="49.3" cy="75.67" r="7.1"/><circle class="cls-14" cx="68.3" cy="75.67" r="7.1"/><circle class="cls-15" cx="106.33" cy="75.67" r="7.1"/><circle class="cls-16" cx="106.88" cy="112.31" r="7.1"/><circle class="cls-17" cx="87.87" cy="112.31" r="7.1"/><circle class="cls-18" cx="48.51" cy="112.31" r="7.1"/><path class="cls-11" d="M103.22,15.81c6.4,11.12-4.35,23.08-4.35,23.08a9.86,9.86,0,1,0,17.8,5.84S119.1,30.32,103.22,15.81Z"/></svg>