<svg id="圖層_1" data-name="圖層 1" xmlns="http://www.w3.org/2000/svg" xmlns:xlink="http://www.w3.org/1999/xlink" viewBox="0 0 280 140"><defs><style>.cls-1{fill:none;}.cls-2{opacity:0.35;}.cls-3{clip-path:url(#clip-path);}.cls-4{fill:#1a1a1a;}</style><clipPath id="clip-path"><rect class="cls-1" x="-728.07" y="-467.55" width="1035.68" height="332"/></clipPath></defs><title>icon23</title><g class="cls-2"><g class="cls-3"><image width="2048" height="1346" transform="translate(-955.1 -737.69) scale(0.73)" xlink:href="../../Dropbox/前後&apos;s shared workspace/PROJECTS/202002_SAYA/圖庫/istock/istockphoto-182146447-2048x2048.jpg"/></g></g><path class="cls-4" d="M253.12,78.86a.67.67,0,0,0-.2,0c-1.09.33-2.83-1.16-3-.06s1.06,2.65,1.72,4c.4.81.89.28,1.33,0a6.47,6.47,0,0,1,3.45-1.1,3.27,3.27,0,0,1,3.06,2,3.06,3.06,0,0,1-.55,3.6,3.21,3.21,0,0,1-3.5,1.05,6.81,6.81,0,0,1-3.05-2c-.27-.28-.53-.76-1-.47-.21.13-.26.58-.3.89-.07.54,0,1.1-.13,1.63-.42,1.9-.05,3,2.25,2.68a3.58,3.58,0,0,1,2.14.6,3.29,3.29,0,0,1,1.83,3.38,3.15,3.15,0,0,1-2.11,2.79,3.36,3.36,0,0,1-3.77-.76,6.41,6.41,0,0,1-1.59-3c-.12-.43-.05-1.06-.67-1.1s-.69.57-.93,1a5.69,5.69,0,0,1-.54.86c-1.6,1.54-1.45,2.52.56,3.76,2.55,1.58,2.6,4.72.42,6.1a3.17,3.17,0,0,1-3.66.06,4.06,4.06,0,0,1-1.71-4.1c.06-.86.92-1.92.24-2.5-.88-.74-1.61.62-2.51.81-2,.42-2.31,1.48-1.11,3.13a3.91,3.91,0,0,1,.58,2.35,3.25,3.25,0,0,1-2,3.08,3.16,3.16,0,0,1-3.47-.38,3.24,3.24,0,0,1-1.3-3.42,6.86,6.86,0,0,1,1.31-2.51c.4-.58,1.53-.9,1.12-1.72s-1.38-.17-2.08-.32c-.33-.08-.68-.08-1-.17-1.6-.44-2.26.09-2.07,1.8a4.27,4.27,0,0,1-.88,3.08,3.41,3.41,0,1,1-5.43-4.13,6.3,6.3,0,0,1,2.3-1.64c.74-.4,2.6-.32,2.06-1.12-.81-1.22-2.56-1.85-4-2.62-.28-.15-.55.5-.77.84a6.77,6.77,0,0,1-2,2.32,3.42,3.42,0,0,1-4,0,3.12,3.12,0,0,1-1.46-3.17,3.4,3.4,0,0,1,2.73-3,6.91,6.91,0,0,1,3.61.3c.39.11.81.33,1.09-.12s0-.65-.22-.94-.29-.46-.42-.7c-.51-1-.79-2.28-1.59-2.77s-1.71.79-2.7,1.07c-2,.58-3.75.1-4.64-1.48a3.11,3.11,0,0,1,.58-4.09c1.46-1.39,3.07-1.24,4.69-.25a2.06,2.06,0,0,0,.51.34c.91.26,1.66,2.19,2.2,1.29.72-1.17.43-3,.38-4.56,0-.49-.81-.35-1.26-.34a6.18,6.18,0,0,1-2.79-.53,3.36,3.36,0,0,1-2.19-3.38,3.46,3.46,0,0,1,6.2-1.84,6.58,6.58,0,0,1,1.35,3c.09.39.1.86.65.88.39,0,.55-.32.72-.62a5.29,5.29,0,0,1,.74-1.22c1.65-1.58,1.39-2.61-.61-3.77a3.5,3.5,0,0,1-1.57-4.75,3.17,3.17,0,0,1,3.92-1.79c1.86.47,2.84,2.27,2.63,4.52-.08.85-.91,1.92-.24,2.49.88.75,1.59-.64,2.48-.82,2-.42,2.26-1.36,1.18-3.12a3.62,3.62,0,0,1,.49-4.86,3.4,3.4,0,0,1,5.69,2.76,6.11,6.11,0,0,1-.73,2.1c-.45,1-2.22,1.82-1.7,2.49.85,1.07,2.65.31,4,.67.84.23.91-.48,1-1.15a11.9,11.9,0,0,1,.49-2.8,3.31,3.31,0,0,1,3.42-2.4,3.14,3.14,0,0,1,3.12,2.49,3.39,3.39,0,0,1-1.53,3.9,9.44,9.44,0,0,1-2.82,1.18c-.3.09-.72,0-.79.49s.25.6.55.77.37.17.55.28c1,.6,1.92,1.65,2.93,1.71s1.17-1.62,2-2.34c1.37-1.24,2.82-2,4.6-1A3.1,3.1,0,0,1,257,76.3C256.47,78.23,255,78.94,253.12,78.86Zm-2.68,5.27-.24-.58c-.24-.63-.46-1.27-.7-1.89-.35-.89-.79-1.16-1.62-.4a2.17,2.17,0,0,1-3.52-2.35c.42-1.23,1.44-1.5,2.62-1.39l1,.07.24.16-.18-.22c-2.13-2.19-2.1-2.16-4.1-.29a2,2,0,0,1-3.07,0A2,2,0,0,1,241,74a8.76,8.76,0,0,1,1.88-1c-.34-.53-.79-.3-1.15-.35-1.6-.24-3.09-.49-2.79,2.07.12,1-.9,1.6-2,1.62a2,2,0,0,1-2.07-1.34,3.22,3.22,0,0,1,.49-2.72c.07-.1.23-.25.2-.29-.14-.23-.32-.14-.48,0-1.33.51-3.62.31-1.65,2.91.78,1,0,2.29-1.22,2.79a2,2,0,0,1-2.81-1.29,12.62,12.62,0,0,1-.46-2.3c-.72,1.09-1.53,1.85-1.72,2.75-.16.73,1.08.53,1.56,1a2.11,2.11,0,0,1,.23,3.24c-1,1.1-2.15.93-3.23,0-.59-.53-.56-1.38-1.1-2.14-.13.7-.22,1.16-.29,1.63-.19,1.36-.8,2.81,1.77,2.39,1.37-.22,2.23,1.06,2,2.48a2.15,2.15,0,0,1-2.74,1.79c-.63-.1-1.08-.93-1.86-.5.68,1.48.84,3.63,3.44,1.7,1-.71,2.26.26,2.55,1.58a2,2,0,0,1-1.83,2.64,12,12,0,0,1-2.41-.19,9,9,0,0,0,.83.71c1.31.79,2.54,2.75,3.85-.2.52-1.15,2-1,3,0a2,2,0,0,1-.18,3.21,8.74,8.74,0,0,1-1.88,1c.34.55.8.32,1.17.37,1.59.24,3.14.54,2.77-2.06-.13-.93.78-1.53,1.77-1.63A2,2,0,0,1,239,95.16a2.6,2.6,0,0,1-.73,2.78c2.83-.1,3-.37,2.15-2.59a2.08,2.08,0,0,1,1.21-2.87,2,2,0,0,1,2.74,1,15.42,15.42,0,0,1,.68,2.38c.64-1.47,3.32-2.42.11-3.65-.86-.33-1-1.26-.85-2.12A2.1,2.1,0,0,1,246,88.35a2,2,0,0,1,2.15.85,14,14,0,0,1,1,2.11c.11-.74.18-1.28.27-1.81.2-1.3.83-2.67-1.66-2.26a1.93,1.93,0,0,1-2.09-2.42A2.06,2.06,0,0,1,248.34,83a6.52,6.52,0,0,1,1.63.81c.09.22.2.42.5.32l.12.19s0-.09,0-.11A.29.29,0,0,0,250.44,84.13ZM239,104.67c.05-1.36-1-3.54-1.6-3.61s-2.4,2.14-2.4,3.23a1.9,1.9,0,0,0,2,2.11A1.86,1.86,0,0,0,239,104.67Zm13.39-12.3c-.55.18-1.41-.15-1.39,1,0,1.49,1.5,3.41,2.74,3.38a1.84,1.84,0,0,0,2-2C255.57,92.67,253.84,92.68,252.34,92.37Zm-22.74,8.19c-.23-.55.4-1.47-.8-1.51-1.54,0-3.59,1.43-3.57,2.72a1.83,1.83,0,0,0,2,2C229.31,103.66,229.33,102,229.6,100.56Zm7.27-36.83c-1.31.31-2.11,1.08-1.89,2.43.19,1.16.44,2.49,1.71,3,.62.23,2.32-2.33,2.26-3.35A2.09,2.09,0,0,0,236.87,63.73ZM223.29,93.56c-.47-.77-1.43-.78-2.31-.85-1.44-.1-2.66.29-2.8,2A1.84,1.84,0,0,0,220,96.74C221.14,96.9,223.2,95,223.29,93.56Zm21-24.21c.19.67-.44,1.77,1,1.73s3.42-1.48,3.34-2.7a1.82,1.82,0,0,0-1.91-1.93C244.84,66.46,244.57,67.9,244.32,69.35Zm8.86,8.21c1.45-.1,2.53-.61,2.54-2.15a1.84,1.84,0,0,0-1.95-1.93c-1.17-.06-3.47,2.06-3.12,3S252.32,77.33,253.18,77.56Zm-23.91-8.42c0-1.61-.45-2.71-2.15-2.69a1.83,1.83,0,0,0-1.9,2c-.06,1.08,1.85,3.14,2.92,3C229.56,71.2,229,69.87,229.27,69.14Zm-8,8.54c.53-.21,1.56.44,1.6-.83.06-1.45-1.46-3.37-2.68-3.36a1.81,1.81,0,0,0-2.05,2C218.3,77.34,219.77,77.59,221.32,77.68Zm23.31,23.42c0,1.78.73,2.71,2,2.68a1.93,1.93,0,0,0,2-2.1c0-1-1.87-3-2.88-2.84C244.33,99,244.87,100.38,244.63,101.1ZM256,83.17c-1.14.19-2.88.41-2.84,1.62s1.57,2.15,3.05,2.23a1.75,1.75,0,0,0,2-2C258.25,83.69,257.36,83.18,256,83.17Zm-38.73,3.89c1.65,0,3.58-1,3.61-1.6,0-.75-2.21-2.32-3.32-2.28a1.8,1.8,0,0,0-2,2A1.7,1.7,0,0,0,217.29,87.06Zm26,7.71c0-.59-.3-1.07-1-1a.72.72,0,0,0-.69.84,1.16,1.16,0,0,0,1,1.09C243.16,95.7,243.14,95.15,243.26,94.77Zm-11.69-1.06a1.14,1.14,0,0,0-1,1.07c-.1.51.16.76.66.71a1,1,0,0,0,1.08-1A.77.77,0,0,0,231.57,93.71Zm0-17.3c.45,0,.82-.24.77-.74a1.12,1.12,0,0,0-1-1.09c-.53,0-.59.52-.61.9A.83.83,0,0,0,231.52,76.41Zm11.84-1.07c0-.56-.37-.68-.82-.59s-.9.36-.93.91a.67.67,0,0,0,.76.73C243.05,76.39,243.25,75.89,243.36,75.34ZM237,97.07a1.14,1.14,0,0,0,.71-1.28.71.71,0,0,0-.91-.57.81.81,0,0,0-.59,1.1C236.3,96.7,236.41,97.11,237,97.07Zm9.5-7.26c-.46,0-.84.17-.86.64,0,.65.45.92,1,1,.35,0,.72,0,.71-.47A1.1,1.1,0,0,0,246.49,89.81Zm-18.18.69a.75.75,0,0,0-.71-.68,1,1,0,0,0-1.16.86c-.07.51.41.64.8.68S228.13,91.15,228.31,90.5Zm0-10.72a1,1,0,0,0-1-1c-.34,0-.73,0-.72.45a1.07,1.07,0,0,0,.89,1.16A.74.74,0,0,0,228.29,79.78Zm18.37-.93a.88.88,0,0,0-1,.76.65.65,0,0,0,.67.8,1,1,0,0,0,1.15-.88C247.53,79,247.05,78.93,246.66,78.85Zm-8.95-5c-.15-.21-.15-.76-.66-.7a1,1,0,0,0-.85,1.15A.71.71,0,0,0,237,75C237.57,74.93,237.75,74.52,237.71,73.86ZM249,85.12a1.13,1.13,0,0,0-1.23-.78.72.72,0,0,0-.6.89c.12.59.6.64,1.08.56S249.07,85.72,249,85.12ZM224.88,85a1.1,1.1,0,0,0,1.06.76c.57,0,.9-.28.78-.85a.75.75,0,0,0-1-.61C225.32,84.45,224.87,84.5,224.88,85Zm19.67,11c-.05,0-.13.09-.13.14s.07.1.11.15.12-.09.12-.14S244.58,96.07,244.55,96Z"/><path class="cls-4" d="M116.33,43a15.16,15.16,0,0,1-.43,3.85,8.83,8.83,0,0,1-9.05,7.3c-4.66.06-7.87-2.37-9.1-6.94a15.33,15.33,0,0,1-.06-7.87c1.24-4.87,5-7.49,10.21-7.15,4.67.3,7.78,3.56,8.34,8.77C116.31,41.66,116.3,42.35,116.33,43Zm-4.52,0a9.37,9.37,0,0,0-.54-4.08c-.72-1.91-1.93-3.24-4.19-3.26a4.42,4.42,0,0,0-4.6,3,12.24,12.24,0,0,0,.26,9.32,4.49,4.49,0,0,0,8.1.1A9.8,9.8,0,0,0,111.81,43.08Z"/><path class="cls-4" d="M60.85,43.06c-.14,1.21-.17,2.45-.43,3.64-1.13,4.94-4.52,7.57-9.51,7.48-4.71-.09-8.06-3-8.92-7.94a17.36,17.36,0,0,1,0-6.1c.95-5.23,4.82-8.2,10.21-7.93,4.83.24,8.12,3.71,8.49,9,0,.61,0,1.23,0,1.84Zm-4.58.08a12.4,12.4,0,0,0-.44-3.83c-.81-2.44-2.13-3.54-4.38-3.56a4.45,4.45,0,0,0-4.66,3.51A12.77,12.77,0,0,0,47,47.69a4.27,4.27,0,0,0,4.22,3,4.37,4.37,0,0,0,4.27-2.9A10.53,10.53,0,0,0,56.27,43.14Z"/><path class="cls-4" d="M85.26,41.56l5.4-7.11A4.12,4.12,0,0,1,93,32.63c1.08-.21,2.36-.32,3,.67.52.81-.59,1.39-1,2-1.51,2.1-3,4.19-4.66,6.21a1.56,1.56,0,0,0,0,2.3c2.07,2.7,4,5.49,6.1,8.19.9,1.16.58,1.65-.73,1.84a4.24,4.24,0,0,1-4.34-1.61c-1.92-2.52-3.87-5-6.09-7.89,0,2.7-.12,5,0,7.25.11,1.74-.63,2-2.13,2s-2.24-.08-2.2-1.92c.13-5.65,0-11.3,0-17,0-1-.33-2.29,1.49-2.18,1.53.1,2.71.51,2.73,2.31C85.28,36.92,85.26,39,85.26,41.56Z"/><path class="cls-4" d="M72.38,84.28c0,3.2-.09,6.4,0,9.59.06,1.7-.85,1.63-2,1.64s-1.88-.1-1.86-1.61c.09-5,0-10,.06-14.92,0-.78-.58-1.94.67-2.27a2.78,2.78,0,0,1,3.41,1.15c1,1.68,2.09,3.35,3.13,5a40.94,40.94,0,0,0,4.12,5.83c0-3.31,0-6.61,0-9.92,0-.91-.5-2.22,1.24-2.19,1.52,0,2.47.65,2.46,2.31,0,2.59,0,5.18,0,7.77,0,2.18,0,4.36,0,6.54,0,.76.64,2-.69,2.2s-2.48.36-3.38-1.12c-1.81-3-3.83-6-5.78-8.92-.28-.43-.62-.82-.94-1.24Z"/><path class="cls-4" d="M172.5,46.78c-1.22,2.08-2.24,3.84-3.29,5.58-.66,1.11-3.61,1.86-4.69,1.23-.81-.48-.16-1,.07-1.34,1.5-2.59,3-5.19,4.6-7.71a2.33,2.33,0,0,0,0-2.78c-1.42-2.4-2.69-4.89-4.11-7.29-.65-1.1-.36-1.58.79-1.82,1.78-.36,3.21,0,4.07,1.79.61,1.29,1.38,2.5,2,3.77.52,1,1,1.26,1.59.08s1.35-2.36,2-3.54a4.46,4.46,0,0,1,1.58-1.83,3,3,0,0,1,3.29,0c1,.8-.23,1.56-.59,2.22q-1.82,3.31-3.86,6.49a2.18,2.18,0,0,0,0,2.61c1.55,2.56,3,5.19,4.54,7.75.82,1.35.36,1.76-1,1.89a3.6,3.6,0,0,1-3.77-1.84C174.75,50.37,173.7,48.71,172.5,46.78Z"/><path class="cls-4" d="M138.5,86.12c0-2.59,0-5.18,0-7.76,0-1.08.24-1.66,1.44-1.65s2.59-.2,3.88-.2c7.4,0,11.11,4.7,9.55,12a8.3,8.3,0,0,1-8.16,7c-1.76.09-3.54,0-5.3,0-1.08,0-1.43-.37-1.41-1.42C138.53,91.43,138.5,88.77,138.5,86.12Zm4-.06v5.11c0,.65,0,1.14.9,1.29a5,5,0,0,0,6-4.17,17.27,17.27,0,0,0,.1-3.87c-.26-3.32-2.24-5-5.59-4.86-1,0-1.49.29-1.44,1.39C142.52,82.65,142.47,84.36,142.47,86.06Z"/><path class="cls-4" d="M87.35,86.06c0-2.59.05-5.18,0-7.76,0-1.15.37-1.59,1.5-1.59,1.29,0,2.59-.21,3.88-.2,7.17,0,10.76,4.34,9.58,11.43-.78,4.7-3.91,7.48-8.71,7.52-2,0-4.56.87-5.89-.42-1.15-1.11-.26-3.62-.33-5.51C87.31,88.37,87.35,87.21,87.35,86.06Zm11.06,0c0-4.56-1.78-6.63-5.64-6.51-1,0-1.48.25-1.46,1.37,0,3.41,0,6.82,0,10.23,0,1,.35,1.26,1.31,1.31C96.48,92.64,98.37,90.59,98.41,86.07Z"/><path class="cls-4" d="M64.44,43c0-2.87.07-5.73,0-8.59-.06-1.47.48-1.85,1.87-1.81,3.2.09,6.4,0,9.6,0,.73,0,1.81-.4,1.86.93s-.35,2.24-1.74,2.33a39.61,39.61,0,0,1-5.11,0c-1.6-.1-2.3.42-2,2.06a4.53,4.53,0,0,1,0,1.22c-.21,1.47.26,2.18,1.87,2,.94-.12,1.91,0,2.86,0,1.3-.1,1.94.17,2,1.73s-.87,1.7-2,1.63c-.61,0-1.23,0-1.84,0-3.18,0-2.79-.38-2.78,2.86s-.45,2.84,3,2.88c1.36,0,2.73,0,4.09,0a2.17,2.17,0,0,1,2.26,2c.14.88-.11,1.46-1.15,1.46-3.81,0-7.63,0-11.44,0-1.07,0-1.15-.68-1.15-1.51C64.45,49.1,64.44,46,64.44,43Z"/><path class="cls-4" d="M149.05,42.92c0-2.86.06-5.72,0-8.58,0-1.3.31-1.81,1.7-1.77,3.27.09,6.54,0,9.81,0,.76,0,1.81-.28,1.8,1s-.37,2.21-1.8,2.26c-1.7.06-3.41.14-5.11,0-1.47-.09-2.05.3-2,1.91.17,4-.47,3.24,3.37,3.33a11.21,11.21,0,0,0,1.64,0c1.43-.2,1.66.52,1.68,1.77s-.47,1.72-1.68,1.58a8.66,8.66,0,0,0-1,0c-4.21,0-4.61.52-4,4.77.16,1,.74,1,1.43,1,1.77,0,3.54,0,5.31,0a2.38,2.38,0,0,1,2.27,1.1c.79,1.34.36,2.18-1.2,2.19-3.54,0-7.08,0-10.62,0-1.27,0-1.65-.43-1.62-1.66C149.1,48.92,149.05,45.92,149.05,42.92Z"/><path class="cls-4" d="M197.14,54.26a11.06,11.06,0,1,1,0-22.11,11.06,11.06,0,1,1,0,22.11Zm0-2.76a8.3,8.3,0,1,0,.08-16.6,8.3,8.3,0,1,0-.08,16.6Z"/><path class="cls-4" d="M122.34,86.11c0-2.59,0-5.18,0-7.76,0-1.25.41-1.63,1.62-1.69a29.58,29.58,0,0,1,6.31.09c2.29.4,4.26,1.3,4.79,3.78s.15,4.83-2.16,6.33c-1,.67-1,1.14-.4,2.06,1.12,1.7,2.1,3.5,3.18,5.23.57.93.34,1.33-.71,1.48A3.48,3.48,0,0,1,131.08,94c-.89-1.53-1.82-3-2.71-4.56-.37-.63-.8-1.16-1.61-.92s-.53,1-.55,1.55c0,1.09,0,2.18,0,3.27,0,1.94-1.49,2.87-3.3,2.09-.78-.34-.54-1-.54-1.58C122.32,91.28,122.34,88.69,122.34,86.11Zm3.83-3.41c.21.86-.55,2.23.4,2.88s2.11.26,3.09-.29A3.53,3.53,0,0,0,130.89,81c-.74-1.67-2.29-1.91-3.78-1.66-1.75.29-.63,1.85-.93,2.81A2.38,2.38,0,0,0,126.17,82.7Z"/><path class="cls-4" d="M207.13,86.19a19.23,19.23,0,0,1-.74,4.85c-1,3.29-3.14,4.88-6.45,4.86a6.06,6.06,0,0,1-6.35-5,16.68,16.68,0,0,1,.12-9.47c1.06-3.39,3.54-5,7.16-4.75,3,.19,5,2.08,5.74,5.43C206.88,83.48,207,84.84,207.13,86.19Zm-4,.12a13.83,13.83,0,0,0-.56-4.61,2.59,2.59,0,0,0-5,0,15.74,15.74,0,0,0,0,9,2.56,2.56,0,0,0,2.66,2.07,2.59,2.59,0,0,0,2.46-2.06A14.41,14.41,0,0,0,203.13,86.31Z"/><path class="cls-4" d="M177.57,86.42a14.43,14.43,0,0,1,.59-4.84c1.11-3.43,3.47-5,7.09-4.86,3.11.15,5.15,2,5.86,5.51a17.38,17.38,0,0,1-.38,9.27,6.64,6.64,0,0,1-12.58-.24A15.23,15.23,0,0,1,177.57,86.42Zm10.05-.21a13.58,13.58,0,0,0-.6-4.61,2.55,2.55,0,0,0-2.38-1.9,2.43,2.43,0,0,0-2.49,1.74,14.86,14.86,0,0,0,0,9.57,2.41,2.41,0,0,0,2.44,1.79,2.54,2.54,0,0,0,2.52-2A14.42,14.42,0,0,0,187.62,86.21Z"/><path class="cls-4" d="M118.22,95.36c-1.8.5-2.46-.37-2.66-1.66-.37-2.34-1.66-3.23-4-2.8a3.34,3.34,0,0,1-1.22,0,2.33,2.33,0,0,0-3.08,2.26c-.28,2.28-1.75,2.55-3.63,2.34-.76-.09-.93-.35-.68-1q3-8.37,5.94-16.75c.39-1.11,1.34-1,2.19-1.1,1.21-.07,2.41.18,2.88,1.46,2,5.44,4,10.86,5.8,16.36C120.41,96.29,118.53,95,118.22,95.36Zm-6.65-14.47h-.44c-.68,2.08-1.35,4.17-2,6.25-.26.78.15.95.81.94.95,0,1.89,0,2.84,0,.64,0,1.07-.1.8-.93C112.86,85.08,112.23,83,111.57,80.89Z"/><path class="cls-4" d="M64.82,95.36c-1.88.49-2.63-.34-2.85-1.74-.36-2.22-1.58-3.11-3.8-2.72a5.91,5.91,0,0,1-1.83,0c-1.42-.22-2.08.4-2.48,1.74-.29,1-.18,2.38-1.39,2.75-.93.29-2.21.48-3-.13s.18-1.48.44-2.21c1.7-4.89,3.48-9.75,5.14-14.65a2.27,2.27,0,0,1,2.34-1.79c1.33,0,2.55.17,3,1.53,2,5.37,3.91,10.74,5.76,16.15C66.9,96.23,65.13,95.13,64.82,95.36Zm-7-15.19c-.65,2-1.1,3.3-1.54,4.65-1.17,3.58-1.17,3.56,2.73,3.29.88-.06,1.24-.2.91-1.18C59.24,84.89,58.63,82.81,57.82,80.17Z"/><path class="cls-4" d="M27.68,95.93a9.66,9.66,0,0,1-4.36-.88,1.7,1.7,0,0,1-1-2.6c.66-1.44,1.44-1,2.39-.37a5.5,5.5,0,0,0,3.72.77,2.46,2.46,0,0,0,.92-4.77c-1.24-.54-2.54-1-3.79-1.48-2.4-1-3.38-2.44-3.35-4.81A4.93,4.93,0,0,1,25.6,77a9.72,9.72,0,0,1,7.73.35,1.69,1.69,0,0,1,1,2.48c-.62,1.4-1.4.75-2.26.3a5.78,5.78,0,0,0-4-.55A2,2,0,0,0,26.36,81a1.89,1.89,0,0,0,1.06,2.22,25.66,25.66,0,0,0,3,1.29c3.75,1.46,5,3.24,4.48,6.49-.45,2.85-2.89,4.72-6.39,4.9Z"/><path class="cls-4" d="M135.88,45.05c0-2.45,0-4.9,0-7.35,0-1.15-.35-1.61-1.52-1.52a29.72,29.72,0,0,1-3.27,0c-.73,0-1.78.39-1.92-.88a2.13,2.13,0,0,1,1.42-2.44,5.41,5.41,0,0,1,1.8-.25q6.22,0,12.46,0c.73,0,1.78-.38,1.91.89A2.16,2.16,0,0,1,145.39,36a6.5,6.5,0,0,1-3,.2c-1.57-.13-2.14.34-2.1,2,.12,4.49,0,9,.09,13.48.06,1.91-.81,2-2.32,2.06-1.66.06-2.3-.38-2.19-2.13C136,49.42,135.88,47.23,135.88,45.05Z"/><path class="cls-4" d="M42.05,87.69c0-2,0-4.09,0-6.14,0-1.19-.3-1.79-1.6-1.66a13.37,13.37,0,0,1-2.45,0c-.71-.07-1.8.48-1.89-.87A1.88,1.88,0,0,1,38,76.77c1.36-.1,2.72,0,4.09,0,2.65,0,5.31,0,8,0,.71,0,1.81-.47,1.84.9a1.89,1.89,0,0,1-1.72,2.16,8.42,8.42,0,0,1-2.24.08c-1.5-.18-2,.33-2,1.91.11,4,0,8,.08,12.06,0,1.68-.81,1.65-2,1.66s-2.1-.06-2-1.69C42.14,91.78,42.05,89.73,42.05,87.69Z"/><path class="cls-4" d="M172.41,86.33c0,2.58-.08,5.17,0,7.76.07,1.71-1.05,1.36-2,1.4s-1.86.09-1.82-1.41c.09-3.33,0-6.67,0-10,0-2.62-.05-2.71-2.32-1.53-1.44.75-2,.09-2.41-1.07a1.3,1.3,0,0,1,.62-1.75A60.58,60.58,0,0,1,170,77c1.64-.65,2.41,0,2.42,1.75C172.42,81.29,172.41,83.81,172.41,86.33Z"/><path class="cls-4" d="M59,65.06c0,2.58-1.45,4.24-3.67,4.22s-3.54-1.65-3.57-4.13,1.47-4.21,3.71-4.22S59,62.56,59,65.06Zm-5.42,0c.09,1.26.07,2.73,1.89,2.72s1.8-1.45,1.81-2.64-.07-2.77-1.89-2.75S53.64,63.79,53.57,65.08Z"/><path class="cls-4" d="M139.7,65.45c0-1.08,0-2.17,0-3.25,0-.49,0-1,.71-1s.84.4.85.93c0,2,0,4,0,5.92,0,.41,0,.84-.58.91a1.15,1.15,0,0,1-1.21-.57,18.21,18.21,0,0,0-2.84-3.61c0,1,0,1.94,0,2.92,0,.61.06,1.31-.88,1.26s-.7-.69-.71-1.21c0-1.77,0-3.54,0-5.31,0-.44-.17-1,.45-1.21a1.12,1.12,0,0,1,1.37.6l2.33,3.75Z"/><path class="cls-4" d="M105,65.43c0-1,0-2,0-3,0-.52-.09-1.18.73-1.19s.85.56.85,1.13c0,1.84,0,3.68,0,5.51,0,.45.11,1-.58,1.12a1.13,1.13,0,0,1-1.19-.6,19,19,0,0,0-2.86-3.59V67.9c0,.59-.08,1.11-.87,1.08s-.72-.5-.72-1c0-1.91,0-3.81,0-5.72,0-.46-.06-1,.62-1.08a1.15,1.15,0,0,1,1.19.62l2.37,3.74Z"/><path class="cls-4" d="M66.5,65.43c0-1.09,0-2.17,0-3.25,0-.5.06-1,.73-1s.83.43.83,1c0,2,0,3.94,0,5.91,0,.41,0,.83-.59.9a1.14,1.14,0,0,1-1.19-.61,18.5,18.5,0,0,0-2.85-3.58c0,1,0,2,0,2.93,0,.62.06,1.31-.88,1.26s-.7-.69-.71-1.21c0-1.77,0-3.54,0-5.3,0-.44-.18-1,.44-1.22s1.15.19,1.5.75c.74,1.19,1.5,2.38,2.24,3.57Z"/><path class="cls-4" d="M124.66,43.19c1.23,0,2.45,0,3.68,0s1.87.83,1.87,2.15c0,1.5-1.06,1.12-1.86,1.13-2,0-4.09,0-6.13,0-1,0-2-.23-2.21-1.37s-.24-2.08,1.39-2c1.08.08,2.17,0,3.26,0Z"/><path class="cls-4" d="M85.26,69c-1.35.29-1.92-.31-1.79-1.86a23.31,23.31,0,0,0,0-4.26c-.15-1.52.6-1.86,1.88-1.87,2.87,0,4.35,1.24,4.38,3.87C89.77,67.7,88.4,69,85.26,69Zm-.32-3.88c.92.65-.91,2.53,1.24,2.54,1.55,0,1.89-1.3,1.88-2.64s-.39-2.62-2-2.57C84.21,62.54,85.63,64.2,84.94,65.13Z"/><path class="cls-4" d="M203.16,69.3a7.68,7.68,0,0,1-1.09-.18c-.57-.16-1.35-.32-1.18-1.12.21-1,.89-.43,1.46-.28.72.19,1.61.44,2-.47.42-1.09-.57-1.36-1.32-1.63-1.54-.56-2.51-1.47-1.88-3.22.47-1.31,2.53-1.85,4.1-1.16.44.19,1,.38.8,1s-.64.46-1.13.32c-.7-.21-1.66-.55-2,.37-.35,1.1.81,1.23,1.5,1.53,1.27.53,2.09,1.33,1.77,2.8S204.69,69.22,203.16,69.3Z"/><path class="cls-4" d="M164.19,68.78a11.32,11.32,0,0,1,.8-1.39c1.21-1.49,1.48-2.94.13-4.53-.31-.37-1-1.06-.26-1.56s1.33,0,1.62.72c.74,1.77,1.35,1.17,2,0,.31-.59.83-1.07,1.47-.72s.13,1-.15,1.35a3.44,3.44,0,0,0,0,4.9c.31.38,1,1,.22,1.54a1.11,1.11,0,0,1-1.52-.65c-.85-1.77-1.56-1.72-2.36,0C165.8,69.22,165.06,69.09,164.19,68.78Z"/><path class="cls-4" d="M159.36,61.16a6,6,0,0,1,1,0c.54.11,1.45-.37,1.49.53s-.82.67-1.41.74-1.64-.37-1.68.87c0,1,.78.9,1.44,1s1,.15.94.79-.63.6-1.09.59c-.75,0-1.33.08-1.33,1.06,0,1.18.82,1,1.56,1.05a8.2,8.2,0,0,1,1.21.08.63.63,0,0,1,.53.73c0,.37-.34.4-.59.41-1.23,0-2.45,0-3.67,0-.76,0-.82-.56-.83-1.13,0-1.83,0-3.67,0-5.5C157,60.26,158.66,61.58,159.36,61.16Z"/><path class="cls-4" d="M109.41,65.23c0-3.14,2.45-5.13,5-4,.58.24,1.25.52,1,1.29s-.84.23-1.29.07a1.9,1.9,0,0,0-2.4.51,3.65,3.65,0,0,0-.12,3.88,1.87,1.87,0,0,0,2.32.77c.53-.12,1.23-.82,1.46.21.18.76-.58,1-1.16,1.16C111.7,70,109.43,68.14,109.41,65.23Z"/><path class="cls-4" d="M43.46,65.13c0-3.15,2.5-5,5.11-3.89.49.22,1.12.46.93,1.13-.23.83-.83.41-1.32.22a1.89,1.89,0,0,0-2.53.65,3.35,3.35,0,0,0,0,3.68,2,2,0,0,0,2.52.75c.49-.16,1.07-.64,1.32.2.21.68-.4.92-.9,1.14C46,70.16,43.45,68.24,43.46,65.13Z"/><path class="cls-4" d="M118.37,64.9v-.41c0-3.57.33-3.85,4-3.32.4.06.9,0,.89.57s-.43.65-.87.67-.82,0-1.23,0c-.59,0-1.09.09-1.08.87s.39.91,1,1,1.42-.22,1.35.75-.91.6-1.46.64-.93.36-.94,1,.31,1,1.08,1.1,2.3-.4,2.23.66-1.56.51-2.4.54C118.37,69.08,118.37,69,118.37,64.9Z"/><path class="cls-4" d="M92.58,65V64.6c0-3.6.55-4.06,4.06-3.43.33.06.74,0,.78.46s-.3.71-.75.78a1.34,1.34,0,0,0-.2,0c-.74.25-2-.61-2.17.77s1.17.89,1.89,1.13a.65.65,0,0,1,.47.78c-.1.52-.54.54-1,.54-.77,0-1.52,0-1.49,1.12s.89.95,1.59,1c.41,0,.82,0,1.22.08a.67.67,0,0,1,.61.7c0,.47-.42.44-.75.47h-.2C92.58,69.46,92.58,69.46,92.58,65Z"/><path class="cls-4" d="M196.27,69c-3,0-2.64.31-2.68-2.77V64.6c0-3.6.55-4.06,4.06-3.43.32.06.73,0,.78.46s-.3.72-.75.77c-.27,0-.54,0-.81,0-.67.08-1.62-.31-1.62,1,0,1,.71,1,1.41,1,.47,0,1,0,1,.69,0,.54-.51.56-.92.57-.76,0-1.53-.09-1.5,1.09,0,1.39,1.05.91,1.77,1h.21c.59,0,1.42-.09,1.4.75s-.84.41-1.32.49A5.78,5.78,0,0,1,196.27,69Z"/><path class="cls-4" d="M151.55,61.06a8.41,8.41,0,0,1,1.23,0c.6.08,1.56-.38,1.67.59s-.76.8-1.36.81c-.91,0-.92.61-.92,1.25,0,1.37,0,2.73,0,4.09,0,.67-.08,1.23-1,1.19s-.8-.6-.81-1.16c0-1.08,0-2.18,0-3.26.05-1.25.06-2.39-1.73-2.14-.34.05-.71-.11-.63-.58a.78.78,0,0,1,.67-.68c1-.09,1.9-.12,2.85-.17Z"/><path class="cls-4" d="M71.26,65v-.41c0-3.83,0-3.83,3.82-3.45.43,0,1.09-.13,1,.61,0,.59-.61.64-1.1.64l-1.23,0c-.57,0-.87.25-.86.86s.31.8.88.87,1.58-.33,1.52.78c0,.89-.92.58-1.47.63-1.49.16-.8,1.3-.94,2-.11.56.14,1.31-.81,1.34s-.82-.7-.84-1.28C71.24,66.8,71.26,65.92,71.26,65Z"/><path class="cls-4" d="M186,65c0-.88,0-1.76,0-2.65,0-.55,0-1.17.79-1.11a1,1,0,0,1,1,1.11,28.53,28.53,0,0,1,0,3.46c-.13,1.45.26,2.22,1.87,2,.56-.09,1.25,0,1.26.7,0,.83-.79.54-1.27.56C186,69.2,186,69.19,186,65Z"/><path class="cls-4" d="M175.86,61.16a5,5,0,0,1,1,0c.66.13,1.74-.46,1.9.5s-.9.7-1.51.81c-.87.15-.75.83-.76,1.42,0,1.35,0,2.71,0,4.06,0,.49,0,1-.71,1s-.93-.37-.93-1c0-1.22,0-2.44,0-3.66s0-2.08-1.55-1.87c-.3.05-.73.05-.79-.4a.69.69,0,0,1,.7-.81c.88-.06,1.76,0,2.64,0Z"/><path class="cls-4" d="M132.05,65.3V68c0,.61-.14,1.07-.9,1s-.86-.5-.86-1.1c0-1.84,0-3.68,0-5.51,0-.52-.1-1.19.72-1.19s1,.58,1,1.24C132.06,63.39,132.05,64.35,132.05,65.3Z"/><path class="cls-4" d="M183,65.22v2.86c0,.54-.19.91-.83.9s-.8-.39-.8-.93c0-2,0-3.94,0-5.92,0-.5.09-1,.77-.93a.86.86,0,0,1,.84,1c0,1,0,2,0,3.06Z"/><path class="cls-4" d="M78.7,65.09c0-1,0-1.9,0-2.85,0-.49,0-1,.67-1a.81.81,0,0,1,.93.86c0,2,0,4.08,0,6.12a.7.7,0,0,1-.71.8c-.59,0-.9-.23-.9-.83,0-1,0-2,0-3.06Z"/><path class="cls-4" d="M237.38,83.08c-.23-1.24.23-1.69,1.51-1.73,1.71,0,1.55,1.1,1.7,2.15.18,1.29-.68,1.2-1.52,1.25C237.81,84.84,237.06,84.5,237.38,83.08Z"/><path class="cls-4" d="M230.66,84.67c-.3-.12-1.47.48-1.24-.83.19-1.12.18-2.59,2-2.45.61,0,1.58-.23,1.26.93C232.4,83.29,233.08,85.06,230.66,84.67Z"/><path class="cls-4" d="M243.11,84.7c-2.33.31-1.65-1.46-1.9-2.43s.72-.85,1.32-.88c1.81-.09,1.79,1.41,1.95,2.5C244.66,85.16,243.49,84.54,243.11,84.7Z"/><path class="cls-4" d="M234.94,85.47c1.3-.26,1.67.35,1.65,1.67s-.37,1.61-1.61,1.63c-1.7,0-1.55-1.09-1.67-2.15C233.15,85.31,234,85.44,234.94,85.47Z"/><path class="cls-4" d="M237.39,87.14c-.29-1.35.3-1.84,1.63-1.7.79.08,1.75-.17,1.57,1.16-.14,1,.06,2.22-1.66,2.17C237.73,88.74,237.12,88.44,237.39,87.14Z"/><path class="cls-4" d="M236.5,83c.35,1.59-.53,1.75-1.71,1.7-.86,0-1.65,0-1.48-1.25.14-1.09.09-2.16,1.74-2.08C236.29,81.41,236.82,81.81,236.5,83Z"/><path class="cls-4" d="M243.43,85.56c.16,0,1.3-.48,1,.85-.2,1-.17,2.47-1.9,2.32-.59-.06-1.61.29-1.34-.88C241.46,86.86,240.82,85.08,243.43,85.56Z"/><path class="cls-4" d="M230.84,85.47c2.19-.42,1.59,1.33,1.83,2.34.27,1.18-.71.86-1.31.92-1.73.18-1.71-1.23-1.94-2.28C229.14,85.13,230.24,85.58,230.84,85.47Z"/><path class="cls-4" d="M236.53,91.3c-.16.37.39,1.37-.56,1.29-1.28-.11-1.56-1.39-1.81-2.38s.63-.62,1.1-.68C236.61,89.35,236.62,90.24,236.53,91.3Z"/><path class="cls-4" d="M237.37,91.31c-.06-1-.15-2,1.24-1.78.47.06,1.33-.21,1.13.64-.23,1-.52,2.27-1.78,2.42C237,92.7,237.54,91.7,237.37,91.31Z"/><path class="cls-4" d="M236.51,79c.18,1.17-.17,1.74-1.27,1.61-.48-.06-1.27.14-1.07-.72s.56-2.13,1.72-2.24S236.35,78.63,236.51,79Z"/><path class="cls-4" d="M239.13,80.51c-1.88.29-1.85-.66-1.76-1.56,0-.5-.35-1.45.65-1.31,1.17.16,1.43,1.33,1.69,2.26S239.1,80.51,239.13,80.51Z"/><path class="cls-4" d="M231,89.67c2-.61,2.42.51,2.65,2.2A4.1,4.1,0,0,1,231,89.67Z"/><path class="cls-4" d="M243,89.7a5.56,5.56,0,0,1-2.71,2.21C240.41,90.25,240.78,89.12,243,89.7Z"/><path class="cls-4" d="M243,80.48c-2.14.66-2.54-.47-2.77-2.13A5.14,5.14,0,0,1,243,80.48Z"/><path class="cls-4" d="M233.71,78.12c-.29,1.88-.71,3-2.66,2.42C231.46,79.35,232.49,78.92,233.71,78.12Z"/><path class="cls-4" d="M193.7,42.8a9.82,9.82,0,0,1,0-2c.25-1.08-.83-2.59.78-3.2,1.9-.71,5.32,0,6.13,1.24a3,3,0,0,1-.28,4.11c-1.2,1-.8,1.75-.13,2.68a5.11,5.11,0,0,1,.64,1c.22.57,1.22,1.15.46,1.7a1.64,1.64,0,0,1-2.33-.56c-.58-.84-1.06-1.74-1.6-2.6-.22-.35-.45-.77-.92-.68s-.4.63-.42,1c0,.54,0,1.08,0,1.63,0,.76-.09,1.32-1.07,1.32s-1.31-.46-1.29-1.38C193.72,45.66,193.7,44.23,193.7,42.8ZM196,41c.24.62-.52,1.81.91,1.8a1.73,1.73,0,0,0,1.89-1.93,1.61,1.61,0,0,0-1.64-1.72C195.62,39,196.16,40.16,196,41Z"/></svg>