<svg id="Layer_2" data-name="Layer 2" xmlns="http://www.w3.org/2000/svg" viewBox="0 0 32 32"><defs><style>.cls-1{fill:#fff;}</style></defs><title>ig_w</title><path class="cls-1" d="M31.79,22.28V9.72A9.51,9.51,0,0,0,22.28.21H9.72A9.51,9.51,0,0,0,.21,9.72V22.28a9.51,9.51,0,0,0,9.51,9.51H22.28A9.51,9.51,0,0,0,31.79,22.28Zm-28.6,0V9.72A6.53,6.53,0,0,1,9.72,3.19H22.28a6.53,6.53,0,0,1,6.53,6.53V22.28a6.53,6.53,0,0,1-6.53,6.53H9.72A6.53,6.53,0,0,1,3.19,22.28Z"/><path class="cls-1" d="M16.05,8.4a7.8,7.8,0,1,0,7.8,7.8A7.81,7.81,0,0,0,16.05,8.4Zm0,12.8a5,5,0,1,1,5-5A5,5,0,0,1,16.05,21.2Z"/><path class="cls-1" d="M24.31,9.74a1.86,1.86,0,1,0-1.86-1.86A1.85,1.85,0,0,0,24.31,9.74Z"/></svg>