<svg id="Layer_2" data-name="Layer 2" xmlns="http://www.w3.org/2000/svg" viewBox="0 0 160 24"><defs><style>.cls-1,.cls-2{fill:#fff;}.cls-2{fill-rule:evenodd;}</style></defs><title>logo_w</title><path class="cls-1" d="M87.3,21.9a14.67,14.67,0,0,1-5.46-1,5.93,5.93,0,0,1-3.67-3.5A1.67,1.67,0,0,1,78.32,16a1.64,1.64,0,0,1,1.34-.7,1.9,1.9,0,0,1,1.75,1.11c.75,2.15,4.37,2.38,5.89,2.38,4.32,0,5.85-1.57,5.85-2.91,0-1.81-2.75-2-5.66-2.24h-.17c-4.2-.31-9-.66-9-5.26a5,5,0,0,1,3-4.44A12.27,12.27,0,0,1,87,2.65c3.23,0,7.36.72,8.73,4.13A1.3,1.3,0,0,1,95.64,8a1.85,1.85,0,0,1-1.53.7,1.52,1.52,0,0,1-1.41-.83C92.29,6.92,91,5.77,87,5.77a9.61,9.61,0,0,0-3.47.65c-.82.34-1.79,1-1.79,2,0,1.89,2.72,2.08,5.86,2.31l.45,0c4,.31,8.46.67,8.46,5.12a5.21,5.21,0,0,1-3.29,4.78,14.11,14.11,0,0,1-6,1.22"/><path class="cls-1" d="M101.08,21.7a1.85,1.85,0,0,1-1.53-.78,1.32,1.32,0,0,1,0-1.29l8.94-16.22a1.72,1.72,0,0,1,1.46-.93,1.7,1.7,0,0,1,1.42.92l8.9,16.12a1.28,1.28,0,0,1,.08,1.32,1.77,1.77,0,0,1-1.56.82,1.63,1.63,0,0,1-1.48-.82l-2.14-3.93H104.67l-2.23,4a1.48,1.48,0,0,1-1.36.77m5.08-7.61h7.44l-3.7-7.42Z"/><path class="cls-1" d="M129,21.7a1.54,1.54,0,0,1-1.65-1.56v-6l-7.67-9.37a1.33,1.33,0,0,1-.23-1.47A1.78,1.78,0,0,1,121,2.37a1.66,1.66,0,0,1,1.38.7L129,11.33,135.6,3a1.6,1.6,0,0,1,1.34-.67,1.67,1.67,0,0,1,1.47.84,1.37,1.37,0,0,1-.15,1.47l-7.62,9.45v6A1.58,1.58,0,0,1,129,21.7"/><path class="cls-1" d="M139.24,21.7a1.85,1.85,0,0,1-1.53-.78,1.32,1.32,0,0,1-.05-1.29l8.93-16.22a1.75,1.75,0,0,1,1.47-.93,1.7,1.7,0,0,1,1.42.92l8.9,16.12a1.28,1.28,0,0,1,.08,1.32,1.77,1.77,0,0,1-1.56.82,1.62,1.62,0,0,1-1.48-.82l-2.14-3.93H142.83l-2.23,4a1.48,1.48,0,0,1-1.36.77m5.08-7.61h7.44l-3.71-7.42Z"/><path class="cls-2" d="M63.59,12.15,51.17,7.5h-12a.12.12,0,0,0-.08,0L25.33,13.26H14.68C14.17,13.09,9.88,11.65,8,11l-.64-.22a.08.08,0,0,1,0-.13l10.51-6a.19.19,0,0,1,.1,0H51A1.53,1.53,0,0,0,52.55,3,1.49,1.49,0,0,0,51,1.34H17l-.12,0L1.57,11.16a.39.39,0,0,0,.08.69L14.06,16.5l.08,0H26.05a.12.12,0,0,0,.08,0L39.9,10.74H50.55c.51.18,4.8,1.62,6.64,2.26l.64.22a.08.08,0,0,1,0,.13L47.33,19.39a.19.19,0,0,1-.1,0h-33a1.53,1.53,0,0,0-1.51,1.63,1.49,1.49,0,0,0,1.51,1.61h34a.27.27,0,0,0,.12,0l15.31-9.79a.39.39,0,0,0-.07-.69"/></svg>