<svg id="Layer_2" data-name="Layer 2" xmlns="http://www.w3.org/2000/svg" viewBox="0 0 218 300"><defs><style>.cls-1{fill:#032dfe;}.cls-2{fill:#fafbfe;}.cls-3{fill:#0e7bfe;}</style></defs><title>oceancycle</title><path class="cls-1" d="M0,0H218V300H0ZM4.22,4.47v291h209.4c.89-7.25.58-287.42-.31-291Z"/><path class="cls-2" d="M4.22,4.47H213.31c.89,3.63,1.2,283.8.31,291H4.22ZM135.85,221.41c.1,16.52.19,33,.29,49.84L142,271V225c5.22.51,10.22-.07,14.59-3.41l1.42,3.59,4.86-.37v-36h-4.78l-1.33,3.48c-4.08-2.88-8.18-4.59-12.91-3.74-7.62,1.38-12.77,5.91-14.53,13.35C127.54,209.47,129.08,216.44,135.85,221.41ZM108.94,19.67C69.48,18.5,30.61,50.43,30.25,97.16c-.34,44.62,35.57,78.42,77.61,78.75,41.35.33,78.7-32.35,78.68-78.17C186.53,49.87,147,18.94,108.94,19.67Zm17.65,190.16c1-11.3-5-19.39-15.18-21.21a18.39,18.39,0,0,0-8.77,35.6c9.09,3,19.13-.76,22.56-8.67l-4.08-2.67c-4.33,5.79-9.89,7.82-16.46,5.94a10.43,10.43,0,0,1-8-9Zm52.79,46.1C180.81,245.82,175,237,166,235c-9.91-2.2-19.31,3-22.11,12.34a18.33,18.33,0,0,0,6.23,20.13c5.6,4.48,15.26,5.08,21.69,1.29a15,15,0,0,0,6.69-6.91L174,259c-4.69,5.95-10.33,8.11-17.07,5.75-3.76-1.32-6.73-3.91-7.1-8.81ZM54.21,206.68a18.24,18.24,0,0,0-18.43-18.35,18.7,18.7,0,0,0-18.42,18.55A18.38,18.38,0,0,0,36,225.09,17.94,17.94,0,0,0,54.21,206.68Zm16.84,76c8,1.62,13.19-2.09,16.08-7.82.89-1.78,2-3.47,2.77-5.29,4.46-10.39,8.85-20.8,13.26-31.2.43-1,.79-2.07,1.38-3.62H98.4L87.17,260.85c-4.12-9.42-7.82-17.86-11.42-26.08H69.52l14.53,34.06c-1.64,2.35-3.07,4.55-4.67,6.63-2.09,2.73-8.33,2.45-8.33,2.45Zm126.13-57.82c0-3.72,0-7.18,0-10.64,0-3.66.09-7.33-.09-11a15.56,15.56,0,0,0-11.86-14.33c-5-1.33-9.5-.07-14,2.3l-1.78-2.7-4.27.26v36h5.43v-3.2c0-5.66-.11-11.33,0-17,.17-6.24,4.51-10.55,10.33-10.56s10.07,4.16,10.26,10.5c.14,4.49,0,9,.14,13.49.06,2.27.35,4.54.53,6.84ZM90.4,197c-5.22-7.69-13.8-10.52-22.19-7.67-7.65,2.61-12.56,10.16-12.16,18.72a18.4,18.4,0,0,0,14.18,16.68c8.34,1.85,16.1-1.52,19.94-8.88l-4-2.77c-1.08,1.13-1.92,2.15-2.89,3a12.49,12.49,0,0,1-14,2.2c-4.91-2.07-7.35-6.09-7.39-11.43s2.38-9.36,7.19-11.6,9.74-1.58,14.08,1.72a37.44,37.44,0,0,1,3.16,3ZM71.13,243.41c-4.23-7.4-12.43-10.58-20.83-8.3A18.27,18.27,0,0,0,36.81,253.3c.36,8.21,6,15.74,13.76,17.53,8.55,2,16.45-1.33,20.53-8.83l-3.91-2.58c-1.53,1.36-2.63,2.38-3.77,3.35a12.36,12.36,0,0,1-8.77,2.92,12.62,12.62,0,0,1-11.59-9.42A12.87,12.87,0,0,1,48.74,242a13.28,13.28,0,0,1,15.72,1.72c.82.76,1.6,1.57,2.48,2.45Zm59,15.46a28.65,28.65,0,0,1-3.11,3.92,11.7,11.7,0,0,1-9.26,2.85,12.9,12.9,0,0,1-11.31-11c-.82-4.87,2.07-10.54,6.62-13a13.52,13.52,0,0,1,15.28,2.11c.81.76,1.6,1.55,2.5,2.43l4.08-3c-3.69-7.66-14.09-10.54-22.31-7.7s-12.73,10.74-11.81,19.84a17.75,17.75,0,0,0,15.11,15.68c8.88,1.11,15.85-2.24,18.6-9.15Z"/><path class="cls-1" d="M108.94,19.67c38-.73,77.59,30.2,77.6,78.07,0,45.82-37.33,78.5-78.68,78.17-42-.33-77.95-34.13-77.61-78.75C30.61,50.43,69.48,18.5,108.94,19.67ZM162,76.83l4.6-4.92c-6.08-6.6-18-9.29-24.72-8.57-12.63,1.35-22.08,7.62-28.56,19-.87-1.19-1.57-2.07-2.21-3C102.55,66.86,90.76,61.57,75.81,64c-19.88,3.19-32.8,23.82-27,43.12,4.2,13.9,13.74,22.44,28,24.58,14,2.1,25.49-3,33.82-14.7l2.72-3.79c5.73,9.9,13.59,16.27,24.39,18.28s20.73-.49,29.71-8.15l-5.35-4.81-1.89-2.63c-2.68,1.49-4.84,3.31-7.3,3.95-12.16,3.17-19.35.76-27-8.43a20,20,0,0,1-4.74-13.79,25.69,25.69,0,0,1,5-14.25c6-8,19.62-12.49,29.74-6a37.47,37.47,0,0,0,4.06,2ZM79.39,54.1c1.64,1.79,3.51,2.45,5.65.81A3.72,3.72,0,0,0,85.8,50a3.47,3.47,0,0,0-4.27-1.62C79.35,49.1,78.9,50.29,79.39,54.1Zm38.68-20a3.77,3.77,0,0,0-3.67-3.91A3.89,3.89,0,0,0,110.52,34a4,4,0,0,0,3.74,3.94A3.85,3.85,0,0,0,118.07,34.1Zm-22.57.17c-2.7.62-4.22,1.89-3.86,4.56A3.55,3.55,0,0,0,95.44,42a3.45,3.45,0,0,0,3.4-2.43C99.61,37.47,98.81,36.19,95.5,34.27Z"/><path class="cls-1" d="M126.59,209.83H96.69a10.43,10.43,0,0,0,8,9c6.57,1.88,12.13-.15,16.46-5.94l4.08,2.67c-3.43,7.91-13.47,11.67-22.56,8.67a18.39,18.39,0,0,1,8.77-35.6C121.58,190.44,127.6,198.53,126.59,209.83Zm-5.76-6.05c-2.72-7.14-8.27-10.7-14.3-9.6-5.54,1-9.19,4.71-9.35,9.6Z"/><path class="cls-3" d="M179.38,255.93H149.83c.37,4.9,3.34,7.49,7.1,8.81,6.74,2.36,12.38.2,17.07-5.75l4.46,2.89a15,15,0,0,1-6.69,6.91c-6.43,3.79-16.09,3.19-21.69-1.29a18.33,18.33,0,0,1-6.23-20.13c2.8-9.3,12.2-14.54,22.11-12.34C175,237,180.81,245.82,179.38,255.93Zm-6.27-6.17a11.38,11.38,0,0,0-11.61-9.57c-6,0-10.42,3.56-11.64,9.57Z"/><path class="cls-1" d="M135.85,221.41c-6.77-5-8.31-11.94-6.51-19.53,1.76-7.44,6.91-12,14.53-13.35,4.73-.85,8.83.86,12.91,3.74l1.33-3.48h4.78v36l-4.86.37-1.42-3.59c-4.37,3.34-9.37,3.92-14.59,3.41v-5.23Zm10.31-1.68a9.29,9.29,0,0,0,5.11-1.74c7.77-4.46,8.09-17.08.64-22.05a9.77,9.77,0,0,0-9.48-1.15c-4.92,1.88-7.41,5.71-7.94,10.61C133.6,213.64,139.92,219.63,146.16,219.73Z"/><path class="cls-1" d="M54.21,206.68A17.94,17.94,0,0,1,36,225.09a18.38,18.38,0,0,1-18.62-18.21,18.7,18.7,0,0,1,18.42-18.55A18.24,18.24,0,0,1,54.21,206.68Zm-5.81.16A12.53,12.53,0,0,0,35.94,194c-6.81,0-13,5.86-12.78,12.69a12.62,12.62,0,0,0,12.67,12.7C43.09,219.29,48.39,214.13,48.4,206.84Z"/><path class="cls-3" d="M71.05,282.7v-4.79s6.24.28,8.33-2.45c1.6-2.08,3-4.28,4.67-6.63L69.52,234.77h6.23c3.6,8.22,7.3,16.66,11.42,26.08L98.4,234.77h6.14c-.59,1.55-1,2.6-1.38,3.62-4.41,10.4-8.8,20.81-13.26,31.2-.79,1.82-1.88,3.51-2.77,5.29C84.24,280.61,79,284.32,71.05,282.7Z"/><path class="cls-1" d="M197.18,224.88h-5.25c-.18-2.3-.47-4.57-.53-6.84-.11-4.5,0-9-.14-13.49-.19-6.34-4.35-10.52-10.26-10.5s-10.16,4.32-10.33,10.56c-.15,5.65,0,11.32,0,17v3.2H165.2v-36l4.27-.26,1.78,2.7c4.48-2.37,9-3.63,14-2.3a15.56,15.56,0,0,1,11.86,14.33c.18,3.66.08,7.33.09,11C197.19,217.7,197.18,221.16,197.18,224.88Z"/><path class="cls-1" d="M90.4,197l-4.09,3a37.44,37.44,0,0,0-3.16-3c-4.34-3.3-9.14-4-14.08-1.72s-7.23,6.26-7.19,11.6,2.48,9.36,7.39,11.43a12.49,12.49,0,0,0,14-2.2c1-.86,1.81-1.88,2.89-3l4,2.77c-3.84,7.36-11.6,10.73-19.94,8.88a18.4,18.4,0,0,1-14.18-16.68c-.4-8.56,4.51-16.11,12.16-18.72C76.6,186.52,85.18,189.35,90.4,197Z"/><path class="cls-3" d="M71.13,243.41l-4.19,2.75c-.88-.88-1.66-1.69-2.48-2.45A13.28,13.28,0,0,0,48.74,242a12.87,12.87,0,0,0-5.68,14.28,12.62,12.62,0,0,0,11.59,9.42,12.36,12.36,0,0,0,8.77-2.92c1.14-1,2.24-2,3.77-3.35L71.1,262c-4.08,7.5-12,10.8-20.53,8.83-7.73-1.79-13.4-9.32-13.76-17.53A18.27,18.27,0,0,1,50.3,235.11C58.7,232.83,66.9,236,71.13,243.41Z"/><path class="cls-3" d="M130.09,258.87l4.39,3c-2.75,6.91-9.72,10.26-18.6,9.15a17.75,17.75,0,0,1-15.11-15.68c-.92-9.1,3.73-17,11.81-19.84s18.62,0,22.31,7.7l-4.08,3c-.9-.88-1.69-1.67-2.5-2.43A13.52,13.52,0,0,0,113,241.64c-4.55,2.43-7.44,8.1-6.62,13a12.9,12.9,0,0,0,11.31,11,11.7,11.7,0,0,0,9.26-2.85A28.65,28.65,0,0,0,130.09,258.87Z"/><path class="cls-3" d="M135.85,221.41l6.17-1.65V271l-5.88.28C136,254.45,136,237.93,135.85,221.41Z"/><path class="cls-2" d="M162.11,118.5l5.35,4.81c-9,7.66-18.81,10.19-29.71,8.15s-18.66-8.38-24.39-18.28L110.64,117c-8.33,11.68-19.82,16.8-33.82,14.7C62.57,129.53,53,121,48.83,107.09,43,87.79,55.93,67.16,75.81,64c15-2.4,26.74,2.89,35.34,15.33.64.93,1.34,1.81,2.21,3,6.48-11.34,15.93-17.61,28.56-19,6.74-.72,18.64,2,24.72,8.57L162,76.83a39.42,39.42,0,0,0-3.61-2.62c-9.1-5.16-18.35-5.44-27.48-.24-9,5.1-13.67,13.14-13.8,23.31-.15,11.5,5.27,20.28,15.67,25.15S153.18,126,162.11,118.5Zm-53-20.82c.57-12.77-10-27.35-27.09-27.38S54.57,85,54.74,97.55c.2,15.52,12,27.59,27.45,27.53C97.4,125,109.17,113.06,109.16,97.68Z"/><path class="cls-3" d="M162.11,118.5c-8.93,7.54-18.94,8.77-29.29,3.93S117,108.78,117.15,97.28C117.28,87.11,122,79.07,131,74c9.13-5.2,18.38-4.92,27.48.24A39.42,39.42,0,0,1,162,76.83l-2,2.5a37.47,37.47,0,0,1-4.06-2c-10.12-6.49-23.69-2-29.74,6a25.69,25.69,0,0,0-5,14.25A20,20,0,0,0,126,111.39c7.61,9.19,14.8,11.6,27,8.43,2.46-.64,4.62-2.46,7.3-3.95Z"/><path class="cls-2" d="M79.39,54.1c-.49-3.81,0-5,2.14-5.74A3.47,3.47,0,0,1,85.8,50,3.72,3.72,0,0,1,85,54.91C82.9,56.55,81,55.89,79.39,54.1Z"/><path class="cls-2" d="M118.07,34.1a3.85,3.85,0,0,1-3.81,3.79A4,4,0,0,1,110.52,34a3.89,3.89,0,0,1,3.88-3.76A3.77,3.77,0,0,1,118.07,34.1Z"/><path class="cls-2" d="M95.5,34.27c3.31,1.92,4.11,3.2,3.34,5.31A3.45,3.45,0,0,1,95.44,42a3.55,3.55,0,0,1-3.8-3.18C91.28,36.16,92.8,34.89,95.5,34.27Z"/><path class="cls-2" d="M120.83,203.78H97.18c.16-4.89,3.81-8.6,9.35-9.6C112.56,193.08,118.11,196.64,120.83,203.78Z"/><path class="cls-2" d="M173.11,249.76H149.86c1.22-6,5.68-9.61,11.64-9.57A11.38,11.38,0,0,1,173.11,249.76Z"/><path class="cls-2" d="M146.16,219.73c-6.24-.1-12.56-6.09-11.67-14.33.53-4.9,3-8.73,7.94-10.61a9.77,9.77,0,0,1,9.48,1.15c7.45,5,7.13,17.59-.64,22.05A9.79,9.79,0,0,1,146.16,219.73Z"/><path class="cls-2" d="M48.4,206.84c0,7.29-5.31,12.45-12.57,12.59a12.62,12.62,0,0,1-12.67-12.7c-.2-6.83,6-12.7,12.78-12.69A12.53,12.53,0,0,1,48.4,206.84Z"/><path class="cls-3" d="M109.16,97.68c0,15.38-11.76,27.34-27,27.4-15.43.06-27.25-12-27.45-27.53C54.57,85,64.81,70.27,82.07,70.3S109.73,84.91,109.16,97.68ZM81.93,120.05c11.8,1.6,23.39-10.58,23-22.77S95.17,74.9,82.13,75.07c-14.8.19-22.54,10.47-22.88,22.49S69.59,121.32,81.93,120.05Z"/><path class="cls-1" d="M81.93,120.05c-12.34,1.27-23-10.37-22.68-22.49s8.08-22.3,22.88-22.49c13-.17,22.34,10.16,22.76,22.21S93.73,121.65,81.93,120.05Zm2-29.68a8.45,8.45,0,0,0-7.47-9,8.35,8.35,0,0,0-8.93,7.49,8.23,8.23,0,1,0,16.4,1.48Z"/><path class="cls-2" d="M83.89,90.37a8.23,8.23,0,1,1-16.4-1.48,8.35,8.35,0,0,1,8.93-7.49A8.45,8.45,0,0,1,83.89,90.37Z"/></svg>